%TF.GenerationSoftware,KiCad,Pcbnew,(6.0.11)*%
%TF.CreationDate,2023-08-11T21:29:26-04:00*%
%TF.ProjectId,1fNoiseAmplifierRev13,31664e6f-6973-4654-916d-706c69666965,rev?*%
%TF.SameCoordinates,Original*%
%TF.FileFunction,Paste,Top*%
%TF.FilePolarity,Positive*%
%FSLAX46Y46*%
G04 Gerber Fmt 4.6, Leading zero omitted, Abs format (unit mm)*
G04 Created by KiCad (PCBNEW (6.0.11)) date 2023-08-11 21:29:26*
%MOMM*%
%LPD*%
G01*
G04 APERTURE LIST*
G04 Aperture macros list*
%AMRoundRect*
0 Rectangle with rounded corners*
0 $1 Rounding radius*
0 $2 $3 $4 $5 $6 $7 $8 $9 X,Y pos of 4 corners*
0 Add a 4 corners polygon primitive as box body*
4,1,4,$2,$3,$4,$5,$6,$7,$8,$9,$2,$3,0*
0 Add four circle primitives for the rounded corners*
1,1,$1+$1,$2,$3*
1,1,$1+$1,$4,$5*
1,1,$1+$1,$6,$7*
1,1,$1+$1,$8,$9*
0 Add four rect primitives between the rounded corners*
20,1,$1+$1,$2,$3,$4,$5,0*
20,1,$1+$1,$4,$5,$6,$7,0*
20,1,$1+$1,$6,$7,$8,$9,0*
20,1,$1+$1,$8,$9,$2,$3,0*%
%AMFreePoly0*
4,1,21,1.372500,0.787500,0.862500,0.787500,0.862500,0.532500,1.372500,0.532500,1.372500,0.127500,0.862500,0.127500,0.862500,-0.127500,1.372500,-0.127500,1.372500,-0.532500,0.862500,-0.532500,0.862500,-0.787500,1.372500,-0.787500,1.372500,-1.195000,0.612500,-1.195000,0.612500,-1.117500,-0.862500,-1.117500,-0.862500,1.117500,0.612500,1.117500,0.612500,1.195000,1.372500,1.195000,
1.372500,0.787500,1.372500,0.787500,$1*%
G04 Aperture macros list end*
%ADD10R,0.650000X0.400000*%
%ADD11RoundRect,0.137500X-0.262500X-0.137500X0.262500X-0.137500X0.262500X0.137500X-0.262500X0.137500X0*%
%ADD12RoundRect,0.150000X-0.150000X-0.300000X0.150000X-0.300000X0.150000X0.300000X-0.150000X0.300000X0*%
%ADD13RoundRect,0.175000X0.275000X-0.175000X0.275000X0.175000X-0.275000X0.175000X-0.275000X-0.175000X0*%
%ADD14RoundRect,0.175000X0.175000X0.275000X-0.175000X0.275000X-0.175000X-0.275000X0.175000X-0.275000X0*%
%ADD15RoundRect,0.250000X-1.025000X0.787500X-1.025000X-0.787500X1.025000X-0.787500X1.025000X0.787500X0*%
%ADD16RoundRect,0.250000X0.325000X1.100000X-0.325000X1.100000X-0.325000X-1.100000X0.325000X-1.100000X0*%
%ADD17RoundRect,0.250000X-0.325000X-1.100000X0.325000X-1.100000X0.325000X1.100000X-0.325000X1.100000X0*%
%ADD18RoundRect,0.250000X1.025000X-0.787500X1.025000X0.787500X-1.025000X0.787500X-1.025000X-0.787500X0*%
%ADD19RoundRect,0.150000X0.300000X-0.150000X0.300000X0.150000X-0.300000X0.150000X-0.300000X-0.150000X0*%
%ADD20RoundRect,0.150000X-0.300000X0.150000X-0.300000X-0.150000X0.300000X-0.150000X0.300000X0.150000X0*%
%ADD21RoundRect,0.198450X0.464050X0.326550X-0.464050X0.326550X-0.464050X-0.326550X0.464050X-0.326550X0*%
%ADD22RoundRect,0.172500X0.172500X0.422500X-0.172500X0.422500X-0.172500X-0.422500X0.172500X-0.422500X0*%
%ADD23RoundRect,0.095000X0.405000X0.095000X-0.405000X0.095000X-0.405000X-0.095000X0.405000X-0.095000X0*%
%ADD24RoundRect,0.177778X-0.697222X0.222222X-0.697222X-0.222222X0.697222X-0.222222X0.697222X0.222222X0*%
%ADD25RoundRect,0.198450X-0.464050X-0.326550X0.464050X-0.326550X0.464050X0.326550X-0.464050X0.326550X0*%
%ADD26RoundRect,0.040000X0.210000X0.160000X-0.210000X0.160000X-0.210000X-0.160000X0.210000X-0.160000X0*%
%ADD27RoundRect,0.050000X0.200000X0.375000X-0.200000X0.375000X-0.200000X-0.375000X0.200000X-0.375000X0*%
%ADD28RoundRect,0.011600X0.458400X-0.108000X0.458400X0.108000X-0.458400X0.108000X-0.458400X-0.108000X0*%
%ADD29RoundRect,0.217391X-0.282609X-0.657609X0.282609X-0.657609X0.282609X0.657609X-0.282609X0.657609X0*%
%ADD30RoundRect,0.048000X0.202000X-0.192000X0.202000X0.192000X-0.202000X0.192000X-0.202000X-0.192000X0*%
%ADD31RoundRect,0.050000X0.200000X-0.300000X0.200000X0.300000X-0.200000X0.300000X-0.200000X-0.300000X0*%
%ADD32RoundRect,0.110000X0.490000X-0.440000X0.490000X0.440000X-0.490000X0.440000X-0.490000X-0.440000X0*%
%ADD33RoundRect,0.175000X-0.485000X0.175000X-0.485000X-0.175000X0.485000X-0.175000X0.485000X0.175000X0*%
%ADD34R,0.600000X0.700000*%
%ADD35RoundRect,0.080000X-0.350000X-0.100000X0.350000X-0.100000X0.350000X0.100000X-0.350000X0.100000X0*%
%ADD36R,1.800000X0.800000*%
%ADD37RoundRect,0.050000X-0.550000X-0.125000X0.550000X-0.125000X0.550000X0.125000X-0.550000X0.125000X0*%
%ADD38RoundRect,0.250000X0.412500X0.925000X-0.412500X0.925000X-0.412500X-0.925000X0.412500X-0.925000X0*%
%ADD39RoundRect,0.175000X-0.175000X-0.275000X0.175000X-0.275000X0.175000X0.275000X-0.175000X0.275000X0*%
%ADD40RoundRect,0.130000X-0.645000X-0.130000X0.645000X-0.130000X0.645000X0.130000X-0.645000X0.130000X0*%
%ADD41RoundRect,0.217391X0.657609X-0.282609X0.657609X0.282609X-0.657609X0.282609X-0.657609X-0.282609X0*%
%ADD42RoundRect,0.177778X0.222222X0.697222X-0.222222X0.697222X-0.222222X-0.697222X0.222222X-0.697222X0*%
%ADD43R,2.920000X1.270000*%
%ADD44RoundRect,0.217391X0.282609X0.657609X-0.282609X0.657609X-0.282609X-0.657609X0.282609X-0.657609X0*%
%ADD45RoundRect,0.130000X0.645000X0.130000X-0.645000X0.130000X-0.645000X-0.130000X0.645000X-0.130000X0*%
%ADD46RoundRect,0.080000X0.100000X-0.350000X0.100000X0.350000X-0.100000X0.350000X-0.100000X-0.350000X0*%
%ADD47RoundRect,0.050000X0.550000X0.125000X-0.550000X0.125000X-0.550000X-0.125000X0.550000X-0.125000X0*%
%ADD48R,1.000000X1.000000*%
%ADD49R,1.000000X3.140000*%
%ADD50R,3.800000X1.000000*%
%ADD51R,1.000000X3.800000*%
%ADD52R,4.720000X1.000000*%
%ADD53RoundRect,0.175000X-0.275000X-0.175000X0.275000X-0.175000X0.275000X0.175000X-0.275000X0.175000X0*%
%ADD54RoundRect,0.076000X-0.684000X-0.684000X0.684000X-0.684000X0.684000X0.684000X-0.684000X0.684000X0*%
%ADD55RoundRect,0.095500X-0.859500X-0.859500X0.859500X-0.859500X0.859500X0.859500X-0.859500X0.859500X0*%
%ADD56R,0.990000X0.405000*%
%ADD57FreePoly0,0.000000*%
%ADD58RoundRect,0.250000X-0.787500X-1.025000X0.787500X-1.025000X0.787500X1.025000X-0.787500X1.025000X0*%
%ADD59RoundRect,0.050000X-0.300000X-0.200000X0.300000X-0.200000X0.300000X0.200000X-0.300000X0.200000X0*%
%ADD60RoundRect,0.048000X-0.192000X-0.202000X0.192000X-0.202000X0.192000X0.202000X-0.192000X0.202000X0*%
%ADD61RoundRect,0.110000X-0.440000X-0.490000X0.440000X-0.490000X0.440000X0.490000X-0.440000X0.490000X0*%
%ADD62R,4.190000X1.780000*%
%ADD63R,4.190000X2.665000*%
%ADD64RoundRect,0.250000X-0.925000X0.412500X-0.925000X-0.412500X0.925000X-0.412500X0.925000X0.412500X0*%
%ADD65RoundRect,0.150000X0.150000X0.300000X-0.150000X0.300000X-0.150000X-0.300000X0.150000X-0.300000X0*%
%ADD66RoundRect,0.175000X0.175000X-0.275000X0.175000X0.275000X-0.175000X0.275000X-0.175000X-0.275000X0*%
%ADD67RoundRect,0.137500X0.137500X-0.262500X0.137500X0.262500X-0.137500X0.262500X-0.137500X-0.262500X0*%
%ADD68RoundRect,0.200000X0.475000X-0.200000X0.475000X0.200000X-0.475000X0.200000X-0.475000X-0.200000X0*%
%ADD69RoundRect,0.217391X-0.657609X0.282609X-0.657609X-0.282609X0.657609X-0.282609X0.657609X0.282609X0*%
%ADD70RoundRect,0.150000X-0.512500X-0.150000X0.512500X-0.150000X0.512500X0.150000X-0.512500X0.150000X0*%
%ADD71RoundRect,0.250000X-0.412500X-0.925000X0.412500X-0.925000X0.412500X0.925000X-0.412500X0.925000X0*%
%ADD72RoundRect,0.175000X-0.175000X0.275000X-0.175000X-0.275000X0.175000X-0.275000X0.175000X0.275000X0*%
%ADD73RoundRect,0.250000X0.787500X1.025000X-0.787500X1.025000X-0.787500X-1.025000X0.787500X-1.025000X0*%
%ADD74RoundRect,0.175000X-0.275000X0.175000X-0.275000X-0.175000X0.275000X-0.175000X0.275000X0.175000X0*%
%ADD75RoundRect,0.076000X-0.684000X0.684000X-0.684000X-0.684000X0.684000X-0.684000X0.684000X0.684000X0*%
%ADD76RoundRect,0.095500X-0.859500X0.859500X-0.859500X-0.859500X0.859500X-0.859500X0.859500X0.859500X0*%
%ADD77R,2.010000X2.390000*%
%ADD78R,0.405000X0.990000*%
%ADD79FreePoly0,90.000000*%
G04 APERTURE END LIST*
D10*
%TO.C,U28*%
X164286206Y-67629869D03*
X164286206Y-68279869D03*
X164286206Y-68929869D03*
X162386206Y-68929869D03*
X162386206Y-68279869D03*
X162386206Y-67629869D03*
%TD*%
D11*
%TO.C,U34*%
X162186206Y-62729869D03*
X162186206Y-63679869D03*
X162186206Y-64629869D03*
X164686206Y-64629869D03*
X164686206Y-62729869D03*
%TD*%
%TO.C,U33*%
X156586206Y-62729869D03*
X156586206Y-63679869D03*
X156586206Y-64629869D03*
X159086206Y-64629869D03*
X159086206Y-62729869D03*
%TD*%
D12*
%TO.C,R24*%
X165586206Y-67079869D03*
X166886206Y-67079869D03*
%TD*%
D13*
%TO.C,C42*%
X160636206Y-64254869D03*
X160636206Y-62704869D03*
%TD*%
%TO.C,C43*%
X166236206Y-64254869D03*
X166236206Y-62704869D03*
%TD*%
D14*
%TO.C,C41*%
X167111206Y-68479869D03*
X165561206Y-68479869D03*
%TD*%
D15*
%TO.C,C32*%
X153011206Y-95917369D03*
X153011206Y-102142369D03*
%TD*%
D16*
%TO.C,C34*%
X164286206Y-100729869D03*
X161336206Y-100729869D03*
%TD*%
D17*
%TO.C,C40*%
X161266206Y-85379869D03*
X164216206Y-85379869D03*
%TD*%
D18*
%TO.C,C38*%
X153041206Y-86992369D03*
X153041206Y-80767369D03*
%TD*%
D19*
%TO.C,R22*%
X163991206Y-79879869D03*
X163991206Y-78579869D03*
%TD*%
D12*
%TO.C,R15*%
X156611206Y-93807369D03*
X157911206Y-93807369D03*
%TD*%
%TO.C,R14*%
X156611206Y-95179869D03*
X157911206Y-95179869D03*
%TD*%
D20*
%TO.C,R21*%
X165311206Y-78579869D03*
X165311206Y-79879869D03*
%TD*%
D12*
%TO.C,R12*%
X167086206Y-106379869D03*
X168386206Y-106379869D03*
%TD*%
%TO.C,R23*%
X169286206Y-78179869D03*
X170586206Y-78179869D03*
%TD*%
D21*
%TO.C,C39*%
X159478706Y-86029869D03*
X159478706Y-84729869D03*
X156403706Y-86029869D03*
X156403706Y-84729869D03*
%TD*%
D22*
%TO.C,U21*%
X159581206Y-80769869D03*
X160401206Y-82189869D03*
X160401206Y-80769869D03*
X159581206Y-82189869D03*
D23*
X162141206Y-83104869D03*
X162141206Y-82454869D03*
X162141206Y-81804869D03*
X162141206Y-81154869D03*
X162141206Y-80504869D03*
X162141206Y-79854869D03*
X157841206Y-79854869D03*
X157841206Y-80504869D03*
X157841206Y-81154869D03*
X157841206Y-81804869D03*
X157841206Y-82454869D03*
X157841206Y-83104869D03*
%TD*%
D24*
%TO.C,R19*%
X149611206Y-81229869D03*
X149611206Y-84129869D03*
%TD*%
%TO.C,R13*%
X149561206Y-96182369D03*
X149561206Y-99082369D03*
%TD*%
D25*
%TO.C,C33*%
X156473706Y-100179869D03*
X156473706Y-101479869D03*
X159548706Y-100179869D03*
X159548706Y-101479869D03*
%TD*%
D26*
%TO.C,U20*%
X160836206Y-97904869D03*
D27*
X160586206Y-98029869D03*
X159936206Y-97029869D03*
D26*
X159711206Y-97154869D03*
D27*
X160586206Y-97029869D03*
D26*
X160836206Y-97154869D03*
X159711206Y-97904869D03*
D27*
X159936206Y-98029869D03*
D28*
X162411206Y-98529869D03*
X162411206Y-98029869D03*
X162411206Y-97529869D03*
X162411206Y-97029869D03*
X162411206Y-96529869D03*
X158111206Y-96529869D03*
X158111206Y-97029869D03*
X158111206Y-97529869D03*
X158111206Y-98029869D03*
X158111206Y-98529869D03*
%TD*%
D29*
%TO.C,C8*%
X131391832Y-138479869D03*
X134191832Y-138479869D03*
%TD*%
D30*
%TO.C,J18*%
X131836206Y-71489869D03*
D31*
X131836206Y-70779869D03*
D30*
X131836206Y-67869869D03*
D32*
X131836206Y-69679869D03*
D31*
X131836206Y-68579869D03*
%TD*%
D33*
%TO.C,R4*%
X113910142Y-116729869D03*
X113910142Y-118229869D03*
%TD*%
D34*
%TO.C,D3*%
X168336206Y-103579869D03*
X166936206Y-103579869D03*
%TD*%
D35*
%TO.C,U7*%
X159061206Y-132604869D03*
X159061206Y-133254869D03*
X159061206Y-133904869D03*
X159061206Y-134554869D03*
X163211206Y-134554869D03*
X163211206Y-133904869D03*
X163211206Y-133254869D03*
X163211206Y-132604869D03*
%TD*%
%TO.C,U2*%
X168486206Y-140604869D03*
X168486206Y-141254869D03*
X168486206Y-141904869D03*
X168486206Y-142554869D03*
X172636206Y-142554869D03*
X172636206Y-141904869D03*
X172636206Y-141254869D03*
X172636206Y-140604869D03*
%TD*%
D36*
%TO.C,K1*%
X54786206Y-65679869D03*
X54786206Y-68679869D03*
X54786206Y-71079869D03*
X54786206Y-73279869D03*
X60486206Y-73279869D03*
X60486206Y-71079869D03*
X60486206Y-68679869D03*
X60486206Y-65679869D03*
%TD*%
D37*
%TO.C,U12*%
X168936206Y-122729869D03*
X168936206Y-123379869D03*
X168936206Y-124029869D03*
X168936206Y-124679869D03*
X168936206Y-125329869D03*
X168936206Y-125979869D03*
X168936206Y-126629869D03*
X174736206Y-126629869D03*
X174736206Y-125979869D03*
X174736206Y-125329869D03*
X174736206Y-124679869D03*
X174736206Y-124029869D03*
X174736206Y-123379869D03*
X174736206Y-122729869D03*
%TD*%
D38*
%TO.C,C30*%
X168673706Y-110379869D03*
X165598706Y-110379869D03*
%TD*%
D39*
%TO.C,C46*%
X162961206Y-59779869D03*
X164511206Y-59779869D03*
%TD*%
D37*
%TO.C,U26*%
X135936206Y-68404869D03*
X135936206Y-69054869D03*
X135936206Y-69704869D03*
X135936206Y-70354869D03*
X135936206Y-71004869D03*
X135936206Y-71654869D03*
X135936206Y-72304869D03*
X135936206Y-72954869D03*
X141736206Y-72954869D03*
X141736206Y-72304869D03*
X141736206Y-71654869D03*
X141736206Y-71004869D03*
X141736206Y-70354869D03*
X141736206Y-69704869D03*
X141736206Y-69054869D03*
X141736206Y-68404869D03*
%TD*%
D40*
%TO.C,Q7*%
X113710142Y-104074869D03*
X113710142Y-105344869D03*
X113710142Y-106614869D03*
X113710142Y-107884869D03*
X119110142Y-107884869D03*
X119110142Y-106614869D03*
X119110142Y-105344869D03*
X119110142Y-104074869D03*
%TD*%
D41*
%TO.C,C7*%
X124836206Y-143279869D03*
X124836206Y-140479869D03*
%TD*%
D20*
%TO.C,C36*%
X98436206Y-86179869D03*
X98436206Y-87479869D03*
%TD*%
D37*
%TO.C,U35*%
X135936206Y-56404869D03*
X135936206Y-57054869D03*
X135936206Y-57704869D03*
X135936206Y-58354869D03*
X135936206Y-59004869D03*
X135936206Y-59654869D03*
X135936206Y-60304869D03*
X135936206Y-60954869D03*
X141736206Y-60954869D03*
X141736206Y-60304869D03*
X141736206Y-59654869D03*
X141736206Y-59004869D03*
X141736206Y-58354869D03*
X141736206Y-57704869D03*
X141736206Y-57054869D03*
X141736206Y-56404869D03*
%TD*%
D10*
%TO.C,U30*%
X141786206Y-64329869D03*
X141786206Y-63679869D03*
X141786206Y-63029869D03*
X139886206Y-63029869D03*
X139886206Y-63679869D03*
X139886206Y-64329869D03*
%TD*%
D42*
%TO.C,R18*%
X168486206Y-88079869D03*
X165586206Y-88079869D03*
%TD*%
D43*
%TO.C,J15*%
X171716206Y-88679869D03*
X171716206Y-91679869D03*
X171716206Y-94679869D03*
%TD*%
D44*
%TO.C,C15*%
X161936206Y-136429869D03*
X159136206Y-136429869D03*
%TD*%
D34*
%TO.C,D4*%
X170636206Y-81079869D03*
X169236206Y-81079869D03*
%TD*%
D45*
%TO.C,Q15*%
X111010142Y-95884869D03*
X111010142Y-94614869D03*
X111010142Y-93344869D03*
X111010142Y-92074869D03*
X105610142Y-92074869D03*
X105610142Y-93344869D03*
X105610142Y-94614869D03*
X105610142Y-95884869D03*
%TD*%
D46*
%TO.C,U14*%
X107035142Y-120654869D03*
X107685142Y-120654869D03*
X108335142Y-120654869D03*
X108985142Y-120654869D03*
X108985142Y-116504869D03*
X108335142Y-116504869D03*
X107685142Y-116504869D03*
X107035142Y-116504869D03*
%TD*%
D35*
%TO.C,U8*%
X168561206Y-132554869D03*
X168561206Y-133204869D03*
X168561206Y-133854869D03*
X168561206Y-134504869D03*
X172711206Y-134504869D03*
X172711206Y-133854869D03*
X172711206Y-133204869D03*
X172711206Y-132554869D03*
%TD*%
D31*
%TO.C,J13*%
X49836206Y-93579869D03*
D32*
X49836206Y-94679869D03*
D31*
X49836206Y-95779869D03*
D30*
X49836206Y-96489869D03*
X49836206Y-92869869D03*
%TD*%
D47*
%TO.C,U3*%
X93886206Y-137679869D03*
X93886206Y-137029869D03*
X93886206Y-136379869D03*
X93886206Y-135729869D03*
X93886206Y-135079869D03*
X93886206Y-134429869D03*
X93886206Y-133779869D03*
X88086206Y-133779869D03*
X88086206Y-134429869D03*
X88086206Y-135079869D03*
X88086206Y-135729869D03*
X88086206Y-136379869D03*
X88086206Y-137029869D03*
X88086206Y-137679869D03*
%TD*%
D10*
%TO.C,U25*%
X152786206Y-76329869D03*
X152786206Y-75679869D03*
X152786206Y-75029869D03*
X150886206Y-75029869D03*
X150886206Y-75679869D03*
X150886206Y-76329869D03*
%TD*%
D48*
%TO.C,J10*%
X130136208Y-90039869D03*
D49*
X93496208Y-121449869D03*
D50*
X108816208Y-90039869D03*
X114816208Y-90039869D03*
D51*
X130136208Y-109779869D03*
X93496208Y-103779869D03*
X93496208Y-109779869D03*
X93496208Y-115779869D03*
D50*
X114816208Y-123519869D03*
D49*
X130136208Y-92109869D03*
D51*
X130136208Y-103779869D03*
D48*
X93496208Y-123519869D03*
D52*
X96356208Y-123519869D03*
D48*
X130136208Y-123519869D03*
D50*
X120816208Y-90039869D03*
D49*
X93496208Y-92109869D03*
D50*
X102816208Y-123519869D03*
D51*
X130136208Y-115779869D03*
D48*
X93496208Y-90039869D03*
D52*
X127276208Y-123519869D03*
D50*
X108816208Y-123519869D03*
D51*
X93496208Y-97779869D03*
X130136208Y-97779869D03*
D49*
X130136208Y-121449869D03*
D50*
X102816208Y-90039869D03*
D52*
X96356208Y-90039869D03*
X127276208Y-90039869D03*
D50*
X120816208Y-123519869D03*
%TD*%
D40*
%TO.C,U15*%
X136136206Y-114774869D03*
X136136206Y-116044869D03*
X136136206Y-117314869D03*
X136136206Y-118584869D03*
X141536206Y-118584869D03*
X141536206Y-117314869D03*
X141536206Y-116044869D03*
X141536206Y-114774869D03*
%TD*%
D53*
%TO.C,D1*%
X57936206Y-135729869D03*
X57936206Y-137629869D03*
X59936206Y-136679869D03*
%TD*%
D19*
%TO.C,R3*%
X116410142Y-120729869D03*
X116410142Y-119429869D03*
%TD*%
D36*
%TO.C,K3*%
X74786206Y-65679869D03*
X74786206Y-68679869D03*
X74786206Y-71079869D03*
X74786206Y-73279869D03*
X80486206Y-73279869D03*
X80486206Y-71079869D03*
X80486206Y-68679869D03*
X80486206Y-65679869D03*
%TD*%
D54*
%TO.C,J2*%
X79836206Y-136679869D03*
D55*
X77336206Y-139179869D03*
X77336206Y-134179869D03*
X82336206Y-139179869D03*
X82336206Y-134179869D03*
%TD*%
D56*
%TO.C,Q13*%
X166401206Y-99889869D03*
X166401206Y-100549869D03*
X166401206Y-101209869D03*
X166401206Y-101869869D03*
D57*
X168393706Y-100879869D03*
%TD*%
D58*
%TO.C,C37*%
X156998706Y-89579869D03*
X163223706Y-89579869D03*
%TD*%
D40*
%TO.C,U19*%
X147136206Y-104774869D03*
X147136206Y-106044869D03*
X147136206Y-107314869D03*
X147136206Y-108584869D03*
X152536206Y-108584869D03*
X152536206Y-107314869D03*
X152536206Y-106044869D03*
X152536206Y-104774869D03*
%TD*%
D59*
%TO.C,J21*%
X59736206Y-59679869D03*
X61936206Y-59679869D03*
D60*
X59026206Y-59679869D03*
X62646206Y-59679869D03*
D61*
X60836206Y-59679869D03*
%TD*%
D29*
%TO.C,C20*%
X101210142Y-120579869D03*
X104010142Y-120579869D03*
%TD*%
D62*
%TO.C,J4*%
X43936206Y-129679869D03*
D63*
X43936206Y-126187369D03*
X43936206Y-133172369D03*
%TD*%
D44*
%TO.C,C24*%
X172586206Y-119229869D03*
X169786206Y-119229869D03*
%TD*%
D11*
%TO.C,D7*%
X169586206Y-62729869D03*
X169586206Y-63679869D03*
X169586206Y-64629869D03*
X172086206Y-64629869D03*
X172086206Y-63679869D03*
X172086206Y-62729869D03*
%TD*%
D64*
%TO.C,C2*%
X157736206Y-142542369D03*
X157736206Y-145617369D03*
%TD*%
D40*
%TO.C,Q9*%
X97610142Y-98074869D03*
X97610142Y-99344869D03*
X97610142Y-100614869D03*
X97610142Y-101884869D03*
X103010142Y-101884869D03*
X103010142Y-100614869D03*
X103010142Y-99344869D03*
X103010142Y-98074869D03*
%TD*%
D65*
%TO.C,R10*%
X176686206Y-115979869D03*
X175386206Y-115979869D03*
%TD*%
%TO.C,R11*%
X168386206Y-104979869D03*
X167086206Y-104979869D03*
%TD*%
D29*
%TO.C,C6*%
X124936206Y-138479869D03*
X127736206Y-138479869D03*
%TD*%
D46*
%TO.C,U13*%
X97735142Y-120554869D03*
X98385142Y-120554869D03*
X99035142Y-120554869D03*
X99685142Y-120554869D03*
X99685142Y-116404869D03*
X99035142Y-116404869D03*
X98385142Y-116404869D03*
X97735142Y-116404869D03*
%TD*%
D44*
%TO.C,C16*%
X171411206Y-136304869D03*
X168611206Y-136304869D03*
%TD*%
D19*
%TO.C,R1*%
X96316208Y-122129869D03*
X96316208Y-120829869D03*
%TD*%
D59*
%TO.C,J6*%
X91936206Y-129679869D03*
X89736206Y-129679869D03*
D61*
X90836206Y-129679869D03*
D60*
X89026206Y-129679869D03*
X92646206Y-129679869D03*
%TD*%
%TO.C,J23*%
X120026206Y-59679869D03*
D61*
X121836206Y-59679869D03*
D59*
X122936206Y-59679869D03*
X120736206Y-59679869D03*
D60*
X123646206Y-59679869D03*
%TD*%
D65*
%TO.C,R7*%
X176686206Y-118779869D03*
X175386206Y-118779869D03*
%TD*%
D40*
%TO.C,Q11*%
X113710142Y-98074869D03*
X113710142Y-99344869D03*
X113710142Y-100614869D03*
X113710142Y-101884869D03*
X119110142Y-101884869D03*
X119110142Y-100614869D03*
X119110142Y-99344869D03*
X119110142Y-98074869D03*
%TD*%
D10*
%TO.C,U31*%
X148786206Y-64329869D03*
X148786206Y-63679869D03*
X148786206Y-63029869D03*
X146886206Y-63029869D03*
X146886206Y-63679869D03*
X146886206Y-64329869D03*
%TD*%
D60*
%TO.C,J7*%
X120026206Y-129679869D03*
D59*
X120736206Y-129679869D03*
X122936206Y-129679869D03*
D61*
X121836206Y-129679869D03*
D60*
X123646206Y-129679869D03*
%TD*%
D45*
%TO.C,Q6*%
X111010142Y-107884869D03*
X111010142Y-106614869D03*
X111010142Y-105344869D03*
X111010142Y-104074869D03*
X105610142Y-104074869D03*
X105610142Y-105344869D03*
X105610142Y-106614869D03*
X105610142Y-107884869D03*
%TD*%
D42*
%TO.C,R6*%
X126066208Y-118579869D03*
X123166208Y-118579869D03*
%TD*%
D66*
%TO.C,RN1*%
X101260142Y-118279869D03*
X103160142Y-118279869D03*
X102210142Y-116279869D03*
%TD*%
D29*
%TO.C,C10*%
X169761206Y-138779869D03*
X172561206Y-138779869D03*
%TD*%
D33*
%TO.C,R2*%
X112110142Y-116729869D03*
X112110142Y-118229869D03*
%TD*%
D67*
%TO.C,U6*%
X133641832Y-136329869D03*
X134591832Y-136329869D03*
X135541832Y-136329869D03*
X135541832Y-133829869D03*
X134591832Y-133829869D03*
X133641832Y-133829869D03*
%TD*%
D10*
%TO.C,U23*%
X137786206Y-76329869D03*
X137786206Y-75679869D03*
X137786206Y-75029869D03*
X135886206Y-75029869D03*
X135886206Y-75679869D03*
X135886206Y-76329869D03*
%TD*%
D40*
%TO.C,U16*%
X147136206Y-114774869D03*
X147136206Y-116044869D03*
X147136206Y-117314869D03*
X147136206Y-118584869D03*
X152536206Y-118584869D03*
X152536206Y-117314869D03*
X152536206Y-116044869D03*
X152536206Y-114774869D03*
%TD*%
D45*
%TO.C,Q10*%
X111010142Y-101884869D03*
X111010142Y-100614869D03*
X111010142Y-99344869D03*
X111010142Y-98074869D03*
X105610142Y-98074869D03*
X105610142Y-99344869D03*
X105610142Y-100614869D03*
X105610142Y-101884869D03*
%TD*%
D68*
%TO.C,C44*%
X160336206Y-57329869D03*
X160336206Y-55429869D03*
%TD*%
D39*
%TO.C,C47*%
X169861206Y-54079869D03*
X171411206Y-54079869D03*
%TD*%
D40*
%TO.C,Q5*%
X97610142Y-104074869D03*
X97610142Y-105344869D03*
X97610142Y-106614869D03*
X97610142Y-107884869D03*
X103010142Y-107884869D03*
X103010142Y-106614869D03*
X103010142Y-105344869D03*
X103010142Y-104074869D03*
%TD*%
%TO.C,U18*%
X136136206Y-104774869D03*
X136136206Y-106044869D03*
X136136206Y-107314869D03*
X136136206Y-108584869D03*
X141536206Y-108584869D03*
X141536206Y-107314869D03*
X141536206Y-106044869D03*
X141536206Y-104774869D03*
%TD*%
D36*
%TO.C,K2*%
X64786206Y-65679869D03*
X64786206Y-68679869D03*
X64786206Y-71079869D03*
X64786206Y-73279869D03*
X70486206Y-73279869D03*
X70486206Y-71079869D03*
X70486206Y-68679869D03*
X70486206Y-65679869D03*
%TD*%
D67*
%TO.C,U5*%
X126786206Y-136329869D03*
X127736206Y-136329869D03*
X128686206Y-136329869D03*
X128686206Y-133829869D03*
X127736206Y-133829869D03*
X126786206Y-133829869D03*
%TD*%
D69*
%TO.C,C27*%
X105210142Y-115679869D03*
X105210142Y-118479869D03*
%TD*%
D10*
%TO.C,U38*%
X169686206Y-55629869D03*
X169686206Y-56279869D03*
X169686206Y-56929869D03*
X171586206Y-56929869D03*
X171586206Y-55629869D03*
%TD*%
D36*
%TO.C,K4*%
X84786206Y-65679869D03*
X84786206Y-68679869D03*
X84786206Y-71079869D03*
X84786206Y-73279869D03*
X90486206Y-73279869D03*
X90486206Y-71079869D03*
X90486206Y-68679869D03*
X90486206Y-65679869D03*
%TD*%
D70*
%TO.C,U37*%
X162262500Y-56350000D03*
X162262500Y-57300000D03*
X162262500Y-58250000D03*
X164537500Y-58250000D03*
X164537500Y-56350000D03*
%TD*%
D31*
%TO.C,J8*%
X49836206Y-120779869D03*
D30*
X49836206Y-117869869D03*
D31*
X49836206Y-118579869D03*
D30*
X49836206Y-121489869D03*
D32*
X49836206Y-119679869D03*
%TD*%
D29*
%TO.C,C11*%
X119086206Y-132179869D03*
X121886206Y-132179869D03*
%TD*%
D71*
%TO.C,C18*%
X105898706Y-125979869D03*
X108973706Y-125979869D03*
%TD*%
D59*
%TO.C,J5*%
X61936206Y-129679869D03*
D60*
X62646206Y-129679869D03*
D61*
X60836206Y-129679869D03*
D59*
X59736206Y-129679869D03*
D60*
X59026206Y-129679869D03*
%TD*%
D68*
%TO.C,C45*%
X166436206Y-57229869D03*
X166436206Y-55329869D03*
%TD*%
D62*
%TO.C,J9*%
X43936206Y-109679869D03*
D63*
X43936206Y-113172369D03*
X43936206Y-106187369D03*
%TD*%
D42*
%TO.C,R9*%
X126060142Y-116179869D03*
X123160142Y-116179869D03*
%TD*%
D72*
%TO.C,Q19*%
X105586206Y-85829869D03*
X103686206Y-85829869D03*
X104636206Y-87829869D03*
%TD*%
D11*
%TO.C,D6*%
X169586206Y-67929869D03*
X169586206Y-68879869D03*
X169586206Y-69829869D03*
X172086206Y-69829869D03*
X172086206Y-68879869D03*
X172086206Y-67929869D03*
%TD*%
D32*
%TO.C,J14*%
X131836206Y-94679869D03*
D30*
X131836206Y-92869869D03*
D31*
X131836206Y-95779869D03*
X131836206Y-93579869D03*
D30*
X131836206Y-96489869D03*
%TD*%
D40*
%TO.C,Q3*%
X113710142Y-110074869D03*
X113710142Y-111344869D03*
X113710142Y-112614869D03*
X113710142Y-113884869D03*
X119110142Y-113884869D03*
X119110142Y-112614869D03*
X119110142Y-111344869D03*
X119110142Y-110074869D03*
%TD*%
D10*
%TO.C,U32*%
X152786206Y-64329869D03*
X152786206Y-63679869D03*
X152786206Y-63029869D03*
X150886206Y-63029869D03*
X150886206Y-63679869D03*
X150886206Y-64329869D03*
%TD*%
D42*
%TO.C,R16*%
X167886206Y-97979869D03*
X164986206Y-97979869D03*
%TD*%
D45*
%TO.C,Q17*%
X127010142Y-95884869D03*
X127010142Y-94614869D03*
X127010142Y-93344869D03*
X127010142Y-92074869D03*
X121610142Y-92074869D03*
X121610142Y-93344869D03*
X121610142Y-94614869D03*
X121610142Y-95884869D03*
%TD*%
D66*
%TO.C,Q18*%
X100036206Y-87829869D03*
X101936206Y-87829869D03*
X100986206Y-85829869D03*
%TD*%
D12*
%TO.C,R8*%
X110760142Y-115479869D03*
X112060142Y-115479869D03*
%TD*%
D73*
%TO.C,C29*%
X164723706Y-105279869D03*
X158498706Y-105279869D03*
%TD*%
D29*
%TO.C,C1*%
X124936206Y-145279869D03*
X127736206Y-145279869D03*
%TD*%
D45*
%TO.C,Q12*%
X127010142Y-101884869D03*
X127010142Y-100614869D03*
X127010142Y-99344869D03*
X127010142Y-98074869D03*
X121610142Y-98074869D03*
X121610142Y-99344869D03*
X121610142Y-100614869D03*
X121610142Y-101884869D03*
%TD*%
D10*
%TO.C,U24*%
X148936206Y-76329869D03*
X148936206Y-75679869D03*
X148936206Y-75029869D03*
X147036206Y-75029869D03*
X147036206Y-75679869D03*
X147036206Y-76329869D03*
%TD*%
D74*
%TO.C,C22*%
X115010142Y-119404869D03*
X115010142Y-120954869D03*
%TD*%
D29*
%TO.C,C14*%
X160336206Y-130779869D03*
X163136206Y-130779869D03*
%TD*%
D44*
%TO.C,C3*%
X171361206Y-144379869D03*
X168561206Y-144379869D03*
%TD*%
D10*
%TO.C,U22*%
X141786206Y-76329869D03*
X141786206Y-75679869D03*
X141786206Y-75029869D03*
X139886206Y-75029869D03*
X139886206Y-75679869D03*
X139886206Y-76329869D03*
%TD*%
D37*
%TO.C,U11*%
X157936206Y-122729869D03*
X157936206Y-123379869D03*
X157936206Y-124029869D03*
X157936206Y-124679869D03*
X157936206Y-125329869D03*
X157936206Y-125979869D03*
X157936206Y-126629869D03*
X163736206Y-126629869D03*
X163736206Y-125979869D03*
X163736206Y-125329869D03*
X163736206Y-124679869D03*
X163736206Y-124029869D03*
X163736206Y-123379869D03*
X163736206Y-122729869D03*
%TD*%
D45*
%TO.C,Q8*%
X127010142Y-107884869D03*
X127010142Y-106614869D03*
X127010142Y-105344869D03*
X127010142Y-104074869D03*
X121610142Y-104074869D03*
X121610142Y-105344869D03*
X121610142Y-106614869D03*
X121610142Y-107884869D03*
%TD*%
%TO.C,Q4*%
X127010142Y-113884869D03*
X127010142Y-112614869D03*
X127010142Y-111344869D03*
X127010142Y-110074869D03*
X121610142Y-110074869D03*
X121610142Y-111344869D03*
X121610142Y-112614869D03*
X121610142Y-113884869D03*
%TD*%
D38*
%TO.C,C31*%
X163473706Y-110379869D03*
X160398706Y-110379869D03*
%TD*%
D29*
%TO.C,C28*%
X171136206Y-113279869D03*
X173936206Y-113279869D03*
%TD*%
D11*
%TO.C,D5*%
X169586206Y-74029869D03*
X169586206Y-74979869D03*
X169586206Y-75929869D03*
X172086206Y-75929869D03*
X172086206Y-74979869D03*
X172086206Y-74029869D03*
%TD*%
D10*
%TO.C,U29*%
X137786206Y-64329869D03*
X137786206Y-63679869D03*
X137786206Y-63029869D03*
X135886206Y-63029869D03*
X135886206Y-63679869D03*
X135886206Y-64329869D03*
%TD*%
D65*
%TO.C,R25*%
X171586206Y-58479869D03*
X170286206Y-58479869D03*
%TD*%
D40*
%TO.C,Q16*%
X113710142Y-92074869D03*
X113710142Y-93344869D03*
X113710142Y-94614869D03*
X113710142Y-95884869D03*
X119110142Y-95884869D03*
X119110142Y-94614869D03*
X119110142Y-93344869D03*
X119110142Y-92074869D03*
%TD*%
D44*
%TO.C,C5*%
X120786206Y-137829869D03*
X117986206Y-137829869D03*
%TD*%
D20*
%TO.C,R5*%
X115710142Y-116829869D03*
X115710142Y-118129869D03*
%TD*%
D37*
%TO.C,U10*%
X146936206Y-122729869D03*
X146936206Y-123379869D03*
X146936206Y-124029869D03*
X146936206Y-124679869D03*
X146936206Y-125329869D03*
X146936206Y-125979869D03*
X146936206Y-126629869D03*
X152736206Y-126629869D03*
X152736206Y-125979869D03*
X152736206Y-125329869D03*
X152736206Y-124679869D03*
X152736206Y-124029869D03*
X152736206Y-123379869D03*
X152736206Y-122729869D03*
%TD*%
D13*
%TO.C,C21*%
X110510142Y-118254869D03*
X110510142Y-116704869D03*
%TD*%
D19*
%TO.C,R17*%
X96936206Y-87479869D03*
X96936206Y-86179869D03*
%TD*%
D37*
%TO.C,U27*%
X146936206Y-68404869D03*
X146936206Y-69054869D03*
X146936206Y-69704869D03*
X146936206Y-70354869D03*
X146936206Y-71004869D03*
X146936206Y-71654869D03*
X146936206Y-72304869D03*
X146936206Y-72954869D03*
X152736206Y-72954869D03*
X152736206Y-72304869D03*
X152736206Y-71654869D03*
X152736206Y-71004869D03*
X152736206Y-70354869D03*
X152736206Y-69704869D03*
X152736206Y-69054869D03*
X152736206Y-68404869D03*
%TD*%
D75*
%TO.C,J1*%
X65736206Y-136679869D03*
D76*
X63236206Y-134179869D03*
X63236206Y-139179869D03*
X68236206Y-134179869D03*
X68236206Y-139179869D03*
%TD*%
D40*
%TO.C,Q14*%
X97610142Y-92074869D03*
X97610142Y-93344869D03*
X97610142Y-94614869D03*
X97610142Y-95884869D03*
X103010142Y-95884869D03*
X103010142Y-94614869D03*
X103010142Y-93344869D03*
X103010142Y-92074869D03*
%TD*%
D69*
%TO.C,C26*%
X95910142Y-116029869D03*
X95910142Y-118829869D03*
%TD*%
D40*
%TO.C,Q1*%
X97610142Y-110074869D03*
X97610142Y-111344869D03*
X97610142Y-112614869D03*
X97610142Y-113884869D03*
X103010142Y-113884869D03*
X103010142Y-112614869D03*
X103010142Y-111344869D03*
X103010142Y-110074869D03*
%TD*%
D41*
%TO.C,C13*%
X131591832Y-136479869D03*
X131591832Y-133679869D03*
%TD*%
D45*
%TO.C,Q2*%
X111010142Y-113884869D03*
X111010142Y-112614869D03*
X111010142Y-111344869D03*
X111010142Y-110074869D03*
X105610142Y-110074869D03*
X105610142Y-111344869D03*
X105610142Y-112614869D03*
X105610142Y-113884869D03*
%TD*%
D77*
%TO.C,D2*%
X45536206Y-119679869D03*
X42336206Y-119679869D03*
%TD*%
D60*
%TO.C,J22*%
X92646206Y-59679869D03*
D59*
X89736206Y-59679869D03*
X91936206Y-59679869D03*
D61*
X90836206Y-59679869D03*
D60*
X89026206Y-59679869D03*
%TD*%
D29*
%TO.C,C17*%
X169911206Y-130604869D03*
X172711206Y-130604869D03*
%TD*%
D37*
%TO.C,U36*%
X146936206Y-56404869D03*
X146936206Y-57054869D03*
X146936206Y-57704869D03*
X146936206Y-58354869D03*
X146936206Y-59004869D03*
X146936206Y-59654869D03*
X146936206Y-60304869D03*
X146936206Y-60954869D03*
X152736206Y-60954869D03*
X152736206Y-60304869D03*
X152736206Y-59654869D03*
X152736206Y-59004869D03*
X152736206Y-58354869D03*
X152736206Y-57704869D03*
X152736206Y-57054869D03*
X152736206Y-56404869D03*
%TD*%
D41*
%TO.C,C12*%
X124836206Y-136479869D03*
X124836206Y-133679869D03*
%TD*%
D29*
%TO.C,C23*%
X110410142Y-120579869D03*
X113210142Y-120579869D03*
%TD*%
D31*
%TO.C,J17*%
X49836206Y-73779869D03*
D32*
X49836206Y-72679869D03*
D31*
X49836206Y-71579869D03*
D30*
X49836206Y-70869869D03*
X49836206Y-74489869D03*
%TD*%
D38*
%TO.C,C19*%
X114973706Y-125979869D03*
X111898706Y-125979869D03*
%TD*%
D62*
%TO.C,J16*%
X43936206Y-69679869D03*
D63*
X43936206Y-73172369D03*
X43936206Y-66187369D03*
%TD*%
D35*
%TO.C,U4*%
X117911206Y-133954869D03*
X117911206Y-134604869D03*
X117911206Y-135254869D03*
X117911206Y-135904869D03*
X122061206Y-135904869D03*
X122061206Y-135254869D03*
X122061206Y-134604869D03*
X122061206Y-133954869D03*
%TD*%
D37*
%TO.C,U9*%
X135936206Y-122729869D03*
X135936206Y-123379869D03*
X135936206Y-124029869D03*
X135936206Y-124679869D03*
X135936206Y-125329869D03*
X135936206Y-125979869D03*
X135936206Y-126629869D03*
X141736206Y-126629869D03*
X141736206Y-125979869D03*
X141736206Y-125329869D03*
X141736206Y-124679869D03*
X141736206Y-124029869D03*
X141736206Y-123379869D03*
X141736206Y-122729869D03*
%TD*%
D65*
%TO.C,R20*%
X170586206Y-79579869D03*
X169286206Y-79579869D03*
%TD*%
D30*
%TO.C,J11*%
X131836206Y-106669869D03*
D31*
X131836206Y-107379869D03*
D32*
X131836206Y-108479869D03*
D30*
X131836206Y-110289869D03*
D31*
X131836206Y-109579869D03*
%TD*%
D35*
%TO.C,U17*%
X169961206Y-115304869D03*
X169961206Y-115954869D03*
X169961206Y-116604869D03*
X169961206Y-117254869D03*
X174111206Y-117254869D03*
X174111206Y-116604869D03*
X174111206Y-115954869D03*
X174111206Y-115304869D03*
%TD*%
D67*
%TO.C,U1*%
X126786206Y-143129869D03*
X127736206Y-143129869D03*
X128686206Y-143129869D03*
X128686206Y-140629869D03*
X127736206Y-140629869D03*
X126786206Y-140629869D03*
%TD*%
D78*
%TO.C,Q20*%
X167346206Y-85714869D03*
X168006206Y-85714869D03*
X168666206Y-85714869D03*
X169326206Y-85714869D03*
D79*
X168336206Y-83722369D03*
%TD*%
M02*
