M48
; DRILL file {KiCad (6.0.11)} date Fri Aug 11 21:29:20 2023
; FORMAT={-:-/ absolute / metric / decimal}
; #@! TF.CreationDate,2023-08-11T21:29:20-04:00
; #@! TF.GenerationSoftware,Kicad,Pcbnew,(6.0.11)
; #@! TF.FileFunction,Plated,1,6,PTH
FMAT,2
METRIC
; #@! TA.AperFunction,Plated,PTH,ComponentDrill
T1C0.200
; #@! TA.AperFunction,Plated,PTH,ViaDrill
T2C0.300
; #@! TA.AperFunction,Plated,PTH,ViaDrill
T3C0.400
; #@! TA.AperFunction,Plated,PTH,ComponentDrill
T4C0.400
; #@! TA.AperFunction,Plated,PTH,ComponentDrill
T5C0.460
; #@! TA.AperFunction,Plated,PTH,ComponentDrill
T6C0.650
; #@! TA.AperFunction,Plated,PTH,ComponentDrill
T7C1.000
; #@! TA.AperFunction,Plated,PTH,ComponentDrill
T8C1.100
; #@! TA.AperFunction,Plated,PTH,ComponentDrill
T9C1.400
; #@! TA.AperFunction,Plated,PTH,ComponentDrill
T10C2.200
; #@! TA.AperFunction,Plated,PTH,ComponentDrill
T11C2.540
%
G90
G05
T1
X159.491Y-80.48
X159.491Y-81.48
X159.491Y-82.48
X159.661Y-96.83
X159.661Y-97.53
X159.661Y-98.23
X160.491Y-80.48
X160.491Y-81.48
X160.491Y-82.48
X160.861Y-96.83
X160.861Y-97.53
X160.861Y-98.23
T2
X41.636Y-123.88
X42.386Y-122.78
X44.936Y-109.68
X44.936Y-129.68
X46.87Y-129.68
X48.336Y-72.68
X48.336Y-74.18
X48.536Y-71.08
X49.136Y-63.78
X49.136Y-67.58
X49.836Y-71.585
X49.836Y-73.785
X49.836Y-117.88
X49.836Y-118.58
X49.836Y-119.68
X49.836Y-120.78
X49.836Y-121.48
X49.836Y-93.57
X49.836Y-95.77
X52.036Y-66.18
X52.036Y-69.38
X53.136Y-68.38
X54.736Y-71.08
X54.736Y-72.08
X54.786Y-65.68
X56.236Y-65.68
X56.636Y-68.58
X57.636Y-66.48
X58.636Y-68.58
X59.026Y-129.68
X59.036Y-59.68
X59.036Y-65.68
X59.136Y-69.48
X59.736Y-59.68
X59.736Y-129.68
X60.486Y-71.08
X60.486Y-65.68
X60.486Y-73.28
X60.536Y-72.18
X60.836Y-59.68
X60.836Y-129.68
X61.936Y-59.68
X61.936Y-129.68
X62.636Y-59.68
X62.646Y-129.68
X64.736Y-66.68
X64.786Y-65.68
X65.736Y-136.68
X65.836Y-67.58
X65.836Y-69.88
X68.736Y-67.58
X68.836Y-69.88
X70.486Y-68.68
X70.486Y-65.68
X70.486Y-71.08
X70.536Y-66.68
X74.786Y-65.68
X74.786Y-73.28
X74.836Y-66.68
X78.636Y-136.68
X79.836Y-136.68
X80.486Y-65.68
X80.486Y-73.28
X80.486Y-68.68
X80.486Y-71.08
X80.536Y-66.58
X84.736Y-69.78
X84.786Y-65.68
X84.836Y-66.58
X88.086Y-134.43
X88.086Y-135.08
X88.086Y-137.03
X88.086Y-137.68
X89.026Y-129.68
X89.036Y-59.68
X89.736Y-129.68
X89.736Y-59.68
X90.436Y-66.58
X90.436Y-69.68
X90.486Y-65.58
X90.486Y-71.08
X90.836Y-59.68
X90.836Y-129.68
X91.086Y-135.03
X91.786Y-135.63
X91.936Y-129.68
X91.936Y-59.68
X92.036Y-132.08
X92.086Y-134.43
X92.486Y-135.63
X92.636Y-59.68
X92.646Y-129.68
X93.386Y-138.43
X93.586Y-132.98
X93.836Y-125.68
X94.136Y-132.18
X95.206Y-122.15
X95.92Y-114.417
X96.322Y-120.674
X96.336Y-122.18
X96.936Y-125.68
X96.936Y-87.48
X97.61Y-95.885
X97.61Y-101.885
X97.61Y-107.885
X97.616Y-108.58
X97.616Y-113.88
X97.635Y-93.367
X97.635Y-99.367
X97.635Y-105.367
X97.635Y-111.367
X97.71Y-121.58
X97.735Y-120.555
X98.413Y-119.13
X98.81Y-105.98
X98.81Y-111.98
X98.866Y-95.88
X98.91Y-99.98
X98.966Y-101.93
X99.01Y-93.98
X99.035Y-120.555
X99.21Y-119.08
X99.71Y-116.38
X99.914Y-109.021
X100.61Y-93.98
X100.81Y-112.08
X100.91Y-100.08
X100.91Y-105.98
X101.61Y-93.28
X101.81Y-99.98
X101.81Y-105.98
X101.81Y-111.98
X101.986Y-87.83
X102.23Y-114.88
X103.01Y-94.615
X103.01Y-100.615
X103.01Y-106.615
X103.01Y-112.615
X103.116Y-115.43
X105.635Y-93.367
X105.635Y-99.367
X105.635Y-105.367
X105.635Y-111.367
X107.01Y-99.98
X107.118Y-108.422
X107.635Y-109.005
X107.81Y-93.68
X108.013Y-117.493
X108.11Y-118.88
X108.21Y-100.68
X108.216Y-121.98
X108.596Y-118.448
X108.636Y-139.58
X108.636Y-141.48
X108.71Y-119.18
X108.846Y-121.822
X108.91Y-111.98
X108.919Y-105.871
X108.969Y-99.921
X109.019Y-93.971
X109.536Y-121.68
X109.61Y-93.18
X109.666Y-98.08
X109.716Y-92.13
X109.716Y-106.48
X109.766Y-104.13
X109.81Y-111.98
X109.816Y-110.63
X110.824Y-133.567
X110.836Y-135.08
X111.01Y-104.075
X111.01Y-92.075
X111.01Y-94.615
X111.01Y-100.615
X111.01Y-106.615
X111.01Y-112.615
X111.01Y-98.075
X111.01Y-110.079
X112.036Y-133.88
X112.536Y-130.68
X112.716Y-113.28
X113.616Y-107.93
X113.62Y-130.702
X113.71Y-93.345
X113.71Y-99.345
X113.71Y-105.345
X113.71Y-111.345
X113.71Y-95.885
X113.716Y-101.98
X113.716Y-113.88
X113.893Y-115.919
X114.254Y-115.379
X114.91Y-105.98
X114.91Y-111.98
X115.01Y-99.98
X115.016Y-95.93
X115.016Y-107.93
X115.11Y-93.98
X115.116Y-101.93
X115.635Y-109.005
X116.216Y-108.48
X116.41Y-120.68
X116.716Y-113.28
X116.81Y-112.03
X116.86Y-94.03
X116.86Y-100.03
X116.91Y-105.98
X116.986Y-134.23
X117.166Y-121.73
X117.266Y-119.78
X117.81Y-93.98
X117.81Y-105.98
X117.91Y-99.98
X117.91Y-111.98
X117.912Y-134.581
X119.11Y-94.615
X119.11Y-100.615
X119.11Y-106.615
X119.11Y-112.615
X119.536Y-141.58
X119.736Y-144.68
X120.036Y-59.68
X120.036Y-129.68
X120.636Y-141.58
X120.636Y-143.98
X120.736Y-59.68
X120.736Y-129.68
X121.566Y-121.98
X121.635Y-99.367
X121.635Y-105.367
X121.635Y-111.367
X121.635Y-93.367
X121.836Y-59.68
X121.836Y-129.68
X122.061Y-135.255
X122.91Y-99.98
X122.936Y-59.68
X122.936Y-129.68
X123.01Y-93.98
X123.01Y-105.98
X123.01Y-111.98
X123.416Y-115.98
X123.636Y-59.68
X123.636Y-129.68
X123.81Y-108.98
X124.21Y-112.68
X124.516Y-108.98
X124.66Y-100.88
X124.71Y-106.83
X124.76Y-94.03
X124.91Y-99.98
X124.91Y-105.98
X124.91Y-111.98
X125.11Y-95.48
X125.666Y-97.93
X125.766Y-92.13
X125.766Y-104.08
X126.116Y-116.98
X126.116Y-120.48
X126.186Y-136.93
X126.736Y-136.08
X126.736Y-143.18
X127.01Y-92.079
X127.01Y-110.075
X127.01Y-94.615
X127.01Y-98.075
X127.01Y-100.615
X127.01Y-106.615
X127.01Y-112.615
X127.01Y-104.075
X127.066Y-116.98
X128.136Y-135.08
X128.316Y-110.08
X128.636Y-120.88
X128.636Y-121.98
X128.636Y-140.58
X128.686Y-143.13
X128.736Y-134.08
X128.936Y-135.08
X129.286Y-137.43
X129.436Y-133.58
X130.936Y-123.68
X131.736Y-124.18
X131.836Y-68.585
X131.836Y-70.785
X131.836Y-92.88
X131.836Y-93.58
X131.836Y-94.68
X131.836Y-95.78
X131.836Y-96.48
X131.836Y-107.38
X131.836Y-109.58
X132.836Y-87.68
X132.836Y-88.68
X132.836Y-89.68
X133.086Y-136.98
X133.636Y-136.13
X133.641Y-75.891
X133.736Y-124.68
X133.836Y-87.68
X133.836Y-88.68
X133.836Y-89.68
X134.436Y-124.68
X134.536Y-132.88
X134.586Y-75.03
X134.636Y-122.78
X134.736Y-77.18
X134.836Y-87.68
X134.836Y-88.68
X134.836Y-89.68
X134.936Y-135.08
X134.986Y-76.33
X135.336Y-64.58
X135.339Y-62.777
X135.592Y-134.03
X135.836Y-87.68
X135.836Y-88.68
X135.836Y-89.68
X135.936Y-57.055
X135.936Y-125.33
X135.936Y-56.405
X135.936Y-60.305
X135.936Y-63.68
X135.936Y-68.405
X135.936Y-69.055
X135.936Y-72.305
X135.936Y-122.73
X135.936Y-135.08
X135.936Y-59.655
X135.936Y-60.955
X135.936Y-71.655
X135.936Y-72.955
X135.936Y-125.98
X136.086Y-65.43
X136.086Y-137.63
X136.136Y-75.68
X136.211Y-107.325
X136.586Y-133.98
X137.036Y-123.08
X137.336Y-63.68
X137.536Y-75.68
X137.636Y-124.027
X137.936Y-127.18
X138.036Y-59.18
X138.036Y-71.18
X138.036Y-113.58
X138.136Y-116.005
X138.136Y-116.78
X138.186Y-57.68
X138.186Y-69.68
X138.836Y-127.18
X138.936Y-77.63
X138.986Y-63.08
X139.036Y-64.63
X139.036Y-65.73
X139.036Y-76.33
X139.186Y-75.18
X139.436Y-72.78
X139.486Y-60.68
X139.486Y-145.88
X139.611Y-68.18
X139.611Y-113.54
X139.636Y-74.055
X139.636Y-104.58
X139.636Y-116.78
X139.646Y-62.055
X139.674Y-116.042
X139.736Y-140.28
X140.086Y-75.68
X140.136Y-63.68
X140.236Y-130.88
X140.236Y-131.68
X140.586Y-121.08
X141.036Y-113.58
X141.118Y-131.698
X141.521Y-108.595
X141.536Y-63.68
X141.536Y-75.68
X141.586Y-119.19
X141.611Y-107.325
X141.736Y-57.705
X141.736Y-60.305
X141.736Y-69.705
X141.736Y-72.305
X141.736Y-123.38
X141.736Y-125.98
X141.736Y-57.055
X141.736Y-59.655
X141.736Y-60.98
X141.736Y-69.055
X141.736Y-71.655
X141.736Y-72.98
X141.736Y-125.33
X141.736Y-122.73
X141.736Y-124.03
X142.186Y-106.03
X142.436Y-119.365
X143.036Y-115.68
X143.336Y-92.28
X143.336Y-97.28
X143.336Y-133.73
X144.936Y-140.78
X145.136Y-64.33
X145.136Y-75.03
X145.136Y-145.58
X145.736Y-62.28
X146.136Y-62.93
X146.236Y-64.53
X146.336Y-75.03
X146.386Y-76.33
X146.936Y-57.055
X146.936Y-59.655
X146.936Y-56.38
X146.936Y-60.305
X146.936Y-60.955
X146.936Y-68.405
X146.936Y-69.055
X146.936Y-71.655
X146.936Y-72.305
X146.936Y-72.98
X146.936Y-77.33
X146.936Y-123.38
X146.936Y-124.68
X146.936Y-125.33
X146.936Y-124.03
X146.936Y-125.98
X146.986Y-121.98
X147.136Y-63.68
X147.136Y-106.045
X147.136Y-108.58
X147.136Y-116.045
X147.386Y-75.68
X148.536Y-63.68
X148.686Y-75.68
X148.736Y-136.23
X148.736Y-140.18
X149.036Y-59.18
X149.086Y-65.43
X149.133Y-71.183
X149.174Y-124.042
X149.186Y-57.68
X149.186Y-69.68
X149.986Y-115.78
X150.036Y-105.98
X150.039Y-75.404
X150.086Y-63.08
X150.136Y-64.58
X150.436Y-72.68
X150.436Y-76.68
X150.436Y-77.78
X150.536Y-60.68
X150.536Y-66.68
X150.611Y-68.18
X150.636Y-62.055
X150.636Y-73.98
X151.136Y-63.68
X151.136Y-75.68
X152.036Y-120.98
X152.536Y-116.045
X152.536Y-63.68
X152.536Y-75.68
X152.536Y-106.045
X152.536Y-107.315
X152.536Y-108.585
X152.536Y-117.315
X152.536Y-118.585
X152.736Y-60.955
X152.736Y-124.03
X152.736Y-124.68
X152.736Y-57.055
X152.736Y-59.655
X152.736Y-60.305
X152.736Y-69.055
X152.736Y-71.655
X152.736Y-72.305
X152.736Y-72.955
X152.736Y-120.68
X152.736Y-121.38
X152.736Y-123.38
X152.736Y-125.33
X152.736Y-57.705
X152.736Y-69.705
X152.736Y-125.98
X153.836Y-116.68
X153.936Y-118.58
X154.636Y-64.38
X155.236Y-64.88
X155.336Y-61.48
X155.436Y-116.68
X155.436Y-118.98
X156.036Y-65.38
X156.336Y-66.78
X156.336Y-67.78
X156.836Y-129.08
X157.436Y-62.48
X157.536Y-63.18
X157.736Y-67.98
X157.736Y-139.98
X157.841Y-81.155
X157.936Y-125.33
X157.936Y-93.78
X157.936Y-121.68
X157.936Y-123.38
X157.936Y-124.68
X157.936Y-129.28
X158.136Y-63.88
X158.236Y-62.38
X158.436Y-121.08
X159.036Y-63.88
X159.036Y-133.88
X160.336Y-62.78
X160.336Y-63.98
X160.836Y-70.18
X161.236Y-56.38
X161.886Y-70.28
X162.141Y-79.855
X162.236Y-58.28
X162.236Y-63.68
X162.236Y-66.58
X162.311Y-84.88
X162.311Y-85.68
X162.311Y-86.48
X162.336Y-133.88
X162.836Y-68.38
X162.911Y-79.855
X163.036Y-63.98
X163.236Y-70.58
X163.236Y-133.88
X163.236Y-134.58
X163.436Y-69.28
X163.736Y-120.88
X163.736Y-121.68
X163.736Y-123.38
X163.736Y-124.68
X163.736Y-142.98
X163.736Y-124.03
X163.964Y-78.607
X165.336Y-78.58
X165.536Y-64.08
X165.561Y-68.48
X166.136Y-62.68
X166.261Y-143.28
X166.536Y-96.28
X166.634Y-68.681
X166.936Y-96.98
X167.411Y-135.005
X167.536Y-129.88
X167.536Y-130.88
X167.586Y-125.98
X167.586Y-126.73
X167.636Y-64.28
X167.936Y-68.58
X167.936Y-69.28
X168.036Y-56.38
X168.536Y-55.78
X168.736Y-115.28
X168.936Y-125.33
X168.936Y-121.18
X168.936Y-123.38
X169.261Y-141.98
X169.336Y-78.18
X169.511Y-134.055
X169.586Y-63.68
X169.636Y-68.88
X169.636Y-144.38
X169.661Y-141.13
X169.736Y-72.58
X169.736Y-121.18
X169.761Y-142.48
X169.786Y-71.13
X169.811Y-132.805
X169.936Y-114.58
X169.961Y-115.305
X169.986Y-116.58
X170.036Y-125.28
X170.036Y-134.68
X170.336Y-144.38
X170.536Y-55.58
X170.536Y-56.28
X170.536Y-132.48
X170.636Y-77.28
X170.761Y-138.28
X171.036Y-116.58
X171.236Y-76.68
X171.461Y-71.805
X171.536Y-59.58
X171.561Y-138.28
X172.061Y-143.28
X172.136Y-115.28
X172.336Y-70.78
X172.436Y-59.58
X172.436Y-71.88
X172.571Y-116.109
X172.636Y-106.88
X172.736Y-105.38
X172.736Y-107.88
X172.986Y-115.28
X173.035Y-116.581
X173.336Y-104.28
X173.536Y-99.58
X173.536Y-135.129
X173.811Y-140.28
X173.836Y-131.38
X173.936Y-121.08
X173.961Y-143.28
X174.086Y-117.28
X174.361Y-135.005
X174.436Y-132.83
X174.486Y-65.73
X174.622Y-136.031
X174.736Y-125.33
X174.736Y-121.08
X174.736Y-123.38
X174.736Y-124.03
X174.861Y-140.28
X174.861Y-143.28
X175.671Y-78.653
X175.736Y-79.28
X175.914Y-77.502
X176.686Y-115.98
X176.686Y-118.78
X176.836Y-79.78
X177.636Y-110.58
X177.736Y-103.48
X177.836Y-57.78
X177.836Y-76.88
X178.436Y-58.28
X178.736Y-56.38
X178.836Y-76.08
X179.236Y-57.18
X179.436Y-56.38
T3
X42.336Y-66.18
X42.336Y-73.18
X42.836Y-106.18
X42.836Y-113.18
X42.836Y-126.18
X42.836Y-133.18
X43.336Y-67.18
X43.336Y-72.18
X44.336Y-66.18
X44.336Y-73.18
X44.336Y-106.18
X44.336Y-113.18
X44.336Y-126.18
X44.336Y-133.18
X45.324Y-119.68
X45.336Y-67.18
X45.336Y-72.18
X46.924Y-130.63
X46.936Y-108.73
X46.936Y-110.63
X46.985Y-128.817
X49.836Y-70.885
X49.836Y-72.685
X49.836Y-74.485
X49.836Y-92.86
X49.836Y-94.67
X49.836Y-96.48
X57.917Y-136.699
X57.936Y-137.63
X63.236Y-134.18
X63.236Y-139.18
X68.236Y-134.18
X68.236Y-139.18
X77.336Y-134.18
X77.336Y-139.18
X82.336Y-134.18
X82.336Y-139.18
X84.786Y-73.28
X84.786Y-68.68
X89.286Y-136.93
X90.086Y-133.03
X90.436Y-137.23
X90.486Y-68.73
X90.486Y-73.28
X91.686Y-137.23
X92.786Y-137.23
X93.496Y-92.11
X93.496Y-97.78
X93.496Y-103.78
X93.496Y-109.78
X93.496Y-115.78
X93.496Y-121.45
X94.33Y-87.63
X94.91Y-118.38
X95.91Y-119.88
X96.11Y-116.23
X96.356Y-123.52
X96.356Y-90.04
X96.71Y-119.23
X98.436Y-86.18
X100.986Y-85.83
X101.31Y-120.48
X102.816Y-90.04
X102.816Y-123.52
X103.301Y-117.301
X103.51Y-120.08
X103.686Y-85.83
X104.46Y-118.43
X105.016Y-116.08
X105.586Y-85.83
X105.81Y-120.23
X105.936Y-125.28
X105.936Y-126.58
X108.346Y-115.555
X108.816Y-90.04
X108.836Y-123.58
X109.136Y-125.18
X109.136Y-126.68
X110.36Y-121.38
X111.236Y-86.48
X111.336Y-85.08
X112.31Y-120.58
X112.436Y-85.08
X112.536Y-86.48
X114.66Y-118.13
X114.816Y-90.04
X114.836Y-123.48
X114.936Y-125.38
X114.936Y-126.68
X115.41Y-115.354
X116.936Y-127.68
X117.41Y-115.354
X118.016Y-123.98
X118.816Y-119.73
X119.081Y-131.68
X119.21Y-118.23
X119.216Y-117.28
X119.26Y-115.38
X120.216Y-119.73
X120.786Y-137.83
X120.816Y-123.52
X120.816Y-90.04
X121.886Y-132.18
X122.886Y-131.454
X124.436Y-133.53
X124.536Y-136.73
X124.641Y-122.18
X124.836Y-140.48
X124.936Y-138.48
X124.936Y-143.28
X124.936Y-144.88
X127.106Y-118.83
X127.276Y-90.04
X127.276Y-123.52
X127.281Y-133.03
X129.116Y-115.28
X130.136Y-92.11
X130.136Y-97.78
X130.136Y-109.78
X130.136Y-115.78
X130.136Y-121.45
X130.136Y-140.93
X130.136Y-142.83
X130.136Y-103.78
X131.036Y-133.48
X131.136Y-136.78
X131.386Y-138.58
X131.836Y-69.685
X131.836Y-71.485
X131.836Y-106.68
X131.836Y-108.48
X131.836Y-110.28
X131.836Y-67.87
X135.836Y-119.78
X136.136Y-108.58
X136.236Y-111.58
X138.036Y-56.18
X138.036Y-68.18
X138.086Y-117.58
X138.136Y-125.58
X138.636Y-120.565
X139.036Y-102.68
X139.536Y-123.98
X139.536Y-125.58
X139.611Y-56.18
X139.636Y-117.58
X140.336Y-102.28
X140.336Y-103.28
X141.836Y-103.38
X142.936Y-111.88
X142.936Y-114.68
X146.964Y-104.715
X147.136Y-114.48
X147.136Y-118.585
X148.836Y-89.68
X148.836Y-92.18
X149.036Y-56.18
X149.036Y-68.18
X149.136Y-104.28
X149.198Y-125.6
X149.236Y-114.38
X150.336Y-114.38
X150.436Y-104.28
X150.536Y-123.98
X150.536Y-125.58
X150.636Y-56.18
X150.936Y-131.58
X151.336Y-89.68
X151.336Y-92.18
X152.536Y-104.78
X153.236Y-113.88
X153.561Y-99.03
X153.561Y-100.03
X153.836Y-89.68
X153.836Y-92.18
X154.436Y-132.28
X154.436Y-134.08
X154.561Y-98.03
X154.561Y-99.03
X154.561Y-100.03
X155.061Y-101.03
X155.061Y-102.03
X155.436Y-59.58
X155.436Y-106.98
X155.436Y-109.08
X155.561Y-98.03
X156.336Y-86.08
X156.423Y-81.615
X156.436Y-88.83
X156.486Y-90.18
X156.836Y-91.68
X156.836Y-92.68
X157.136Y-142.58
X157.486Y-88.78
X157.486Y-90.18
X157.536Y-86.08
X157.761Y-100.53
X157.761Y-102.03
X157.836Y-77.68
X157.836Y-83.78
X157.836Y-84.58
X157.836Y-85.38
X157.836Y-91.68
X157.836Y-92.68
X158.086Y-104.63
X158.136Y-105.83
X158.261Y-99.78
X158.261Y-101.28
X158.336Y-76.68
X158.336Y-78.68
X158.336Y-142.58
X158.836Y-77.68
X158.836Y-88.68
X158.836Y-89.68
X158.836Y-90.68
X158.836Y-91.68
X158.836Y-92.68
X158.836Y-93.68
X158.836Y-94.68
X158.836Y-95.68
X159.336Y-76.68
X159.336Y-78.68
X159.436Y-104.63
X159.436Y-105.88
X159.549Y-100.18
X159.836Y-77.68
X159.836Y-79.68
X159.836Y-88.68
X159.836Y-89.68
X159.836Y-90.68
X159.836Y-91.68
X159.836Y-92.68
X159.836Y-93.68
X159.836Y-94.68
X159.836Y-95.68
X159.936Y-83.33
X160.136Y-68.18
X160.136Y-123.98
X160.136Y-125.58
X160.336Y-57.28
X160.336Y-76.68
X160.336Y-78.68
X160.336Y-130.78
X160.511Y-104.28
X160.511Y-105.28
X160.511Y-106.28
X160.836Y-77.68
X160.836Y-79.68
X160.836Y-88.68
X160.836Y-89.68
X160.836Y-90.68
X160.836Y-91.68
X160.836Y-92.68
X160.836Y-93.68
X160.836Y-94.68
X160.836Y-95.68
X160.936Y-58.68
X160.936Y-59.58
X160.936Y-136.48
X161.086Y-83.33
X161.336Y-71.68
X161.336Y-73.18
X161.336Y-76.68
X161.336Y-78.68
X161.336Y-99.78
X161.336Y-100.68
X161.336Y-101.68
X161.511Y-104.28
X161.511Y-105.28
X161.511Y-106.28
X161.536Y-123.98
X161.536Y-125.58
X161.836Y-77.68
X161.836Y-91.68
X161.836Y-92.68
X161.836Y-93.68
X161.836Y-94.68
X161.836Y-95.68
X161.936Y-59.58
X161.936Y-136.43
X162.036Y-130.18
X162.036Y-131.38
X162.236Y-57.28
X162.336Y-73.18
X162.336Y-76.68
X162.336Y-78.68
X162.511Y-99.78
X162.511Y-100.78
X162.511Y-101.78
X162.836Y-77.68
X162.836Y-91.68
X162.836Y-92.68
X162.836Y-93.68
X162.836Y-94.68
X162.836Y-95.68
X162.936Y-59.78
X163.136Y-130.78
X163.436Y-57.28
X163.736Y-81.98
X163.736Y-83.08
X163.736Y-111.08
X163.786Y-65.104
X163.836Y-74.68
X163.836Y-84.18
X163.836Y-85.18
X163.836Y-86.18
X163.836Y-87.18
X163.836Y-88.18
X163.836Y-91.68
X163.836Y-92.68
X163.836Y-93.68
X163.836Y-94.68
X163.836Y-95.68
X164.336Y-80.68
X164.636Y-57.28
X164.736Y-81.98
X164.736Y-83.08
X164.836Y-86.18
X164.836Y-87.18
X164.836Y-88.18
X165.136Y-55.48
X165.536Y-110.68
X165.636Y-56.18
X165.636Y-109.78
X166.036Y-58.38
X166.436Y-57.28
X166.536Y-56.28
X167.136Y-58.38
X167.836Y-91.28
X167.836Y-92.68
X167.886Y-96.13
X168.486Y-88.08
X168.836Y-109.98
X168.836Y-110.98
X169.336Y-74.98
X169.436Y-57.08
X169.699Y-60.917
X169.761Y-138.83
X169.836Y-54.08
X170.036Y-130.655
X170.436Y-136.58
X171.136Y-125.555
X171.136Y-113.28
X171.136Y-123.98
X171.336Y-144.28
X171.411Y-54.08
X171.511Y-136.305
X171.536Y-130.58
X172.536Y-123.98
X172.536Y-125.555
X172.586Y-138.755
X172.636Y-90.68
X172.636Y-91.68
X172.636Y-92.88
X172.711Y-130.605
X172.736Y-118.78
X172.736Y-119.68
X173.136Y-57.08
X173.536Y-89.88
X173.836Y-91.68
X173.836Y-92.88
X173.961Y-113.305
X174.336Y-82.68
X175.336Y-89.68
X175.336Y-91.68
X175.336Y-93.68
X175.336Y-95.18
X176.336Y-82.68
X177.536Y-108.58
X177.636Y-101.53
X178.212Y-93.68
X178.336Y-82.68
X178.336Y-89.18
T4
X42.186Y-52.68
X42.186Y-146.68
X42.669Y-51.513
X42.669Y-53.847
X42.669Y-145.513
X42.669Y-147.847
X43.836Y-51.03
X43.836Y-54.33
X43.836Y-145.03
X43.836Y-148.33
X45.003Y-51.513
X45.003Y-53.847
X45.003Y-145.513
X45.003Y-147.847
X45.486Y-52.68
X45.486Y-146.68
X50.186Y-61.68
X50.186Y-127.68
X50.669Y-60.513
X50.669Y-62.847
X50.669Y-126.513
X50.669Y-128.847
X51.836Y-60.03
X51.836Y-63.33
X51.836Y-126.03
X51.836Y-129.33
X53.003Y-60.513
X53.003Y-62.847
X53.003Y-126.513
X53.003Y-128.847
X53.486Y-61.68
X53.486Y-127.68
X128.186Y-61.68
X128.669Y-60.513
X128.669Y-62.847
X129.35Y-128.0
X129.833Y-126.833
X129.833Y-129.167
X129.836Y-60.03
X129.836Y-63.33
X131.0Y-126.35
X131.0Y-129.65
X131.003Y-60.513
X131.003Y-62.847
X131.486Y-61.68
X132.167Y-126.833
X132.167Y-129.167
X132.65Y-128.0
X176.186Y-52.68
X176.186Y-146.68
X176.669Y-51.513
X176.669Y-53.847
X176.669Y-145.513
X176.669Y-147.847
X177.836Y-51.03
X177.836Y-54.33
X177.836Y-145.03
X177.836Y-148.33
X179.003Y-51.513
X179.003Y-53.847
X179.003Y-145.513
X179.003Y-147.847
X179.486Y-52.68
X179.486Y-146.68
T5
X46.921Y-66.187
X46.921Y-73.172
X46.921Y-106.187
X46.921Y-113.172
X46.921Y-126.187
X46.921Y-133.172
T6
X175.591Y-61.175
X175.591Y-62.445
X175.591Y-63.715
X175.591Y-64.985
X175.591Y-66.255
X175.591Y-67.525
X175.591Y-68.795
X175.591Y-70.065
X175.591Y-71.335
X175.591Y-72.605
X175.591Y-105.41
X175.591Y-106.68
X176.861Y-61.175
X176.861Y-62.445
X176.861Y-63.715
X176.861Y-64.985
X176.861Y-66.255
X176.861Y-67.525
X176.861Y-68.795
X176.861Y-70.065
X176.861Y-71.335
X176.861Y-72.605
X176.861Y-105.41
X176.861Y-106.68
T7
X46.136Y-59.94
X46.136Y-62.48
X88.281Y-141.605
X88.281Y-144.145
X90.821Y-141.605
X90.821Y-144.145
X93.361Y-141.605
X93.361Y-144.145
T8
X97.586Y-137.88
X112.586Y-137.88
X139.136Y-137.88
X154.136Y-137.88
T9
X52.886Y-82.48
X52.886Y-92.68
X52.886Y-106.98
X52.886Y-117.18
X90.386Y-82.48
X90.386Y-92.68
X90.386Y-106.98
X90.386Y-117.18
T10
X43.836Y-52.68
X43.836Y-146.68
X51.836Y-61.68
X51.836Y-127.68
X129.836Y-61.68
X131.0Y-128.0
X177.836Y-52.68
X177.836Y-146.68
T11
X177.186Y-86.53
X177.186Y-96.83
T0
M30
