%TF.GenerationSoftware,KiCad,Pcbnew,(6.0.11)*%
%TF.CreationDate,2023-08-11T21:29:26-04:00*%
%TF.ProjectId,1fNoiseAmplifierRev13,31664e6f-6973-4654-916d-706c69666965,rev?*%
%TF.SameCoordinates,Original*%
%TF.FileFunction,Soldermask,Top*%
%TF.FilePolarity,Negative*%
%FSLAX46Y46*%
G04 Gerber Fmt 4.6, Leading zero omitted, Abs format (unit mm)*
G04 Created by KiCad (PCBNEW (6.0.11)) date 2023-08-11 21:29:26*
%MOMM*%
%LPD*%
G01*
G04 APERTURE LIST*
G04 Aperture macros list*
%AMRoundRect*
0 Rectangle with rounded corners*
0 $1 Rounding radius*
0 $2 $3 $4 $5 $6 $7 $8 $9 X,Y pos of 4 corners*
0 Add a 4 corners polygon primitive as box body*
4,1,4,$2,$3,$4,$5,$6,$7,$8,$9,$2,$3,0*
0 Add four circle primitives for the rounded corners*
1,1,$1+$1,$2,$3*
1,1,$1+$1,$4,$5*
1,1,$1+$1,$6,$7*
1,1,$1+$1,$8,$9*
0 Add four rect primitives between the rounded corners*
20,1,$1+$1,$2,$3,$4,$5,0*
20,1,$1+$1,$4,$5,$6,$7,0*
20,1,$1+$1,$6,$7,$8,$9,0*
20,1,$1+$1,$8,$9,$2,$3,0*%
%AMFreePoly0*
4,1,21,1.372500,0.787500,0.862500,0.787500,0.862500,0.532500,1.372500,0.532500,1.372500,0.127500,0.862500,0.127500,0.862500,-0.127500,1.372500,-0.127500,1.372500,-0.532500,0.862500,-0.532500,0.862500,-0.787500,1.372500,-0.787500,1.372500,-1.195000,0.612500,-1.195000,0.612500,-1.117500,-0.862500,-1.117500,-0.862500,1.117500,0.612500,1.117500,0.612500,1.195000,1.372500,1.195000,
1.372500,0.787500,1.372500,0.787500,$1*%
G04 Aperture macros list end*
%ADD10C,0.150000*%
%ADD11R,0.650000X0.400000*%
%ADD12R,1.000000X1.000000*%
%ADD13O,1.000000X1.000000*%
%ADD14C,0.700000*%
%ADD15C,4.400000*%
%ADD16RoundRect,0.137500X-0.262500X-0.137500X0.262500X-0.137500X0.262500X0.137500X-0.262500X0.137500X0*%
%ADD17RoundRect,0.150000X-0.150000X-0.300000X0.150000X-0.300000X0.150000X0.300000X-0.150000X0.300000X0*%
%ADD18RoundRect,0.175000X0.275000X-0.175000X0.275000X0.175000X-0.275000X0.175000X-0.275000X-0.175000X0*%
%ADD19RoundRect,0.175000X0.175000X0.275000X-0.175000X0.275000X-0.175000X-0.275000X0.175000X-0.275000X0*%
%ADD20RoundRect,0.250000X-1.025000X0.787500X-1.025000X-0.787500X1.025000X-0.787500X1.025000X0.787500X0*%
%ADD21RoundRect,0.250000X0.325000X1.100000X-0.325000X1.100000X-0.325000X-1.100000X0.325000X-1.100000X0*%
%ADD22RoundRect,0.250000X-0.325000X-1.100000X0.325000X-1.100000X0.325000X1.100000X-0.325000X1.100000X0*%
%ADD23RoundRect,0.250000X1.025000X-0.787500X1.025000X0.787500X-1.025000X0.787500X-1.025000X-0.787500X0*%
%ADD24RoundRect,0.150000X0.300000X-0.150000X0.300000X0.150000X-0.300000X0.150000X-0.300000X-0.150000X0*%
%ADD25RoundRect,0.150000X-0.300000X0.150000X-0.300000X-0.150000X0.300000X-0.150000X0.300000X0.150000X0*%
%ADD26RoundRect,0.198450X0.464050X0.326550X-0.464050X0.326550X-0.464050X-0.326550X0.464050X-0.326550X0*%
%ADD27RoundRect,0.115000X0.405000X0.095000X-0.405000X0.095000X-0.405000X-0.095000X0.405000X-0.095000X0*%
%ADD28RoundRect,0.020000X0.825000X1.425000X-0.825000X1.425000X-0.825000X-1.425000X0.825000X-1.425000X0*%
%ADD29RoundRect,0.177778X-0.697222X0.222222X-0.697222X-0.222222X0.697222X-0.222222X0.697222X0.222222X0*%
%ADD30RoundRect,0.198450X-0.464050X-0.326550X0.464050X-0.326550X0.464050X0.326550X-0.464050X0.326550X0*%
%ADD31RoundRect,0.037000X0.473000X-0.108000X0.473000X0.108000X-0.473000X0.108000X-0.473000X-0.108000X0*%
%ADD32C,0.420000*%
%ADD33RoundRect,0.010000X0.840000X0.940000X-0.840000X0.940000X-0.840000X-0.940000X0.840000X-0.940000X0*%
%ADD34RoundRect,0.217391X-0.282609X-0.657609X0.282609X-0.657609X0.282609X0.657609X-0.282609X0.657609X0*%
%ADD35RoundRect,0.048000X0.202000X-0.192000X0.202000X0.192000X-0.202000X0.192000X-0.202000X-0.192000X0*%
%ADD36RoundRect,0.050000X0.200000X-0.300000X0.200000X0.300000X-0.200000X0.300000X-0.200000X-0.300000X0*%
%ADD37RoundRect,0.110000X0.490000X-0.440000X0.490000X0.440000X-0.490000X0.440000X-0.490000X-0.440000X0*%
%ADD38RoundRect,0.175000X-0.485000X0.175000X-0.485000X-0.175000X0.485000X-0.175000X0.485000X0.175000X0*%
%ADD39R,0.600000X0.700000*%
%ADD40RoundRect,0.120000X-0.350000X-0.100000X0.350000X-0.100000X0.350000X0.100000X-0.350000X0.100000X0*%
%ADD41R,1.800000X0.800000*%
%ADD42RoundRect,0.050000X-0.550000X-0.125000X0.550000X-0.125000X0.550000X0.125000X-0.550000X0.125000X0*%
%ADD43RoundRect,0.250000X0.412500X0.925000X-0.412500X0.925000X-0.412500X-0.925000X0.412500X-0.925000X0*%
%ADD44RoundRect,0.175000X-0.175000X-0.275000X0.175000X-0.275000X0.175000X0.275000X-0.175000X0.275000X0*%
%ADD45C,1.000000*%
%ADD46RoundRect,0.180000X-0.645000X-0.130000X0.645000X-0.130000X0.645000X0.130000X-0.645000X0.130000X0*%
%ADD47RoundRect,0.217391X0.657609X-0.282609X0.657609X0.282609X-0.657609X0.282609X-0.657609X-0.282609X0*%
%ADD48C,2.200000*%
%ADD49RoundRect,0.177778X0.222222X0.697222X-0.222222X0.697222X-0.222222X-0.697222X0.222222X-0.697222X0*%
%ADD50R,2.920000X1.270000*%
%ADD51C,2.840000*%
%ADD52RoundRect,0.217391X0.282609X0.657609X-0.282609X0.657609X-0.282609X-0.657609X0.282609X-0.657609X0*%
%ADD53RoundRect,0.180000X0.645000X0.130000X-0.645000X0.130000X-0.645000X-0.130000X0.645000X-0.130000X0*%
%ADD54RoundRect,0.120000X0.100000X-0.350000X0.100000X0.350000X-0.100000X0.350000X-0.100000X-0.350000X0*%
%ADD55RoundRect,0.050000X0.550000X0.125000X-0.550000X0.125000X-0.550000X-0.125000X0.550000X-0.125000X0*%
%ADD56R,1.000000X3.140000*%
%ADD57R,3.800000X1.000000*%
%ADD58R,1.000000X3.800000*%
%ADD59R,4.720000X1.000000*%
%ADD60RoundRect,0.175000X-0.275000X-0.175000X0.275000X-0.175000X0.275000X0.175000X-0.275000X0.175000X0*%
%ADD61RoundRect,0.076000X-0.684000X-0.684000X0.684000X-0.684000X0.684000X0.684000X-0.684000X0.684000X0*%
%ADD62RoundRect,0.095500X-0.859500X-0.859500X0.859500X-0.859500X0.859500X0.859500X-0.859500X0.859500X0*%
%ADD63R,0.990000X0.405000*%
%ADD64FreePoly0,0.000000*%
%ADD65RoundRect,0.250000X-0.787500X-1.025000X0.787500X-1.025000X0.787500X1.025000X-0.787500X1.025000X0*%
%ADD66RoundRect,0.050000X-0.300000X-0.200000X0.300000X-0.200000X0.300000X0.200000X-0.300000X0.200000X0*%
%ADD67RoundRect,0.048000X-0.192000X-0.202000X0.192000X-0.202000X0.192000X0.202000X-0.192000X0.202000X0*%
%ADD68RoundRect,0.110000X-0.440000X-0.490000X0.440000X-0.490000X0.440000X0.490000X-0.440000X0.490000X0*%
%ADD69R,4.190000X1.780000*%
%ADD70R,4.190000X2.665000*%
%ADD71RoundRect,0.250000X-0.925000X0.412500X-0.925000X-0.412500X0.925000X-0.412500X0.925000X0.412500X0*%
%ADD72RoundRect,0.150000X0.150000X0.300000X-0.150000X0.300000X-0.150000X-0.300000X0.150000X-0.300000X0*%
%ADD73RoundRect,0.175000X0.175000X-0.275000X0.175000X0.275000X-0.175000X0.275000X-0.175000X-0.275000X0*%
%ADD74RoundRect,0.137500X0.137500X-0.262500X0.137500X0.262500X-0.137500X0.262500X-0.137500X-0.262500X0*%
%ADD75RoundRect,0.200000X0.475000X-0.200000X0.475000X0.200000X-0.475000X0.200000X-0.475000X-0.200000X0*%
%ADD76RoundRect,0.217391X-0.657609X0.282609X-0.657609X-0.282609X0.657609X-0.282609X0.657609X0.282609X0*%
%ADD77RoundRect,0.150000X-0.512500X-0.150000X0.512500X-0.150000X0.512500X0.150000X-0.512500X0.150000X0*%
%ADD78RoundRect,0.250000X-0.412500X-0.925000X0.412500X-0.925000X0.412500X0.925000X-0.412500X0.925000X0*%
%ADD79C,2.800000*%
%ADD80RoundRect,0.175000X-0.175000X0.275000X-0.175000X-0.275000X0.175000X-0.275000X0.175000X0.275000X0*%
%ADD81RoundRect,0.250000X0.787500X1.025000X-0.787500X1.025000X-0.787500X-1.025000X0.787500X-1.025000X0*%
%ADD82RoundRect,0.175000X-0.275000X0.175000X-0.275000X-0.175000X0.275000X-0.175000X0.275000X0.175000X0*%
%ADD83R,1.700000X1.700000*%
%ADD84O,1.700000X1.700000*%
%ADD85RoundRect,0.076000X-0.684000X0.684000X-0.684000X-0.684000X0.684000X-0.684000X0.684000X0.684000X0*%
%ADD86RoundRect,0.095500X-0.859500X0.859500X-0.859500X-0.859500X0.859500X-0.859500X0.859500X0.859500X0*%
%ADD87R,2.010000X2.390000*%
%ADD88R,0.405000X0.990000*%
%ADD89FreePoly0,90.000000*%
G04 APERTURE END LIST*
D10*
X126616208Y-121029808D02*
G75*
G03*
X126816208Y-120829869I92J199908D01*
G01*
X99424077Y-86991998D02*
G75*
G03*
X99636206Y-87079869I212123J212098D01*
G01*
X124016481Y-118519869D02*
G75*
G03*
X124066208Y-118639869I169819J69D01*
G01*
X109841231Y-104529869D02*
G75*
G03*
X110041208Y-104729869I199969J-31D01*
G01*
X112691208Y-107229808D02*
G75*
G03*
X112491208Y-107429869I92J-200092D01*
G01*
X125316208Y-119588448D02*
X125316208Y-115154869D01*
X111991208Y-104729808D02*
G75*
G03*
X112191208Y-104529869I92J199908D01*
G01*
X98791208Y-101429869D02*
X98791208Y-102329869D01*
X114891208Y-113429869D02*
X114891208Y-114329869D01*
X125841208Y-110529869D02*
X125841208Y-109629869D01*
X110041208Y-103429808D02*
G75*
G03*
X109841208Y-103629869I92J-200092D01*
G01*
X98791231Y-107429869D02*
G75*
G03*
X98591208Y-107229869I-200031J-31D01*
G01*
X127991208Y-92729869D02*
X126041208Y-92729869D01*
X112241208Y-109629869D02*
X112241208Y-110529869D01*
X96641208Y-113229808D02*
G75*
G03*
X96441208Y-113429869I92J-200092D01*
G01*
X112741208Y-101229808D02*
G75*
G03*
X112541208Y-101429869I92J-200092D01*
G01*
X97948338Y-85667737D02*
X98236206Y-85955869D01*
X114891231Y-95429869D02*
G75*
G03*
X114691208Y-95229869I-200031J-31D01*
G01*
X125841231Y-104529869D02*
G75*
G03*
X126041208Y-104729869I199969J-31D01*
G01*
X125841231Y-98529869D02*
G75*
G03*
X126041208Y-98729869I199969J-31D01*
G01*
X127991208Y-104729869D02*
X126041208Y-104729869D01*
X126816208Y-120829869D02*
X126824787Y-119588448D01*
X125841208Y-92529869D02*
X125841208Y-91629869D01*
X99136231Y-88279869D02*
G75*
G03*
X98936206Y-88079869I-200031J-31D01*
G01*
X112541208Y-114329869D02*
X112541208Y-113429869D01*
X112541231Y-114329869D02*
G75*
G03*
X112741208Y-114529869I199969J-31D01*
G01*
X105336206Y-88379869D02*
X105336206Y-87379869D01*
X126624787Y-119788448D02*
X125516208Y-119788448D01*
X96441208Y-102329869D02*
X96441208Y-101429869D01*
X105036206Y-87079869D02*
X99636206Y-87079869D01*
X122616208Y-117329808D02*
G75*
G03*
X122416208Y-117529869I92J-200092D01*
G01*
X99336206Y-88679869D02*
X105036206Y-88679869D01*
X109841208Y-104529869D02*
X109841208Y-103629869D01*
X98566208Y-96529869D02*
X96616208Y-96529869D01*
X96616208Y-95229808D02*
G75*
G03*
X96416208Y-95429869I92J-200092D01*
G01*
X110091208Y-97429869D02*
X112041208Y-97429869D01*
X112191231Y-91629869D02*
G75*
G03*
X111991208Y-91429869I-200031J-31D01*
G01*
X127991208Y-110729869D02*
X126041208Y-110729869D01*
X96416231Y-96329869D02*
G75*
G03*
X96616208Y-96529869I199969J-31D01*
G01*
X111991208Y-104729869D02*
X110041208Y-104729869D01*
X112741208Y-95229808D02*
G75*
G03*
X112541208Y-95429869I92J-200092D01*
G01*
X126041208Y-91429869D02*
X127991208Y-91429869D01*
X96641208Y-113229869D02*
X98591208Y-113229869D01*
X127991208Y-104729808D02*
G75*
G03*
X128191208Y-104529869I92J199908D01*
G01*
X128191208Y-103629869D02*
X128191208Y-104529869D01*
X124016231Y-117529869D02*
G75*
G03*
X123816208Y-117329869I-200031J-31D01*
G01*
X114641208Y-108529869D02*
X112691208Y-108529869D01*
X99136206Y-88279869D02*
X99136206Y-88479869D01*
X112541208Y-102329869D02*
X112541208Y-101429869D01*
X110041208Y-103429869D02*
X111991208Y-103429869D01*
X98791231Y-101429869D02*
G75*
G03*
X98591208Y-101229869I-200031J-31D01*
G01*
X126816231Y-119979869D02*
G75*
G03*
X126616208Y-119779869I-200031J-31D01*
G01*
X123648132Y-119867945D02*
X124773071Y-120983006D01*
X110091208Y-97429808D02*
G75*
G03*
X109891208Y-97629869I92J-200092D01*
G01*
X98791208Y-113429869D02*
X98791208Y-114329869D01*
X109841231Y-92529869D02*
G75*
G03*
X110041208Y-92729869I199969J-31D01*
G01*
X109841208Y-92529869D02*
X109841208Y-91629869D01*
X61374074Y-71779874D02*
G75*
G03*
X61674074Y-71479869I26J299974D01*
G01*
X128191208Y-97629869D02*
X128191208Y-98529869D01*
X109891231Y-110529869D02*
G75*
G03*
X110091208Y-110729869I199969J-31D01*
G01*
X114691208Y-102529869D02*
X112741208Y-102529869D01*
X125155942Y-119720068D02*
X124066208Y-118639869D01*
X97948341Y-85667734D02*
G75*
G03*
X97736206Y-85579869I-212141J-212166D01*
G01*
X125316208Y-119779869D02*
X125266208Y-119779868D01*
X114891208Y-95429869D02*
X114891208Y-96329869D01*
X123816208Y-117329869D02*
X122616208Y-117329869D01*
X112041208Y-98729808D02*
G75*
G03*
X112241208Y-98529869I92J199908D01*
G01*
X112491208Y-108329869D02*
X112491208Y-107429869D01*
X98591208Y-108529869D02*
X96641208Y-108529869D01*
X109891231Y-98529869D02*
G75*
G03*
X110091208Y-98729869I199969J-31D01*
G01*
X112541231Y-96329869D02*
G75*
G03*
X112741208Y-96529869I199969J-31D01*
G01*
X114891231Y-113429869D02*
G75*
G03*
X114691208Y-113229869I-200031J-31D01*
G01*
X124773073Y-120983004D02*
G75*
G03*
X124886208Y-121029869I113127J113104D01*
G01*
X96436206Y-85579806D02*
G75*
G03*
X96136206Y-85879869I94J-300094D01*
G01*
X112541231Y-102329869D02*
G75*
G03*
X112741208Y-102529869I199969J-31D01*
G01*
X125841208Y-104529869D02*
X125841208Y-103629869D01*
X126041208Y-91429808D02*
G75*
G03*
X125841208Y-91629869I92J-200092D01*
G01*
X112741208Y-113229808D02*
G75*
G03*
X112541208Y-113429869I92J-200092D01*
G01*
X109891208Y-110529869D02*
X109891208Y-109629869D01*
X126624787Y-119788487D02*
G75*
G03*
X126824787Y-119588448I-87J200087D01*
G01*
X123648134Y-119867943D02*
G75*
G03*
X123556208Y-119829869I-91934J-91957D01*
G01*
X98791231Y-113429869D02*
G75*
G03*
X98591208Y-113229869I-200031J-31D01*
G01*
X61674031Y-70679869D02*
G75*
G03*
X61374074Y-70379869I-299931J69D01*
G01*
X96441208Y-108329869D02*
X96441208Y-107429869D01*
X114691208Y-114529808D02*
G75*
G03*
X114891208Y-114329869I92J199908D01*
G01*
X112241231Y-97629869D02*
G75*
G03*
X112041208Y-97429869I-200031J-31D01*
G01*
X112191208Y-91629869D02*
X112191208Y-92529869D01*
X96436206Y-88079869D02*
X98936206Y-88079869D01*
X125516208Y-114954869D02*
X126624787Y-114954869D01*
X125516208Y-114954808D02*
G75*
G03*
X125316208Y-115154869I92J-200092D01*
G01*
X128191208Y-91629869D02*
X128191208Y-92529869D01*
X112241231Y-109629869D02*
G75*
G03*
X112041208Y-109429869I-200031J-31D01*
G01*
X127991208Y-110729808D02*
G75*
G03*
X128191208Y-110529869I92J199908D01*
G01*
X126041208Y-109429869D02*
X127991208Y-109429869D01*
X122416231Y-119629869D02*
G75*
G03*
X122616208Y-119829869I199969J-31D01*
G01*
X125416208Y-119779869D02*
X125316208Y-119779869D01*
X99136231Y-88479869D02*
G75*
G03*
X99336206Y-88679869I199969J-31D01*
G01*
X96441231Y-114329869D02*
G75*
G03*
X96641208Y-114529869I199969J-31D01*
G01*
X98591208Y-114529869D02*
X96641208Y-114529869D01*
X127991208Y-98729808D02*
G75*
G03*
X128191208Y-98529869I92J199908D01*
G01*
X125841231Y-110529869D02*
G75*
G03*
X126041208Y-110729869I199969J-31D01*
G01*
X98591208Y-102529869D02*
X96641208Y-102529869D01*
X98791208Y-107429869D02*
X98791208Y-108329869D01*
X110091208Y-109429869D02*
X112041208Y-109429869D01*
X98591208Y-108529808D02*
G75*
G03*
X98791208Y-108329869I92J199908D01*
G01*
X112191231Y-103629869D02*
G75*
G03*
X111991208Y-103429869I-200031J-31D01*
G01*
X112041208Y-98729869D02*
X110091208Y-98729869D01*
X126041208Y-97429808D02*
G75*
G03*
X125841208Y-97629869I92J-200092D01*
G01*
X122416208Y-117529869D02*
X122416208Y-119629869D01*
X124886208Y-121029869D02*
X126616208Y-121029869D01*
X128191231Y-103629869D02*
G75*
G03*
X127991208Y-103429869I-200031J-31D01*
G01*
X125316252Y-119588448D02*
G75*
G03*
X125516208Y-119788448I199948J-52D01*
G01*
X126041208Y-103429869D02*
X127991208Y-103429869D01*
X96441208Y-114329869D02*
X96441208Y-113429869D01*
X112191208Y-103629869D02*
X112191208Y-104529869D01*
X114641208Y-108529808D02*
G75*
G03*
X114841208Y-108329869I92J199908D01*
G01*
X110041208Y-91429869D02*
X111991208Y-91429869D01*
X126824731Y-115154869D02*
G75*
G03*
X126624787Y-114954869I-199931J69D01*
G01*
X127991208Y-92729808D02*
G75*
G03*
X128191208Y-92529869I92J199908D01*
G01*
X112041208Y-110729808D02*
G75*
G03*
X112241208Y-110529869I92J199908D01*
G01*
X96641208Y-101229869D02*
X98591208Y-101229869D01*
X96641208Y-107229869D02*
X98591208Y-107229869D01*
X126824787Y-115154869D02*
X126824787Y-119588448D01*
X111991208Y-92729808D02*
G75*
G03*
X112191208Y-92529869I92J199908D01*
G01*
X128191231Y-91629869D02*
G75*
G03*
X127991208Y-91429869I-200031J-31D01*
G01*
X126041208Y-109429808D02*
G75*
G03*
X125841208Y-109629869I92J-200092D01*
G01*
X128191231Y-97629869D02*
G75*
G03*
X127991208Y-97429869I-200031J-31D01*
G01*
X59274031Y-71479869D02*
G75*
G03*
X59574074Y-71779869I300069J69D01*
G01*
X96136206Y-85879869D02*
X96136206Y-87779869D01*
X96441231Y-108329869D02*
G75*
G03*
X96641208Y-108529869I199969J-31D01*
G01*
X114841208Y-107429869D02*
X114841208Y-108329869D01*
X110041208Y-91429808D02*
G75*
G03*
X109841208Y-91629869I92J-200092D01*
G01*
X126041208Y-103429808D02*
G75*
G03*
X125841208Y-103629869I92J-200092D01*
G01*
X96416208Y-96329869D02*
X96416208Y-95429869D01*
X61374074Y-71779869D02*
X59574074Y-71779869D01*
X98766231Y-95429869D02*
G75*
G03*
X98566208Y-95229869I-200031J-31D01*
G01*
X125841231Y-92529869D02*
G75*
G03*
X126041208Y-92729869I199969J-31D01*
G01*
X112041208Y-110729869D02*
X110091208Y-110729869D01*
X105036206Y-88679806D02*
G75*
G03*
X105336206Y-88379869I94J299906D01*
G01*
X59274074Y-71479869D02*
X59274074Y-70679869D01*
X114691208Y-114529869D02*
X112741208Y-114529869D01*
X98591208Y-114529808D02*
G75*
G03*
X98791208Y-114329869I92J199908D01*
G01*
X99424074Y-86992001D02*
X98736206Y-86304869D01*
X114891208Y-101429869D02*
X114891208Y-102329869D01*
X114891231Y-101429869D02*
G75*
G03*
X114691208Y-101229869I-200031J-31D01*
G01*
X128191231Y-109629869D02*
G75*
G03*
X127991208Y-109429869I-200031J-31D01*
G01*
X114691208Y-102529808D02*
G75*
G03*
X114891208Y-102329869I92J199908D01*
G01*
X111991208Y-92729869D02*
X110041208Y-92729869D01*
X109891208Y-98529869D02*
X109891208Y-97629869D01*
X96441231Y-102329869D02*
G75*
G03*
X96641208Y-102529869I199969J-31D01*
G01*
X112691208Y-107229869D02*
X114641208Y-107229869D01*
X110091208Y-109429808D02*
G75*
G03*
X109891208Y-109629869I92J-200092D01*
G01*
X96641208Y-101229808D02*
G75*
G03*
X96441208Y-101429869I92J-200092D01*
G01*
X98591208Y-102529808D02*
G75*
G03*
X98791208Y-102329869I92J199908D01*
G01*
X112741208Y-95229869D02*
X114691208Y-95229869D01*
X126041208Y-97429869D02*
X127991208Y-97429869D01*
X112491231Y-108329869D02*
G75*
G03*
X112691208Y-108529869I199969J-31D01*
G01*
X105336231Y-87379869D02*
G75*
G03*
X105036206Y-87079869I-300031J-31D01*
G01*
X59574074Y-70379869D02*
X61374074Y-70379869D01*
X125155947Y-119720064D02*
G75*
G03*
X125266208Y-119779868I120253J90164D01*
G01*
X96616208Y-95229869D02*
X98566208Y-95229869D01*
X114691208Y-96529808D02*
G75*
G03*
X114891208Y-96329869I92J199908D01*
G01*
X127991208Y-98729869D02*
X126041208Y-98729869D01*
X125167353Y-119719437D02*
G75*
G03*
X125316208Y-119609869I48847J89537D01*
G01*
X114841231Y-107429869D02*
G75*
G03*
X114641208Y-107229869I-200031J-31D01*
G01*
X112541208Y-96329869D02*
X112541208Y-95429869D01*
X98566208Y-96529808D02*
G75*
G03*
X98766208Y-96329869I92J199908D01*
G01*
X128191208Y-109629869D02*
X128191208Y-110529869D01*
X114691208Y-96529869D02*
X112741208Y-96529869D01*
X112741208Y-113229869D02*
X114691208Y-113229869D01*
X122616208Y-119829869D02*
X123556208Y-119829869D01*
X124016503Y-118519869D02*
X124016208Y-117529869D01*
X97736206Y-85579869D02*
X96436206Y-85579869D01*
X96136231Y-87779869D02*
G75*
G03*
X96436206Y-88079869I299969J-31D01*
G01*
X112741208Y-101229869D02*
X114691208Y-101229869D01*
X59574074Y-70379874D02*
G75*
G03*
X59274074Y-70679869I26J-300026D01*
G01*
X96641208Y-107229808D02*
G75*
G03*
X96441208Y-107429869I92J-200092D01*
G01*
X112241208Y-97629869D02*
X112241208Y-98529869D01*
X61674074Y-71479869D02*
X61674074Y-70679869D01*
X125841208Y-98529869D02*
X125841208Y-97629869D01*
X98766208Y-95429869D02*
X98766208Y-96329869D01*
D11*
%TO.C,U28*%
X164286206Y-67629869D03*
X164286206Y-68279869D03*
X164286206Y-68929869D03*
X162386206Y-68929869D03*
X162386206Y-68279869D03*
X162386206Y-67629869D03*
%TD*%
D12*
%TO.C,J12*%
X176861206Y-106679869D03*
D13*
X175591206Y-106679869D03*
X176861206Y-105409869D03*
X175591206Y-105409869D03*
%TD*%
D14*
%TO.C,H1*%
X45002932Y-147846595D03*
X43836206Y-145029869D03*
X42669480Y-145513143D03*
X42186206Y-146679869D03*
X45002932Y-145513143D03*
X42669480Y-147846595D03*
X43836206Y-148329869D03*
D15*
X43836206Y-146679869D03*
D14*
X45486206Y-146679869D03*
%TD*%
%TO.C,H2*%
X179002932Y-147846595D03*
X177836206Y-145029869D03*
X176669480Y-145513143D03*
X176186206Y-146679869D03*
X179002932Y-145513143D03*
X176669480Y-147846595D03*
X177836206Y-148329869D03*
D15*
X177836206Y-146679869D03*
D14*
X179486206Y-146679869D03*
%TD*%
%TO.C,H7*%
X45486206Y-52679869D03*
D15*
X43836206Y-52679869D03*
D14*
X43836206Y-54329869D03*
X42669480Y-53846595D03*
X45002932Y-51513143D03*
X42186206Y-52679869D03*
X42669480Y-51513143D03*
X43836206Y-51029869D03*
X45002932Y-53846595D03*
%TD*%
%TO.C,H8*%
X179002932Y-53846595D03*
X177836206Y-51029869D03*
X176669480Y-51513143D03*
X176186206Y-52679869D03*
X179002932Y-51513143D03*
X176669480Y-53846595D03*
X177836206Y-54329869D03*
D15*
X177836206Y-52679869D03*
D14*
X179486206Y-52679869D03*
%TD*%
D16*
%TO.C,U34*%
X162186206Y-62729869D03*
X162186206Y-63679869D03*
X162186206Y-64629869D03*
X164686206Y-64629869D03*
X164686206Y-62729869D03*
%TD*%
%TO.C,U33*%
X156586206Y-62729869D03*
X156586206Y-63679869D03*
X156586206Y-64629869D03*
X159086206Y-64629869D03*
X159086206Y-62729869D03*
%TD*%
D17*
%TO.C,R24*%
X165586206Y-67079869D03*
X166886206Y-67079869D03*
%TD*%
D18*
%TO.C,C42*%
X160636206Y-64254869D03*
X160636206Y-62704869D03*
%TD*%
%TO.C,C43*%
X166236206Y-64254869D03*
X166236206Y-62704869D03*
%TD*%
D19*
%TO.C,C41*%
X167111206Y-68479869D03*
X165561206Y-68479869D03*
%TD*%
D20*
%TO.C,C32*%
X153011206Y-95917369D03*
X153011206Y-102142369D03*
%TD*%
D21*
%TO.C,C34*%
X164286206Y-100729869D03*
X161336206Y-100729869D03*
%TD*%
D22*
%TO.C,C40*%
X161266206Y-85379869D03*
X164216206Y-85379869D03*
%TD*%
D23*
%TO.C,C38*%
X153041206Y-86992369D03*
X153041206Y-80767369D03*
%TD*%
D24*
%TO.C,R22*%
X163991206Y-79879869D03*
X163991206Y-78579869D03*
%TD*%
D17*
%TO.C,R15*%
X156611206Y-93807369D03*
X157911206Y-93807369D03*
%TD*%
%TO.C,R14*%
X156611206Y-95179869D03*
X157911206Y-95179869D03*
%TD*%
D25*
%TO.C,R21*%
X165311206Y-78579869D03*
X165311206Y-79879869D03*
%TD*%
D17*
%TO.C,R12*%
X167086206Y-106379869D03*
X168386206Y-106379869D03*
%TD*%
%TO.C,R23*%
X169286206Y-78179869D03*
X170586206Y-78179869D03*
%TD*%
D26*
%TO.C,C39*%
X159478706Y-86029869D03*
X159478706Y-84729869D03*
X156403706Y-86029869D03*
X156403706Y-84729869D03*
%TD*%
D27*
%TO.C,U21*%
X162141206Y-83104869D03*
X162141206Y-82454869D03*
X162141206Y-81804869D03*
X162141206Y-81154869D03*
X162141206Y-80504869D03*
X162141206Y-79854869D03*
X157841206Y-79854869D03*
X157841206Y-80504869D03*
X157841206Y-81154869D03*
X157841206Y-81804869D03*
X157841206Y-82454869D03*
X157841206Y-83104869D03*
D28*
X159991206Y-81479869D03*
%TD*%
D29*
%TO.C,R19*%
X149611206Y-81229869D03*
X149611206Y-84129869D03*
%TD*%
%TO.C,R13*%
X149561206Y-96182369D03*
X149561206Y-99082369D03*
%TD*%
D30*
%TO.C,C33*%
X156473706Y-100179869D03*
X156473706Y-101479869D03*
X159548706Y-100179869D03*
X159548706Y-101479869D03*
%TD*%
D31*
%TO.C,U20*%
X162411206Y-98529869D03*
X162411206Y-98029869D03*
X162411206Y-97529869D03*
X162411206Y-97029869D03*
X162411206Y-96529869D03*
X158111206Y-96529869D03*
X158111206Y-97029869D03*
X158111206Y-97529869D03*
X158111206Y-98029869D03*
X158111206Y-98529869D03*
D32*
X160861206Y-97529869D03*
D33*
X160261206Y-97529869D03*
D32*
X160861206Y-96829869D03*
X159661206Y-96829869D03*
X159661206Y-97529869D03*
X160861206Y-98229869D03*
X159661206Y-98229869D03*
%TD*%
D34*
%TO.C,C8*%
X131391832Y-138479869D03*
X134191832Y-138479869D03*
%TD*%
D35*
%TO.C,J18*%
X131836206Y-71489869D03*
D36*
X131836206Y-70779869D03*
D35*
X131836206Y-67869869D03*
D37*
X131836206Y-69679869D03*
D36*
X131836206Y-68579869D03*
%TD*%
D38*
%TO.C,R4*%
X113910142Y-116729869D03*
X113910142Y-118229869D03*
%TD*%
D39*
%TO.C,D3*%
X168336206Y-103579869D03*
X166936206Y-103579869D03*
%TD*%
D40*
%TO.C,U7*%
X159061206Y-132604869D03*
X159061206Y-133254869D03*
X159061206Y-133904869D03*
X159061206Y-134554869D03*
X163211206Y-134554869D03*
X163211206Y-133904869D03*
X163211206Y-133254869D03*
X163211206Y-132604869D03*
%TD*%
%TO.C,U2*%
X168486206Y-140604869D03*
X168486206Y-141254869D03*
X168486206Y-141904869D03*
X168486206Y-142554869D03*
X172636206Y-142554869D03*
X172636206Y-141904869D03*
X172636206Y-141254869D03*
X172636206Y-140604869D03*
%TD*%
D14*
%TO.C,H3*%
X50669480Y-126513143D03*
X53002932Y-126513143D03*
X50669480Y-128846595D03*
X50186206Y-127679869D03*
X51836206Y-129329869D03*
X53002932Y-128846595D03*
D15*
X51836206Y-127679869D03*
D14*
X53486206Y-127679869D03*
X51836206Y-126029869D03*
%TD*%
D41*
%TO.C,K1*%
X54786206Y-65679869D03*
X54786206Y-68679869D03*
X54786206Y-71079869D03*
X54786206Y-73279869D03*
X60486206Y-73279869D03*
X60486206Y-71079869D03*
X60486206Y-68679869D03*
X60486206Y-65679869D03*
%TD*%
D42*
%TO.C,U12*%
X168936206Y-122729869D03*
X168936206Y-123379869D03*
X168936206Y-124029869D03*
X168936206Y-124679869D03*
X168936206Y-125329869D03*
X168936206Y-125979869D03*
X168936206Y-126629869D03*
X174736206Y-126629869D03*
X174736206Y-125979869D03*
X174736206Y-125329869D03*
X174736206Y-124679869D03*
X174736206Y-124029869D03*
X174736206Y-123379869D03*
X174736206Y-122729869D03*
%TD*%
D43*
%TO.C,C30*%
X168673706Y-110379869D03*
X165598706Y-110379869D03*
%TD*%
D44*
%TO.C,C46*%
X162961206Y-59779869D03*
X164511206Y-59779869D03*
%TD*%
D14*
%TO.C,H6*%
X129836206Y-63329869D03*
X131486206Y-61679869D03*
D15*
X129836206Y-61679869D03*
D14*
X129836206Y-60029869D03*
X131002932Y-62846595D03*
X128669480Y-60513143D03*
X128186206Y-61679869D03*
X128669480Y-62846595D03*
X131002932Y-60513143D03*
%TD*%
D42*
%TO.C,U26*%
X135936206Y-68404869D03*
X135936206Y-69054869D03*
X135936206Y-69704869D03*
X135936206Y-70354869D03*
X135936206Y-71004869D03*
X135936206Y-71654869D03*
X135936206Y-72304869D03*
X135936206Y-72954869D03*
X141736206Y-72954869D03*
X141736206Y-72304869D03*
X141736206Y-71654869D03*
X141736206Y-71004869D03*
X141736206Y-70354869D03*
X141736206Y-69704869D03*
X141736206Y-69054869D03*
X141736206Y-68404869D03*
%TD*%
D45*
%TO.C,TP13*%
X156836206Y-129079869D03*
%TD*%
%TO.C,TP5*%
X166736206Y-140779869D03*
%TD*%
D46*
%TO.C,Q7*%
X113710142Y-104074869D03*
X113710142Y-105344869D03*
X113710142Y-106614869D03*
X113710142Y-107884869D03*
X119110142Y-107884869D03*
X119110142Y-106614869D03*
X119110142Y-105344869D03*
X119110142Y-104074869D03*
%TD*%
D45*
%TO.C,TP9*%
X174436206Y-132979869D03*
%TD*%
D47*
%TO.C,C7*%
X124836206Y-143279869D03*
X124836206Y-140479869D03*
%TD*%
D25*
%TO.C,C36*%
X98436206Y-86179869D03*
X98436206Y-87479869D03*
%TD*%
D48*
%TO.C,C4*%
X97586206Y-137879869D03*
X112586206Y-137879869D03*
%TD*%
D42*
%TO.C,U35*%
X135936206Y-56404869D03*
X135936206Y-57054869D03*
X135936206Y-57704869D03*
X135936206Y-58354869D03*
X135936206Y-59004869D03*
X135936206Y-59654869D03*
X135936206Y-60304869D03*
X135936206Y-60954869D03*
X141736206Y-60954869D03*
X141736206Y-60304869D03*
X141736206Y-59654869D03*
X141736206Y-59004869D03*
X141736206Y-58354869D03*
X141736206Y-57704869D03*
X141736206Y-57054869D03*
X141736206Y-56404869D03*
%TD*%
D48*
%TO.C,C9*%
X139136206Y-137879869D03*
X154136206Y-137879869D03*
%TD*%
D45*
%TO.C,TP15*%
X134136206Y-117279869D03*
%TD*%
D11*
%TO.C,U30*%
X141786206Y-64329869D03*
X141786206Y-63679869D03*
X141786206Y-63029869D03*
X139886206Y-63029869D03*
X139886206Y-63679869D03*
X139886206Y-64329869D03*
%TD*%
D49*
%TO.C,R18*%
X168486206Y-88079869D03*
X165586206Y-88079869D03*
%TD*%
D45*
%TO.C,TP7*%
X116186206Y-135229869D03*
%TD*%
D50*
%TO.C,J15*%
X171716206Y-88679869D03*
X171716206Y-91679869D03*
X171716206Y-94679869D03*
D51*
X177186206Y-86529869D03*
X177186206Y-96829869D03*
%TD*%
D52*
%TO.C,C15*%
X161936206Y-136429869D03*
X159136206Y-136429869D03*
%TD*%
D45*
%TO.C,TP10*%
X93886206Y-125679869D03*
%TD*%
D39*
%TO.C,D4*%
X170636206Y-81079869D03*
X169236206Y-81079869D03*
%TD*%
D12*
%TO.C,J19*%
X176861206Y-72604869D03*
D13*
X175591206Y-72604869D03*
X176861206Y-71334869D03*
X175591206Y-71334869D03*
X176861206Y-70064869D03*
X175591206Y-70064869D03*
X176861206Y-68794869D03*
X175591206Y-68794869D03*
X176861206Y-67524869D03*
X175591206Y-67524869D03*
X176861206Y-66254869D03*
X175591206Y-66254869D03*
X176861206Y-64984869D03*
X175591206Y-64984869D03*
X176861206Y-63714869D03*
X175591206Y-63714869D03*
X176861206Y-62444869D03*
X175591206Y-62444869D03*
X176861206Y-61174869D03*
X175591206Y-61174869D03*
%TD*%
D53*
%TO.C,Q15*%
X111010142Y-95884869D03*
X111010142Y-94614869D03*
X111010142Y-93344869D03*
X111010142Y-92074869D03*
X105610142Y-92074869D03*
X105610142Y-93344869D03*
X105610142Y-94614869D03*
X105610142Y-95884869D03*
%TD*%
D45*
%TO.C,TP17*%
X134136206Y-107279869D03*
%TD*%
D54*
%TO.C,U14*%
X107035142Y-120654869D03*
X107685142Y-120654869D03*
X108335142Y-120654869D03*
X108985142Y-120654869D03*
X108985142Y-116504869D03*
X108335142Y-116504869D03*
X107685142Y-116504869D03*
X107035142Y-116504869D03*
%TD*%
D40*
%TO.C,U8*%
X168561206Y-132554869D03*
X168561206Y-133204869D03*
X168561206Y-133854869D03*
X168561206Y-134504869D03*
X172711206Y-134504869D03*
X172711206Y-133854869D03*
X172711206Y-133204869D03*
X172711206Y-132554869D03*
%TD*%
D36*
%TO.C,J13*%
X49836206Y-93579869D03*
D37*
X49836206Y-94679869D03*
D36*
X49836206Y-95779869D03*
D35*
X49836206Y-96489869D03*
X49836206Y-92869869D03*
%TD*%
D55*
%TO.C,U3*%
X93886206Y-137679869D03*
X93886206Y-137029869D03*
X93886206Y-136379869D03*
X93886206Y-135729869D03*
X93886206Y-135079869D03*
X93886206Y-134429869D03*
X93886206Y-133779869D03*
X88086206Y-133779869D03*
X88086206Y-134429869D03*
X88086206Y-135079869D03*
X88086206Y-135729869D03*
X88086206Y-136379869D03*
X88086206Y-137029869D03*
X88086206Y-137679869D03*
%TD*%
D11*
%TO.C,U25*%
X152786206Y-76329869D03*
X152786206Y-75679869D03*
X152786206Y-75029869D03*
X150886206Y-75029869D03*
X150886206Y-75679869D03*
X150886206Y-76329869D03*
%TD*%
D12*
%TO.C,J10*%
X130136208Y-90039869D03*
D56*
X93496208Y-121449869D03*
D57*
X108816208Y-90039869D03*
X114816208Y-90039869D03*
D58*
X130136208Y-109779869D03*
X93496208Y-103779869D03*
X93496208Y-109779869D03*
X93496208Y-115779869D03*
D57*
X114816208Y-123519869D03*
D56*
X130136208Y-92109869D03*
D58*
X130136208Y-103779869D03*
D12*
X93496208Y-123519869D03*
D59*
X96356208Y-123519869D03*
D12*
X130136208Y-123519869D03*
D57*
X120816208Y-90039869D03*
D56*
X93496208Y-92109869D03*
D57*
X102816208Y-123519869D03*
D58*
X130136208Y-115779869D03*
D12*
X93496208Y-90039869D03*
D59*
X127276208Y-123519869D03*
D57*
X108816208Y-123519869D03*
D58*
X93496208Y-97779869D03*
X130136208Y-97779869D03*
D56*
X130136208Y-121449869D03*
D57*
X102816208Y-90039869D03*
D59*
X96356208Y-90039869D03*
X127276208Y-90039869D03*
D57*
X120816208Y-123519869D03*
%TD*%
D46*
%TO.C,U15*%
X136136206Y-114774869D03*
X136136206Y-116044869D03*
X136136206Y-117314869D03*
X136136206Y-118584869D03*
X141536206Y-118584869D03*
X141536206Y-117314869D03*
X141536206Y-116044869D03*
X141536206Y-114774869D03*
%TD*%
D60*
%TO.C,D1*%
X57936206Y-135729869D03*
X57936206Y-137629869D03*
X59936206Y-136679869D03*
%TD*%
D45*
%TO.C,TP8*%
X166736206Y-132779869D03*
%TD*%
D24*
%TO.C,R3*%
X116410142Y-120729869D03*
X116410142Y-119429869D03*
%TD*%
D41*
%TO.C,K3*%
X74786206Y-65679869D03*
X74786206Y-68679869D03*
X74786206Y-71079869D03*
X74786206Y-73279869D03*
X80486206Y-73279869D03*
X80486206Y-71079869D03*
X80486206Y-68679869D03*
X80486206Y-65679869D03*
%TD*%
D61*
%TO.C,J2*%
X79836206Y-136679869D03*
D62*
X77336206Y-139179869D03*
X77336206Y-134179869D03*
X82336206Y-139179869D03*
X82336206Y-134179869D03*
%TD*%
D63*
%TO.C,Q13*%
X166401206Y-99889869D03*
X166401206Y-100549869D03*
X166401206Y-101209869D03*
X166401206Y-101869869D03*
D64*
X168393706Y-100879869D03*
%TD*%
D65*
%TO.C,C37*%
X156998706Y-89579869D03*
X163223706Y-89579869D03*
%TD*%
D46*
%TO.C,U19*%
X147136206Y-104774869D03*
X147136206Y-106044869D03*
X147136206Y-107314869D03*
X147136206Y-108584869D03*
X152536206Y-108584869D03*
X152536206Y-107314869D03*
X152536206Y-106044869D03*
X152536206Y-104774869D03*
%TD*%
D45*
%TO.C,TP14*%
X143536206Y-119279869D03*
%TD*%
D66*
%TO.C,J21*%
X59736206Y-59679869D03*
X61936206Y-59679869D03*
D67*
X59026206Y-59679869D03*
X62646206Y-59679869D03*
D68*
X60836206Y-59679869D03*
%TD*%
D34*
%TO.C,C20*%
X101210142Y-120579869D03*
X104010142Y-120579869D03*
%TD*%
D69*
%TO.C,J4*%
X43936206Y-129679869D03*
D70*
X43936206Y-126187369D03*
X43936206Y-133172369D03*
%TD*%
D52*
%TO.C,C24*%
X172586206Y-119229869D03*
X169786206Y-119229869D03*
%TD*%
D16*
%TO.C,D7*%
X169586206Y-62729869D03*
X169586206Y-63679869D03*
X169586206Y-64629869D03*
X172086206Y-64629869D03*
X172086206Y-63679869D03*
X172086206Y-62729869D03*
%TD*%
D71*
%TO.C,C2*%
X157736206Y-142542369D03*
X157736206Y-145617369D03*
%TD*%
D46*
%TO.C,Q9*%
X97610142Y-98074869D03*
X97610142Y-99344869D03*
X97610142Y-100614869D03*
X97610142Y-101884869D03*
X103010142Y-101884869D03*
X103010142Y-100614869D03*
X103010142Y-99344869D03*
X103010142Y-98074869D03*
%TD*%
D72*
%TO.C,R10*%
X176686206Y-115979869D03*
X175386206Y-115979869D03*
%TD*%
%TO.C,R11*%
X168386206Y-104979869D03*
X167086206Y-104979869D03*
%TD*%
D34*
%TO.C,C6*%
X124936206Y-138479869D03*
X127736206Y-138479869D03*
%TD*%
D54*
%TO.C,U13*%
X97735142Y-120554869D03*
X98385142Y-120554869D03*
X99035142Y-120554869D03*
X99685142Y-120554869D03*
X99685142Y-116404869D03*
X99035142Y-116404869D03*
X98385142Y-116404869D03*
X97735142Y-116404869D03*
%TD*%
D52*
%TO.C,C16*%
X171411206Y-136304869D03*
X168611206Y-136304869D03*
%TD*%
D24*
%TO.C,R1*%
X96316208Y-122129869D03*
X96316208Y-120829869D03*
%TD*%
D66*
%TO.C,J6*%
X91936206Y-129679869D03*
X89736206Y-129679869D03*
D68*
X90836206Y-129679869D03*
D67*
X89026206Y-129679869D03*
X92646206Y-129679869D03*
%TD*%
%TO.C,J23*%
X120026206Y-59679869D03*
D68*
X121836206Y-59679869D03*
D66*
X122936206Y-59679869D03*
X120736206Y-59679869D03*
D67*
X123646206Y-59679869D03*
%TD*%
D72*
%TO.C,R7*%
X176686206Y-118779869D03*
X175386206Y-118779869D03*
%TD*%
D46*
%TO.C,Q11*%
X113710142Y-98074869D03*
X113710142Y-99344869D03*
X113710142Y-100614869D03*
X113710142Y-101884869D03*
X119110142Y-101884869D03*
X119110142Y-100614869D03*
X119110142Y-99344869D03*
X119110142Y-98074869D03*
%TD*%
D11*
%TO.C,U31*%
X148786206Y-64329869D03*
X148786206Y-63679869D03*
X148786206Y-63029869D03*
X146886206Y-63029869D03*
X146886206Y-63679869D03*
X146886206Y-64329869D03*
%TD*%
D67*
%TO.C,J7*%
X120026206Y-129679869D03*
D66*
X120736206Y-129679869D03*
X122936206Y-129679869D03*
D68*
X121836206Y-129679869D03*
D67*
X123646206Y-129679869D03*
%TD*%
D53*
%TO.C,Q6*%
X111010142Y-107884869D03*
X111010142Y-106614869D03*
X111010142Y-105344869D03*
X111010142Y-104074869D03*
X105610142Y-104074869D03*
X105610142Y-105344869D03*
X105610142Y-106614869D03*
X105610142Y-107884869D03*
%TD*%
D49*
%TO.C,R6*%
X126066208Y-118579869D03*
X123166208Y-118579869D03*
%TD*%
D73*
%TO.C,RN1*%
X101260142Y-118279869D03*
X103160142Y-118279869D03*
X102210142Y-116279869D03*
%TD*%
D34*
%TO.C,C10*%
X169761206Y-138779869D03*
X172561206Y-138779869D03*
%TD*%
D38*
%TO.C,R2*%
X112110142Y-116729869D03*
X112110142Y-118229869D03*
%TD*%
D74*
%TO.C,U6*%
X133641832Y-136329869D03*
X134591832Y-136329869D03*
X135541832Y-136329869D03*
X135541832Y-133829869D03*
X134591832Y-133829869D03*
X133641832Y-133829869D03*
%TD*%
D45*
%TO.C,TP16*%
X143536206Y-117279869D03*
%TD*%
D11*
%TO.C,U23*%
X137786206Y-76329869D03*
X137786206Y-75679869D03*
X137786206Y-75029869D03*
X135886206Y-75029869D03*
X135886206Y-75679869D03*
X135886206Y-76329869D03*
%TD*%
D46*
%TO.C,U16*%
X147136206Y-114774869D03*
X147136206Y-116044869D03*
X147136206Y-117314869D03*
X147136206Y-118584869D03*
X152536206Y-118584869D03*
X152536206Y-117314869D03*
X152536206Y-116044869D03*
X152536206Y-114774869D03*
%TD*%
D53*
%TO.C,Q10*%
X111010142Y-101884869D03*
X111010142Y-100614869D03*
X111010142Y-99344869D03*
X111010142Y-98074869D03*
X105610142Y-98074869D03*
X105610142Y-99344869D03*
X105610142Y-100614869D03*
X105610142Y-101884869D03*
%TD*%
D75*
%TO.C,C44*%
X160336206Y-57329869D03*
X160336206Y-55429869D03*
%TD*%
D44*
%TO.C,C47*%
X169861206Y-54079869D03*
X171411206Y-54079869D03*
%TD*%
D46*
%TO.C,Q5*%
X97610142Y-104074869D03*
X97610142Y-105344869D03*
X97610142Y-106614869D03*
X97610142Y-107884869D03*
X103010142Y-107884869D03*
X103010142Y-106614869D03*
X103010142Y-105344869D03*
X103010142Y-104074869D03*
%TD*%
%TO.C,U18*%
X136136206Y-104774869D03*
X136136206Y-106044869D03*
X136136206Y-107314869D03*
X136136206Y-108584869D03*
X141536206Y-108584869D03*
X141536206Y-107314869D03*
X141536206Y-106044869D03*
X141536206Y-104774869D03*
%TD*%
D45*
%TO.C,TP22*%
X166436206Y-53479869D03*
%TD*%
%TO.C,TP12*%
X116936206Y-127679869D03*
%TD*%
D41*
%TO.C,K2*%
X64786206Y-65679869D03*
X64786206Y-68679869D03*
X64786206Y-71079869D03*
X64786206Y-73279869D03*
X70486206Y-73279869D03*
X70486206Y-71079869D03*
X70486206Y-68679869D03*
X70486206Y-65679869D03*
%TD*%
D74*
%TO.C,U5*%
X126786206Y-136329869D03*
X127736206Y-136329869D03*
X128686206Y-136329869D03*
X128686206Y-133829869D03*
X127736206Y-133829869D03*
X126786206Y-133829869D03*
%TD*%
D76*
%TO.C,C27*%
X105210142Y-115679869D03*
X105210142Y-118479869D03*
%TD*%
D11*
%TO.C,U38*%
X169686206Y-55629869D03*
X169686206Y-56279869D03*
X169686206Y-56929869D03*
X171586206Y-56929869D03*
X171586206Y-55629869D03*
%TD*%
D41*
%TO.C,K4*%
X84786206Y-65679869D03*
X84786206Y-68679869D03*
X84786206Y-71079869D03*
X84786206Y-73279869D03*
X90486206Y-73279869D03*
X90486206Y-71079869D03*
X90486206Y-68679869D03*
X90486206Y-65679869D03*
%TD*%
D77*
%TO.C,U37*%
X162262500Y-56350000D03*
X162262500Y-57300000D03*
X162262500Y-58250000D03*
X164537500Y-58250000D03*
X164537500Y-56350000D03*
%TD*%
D36*
%TO.C,J8*%
X49836206Y-120779869D03*
D35*
X49836206Y-117869869D03*
D36*
X49836206Y-118579869D03*
D35*
X49836206Y-121489869D03*
D37*
X49836206Y-119679869D03*
%TD*%
D34*
%TO.C,C11*%
X119086206Y-132179869D03*
X121886206Y-132179869D03*
%TD*%
D45*
%TO.C,TP11*%
X96936206Y-125679869D03*
%TD*%
D78*
%TO.C,C18*%
X105898706Y-125979869D03*
X108973706Y-125979869D03*
%TD*%
D66*
%TO.C,J5*%
X61936206Y-129679869D03*
D67*
X62646206Y-129679869D03*
D68*
X60836206Y-129679869D03*
D66*
X59736206Y-129679869D03*
D67*
X59026206Y-129679869D03*
%TD*%
D75*
%TO.C,C45*%
X166436206Y-57229869D03*
X166436206Y-55329869D03*
%TD*%
D69*
%TO.C,J9*%
X43936206Y-109679869D03*
D70*
X43936206Y-113172369D03*
X43936206Y-106187369D03*
%TD*%
D49*
%TO.C,R9*%
X126060142Y-116179869D03*
X123160142Y-116179869D03*
%TD*%
D79*
%TO.C,C25*%
X52886206Y-117179869D03*
X52886206Y-106979869D03*
X90386206Y-106979869D03*
X90386206Y-117179869D03*
%TD*%
D80*
%TO.C,Q19*%
X105586206Y-85829869D03*
X103686206Y-85829869D03*
X104636206Y-87829869D03*
%TD*%
D16*
%TO.C,D6*%
X169586206Y-67929869D03*
X169586206Y-68879869D03*
X169586206Y-69829869D03*
X172086206Y-69829869D03*
X172086206Y-68879869D03*
X172086206Y-67929869D03*
%TD*%
D37*
%TO.C,J14*%
X131836206Y-94679869D03*
D35*
X131836206Y-92869869D03*
D36*
X131836206Y-95779869D03*
X131836206Y-93579869D03*
D35*
X131836206Y-96489869D03*
%TD*%
D46*
%TO.C,Q3*%
X113710142Y-110074869D03*
X113710142Y-111344869D03*
X113710142Y-112614869D03*
X113710142Y-113884869D03*
X119110142Y-113884869D03*
X119110142Y-112614869D03*
X119110142Y-111344869D03*
X119110142Y-110074869D03*
%TD*%
D11*
%TO.C,U32*%
X152786206Y-64329869D03*
X152786206Y-63679869D03*
X152786206Y-63029869D03*
X150886206Y-63029869D03*
X150886206Y-63679869D03*
X150886206Y-64329869D03*
%TD*%
D49*
%TO.C,R16*%
X167886206Y-97979869D03*
X164986206Y-97979869D03*
%TD*%
D53*
%TO.C,Q17*%
X127010142Y-95884869D03*
X127010142Y-94614869D03*
X127010142Y-93344869D03*
X127010142Y-92074869D03*
X121610142Y-92074869D03*
X121610142Y-93344869D03*
X121610142Y-94614869D03*
X121610142Y-95884869D03*
%TD*%
D45*
%TO.C,TP2*%
X120636206Y-141579869D03*
%TD*%
%TO.C,TP20*%
X143336206Y-97279869D03*
%TD*%
D73*
%TO.C,Q18*%
X100036206Y-87829869D03*
X101936206Y-87829869D03*
X100986206Y-85829869D03*
%TD*%
D17*
%TO.C,R8*%
X110760142Y-115479869D03*
X112060142Y-115479869D03*
%TD*%
D81*
%TO.C,C29*%
X164723706Y-105279869D03*
X158498706Y-105279869D03*
%TD*%
D45*
%TO.C,TP18*%
X143536206Y-107279869D03*
%TD*%
D34*
%TO.C,C1*%
X124936206Y-145279869D03*
X127736206Y-145279869D03*
%TD*%
D53*
%TO.C,Q12*%
X127010142Y-101884869D03*
X127010142Y-100614869D03*
X127010142Y-99344869D03*
X127010142Y-98074869D03*
X121610142Y-98074869D03*
X121610142Y-99344869D03*
X121610142Y-100614869D03*
X121610142Y-101884869D03*
%TD*%
D11*
%TO.C,U24*%
X148936206Y-76329869D03*
X148936206Y-75679869D03*
X148936206Y-75029869D03*
X147036206Y-75029869D03*
X147036206Y-75679869D03*
X147036206Y-76329869D03*
%TD*%
D82*
%TO.C,C22*%
X115010142Y-119404869D03*
X115010142Y-120954869D03*
%TD*%
D34*
%TO.C,C14*%
X160336206Y-130779869D03*
X163136206Y-130779869D03*
%TD*%
D52*
%TO.C,C3*%
X171361206Y-144379869D03*
X168561206Y-144379869D03*
%TD*%
D11*
%TO.C,U22*%
X141786206Y-76329869D03*
X141786206Y-75679869D03*
X141786206Y-75029869D03*
X139886206Y-75029869D03*
X139886206Y-75679869D03*
X139886206Y-76329869D03*
%TD*%
D42*
%TO.C,U11*%
X157936206Y-122729869D03*
X157936206Y-123379869D03*
X157936206Y-124029869D03*
X157936206Y-124679869D03*
X157936206Y-125329869D03*
X157936206Y-125979869D03*
X157936206Y-126629869D03*
X163736206Y-126629869D03*
X163736206Y-125979869D03*
X163736206Y-125329869D03*
X163736206Y-124679869D03*
X163736206Y-124029869D03*
X163736206Y-123379869D03*
X163736206Y-122729869D03*
%TD*%
D53*
%TO.C,Q8*%
X127010142Y-107884869D03*
X127010142Y-106614869D03*
X127010142Y-105344869D03*
X127010142Y-104074869D03*
X121610142Y-104074869D03*
X121610142Y-105344869D03*
X121610142Y-106614869D03*
X121610142Y-107884869D03*
%TD*%
%TO.C,Q4*%
X127010142Y-113884869D03*
X127010142Y-112614869D03*
X127010142Y-111344869D03*
X127010142Y-110074869D03*
X121610142Y-110074869D03*
X121610142Y-111344869D03*
X121610142Y-112614869D03*
X121610142Y-113884869D03*
%TD*%
D43*
%TO.C,C31*%
X163473706Y-110379869D03*
X160398706Y-110379869D03*
%TD*%
D34*
%TO.C,C28*%
X171136206Y-113279869D03*
X173936206Y-113279869D03*
%TD*%
D14*
%TO.C,H5*%
X51836206Y-60029869D03*
X50186206Y-61679869D03*
D15*
X51836206Y-61679869D03*
D14*
X53002932Y-62846595D03*
X50669480Y-60513143D03*
X51836206Y-63329869D03*
X50669480Y-62846595D03*
X53486206Y-61679869D03*
X53002932Y-60513143D03*
%TD*%
D45*
%TO.C,TP3*%
X136636206Y-141379869D03*
%TD*%
D16*
%TO.C,D5*%
X169586206Y-74029869D03*
X169586206Y-74979869D03*
X169586206Y-75929869D03*
X172086206Y-75929869D03*
X172086206Y-74979869D03*
X172086206Y-74029869D03*
%TD*%
D11*
%TO.C,U29*%
X137786206Y-64329869D03*
X137786206Y-63679869D03*
X137786206Y-63029869D03*
X135886206Y-63029869D03*
X135886206Y-63679869D03*
X135886206Y-64329869D03*
%TD*%
D72*
%TO.C,R25*%
X171586206Y-58479869D03*
X170286206Y-58479869D03*
%TD*%
D46*
%TO.C,Q16*%
X113710142Y-92074869D03*
X113710142Y-93344869D03*
X113710142Y-94614869D03*
X113710142Y-95884869D03*
X119110142Y-95884869D03*
X119110142Y-94614869D03*
X119110142Y-93344869D03*
X119110142Y-92074869D03*
%TD*%
D52*
%TO.C,C5*%
X120786206Y-137829869D03*
X117986206Y-137829869D03*
%TD*%
D14*
%TO.C,H4*%
X131000000Y-126350000D03*
X129350000Y-128000000D03*
X132166726Y-129166726D03*
X132166726Y-126833274D03*
D15*
X131000000Y-128000000D03*
D14*
X131000000Y-129650000D03*
X129833274Y-129166726D03*
X129833274Y-126833274D03*
X132650000Y-128000000D03*
%TD*%
D25*
%TO.C,R5*%
X115710142Y-116829869D03*
X115710142Y-118129869D03*
%TD*%
D45*
%TO.C,TP6*%
X174336206Y-141179869D03*
%TD*%
D42*
%TO.C,U10*%
X146936206Y-122729869D03*
X146936206Y-123379869D03*
X146936206Y-124029869D03*
X146936206Y-124679869D03*
X146936206Y-125329869D03*
X146936206Y-125979869D03*
X146936206Y-126629869D03*
X152736206Y-126629869D03*
X152736206Y-125979869D03*
X152736206Y-125329869D03*
X152736206Y-124679869D03*
X152736206Y-124029869D03*
X152736206Y-123379869D03*
X152736206Y-122729869D03*
%TD*%
D18*
%TO.C,C21*%
X110510142Y-118254869D03*
X110510142Y-116704869D03*
%TD*%
D24*
%TO.C,R17*%
X96936206Y-87479869D03*
X96936206Y-86179869D03*
%TD*%
D42*
%TO.C,U27*%
X146936206Y-68404869D03*
X146936206Y-69054869D03*
X146936206Y-69704869D03*
X146936206Y-70354869D03*
X146936206Y-71004869D03*
X146936206Y-71654869D03*
X146936206Y-72304869D03*
X146936206Y-72954869D03*
X152736206Y-72954869D03*
X152736206Y-72304869D03*
X152736206Y-71654869D03*
X152736206Y-71004869D03*
X152736206Y-70354869D03*
X152736206Y-69704869D03*
X152736206Y-69054869D03*
X152736206Y-68404869D03*
%TD*%
D83*
%TO.C,J20*%
X46136206Y-62479869D03*
D84*
X46136206Y-59939869D03*
%TD*%
D85*
%TO.C,J1*%
X65736206Y-136679869D03*
D86*
X63236206Y-134179869D03*
X63236206Y-139179869D03*
X68236206Y-134179869D03*
X68236206Y-139179869D03*
%TD*%
D46*
%TO.C,Q14*%
X97610142Y-92074869D03*
X97610142Y-93344869D03*
X97610142Y-94614869D03*
X97610142Y-95884869D03*
X103010142Y-95884869D03*
X103010142Y-94614869D03*
X103010142Y-93344869D03*
X103010142Y-92074869D03*
%TD*%
D76*
%TO.C,C26*%
X95910142Y-116029869D03*
X95910142Y-118829869D03*
%TD*%
D79*
%TO.C,C35*%
X52886206Y-82479869D03*
X52886206Y-92679869D03*
X90386206Y-82479869D03*
X90386206Y-92679869D03*
%TD*%
D83*
%TO.C,J3*%
X93361206Y-141604869D03*
D84*
X93361206Y-144144869D03*
X90821206Y-141604869D03*
X90821206Y-144144869D03*
X88281206Y-141604869D03*
X88281206Y-144144869D03*
%TD*%
D46*
%TO.C,Q1*%
X97610142Y-110074869D03*
X97610142Y-111344869D03*
X97610142Y-112614869D03*
X97610142Y-113884869D03*
X103010142Y-113884869D03*
X103010142Y-112614869D03*
X103010142Y-111344869D03*
X103010142Y-110074869D03*
%TD*%
D47*
%TO.C,C13*%
X131591832Y-136479869D03*
X131591832Y-133679869D03*
%TD*%
D45*
%TO.C,TP4*%
X157736206Y-139979869D03*
%TD*%
D53*
%TO.C,Q2*%
X111010142Y-113884869D03*
X111010142Y-112614869D03*
X111010142Y-111344869D03*
X111010142Y-110074869D03*
X105610142Y-110074869D03*
X105610142Y-111344869D03*
X105610142Y-112614869D03*
X105610142Y-113884869D03*
%TD*%
D87*
%TO.C,D2*%
X45536206Y-119679869D03*
X42336206Y-119679869D03*
%TD*%
D67*
%TO.C,J22*%
X92646206Y-59679869D03*
D66*
X89736206Y-59679869D03*
X91936206Y-59679869D03*
D68*
X90836206Y-59679869D03*
D67*
X89026206Y-59679869D03*
%TD*%
D34*
%TO.C,C17*%
X169911206Y-130604869D03*
X172711206Y-130604869D03*
%TD*%
D42*
%TO.C,U36*%
X146936206Y-56404869D03*
X146936206Y-57054869D03*
X146936206Y-57704869D03*
X146936206Y-58354869D03*
X146936206Y-59004869D03*
X146936206Y-59654869D03*
X146936206Y-60304869D03*
X146936206Y-60954869D03*
X152736206Y-60954869D03*
X152736206Y-60304869D03*
X152736206Y-59654869D03*
X152736206Y-59004869D03*
X152736206Y-58354869D03*
X152736206Y-57704869D03*
X152736206Y-57054869D03*
X152736206Y-56404869D03*
%TD*%
D45*
%TO.C,TP1*%
X120636206Y-143979869D03*
%TD*%
%TO.C,TP19*%
X143336206Y-92279869D03*
%TD*%
D47*
%TO.C,C12*%
X124836206Y-136479869D03*
X124836206Y-133679869D03*
%TD*%
D34*
%TO.C,C23*%
X110410142Y-120579869D03*
X113210142Y-120579869D03*
%TD*%
D36*
%TO.C,J17*%
X49836206Y-73779869D03*
D37*
X49836206Y-72679869D03*
D36*
X49836206Y-71579869D03*
D35*
X49836206Y-70869869D03*
X49836206Y-74489869D03*
%TD*%
D43*
%TO.C,C19*%
X114973706Y-125979869D03*
X111898706Y-125979869D03*
%TD*%
D69*
%TO.C,J16*%
X43936206Y-69679869D03*
D70*
X43936206Y-73172369D03*
X43936206Y-66187369D03*
%TD*%
D40*
%TO.C,U4*%
X117911206Y-133954869D03*
X117911206Y-134604869D03*
X117911206Y-135254869D03*
X117911206Y-135904869D03*
X122061206Y-135904869D03*
X122061206Y-135254869D03*
X122061206Y-134604869D03*
X122061206Y-133954869D03*
%TD*%
D42*
%TO.C,U9*%
X135936206Y-122729869D03*
X135936206Y-123379869D03*
X135936206Y-124029869D03*
X135936206Y-124679869D03*
X135936206Y-125329869D03*
X135936206Y-125979869D03*
X135936206Y-126629869D03*
X141736206Y-126629869D03*
X141736206Y-125979869D03*
X141736206Y-125329869D03*
X141736206Y-124679869D03*
X141736206Y-124029869D03*
X141736206Y-123379869D03*
X141736206Y-122729869D03*
%TD*%
D72*
%TO.C,R20*%
X170586206Y-79579869D03*
X169286206Y-79579869D03*
%TD*%
D35*
%TO.C,J11*%
X131836206Y-106669869D03*
D36*
X131836206Y-107379869D03*
D37*
X131836206Y-108479869D03*
D35*
X131836206Y-110289869D03*
D36*
X131836206Y-109579869D03*
%TD*%
D40*
%TO.C,U17*%
X169961206Y-115304869D03*
X169961206Y-115954869D03*
X169961206Y-116604869D03*
X169961206Y-117254869D03*
X174111206Y-117254869D03*
X174111206Y-116604869D03*
X174111206Y-115954869D03*
X174111206Y-115304869D03*
%TD*%
D74*
%TO.C,U1*%
X126786206Y-143129869D03*
X127736206Y-143129869D03*
X128686206Y-143129869D03*
X128686206Y-140629869D03*
X127736206Y-140629869D03*
X126786206Y-140629869D03*
%TD*%
D45*
%TO.C,TP21*%
X143336206Y-87279869D03*
%TD*%
D88*
%TO.C,Q20*%
X167346206Y-85714869D03*
X168006206Y-85714869D03*
X168666206Y-85714869D03*
X169326206Y-85714869D03*
D89*
X168336206Y-83722369D03*
%TD*%
M02*
