%TF.GenerationSoftware,KiCad,Pcbnew,(6.0.11)*%
%TF.CreationDate,2023-08-11T21:29:26-04:00*%
%TF.ProjectId,1fNoiseAmplifierRev13,31664e6f-6973-4654-916d-706c69666965,rev?*%
%TF.SameCoordinates,Original*%
%TF.FileFunction,Soldermask,Bot*%
%TF.FilePolarity,Negative*%
%FSLAX46Y46*%
G04 Gerber Fmt 4.6, Leading zero omitted, Abs format (unit mm)*
G04 Created by KiCad (PCBNEW (6.0.11)) date 2023-08-11 21:29:26*
%MOMM*%
%LPD*%
G01*
G04 APERTURE LIST*
G04 Aperture macros list*
%AMRoundRect*
0 Rectangle with rounded corners*
0 $1 Rounding radius*
0 $2 $3 $4 $5 $6 $7 $8 $9 X,Y pos of 4 corners*
0 Add a 4 corners polygon primitive as box body*
4,1,4,$2,$3,$4,$5,$6,$7,$8,$9,$2,$3,0*
0 Add four circle primitives for the rounded corners*
1,1,$1+$1,$2,$3*
1,1,$1+$1,$4,$5*
1,1,$1+$1,$6,$7*
1,1,$1+$1,$8,$9*
0 Add four rect primitives between the rounded corners*
20,1,$1+$1,$2,$3,$4,$5,0*
20,1,$1+$1,$4,$5,$6,$7,0*
20,1,$1+$1,$6,$7,$8,$9,0*
20,1,$1+$1,$8,$9,$2,$3,0*%
%AMFreePoly0*
4,1,13,0.250000,-0.375000,0.000000,-0.375000,-0.095671,-0.355970,-0.176777,-0.301777,-0.230970,-0.220671,-0.250000,-0.125000,-0.250000,0.125000,-0.230970,0.220671,-0.176777,0.301777,-0.095671,0.355970,0.000000,0.375000,0.250000,0.375000,0.250000,-0.375000,0.250000,-0.375000,$1*%
G04 Aperture macros list end*
%ADD10C,0.150000*%
%ADD11R,1.000000X1.000000*%
%ADD12O,1.000000X1.000000*%
%ADD13C,0.700000*%
%ADD14C,4.400000*%
%ADD15RoundRect,0.150000X-0.150000X-0.300000X0.150000X-0.300000X0.150000X0.300000X-0.150000X0.300000X0*%
%ADD16C,2.200000*%
%ADD17C,2.840000*%
%ADD18R,4.190000X2.665000*%
%ADD19C,2.800000*%
%ADD20R,1.700000X1.700000*%
%ADD21O,1.700000X1.700000*%
%ADD22R,1.200000X0.900000*%
%ADD23RoundRect,0.150000X-0.300000X0.150000X-0.300000X-0.150000X0.300000X-0.150000X0.300000X0.150000X0*%
%ADD24RoundRect,0.137500X-0.137500X0.262500X-0.137500X-0.262500X0.137500X-0.262500X0.137500X0.262500X0*%
%ADD25RoundRect,0.217391X0.282609X0.657609X-0.282609X0.657609X-0.282609X-0.657609X0.282609X-0.657609X0*%
%ADD26R,0.500000X0.400000*%
%ADD27R,0.500000X0.300000*%
%ADD28RoundRect,0.177778X-0.697222X0.222222X-0.697222X-0.222222X0.697222X-0.222222X0.697222X0.222222X0*%
%ADD29RoundRect,0.050000X-0.200000X0.300000X-0.200000X-0.300000X0.200000X-0.300000X0.200000X0.300000X0*%
%ADD30RoundRect,0.048000X-0.202000X0.192000X-0.202000X-0.192000X0.202000X-0.192000X0.202000X0.192000X0*%
%ADD31RoundRect,0.110000X-0.490000X0.440000X-0.490000X-0.440000X0.490000X-0.440000X0.490000X0.440000X0*%
%ADD32RoundRect,0.175000X-0.175000X0.275000X-0.175000X-0.275000X0.175000X-0.275000X0.175000X0.275000X0*%
%ADD33RoundRect,0.175000X0.175000X0.275000X-0.175000X0.275000X-0.175000X-0.275000X0.175000X-0.275000X0*%
%ADD34RoundRect,0.175000X-0.275000X-0.175000X0.275000X-0.175000X0.275000X0.175000X-0.275000X0.175000X0*%
%ADD35R,0.400000X0.650000*%
%ADD36C,1.000000*%
%ADD37RoundRect,0.200000X-0.200000X-0.475000X0.200000X-0.475000X0.200000X0.475000X-0.200000X0.475000X0*%
%ADD38RoundRect,0.175000X-0.175000X-0.275000X0.175000X-0.275000X0.175000X0.275000X-0.175000X0.275000X0*%
%ADD39RoundRect,0.175000X-0.485000X0.175000X-0.485000X-0.175000X0.485000X-0.175000X0.485000X0.175000X0*%
%ADD40RoundRect,0.175000X0.275000X-0.175000X0.275000X0.175000X-0.275000X0.175000X-0.275000X-0.175000X0*%
%ADD41RoundRect,0.175000X0.485000X-0.175000X0.485000X0.175000X-0.485000X0.175000X-0.485000X-0.175000X0*%
%ADD42RoundRect,0.050000X-0.300000X-0.200000X0.300000X-0.200000X0.300000X0.200000X-0.300000X0.200000X0*%
%ADD43RoundRect,0.048000X-0.192000X-0.202000X0.192000X-0.202000X0.192000X0.202000X-0.192000X0.202000X0*%
%ADD44RoundRect,0.110000X-0.440000X-0.490000X0.440000X-0.490000X0.440000X0.490000X-0.440000X0.490000X0*%
%ADD45RoundRect,0.150000X0.150000X0.300000X-0.150000X0.300000X-0.150000X-0.300000X0.150000X-0.300000X0*%
%ADD46RoundRect,0.217391X-0.282609X-0.657609X0.282609X-0.657609X0.282609X0.657609X-0.282609X0.657609X0*%
%ADD47RoundRect,0.175000X0.275000X0.175000X-0.275000X0.175000X-0.275000X-0.175000X0.275000X-0.175000X0*%
%ADD48RoundRect,0.150000X0.300000X-0.150000X0.300000X0.150000X-0.300000X0.150000X-0.300000X-0.150000X0*%
%ADD49RoundRect,0.048000X0.192000X0.202000X-0.192000X0.202000X-0.192000X-0.202000X0.192000X-0.202000X0*%
%ADD50RoundRect,0.110000X0.440000X0.490000X-0.440000X0.490000X-0.440000X-0.490000X0.440000X-0.490000X0*%
%ADD51RoundRect,0.050000X0.300000X0.200000X-0.300000X0.200000X-0.300000X-0.200000X0.300000X-0.200000X0*%
%ADD52RoundRect,0.175000X-0.275000X0.175000X-0.275000X-0.175000X0.275000X-0.175000X0.275000X0.175000X0*%
%ADD53RoundRect,0.217391X0.657609X-0.282609X0.657609X0.282609X-0.657609X0.282609X-0.657609X-0.282609X0*%
%ADD54RoundRect,0.177778X0.697222X-0.222222X0.697222X0.222222X-0.697222X0.222222X-0.697222X-0.222222X0*%
%ADD55RoundRect,0.175000X-0.175000X-0.485000X0.175000X-0.485000X0.175000X0.485000X-0.175000X0.485000X0*%
%ADD56RoundRect,0.250000X-0.925000X0.412500X-0.925000X-0.412500X0.925000X-0.412500X0.925000X0.412500X0*%
%ADD57RoundRect,0.177778X-0.222222X-0.697222X0.222222X-0.697222X0.222222X0.697222X-0.222222X0.697222X0*%
%ADD58FreePoly0,270.000000*%
%ADD59FreePoly0,90.000000*%
%ADD60RoundRect,0.177778X0.222222X0.697222X-0.222222X0.697222X-0.222222X-0.697222X0.222222X-0.697222X0*%
%ADD61R,2.010000X2.390000*%
%ADD62RoundRect,0.217391X-0.657609X0.282609X-0.657609X-0.282609X0.657609X-0.282609X0.657609X0.282609X0*%
%ADD63RoundRect,0.200000X0.475000X-0.200000X0.475000X0.200000X-0.475000X0.200000X-0.475000X-0.200000X0*%
%ADD64RoundRect,0.137500X0.137500X-0.262500X0.137500X0.262500X-0.137500X0.262500X-0.137500X-0.262500X0*%
%ADD65R,1.000000X3.140000*%
%ADD66R,1.000000X3.800000*%
%ADD67R,3.800000X1.000000*%
%ADD68R,4.720000X1.000000*%
%ADD69RoundRect,0.175000X0.175000X0.485000X-0.175000X0.485000X-0.175000X-0.485000X0.175000X-0.485000X0*%
G04 APERTURE END LIST*
D10*
X125216208Y-120879869D02*
X125216208Y-119979869D01*
X125516208Y-116192001D02*
X126716208Y-116192001D01*
X125216231Y-120879869D02*
G75*
G03*
X125516208Y-121179869I299969J-31D01*
G01*
X125516208Y-119679808D02*
G75*
G03*
X125216208Y-119979869I92J-300092D01*
G01*
X125216208Y-117392001D02*
X125216208Y-116492001D01*
X125216199Y-117392001D02*
G75*
G03*
X125516208Y-117692001I300001J1D01*
G01*
X127016199Y-116492001D02*
G75*
G03*
X126716208Y-116192001I-299999J1D01*
G01*
X125516208Y-116192008D02*
G75*
G03*
X125216208Y-116492001I-8J-299992D01*
G01*
X127016208Y-119979869D02*
X127016208Y-120879869D01*
X126716208Y-121179808D02*
G75*
G03*
X127016208Y-120879869I92J299908D01*
G01*
X127016231Y-119979869D02*
G75*
G03*
X126716208Y-119679869I-300031J-31D01*
G01*
X125516208Y-119679869D02*
X126716208Y-119679869D01*
X126716208Y-121179869D02*
X125516208Y-121179869D01*
X126716208Y-117692008D02*
G75*
G03*
X127016208Y-117392001I-8J300008D01*
G01*
X126716208Y-117692001D02*
X125516208Y-117692001D01*
X127016208Y-116492001D02*
X127016208Y-117392001D01*
D11*
%TO.C,J12*%
X176861206Y-106679869D03*
D12*
X175591206Y-106679869D03*
X176861206Y-105409869D03*
X175591206Y-105409869D03*
%TD*%
D13*
%TO.C,H1*%
X45002932Y-147846595D03*
X43836206Y-145029869D03*
X42669480Y-145513143D03*
X42186206Y-146679869D03*
X45002932Y-145513143D03*
X42669480Y-147846595D03*
X43836206Y-148329869D03*
D14*
X43836206Y-146679869D03*
D13*
X45486206Y-146679869D03*
%TD*%
%TO.C,H2*%
X179002932Y-147846595D03*
X177836206Y-145029869D03*
X176669480Y-145513143D03*
X176186206Y-146679869D03*
X179002932Y-145513143D03*
X176669480Y-147846595D03*
X177836206Y-148329869D03*
D14*
X177836206Y-146679869D03*
D13*
X179486206Y-146679869D03*
%TD*%
%TO.C,H7*%
X45486206Y-52679869D03*
D14*
X43836206Y-52679869D03*
D13*
X43836206Y-54329869D03*
X42669480Y-53846595D03*
X45002932Y-51513143D03*
X42186206Y-52679869D03*
X42669480Y-51513143D03*
X43836206Y-51029869D03*
X45002932Y-53846595D03*
%TD*%
%TO.C,H8*%
X179002932Y-53846595D03*
X177836206Y-51029869D03*
X176669480Y-51513143D03*
X176186206Y-52679869D03*
X179002932Y-51513143D03*
X176669480Y-53846595D03*
X177836206Y-54329869D03*
D14*
X177836206Y-52679869D03*
D13*
X179486206Y-52679869D03*
%TD*%
D15*
%TO.C,R77*%
X172686206Y-106779869D03*
X173986206Y-106779869D03*
%TD*%
%TO.C,R78*%
X172686206Y-105379869D03*
X173986206Y-105379869D03*
%TD*%
D13*
%TO.C,H3*%
X50669480Y-126513143D03*
X53002932Y-126513143D03*
X50669480Y-128846595D03*
X50186206Y-127679869D03*
X51836206Y-129329869D03*
X53002932Y-128846595D03*
D14*
X51836206Y-127679869D03*
D13*
X53486206Y-127679869D03*
X51836206Y-126029869D03*
%TD*%
%TO.C,H6*%
X129836206Y-63329869D03*
X131486206Y-61679869D03*
D14*
X129836206Y-61679869D03*
D13*
X129836206Y-60029869D03*
X131002932Y-62846595D03*
X128669480Y-60513143D03*
X128186206Y-61679869D03*
X128669480Y-62846595D03*
X131002932Y-60513143D03*
%TD*%
D16*
%TO.C,C4*%
X97586206Y-137879869D03*
X112586206Y-137879869D03*
%TD*%
%TO.C,C9*%
X139136206Y-137879869D03*
X154136206Y-137879869D03*
%TD*%
D17*
%TO.C,J15*%
X177186206Y-86529869D03*
X177186206Y-96829869D03*
%TD*%
D11*
%TO.C,J19*%
X176861206Y-72604869D03*
D12*
X175591206Y-72604869D03*
X176861206Y-71334869D03*
X175591206Y-71334869D03*
X176861206Y-70064869D03*
X175591206Y-70064869D03*
X176861206Y-68794869D03*
X175591206Y-68794869D03*
X176861206Y-67524869D03*
X175591206Y-67524869D03*
X176861206Y-66254869D03*
X175591206Y-66254869D03*
X176861206Y-64984869D03*
X175591206Y-64984869D03*
X176861206Y-63714869D03*
X175591206Y-63714869D03*
X176861206Y-62444869D03*
X175591206Y-62444869D03*
X176861206Y-61174869D03*
X175591206Y-61174869D03*
%TD*%
D18*
%TO.C,J4*%
X43936206Y-133172369D03*
X43936206Y-126187369D03*
%TD*%
%TO.C,J9*%
X43936206Y-113172369D03*
X43936206Y-106187369D03*
%TD*%
D19*
%TO.C,C25*%
X52886206Y-117179869D03*
X52886206Y-106979869D03*
X90386206Y-106979869D03*
X90386206Y-117179869D03*
%TD*%
D13*
%TO.C,H5*%
X51836206Y-60029869D03*
X50186206Y-61679869D03*
D14*
X51836206Y-61679869D03*
D13*
X53002932Y-62846595D03*
X50669480Y-60513143D03*
X51836206Y-63329869D03*
X50669480Y-62846595D03*
X53486206Y-61679869D03*
X53002932Y-60513143D03*
%TD*%
%TO.C,H4*%
X131000000Y-126350000D03*
X129350000Y-128000000D03*
X132166726Y-129166726D03*
X132166726Y-126833274D03*
D14*
X131000000Y-128000000D03*
D13*
X131000000Y-129650000D03*
X129833274Y-129166726D03*
X129833274Y-126833274D03*
X132650000Y-128000000D03*
%TD*%
D20*
%TO.C,J20*%
X46136206Y-62479869D03*
D21*
X46136206Y-59939869D03*
%TD*%
D22*
%TO.C,D18*%
X167836206Y-91229869D03*
X167836206Y-87929869D03*
%TD*%
D19*
%TO.C,C35*%
X52886206Y-82479869D03*
X52886206Y-92679869D03*
X90386206Y-82479869D03*
X90386206Y-92679869D03*
%TD*%
D20*
%TO.C,J3*%
X93361206Y-141604869D03*
D21*
X93361206Y-144144869D03*
X90821206Y-141604869D03*
X90821206Y-144144869D03*
X88281206Y-141604869D03*
X88281206Y-144144869D03*
%TD*%
D18*
%TO.C,J16*%
X43936206Y-66187369D03*
X43936206Y-73172369D03*
%TD*%
D22*
%TO.C,D17*%
X167836206Y-96129869D03*
X167836206Y-92829869D03*
%TD*%
D23*
%TO.C,R97*%
X96910142Y-92829869D03*
X96910142Y-94129869D03*
%TD*%
D24*
%TO.C,Q27*%
X115460142Y-118229869D03*
X116410142Y-118229869D03*
X117360142Y-118229869D03*
X117360142Y-120729869D03*
X115460142Y-120729869D03*
%TD*%
D23*
%TO.C,R72*%
X104910142Y-110829869D03*
X104910142Y-112129869D03*
%TD*%
D25*
%TO.C,C72*%
X138636206Y-120179869D03*
X135836206Y-120179869D03*
%TD*%
D26*
%TO.C,RN4*%
X177836206Y-77629869D03*
D27*
X177836206Y-78129869D03*
X177836206Y-78629869D03*
D26*
X177836206Y-79129869D03*
X176836206Y-79129869D03*
D27*
X176836206Y-78629869D03*
X176836206Y-78129869D03*
D26*
X176836206Y-77629869D03*
%TD*%
D28*
%TO.C,R93*%
X173536206Y-96629869D03*
X173536206Y-99529869D03*
%TD*%
D29*
%TO.C,J32*%
X131836206Y-70779869D03*
D30*
X131836206Y-67869869D03*
D31*
X131836206Y-69679869D03*
D29*
X131836206Y-68579869D03*
D30*
X131836206Y-71489869D03*
%TD*%
D23*
%TO.C,R85*%
X112910142Y-104829869D03*
X112910142Y-106129869D03*
%TD*%
D32*
%TO.C,Q29*%
X103460142Y-118479869D03*
X105360142Y-118479869D03*
X104410142Y-120479869D03*
%TD*%
D15*
%TO.C,R80*%
X147486206Y-105979869D03*
X148786206Y-105979869D03*
%TD*%
D33*
%TO.C,C96*%
X141611206Y-75679869D03*
X140061206Y-75679869D03*
%TD*%
D34*
%TO.C,Q45*%
X114910142Y-94929869D03*
X114910142Y-93029869D03*
X116910142Y-93979869D03*
%TD*%
D35*
%TO.C,D13*%
X97760142Y-115279869D03*
X98410142Y-115279869D03*
X99060142Y-115279869D03*
X99060142Y-117179869D03*
X98410142Y-117179869D03*
X97760142Y-117179869D03*
%TD*%
D33*
%TO.C,C91*%
X150611206Y-74179869D03*
X149061206Y-74179869D03*
%TD*%
D25*
%TO.C,C71*%
X155436206Y-118979869D03*
X152636206Y-118979869D03*
%TD*%
D36*
%TO.C,TP26*%
X174136206Y-78679869D03*
%TD*%
D37*
%TO.C,C49*%
X166211206Y-143279869D03*
X168111206Y-143279869D03*
%TD*%
D26*
%TO.C,RN8*%
X171636206Y-63929869D03*
D27*
X171636206Y-63429869D03*
X171636206Y-62929869D03*
D26*
X171636206Y-62429869D03*
X172636206Y-62429869D03*
D27*
X172636206Y-62929869D03*
X172636206Y-63429869D03*
D26*
X172636206Y-63929869D03*
%TD*%
D23*
%TO.C,R66*%
X120910142Y-110829869D03*
X120910142Y-112129869D03*
%TD*%
D38*
%TO.C,C107*%
X149061206Y-59179869D03*
X150611206Y-59179869D03*
%TD*%
D23*
%TO.C,R67*%
X112910142Y-110829869D03*
X112910142Y-112129869D03*
%TD*%
D34*
%TO.C,Q37*%
X114910142Y-106929869D03*
X114910142Y-105029869D03*
X116910142Y-105979869D03*
%TD*%
D39*
%TO.C,R68*%
X115410142Y-115229869D03*
X115410142Y-116729869D03*
%TD*%
D25*
%TO.C,C88*%
X149136206Y-104179869D03*
X146336206Y-104179869D03*
%TD*%
D40*
%TO.C,C65*%
X161536206Y-125554869D03*
X161536206Y-124004869D03*
%TD*%
%TO.C,C63*%
X171136206Y-125554869D03*
X171136206Y-124004869D03*
%TD*%
D25*
%TO.C,C51*%
X168061206Y-139879869D03*
X165261206Y-139879869D03*
%TD*%
D34*
%TO.C,Q40*%
X122910142Y-100929869D03*
X122910142Y-99029869D03*
X124910142Y-99979869D03*
%TD*%
D23*
%TO.C,R84*%
X120910142Y-104829869D03*
X120910142Y-106129869D03*
%TD*%
%TO.C,R64*%
X141111206Y-113539869D03*
X141111206Y-114839869D03*
%TD*%
D41*
%TO.C,R43*%
X127236206Y-135829869D03*
X127236206Y-134329869D03*
%TD*%
D23*
%TO.C,R50*%
X93586206Y-133029869D03*
X93586206Y-134329869D03*
%TD*%
D42*
%TO.C,J25*%
X91936206Y-129679869D03*
D43*
X89026206Y-129679869D03*
D42*
X89736206Y-129679869D03*
D43*
X92646206Y-129679869D03*
D44*
X90836206Y-129679869D03*
%TD*%
D34*
%TO.C,Q38*%
X106910142Y-106929869D03*
X106910142Y-105029869D03*
X108910142Y-105979869D03*
%TD*%
D45*
%TO.C,R53*%
X122866208Y-121979869D03*
X121566208Y-121979869D03*
%TD*%
D40*
%TO.C,C68*%
X149136206Y-125554869D03*
X149136206Y-124004869D03*
%TD*%
D33*
%TO.C,C93*%
X148761206Y-75679869D03*
X147211206Y-75679869D03*
%TD*%
D45*
%TO.C,R27*%
X171561206Y-141679869D03*
X170261206Y-141679869D03*
%TD*%
D36*
%TO.C,TP32*%
X164636206Y-62879869D03*
%TD*%
D46*
%TO.C,C87*%
X150536206Y-104179869D03*
X153336206Y-104179869D03*
%TD*%
D47*
%TO.C,D16*%
X177536206Y-101529869D03*
X177536206Y-103429869D03*
X175536206Y-102479869D03*
%TD*%
D15*
%TO.C,R61*%
X149986206Y-115779869D03*
X151286206Y-115779869D03*
%TD*%
D45*
%TO.C,R56*%
X102060142Y-121029869D03*
X100760142Y-121029869D03*
%TD*%
%TO.C,R30*%
X157786206Y-136579869D03*
X156486206Y-136579869D03*
%TD*%
D39*
%TO.C,R40*%
X132191832Y-134329869D03*
X132191832Y-135829869D03*
%TD*%
D33*
%TO.C,C54*%
X174411206Y-132304869D03*
X172861206Y-132304869D03*
%TD*%
D48*
%TO.C,R65*%
X139611206Y-114839869D03*
X139611206Y-113539869D03*
%TD*%
D47*
%TO.C,D8*%
X130136206Y-140929869D03*
X130136206Y-142829869D03*
X128136206Y-141879869D03*
%TD*%
D23*
%TO.C,R87*%
X96910142Y-104829869D03*
X96910142Y-106129869D03*
%TD*%
D33*
%TO.C,C95*%
X137611206Y-75679869D03*
X136061206Y-75679869D03*
%TD*%
D23*
%TO.C,R92*%
X96910142Y-98829869D03*
X96910142Y-100129869D03*
%TD*%
D36*
%TO.C,TP30*%
X166736206Y-70579869D03*
%TD*%
D49*
%TO.C,J24*%
X120026206Y-129679869D03*
D50*
X121836206Y-129679869D03*
D51*
X120736206Y-129679869D03*
D49*
X123646206Y-129679869D03*
D51*
X122936206Y-129679869D03*
%TD*%
D40*
%TO.C,C70*%
X138136206Y-125554869D03*
X138136206Y-124004869D03*
%TD*%
D23*
%TO.C,R76*%
X96910142Y-110829869D03*
X96910142Y-112129869D03*
%TD*%
D52*
%TO.C,C60*%
X128836206Y-134304869D03*
X128836206Y-135854869D03*
%TD*%
D36*
%TO.C,TP25*%
X178936206Y-75979869D03*
%TD*%
D33*
%TO.C,C104*%
X141611206Y-63679869D03*
X140061206Y-63679869D03*
%TD*%
D25*
%TO.C,C83*%
X155436206Y-108979869D03*
X152636206Y-108979869D03*
%TD*%
D38*
%TO.C,C52*%
X91586206Y-137229869D03*
X93136206Y-137229869D03*
%TD*%
D45*
%TO.C,R108*%
X139486206Y-60679869D03*
X138186206Y-60679869D03*
%TD*%
D40*
%TO.C,C66*%
X160136206Y-125554869D03*
X160136206Y-124004869D03*
%TD*%
D38*
%TO.C,C85*%
X138161206Y-107379869D03*
X139711206Y-107379869D03*
%TD*%
D23*
%TO.C,R96*%
X104910142Y-92829869D03*
X104910142Y-94129869D03*
%TD*%
D38*
%TO.C,C74*%
X100535142Y-118229869D03*
X102085142Y-118229869D03*
%TD*%
D34*
%TO.C,U39*%
X141411206Y-118139869D03*
X141411206Y-116239869D03*
X143411206Y-117189869D03*
%TD*%
D15*
%TO.C,R79*%
X149986206Y-105979869D03*
X151286206Y-105979869D03*
%TD*%
D33*
%TO.C,C94*%
X139611206Y-74179869D03*
X138061206Y-74179869D03*
%TD*%
D47*
%TO.C,Q32*%
X124010142Y-115029869D03*
X124010142Y-116929869D03*
X122010142Y-115979869D03*
%TD*%
%TO.C,Q21*%
X148736206Y-138279869D03*
X148736206Y-140179869D03*
X146736206Y-139229869D03*
%TD*%
D53*
%TO.C,C86*%
X136336206Y-111579869D03*
X136336206Y-108779869D03*
%TD*%
D36*
%TO.C,TP27*%
X166736206Y-67479869D03*
%TD*%
D32*
%TO.C,RN2*%
X90136206Y-133029869D03*
X92036206Y-133029869D03*
X91086206Y-135029869D03*
%TD*%
D26*
%TO.C,RN7*%
X160936206Y-68929869D03*
D27*
X160936206Y-68429869D03*
X160936206Y-67929869D03*
D26*
X160936206Y-67429869D03*
X161936206Y-67429869D03*
D27*
X161936206Y-67929869D03*
X161936206Y-68429869D03*
D26*
X161936206Y-68929869D03*
%TD*%
D15*
%TO.C,R82*%
X140886206Y-105979869D03*
X142186206Y-105979869D03*
%TD*%
D36*
%TO.C,TP34*%
X166736206Y-61379869D03*
%TD*%
%TO.C,TP24*%
X175536206Y-76079869D03*
%TD*%
D23*
%TO.C,R86*%
X104910142Y-104829869D03*
X104910142Y-106129869D03*
%TD*%
D31*
%TO.C,J30*%
X131836206Y-94679869D03*
D30*
X131836206Y-96489869D03*
X131836206Y-92869869D03*
D29*
X131836206Y-93579869D03*
X131836206Y-95779869D03*
%TD*%
D38*
%TO.C,C57*%
X167436206Y-135004869D03*
X168986206Y-135004869D03*
%TD*%
D46*
%TO.C,C89*%
X139036206Y-102779869D03*
X141836206Y-102779869D03*
%TD*%
D47*
%TO.C,D15*%
X46936206Y-108729869D03*
X46936206Y-110629869D03*
X44936206Y-109679869D03*
%TD*%
D36*
%TO.C,TP31*%
X164636206Y-66079869D03*
%TD*%
D23*
%TO.C,R94*%
X120910142Y-92829869D03*
X120910142Y-94129869D03*
%TD*%
D54*
%TO.C,R38*%
X150936206Y-134429869D03*
X150936206Y-131529869D03*
%TD*%
D36*
%TO.C,TP23*%
X176836206Y-80979869D03*
%TD*%
D45*
%TO.C,R83*%
X139586206Y-108779869D03*
X138286206Y-108779869D03*
%TD*%
%TO.C,R29*%
X168211206Y-141679869D03*
X166911206Y-141679869D03*
%TD*%
D23*
%TO.C,R28*%
X164811206Y-141679869D03*
X164811206Y-142979869D03*
%TD*%
%TO.C,R32*%
X144936206Y-138529869D03*
X144936206Y-139829869D03*
%TD*%
D45*
%TO.C,R35*%
X174386206Y-133704869D03*
X173086206Y-133704869D03*
%TD*%
D55*
%TO.C,R46*%
X119236206Y-136329869D03*
X120736206Y-136329869D03*
%TD*%
D40*
%TO.C,C64*%
X172536206Y-125554869D03*
X172536206Y-124004869D03*
%TD*%
D34*
%TO.C,Q22*%
X106636206Y-137879869D03*
X106636206Y-135979869D03*
X108636206Y-136929869D03*
%TD*%
D45*
%TO.C,R57*%
X102060142Y-119629869D03*
X100760142Y-119629869D03*
%TD*%
D34*
%TO.C,Q43*%
X98910142Y-100929869D03*
X98910142Y-99029869D03*
X100910142Y-99979869D03*
%TD*%
D45*
%TO.C,R88*%
X139586206Y-104579869D03*
X138286206Y-104579869D03*
%TD*%
D29*
%TO.C,J33*%
X49836206Y-73779869D03*
D31*
X49836206Y-72679869D03*
D30*
X49836206Y-74489869D03*
X49836206Y-70869869D03*
D29*
X49836206Y-71579869D03*
%TD*%
D34*
%TO.C,Q36*%
X122910142Y-106929869D03*
X122910142Y-105029869D03*
X124910142Y-105979869D03*
%TD*%
D56*
%TO.C,C90*%
X111836206Y-85142369D03*
X111836206Y-88217369D03*
%TD*%
D41*
%TO.C,R42*%
X133991832Y-135829869D03*
X133991832Y-134329869D03*
%TD*%
D15*
%TO.C,R104*%
X138186206Y-69679869D03*
X139486206Y-69679869D03*
%TD*%
D33*
%TO.C,C73*%
X126191208Y-121979869D03*
X124641208Y-121979869D03*
%TD*%
D45*
%TO.C,R81*%
X139586206Y-105979869D03*
X138286206Y-105979869D03*
%TD*%
D49*
%TO.C,J36*%
X62646206Y-59679869D03*
D51*
X59736206Y-59679869D03*
X61936206Y-59679869D03*
D50*
X60836206Y-59679869D03*
D49*
X59026206Y-59679869D03*
%TD*%
D45*
%TO.C,R102*%
X150486206Y-66679869D03*
X149186206Y-66679869D03*
%TD*%
D34*
%TO.C,Q47*%
X98910142Y-94929869D03*
X98910142Y-93029869D03*
X100910142Y-93979869D03*
%TD*%
D38*
%TO.C,C100*%
X138061206Y-71179869D03*
X139611206Y-71179869D03*
%TD*%
D57*
%TO.C,R106*%
X56186206Y-71079869D03*
X59086206Y-71079869D03*
%TD*%
D54*
%TO.C,R31*%
X150936206Y-138529869D03*
X150936206Y-135629869D03*
%TD*%
D40*
%TO.C,C67*%
X150536206Y-125554869D03*
X150536206Y-124004869D03*
%TD*%
D52*
%TO.C,C79*%
X139611206Y-116004869D03*
X139611206Y-117554869D03*
%TD*%
D41*
%TO.C,R45*%
X123636206Y-135829869D03*
X123636206Y-134329869D03*
%TD*%
D47*
%TO.C,D14*%
X177536206Y-108629869D03*
X177536206Y-110529869D03*
X175536206Y-109579869D03*
%TD*%
D33*
%TO.C,C53*%
X90436206Y-137229869D03*
X88886206Y-137229869D03*
%TD*%
D45*
%TO.C,R26*%
X174061206Y-141679869D03*
X172761206Y-141679869D03*
%TD*%
D29*
%TO.C,J27*%
X49836206Y-118579869D03*
D31*
X49836206Y-119679869D03*
D30*
X49836206Y-121489869D03*
D29*
X49836206Y-120779869D03*
D30*
X49836206Y-117869869D03*
%TD*%
D47*
%TO.C,D9*%
X108636206Y-139579869D03*
X108636206Y-141479869D03*
X106636206Y-140529869D03*
%TD*%
D24*
%TO.C,Q26*%
X111460142Y-118229869D03*
X112410142Y-118229869D03*
X113360142Y-118229869D03*
X113360142Y-120729869D03*
X111460142Y-120729869D03*
%TD*%
D45*
%TO.C,R100*%
X150486206Y-72679869D03*
X149186206Y-72679869D03*
%TD*%
%TO.C,R59*%
X46186206Y-122779869D03*
X44886206Y-122779869D03*
%TD*%
D34*
%TO.C,Q33*%
X114910142Y-112929869D03*
X114910142Y-111029869D03*
X116910142Y-111979869D03*
%TD*%
D39*
%TO.C,R44*%
X125436206Y-134329869D03*
X125436206Y-135829869D03*
%TD*%
D38*
%TO.C,C108*%
X149061206Y-56179869D03*
X150611206Y-56179869D03*
%TD*%
D33*
%TO.C,C106*%
X137611206Y-63679869D03*
X136061206Y-63679869D03*
%TD*%
D38*
%TO.C,C110*%
X138061206Y-56179869D03*
X139611206Y-56179869D03*
%TD*%
D58*
%TO.C,JP1*%
X144736206Y-110429869D03*
D59*
X144736206Y-111129869D03*
%TD*%
D41*
%TO.C,R70*%
X107410142Y-116729869D03*
X107410142Y-115229869D03*
%TD*%
D23*
%TO.C,R39*%
X144836206Y-133929869D03*
X144836206Y-135229869D03*
%TD*%
D38*
%TO.C,C61*%
X119311206Y-132929869D03*
X120861206Y-132929869D03*
%TD*%
D37*
%TO.C,C48*%
X172061206Y-143279869D03*
X173961206Y-143279869D03*
%TD*%
D40*
%TO.C,C58*%
X143336206Y-135254869D03*
X143336206Y-133704869D03*
%TD*%
D41*
%TO.C,R41*%
X130436206Y-135829869D03*
X130436206Y-134329869D03*
%TD*%
D38*
%TO.C,C109*%
X138061206Y-59179869D03*
X139611206Y-59179869D03*
%TD*%
%TO.C,C98*%
X149061206Y-71179869D03*
X150611206Y-71179869D03*
%TD*%
D23*
%TO.C,R75*%
X95410142Y-110829869D03*
X95410142Y-112129869D03*
%TD*%
D45*
%TO.C,R37*%
X168886206Y-130879869D03*
X167586206Y-130879869D03*
%TD*%
D60*
%TO.C,R105*%
X89086206Y-68679869D03*
X86186206Y-68679869D03*
%TD*%
D23*
%TO.C,R89*%
X120910142Y-98829869D03*
X120910142Y-100129869D03*
%TD*%
D31*
%TO.C,J28*%
X131836206Y-108479869D03*
D29*
X131836206Y-107379869D03*
D30*
X131836206Y-110289869D03*
D29*
X131836206Y-109579869D03*
D30*
X131836206Y-106669869D03*
%TD*%
D23*
%TO.C,R54*%
X118816208Y-119729869D03*
X118816208Y-121029869D03*
%TD*%
D61*
%TO.C,D12*%
X45536206Y-119679869D03*
X42336206Y-119679869D03*
%TD*%
D33*
%TO.C,C56*%
X168986206Y-132204869D03*
X167436206Y-132204869D03*
%TD*%
%TO.C,C103*%
X148611206Y-63679869D03*
X147061206Y-63679869D03*
%TD*%
D34*
%TO.C,Q31*%
X126116208Y-116929869D03*
X126116208Y-115029869D03*
X128116208Y-115979869D03*
%TD*%
D15*
%TO.C,R101*%
X149186206Y-69679869D03*
X150486206Y-69679869D03*
%TD*%
D62*
%TO.C,C77*%
X142936206Y-111879869D03*
X142936206Y-114679869D03*
%TD*%
D45*
%TO.C,R103*%
X139486206Y-72679869D03*
X138186206Y-72679869D03*
%TD*%
%TO.C,R34*%
X171986206Y-133704869D03*
X170686206Y-133704869D03*
%TD*%
D38*
%TO.C,C55*%
X172861206Y-135104869D03*
X174411206Y-135104869D03*
%TD*%
D23*
%TO.C,R55*%
X120216208Y-119729869D03*
X120216208Y-121029869D03*
%TD*%
D34*
%TO.C,Q34*%
X106910142Y-112929869D03*
X106910142Y-111029869D03*
X108910142Y-111979869D03*
%TD*%
D41*
%TO.C,R73*%
X109410142Y-116729869D03*
X109410142Y-115229869D03*
%TD*%
D25*
%TO.C,C75*%
X155436206Y-116679869D03*
X152636206Y-116679869D03*
%TD*%
D15*
%TO.C,R33*%
X103486206Y-140529869D03*
X104786206Y-140529869D03*
%TD*%
D39*
%TO.C,R69*%
X117260142Y-115229869D03*
X117260142Y-116729869D03*
%TD*%
D57*
%TO.C,R48*%
X106186206Y-134129869D03*
X109086206Y-134129869D03*
%TD*%
D33*
%TO.C,C105*%
X139611206Y-62179869D03*
X138061206Y-62179869D03*
%TD*%
D23*
%TO.C,R90*%
X112910142Y-98829869D03*
X112910142Y-100129869D03*
%TD*%
D40*
%TO.C,C69*%
X139536206Y-125554869D03*
X139536206Y-124004869D03*
%TD*%
D34*
%TO.C,Q25*%
X122010142Y-120429869D03*
X122010142Y-118529869D03*
X124010142Y-119479869D03*
%TD*%
D26*
%TO.C,RN9*%
X156336206Y-60329869D03*
D27*
X156336206Y-59829869D03*
X156336206Y-59329869D03*
D26*
X156336206Y-58829869D03*
X157336206Y-58829869D03*
D27*
X157336206Y-59329869D03*
X157336206Y-59829869D03*
D26*
X157336206Y-60329869D03*
%TD*%
D48*
%TO.C,R71*%
X105710142Y-116729869D03*
X105710142Y-115429869D03*
%TD*%
D31*
%TO.C,J31*%
X49836206Y-94679869D03*
D29*
X49836206Y-93579869D03*
D30*
X49836206Y-92869869D03*
X49836206Y-96489869D03*
D29*
X49836206Y-95779869D03*
%TD*%
D46*
%TO.C,C76*%
X150436206Y-113879869D03*
X153236206Y-113879869D03*
%TD*%
D25*
%TO.C,C78*%
X149036206Y-113879869D03*
X146236206Y-113879869D03*
%TD*%
D47*
%TO.C,Q23*%
X148736206Y-134329869D03*
X148736206Y-136229869D03*
X146736206Y-135279869D03*
%TD*%
D36*
%TO.C,TP28*%
X164636206Y-70579869D03*
%TD*%
D26*
%TO.C,RN5*%
X171736206Y-74129869D03*
D27*
X171736206Y-73629869D03*
X171736206Y-73129869D03*
D26*
X171736206Y-72629869D03*
X172736206Y-72629869D03*
D27*
X172736206Y-73129869D03*
X172736206Y-73629869D03*
D26*
X172736206Y-74129869D03*
%TD*%
D34*
%TO.C,Q39*%
X98910142Y-106929869D03*
X98910142Y-105029869D03*
X100910142Y-105979869D03*
%TD*%
D15*
%TO.C,R109*%
X149186206Y-57679869D03*
X150486206Y-57679869D03*
%TD*%
%TO.C,R62*%
X147386206Y-115779869D03*
X148686206Y-115779869D03*
%TD*%
D57*
%TO.C,R98*%
X86186206Y-73379869D03*
X89086206Y-73379869D03*
%TD*%
D25*
%TO.C,C50*%
X173811206Y-139879869D03*
X171011206Y-139879869D03*
%TD*%
D52*
%TO.C,C62*%
X110836206Y-133554869D03*
X110836206Y-135104869D03*
%TD*%
D33*
%TO.C,C92*%
X152611206Y-75679869D03*
X151061206Y-75679869D03*
%TD*%
D48*
%TO.C,R51*%
X141536206Y-121079869D03*
X141536206Y-119779869D03*
%TD*%
D53*
%TO.C,C81*%
X119210142Y-118229869D03*
X119210142Y-115429869D03*
%TD*%
D51*
%TO.C,J26*%
X59736206Y-129679869D03*
D50*
X60836206Y-129679869D03*
D49*
X59026206Y-129679869D03*
D51*
X61936206Y-129679869D03*
D49*
X62646206Y-129679869D03*
%TD*%
D47*
%TO.C,U40*%
X136411206Y-116239869D03*
X136411206Y-118139869D03*
X134411206Y-117189869D03*
%TD*%
D32*
%TO.C,RN3*%
X171086206Y-115279869D03*
X172986206Y-115279869D03*
X172036206Y-117279869D03*
%TD*%
D23*
%TO.C,R63*%
X138111206Y-113539869D03*
X138111206Y-114839869D03*
%TD*%
D45*
%TO.C,R36*%
X168861206Y-133604869D03*
X167561206Y-133604869D03*
%TD*%
D34*
%TO.C,Q30*%
X122910142Y-112929869D03*
X122910142Y-111029869D03*
X124910142Y-111979869D03*
%TD*%
D45*
%TO.C,R107*%
X150486206Y-60679869D03*
X149186206Y-60679869D03*
%TD*%
D34*
%TO.C,Q44*%
X122910142Y-94929869D03*
X122910142Y-93029869D03*
X124910142Y-93979869D03*
%TD*%
D63*
%TO.C,C82*%
X95910142Y-117179869D03*
X95910142Y-115279869D03*
%TD*%
D33*
%TO.C,C101*%
X152611206Y-63679869D03*
X151061206Y-63679869D03*
%TD*%
D50*
%TO.C,J34*%
X121836206Y-59679869D03*
D49*
X123646206Y-59679869D03*
D51*
X122936206Y-59679869D03*
D49*
X120026206Y-59679869D03*
D51*
X120736206Y-59679869D03*
%TD*%
D40*
%TO.C,C80*%
X138111206Y-117554869D03*
X138111206Y-116004869D03*
%TD*%
D60*
%TO.C,R99*%
X59086206Y-73579869D03*
X56186206Y-73579869D03*
%TD*%
D38*
%TO.C,C97*%
X149061206Y-68179869D03*
X150611206Y-68179869D03*
%TD*%
D26*
%TO.C,RN6*%
X171736206Y-68879869D03*
D27*
X171736206Y-68379869D03*
X171736206Y-67879869D03*
D26*
X171736206Y-67379869D03*
X172736206Y-67379869D03*
D27*
X172736206Y-67879869D03*
X172736206Y-68379869D03*
D26*
X172736206Y-68879869D03*
%TD*%
D64*
%TO.C,Q28*%
X109360142Y-120729869D03*
X108410142Y-120729869D03*
X107460142Y-120729869D03*
X107460142Y-118229869D03*
X109360142Y-118229869D03*
%TD*%
D45*
%TO.C,R52*%
X128666208Y-121979869D03*
X127366208Y-121979869D03*
%TD*%
D48*
%TO.C,R58*%
X95910142Y-119879869D03*
X95910142Y-118579869D03*
%TD*%
D23*
%TO.C,R95*%
X112910142Y-92829869D03*
X112910142Y-94129869D03*
%TD*%
D36*
%TO.C,TP33*%
X166736206Y-64279869D03*
%TD*%
D45*
%TO.C,R60*%
X43686206Y-122779869D03*
X42386206Y-122779869D03*
%TD*%
D34*
%TO.C,Q41*%
X114910142Y-100929869D03*
X114910142Y-99029869D03*
X116910142Y-99979869D03*
%TD*%
D33*
%TO.C,C102*%
X150611206Y-62179869D03*
X149061206Y-62179869D03*
%TD*%
D48*
%TO.C,R74*%
X104310142Y-116729869D03*
X104310142Y-115429869D03*
%TD*%
D52*
%TO.C,C59*%
X135591832Y-134304869D03*
X135591832Y-135854869D03*
%TD*%
D34*
%TO.C,Q35*%
X98910142Y-112929869D03*
X98910142Y-111029869D03*
X100910142Y-111979869D03*
%TD*%
D36*
%TO.C,TP29*%
X164636206Y-68479869D03*
%TD*%
D65*
%TO.C,J29*%
X93496208Y-92109869D03*
X93496208Y-121449869D03*
X130136208Y-92109869D03*
D66*
X93496208Y-115779869D03*
X130136208Y-97779869D03*
X93496208Y-103779869D03*
X93496208Y-97779869D03*
D67*
X114816208Y-90039869D03*
D66*
X130136208Y-109779869D03*
D67*
X108816208Y-123519869D03*
X120816208Y-90039869D03*
D11*
X93496208Y-123519869D03*
D66*
X130136208Y-115779869D03*
D68*
X127276208Y-123519869D03*
D65*
X130136208Y-121449869D03*
D67*
X108816208Y-90039869D03*
X102816208Y-90039869D03*
X120816208Y-123519869D03*
D11*
X130136208Y-90039869D03*
X130136208Y-123519869D03*
D66*
X93496208Y-109779869D03*
D11*
X93496208Y-90039869D03*
D67*
X114816208Y-123519869D03*
D68*
X127276208Y-90039869D03*
D66*
X130136208Y-103779869D03*
D68*
X96356208Y-90039869D03*
X96356208Y-123519869D03*
D67*
X102816208Y-123519869D03*
%TD*%
D38*
%TO.C,C99*%
X138061206Y-68179869D03*
X139611206Y-68179869D03*
%TD*%
D47*
%TO.C,D11*%
X46936206Y-128729869D03*
X46936206Y-130629869D03*
X44936206Y-129679869D03*
%TD*%
D34*
%TO.C,Q42*%
X106910142Y-100929869D03*
X106910142Y-99029869D03*
X108910142Y-99979869D03*
%TD*%
D69*
%TO.C,R47*%
X120736206Y-134529869D03*
X119236206Y-134529869D03*
%TD*%
D23*
%TO.C,R91*%
X104910142Y-98829869D03*
X104910142Y-100129869D03*
%TD*%
D34*
%TO.C,D10*%
X154436206Y-134129869D03*
X154436206Y-132229869D03*
X156436206Y-133179869D03*
%TD*%
D51*
%TO.C,J35*%
X89736206Y-59679869D03*
D50*
X90836206Y-59679869D03*
D49*
X92646206Y-59679869D03*
X89026206Y-59679869D03*
D51*
X91936206Y-59679869D03*
%TD*%
D25*
%TO.C,C84*%
X155436206Y-106679869D03*
X152636206Y-106679869D03*
%TD*%
D34*
%TO.C,Q24*%
X126116208Y-120429869D03*
X126116208Y-118529869D03*
X128116208Y-119479869D03*
%TD*%
%TO.C,Q46*%
X106910142Y-94929869D03*
X106910142Y-93029869D03*
X108910142Y-93979869D03*
%TD*%
D15*
%TO.C,R110*%
X138186206Y-57679869D03*
X139486206Y-57679869D03*
%TD*%
D48*
%TO.C,R49*%
X95136206Y-134329869D03*
X95136206Y-133029869D03*
%TD*%
M02*
