%TF.GenerationSoftware,KiCad,Pcbnew,(6.0.11)*%
%TF.CreationDate,2023-08-12T22:25:01-04:00*%
%TF.ProjectId,FP_SW_rev_21,46505f53-575f-4726-9576-5f32312e6b69,rev?*%
%TF.SameCoordinates,Original*%
%TF.FileFunction,Copper,L1,Top*%
%TF.FilePolarity,Positive*%
%FSLAX46Y46*%
G04 Gerber Fmt 4.6, Leading zero omitted, Abs format (unit mm)*
G04 Created by KiCad (PCBNEW (6.0.11)) date 2023-08-12 22:25:01*
%MOMM*%
%LPD*%
G01*
G04 APERTURE LIST*
%TA.AperFunction,ComponentPad*%
%ADD10R,1.000000X1.000000*%
%TD*%
%TA.AperFunction,ComponentPad*%
%ADD11O,1.000000X1.000000*%
%TD*%
%TA.AperFunction,ComponentPad*%
%ADD12O,3.500000X2.500000*%
%TD*%
%TA.AperFunction,ViaPad*%
%ADD13C,0.500000*%
%TD*%
%TA.AperFunction,Conductor*%
%ADD14C,0.200000*%
%TD*%
G04 APERTURE END LIST*
D10*
%TO.P,J1,1,Pin_1*%
%TO.N,/-20dB_SW__IN*%
X123000000Y-89575000D03*
D11*
%TO.P,J1,2,Pin_2*%
%TO.N,/+20dB_SW__IN*%
X123000000Y-90845000D03*
%TO.P,J1,3,Pin_3*%
%TO.N,/INPUT_HP_SW_IN*%
X121730000Y-89575000D03*
%TO.P,J1,4,Pin_4*%
%TO.N,/WB_SW__IN*%
X121730000Y-90845000D03*
%TO.P,J1,5,Pin_5*%
%TO.N,GND*%
X120460000Y-89575000D03*
%TO.P,J1,6,Pin_6*%
%TO.N,/10Hz_LP_SW__IN*%
X120460000Y-90845000D03*
%TO.P,J1,7,Pin_7*%
%TO.N,GND*%
X119190000Y-89575000D03*
%TO.P,J1,8,Pin_8*%
%TO.N,/10kHz_LP_SW__IN*%
X119190000Y-90845000D03*
%TO.P,J1,9,Pin_9*%
%TO.N,GND*%
X117920000Y-89575000D03*
%TO.P,J1,10,Pin_10*%
%TO.N,/0.1Hz_Fc_SW__IN*%
X117920000Y-90845000D03*
%TO.P,J1,11,Pin_11*%
%TO.N,GND*%
X116650000Y-89575000D03*
%TO.P,J1,12,Pin_12*%
%TO.N,/SETTLE_SW__IN*%
X116650000Y-90845000D03*
%TO.P,J1,13,Pin_13*%
%TO.N,GND*%
X115380000Y-89575000D03*
%TO.P,J1,14,Pin_14*%
%TO.N,/K1_SW__IN*%
X115380000Y-90845000D03*
%TO.P,J1,15,Pin_15*%
%TO.N,GND*%
X114110000Y-89575000D03*
%TO.P,J1,16,Pin_16*%
%TO.N,/K2_SW__IN*%
X114110000Y-90845000D03*
%TO.P,J1,17,Pin_17*%
%TO.N,GND*%
X112840000Y-89575000D03*
%TO.P,J1,18,Pin_18*%
%TO.N,/K3_SW__IN*%
X112840000Y-90845000D03*
%TO.P,J1,19,Pin_19*%
%TO.N,+3V3*%
X111570000Y-89575000D03*
%TO.P,J1,20,Pin_20*%
%TO.N,/K4_SW__IN*%
X111570000Y-90845000D03*
%TD*%
D12*
%TO.P,SW5,1,A*%
%TO.N,/WB_SW__IN*%
X171000000Y-104700000D03*
%TO.P,SW5,2,B*%
%TO.N,+3V3*%
X171000000Y-100000000D03*
%TO.P,SW5,3,C*%
%TO.N,/10Hz_LP_SW__IN*%
X171000000Y-95300000D03*
%TD*%
%TO.P,SW1,1,A*%
%TO.N,+3V3*%
X115000000Y-104700000D03*
%TO.P,SW1,2,B*%
%TO.N,/K1_SW__IN*%
X115000000Y-100000000D03*
%TO.P,SW1,3,C*%
%TO.N,GND*%
X115000000Y-95300000D03*
%TD*%
%TO.P,SW2,1,A*%
%TO.N,/K2_SW__IN*%
X129000000Y-104700000D03*
%TO.P,SW2,2,B*%
%TO.N,+3V3*%
X129000000Y-100000000D03*
%TO.P,SW2,3,C*%
%TO.N,/INPUT_HP_SW_IN*%
X129000000Y-95300000D03*
%TD*%
%TO.P,SW6,1,A*%
%TO.N,/+20dB_SW__IN*%
X185000000Y-104700000D03*
%TO.P,SW6,2,B*%
%TO.N,+3V3*%
X185000000Y-100000000D03*
%TO.P,SW6,3,C*%
%TO.N,/-20dB_SW__IN*%
X185000000Y-95300000D03*
%TD*%
%TO.P,SW3,1,A*%
%TO.N,/K4_SW__IN*%
X143000000Y-104700000D03*
%TO.P,SW3,2,B*%
%TO.N,+3V3*%
X143000000Y-100000000D03*
%TO.P,SW3,3,C*%
%TO.N,/K3_SW__IN*%
X143000000Y-95300000D03*
%TD*%
%TO.P,SW4,1,A*%
%TO.N,/SETTLE_SW__IN*%
X157000000Y-104700000D03*
%TO.P,SW4,2,B*%
%TO.N,+3V3*%
X157000000Y-100000000D03*
%TO.P,SW4,3,C*%
%TO.N,/0.1Hz_Fc_SW__IN*%
X157000000Y-95300000D03*
%TD*%
D13*
%TO.N,GND*%
X122000000Y-105600000D03*
X121000000Y-93700000D03*
X150100000Y-105600000D03*
X176200000Y-105600000D03*
X135900000Y-105600000D03*
%TO.N,/WB_SW__IN*%
X121730000Y-93030000D03*
%TO.N,/K3_SW__IN*%
X118549500Y-92600000D03*
%TD*%
D14*
%TO.N,/WB_SW__IN*%
X121730000Y-93030000D02*
X121730000Y-90845000D01*
%TO.N,/INPUT_HP_SW_IN*%
X121822894Y-88775000D02*
X126375000Y-88775000D01*
X121730000Y-88867894D02*
X121822894Y-88775000D01*
X126375000Y-88775000D02*
X129000000Y-91400000D01*
X129000000Y-91400000D02*
X129000000Y-95300000D01*
X121730000Y-89575000D02*
X121730000Y-88867894D01*
%TO.N,/K3_SW__IN*%
X112840000Y-90845000D02*
X114595000Y-92600000D01*
X114595000Y-92600000D02*
X118549500Y-92600000D01*
%TO.N,+3V3*%
X115000000Y-104700000D02*
X119400000Y-104700000D01*
X129000000Y-100000000D02*
X185000000Y-100000000D01*
X124100000Y-100000000D02*
X129000000Y-100000000D01*
X110200000Y-90945000D02*
X110200000Y-99900000D01*
X119400000Y-104700000D02*
X124100000Y-100000000D01*
X111570000Y-89575000D02*
X110200000Y-90945000D01*
X110200000Y-99900000D02*
X115000000Y-104700000D01*
%TD*%
%TA.AperFunction,Conductor*%
%TO.N,GND*%
G36*
X121494932Y-88320502D02*
G01*
X121541425Y-88374158D01*
X121551529Y-88444432D01*
X121522035Y-88509012D01*
X121515906Y-88515595D01*
X121424516Y-88606985D01*
X121424513Y-88606989D01*
X121401950Y-88629552D01*
X121397446Y-88638392D01*
X121391965Y-88649149D01*
X121381639Y-88666001D01*
X121368704Y-88683804D01*
X121361907Y-88704724D01*
X121354341Y-88722988D01*
X121348856Y-88733753D01*
X121348855Y-88733757D01*
X121344354Y-88742590D01*
X121342803Y-88752382D01*
X121339738Y-88761816D01*
X121338008Y-88761254D01*
X121312692Y-88814665D01*
X121252426Y-88852196D01*
X121181437Y-88851186D01*
X121138335Y-88827892D01*
X121031144Y-88739217D01*
X121020973Y-88732356D01*
X120857924Y-88644196D01*
X120846619Y-88639444D01*
X120731308Y-88603750D01*
X120717205Y-88603544D01*
X120714000Y-88610299D01*
X120714000Y-89703000D01*
X120693998Y-89771121D01*
X120640342Y-89817614D01*
X120588000Y-89829000D01*
X112712000Y-89829000D01*
X112643879Y-89808998D01*
X112597386Y-89755342D01*
X112586000Y-89703000D01*
X112586000Y-89302885D01*
X113094000Y-89302885D01*
X113098475Y-89318124D01*
X113099865Y-89319329D01*
X113107548Y-89321000D01*
X113837885Y-89321000D01*
X113853124Y-89316525D01*
X113854329Y-89315135D01*
X113856000Y-89307452D01*
X113856000Y-89302885D01*
X114364000Y-89302885D01*
X114368475Y-89318124D01*
X114369865Y-89319329D01*
X114377548Y-89321000D01*
X115107885Y-89321000D01*
X115123124Y-89316525D01*
X115124329Y-89315135D01*
X115126000Y-89307452D01*
X115126000Y-89302885D01*
X115634000Y-89302885D01*
X115638475Y-89318124D01*
X115639865Y-89319329D01*
X115647548Y-89321000D01*
X116377885Y-89321000D01*
X116393124Y-89316525D01*
X116394329Y-89315135D01*
X116396000Y-89307452D01*
X116396000Y-89302885D01*
X116904000Y-89302885D01*
X116908475Y-89318124D01*
X116909865Y-89319329D01*
X116917548Y-89321000D01*
X117647885Y-89321000D01*
X117663124Y-89316525D01*
X117664329Y-89315135D01*
X117666000Y-89307452D01*
X117666000Y-89302885D01*
X118174000Y-89302885D01*
X118178475Y-89318124D01*
X118179865Y-89319329D01*
X118187548Y-89321000D01*
X118917885Y-89321000D01*
X118933124Y-89316525D01*
X118934329Y-89315135D01*
X118936000Y-89307452D01*
X118936000Y-89302885D01*
X119444000Y-89302885D01*
X119448475Y-89318124D01*
X119449865Y-89319329D01*
X119457548Y-89321000D01*
X120187885Y-89321000D01*
X120203124Y-89316525D01*
X120204329Y-89315135D01*
X120206000Y-89307452D01*
X120206000Y-88617076D01*
X120202027Y-88603545D01*
X120194232Y-88602425D01*
X120086479Y-88634138D01*
X120075111Y-88638731D01*
X119910846Y-88724607D01*
X119895426Y-88734697D01*
X119894095Y-88732663D01*
X119838357Y-88755653D01*
X119768508Y-88742943D01*
X119754617Y-88734814D01*
X119750971Y-88732355D01*
X119587924Y-88644196D01*
X119576619Y-88639444D01*
X119461308Y-88603750D01*
X119447205Y-88603544D01*
X119444000Y-88610299D01*
X119444000Y-89302885D01*
X118936000Y-89302885D01*
X118936000Y-88617076D01*
X118932027Y-88603545D01*
X118924232Y-88602425D01*
X118816479Y-88634138D01*
X118805111Y-88638731D01*
X118640846Y-88724607D01*
X118625426Y-88734697D01*
X118624095Y-88732663D01*
X118568357Y-88755653D01*
X118498508Y-88742943D01*
X118484617Y-88734814D01*
X118480971Y-88732355D01*
X118317924Y-88644196D01*
X118306619Y-88639444D01*
X118191308Y-88603750D01*
X118177205Y-88603544D01*
X118174000Y-88610299D01*
X118174000Y-89302885D01*
X117666000Y-89302885D01*
X117666000Y-88617076D01*
X117662027Y-88603545D01*
X117654232Y-88602425D01*
X117546479Y-88634138D01*
X117535111Y-88638731D01*
X117370846Y-88724607D01*
X117355426Y-88734697D01*
X117354095Y-88732663D01*
X117298357Y-88755653D01*
X117228508Y-88742943D01*
X117214617Y-88734814D01*
X117210971Y-88732355D01*
X117047924Y-88644196D01*
X117036619Y-88639444D01*
X116921308Y-88603750D01*
X116907205Y-88603544D01*
X116904000Y-88610299D01*
X116904000Y-89302885D01*
X116396000Y-89302885D01*
X116396000Y-88617076D01*
X116392027Y-88603545D01*
X116384232Y-88602425D01*
X116276479Y-88634138D01*
X116265111Y-88638731D01*
X116100846Y-88724607D01*
X116085426Y-88734697D01*
X116084095Y-88732663D01*
X116028357Y-88755653D01*
X115958508Y-88742943D01*
X115944617Y-88734814D01*
X115940971Y-88732355D01*
X115777924Y-88644196D01*
X115766619Y-88639444D01*
X115651308Y-88603750D01*
X115637205Y-88603544D01*
X115634000Y-88610299D01*
X115634000Y-89302885D01*
X115126000Y-89302885D01*
X115126000Y-88617076D01*
X115122027Y-88603545D01*
X115114232Y-88602425D01*
X115006479Y-88634138D01*
X114995111Y-88638731D01*
X114830846Y-88724607D01*
X114815426Y-88734697D01*
X114814095Y-88732663D01*
X114758357Y-88755653D01*
X114688508Y-88742943D01*
X114674617Y-88734814D01*
X114670971Y-88732355D01*
X114507924Y-88644196D01*
X114496619Y-88639444D01*
X114381308Y-88603750D01*
X114367205Y-88603544D01*
X114364000Y-88610299D01*
X114364000Y-89302885D01*
X113856000Y-89302885D01*
X113856000Y-88617076D01*
X113852027Y-88603545D01*
X113844232Y-88602425D01*
X113736479Y-88634138D01*
X113725111Y-88638731D01*
X113560846Y-88724607D01*
X113545426Y-88734697D01*
X113544095Y-88732663D01*
X113488357Y-88755653D01*
X113418508Y-88742943D01*
X113404617Y-88734814D01*
X113400971Y-88732355D01*
X113237924Y-88644196D01*
X113226619Y-88639444D01*
X113111308Y-88603750D01*
X113097205Y-88603544D01*
X113094000Y-88610299D01*
X113094000Y-89302885D01*
X112586000Y-89302885D01*
X112586000Y-88617076D01*
X112582027Y-88603545D01*
X112574232Y-88602425D01*
X112466479Y-88634138D01*
X112455111Y-88638731D01*
X112290846Y-88724607D01*
X112280585Y-88731321D01*
X112136127Y-88847468D01*
X112122963Y-88860359D01*
X112121292Y-88858652D01*
X112070995Y-88892125D01*
X112000007Y-88893262D01*
X111966051Y-88878198D01*
X111923136Y-88850963D01*
X111858345Y-88827892D01*
X111760586Y-88793081D01*
X111760581Y-88793080D01*
X111753951Y-88790719D01*
X111746965Y-88789886D01*
X111746961Y-88789885D01*
X111614662Y-88774110D01*
X111575624Y-88769455D01*
X111568621Y-88770191D01*
X111568620Y-88770191D01*
X111404025Y-88787490D01*
X111404021Y-88787491D01*
X111397017Y-88788227D01*
X111390346Y-88790498D01*
X111233677Y-88843832D01*
X111233674Y-88843833D01*
X111227007Y-88846103D01*
X111221009Y-88849793D01*
X111221007Y-88849794D01*
X111206609Y-88858652D01*
X111074045Y-88940206D01*
X111069014Y-88945132D01*
X111069011Y-88945135D01*
X111006883Y-89005976D01*
X110945732Y-89065859D01*
X110941913Y-89071784D01*
X110941912Y-89071786D01*
X110875073Y-89175500D01*
X110848446Y-89216817D01*
X110787022Y-89385578D01*
X110764514Y-89563753D01*
X110765201Y-89570760D01*
X110765201Y-89570763D01*
X110781056Y-89732465D01*
X110767796Y-89802212D01*
X110744752Y-89833855D01*
X109894516Y-90684091D01*
X109894513Y-90684095D01*
X109871950Y-90706658D01*
X109867446Y-90715498D01*
X109861965Y-90726255D01*
X109851639Y-90743107D01*
X109838704Y-90760910D01*
X109831907Y-90781830D01*
X109824341Y-90800094D01*
X109818856Y-90810859D01*
X109818855Y-90810863D01*
X109814354Y-90819696D01*
X109812803Y-90829487D01*
X109812803Y-90829488D01*
X109810913Y-90841422D01*
X109806297Y-90860647D01*
X109802565Y-90872132D01*
X109802564Y-90872136D01*
X109799500Y-90881567D01*
X109799500Y-99963433D01*
X109802564Y-99972864D01*
X109802565Y-99972868D01*
X109806297Y-99984353D01*
X109810913Y-100003578D01*
X109814354Y-100025304D01*
X109818855Y-100034137D01*
X109818856Y-100034141D01*
X109824341Y-100044906D01*
X109831905Y-100063166D01*
X109838704Y-100084090D01*
X109851639Y-100101893D01*
X109861965Y-100118745D01*
X109871950Y-100138342D01*
X109894513Y-100160905D01*
X109894516Y-100160909D01*
X113287621Y-103554013D01*
X113321647Y-103616325D01*
X113316582Y-103687140D01*
X113295891Y-103723084D01*
X113222666Y-103812230D01*
X113097160Y-104027872D01*
X113007745Y-104260805D01*
X113006712Y-104265751D01*
X113006710Y-104265757D01*
X112999661Y-104299500D01*
X112956722Y-104505039D01*
X112945404Y-104754288D01*
X112974081Y-105002140D01*
X112975460Y-105007011D01*
X112975460Y-105007014D01*
X112991687Y-105064359D01*
X113042017Y-105242219D01*
X113147462Y-105468348D01*
X113287706Y-105674710D01*
X113459138Y-105855994D01*
X113657349Y-106007538D01*
X113877239Y-106125443D01*
X114113152Y-106206674D01*
X114241099Y-106228774D01*
X114355107Y-106248467D01*
X114355113Y-106248468D01*
X114359017Y-106249142D01*
X114362978Y-106249322D01*
X114362979Y-106249322D01*
X114387503Y-106250436D01*
X114387522Y-106250436D01*
X114388922Y-106250500D01*
X115562691Y-106250500D01*
X115565199Y-106250298D01*
X115565204Y-106250298D01*
X115743661Y-106235940D01*
X115743666Y-106235939D01*
X115748702Y-106235534D01*
X115753610Y-106234329D01*
X115753613Y-106234328D01*
X115986092Y-106177225D01*
X115991006Y-106176018D01*
X115995658Y-106174043D01*
X115995662Y-106174042D01*
X116216022Y-106080505D01*
X116216023Y-106080505D01*
X116220677Y-106078529D01*
X116431808Y-105945573D01*
X116529923Y-105859073D01*
X116615168Y-105783920D01*
X116615171Y-105783917D01*
X116618965Y-105780572D01*
X116777334Y-105587770D01*
X116902840Y-105372128D01*
X116976075Y-105181345D01*
X117019161Y-105124917D01*
X117085914Y-105100741D01*
X117093706Y-105100500D01*
X119463433Y-105100500D01*
X119472864Y-105097436D01*
X119472868Y-105097435D01*
X119484353Y-105093703D01*
X119503578Y-105089087D01*
X119515512Y-105087197D01*
X119515513Y-105087197D01*
X119525304Y-105085646D01*
X119534137Y-105081145D01*
X119534141Y-105081144D01*
X119544906Y-105075659D01*
X119563166Y-105068095D01*
X119584090Y-105061296D01*
X119601893Y-105048361D01*
X119618745Y-105038035D01*
X119629502Y-105032554D01*
X119638342Y-105028050D01*
X119660905Y-105005487D01*
X119660909Y-105005484D01*
X119912105Y-104754288D01*
X126945404Y-104754288D01*
X126974081Y-105002140D01*
X126975460Y-105007011D01*
X126975460Y-105007014D01*
X126991687Y-105064359D01*
X127042017Y-105242219D01*
X127147462Y-105468348D01*
X127287706Y-105674710D01*
X127459138Y-105855994D01*
X127657349Y-106007538D01*
X127877239Y-106125443D01*
X128113152Y-106206674D01*
X128241099Y-106228774D01*
X128355107Y-106248467D01*
X128355113Y-106248468D01*
X128359017Y-106249142D01*
X128362978Y-106249322D01*
X128362979Y-106249322D01*
X128387503Y-106250436D01*
X128387522Y-106250436D01*
X128388922Y-106250500D01*
X129562691Y-106250500D01*
X129565199Y-106250298D01*
X129565204Y-106250298D01*
X129743661Y-106235940D01*
X129743666Y-106235939D01*
X129748702Y-106235534D01*
X129753610Y-106234329D01*
X129753613Y-106234328D01*
X129986092Y-106177225D01*
X129991006Y-106176018D01*
X129995658Y-106174043D01*
X129995662Y-106174042D01*
X130216022Y-106080505D01*
X130216023Y-106080505D01*
X130220677Y-106078529D01*
X130431808Y-105945573D01*
X130529923Y-105859073D01*
X130615168Y-105783920D01*
X130615171Y-105783917D01*
X130618965Y-105780572D01*
X130777334Y-105587770D01*
X130902840Y-105372128D01*
X130992255Y-105139195D01*
X131000289Y-105100741D01*
X131042243Y-104899915D01*
X131043278Y-104894961D01*
X131049666Y-104754288D01*
X140945404Y-104754288D01*
X140974081Y-105002140D01*
X140975460Y-105007011D01*
X140975460Y-105007014D01*
X140991687Y-105064359D01*
X141042017Y-105242219D01*
X141147462Y-105468348D01*
X141287706Y-105674710D01*
X141459138Y-105855994D01*
X141657349Y-106007538D01*
X141877239Y-106125443D01*
X142113152Y-106206674D01*
X142241099Y-106228774D01*
X142355107Y-106248467D01*
X142355113Y-106248468D01*
X142359017Y-106249142D01*
X142362978Y-106249322D01*
X142362979Y-106249322D01*
X142387503Y-106250436D01*
X142387522Y-106250436D01*
X142388922Y-106250500D01*
X143562691Y-106250500D01*
X143565199Y-106250298D01*
X143565204Y-106250298D01*
X143743661Y-106235940D01*
X143743666Y-106235939D01*
X143748702Y-106235534D01*
X143753610Y-106234329D01*
X143753613Y-106234328D01*
X143986092Y-106177225D01*
X143991006Y-106176018D01*
X143995658Y-106174043D01*
X143995662Y-106174042D01*
X144216022Y-106080505D01*
X144216023Y-106080505D01*
X144220677Y-106078529D01*
X144431808Y-105945573D01*
X144529923Y-105859073D01*
X144615168Y-105783920D01*
X144615171Y-105783917D01*
X144618965Y-105780572D01*
X144777334Y-105587770D01*
X144902840Y-105372128D01*
X144992255Y-105139195D01*
X145000289Y-105100741D01*
X145042243Y-104899915D01*
X145043278Y-104894961D01*
X145049666Y-104754288D01*
X154945404Y-104754288D01*
X154974081Y-105002140D01*
X154975460Y-105007011D01*
X154975460Y-105007014D01*
X154991687Y-105064359D01*
X155042017Y-105242219D01*
X155147462Y-105468348D01*
X155287706Y-105674710D01*
X155459138Y-105855994D01*
X155657349Y-106007538D01*
X155877239Y-106125443D01*
X156113152Y-106206674D01*
X156241099Y-106228774D01*
X156355107Y-106248467D01*
X156355113Y-106248468D01*
X156359017Y-106249142D01*
X156362978Y-106249322D01*
X156362979Y-106249322D01*
X156387503Y-106250436D01*
X156387522Y-106250436D01*
X156388922Y-106250500D01*
X157562691Y-106250500D01*
X157565199Y-106250298D01*
X157565204Y-106250298D01*
X157743661Y-106235940D01*
X157743666Y-106235939D01*
X157748702Y-106235534D01*
X157753610Y-106234329D01*
X157753613Y-106234328D01*
X157986092Y-106177225D01*
X157991006Y-106176018D01*
X157995658Y-106174043D01*
X157995662Y-106174042D01*
X158216022Y-106080505D01*
X158216023Y-106080505D01*
X158220677Y-106078529D01*
X158431808Y-105945573D01*
X158529923Y-105859073D01*
X158615168Y-105783920D01*
X158615171Y-105783917D01*
X158618965Y-105780572D01*
X158777334Y-105587770D01*
X158902840Y-105372128D01*
X158992255Y-105139195D01*
X159000289Y-105100741D01*
X159042243Y-104899915D01*
X159043278Y-104894961D01*
X159049666Y-104754288D01*
X168945404Y-104754288D01*
X168974081Y-105002140D01*
X168975460Y-105007011D01*
X168975460Y-105007014D01*
X168991687Y-105064359D01*
X169042017Y-105242219D01*
X169147462Y-105468348D01*
X169287706Y-105674710D01*
X169459138Y-105855994D01*
X169657349Y-106007538D01*
X169877239Y-106125443D01*
X170113152Y-106206674D01*
X170241099Y-106228774D01*
X170355107Y-106248467D01*
X170355113Y-106248468D01*
X170359017Y-106249142D01*
X170362978Y-106249322D01*
X170362979Y-106249322D01*
X170387503Y-106250436D01*
X170387522Y-106250436D01*
X170388922Y-106250500D01*
X171562691Y-106250500D01*
X171565199Y-106250298D01*
X171565204Y-106250298D01*
X171743661Y-106235940D01*
X171743666Y-106235939D01*
X171748702Y-106235534D01*
X171753610Y-106234329D01*
X171753613Y-106234328D01*
X171986092Y-106177225D01*
X171991006Y-106176018D01*
X171995658Y-106174043D01*
X171995662Y-106174042D01*
X172216022Y-106080505D01*
X172216023Y-106080505D01*
X172220677Y-106078529D01*
X172431808Y-105945573D01*
X172529923Y-105859073D01*
X172615168Y-105783920D01*
X172615171Y-105783917D01*
X172618965Y-105780572D01*
X172777334Y-105587770D01*
X172902840Y-105372128D01*
X172992255Y-105139195D01*
X173000289Y-105100741D01*
X173042243Y-104899915D01*
X173043278Y-104894961D01*
X173049666Y-104754288D01*
X182945404Y-104754288D01*
X182974081Y-105002140D01*
X182975460Y-105007011D01*
X182975460Y-105007014D01*
X182991687Y-105064359D01*
X183042017Y-105242219D01*
X183147462Y-105468348D01*
X183287706Y-105674710D01*
X183459138Y-105855994D01*
X183657349Y-106007538D01*
X183877239Y-106125443D01*
X184113152Y-106206674D01*
X184241099Y-106228774D01*
X184355107Y-106248467D01*
X184355113Y-106248468D01*
X184359017Y-106249142D01*
X184362978Y-106249322D01*
X184362979Y-106249322D01*
X184387503Y-106250436D01*
X184387522Y-106250436D01*
X184388922Y-106250500D01*
X185562691Y-106250500D01*
X185565199Y-106250298D01*
X185565204Y-106250298D01*
X185743661Y-106235940D01*
X185743666Y-106235939D01*
X185748702Y-106235534D01*
X185753610Y-106234329D01*
X185753613Y-106234328D01*
X185986092Y-106177225D01*
X185991006Y-106176018D01*
X185995658Y-106174043D01*
X185995662Y-106174042D01*
X186216022Y-106080505D01*
X186216023Y-106080505D01*
X186220677Y-106078529D01*
X186431808Y-105945573D01*
X186529923Y-105859073D01*
X186615168Y-105783920D01*
X186615171Y-105783917D01*
X186618965Y-105780572D01*
X186777334Y-105587770D01*
X186902840Y-105372128D01*
X186992255Y-105139195D01*
X187000289Y-105100741D01*
X187042243Y-104899915D01*
X187043278Y-104894961D01*
X187054596Y-104645712D01*
X187025919Y-104397860D01*
X186957983Y-104157781D01*
X186852538Y-103931652D01*
X186712294Y-103725290D01*
X186540862Y-103544006D01*
X186342651Y-103392462D01*
X186122761Y-103274557D01*
X185886848Y-103193326D01*
X185758901Y-103171226D01*
X185644893Y-103151533D01*
X185644887Y-103151532D01*
X185640983Y-103150858D01*
X185637022Y-103150678D01*
X185637021Y-103150678D01*
X185612497Y-103149564D01*
X185612478Y-103149564D01*
X185611078Y-103149500D01*
X184437309Y-103149500D01*
X184434801Y-103149702D01*
X184434796Y-103149702D01*
X184256339Y-103164060D01*
X184256334Y-103164061D01*
X184251298Y-103164466D01*
X184246390Y-103165671D01*
X184246387Y-103165672D01*
X184074325Y-103207935D01*
X184008994Y-103223982D01*
X184004342Y-103225957D01*
X184004338Y-103225958D01*
X183783978Y-103319495D01*
X183779323Y-103321471D01*
X183568192Y-103454427D01*
X183564398Y-103457772D01*
X183384832Y-103616080D01*
X183384829Y-103616083D01*
X183381035Y-103619428D01*
X183222666Y-103812230D01*
X183097160Y-104027872D01*
X183007745Y-104260805D01*
X183006712Y-104265751D01*
X183006710Y-104265757D01*
X182999661Y-104299500D01*
X182956722Y-104505039D01*
X182945404Y-104754288D01*
X173049666Y-104754288D01*
X173054596Y-104645712D01*
X173025919Y-104397860D01*
X172957983Y-104157781D01*
X172852538Y-103931652D01*
X172712294Y-103725290D01*
X172540862Y-103544006D01*
X172342651Y-103392462D01*
X172122761Y-103274557D01*
X171886848Y-103193326D01*
X171758901Y-103171226D01*
X171644893Y-103151533D01*
X171644887Y-103151532D01*
X171640983Y-103150858D01*
X171637022Y-103150678D01*
X171637021Y-103150678D01*
X171612497Y-103149564D01*
X171612478Y-103149564D01*
X171611078Y-103149500D01*
X170437309Y-103149500D01*
X170434801Y-103149702D01*
X170434796Y-103149702D01*
X170256339Y-103164060D01*
X170256334Y-103164061D01*
X170251298Y-103164466D01*
X170246390Y-103165671D01*
X170246387Y-103165672D01*
X170074325Y-103207935D01*
X170008994Y-103223982D01*
X170004342Y-103225957D01*
X170004338Y-103225958D01*
X169783978Y-103319495D01*
X169779323Y-103321471D01*
X169568192Y-103454427D01*
X169564398Y-103457772D01*
X169384832Y-103616080D01*
X169384829Y-103616083D01*
X169381035Y-103619428D01*
X169222666Y-103812230D01*
X169097160Y-104027872D01*
X169007745Y-104260805D01*
X169006712Y-104265751D01*
X169006710Y-104265757D01*
X168999661Y-104299500D01*
X168956722Y-104505039D01*
X168945404Y-104754288D01*
X159049666Y-104754288D01*
X159054596Y-104645712D01*
X159025919Y-104397860D01*
X158957983Y-104157781D01*
X158852538Y-103931652D01*
X158712294Y-103725290D01*
X158540862Y-103544006D01*
X158342651Y-103392462D01*
X158122761Y-103274557D01*
X157886848Y-103193326D01*
X157758901Y-103171226D01*
X157644893Y-103151533D01*
X157644887Y-103151532D01*
X157640983Y-103150858D01*
X157637022Y-103150678D01*
X157637021Y-103150678D01*
X157612497Y-103149564D01*
X157612478Y-103149564D01*
X157611078Y-103149500D01*
X156437309Y-103149500D01*
X156434801Y-103149702D01*
X156434796Y-103149702D01*
X156256339Y-103164060D01*
X156256334Y-103164061D01*
X156251298Y-103164466D01*
X156246390Y-103165671D01*
X156246387Y-103165672D01*
X156074325Y-103207935D01*
X156008994Y-103223982D01*
X156004342Y-103225957D01*
X156004338Y-103225958D01*
X155783978Y-103319495D01*
X155779323Y-103321471D01*
X155568192Y-103454427D01*
X155564398Y-103457772D01*
X155384832Y-103616080D01*
X155384829Y-103616083D01*
X155381035Y-103619428D01*
X155222666Y-103812230D01*
X155097160Y-104027872D01*
X155007745Y-104260805D01*
X155006712Y-104265751D01*
X155006710Y-104265757D01*
X154999661Y-104299500D01*
X154956722Y-104505039D01*
X154945404Y-104754288D01*
X145049666Y-104754288D01*
X145054596Y-104645712D01*
X145025919Y-104397860D01*
X144957983Y-104157781D01*
X144852538Y-103931652D01*
X144712294Y-103725290D01*
X144540862Y-103544006D01*
X144342651Y-103392462D01*
X144122761Y-103274557D01*
X143886848Y-103193326D01*
X143758901Y-103171226D01*
X143644893Y-103151533D01*
X143644887Y-103151532D01*
X143640983Y-103150858D01*
X143637022Y-103150678D01*
X143637021Y-103150678D01*
X143612497Y-103149564D01*
X143612478Y-103149564D01*
X143611078Y-103149500D01*
X142437309Y-103149500D01*
X142434801Y-103149702D01*
X142434796Y-103149702D01*
X142256339Y-103164060D01*
X142256334Y-103164061D01*
X142251298Y-103164466D01*
X142246390Y-103165671D01*
X142246387Y-103165672D01*
X142074325Y-103207935D01*
X142008994Y-103223982D01*
X142004342Y-103225957D01*
X142004338Y-103225958D01*
X141783978Y-103319495D01*
X141779323Y-103321471D01*
X141568192Y-103454427D01*
X141564398Y-103457772D01*
X141384832Y-103616080D01*
X141384829Y-103616083D01*
X141381035Y-103619428D01*
X141222666Y-103812230D01*
X141097160Y-104027872D01*
X141007745Y-104260805D01*
X141006712Y-104265751D01*
X141006710Y-104265757D01*
X140999661Y-104299500D01*
X140956722Y-104505039D01*
X140945404Y-104754288D01*
X131049666Y-104754288D01*
X131054596Y-104645712D01*
X131025919Y-104397860D01*
X130957983Y-104157781D01*
X130852538Y-103931652D01*
X130712294Y-103725290D01*
X130540862Y-103544006D01*
X130342651Y-103392462D01*
X130122761Y-103274557D01*
X129886848Y-103193326D01*
X129758901Y-103171226D01*
X129644893Y-103151533D01*
X129644887Y-103151532D01*
X129640983Y-103150858D01*
X129637022Y-103150678D01*
X129637021Y-103150678D01*
X129612497Y-103149564D01*
X129612478Y-103149564D01*
X129611078Y-103149500D01*
X128437309Y-103149500D01*
X128434801Y-103149702D01*
X128434796Y-103149702D01*
X128256339Y-103164060D01*
X128256334Y-103164061D01*
X128251298Y-103164466D01*
X128246390Y-103165671D01*
X128246387Y-103165672D01*
X128074325Y-103207935D01*
X128008994Y-103223982D01*
X128004342Y-103225957D01*
X128004338Y-103225958D01*
X127783978Y-103319495D01*
X127779323Y-103321471D01*
X127568192Y-103454427D01*
X127564398Y-103457772D01*
X127384832Y-103616080D01*
X127384829Y-103616083D01*
X127381035Y-103619428D01*
X127222666Y-103812230D01*
X127097160Y-104027872D01*
X127007745Y-104260805D01*
X127006712Y-104265751D01*
X127006710Y-104265757D01*
X126999661Y-104299500D01*
X126956722Y-104505039D01*
X126945404Y-104754288D01*
X119912105Y-104754288D01*
X124228988Y-100437405D01*
X124291300Y-100403379D01*
X124318083Y-100400500D01*
X126906622Y-100400500D01*
X126974743Y-100420502D01*
X127021236Y-100474158D01*
X127027857Y-100492180D01*
X127042017Y-100542219D01*
X127147462Y-100768348D01*
X127287706Y-100974710D01*
X127459138Y-101155994D01*
X127657349Y-101307538D01*
X127877239Y-101425443D01*
X128113152Y-101506674D01*
X128241099Y-101528774D01*
X128355107Y-101548467D01*
X128355113Y-101548468D01*
X128359017Y-101549142D01*
X128362978Y-101549322D01*
X128362979Y-101549322D01*
X128387503Y-101550436D01*
X128387522Y-101550436D01*
X128388922Y-101550500D01*
X129562691Y-101550500D01*
X129565199Y-101550298D01*
X129565204Y-101550298D01*
X129743661Y-101535940D01*
X129743666Y-101535939D01*
X129748702Y-101535534D01*
X129753610Y-101534329D01*
X129753613Y-101534328D01*
X129986092Y-101477225D01*
X129991006Y-101476018D01*
X129995658Y-101474043D01*
X129995662Y-101474042D01*
X130216022Y-101380505D01*
X130216023Y-101380505D01*
X130220677Y-101378529D01*
X130431808Y-101245573D01*
X130529923Y-101159073D01*
X130615168Y-101083920D01*
X130615171Y-101083917D01*
X130618965Y-101080572D01*
X130777334Y-100887770D01*
X130902840Y-100672128D01*
X130976075Y-100481345D01*
X131019161Y-100424917D01*
X131085914Y-100400741D01*
X131093706Y-100400500D01*
X140906622Y-100400500D01*
X140974743Y-100420502D01*
X141021236Y-100474158D01*
X141027857Y-100492180D01*
X141042017Y-100542219D01*
X141147462Y-100768348D01*
X141287706Y-100974710D01*
X141459138Y-101155994D01*
X141657349Y-101307538D01*
X141877239Y-101425443D01*
X142113152Y-101506674D01*
X142241099Y-101528774D01*
X142355107Y-101548467D01*
X142355113Y-101548468D01*
X142359017Y-101549142D01*
X142362978Y-101549322D01*
X142362979Y-101549322D01*
X142387503Y-101550436D01*
X142387522Y-101550436D01*
X142388922Y-101550500D01*
X143562691Y-101550500D01*
X143565199Y-101550298D01*
X143565204Y-101550298D01*
X143743661Y-101535940D01*
X143743666Y-101535939D01*
X143748702Y-101535534D01*
X143753610Y-101534329D01*
X143753613Y-101534328D01*
X143986092Y-101477225D01*
X143991006Y-101476018D01*
X143995658Y-101474043D01*
X143995662Y-101474042D01*
X144216022Y-101380505D01*
X144216023Y-101380505D01*
X144220677Y-101378529D01*
X144431808Y-101245573D01*
X144529923Y-101159073D01*
X144615168Y-101083920D01*
X144615171Y-101083917D01*
X144618965Y-101080572D01*
X144777334Y-100887770D01*
X144902840Y-100672128D01*
X144976075Y-100481345D01*
X145019161Y-100424917D01*
X145085914Y-100400741D01*
X145093706Y-100400500D01*
X154906622Y-100400500D01*
X154974743Y-100420502D01*
X155021236Y-100474158D01*
X155027857Y-100492180D01*
X155042017Y-100542219D01*
X155147462Y-100768348D01*
X155287706Y-100974710D01*
X155459138Y-101155994D01*
X155657349Y-101307538D01*
X155877239Y-101425443D01*
X156113152Y-101506674D01*
X156241099Y-101528774D01*
X156355107Y-101548467D01*
X156355113Y-101548468D01*
X156359017Y-101549142D01*
X156362978Y-101549322D01*
X156362979Y-101549322D01*
X156387503Y-101550436D01*
X156387522Y-101550436D01*
X156388922Y-101550500D01*
X157562691Y-101550500D01*
X157565199Y-101550298D01*
X157565204Y-101550298D01*
X157743661Y-101535940D01*
X157743666Y-101535939D01*
X157748702Y-101535534D01*
X157753610Y-101534329D01*
X157753613Y-101534328D01*
X157986092Y-101477225D01*
X157991006Y-101476018D01*
X157995658Y-101474043D01*
X157995662Y-101474042D01*
X158216022Y-101380505D01*
X158216023Y-101380505D01*
X158220677Y-101378529D01*
X158431808Y-101245573D01*
X158529923Y-101159073D01*
X158615168Y-101083920D01*
X158615171Y-101083917D01*
X158618965Y-101080572D01*
X158777334Y-100887770D01*
X158902840Y-100672128D01*
X158976075Y-100481345D01*
X159019161Y-100424917D01*
X159085914Y-100400741D01*
X159093706Y-100400500D01*
X168906622Y-100400500D01*
X168974743Y-100420502D01*
X169021236Y-100474158D01*
X169027857Y-100492180D01*
X169042017Y-100542219D01*
X169147462Y-100768348D01*
X169287706Y-100974710D01*
X169459138Y-101155994D01*
X169657349Y-101307538D01*
X169877239Y-101425443D01*
X170113152Y-101506674D01*
X170241099Y-101528774D01*
X170355107Y-101548467D01*
X170355113Y-101548468D01*
X170359017Y-101549142D01*
X170362978Y-101549322D01*
X170362979Y-101549322D01*
X170387503Y-101550436D01*
X170387522Y-101550436D01*
X170388922Y-101550500D01*
X171562691Y-101550500D01*
X171565199Y-101550298D01*
X171565204Y-101550298D01*
X171743661Y-101535940D01*
X171743666Y-101535939D01*
X171748702Y-101535534D01*
X171753610Y-101534329D01*
X171753613Y-101534328D01*
X171986092Y-101477225D01*
X171991006Y-101476018D01*
X171995658Y-101474043D01*
X171995662Y-101474042D01*
X172216022Y-101380505D01*
X172216023Y-101380505D01*
X172220677Y-101378529D01*
X172431808Y-101245573D01*
X172529923Y-101159073D01*
X172615168Y-101083920D01*
X172615171Y-101083917D01*
X172618965Y-101080572D01*
X172777334Y-100887770D01*
X172902840Y-100672128D01*
X172976075Y-100481345D01*
X173019161Y-100424917D01*
X173085914Y-100400741D01*
X173093706Y-100400500D01*
X182906622Y-100400500D01*
X182974743Y-100420502D01*
X183021236Y-100474158D01*
X183027857Y-100492180D01*
X183042017Y-100542219D01*
X183147462Y-100768348D01*
X183287706Y-100974710D01*
X183459138Y-101155994D01*
X183657349Y-101307538D01*
X183877239Y-101425443D01*
X184113152Y-101506674D01*
X184241099Y-101528774D01*
X184355107Y-101548467D01*
X184355113Y-101548468D01*
X184359017Y-101549142D01*
X184362978Y-101549322D01*
X184362979Y-101549322D01*
X184387503Y-101550436D01*
X184387522Y-101550436D01*
X184388922Y-101550500D01*
X185562691Y-101550500D01*
X185565199Y-101550298D01*
X185565204Y-101550298D01*
X185743661Y-101535940D01*
X185743666Y-101535939D01*
X185748702Y-101535534D01*
X185753610Y-101534329D01*
X185753613Y-101534328D01*
X185986092Y-101477225D01*
X185991006Y-101476018D01*
X185995658Y-101474043D01*
X185995662Y-101474042D01*
X186216022Y-101380505D01*
X186216023Y-101380505D01*
X186220677Y-101378529D01*
X186431808Y-101245573D01*
X186529923Y-101159073D01*
X186615168Y-101083920D01*
X186615171Y-101083917D01*
X186618965Y-101080572D01*
X186777334Y-100887770D01*
X186902840Y-100672128D01*
X186992255Y-100439195D01*
X186996161Y-100420502D01*
X187042243Y-100199915D01*
X187043278Y-100194961D01*
X187044825Y-100160909D01*
X187050092Y-100044906D01*
X187054596Y-99945712D01*
X187025919Y-99697860D01*
X187017313Y-99667445D01*
X186959360Y-99462648D01*
X186957983Y-99457781D01*
X186852538Y-99231652D01*
X186712294Y-99025290D01*
X186540862Y-98844006D01*
X186342651Y-98692462D01*
X186122761Y-98574557D01*
X185886848Y-98493326D01*
X185758901Y-98471226D01*
X185644893Y-98451533D01*
X185644887Y-98451532D01*
X185640983Y-98450858D01*
X185637022Y-98450678D01*
X185637021Y-98450678D01*
X185612497Y-98449564D01*
X185612478Y-98449564D01*
X185611078Y-98449500D01*
X184437309Y-98449500D01*
X184434801Y-98449702D01*
X184434796Y-98449702D01*
X184256339Y-98464060D01*
X184256334Y-98464061D01*
X184251298Y-98464466D01*
X184246390Y-98465671D01*
X184246387Y-98465672D01*
X184016392Y-98522165D01*
X184008994Y-98523982D01*
X184004342Y-98525957D01*
X184004338Y-98525958D01*
X183783978Y-98619495D01*
X183779323Y-98621471D01*
X183568192Y-98754427D01*
X183564398Y-98757772D01*
X183384832Y-98916080D01*
X183384829Y-98916083D01*
X183381035Y-98919428D01*
X183222666Y-99112230D01*
X183097160Y-99327872D01*
X183095347Y-99332595D01*
X183095346Y-99332597D01*
X183023925Y-99518655D01*
X182980839Y-99575083D01*
X182914086Y-99599259D01*
X182906294Y-99599500D01*
X173093378Y-99599500D01*
X173025257Y-99579498D01*
X172978764Y-99525842D01*
X172972143Y-99507820D01*
X172957983Y-99457781D01*
X172852538Y-99231652D01*
X172712294Y-99025290D01*
X172540862Y-98844006D01*
X172342651Y-98692462D01*
X172122761Y-98574557D01*
X171886848Y-98493326D01*
X171758901Y-98471226D01*
X171644893Y-98451533D01*
X171644887Y-98451532D01*
X171640983Y-98450858D01*
X171637022Y-98450678D01*
X171637021Y-98450678D01*
X171612497Y-98449564D01*
X171612478Y-98449564D01*
X171611078Y-98449500D01*
X170437309Y-98449500D01*
X170434801Y-98449702D01*
X170434796Y-98449702D01*
X170256339Y-98464060D01*
X170256334Y-98464061D01*
X170251298Y-98464466D01*
X170246390Y-98465671D01*
X170246387Y-98465672D01*
X170016392Y-98522165D01*
X170008994Y-98523982D01*
X170004342Y-98525957D01*
X170004338Y-98525958D01*
X169783978Y-98619495D01*
X169779323Y-98621471D01*
X169568192Y-98754427D01*
X169564398Y-98757772D01*
X169384832Y-98916080D01*
X169384829Y-98916083D01*
X169381035Y-98919428D01*
X169222666Y-99112230D01*
X169097160Y-99327872D01*
X169095347Y-99332595D01*
X169095346Y-99332597D01*
X169023925Y-99518655D01*
X168980839Y-99575083D01*
X168914086Y-99599259D01*
X168906294Y-99599500D01*
X159093378Y-99599500D01*
X159025257Y-99579498D01*
X158978764Y-99525842D01*
X158972143Y-99507820D01*
X158957983Y-99457781D01*
X158852538Y-99231652D01*
X158712294Y-99025290D01*
X158540862Y-98844006D01*
X158342651Y-98692462D01*
X158122761Y-98574557D01*
X157886848Y-98493326D01*
X157758901Y-98471226D01*
X157644893Y-98451533D01*
X157644887Y-98451532D01*
X157640983Y-98450858D01*
X157637022Y-98450678D01*
X157637021Y-98450678D01*
X157612497Y-98449564D01*
X157612478Y-98449564D01*
X157611078Y-98449500D01*
X156437309Y-98449500D01*
X156434801Y-98449702D01*
X156434796Y-98449702D01*
X156256339Y-98464060D01*
X156256334Y-98464061D01*
X156251298Y-98464466D01*
X156246390Y-98465671D01*
X156246387Y-98465672D01*
X156016392Y-98522165D01*
X156008994Y-98523982D01*
X156004342Y-98525957D01*
X156004338Y-98525958D01*
X155783978Y-98619495D01*
X155779323Y-98621471D01*
X155568192Y-98754427D01*
X155564398Y-98757772D01*
X155384832Y-98916080D01*
X155384829Y-98916083D01*
X155381035Y-98919428D01*
X155222666Y-99112230D01*
X155097160Y-99327872D01*
X155095347Y-99332595D01*
X155095346Y-99332597D01*
X155023925Y-99518655D01*
X154980839Y-99575083D01*
X154914086Y-99599259D01*
X154906294Y-99599500D01*
X145093378Y-99599500D01*
X145025257Y-99579498D01*
X144978764Y-99525842D01*
X144972143Y-99507820D01*
X144957983Y-99457781D01*
X144852538Y-99231652D01*
X144712294Y-99025290D01*
X144540862Y-98844006D01*
X144342651Y-98692462D01*
X144122761Y-98574557D01*
X143886848Y-98493326D01*
X143758901Y-98471226D01*
X143644893Y-98451533D01*
X143644887Y-98451532D01*
X143640983Y-98450858D01*
X143637022Y-98450678D01*
X143637021Y-98450678D01*
X143612497Y-98449564D01*
X143612478Y-98449564D01*
X143611078Y-98449500D01*
X142437309Y-98449500D01*
X142434801Y-98449702D01*
X142434796Y-98449702D01*
X142256339Y-98464060D01*
X142256334Y-98464061D01*
X142251298Y-98464466D01*
X142246390Y-98465671D01*
X142246387Y-98465672D01*
X142016392Y-98522165D01*
X142008994Y-98523982D01*
X142004342Y-98525957D01*
X142004338Y-98525958D01*
X141783978Y-98619495D01*
X141779323Y-98621471D01*
X141568192Y-98754427D01*
X141564398Y-98757772D01*
X141384832Y-98916080D01*
X141384829Y-98916083D01*
X141381035Y-98919428D01*
X141222666Y-99112230D01*
X141097160Y-99327872D01*
X141095347Y-99332595D01*
X141095346Y-99332597D01*
X141023925Y-99518655D01*
X140980839Y-99575083D01*
X140914086Y-99599259D01*
X140906294Y-99599500D01*
X131093378Y-99599500D01*
X131025257Y-99579498D01*
X130978764Y-99525842D01*
X130972143Y-99507820D01*
X130957983Y-99457781D01*
X130852538Y-99231652D01*
X130712294Y-99025290D01*
X130540862Y-98844006D01*
X130342651Y-98692462D01*
X130122761Y-98574557D01*
X129886848Y-98493326D01*
X129758901Y-98471226D01*
X129644893Y-98451533D01*
X129644887Y-98451532D01*
X129640983Y-98450858D01*
X129637022Y-98450678D01*
X129637021Y-98450678D01*
X129612497Y-98449564D01*
X129612478Y-98449564D01*
X129611078Y-98449500D01*
X128437309Y-98449500D01*
X128434801Y-98449702D01*
X128434796Y-98449702D01*
X128256339Y-98464060D01*
X128256334Y-98464061D01*
X128251298Y-98464466D01*
X128246390Y-98465671D01*
X128246387Y-98465672D01*
X128016392Y-98522165D01*
X128008994Y-98523982D01*
X128004342Y-98525957D01*
X128004338Y-98525958D01*
X127783978Y-98619495D01*
X127779323Y-98621471D01*
X127568192Y-98754427D01*
X127564398Y-98757772D01*
X127384832Y-98916080D01*
X127384829Y-98916083D01*
X127381035Y-98919428D01*
X127222666Y-99112230D01*
X127097160Y-99327872D01*
X127095347Y-99332595D01*
X127095346Y-99332597D01*
X127023925Y-99518655D01*
X126980839Y-99575083D01*
X126914086Y-99599259D01*
X126906294Y-99599500D01*
X124036567Y-99599500D01*
X124027136Y-99602564D01*
X124027132Y-99602565D01*
X124015647Y-99606297D01*
X123996422Y-99610913D01*
X123984488Y-99612803D01*
X123984487Y-99612803D01*
X123974696Y-99614354D01*
X123965863Y-99618855D01*
X123965859Y-99618856D01*
X123955092Y-99624342D01*
X123936832Y-99631906D01*
X123915911Y-99638704D01*
X123907888Y-99644533D01*
X123898113Y-99651635D01*
X123881258Y-99661963D01*
X123870499Y-99667445D01*
X123870497Y-99667446D01*
X123861658Y-99671950D01*
X123839095Y-99694513D01*
X123839091Y-99694516D01*
X119271012Y-104262595D01*
X119208700Y-104296621D01*
X119181917Y-104299500D01*
X117093378Y-104299500D01*
X117025257Y-104279498D01*
X116978764Y-104225842D01*
X116972143Y-104207820D01*
X116957983Y-104157781D01*
X116852538Y-103931652D01*
X116712294Y-103725290D01*
X116540862Y-103544006D01*
X116342651Y-103392462D01*
X116122761Y-103274557D01*
X115886848Y-103193326D01*
X115758901Y-103171226D01*
X115644893Y-103151533D01*
X115644887Y-103151532D01*
X115640983Y-103150858D01*
X115637022Y-103150678D01*
X115637021Y-103150678D01*
X115612497Y-103149564D01*
X115612478Y-103149564D01*
X115611078Y-103149500D01*
X114437309Y-103149500D01*
X114434801Y-103149702D01*
X114434796Y-103149702D01*
X114376484Y-103154394D01*
X114251298Y-103164466D01*
X114246382Y-103165674D01*
X114246379Y-103165674D01*
X114214628Y-103173473D01*
X114143273Y-103191000D01*
X114072350Y-103187825D01*
X114024124Y-103157732D01*
X110920681Y-100054288D01*
X112945404Y-100054288D01*
X112945985Y-100059308D01*
X112945985Y-100059312D01*
X112947761Y-100074661D01*
X112974081Y-100302140D01*
X113042017Y-100542219D01*
X113147462Y-100768348D01*
X113287706Y-100974710D01*
X113459138Y-101155994D01*
X113657349Y-101307538D01*
X113877239Y-101425443D01*
X114113152Y-101506674D01*
X114241099Y-101528774D01*
X114355107Y-101548467D01*
X114355113Y-101548468D01*
X114359017Y-101549142D01*
X114362978Y-101549322D01*
X114362979Y-101549322D01*
X114387503Y-101550436D01*
X114387522Y-101550436D01*
X114388922Y-101550500D01*
X115562691Y-101550500D01*
X115565199Y-101550298D01*
X115565204Y-101550298D01*
X115743661Y-101535940D01*
X115743666Y-101535939D01*
X115748702Y-101535534D01*
X115753610Y-101534329D01*
X115753613Y-101534328D01*
X115986092Y-101477225D01*
X115991006Y-101476018D01*
X115995658Y-101474043D01*
X115995662Y-101474042D01*
X116216022Y-101380505D01*
X116216023Y-101380505D01*
X116220677Y-101378529D01*
X116431808Y-101245573D01*
X116529923Y-101159073D01*
X116615168Y-101083920D01*
X116615171Y-101083917D01*
X116618965Y-101080572D01*
X116777334Y-100887770D01*
X116902840Y-100672128D01*
X116992255Y-100439195D01*
X116996161Y-100420502D01*
X117042243Y-100199915D01*
X117043278Y-100194961D01*
X117044825Y-100160909D01*
X117050092Y-100044906D01*
X117054596Y-99945712D01*
X117025919Y-99697860D01*
X117017313Y-99667445D01*
X116959360Y-99462648D01*
X116957983Y-99457781D01*
X116852538Y-99231652D01*
X116712294Y-99025290D01*
X116540862Y-98844006D01*
X116342651Y-98692462D01*
X116122761Y-98574557D01*
X115886848Y-98493326D01*
X115758901Y-98471226D01*
X115644893Y-98451533D01*
X115644887Y-98451532D01*
X115640983Y-98450858D01*
X115637022Y-98450678D01*
X115637021Y-98450678D01*
X115612497Y-98449564D01*
X115612478Y-98449564D01*
X115611078Y-98449500D01*
X114437309Y-98449500D01*
X114434801Y-98449702D01*
X114434796Y-98449702D01*
X114256339Y-98464060D01*
X114256334Y-98464061D01*
X114251298Y-98464466D01*
X114246390Y-98465671D01*
X114246387Y-98465672D01*
X114016392Y-98522165D01*
X114008994Y-98523982D01*
X114004342Y-98525957D01*
X114004338Y-98525958D01*
X113783978Y-98619495D01*
X113779323Y-98621471D01*
X113568192Y-98754427D01*
X113564398Y-98757772D01*
X113384832Y-98916080D01*
X113384829Y-98916083D01*
X113381035Y-98919428D01*
X113222666Y-99112230D01*
X113097160Y-99327872D01*
X113007745Y-99560805D01*
X113006712Y-99565751D01*
X113006710Y-99565757D01*
X112983060Y-99678967D01*
X112956722Y-99805039D01*
X112945404Y-100054288D01*
X110920681Y-100054288D01*
X110637405Y-99771012D01*
X110603379Y-99708700D01*
X110600500Y-99681917D01*
X110600500Y-95571710D01*
X112762689Y-95571710D01*
X112774964Y-95661904D01*
X112776902Y-95671022D01*
X112847404Y-95912902D01*
X112850667Y-95921633D01*
X112956151Y-96150442D01*
X112960670Y-96158594D01*
X113098808Y-96369291D01*
X113104491Y-96376696D01*
X113272249Y-96564654D01*
X113278965Y-96571139D01*
X113472666Y-96732239D01*
X113480258Y-96737654D01*
X113695646Y-96868354D01*
X113703963Y-96872592D01*
X113936299Y-96970019D01*
X113945149Y-96972980D01*
X114189331Y-97034994D01*
X114198528Y-97036616D01*
X114407753Y-97057684D01*
X114414045Y-97058000D01*
X114727885Y-97058000D01*
X114743124Y-97053525D01*
X114744329Y-97052135D01*
X114746000Y-97044452D01*
X114746000Y-97039885D01*
X115254000Y-97039885D01*
X115258475Y-97055124D01*
X115259865Y-97056329D01*
X115267548Y-97058000D01*
X115563998Y-97058000D01*
X115568673Y-97057827D01*
X115755926Y-97043912D01*
X115765132Y-97042536D01*
X116010874Y-96986929D01*
X116019785Y-96984205D01*
X116254608Y-96892888D01*
X116263017Y-96888877D01*
X116481760Y-96763854D01*
X116489486Y-96758643D01*
X116687350Y-96602659D01*
X116694218Y-96596366D01*
X116866848Y-96412856D01*
X116872722Y-96405602D01*
X117016327Y-96198597D01*
X117021060Y-96190562D01*
X117132495Y-95964593D01*
X117135983Y-95955960D01*
X117212793Y-95716006D01*
X117214973Y-95706924D01*
X117236967Y-95571880D01*
X117235271Y-95558286D01*
X117221161Y-95554000D01*
X115272115Y-95554000D01*
X115256876Y-95558475D01*
X115255671Y-95559865D01*
X115254000Y-95567548D01*
X115254000Y-97039885D01*
X114746000Y-97039885D01*
X114746000Y-95572115D01*
X114741525Y-95556876D01*
X114740135Y-95555671D01*
X114732452Y-95554000D01*
X112778394Y-95554000D01*
X112764710Y-95558018D01*
X112762689Y-95571710D01*
X110600500Y-95571710D01*
X110600500Y-95028120D01*
X112763033Y-95028120D01*
X112764729Y-95041714D01*
X112778839Y-95046000D01*
X114727885Y-95046000D01*
X114743124Y-95041525D01*
X114744329Y-95040135D01*
X114746000Y-95032452D01*
X114746000Y-95027885D01*
X115254000Y-95027885D01*
X115258475Y-95043124D01*
X115259865Y-95044329D01*
X115267548Y-95046000D01*
X117221606Y-95046000D01*
X117235290Y-95041982D01*
X117237311Y-95028290D01*
X117225036Y-94938096D01*
X117223098Y-94928978D01*
X117152596Y-94687098D01*
X117149333Y-94678367D01*
X117043849Y-94449558D01*
X117039330Y-94441406D01*
X116901192Y-94230709D01*
X116895509Y-94223304D01*
X116727751Y-94035346D01*
X116721035Y-94028861D01*
X116527334Y-93867761D01*
X116519742Y-93862346D01*
X116304354Y-93731646D01*
X116296037Y-93727408D01*
X116063701Y-93629981D01*
X116054851Y-93627020D01*
X115810669Y-93565006D01*
X115801472Y-93563384D01*
X115592247Y-93542316D01*
X115585955Y-93542000D01*
X115272115Y-93542000D01*
X115256876Y-93546475D01*
X115255671Y-93547865D01*
X115254000Y-93555548D01*
X115254000Y-95027885D01*
X114746000Y-95027885D01*
X114746000Y-93560115D01*
X114741525Y-93544876D01*
X114740135Y-93543671D01*
X114732452Y-93542000D01*
X114436002Y-93542000D01*
X114431327Y-93542173D01*
X114244074Y-93556088D01*
X114234868Y-93557464D01*
X113989126Y-93613071D01*
X113980215Y-93615795D01*
X113745392Y-93707112D01*
X113736983Y-93711123D01*
X113518240Y-93836146D01*
X113510514Y-93841357D01*
X113312650Y-93997341D01*
X113305782Y-94003634D01*
X113133152Y-94187144D01*
X113127278Y-94194398D01*
X112983673Y-94401403D01*
X112978940Y-94409438D01*
X112867505Y-94635407D01*
X112864017Y-94644040D01*
X112787207Y-94883994D01*
X112785027Y-94893076D01*
X112763033Y-95028120D01*
X110600500Y-95028120D01*
X110600500Y-91238537D01*
X110620502Y-91170416D01*
X110674158Y-91123923D01*
X110744432Y-91113819D01*
X110809012Y-91143313D01*
X110838681Y-91182760D01*
X110838726Y-91182896D01*
X110842377Y-91188924D01*
X110919123Y-91315647D01*
X110931759Y-91336512D01*
X111056514Y-91465699D01*
X111206789Y-91564036D01*
X111375116Y-91626636D01*
X111382097Y-91627567D01*
X111382099Y-91627568D01*
X111546149Y-91649457D01*
X111546153Y-91649457D01*
X111553130Y-91650388D01*
X111560142Y-91649750D01*
X111560146Y-91649750D01*
X111724960Y-91634751D01*
X111724961Y-91634751D01*
X111731981Y-91634112D01*
X111902782Y-91578615D01*
X111923119Y-91566492D01*
X112050992Y-91490265D01*
X112050995Y-91490263D01*
X112057044Y-91486657D01*
X112084374Y-91460631D01*
X112117354Y-91429225D01*
X112180479Y-91396733D01*
X112251150Y-91403527D01*
X112294882Y-91432944D01*
X112326514Y-91465699D01*
X112476789Y-91564036D01*
X112645116Y-91626636D01*
X112652097Y-91627567D01*
X112652099Y-91627568D01*
X112816149Y-91649457D01*
X112816153Y-91649457D01*
X112823130Y-91650388D01*
X112830142Y-91649750D01*
X112830146Y-91649750D01*
X112998874Y-91634395D01*
X113068527Y-91648141D01*
X113099388Y-91670781D01*
X114334091Y-92905484D01*
X114334095Y-92905487D01*
X114356658Y-92928050D01*
X114365497Y-92932554D01*
X114365499Y-92932555D01*
X114376258Y-92938037D01*
X114393114Y-92948365D01*
X114410911Y-92961296D01*
X114431832Y-92968094D01*
X114450092Y-92975658D01*
X114460859Y-92981144D01*
X114460863Y-92981145D01*
X114469696Y-92985646D01*
X114479487Y-92987197D01*
X114479488Y-92987197D01*
X114491422Y-92989087D01*
X114510647Y-92993703D01*
X114522132Y-92997435D01*
X114522136Y-92997436D01*
X114531567Y-93000500D01*
X118124376Y-93000500D01*
X118192497Y-93020502D01*
X118201080Y-93026538D01*
X118271875Y-93080861D01*
X118405791Y-93136330D01*
X118549500Y-93155250D01*
X118693209Y-93136330D01*
X118827125Y-93080861D01*
X118942121Y-92992621D01*
X119030361Y-92877625D01*
X119085830Y-92743709D01*
X119104750Y-92600000D01*
X119085830Y-92456291D01*
X119030361Y-92322375D01*
X118942121Y-92207379D01*
X118827125Y-92119139D01*
X118693209Y-92063670D01*
X118549500Y-92044750D01*
X118405791Y-92063670D01*
X118271875Y-92119139D01*
X118215242Y-92162595D01*
X118201080Y-92173462D01*
X118134860Y-92199063D01*
X118124376Y-92199500D01*
X114813083Y-92199500D01*
X114744962Y-92179498D01*
X114723988Y-92162595D01*
X114359650Y-91798257D01*
X114325624Y-91735945D01*
X114330689Y-91665130D01*
X114373236Y-91608294D01*
X114409805Y-91589330D01*
X114442782Y-91578615D01*
X114463119Y-91566492D01*
X114590992Y-91490265D01*
X114590995Y-91490263D01*
X114597044Y-91486657D01*
X114624374Y-91460631D01*
X114657354Y-91429225D01*
X114720479Y-91396733D01*
X114791150Y-91403527D01*
X114834882Y-91432944D01*
X114866514Y-91465699D01*
X115016789Y-91564036D01*
X115185116Y-91626636D01*
X115192097Y-91627567D01*
X115192099Y-91627568D01*
X115356149Y-91649457D01*
X115356153Y-91649457D01*
X115363130Y-91650388D01*
X115370142Y-91649750D01*
X115370146Y-91649750D01*
X115534960Y-91634751D01*
X115534961Y-91634751D01*
X115541981Y-91634112D01*
X115712782Y-91578615D01*
X115733119Y-91566492D01*
X115860992Y-91490265D01*
X115860995Y-91490263D01*
X115867044Y-91486657D01*
X115894374Y-91460631D01*
X115927354Y-91429225D01*
X115990479Y-91396733D01*
X116061150Y-91403527D01*
X116104882Y-91432944D01*
X116136514Y-91465699D01*
X116286789Y-91564036D01*
X116455116Y-91626636D01*
X116462097Y-91627567D01*
X116462099Y-91627568D01*
X116626149Y-91649457D01*
X116626153Y-91649457D01*
X116633130Y-91650388D01*
X116640142Y-91649750D01*
X116640146Y-91649750D01*
X116804960Y-91634751D01*
X116804961Y-91634751D01*
X116811981Y-91634112D01*
X116982782Y-91578615D01*
X117003119Y-91566492D01*
X117130992Y-91490265D01*
X117130995Y-91490263D01*
X117137044Y-91486657D01*
X117164374Y-91460631D01*
X117197354Y-91429225D01*
X117260479Y-91396733D01*
X117331150Y-91403527D01*
X117374882Y-91432944D01*
X117406514Y-91465699D01*
X117556789Y-91564036D01*
X117725116Y-91626636D01*
X117732097Y-91627567D01*
X117732099Y-91627568D01*
X117896149Y-91649457D01*
X117896153Y-91649457D01*
X117903130Y-91650388D01*
X117910142Y-91649750D01*
X117910146Y-91649750D01*
X118074960Y-91634751D01*
X118074961Y-91634751D01*
X118081981Y-91634112D01*
X118252782Y-91578615D01*
X118273119Y-91566492D01*
X118400992Y-91490265D01*
X118400995Y-91490263D01*
X118407044Y-91486657D01*
X118434374Y-91460631D01*
X118467354Y-91429225D01*
X118530479Y-91396733D01*
X118601150Y-91403527D01*
X118644882Y-91432944D01*
X118676514Y-91465699D01*
X118826789Y-91564036D01*
X118995116Y-91626636D01*
X119002097Y-91627567D01*
X119002099Y-91627568D01*
X119166149Y-91649457D01*
X119166153Y-91649457D01*
X119173130Y-91650388D01*
X119180142Y-91649750D01*
X119180146Y-91649750D01*
X119344960Y-91634751D01*
X119344961Y-91634751D01*
X119351981Y-91634112D01*
X119522782Y-91578615D01*
X119543119Y-91566492D01*
X119670992Y-91490265D01*
X119670995Y-91490263D01*
X119677044Y-91486657D01*
X119704374Y-91460631D01*
X119737354Y-91429225D01*
X119800479Y-91396733D01*
X119871150Y-91403527D01*
X119914882Y-91432944D01*
X119946514Y-91465699D01*
X120096789Y-91564036D01*
X120265116Y-91626636D01*
X120272097Y-91627567D01*
X120272099Y-91627568D01*
X120436149Y-91649457D01*
X120436153Y-91649457D01*
X120443130Y-91650388D01*
X120450142Y-91649750D01*
X120450146Y-91649750D01*
X120614960Y-91634751D01*
X120614961Y-91634751D01*
X120621981Y-91634112D01*
X120792782Y-91578615D01*
X120813119Y-91566492D01*
X120940992Y-91490265D01*
X120940995Y-91490263D01*
X120947044Y-91486657D01*
X120974374Y-91460631D01*
X121007354Y-91429225D01*
X121070479Y-91396733D01*
X121141150Y-91403527D01*
X121184882Y-91432944D01*
X121216514Y-91465699D01*
X121222410Y-91469557D01*
X121222411Y-91469558D01*
X121272493Y-91502331D01*
X121318542Y-91556369D01*
X121329500Y-91607763D01*
X121329500Y-92604876D01*
X121309498Y-92672997D01*
X121303462Y-92681580D01*
X121249139Y-92752375D01*
X121193670Y-92886291D01*
X121174750Y-93030000D01*
X121193670Y-93173709D01*
X121249139Y-93307625D01*
X121337379Y-93422621D01*
X121452375Y-93510861D01*
X121586291Y-93566330D01*
X121730000Y-93585250D01*
X121873709Y-93566330D01*
X122007625Y-93510861D01*
X122122621Y-93422621D01*
X122210861Y-93307625D01*
X122266330Y-93173709D01*
X122285250Y-93030000D01*
X122266330Y-92886291D01*
X122210861Y-92752375D01*
X122156538Y-92681580D01*
X122130937Y-92615360D01*
X122130500Y-92604876D01*
X122130500Y-91609825D01*
X122150502Y-91541704D01*
X122191982Y-91501597D01*
X122207949Y-91492079D01*
X122210995Y-91490263D01*
X122210996Y-91490262D01*
X122217044Y-91486657D01*
X122244374Y-91460631D01*
X122277354Y-91429225D01*
X122340479Y-91396733D01*
X122411150Y-91403527D01*
X122454882Y-91432944D01*
X122486514Y-91465699D01*
X122636789Y-91564036D01*
X122805116Y-91626636D01*
X122812097Y-91627567D01*
X122812099Y-91627568D01*
X122976149Y-91649457D01*
X122976153Y-91649457D01*
X122983130Y-91650388D01*
X122990142Y-91649750D01*
X122990146Y-91649750D01*
X123154960Y-91634751D01*
X123154961Y-91634751D01*
X123161981Y-91634112D01*
X123332782Y-91578615D01*
X123353119Y-91566492D01*
X123480992Y-91490265D01*
X123480995Y-91490263D01*
X123487044Y-91486657D01*
X123617099Y-91362807D01*
X123627944Y-91346485D01*
X123681511Y-91265859D01*
X123716483Y-91213222D01*
X123732712Y-91170499D01*
X123777757Y-91051919D01*
X123777758Y-91051914D01*
X123780257Y-91045336D01*
X123805251Y-90867493D01*
X123805565Y-90845000D01*
X123785546Y-90666528D01*
X123726485Y-90496927D01*
X123693689Y-90444442D01*
X123674553Y-90376074D01*
X123695418Y-90308213D01*
X123711370Y-90288655D01*
X123744023Y-90255945D01*
X123752241Y-90247713D01*
X123775237Y-90195699D01*
X123793675Y-90153992D01*
X123797506Y-90145327D01*
X123800500Y-90119646D01*
X123800500Y-89301500D01*
X123820502Y-89233379D01*
X123874158Y-89186886D01*
X123926500Y-89175500D01*
X126156917Y-89175500D01*
X126225038Y-89195502D01*
X126246012Y-89212405D01*
X128562595Y-91528988D01*
X128596621Y-91591300D01*
X128599500Y-91618083D01*
X128599500Y-93623500D01*
X128579498Y-93691621D01*
X128525842Y-93738114D01*
X128473500Y-93749500D01*
X128437309Y-93749500D01*
X128434801Y-93749702D01*
X128434796Y-93749702D01*
X128256339Y-93764060D01*
X128256334Y-93764061D01*
X128251298Y-93764466D01*
X128246390Y-93765671D01*
X128246387Y-93765672D01*
X128016392Y-93822165D01*
X128008994Y-93823982D01*
X128004342Y-93825957D01*
X128004338Y-93825958D01*
X127783978Y-93919495D01*
X127779323Y-93921471D01*
X127568192Y-94054427D01*
X127564398Y-94057772D01*
X127384832Y-94216080D01*
X127384829Y-94216083D01*
X127381035Y-94219428D01*
X127222666Y-94412230D01*
X127097160Y-94627872D01*
X127095347Y-94632595D01*
X127095346Y-94632597D01*
X127077777Y-94678367D01*
X127007745Y-94860805D01*
X127006712Y-94865751D01*
X127006710Y-94865757D01*
X127001003Y-94893076D01*
X126956722Y-95105039D01*
X126945404Y-95354288D01*
X126974081Y-95602140D01*
X127042017Y-95842219D01*
X127147462Y-96068348D01*
X127287706Y-96274710D01*
X127459138Y-96455994D01*
X127463164Y-96459072D01*
X127463165Y-96459073D01*
X127653323Y-96604460D01*
X127657349Y-96607538D01*
X127877239Y-96725443D01*
X128113152Y-96806674D01*
X128241099Y-96828774D01*
X128355107Y-96848467D01*
X128355113Y-96848468D01*
X128359017Y-96849142D01*
X128362978Y-96849322D01*
X128362979Y-96849322D01*
X128387503Y-96850436D01*
X128387522Y-96850436D01*
X128388922Y-96850500D01*
X129562691Y-96850500D01*
X129565199Y-96850298D01*
X129565204Y-96850298D01*
X129743661Y-96835940D01*
X129743666Y-96835939D01*
X129748702Y-96835534D01*
X129753610Y-96834329D01*
X129753613Y-96834328D01*
X129986092Y-96777225D01*
X129991006Y-96776018D01*
X129995658Y-96774043D01*
X129995662Y-96774042D01*
X130216022Y-96680505D01*
X130216023Y-96680505D01*
X130220677Y-96678529D01*
X130431808Y-96545573D01*
X130529923Y-96459073D01*
X130615168Y-96383920D01*
X130615171Y-96383917D01*
X130618965Y-96380572D01*
X130777334Y-96187770D01*
X130902840Y-95972128D01*
X130905733Y-95964593D01*
X130990443Y-95743915D01*
X130992255Y-95739195D01*
X130997100Y-95716006D01*
X131042243Y-95499915D01*
X131043278Y-95494961D01*
X131049666Y-95354288D01*
X140945404Y-95354288D01*
X140974081Y-95602140D01*
X141042017Y-95842219D01*
X141147462Y-96068348D01*
X141287706Y-96274710D01*
X141459138Y-96455994D01*
X141463164Y-96459072D01*
X141463165Y-96459073D01*
X141653323Y-96604460D01*
X141657349Y-96607538D01*
X141877239Y-96725443D01*
X142113152Y-96806674D01*
X142241099Y-96828774D01*
X142355107Y-96848467D01*
X142355113Y-96848468D01*
X142359017Y-96849142D01*
X142362978Y-96849322D01*
X142362979Y-96849322D01*
X142387503Y-96850436D01*
X142387522Y-96850436D01*
X142388922Y-96850500D01*
X143562691Y-96850500D01*
X143565199Y-96850298D01*
X143565204Y-96850298D01*
X143743661Y-96835940D01*
X143743666Y-96835939D01*
X143748702Y-96835534D01*
X143753610Y-96834329D01*
X143753613Y-96834328D01*
X143986092Y-96777225D01*
X143991006Y-96776018D01*
X143995658Y-96774043D01*
X143995662Y-96774042D01*
X144216022Y-96680505D01*
X144216023Y-96680505D01*
X144220677Y-96678529D01*
X144431808Y-96545573D01*
X144529923Y-96459073D01*
X144615168Y-96383920D01*
X144615171Y-96383917D01*
X144618965Y-96380572D01*
X144777334Y-96187770D01*
X144902840Y-95972128D01*
X144905733Y-95964593D01*
X144990443Y-95743915D01*
X144992255Y-95739195D01*
X144997100Y-95716006D01*
X145042243Y-95499915D01*
X145043278Y-95494961D01*
X145049666Y-95354288D01*
X154945404Y-95354288D01*
X154974081Y-95602140D01*
X155042017Y-95842219D01*
X155147462Y-96068348D01*
X155287706Y-96274710D01*
X155459138Y-96455994D01*
X155463164Y-96459072D01*
X155463165Y-96459073D01*
X155653323Y-96604460D01*
X155657349Y-96607538D01*
X155877239Y-96725443D01*
X156113152Y-96806674D01*
X156241099Y-96828774D01*
X156355107Y-96848467D01*
X156355113Y-96848468D01*
X156359017Y-96849142D01*
X156362978Y-96849322D01*
X156362979Y-96849322D01*
X156387503Y-96850436D01*
X156387522Y-96850436D01*
X156388922Y-96850500D01*
X157562691Y-96850500D01*
X157565199Y-96850298D01*
X157565204Y-96850298D01*
X157743661Y-96835940D01*
X157743666Y-96835939D01*
X157748702Y-96835534D01*
X157753610Y-96834329D01*
X157753613Y-96834328D01*
X157986092Y-96777225D01*
X157991006Y-96776018D01*
X157995658Y-96774043D01*
X157995662Y-96774042D01*
X158216022Y-96680505D01*
X158216023Y-96680505D01*
X158220677Y-96678529D01*
X158431808Y-96545573D01*
X158529923Y-96459073D01*
X158615168Y-96383920D01*
X158615171Y-96383917D01*
X158618965Y-96380572D01*
X158777334Y-96187770D01*
X158902840Y-95972128D01*
X158905733Y-95964593D01*
X158990443Y-95743915D01*
X158992255Y-95739195D01*
X158997100Y-95716006D01*
X159042243Y-95499915D01*
X159043278Y-95494961D01*
X159049666Y-95354288D01*
X168945404Y-95354288D01*
X168974081Y-95602140D01*
X169042017Y-95842219D01*
X169147462Y-96068348D01*
X169287706Y-96274710D01*
X169459138Y-96455994D01*
X169463164Y-96459072D01*
X169463165Y-96459073D01*
X169653323Y-96604460D01*
X169657349Y-96607538D01*
X169877239Y-96725443D01*
X170113152Y-96806674D01*
X170241099Y-96828774D01*
X170355107Y-96848467D01*
X170355113Y-96848468D01*
X170359017Y-96849142D01*
X170362978Y-96849322D01*
X170362979Y-96849322D01*
X170387503Y-96850436D01*
X170387522Y-96850436D01*
X170388922Y-96850500D01*
X171562691Y-96850500D01*
X171565199Y-96850298D01*
X171565204Y-96850298D01*
X171743661Y-96835940D01*
X171743666Y-96835939D01*
X171748702Y-96835534D01*
X171753610Y-96834329D01*
X171753613Y-96834328D01*
X171986092Y-96777225D01*
X171991006Y-96776018D01*
X171995658Y-96774043D01*
X171995662Y-96774042D01*
X172216022Y-96680505D01*
X172216023Y-96680505D01*
X172220677Y-96678529D01*
X172431808Y-96545573D01*
X172529923Y-96459073D01*
X172615168Y-96383920D01*
X172615171Y-96383917D01*
X172618965Y-96380572D01*
X172777334Y-96187770D01*
X172902840Y-95972128D01*
X172905733Y-95964593D01*
X172990443Y-95743915D01*
X172992255Y-95739195D01*
X172997100Y-95716006D01*
X173042243Y-95499915D01*
X173043278Y-95494961D01*
X173049666Y-95354288D01*
X182945404Y-95354288D01*
X182974081Y-95602140D01*
X183042017Y-95842219D01*
X183147462Y-96068348D01*
X183287706Y-96274710D01*
X183459138Y-96455994D01*
X183463164Y-96459072D01*
X183463165Y-96459073D01*
X183653323Y-96604460D01*
X183657349Y-96607538D01*
X183877239Y-96725443D01*
X184113152Y-96806674D01*
X184241099Y-96828774D01*
X184355107Y-96848467D01*
X184355113Y-96848468D01*
X184359017Y-96849142D01*
X184362978Y-96849322D01*
X184362979Y-96849322D01*
X184387503Y-96850436D01*
X184387522Y-96850436D01*
X184388922Y-96850500D01*
X185562691Y-96850500D01*
X185565199Y-96850298D01*
X185565204Y-96850298D01*
X185743661Y-96835940D01*
X185743666Y-96835939D01*
X185748702Y-96835534D01*
X185753610Y-96834329D01*
X185753613Y-96834328D01*
X185986092Y-96777225D01*
X185991006Y-96776018D01*
X185995658Y-96774043D01*
X185995662Y-96774042D01*
X186216022Y-96680505D01*
X186216023Y-96680505D01*
X186220677Y-96678529D01*
X186431808Y-96545573D01*
X186529923Y-96459073D01*
X186615168Y-96383920D01*
X186615171Y-96383917D01*
X186618965Y-96380572D01*
X186777334Y-96187770D01*
X186902840Y-95972128D01*
X186905733Y-95964593D01*
X186990443Y-95743915D01*
X186992255Y-95739195D01*
X186997100Y-95716006D01*
X187042243Y-95499915D01*
X187043278Y-95494961D01*
X187054596Y-95245712D01*
X187025919Y-94997860D01*
X186957983Y-94757781D01*
X186852538Y-94531652D01*
X186712294Y-94325290D01*
X186540862Y-94144006D01*
X186349033Y-93997341D01*
X186346677Y-93995540D01*
X186346676Y-93995539D01*
X186342651Y-93992462D01*
X186122761Y-93874557D01*
X185886848Y-93793326D01*
X185758901Y-93771226D01*
X185644893Y-93751533D01*
X185644887Y-93751532D01*
X185640983Y-93750858D01*
X185637022Y-93750678D01*
X185637021Y-93750678D01*
X185612497Y-93749564D01*
X185612478Y-93749564D01*
X185611078Y-93749500D01*
X184437309Y-93749500D01*
X184434801Y-93749702D01*
X184434796Y-93749702D01*
X184256339Y-93764060D01*
X184256334Y-93764061D01*
X184251298Y-93764466D01*
X184246390Y-93765671D01*
X184246387Y-93765672D01*
X184016392Y-93822165D01*
X184008994Y-93823982D01*
X184004342Y-93825957D01*
X184004338Y-93825958D01*
X183783978Y-93919495D01*
X183779323Y-93921471D01*
X183568192Y-94054427D01*
X183564398Y-94057772D01*
X183384832Y-94216080D01*
X183384829Y-94216083D01*
X183381035Y-94219428D01*
X183222666Y-94412230D01*
X183097160Y-94627872D01*
X183095347Y-94632595D01*
X183095346Y-94632597D01*
X183077777Y-94678367D01*
X183007745Y-94860805D01*
X183006712Y-94865751D01*
X183006710Y-94865757D01*
X183001003Y-94893076D01*
X182956722Y-95105039D01*
X182945404Y-95354288D01*
X173049666Y-95354288D01*
X173054596Y-95245712D01*
X173025919Y-94997860D01*
X172957983Y-94757781D01*
X172852538Y-94531652D01*
X172712294Y-94325290D01*
X172540862Y-94144006D01*
X172349033Y-93997341D01*
X172346677Y-93995540D01*
X172346676Y-93995539D01*
X172342651Y-93992462D01*
X172122761Y-93874557D01*
X171886848Y-93793326D01*
X171758901Y-93771226D01*
X171644893Y-93751533D01*
X171644887Y-93751532D01*
X171640983Y-93750858D01*
X171637022Y-93750678D01*
X171637021Y-93750678D01*
X171612497Y-93749564D01*
X171612478Y-93749564D01*
X171611078Y-93749500D01*
X170437309Y-93749500D01*
X170434801Y-93749702D01*
X170434796Y-93749702D01*
X170256339Y-93764060D01*
X170256334Y-93764061D01*
X170251298Y-93764466D01*
X170246390Y-93765671D01*
X170246387Y-93765672D01*
X170016392Y-93822165D01*
X170008994Y-93823982D01*
X170004342Y-93825957D01*
X170004338Y-93825958D01*
X169783978Y-93919495D01*
X169779323Y-93921471D01*
X169568192Y-94054427D01*
X169564398Y-94057772D01*
X169384832Y-94216080D01*
X169384829Y-94216083D01*
X169381035Y-94219428D01*
X169222666Y-94412230D01*
X169097160Y-94627872D01*
X169095347Y-94632595D01*
X169095346Y-94632597D01*
X169077777Y-94678367D01*
X169007745Y-94860805D01*
X169006712Y-94865751D01*
X169006710Y-94865757D01*
X169001003Y-94893076D01*
X168956722Y-95105039D01*
X168945404Y-95354288D01*
X159049666Y-95354288D01*
X159054596Y-95245712D01*
X159025919Y-94997860D01*
X158957983Y-94757781D01*
X158852538Y-94531652D01*
X158712294Y-94325290D01*
X158540862Y-94144006D01*
X158349033Y-93997341D01*
X158346677Y-93995540D01*
X158346676Y-93995539D01*
X158342651Y-93992462D01*
X158122761Y-93874557D01*
X157886848Y-93793326D01*
X157758901Y-93771226D01*
X157644893Y-93751533D01*
X157644887Y-93751532D01*
X157640983Y-93750858D01*
X157637022Y-93750678D01*
X157637021Y-93750678D01*
X157612497Y-93749564D01*
X157612478Y-93749564D01*
X157611078Y-93749500D01*
X156437309Y-93749500D01*
X156434801Y-93749702D01*
X156434796Y-93749702D01*
X156256339Y-93764060D01*
X156256334Y-93764061D01*
X156251298Y-93764466D01*
X156246390Y-93765671D01*
X156246387Y-93765672D01*
X156016392Y-93822165D01*
X156008994Y-93823982D01*
X156004342Y-93825957D01*
X156004338Y-93825958D01*
X155783978Y-93919495D01*
X155779323Y-93921471D01*
X155568192Y-94054427D01*
X155564398Y-94057772D01*
X155384832Y-94216080D01*
X155384829Y-94216083D01*
X155381035Y-94219428D01*
X155222666Y-94412230D01*
X155097160Y-94627872D01*
X155095347Y-94632595D01*
X155095346Y-94632597D01*
X155077777Y-94678367D01*
X155007745Y-94860805D01*
X155006712Y-94865751D01*
X155006710Y-94865757D01*
X155001003Y-94893076D01*
X154956722Y-95105039D01*
X154945404Y-95354288D01*
X145049666Y-95354288D01*
X145054596Y-95245712D01*
X145025919Y-94997860D01*
X144957983Y-94757781D01*
X144852538Y-94531652D01*
X144712294Y-94325290D01*
X144540862Y-94144006D01*
X144349033Y-93997341D01*
X144346677Y-93995540D01*
X144346676Y-93995539D01*
X144342651Y-93992462D01*
X144122761Y-93874557D01*
X143886848Y-93793326D01*
X143758901Y-93771226D01*
X143644893Y-93751533D01*
X143644887Y-93751532D01*
X143640983Y-93750858D01*
X143637022Y-93750678D01*
X143637021Y-93750678D01*
X143612497Y-93749564D01*
X143612478Y-93749564D01*
X143611078Y-93749500D01*
X142437309Y-93749500D01*
X142434801Y-93749702D01*
X142434796Y-93749702D01*
X142256339Y-93764060D01*
X142256334Y-93764061D01*
X142251298Y-93764466D01*
X142246390Y-93765671D01*
X142246387Y-93765672D01*
X142016392Y-93822165D01*
X142008994Y-93823982D01*
X142004342Y-93825957D01*
X142004338Y-93825958D01*
X141783978Y-93919495D01*
X141779323Y-93921471D01*
X141568192Y-94054427D01*
X141564398Y-94057772D01*
X141384832Y-94216080D01*
X141384829Y-94216083D01*
X141381035Y-94219428D01*
X141222666Y-94412230D01*
X141097160Y-94627872D01*
X141095347Y-94632595D01*
X141095346Y-94632597D01*
X141077777Y-94678367D01*
X141007745Y-94860805D01*
X141006712Y-94865751D01*
X141006710Y-94865757D01*
X141001003Y-94893076D01*
X140956722Y-95105039D01*
X140945404Y-95354288D01*
X131049666Y-95354288D01*
X131054596Y-95245712D01*
X131025919Y-94997860D01*
X130957983Y-94757781D01*
X130852538Y-94531652D01*
X130712294Y-94325290D01*
X130540862Y-94144006D01*
X130349033Y-93997341D01*
X130346677Y-93995540D01*
X130346676Y-93995539D01*
X130342651Y-93992462D01*
X130122761Y-93874557D01*
X129886848Y-93793326D01*
X129758901Y-93771226D01*
X129644893Y-93751533D01*
X129644887Y-93751532D01*
X129640983Y-93750858D01*
X129637022Y-93750678D01*
X129637021Y-93750678D01*
X129612497Y-93749564D01*
X129612478Y-93749564D01*
X129611078Y-93749500D01*
X129526500Y-93749500D01*
X129458379Y-93729498D01*
X129411886Y-93675842D01*
X129400500Y-93623500D01*
X129400500Y-91336567D01*
X129397436Y-91327136D01*
X129397435Y-91327132D01*
X129393703Y-91315647D01*
X129389087Y-91296422D01*
X129387197Y-91284488D01*
X129387197Y-91284487D01*
X129385646Y-91274696D01*
X129381145Y-91265863D01*
X129381144Y-91265859D01*
X129375658Y-91255092D01*
X129368092Y-91236828D01*
X129364360Y-91225342D01*
X129361296Y-91215911D01*
X129348365Y-91198113D01*
X129338037Y-91181258D01*
X129332555Y-91170499D01*
X129332554Y-91170497D01*
X129328050Y-91161658D01*
X129305487Y-91139095D01*
X129305484Y-91139091D01*
X126681988Y-88515595D01*
X126647962Y-88453283D01*
X126653027Y-88382468D01*
X126695574Y-88325632D01*
X126762094Y-88300821D01*
X126771083Y-88300500D01*
X189573500Y-88300500D01*
X189641621Y-88320502D01*
X189688114Y-88374158D01*
X189699500Y-88426500D01*
X189699500Y-106573500D01*
X189679498Y-106641621D01*
X189625842Y-106688114D01*
X189573500Y-106699500D01*
X107426500Y-106699500D01*
X107358379Y-106679498D01*
X107311886Y-106625842D01*
X107300500Y-106573500D01*
X107300500Y-88426500D01*
X107320502Y-88358379D01*
X107374158Y-88311886D01*
X107426500Y-88300500D01*
X121426811Y-88300500D01*
X121494932Y-88320502D01*
G37*
%TD.AperFunction*%
%TD*%
M02*
