%TF.GenerationSoftware,KiCad,Pcbnew,(6.0.11)*%
%TF.CreationDate,2023-08-12T22:25:01-04:00*%
%TF.ProjectId,FP_SW_rev_21,46505f53-575f-4726-9576-5f32312e6b69,rev?*%
%TF.SameCoordinates,Original*%
%TF.FileFunction,Legend,Top*%
%TF.FilePolarity,Positive*%
%FSLAX46Y46*%
G04 Gerber Fmt 4.6, Leading zero omitted, Abs format (unit mm)*
G04 Created by KiCad (PCBNEW (6.0.11)) date 2023-08-12 22:25:01*
%MOMM*%
%LPD*%
G01*
G04 APERTURE LIST*
%ADD10C,0.150000*%
%ADD11C,0.120000*%
%ADD12R,1.000000X1.000000*%
%ADD13O,1.000000X1.000000*%
%ADD14O,3.500000X2.500000*%
G04 APERTURE END LIST*
D10*
X144047619Y-91647380D02*
X143571428Y-91647380D01*
X143571428Y-90647380D01*
X144380952Y-91647380D02*
X144380952Y-90647380D01*
X144952380Y-91647380D01*
X144952380Y-90647380D01*
X145380952Y-91361666D02*
X145857142Y-91361666D01*
X145285714Y-91647380D02*
X145619047Y-90647380D01*
X145952380Y-91647380D01*
X147380952Y-91123571D02*
X147047619Y-91123571D01*
X147047619Y-91647380D02*
X147047619Y-90647380D01*
X147523809Y-90647380D01*
X147904761Y-91647380D02*
X147904761Y-90647380D01*
X148285714Y-90647380D01*
X148380952Y-90695000D01*
X148428571Y-90742619D01*
X148476190Y-90837857D01*
X148476190Y-90980714D01*
X148428571Y-91075952D01*
X148380952Y-91123571D01*
X148285714Y-91171190D01*
X147904761Y-91171190D01*
X149619047Y-91599761D02*
X149761904Y-91647380D01*
X150000000Y-91647380D01*
X150095238Y-91599761D01*
X150142857Y-91552142D01*
X150190476Y-91456904D01*
X150190476Y-91361666D01*
X150142857Y-91266428D01*
X150095238Y-91218809D01*
X150000000Y-91171190D01*
X149809523Y-91123571D01*
X149714285Y-91075952D01*
X149666666Y-91028333D01*
X149619047Y-90933095D01*
X149619047Y-90837857D01*
X149666666Y-90742619D01*
X149714285Y-90695000D01*
X149809523Y-90647380D01*
X150047619Y-90647380D01*
X150190476Y-90695000D01*
X150523809Y-90647380D02*
X150761904Y-91647380D01*
X150952380Y-90933095D01*
X151142857Y-91647380D01*
X151380952Y-90647380D01*
X151761904Y-91647380D02*
X151761904Y-90647380D01*
X152095238Y-90647380D02*
X152666666Y-90647380D01*
X152380952Y-91647380D02*
X152380952Y-90647380D01*
X153571428Y-91552142D02*
X153523809Y-91599761D01*
X153380952Y-91647380D01*
X153285714Y-91647380D01*
X153142857Y-91599761D01*
X153047619Y-91504523D01*
X153000000Y-91409285D01*
X152952380Y-91218809D01*
X152952380Y-91075952D01*
X153000000Y-90885476D01*
X153047619Y-90790238D01*
X153142857Y-90695000D01*
X153285714Y-90647380D01*
X153380952Y-90647380D01*
X153523809Y-90695000D01*
X153571428Y-90742619D01*
X154000000Y-91647380D02*
X154000000Y-90647380D01*
X154000000Y-91123571D02*
X154571428Y-91123571D01*
X154571428Y-91647380D02*
X154571428Y-90647380D01*
X155047619Y-91123571D02*
X155380952Y-91123571D01*
X155523809Y-91647380D02*
X155047619Y-91647380D01*
X155047619Y-90647380D01*
X155523809Y-90647380D01*
X155904761Y-91599761D02*
X156047619Y-91647380D01*
X156285714Y-91647380D01*
X156380952Y-91599761D01*
X156428571Y-91552142D01*
X156476190Y-91456904D01*
X156476190Y-91361666D01*
X156428571Y-91266428D01*
X156380952Y-91218809D01*
X156285714Y-91171190D01*
X156095238Y-91123571D01*
X156000000Y-91075952D01*
X155952380Y-91028333D01*
X155904761Y-90933095D01*
X155904761Y-90837857D01*
X155952380Y-90742619D01*
X156000000Y-90695000D01*
X156095238Y-90647380D01*
X156333333Y-90647380D01*
X156476190Y-90695000D01*
X143309523Y-93257380D02*
X142976190Y-92781190D01*
X142738095Y-93257380D02*
X142738095Y-92257380D01*
X143119047Y-92257380D01*
X143214285Y-92305000D01*
X143261904Y-92352619D01*
X143309523Y-92447857D01*
X143309523Y-92590714D01*
X143261904Y-92685952D01*
X143214285Y-92733571D01*
X143119047Y-92781190D01*
X142738095Y-92781190D01*
X144119047Y-93209761D02*
X144023809Y-93257380D01*
X143833333Y-93257380D01*
X143738095Y-93209761D01*
X143690476Y-93114523D01*
X143690476Y-92733571D01*
X143738095Y-92638333D01*
X143833333Y-92590714D01*
X144023809Y-92590714D01*
X144119047Y-92638333D01*
X144166666Y-92733571D01*
X144166666Y-92828809D01*
X143690476Y-92924047D01*
X144500000Y-92590714D02*
X144738095Y-93257380D01*
X144976190Y-92590714D01*
X146071428Y-92352619D02*
X146119047Y-92305000D01*
X146214285Y-92257380D01*
X146452380Y-92257380D01*
X146547619Y-92305000D01*
X146595238Y-92352619D01*
X146642857Y-92447857D01*
X146642857Y-92543095D01*
X146595238Y-92685952D01*
X146023809Y-93257380D01*
X146642857Y-93257380D01*
X147595238Y-93257380D02*
X147023809Y-93257380D01*
X147309523Y-93257380D02*
X147309523Y-92257380D01*
X147214285Y-92400238D01*
X147119047Y-92495476D01*
X147023809Y-92543095D01*
X149023809Y-93590714D02*
X149023809Y-92162142D01*
X150452380Y-92971666D02*
X150928571Y-92971666D01*
X150357142Y-93257380D02*
X150690476Y-92257380D01*
X151023809Y-93257380D01*
X151785714Y-92590714D02*
X151785714Y-93257380D01*
X151357142Y-92590714D02*
X151357142Y-93114523D01*
X151404761Y-93209761D01*
X151500000Y-93257380D01*
X151642857Y-93257380D01*
X151738095Y-93209761D01*
X151785714Y-93162142D01*
X152690476Y-92590714D02*
X152690476Y-93400238D01*
X152642857Y-93495476D01*
X152595238Y-93543095D01*
X152500000Y-93590714D01*
X152357142Y-93590714D01*
X152261904Y-93543095D01*
X152690476Y-93209761D02*
X152595238Y-93257380D01*
X152404761Y-93257380D01*
X152309523Y-93209761D01*
X152261904Y-93162142D01*
X152214285Y-93066904D01*
X152214285Y-92781190D01*
X152261904Y-92685952D01*
X152309523Y-92638333D01*
X152404761Y-92590714D01*
X152595238Y-92590714D01*
X152690476Y-92638333D01*
X153880952Y-92352619D02*
X153928571Y-92305000D01*
X154023809Y-92257380D01*
X154261904Y-92257380D01*
X154357142Y-92305000D01*
X154404761Y-92352619D01*
X154452380Y-92447857D01*
X154452380Y-92543095D01*
X154404761Y-92685952D01*
X153833333Y-93257380D01*
X154452380Y-93257380D01*
X155071428Y-92257380D02*
X155166666Y-92257380D01*
X155261904Y-92305000D01*
X155309523Y-92352619D01*
X155357142Y-92447857D01*
X155404761Y-92638333D01*
X155404761Y-92876428D01*
X155357142Y-93066904D01*
X155309523Y-93162142D01*
X155261904Y-93209761D01*
X155166666Y-93257380D01*
X155071428Y-93257380D01*
X154976190Y-93209761D01*
X154928571Y-93162142D01*
X154880952Y-93066904D01*
X154833333Y-92876428D01*
X154833333Y-92638333D01*
X154880952Y-92447857D01*
X154928571Y-92352619D01*
X154976190Y-92305000D01*
X155071428Y-92257380D01*
X155785714Y-92352619D02*
X155833333Y-92305000D01*
X155928571Y-92257380D01*
X156166666Y-92257380D01*
X156261904Y-92305000D01*
X156309523Y-92352619D01*
X156357142Y-92447857D01*
X156357142Y-92543095D01*
X156309523Y-92685952D01*
X155738095Y-93257380D01*
X156357142Y-93257380D01*
X156690476Y-92257380D02*
X157309523Y-92257380D01*
X156976190Y-92638333D01*
X157119047Y-92638333D01*
X157214285Y-92685952D01*
X157261904Y-92733571D01*
X157309523Y-92828809D01*
X157309523Y-93066904D01*
X157261904Y-93162142D01*
X157214285Y-93209761D01*
X157119047Y-93257380D01*
X156833333Y-93257380D01*
X156738095Y-93209761D01*
X156690476Y-93162142D01*
%TO.C,SW5*%
X166704761Y-101333333D02*
X166752380Y-101190476D01*
X166752380Y-100952380D01*
X166704761Y-100857142D01*
X166657142Y-100809523D01*
X166561904Y-100761904D01*
X166466666Y-100761904D01*
X166371428Y-100809523D01*
X166323809Y-100857142D01*
X166276190Y-100952380D01*
X166228571Y-101142857D01*
X166180952Y-101238095D01*
X166133333Y-101285714D01*
X166038095Y-101333333D01*
X165942857Y-101333333D01*
X165847619Y-101285714D01*
X165800000Y-101238095D01*
X165752380Y-101142857D01*
X165752380Y-100904761D01*
X165800000Y-100761904D01*
X165752380Y-100428571D02*
X166752380Y-100190476D01*
X166038095Y-100000000D01*
X166752380Y-99809523D01*
X165752380Y-99571428D01*
X165752380Y-98714285D02*
X165752380Y-99190476D01*
X166228571Y-99238095D01*
X166180952Y-99190476D01*
X166133333Y-99095238D01*
X166133333Y-98857142D01*
X166180952Y-98761904D01*
X166228571Y-98714285D01*
X166323809Y-98666666D01*
X166561904Y-98666666D01*
X166657142Y-98714285D01*
X166704761Y-98761904D01*
X166752380Y-98857142D01*
X166752380Y-99095238D01*
X166704761Y-99190476D01*
X166657142Y-99238095D01*
%TO.C,SW1*%
X110704761Y-101333333D02*
X110752380Y-101190476D01*
X110752380Y-100952380D01*
X110704761Y-100857142D01*
X110657142Y-100809523D01*
X110561904Y-100761904D01*
X110466666Y-100761904D01*
X110371428Y-100809523D01*
X110323809Y-100857142D01*
X110276190Y-100952380D01*
X110228571Y-101142857D01*
X110180952Y-101238095D01*
X110133333Y-101285714D01*
X110038095Y-101333333D01*
X109942857Y-101333333D01*
X109847619Y-101285714D01*
X109800000Y-101238095D01*
X109752380Y-101142857D01*
X109752380Y-100904761D01*
X109800000Y-100761904D01*
X109752380Y-100428571D02*
X110752380Y-100190476D01*
X110038095Y-100000000D01*
X110752380Y-99809523D01*
X109752380Y-99571428D01*
X110752380Y-98666666D02*
X110752380Y-99238095D01*
X110752380Y-98952380D02*
X109752380Y-98952380D01*
X109895238Y-99047619D01*
X109990476Y-99142857D01*
X110038095Y-99238095D01*
%TO.C,SW2*%
X124704761Y-101333333D02*
X124752380Y-101190476D01*
X124752380Y-100952380D01*
X124704761Y-100857142D01*
X124657142Y-100809523D01*
X124561904Y-100761904D01*
X124466666Y-100761904D01*
X124371428Y-100809523D01*
X124323809Y-100857142D01*
X124276190Y-100952380D01*
X124228571Y-101142857D01*
X124180952Y-101238095D01*
X124133333Y-101285714D01*
X124038095Y-101333333D01*
X123942857Y-101333333D01*
X123847619Y-101285714D01*
X123800000Y-101238095D01*
X123752380Y-101142857D01*
X123752380Y-100904761D01*
X123800000Y-100761904D01*
X123752380Y-100428571D02*
X124752380Y-100190476D01*
X124038095Y-100000000D01*
X124752380Y-99809523D01*
X123752380Y-99571428D01*
X123847619Y-99238095D02*
X123800000Y-99190476D01*
X123752380Y-99095238D01*
X123752380Y-98857142D01*
X123800000Y-98761904D01*
X123847619Y-98714285D01*
X123942857Y-98666666D01*
X124038095Y-98666666D01*
X124180952Y-98714285D01*
X124752380Y-99285714D01*
X124752380Y-98666666D01*
%TO.C,SW6*%
X180704761Y-101333333D02*
X180752380Y-101190476D01*
X180752380Y-100952380D01*
X180704761Y-100857142D01*
X180657142Y-100809523D01*
X180561904Y-100761904D01*
X180466666Y-100761904D01*
X180371428Y-100809523D01*
X180323809Y-100857142D01*
X180276190Y-100952380D01*
X180228571Y-101142857D01*
X180180952Y-101238095D01*
X180133333Y-101285714D01*
X180038095Y-101333333D01*
X179942857Y-101333333D01*
X179847619Y-101285714D01*
X179800000Y-101238095D01*
X179752380Y-101142857D01*
X179752380Y-100904761D01*
X179800000Y-100761904D01*
X179752380Y-100428571D02*
X180752380Y-100190476D01*
X180038095Y-100000000D01*
X180752380Y-99809523D01*
X179752380Y-99571428D01*
X179752380Y-98761904D02*
X179752380Y-98952380D01*
X179800000Y-99047619D01*
X179847619Y-99095238D01*
X179990476Y-99190476D01*
X180180952Y-99238095D01*
X180561904Y-99238095D01*
X180657142Y-99190476D01*
X180704761Y-99142857D01*
X180752380Y-99047619D01*
X180752380Y-98857142D01*
X180704761Y-98761904D01*
X180657142Y-98714285D01*
X180561904Y-98666666D01*
X180323809Y-98666666D01*
X180228571Y-98714285D01*
X180180952Y-98761904D01*
X180133333Y-98857142D01*
X180133333Y-99047619D01*
X180180952Y-99142857D01*
X180228571Y-99190476D01*
X180323809Y-99238095D01*
%TO.C,SW3*%
X138704761Y-101333333D02*
X138752380Y-101190476D01*
X138752380Y-100952380D01*
X138704761Y-100857142D01*
X138657142Y-100809523D01*
X138561904Y-100761904D01*
X138466666Y-100761904D01*
X138371428Y-100809523D01*
X138323809Y-100857142D01*
X138276190Y-100952380D01*
X138228571Y-101142857D01*
X138180952Y-101238095D01*
X138133333Y-101285714D01*
X138038095Y-101333333D01*
X137942857Y-101333333D01*
X137847619Y-101285714D01*
X137800000Y-101238095D01*
X137752380Y-101142857D01*
X137752380Y-100904761D01*
X137800000Y-100761904D01*
X137752380Y-100428571D02*
X138752380Y-100190476D01*
X138038095Y-100000000D01*
X138752380Y-99809523D01*
X137752380Y-99571428D01*
X137752380Y-99285714D02*
X137752380Y-98666666D01*
X138133333Y-99000000D01*
X138133333Y-98857142D01*
X138180952Y-98761904D01*
X138228571Y-98714285D01*
X138323809Y-98666666D01*
X138561904Y-98666666D01*
X138657142Y-98714285D01*
X138704761Y-98761904D01*
X138752380Y-98857142D01*
X138752380Y-99142857D01*
X138704761Y-99238095D01*
X138657142Y-99285714D01*
%TO.C,SW4*%
X152704761Y-101333333D02*
X152752380Y-101190476D01*
X152752380Y-100952380D01*
X152704761Y-100857142D01*
X152657142Y-100809523D01*
X152561904Y-100761904D01*
X152466666Y-100761904D01*
X152371428Y-100809523D01*
X152323809Y-100857142D01*
X152276190Y-100952380D01*
X152228571Y-101142857D01*
X152180952Y-101238095D01*
X152133333Y-101285714D01*
X152038095Y-101333333D01*
X151942857Y-101333333D01*
X151847619Y-101285714D01*
X151800000Y-101238095D01*
X151752380Y-101142857D01*
X151752380Y-100904761D01*
X151800000Y-100761904D01*
X151752380Y-100428571D02*
X152752380Y-100190476D01*
X152038095Y-100000000D01*
X152752380Y-99809523D01*
X151752380Y-99571428D01*
X152085714Y-98761904D02*
X152752380Y-98761904D01*
X151704761Y-99000000D02*
X152419047Y-99238095D01*
X152419047Y-98619047D01*
D11*
%TO.C,J1*%
X123695000Y-90335000D02*
X123695000Y-90537470D01*
X123760000Y-88445000D02*
X123760000Y-89575000D01*
X123695000Y-91152530D02*
X123695000Y-91975000D01*
X110875000Y-91152530D02*
X110875000Y-91975000D01*
X110875000Y-89882530D02*
X110875000Y-90537470D01*
X123563471Y-90335000D02*
X123695000Y-90335000D01*
X122293471Y-90335000D02*
X122436529Y-90335000D01*
X122240000Y-88445000D02*
X110875000Y-88445000D01*
X123000000Y-88445000D02*
X123760000Y-88445000D01*
X110875000Y-88445000D02*
X110875000Y-89267470D01*
X122240000Y-90138471D02*
X122240000Y-90281529D01*
X123695000Y-91975000D02*
X110875000Y-91975000D01*
X122240000Y-88445000D02*
X122240000Y-89011529D01*
%TO.C,SW5*%
X167190000Y-93650000D02*
X167190000Y-106350000D01*
X174810000Y-93650000D02*
X167190000Y-93650000D01*
X174810000Y-106350000D02*
X174810000Y-93650000D01*
X167190000Y-106350000D02*
X174810000Y-106350000D01*
%TO.C,SW1*%
X111190000Y-106350000D02*
X118810000Y-106350000D01*
X118810000Y-93650000D02*
X111190000Y-93650000D01*
X111190000Y-93650000D02*
X111190000Y-106350000D01*
X118810000Y-106350000D02*
X118810000Y-93650000D01*
%TO.C,SW2*%
X132810000Y-93650000D02*
X125190000Y-93650000D01*
X125190000Y-106350000D02*
X132810000Y-106350000D01*
X132810000Y-106350000D02*
X132810000Y-93650000D01*
X125190000Y-93650000D02*
X125190000Y-106350000D01*
%TO.C,SW6*%
X188810000Y-93650000D02*
X181190000Y-93650000D01*
X181190000Y-93650000D02*
X181190000Y-106350000D01*
X181190000Y-106350000D02*
X188810000Y-106350000D01*
X188810000Y-106350000D02*
X188810000Y-93650000D01*
%TO.C,SW3*%
X146810000Y-93650000D02*
X139190000Y-93650000D01*
X139190000Y-106350000D02*
X146810000Y-106350000D01*
X139190000Y-93650000D02*
X139190000Y-106350000D01*
X146810000Y-106350000D02*
X146810000Y-93650000D01*
%TO.C,SW4*%
X160810000Y-106350000D02*
X160810000Y-93650000D01*
X160810000Y-93650000D02*
X153190000Y-93650000D01*
X153190000Y-106350000D02*
X160810000Y-106350000D01*
X153190000Y-93650000D02*
X153190000Y-106350000D01*
%TD*%
%LPC*%
D12*
%TO.C,J1*%
X123000000Y-89575000D03*
D13*
X123000000Y-90845000D03*
X121730000Y-89575000D03*
X121730000Y-90845000D03*
X120460000Y-89575000D03*
X120460000Y-90845000D03*
X119190000Y-89575000D03*
X119190000Y-90845000D03*
X117920000Y-89575000D03*
X117920000Y-90845000D03*
X116650000Y-89575000D03*
X116650000Y-90845000D03*
X115380000Y-89575000D03*
X115380000Y-90845000D03*
X114110000Y-89575000D03*
X114110000Y-90845000D03*
X112840000Y-89575000D03*
X112840000Y-90845000D03*
X111570000Y-89575000D03*
X111570000Y-90845000D03*
%TD*%
D14*
%TO.C,SW5*%
X171000000Y-104700000D03*
X171000000Y-100000000D03*
X171000000Y-95300000D03*
%TD*%
%TO.C,SW1*%
X115000000Y-104700000D03*
X115000000Y-100000000D03*
X115000000Y-95300000D03*
%TD*%
%TO.C,SW2*%
X129000000Y-104700000D03*
X129000000Y-100000000D03*
X129000000Y-95300000D03*
%TD*%
%TO.C,SW6*%
X185000000Y-104700000D03*
X185000000Y-100000000D03*
X185000000Y-95300000D03*
%TD*%
%TO.C,SW3*%
X143000000Y-104700000D03*
X143000000Y-100000000D03*
X143000000Y-95300000D03*
%TD*%
%TO.C,SW4*%
X157000000Y-104700000D03*
X157000000Y-100000000D03*
X157000000Y-95300000D03*
%TD*%
M02*
