M48
; DRILL file {KiCad (6.0.11)} date Fri Aug 11 21:30:34 2023
; FORMAT={-:-/ absolute / metric / decimal}
; #@! TF.CreationDate,2023-08-11T21:30:34-04:00
; #@! TF.GenerationSoftware,Kicad,Pcbnew,(6.0.11)
; #@! TF.FileFunction,Plated,1,2,PTH
FMAT,2
METRIC
; #@! TA.AperFunction,Plated,PTH,ViaDrill
T1C0.300
; #@! TA.AperFunction,Plated,PTH,ComponentDrill
T2C0.650
; #@! TA.AperFunction,Plated,PTH,ComponentDrill
T3C1.500
%
G90
G05
T1
X118.549Y-92.6
X121.0Y-93.7
X121.73Y-93.03
X122.0Y-105.6
X135.9Y-105.6
X150.1Y-105.6
X176.2Y-105.6
T2
X111.57Y-89.575
X111.57Y-90.845
X112.84Y-89.575
X112.84Y-90.845
X114.11Y-89.575
X114.11Y-90.845
X115.38Y-89.575
X115.38Y-90.845
X116.65Y-89.575
X116.65Y-90.845
X117.92Y-89.575
X117.92Y-90.845
X119.19Y-89.575
X119.19Y-90.845
X120.46Y-89.575
X120.46Y-90.845
X121.73Y-89.575
X121.73Y-90.845
X123.0Y-89.575
X123.0Y-90.845
T3
X115.0Y-95.3
X115.0Y-100.0
X115.0Y-104.7
X129.0Y-95.3
X129.0Y-100.0
X129.0Y-104.7
X143.0Y-95.3
X143.0Y-100.0
X143.0Y-104.7
X157.0Y-95.3
X157.0Y-100.0
X157.0Y-104.7
X171.0Y-95.3
X171.0Y-100.0
X171.0Y-104.7
X185.0Y-95.3
X185.0Y-100.0
X185.0Y-104.7
T0
M30
