%TF.GenerationSoftware,KiCad,Pcbnew,(6.0.11)*%
%TF.CreationDate,2023-07-04T18:20:15-04:00*%
%TF.ProjectId,Batt_Rev20,42617474-5f52-4657-9632-302e6b696361,rev?*%
%TF.SameCoordinates,Original*%
%TF.FileFunction,Paste,Top*%
%TF.FilePolarity,Positive*%
%FSLAX46Y46*%
G04 Gerber Fmt 4.6, Leading zero omitted, Abs format (unit mm)*
G04 Created by KiCad (PCBNEW (6.0.11)) date 2023-07-04 18:20:15*
%MOMM*%
%LPD*%
G01*
G04 APERTURE LIST*
G04 Aperture macros list*
%AMRoundRect*
0 Rectangle with rounded corners*
0 $1 Rounding radius*
0 $2 $3 $4 $5 $6 $7 $8 $9 X,Y pos of 4 corners*
0 Add a 4 corners polygon primitive as box body*
4,1,4,$2,$3,$4,$5,$6,$7,$8,$9,$2,$3,0*
0 Add four circle primitives for the rounded corners*
1,1,$1+$1,$2,$3*
1,1,$1+$1,$4,$5*
1,1,$1+$1,$6,$7*
1,1,$1+$1,$8,$9*
0 Add four rect primitives between the rounded corners*
20,1,$1+$1,$2,$3,$4,$5,0*
20,1,$1+$1,$4,$5,$6,$7,0*
20,1,$1+$1,$6,$7,$8,$9,0*
20,1,$1+$1,$8,$9,$2,$3,0*%
%AMFreePoly0*
4,1,21,1.372500,0.787500,0.862500,0.787500,0.862500,0.532500,1.372500,0.532500,1.372500,0.127500,0.862500,0.127500,0.862500,-0.127500,1.372500,-0.127500,1.372500,-0.532500,0.862500,-0.532500,0.862500,-0.787500,1.372500,-0.787500,1.372500,-1.195000,0.612500,-1.195000,0.612500,-1.117500,-0.862500,-1.117500,-0.862500,1.117500,0.612500,1.117500,0.612500,1.195000,1.372500,1.195000,
1.372500,0.787500,1.372500,0.787500,$1*%
G04 Aperture macros list end*
%ADD10RoundRect,0.175000X-0.175000X-0.275000X0.175000X-0.275000X0.175000X0.275000X-0.175000X0.275000X0*%
%ADD11RoundRect,0.150000X0.150000X0.300000X-0.150000X0.300000X-0.150000X-0.300000X0.150000X-0.300000X0*%
%ADD12RoundRect,0.150000X-0.150000X-0.300000X0.150000X-0.300000X0.150000X0.300000X-0.150000X0.300000X0*%
%ADD13RoundRect,0.150000X-0.300000X0.150000X-0.300000X-0.150000X0.300000X-0.150000X0.300000X0.150000X0*%
%ADD14RoundRect,0.175000X-0.275000X-0.175000X0.275000X-0.175000X0.275000X0.175000X-0.275000X0.175000X0*%
%ADD15R,0.990000X0.405000*%
%ADD16FreePoly0,180.000000*%
%ADD17RoundRect,0.177778X-0.222222X-0.697222X0.222222X-0.697222X0.222222X0.697222X-0.222222X0.697222X0*%
%ADD18RoundRect,0.175000X0.175000X0.275000X-0.175000X0.275000X-0.175000X-0.275000X0.175000X-0.275000X0*%
%ADD19FreePoly0,0.000000*%
%ADD20R,0.600000X0.450000*%
%ADD21R,0.700000X0.600000*%
%ADD22RoundRect,0.150000X0.300000X-0.150000X0.300000X0.150000X-0.300000X0.150000X-0.300000X-0.150000X0*%
%ADD23R,0.600000X0.700000*%
%ADD24RoundRect,0.100000X-0.600000X-0.100000X0.600000X-0.100000X0.600000X0.100000X-0.600000X0.100000X0*%
G04 APERTURE END LIST*
D10*
%TO.C,C6*%
X105062500Y-75925000D03*
X106612500Y-75925000D03*
%TD*%
D11*
%TO.C,R11*%
X106487500Y-77425000D03*
X105187500Y-77425000D03*
%TD*%
D12*
%TO.C,R20*%
X119387500Y-69245000D03*
X120687500Y-69245000D03*
%TD*%
D13*
%TO.C,R23*%
X128900000Y-80650000D03*
X128900000Y-81950000D03*
%TD*%
D14*
%TO.C,Q5*%
X118000000Y-94050000D03*
X118000000Y-95950000D03*
X120000000Y-95000000D03*
%TD*%
D15*
%TO.C,Q3*%
X113660000Y-81090000D03*
X113660000Y-80430000D03*
X113660000Y-79770000D03*
X113660000Y-79110000D03*
D16*
X111667500Y-80100000D03*
%TD*%
D11*
%TO.C,R16*%
X120687500Y-72225000D03*
X119387500Y-72225000D03*
%TD*%
D12*
%TO.C,R4*%
X102587500Y-69925000D03*
X103887500Y-69925000D03*
%TD*%
D11*
%TO.C,R13*%
X120687500Y-70725000D03*
X119387500Y-70725000D03*
%TD*%
D17*
%TO.C,R7*%
X101375000Y-79800000D03*
X104275000Y-79800000D03*
%TD*%
D12*
%TO.C,R5*%
X102587500Y-68425000D03*
X103887500Y-68425000D03*
%TD*%
D18*
%TO.C,C2*%
X106612500Y-71425000D03*
X105062500Y-71425000D03*
%TD*%
D15*
%TO.C,Q2*%
X105790000Y-79110000D03*
X105790000Y-79770000D03*
X105790000Y-80430000D03*
X105790000Y-81090000D03*
D19*
X107782500Y-80100000D03*
%TD*%
D20*
%TO.C,D1*%
X119387500Y-81725000D03*
X121487500Y-81725000D03*
%TD*%
D14*
%TO.C,Q4*%
X105000000Y-94050000D03*
X105000000Y-95950000D03*
X107000000Y-95000000D03*
%TD*%
D12*
%TO.C,R2*%
X102587500Y-72925000D03*
X103887500Y-72925000D03*
%TD*%
D13*
%TO.C,R24*%
X110300000Y-87350000D03*
X110300000Y-88650000D03*
%TD*%
D18*
%TO.C,C8*%
X106612500Y-66925000D03*
X105062500Y-66925000D03*
%TD*%
D12*
%TO.C,R12*%
X119387500Y-78225000D03*
X120687500Y-78225000D03*
%TD*%
D15*
%TO.C,Q9*%
X130865000Y-84510000D03*
X130865000Y-85170000D03*
X130865000Y-85830000D03*
X130865000Y-86490000D03*
D19*
X132857500Y-85500000D03*
%TD*%
D12*
%TO.C,R1*%
X134850000Y-99500000D03*
X136150000Y-99500000D03*
%TD*%
D21*
%TO.C,D2*%
X101400000Y-94400000D03*
X101400000Y-95800000D03*
%TD*%
D14*
%TO.C,Q6*%
X112000000Y-87050000D03*
X112000000Y-88950000D03*
X114000000Y-88000000D03*
%TD*%
D21*
%TO.C,D4*%
X108800000Y-87300000D03*
X108800000Y-88700000D03*
%TD*%
D18*
%TO.C,C3*%
X106612500Y-69925000D03*
X105062500Y-69925000D03*
%TD*%
%TO.C,C5*%
X106612500Y-65425000D03*
X105062500Y-65425000D03*
%TD*%
D11*
%TO.C,R21*%
X117000000Y-87000000D03*
X115700000Y-87000000D03*
%TD*%
D12*
%TO.C,R22*%
X134850000Y-102500000D03*
X136150000Y-102500000D03*
%TD*%
D14*
%TO.C,Q1*%
X112000000Y-94050000D03*
X112000000Y-95950000D03*
X114000000Y-95000000D03*
%TD*%
D11*
%TO.C,R10*%
X103887500Y-77425000D03*
X102587500Y-77425000D03*
%TD*%
D10*
%TO.C,C7*%
X105062500Y-74425000D03*
X106612500Y-74425000D03*
%TD*%
D22*
%TO.C,R18*%
X116300000Y-95650000D03*
X116300000Y-94350000D03*
%TD*%
D14*
%TO.C,Q7*%
X105000000Y-87050000D03*
X105000000Y-88950000D03*
X107000000Y-88000000D03*
%TD*%
D18*
%TO.C,C4*%
X106612500Y-68425000D03*
X105062500Y-68425000D03*
%TD*%
D15*
%TO.C,Q8*%
X130865000Y-79910000D03*
X130865000Y-80570000D03*
X130865000Y-81230000D03*
X130865000Y-81890000D03*
D19*
X132857500Y-80900000D03*
%TD*%
D13*
%TO.C,R15*%
X103000000Y-94350000D03*
X103000000Y-95650000D03*
%TD*%
D11*
%TO.C,R14*%
X120687500Y-76725000D03*
X119387500Y-76725000D03*
%TD*%
D18*
%TO.C,C1*%
X106612500Y-72925000D03*
X105062500Y-72925000D03*
%TD*%
D11*
%TO.C,R17*%
X113650000Y-97800000D03*
X112350000Y-97800000D03*
%TD*%
D12*
%TO.C,R8*%
X102587500Y-74425000D03*
X103887500Y-74425000D03*
%TD*%
D23*
%TO.C,D3*%
X119437500Y-79825000D03*
X120837500Y-79825000D03*
%TD*%
D24*
%TO.C,U1*%
X110837500Y-67850000D03*
X110837500Y-68500000D03*
X110837500Y-69150000D03*
X110837500Y-69800000D03*
X110837500Y-70450000D03*
X110837500Y-71100000D03*
X110837500Y-71750000D03*
X110837500Y-72400000D03*
X110837500Y-73050000D03*
X110837500Y-73700000D03*
X110837500Y-74350000D03*
X110837500Y-75000000D03*
X116637500Y-75000000D03*
X116637500Y-74350000D03*
X116637500Y-73700000D03*
X116637500Y-73050000D03*
X116637500Y-72400000D03*
X116637500Y-71750000D03*
X116637500Y-71100000D03*
X116637500Y-70450000D03*
X116637500Y-69800000D03*
X116637500Y-69150000D03*
X116637500Y-68500000D03*
X116637500Y-67850000D03*
%TD*%
D12*
%TO.C,R6*%
X102587500Y-66925000D03*
X103887500Y-66925000D03*
%TD*%
%TO.C,R19*%
X119387500Y-75225000D03*
X120687500Y-75225000D03*
%TD*%
%TO.C,R3*%
X102587500Y-71425000D03*
X103887500Y-71425000D03*
%TD*%
D11*
%TO.C,R9*%
X103887500Y-75925000D03*
X102587500Y-75925000D03*
%TD*%
M02*
