M48
; DRILL file {KiCad (6.0.11)} date Tue Jul  4 18:19:28 2023
; FORMAT={-:-/ absolute / metric / decimal}
; #@! TF.CreationDate,2023-07-04T18:19:28-04:00
; #@! TF.GenerationSoftware,Kicad,Pcbnew,(6.0.11)
; #@! TF.FileFunction,Plated,1,2,PTH
FMAT,2
METRIC
; #@! TA.AperFunction,Plated,PTH,ViaDrill
T1C0.300
; #@! TA.AperFunction,Plated,PTH,ViaDrill
T2C0.400
; #@! TA.AperFunction,Plated,PTH,ComponentDrill
T3C0.500
; #@! TA.AperFunction,Plated,PTH,ComponentDrill
T4C1.000
; #@! TA.AperFunction,Plated,PTH,ComponentDrill
T5C2.410
; #@! TA.AperFunction,Plated,PTH,ComponentDrill
T6C3.200
%
G90
G05
T1
X103.088Y-74.425
X105.637Y-75.925
X105.733Y-65.429
X105.737Y-66.925
X115.0Y-71.5
X118.3Y-69.2
X118.8Y-67.1
X119.387Y-73.725
X120.237Y-72.825
X122.9Y-92.1
X123.0Y-91.0
X125.6Y-87.6
X125.9Y-88.9
X129.85Y-81.95
X131.1Y-87.4
X133.9Y-98.0
X137.3Y-100.9
X138.3Y-101.3
X139.5Y-101.0
X140.46Y-99.62
X140.7Y-101.5
T2
X99.0Y-79.0
X99.0Y-80.0
X99.0Y-81.0
X99.0Y-82.0
X99.0Y-83.0
X100.0Y-79.0
X100.0Y-80.0
X100.0Y-81.0
X100.0Y-82.0
X100.0Y-83.0
X101.0Y-82.0
X101.0Y-83.0
X107.537Y-72.225
X112.237Y-72.725
X115.337Y-68.125
X136.0Y-66.0
X136.0Y-69.0
X136.0Y-72.0
X137.5Y-94.0
X137.5Y-95.5
X137.7Y-75.7
X138.0Y-66.0
X138.0Y-69.0
X138.4Y-75.0
X139.0Y-69.0
X139.0Y-94.0
X139.0Y-95.5
X142.0Y-94.0
X142.0Y-95.5
X143.5Y-94.0
X143.5Y-95.5
X146.0Y-88.0
X146.0Y-90.0
X146.0Y-92.0
X146.0Y-94.0
X146.0Y-96.0
X146.0Y-98.0
X146.0Y-100.0
X146.0Y-102.0
X146.0Y-104.0
X146.0Y-106.0
X146.0Y-108.0
X146.0Y-110.0
X146.0Y-112.0
X148.0Y-88.0
X148.0Y-90.0
X148.0Y-96.0
X148.0Y-98.0
X148.0Y-100.0
X148.0Y-102.0
X148.0Y-104.0
X148.0Y-110.0
X148.0Y-112.0
T3
X139.6Y-40.0
X139.6Y-120.0
X140.303Y-38.303
X140.303Y-41.697
X140.303Y-118.303
X140.303Y-121.697
X142.0Y-37.6
X142.0Y-42.4
X142.0Y-117.6
X142.0Y-122.4
X143.697Y-38.303
X143.697Y-41.697
X143.697Y-118.303
X143.697Y-121.697
X144.4Y-40.0
X144.4Y-120.0
T5
X146.35Y-66.85
X146.35Y-77.15
T6
X142.0Y-40.0
X142.0Y-120.0
T4
G00X49.575Y-41.0
M15
G01X50.425Y-41.0
M16
G05
G00X49.575Y-61.0
M15
G01X50.425Y-61.0
M16
G05
G00X49.575Y-99.0
M15
G01X50.425Y-99.0
M16
G05
G00X49.575Y-119.0
M15
G01X50.425Y-119.0
M16
G05
G00X75.425Y-41.0
M15
G01X74.575Y-41.0
M16
G05
G00X75.425Y-61.0
M15
G01X74.575Y-61.0
M16
G05
G00X75.425Y-99.0
M15
G01X74.575Y-99.0
M16
G05
G00X75.425Y-119.0
M15
G01X74.575Y-119.0
M16
G05
G00X99.575Y-41.0
M15
G01X100.425Y-41.0
M16
G05
G00X99.575Y-61.0
M15
G01X100.425Y-61.0
M16
G05
G00X99.575Y-99.0
M15
G01X100.425Y-99.0
M16
G05
G00X99.575Y-119.0
M15
G01X100.425Y-119.0
M16
G05
G00X125.425Y-41.0
M15
G01X124.575Y-41.0
M16
G05
G00X125.425Y-61.0
M15
G01X124.575Y-61.0
M16
G05
G00X125.425Y-99.0
M15
G01X124.575Y-99.0
M16
G05
G00X125.425Y-119.0
M15
G01X124.575Y-119.0
M16
G05
T0
M30
