%TF.GenerationSoftware,KiCad,Pcbnew,(6.0.11)*%
%TF.CreationDate,2023-07-04T18:20:15-04:00*%
%TF.ProjectId,Batt_Rev20,42617474-5f52-4657-9632-302e6b696361,rev?*%
%TF.SameCoordinates,Original*%
%TF.FileFunction,Legend,Bot*%
%TF.FilePolarity,Positive*%
%FSLAX46Y46*%
G04 Gerber Fmt 4.6, Leading zero omitted, Abs format (unit mm)*
G04 Created by KiCad (PCBNEW (6.0.11)) date 2023-07-04 18:20:15*
%MOMM*%
%LPD*%
G01*
G04 APERTURE LIST*
G04 Aperture macros list*
%AMRoundRect*
0 Rectangle with rounded corners*
0 $1 Rounding radius*
0 $2 $3 $4 $5 $6 $7 $8 $9 X,Y pos of 4 corners*
0 Add a 4 corners polygon primitive as box body*
4,1,4,$2,$3,$4,$5,$6,$7,$8,$9,$2,$3,0*
0 Add four circle primitives for the rounded corners*
1,1,$1+$1,$2,$3*
1,1,$1+$1,$4,$5*
1,1,$1+$1,$6,$7*
1,1,$1+$1,$8,$9*
0 Add four rect primitives between the rounded corners*
20,1,$1+$1,$2,$3,$4,$5,0*
20,1,$1+$1,$4,$5,$6,$7,0*
20,1,$1+$1,$6,$7,$8,$9,0*
20,1,$1+$1,$8,$9,$2,$3,0*%
G04 Aperture macros list end*
%ADD10C,0.150000*%
%ADD11C,0.120000*%
%ADD12C,0.200000*%
%ADD13R,2.920000X1.270000*%
%ADD14R,1.650000X3.430000*%
%ADD15C,2.710000*%
%ADD16C,0.800000*%
%ADD17C,6.400000*%
%ADD18RoundRect,0.450000X-2.050000X0.450000X-2.050000X-0.450000X2.050000X-0.450000X2.050000X0.450000X0*%
%ADD19RoundRect,0.400000X-1.250000X0.600000X-1.250000X-0.600000X1.250000X-0.600000X1.250000X0.600000X0*%
%ADD20RoundRect,0.200000X-0.400000X0.200000X-0.400000X-0.200000X0.400000X-0.200000X0.400000X0.200000X0*%
%ADD21O,2.400000X1.500000*%
%ADD22RoundRect,0.360000X-1.440000X2.340000X-1.440000X-2.340000X1.440000X-2.340000X1.440000X2.340000X0*%
%ADD23RoundRect,0.540000X-2.160000X2.160000X-2.160000X-2.160000X2.160000X-2.160000X2.160000X2.160000X0*%
%ADD24RoundRect,0.400000X1.250000X-0.600000X1.250000X0.600000X-1.250000X0.600000X-1.250000X-0.600000X0*%
%ADD25RoundRect,0.450000X2.050000X-0.450000X2.050000X0.450000X-2.050000X0.450000X-2.050000X-0.450000X0*%
%ADD26RoundRect,0.540000X2.160000X-2.160000X2.160000X2.160000X-2.160000X2.160000X-2.160000X-2.160000X0*%
%ADD27RoundRect,0.200000X0.400000X-0.200000X0.400000X0.200000X-0.400000X0.200000X-0.400000X-0.200000X0*%
%ADD28RoundRect,0.360000X1.440000X-2.340000X1.440000X2.340000X-1.440000X2.340000X-1.440000X-2.340000X0*%
%ADD29RoundRect,0.200000X0.275000X-0.200000X0.275000X0.200000X-0.275000X0.200000X-0.275000X-0.200000X0*%
G04 APERTURE END LIST*
D10*
X143142857Y-61452380D02*
X143619047Y-61452380D01*
X143619047Y-60452380D01*
X142619047Y-60452380D02*
X142428571Y-60452380D01*
X142333333Y-60500000D01*
X142238095Y-60595238D01*
X142190476Y-60785714D01*
X142190476Y-61119047D01*
X142238095Y-61309523D01*
X142333333Y-61404761D01*
X142428571Y-61452380D01*
X142619047Y-61452380D01*
X142714285Y-61404761D01*
X142809523Y-61309523D01*
X142857142Y-61119047D01*
X142857142Y-60785714D01*
X142809523Y-60595238D01*
X142714285Y-60500000D01*
X142619047Y-60452380D01*
X141809523Y-61166666D02*
X141333333Y-61166666D01*
X141904761Y-61452380D02*
X141571428Y-60452380D01*
X141238095Y-61452380D01*
X140904761Y-61452380D02*
X140904761Y-60452380D01*
X140666666Y-60452380D01*
X140523809Y-60500000D01*
X140428571Y-60595238D01*
X140380952Y-60690476D01*
X140333333Y-60880952D01*
X140333333Y-61023809D01*
X140380952Y-61214285D01*
X140428571Y-61309523D01*
X140523809Y-61404761D01*
X140666666Y-61452380D01*
X140904761Y-61452380D01*
X144095238Y-109357142D02*
X144142857Y-109404761D01*
X144285714Y-109452380D01*
X144380952Y-109452380D01*
X144523809Y-109404761D01*
X144619047Y-109309523D01*
X144666666Y-109214285D01*
X144714285Y-109023809D01*
X144714285Y-108880952D01*
X144666666Y-108690476D01*
X144619047Y-108595238D01*
X144523809Y-108500000D01*
X144380952Y-108452380D01*
X144285714Y-108452380D01*
X144142857Y-108500000D01*
X144095238Y-108547619D01*
X143666666Y-109452380D02*
X143666666Y-108452380D01*
X143666666Y-108928571D02*
X143095238Y-108928571D01*
X143095238Y-109452380D02*
X143095238Y-108452380D01*
X142666666Y-109166666D02*
X142190476Y-109166666D01*
X142761904Y-109452380D02*
X142428571Y-108452380D01*
X142095238Y-109452380D01*
X141190476Y-109452380D02*
X141523809Y-108976190D01*
X141761904Y-109452380D02*
X141761904Y-108452380D01*
X141380952Y-108452380D01*
X141285714Y-108500000D01*
X141238095Y-108547619D01*
X141190476Y-108642857D01*
X141190476Y-108785714D01*
X141238095Y-108880952D01*
X141285714Y-108928571D01*
X141380952Y-108976190D01*
X141761904Y-108976190D01*
X140238095Y-108500000D02*
X140333333Y-108452380D01*
X140476190Y-108452380D01*
X140619047Y-108500000D01*
X140714285Y-108595238D01*
X140761904Y-108690476D01*
X140809523Y-108880952D01*
X140809523Y-109023809D01*
X140761904Y-109214285D01*
X140714285Y-109309523D01*
X140619047Y-109404761D01*
X140476190Y-109452380D01*
X140380952Y-109452380D01*
X140238095Y-109404761D01*
X140190476Y-109357142D01*
X140190476Y-109023809D01*
X140380952Y-109023809D01*
X139761904Y-108928571D02*
X139428571Y-108928571D01*
X139285714Y-109452380D02*
X139761904Y-109452380D01*
X139761904Y-108452380D01*
X139285714Y-108452380D01*
%TO.C,J1*%
X153432380Y-99366666D02*
X154146666Y-99366666D01*
X154289523Y-99319047D01*
X154384761Y-99223809D01*
X154432380Y-99080952D01*
X154432380Y-98985714D01*
X154432380Y-100366666D02*
X154432380Y-99795238D01*
X154432380Y-100080952D02*
X153432380Y-100080952D01*
X153575238Y-99985714D01*
X153670476Y-99890476D01*
X153718095Y-99795238D01*
%TO.C,J2*%
X151602380Y-71666666D02*
X152316666Y-71666666D01*
X152459523Y-71619047D01*
X152554761Y-71523809D01*
X152602380Y-71380952D01*
X152602380Y-71285714D01*
X151697619Y-72095238D02*
X151650000Y-72142857D01*
X151602380Y-72238095D01*
X151602380Y-72476190D01*
X151650000Y-72571428D01*
X151697619Y-72619047D01*
X151792857Y-72666666D01*
X151888095Y-72666666D01*
X152030952Y-72619047D01*
X152602380Y-72047619D01*
X152602380Y-72666666D01*
%TO.C,BT4*%
X125071428Y-80785714D02*
X125023809Y-80642857D01*
X124976190Y-80595238D01*
X124880952Y-80547619D01*
X124738095Y-80547619D01*
X124642857Y-80595238D01*
X124595238Y-80642857D01*
X124547619Y-80738095D01*
X124547619Y-81119047D01*
X125547619Y-81119047D01*
X125547619Y-80785714D01*
X125500000Y-80690476D01*
X125452380Y-80642857D01*
X125357142Y-80595238D01*
X125261904Y-80595238D01*
X125166666Y-80642857D01*
X125119047Y-80690476D01*
X125071428Y-80785714D01*
X125071428Y-81119047D01*
X125547619Y-80261904D02*
X125547619Y-79690476D01*
X124547619Y-79976190D02*
X125547619Y-79976190D01*
X125214285Y-78928571D02*
X124547619Y-78928571D01*
X125595238Y-79166666D02*
X124880952Y-79404761D01*
X124880952Y-78785714D01*
%TO.C,BT2*%
X74928571Y-79214285D02*
X74976190Y-79357142D01*
X75023809Y-79404761D01*
X75119047Y-79452380D01*
X75261904Y-79452380D01*
X75357142Y-79404761D01*
X75404761Y-79357142D01*
X75452380Y-79261904D01*
X75452380Y-78880952D01*
X74452380Y-78880952D01*
X74452380Y-79214285D01*
X74500000Y-79309523D01*
X74547619Y-79357142D01*
X74642857Y-79404761D01*
X74738095Y-79404761D01*
X74833333Y-79357142D01*
X74880952Y-79309523D01*
X74928571Y-79214285D01*
X74928571Y-78880952D01*
X74452380Y-79738095D02*
X74452380Y-80309523D01*
X75452380Y-80023809D02*
X74452380Y-80023809D01*
X74547619Y-80595238D02*
X74500000Y-80642857D01*
X74452380Y-80738095D01*
X74452380Y-80976190D01*
X74500000Y-81071428D01*
X74547619Y-81119047D01*
X74642857Y-81166666D01*
X74738095Y-81166666D01*
X74880952Y-81119047D01*
X75452380Y-80547619D01*
X75452380Y-81166666D01*
%TO.C,BT3*%
X97728571Y-79214285D02*
X97776190Y-79357142D01*
X97823809Y-79404761D01*
X97919047Y-79452380D01*
X98061904Y-79452380D01*
X98157142Y-79404761D01*
X98204761Y-79357142D01*
X98252380Y-79261904D01*
X98252380Y-78880952D01*
X97252380Y-78880952D01*
X97252380Y-79214285D01*
X97300000Y-79309523D01*
X97347619Y-79357142D01*
X97442857Y-79404761D01*
X97538095Y-79404761D01*
X97633333Y-79357142D01*
X97680952Y-79309523D01*
X97728571Y-79214285D01*
X97728571Y-78880952D01*
X97252380Y-79738095D02*
X97252380Y-80309523D01*
X98252380Y-80023809D02*
X97252380Y-80023809D01*
X97252380Y-80547619D02*
X97252380Y-81166666D01*
X97633333Y-80833333D01*
X97633333Y-80976190D01*
X97680952Y-81071428D01*
X97728571Y-81119047D01*
X97823809Y-81166666D01*
X98061904Y-81166666D01*
X98157142Y-81119047D01*
X98204761Y-81071428D01*
X98252380Y-80976190D01*
X98252380Y-80690476D01*
X98204761Y-80595238D01*
X98157142Y-80547619D01*
%TO.C,BT1*%
X50071428Y-80785714D02*
X50023809Y-80642857D01*
X49976190Y-80595238D01*
X49880952Y-80547619D01*
X49738095Y-80547619D01*
X49642857Y-80595238D01*
X49595238Y-80642857D01*
X49547619Y-80738095D01*
X49547619Y-81119047D01*
X50547619Y-81119047D01*
X50547619Y-80785714D01*
X50500000Y-80690476D01*
X50452380Y-80642857D01*
X50357142Y-80595238D01*
X50261904Y-80595238D01*
X50166666Y-80642857D01*
X50119047Y-80690476D01*
X50071428Y-80785714D01*
X50071428Y-81119047D01*
X50547619Y-80261904D02*
X50547619Y-79690476D01*
X49547619Y-79976190D02*
X50547619Y-79976190D01*
X49547619Y-78833333D02*
X49547619Y-79404761D01*
X49547619Y-79119047D02*
X50547619Y-79119047D01*
X50404761Y-79214285D01*
X50309523Y-79309523D01*
X50261904Y-79404761D01*
%TO.C,TH1*%
X111952380Y-66039285D02*
X111952380Y-66610714D01*
X112952380Y-66325000D02*
X111952380Y-66325000D01*
X112952380Y-66944047D02*
X111952380Y-66944047D01*
X112428571Y-66944047D02*
X112428571Y-67515476D01*
X112952380Y-67515476D02*
X111952380Y-67515476D01*
X112952380Y-68515476D02*
X112952380Y-67944047D01*
X112952380Y-68229761D02*
X111952380Y-68229761D01*
X112095238Y-68134523D01*
X112190476Y-68039285D01*
X112238095Y-67944047D01*
D11*
%TO.C,J1*%
X150895000Y-93265000D02*
X149380000Y-93265000D01*
X146990000Y-93265000D02*
X142765000Y-93265000D01*
X146990000Y-106135000D02*
X142765000Y-106135000D01*
X152895000Y-99700000D02*
X152895000Y-105135000D01*
X152895000Y-105135000D02*
X150895000Y-106135000D01*
X142765000Y-93265000D02*
X142765000Y-95695000D01*
X152895000Y-94265000D02*
X150895000Y-93265000D01*
X152895000Y-99700000D02*
X152895000Y-94265000D01*
X142765000Y-103705000D02*
X141305000Y-103705000D01*
X150895000Y-106135000D02*
X149380000Y-106135000D01*
X142765000Y-106135000D02*
X142765000Y-103705000D01*
%TO.C,J2*%
X140940000Y-78435000D02*
X140940000Y-76005000D01*
X144775000Y-78435000D02*
X140940000Y-78435000D01*
X140940000Y-65565000D02*
X140940000Y-67995000D01*
X140940000Y-76005000D02*
X139480000Y-76005000D01*
X151060000Y-66565000D02*
X149060000Y-65565000D01*
X151060000Y-72000000D02*
X151060000Y-66565000D01*
X144775000Y-65565000D02*
X140940000Y-65565000D01*
X149060000Y-78435000D02*
X148075000Y-78435000D01*
X151060000Y-77435000D02*
X149060000Y-78435000D01*
X151060000Y-72000000D02*
X151060000Y-77435000D01*
X149060000Y-65565000D02*
X148075000Y-65565000D01*
D12*
%TO.C,BT4*%
X125000000Y-85000000D02*
X125000000Y-87000000D01*
X124000000Y-86000000D02*
X126000000Y-86000000D01*
X125000000Y-71000000D02*
X125000000Y-73000000D01*
D11*
X115000000Y-45000000D02*
X135000000Y-45000000D01*
X135000000Y-45000000D02*
X135000000Y-115000000D01*
X135000000Y-115000000D02*
X115000000Y-115000000D01*
X115000000Y-115000000D02*
X115000000Y-45000000D01*
X123000000Y-88000000D02*
X127000000Y-88000000D01*
X127000000Y-88000000D02*
X127000000Y-90000000D01*
X127000000Y-90000000D02*
X123000000Y-90000000D01*
X123000000Y-90000000D02*
X123000000Y-88000000D01*
X122000000Y-70000000D02*
X128000000Y-70000000D01*
X128000000Y-70000000D02*
X128000000Y-88000000D01*
X128000000Y-88000000D02*
X122000000Y-88000000D01*
X122000000Y-88000000D02*
X122000000Y-70000000D01*
D12*
%TO.C,BT2*%
X75000000Y-85000000D02*
X75000000Y-87000000D01*
X74000000Y-86000000D02*
X76000000Y-86000000D01*
X75000000Y-71000000D02*
X75000000Y-73000000D01*
D11*
X73000000Y-88000000D02*
X77000000Y-88000000D01*
X77000000Y-88000000D02*
X77000000Y-90000000D01*
X77000000Y-90000000D02*
X73000000Y-90000000D01*
X73000000Y-90000000D02*
X73000000Y-88000000D01*
X65000000Y-45000000D02*
X85000000Y-45000000D01*
X85000000Y-45000000D02*
X85000000Y-115000000D01*
X85000000Y-115000000D02*
X65000000Y-115000000D01*
X65000000Y-115000000D02*
X65000000Y-45000000D01*
X72000000Y-70000000D02*
X78000000Y-70000000D01*
X78000000Y-70000000D02*
X78000000Y-88000000D01*
X78000000Y-88000000D02*
X72000000Y-88000000D01*
X72000000Y-88000000D02*
X72000000Y-70000000D01*
D12*
%TO.C,BT3*%
X100000000Y-75000000D02*
X100000000Y-73000000D01*
X101000000Y-74000000D02*
X99000000Y-74000000D01*
X100000000Y-89000000D02*
X100000000Y-87000000D01*
D11*
X103000000Y-90000000D02*
X97000000Y-90000000D01*
X97000000Y-90000000D02*
X97000000Y-72000000D01*
X97000000Y-72000000D02*
X103000000Y-72000000D01*
X103000000Y-72000000D02*
X103000000Y-90000000D01*
X110000000Y-115000000D02*
X90000000Y-115000000D01*
X90000000Y-115000000D02*
X90000000Y-45000000D01*
X90000000Y-45000000D02*
X110000000Y-45000000D01*
X110000000Y-45000000D02*
X110000000Y-115000000D01*
X102000000Y-72000000D02*
X98000000Y-72000000D01*
X98000000Y-72000000D02*
X98000000Y-70000000D01*
X98000000Y-70000000D02*
X102000000Y-70000000D01*
X102000000Y-70000000D02*
X102000000Y-72000000D01*
D12*
%TO.C,BT1*%
X50000000Y-75000000D02*
X50000000Y-73000000D01*
X50000000Y-89000000D02*
X50000000Y-87000000D01*
X51000000Y-74000000D02*
X49000000Y-74000000D01*
D11*
X52000000Y-72000000D02*
X48000000Y-72000000D01*
X48000000Y-72000000D02*
X48000000Y-70000000D01*
X48000000Y-70000000D02*
X52000000Y-70000000D01*
X52000000Y-70000000D02*
X52000000Y-72000000D01*
X60000000Y-115000000D02*
X40000000Y-115000000D01*
X40000000Y-115000000D02*
X40000000Y-45000000D01*
X40000000Y-45000000D02*
X60000000Y-45000000D01*
X60000000Y-45000000D02*
X60000000Y-115000000D01*
X53000000Y-90000000D02*
X47000000Y-90000000D01*
X47000000Y-90000000D02*
X47000000Y-72000000D01*
X47000000Y-72000000D02*
X53000000Y-72000000D01*
X53000000Y-72000000D02*
X53000000Y-90000000D01*
%TO.C,TH1*%
X113022500Y-70562258D02*
X113022500Y-70087742D01*
X111977500Y-70562258D02*
X111977500Y-70087742D01*
%TD*%
%LPC*%
D13*
%TO.C,J1*%
X142715000Y-102700000D03*
X142715000Y-99700000D03*
X142715000Y-96700000D03*
X138085000Y-102700000D03*
X138085000Y-99700000D03*
X138085000Y-96700000D03*
D14*
X148185000Y-106585000D03*
X148185000Y-92815000D03*
%TD*%
D13*
%TO.C,J2*%
X140880000Y-75000000D03*
X140880000Y-72000000D03*
X140880000Y-69000000D03*
D15*
X146350000Y-77150000D03*
X146350000Y-66850000D03*
%TD*%
D16*
%TO.C,H2*%
X142000000Y-117600000D03*
X142000000Y-122400000D03*
X140302944Y-121697056D03*
X143697056Y-118302944D03*
X144400000Y-120000000D03*
X139600000Y-120000000D03*
X143697056Y-121697056D03*
D17*
X142000000Y-120000000D03*
D16*
X140302944Y-118302944D03*
%TD*%
D17*
%TO.C,H1*%
X142000000Y-40000000D03*
D16*
X139600000Y-40000000D03*
X140302944Y-38302944D03*
X142000000Y-42400000D03*
X140302944Y-41697056D03*
X143697056Y-41697056D03*
X144400000Y-40000000D03*
X143697056Y-38302944D03*
X142000000Y-37600000D03*
%TD*%
D18*
%TO.C,BT4*%
X125000000Y-62600000D03*
D19*
X125000000Y-42600000D03*
D20*
X126800000Y-61000000D03*
D18*
X125000000Y-59380000D03*
D21*
X125000000Y-41000000D03*
D19*
X125000000Y-39400000D03*
D21*
X125000000Y-61000000D03*
D22*
X125000000Y-41000000D03*
D23*
X125000000Y-61000000D03*
D20*
X123200000Y-61000000D03*
D21*
X125000000Y-99000000D03*
D19*
X125000000Y-120600000D03*
D22*
X125000000Y-119000000D03*
D18*
X125000000Y-100620000D03*
D23*
X125000000Y-99000000D03*
D19*
X125000000Y-117400000D03*
D18*
X125000000Y-97400000D03*
D20*
X126800000Y-99020000D03*
X123200000Y-99020000D03*
D21*
X125000000Y-119000000D03*
%TD*%
D18*
%TO.C,BT2*%
X75000000Y-62600000D03*
D23*
X75000000Y-61000000D03*
D20*
X73200000Y-61000000D03*
D19*
X75000000Y-39400000D03*
X75000000Y-42600000D03*
D21*
X75000000Y-41000000D03*
D18*
X75000000Y-59380000D03*
D22*
X75000000Y-41000000D03*
D20*
X76800000Y-61000000D03*
D21*
X75000000Y-61000000D03*
D18*
X75000000Y-100620000D03*
D20*
X76800000Y-99020000D03*
D19*
X75000000Y-117400000D03*
X75000000Y-120600000D03*
D23*
X75000000Y-99000000D03*
D22*
X75000000Y-119000000D03*
D21*
X75000000Y-99000000D03*
X75000000Y-119000000D03*
D18*
X75000000Y-97400000D03*
D20*
X73200000Y-99020000D03*
%TD*%
D21*
%TO.C,BT3*%
X100000000Y-119000000D03*
D24*
X100000000Y-120600000D03*
D25*
X100000000Y-100620000D03*
D26*
X100000000Y-99000000D03*
D27*
X98200000Y-99000000D03*
X101800000Y-99000000D03*
D21*
X100000000Y-99000000D03*
D28*
X100000000Y-119000000D03*
D25*
X100000000Y-97400000D03*
D24*
X100000000Y-117400000D03*
D25*
X100000000Y-59380000D03*
X100000000Y-62600000D03*
D27*
X101800000Y-60980000D03*
D24*
X100000000Y-39400000D03*
D21*
X100000000Y-41000000D03*
X100000000Y-61000000D03*
D27*
X98200000Y-60980000D03*
D28*
X100000000Y-41000000D03*
D24*
X100000000Y-42600000D03*
D26*
X100000000Y-61000000D03*
%TD*%
%TO.C,BT1*%
X50000000Y-99000000D03*
D25*
X50000000Y-100620000D03*
D24*
X50000000Y-120600000D03*
D27*
X48200000Y-99000000D03*
D25*
X50000000Y-97400000D03*
D21*
X50000000Y-99000000D03*
D24*
X50000000Y-117400000D03*
D28*
X50000000Y-119000000D03*
D27*
X51800000Y-99000000D03*
D21*
X50000000Y-119000000D03*
D24*
X50000000Y-39400000D03*
D25*
X50000000Y-59380000D03*
D24*
X50000000Y-42600000D03*
D21*
X50000000Y-61000000D03*
D27*
X51800000Y-60980000D03*
D28*
X50000000Y-41000000D03*
D26*
X50000000Y-61000000D03*
D27*
X48200000Y-60980000D03*
D21*
X50000000Y-41000000D03*
D25*
X50000000Y-62600000D03*
%TD*%
D29*
%TO.C,TH1*%
X112500000Y-71150000D03*
X112500000Y-69500000D03*
%TD*%
M02*
