%TF.GenerationSoftware,KiCad,Pcbnew,(6.0.11)*%
%TF.CreationDate,2023-07-04T18:20:15-04:00*%
%TF.ProjectId,Batt_Rev20,42617474-5f52-4657-9632-302e6b696361,rev?*%
%TF.SameCoordinates,Original*%
%TF.FileFunction,Legend,Top*%
%TF.FilePolarity,Positive*%
%FSLAX46Y46*%
G04 Gerber Fmt 4.6, Leading zero omitted, Abs format (unit mm)*
G04 Created by KiCad (PCBNEW (6.0.11)) date 2023-07-04 18:20:15*
%MOMM*%
%LPD*%
G01*
G04 APERTURE LIST*
G04 Aperture macros list*
%AMRoundRect*
0 Rectangle with rounded corners*
0 $1 Rounding radius*
0 $2 $3 $4 $5 $6 $7 $8 $9 X,Y pos of 4 corners*
0 Add a 4 corners polygon primitive as box body*
4,1,4,$2,$3,$4,$5,$6,$7,$8,$9,$2,$3,0*
0 Add four circle primitives for the rounded corners*
1,1,$1+$1,$2,$3*
1,1,$1+$1,$4,$5*
1,1,$1+$1,$6,$7*
1,1,$1+$1,$8,$9*
0 Add four rect primitives between the rounded corners*
20,1,$1+$1,$2,$3,$4,$5,0*
20,1,$1+$1,$4,$5,$6,$7,0*
20,1,$1+$1,$6,$7,$8,$9,0*
20,1,$1+$1,$8,$9,$2,$3,0*%
%AMFreePoly0*
4,1,21,1.372500,0.787500,0.862500,0.787500,0.862500,0.532500,1.372500,0.532500,1.372500,0.127500,0.862500,0.127500,0.862500,-0.127500,1.372500,-0.127500,1.372500,-0.532500,0.862500,-0.532500,0.862500,-0.787500,1.372500,-0.787500,1.372500,-1.195000,0.612500,-1.195000,0.612500,-1.117500,-0.862500,-1.117500,-0.862500,1.117500,0.612500,1.117500,0.612500,1.195000,1.372500,1.195000,
1.372500,0.787500,1.372500,0.787500,$1*%
G04 Aperture macros list end*
%ADD10C,0.150000*%
%ADD11C,0.120000*%
%ADD12C,0.314000*%
%ADD13C,2.710000*%
%ADD14RoundRect,0.175000X-0.175000X-0.275000X0.175000X-0.275000X0.175000X0.275000X-0.175000X0.275000X0*%
%ADD15RoundRect,0.150000X0.150000X0.300000X-0.150000X0.300000X-0.150000X-0.300000X0.150000X-0.300000X0*%
%ADD16RoundRect,0.150000X-0.150000X-0.300000X0.150000X-0.300000X0.150000X0.300000X-0.150000X0.300000X0*%
%ADD17RoundRect,0.150000X-0.300000X0.150000X-0.300000X-0.150000X0.300000X-0.150000X0.300000X0.150000X0*%
%ADD18RoundRect,0.175000X-0.275000X-0.175000X0.275000X-0.175000X0.275000X0.175000X-0.275000X0.175000X0*%
%ADD19R,0.990000X0.405000*%
%ADD20FreePoly0,180.000000*%
%ADD21RoundRect,0.177778X-0.222222X-0.697222X0.222222X-0.697222X0.222222X0.697222X-0.222222X0.697222X0*%
%ADD22RoundRect,0.175000X0.175000X0.275000X-0.175000X0.275000X-0.175000X-0.275000X0.175000X-0.275000X0*%
%ADD23FreePoly0,0.000000*%
%ADD24R,0.600000X0.450000*%
%ADD25R,0.700000X0.600000*%
%ADD26C,0.800000*%
%ADD27C,6.400000*%
%ADD28RoundRect,0.150000X0.300000X-0.150000X0.300000X0.150000X-0.300000X0.150000X-0.300000X-0.150000X0*%
%ADD29R,0.600000X0.700000*%
%ADD30RoundRect,0.100000X-0.600000X-0.100000X0.600000X-0.100000X0.600000X0.100000X-0.600000X0.100000X0*%
%ADD31O,2.400000X1.500000*%
G04 APERTURE END LIST*
D10*
X53904761Y-78980714D02*
X53904761Y-79647380D01*
X53666666Y-78599761D02*
X53428571Y-79314047D01*
X54047619Y-79314047D01*
X54380952Y-79599761D02*
X54523809Y-79647380D01*
X54761904Y-79647380D01*
X54857142Y-79599761D01*
X54904761Y-79552142D01*
X54952380Y-79456904D01*
X54952380Y-79361666D01*
X54904761Y-79266428D01*
X54857142Y-79218809D01*
X54761904Y-79171190D01*
X54571428Y-79123571D01*
X54476190Y-79075952D01*
X54428571Y-79028333D01*
X54380952Y-78933095D01*
X54380952Y-78837857D01*
X54428571Y-78742619D01*
X54476190Y-78695000D01*
X54571428Y-78647380D01*
X54809523Y-78647380D01*
X54952380Y-78695000D01*
X56619047Y-79647380D02*
X56142857Y-79647380D01*
X56142857Y-78647380D01*
X56952380Y-79647380D02*
X56952380Y-78980714D01*
X56952380Y-78647380D02*
X56904761Y-78695000D01*
X56952380Y-78742619D01*
X57000000Y-78695000D01*
X56952380Y-78647380D01*
X56952380Y-78742619D01*
X57428571Y-79266428D02*
X58190476Y-79266428D01*
X58666666Y-79647380D02*
X58666666Y-78647380D01*
X59285714Y-79647380D02*
X59190476Y-79599761D01*
X59142857Y-79552142D01*
X59095238Y-79456904D01*
X59095238Y-79171190D01*
X59142857Y-79075952D01*
X59190476Y-79028333D01*
X59285714Y-78980714D01*
X59428571Y-78980714D01*
X59523809Y-79028333D01*
X59571428Y-79075952D01*
X59619047Y-79171190D01*
X59619047Y-79456904D01*
X59571428Y-79552142D01*
X59523809Y-79599761D01*
X59428571Y-79647380D01*
X59285714Y-79647380D01*
X60047619Y-78980714D02*
X60047619Y-79647380D01*
X60047619Y-79075952D02*
X60095238Y-79028333D01*
X60190476Y-78980714D01*
X60333333Y-78980714D01*
X60428571Y-79028333D01*
X60476190Y-79123571D01*
X60476190Y-79647380D01*
X62047619Y-79123571D02*
X62190476Y-79171190D01*
X62238095Y-79218809D01*
X62285714Y-79314047D01*
X62285714Y-79456904D01*
X62238095Y-79552142D01*
X62190476Y-79599761D01*
X62095238Y-79647380D01*
X61714285Y-79647380D01*
X61714285Y-78647380D01*
X62047619Y-78647380D01*
X62142857Y-78695000D01*
X62190476Y-78742619D01*
X62238095Y-78837857D01*
X62238095Y-78933095D01*
X62190476Y-79028333D01*
X62142857Y-79075952D01*
X62047619Y-79123571D01*
X61714285Y-79123571D01*
X63142857Y-79647380D02*
X63142857Y-79123571D01*
X63095238Y-79028333D01*
X63000000Y-78980714D01*
X62809523Y-78980714D01*
X62714285Y-79028333D01*
X63142857Y-79599761D02*
X63047619Y-79647380D01*
X62809523Y-79647380D01*
X62714285Y-79599761D01*
X62666666Y-79504523D01*
X62666666Y-79409285D01*
X62714285Y-79314047D01*
X62809523Y-79266428D01*
X63047619Y-79266428D01*
X63142857Y-79218809D01*
X63476190Y-78980714D02*
X63857142Y-78980714D01*
X63619047Y-78647380D02*
X63619047Y-79504523D01*
X63666666Y-79599761D01*
X63761904Y-79647380D01*
X63857142Y-79647380D01*
X64047619Y-78980714D02*
X64428571Y-78980714D01*
X64190476Y-78647380D02*
X64190476Y-79504523D01*
X64238095Y-79599761D01*
X64333333Y-79647380D01*
X64428571Y-79647380D01*
X65142857Y-79599761D02*
X65047619Y-79647380D01*
X64857142Y-79647380D01*
X64761904Y-79599761D01*
X64714285Y-79504523D01*
X64714285Y-79123571D01*
X64761904Y-79028333D01*
X64857142Y-78980714D01*
X65047619Y-78980714D01*
X65142857Y-79028333D01*
X65190476Y-79123571D01*
X65190476Y-79218809D01*
X64714285Y-79314047D01*
X65619047Y-79647380D02*
X65619047Y-78980714D01*
X65619047Y-79171190D02*
X65666666Y-79075952D01*
X65714285Y-79028333D01*
X65809523Y-78980714D01*
X65904761Y-78980714D01*
X66142857Y-78980714D02*
X66380952Y-79647380D01*
X66619047Y-78980714D02*
X66380952Y-79647380D01*
X66285714Y-79885476D01*
X66238095Y-79933095D01*
X66142857Y-79980714D01*
X47499999Y-81257380D02*
X47166666Y-80781190D01*
X46928571Y-81257380D02*
X46928571Y-80257380D01*
X47309523Y-80257380D01*
X47404761Y-80305000D01*
X47452380Y-80352619D01*
X47499999Y-80447857D01*
X47499999Y-80590714D01*
X47452380Y-80685952D01*
X47404761Y-80733571D01*
X47309523Y-80781190D01*
X46928571Y-80781190D01*
X48309523Y-81209761D02*
X48214285Y-81257380D01*
X48023809Y-81257380D01*
X47928571Y-81209761D01*
X47880952Y-81114523D01*
X47880952Y-80733571D01*
X47928571Y-80638333D01*
X48023809Y-80590714D01*
X48214285Y-80590714D01*
X48309523Y-80638333D01*
X48357142Y-80733571D01*
X48357142Y-80828809D01*
X47880952Y-80924047D01*
X48690476Y-80590714D02*
X48928571Y-81257380D01*
X49166666Y-80590714D01*
X50261904Y-80971666D02*
X50738095Y-80971666D01*
X50166666Y-81257380D02*
X50499999Y-80257380D01*
X50833333Y-81257380D01*
X52166666Y-81590714D02*
X52166666Y-80162142D01*
X53928571Y-80257380D02*
X53928571Y-80971666D01*
X53880952Y-81114523D01*
X53785714Y-81209761D01*
X53642857Y-81257380D01*
X53547619Y-81257380D01*
X54833333Y-80590714D02*
X54833333Y-81257380D01*
X54404761Y-80590714D02*
X54404761Y-81114523D01*
X54452380Y-81209761D01*
X54547619Y-81257380D01*
X54690476Y-81257380D01*
X54785714Y-81209761D01*
X54833333Y-81162142D01*
X55309523Y-80590714D02*
X55309523Y-81257380D01*
X55309523Y-80685952D02*
X55357142Y-80638333D01*
X55452380Y-80590714D01*
X55595238Y-80590714D01*
X55690476Y-80638333D01*
X55738095Y-80733571D01*
X55738095Y-81257380D01*
X56928571Y-80352619D02*
X56976190Y-80305000D01*
X57071428Y-80257380D01*
X57309523Y-80257380D01*
X57404761Y-80305000D01*
X57452380Y-80352619D01*
X57499999Y-80447857D01*
X57499999Y-80543095D01*
X57452380Y-80685952D01*
X56880952Y-81257380D01*
X57499999Y-81257380D01*
X58119047Y-80257380D02*
X58214285Y-80257380D01*
X58309523Y-80305000D01*
X58357142Y-80352619D01*
X58404761Y-80447857D01*
X58452380Y-80638333D01*
X58452380Y-80876428D01*
X58404761Y-81066904D01*
X58357142Y-81162142D01*
X58309523Y-81209761D01*
X58214285Y-81257380D01*
X58119047Y-81257380D01*
X58023809Y-81209761D01*
X57976190Y-81162142D01*
X57928571Y-81066904D01*
X57880952Y-80876428D01*
X57880952Y-80638333D01*
X57928571Y-80447857D01*
X57976190Y-80352619D01*
X58023809Y-80305000D01*
X58119047Y-80257380D01*
X58833333Y-80352619D02*
X58880952Y-80305000D01*
X58976190Y-80257380D01*
X59214285Y-80257380D01*
X59309523Y-80305000D01*
X59357142Y-80352619D01*
X59404761Y-80447857D01*
X59404761Y-80543095D01*
X59357142Y-80685952D01*
X58785714Y-81257380D01*
X59404761Y-81257380D01*
X59738095Y-80257380D02*
X60357142Y-80257380D01*
X60023809Y-80638333D01*
X60166666Y-80638333D01*
X60261904Y-80685952D01*
X60309523Y-80733571D01*
X60357142Y-80828809D01*
X60357142Y-81066904D01*
X60309523Y-81162142D01*
X60261904Y-81209761D01*
X60166666Y-81257380D01*
X59880952Y-81257380D01*
X59785714Y-81209761D01*
X59738095Y-81162142D01*
X61785714Y-81590714D02*
X61785714Y-80162142D01*
X63833333Y-81162142D02*
X63785714Y-81209761D01*
X63642857Y-81257380D01*
X63547619Y-81257380D01*
X63404761Y-81209761D01*
X63309523Y-81114523D01*
X63261904Y-81019285D01*
X63214285Y-80828809D01*
X63214285Y-80685952D01*
X63261904Y-80495476D01*
X63309523Y-80400238D01*
X63404761Y-80305000D01*
X63547619Y-80257380D01*
X63642857Y-80257380D01*
X63785714Y-80305000D01*
X63833333Y-80352619D01*
X64690476Y-80590714D02*
X64690476Y-81257380D01*
X64261904Y-80590714D02*
X64261904Y-81114523D01*
X64309523Y-81209761D01*
X64404761Y-81257380D01*
X64547619Y-81257380D01*
X64642857Y-81209761D01*
X64690476Y-81162142D01*
X65166666Y-81257380D02*
X65166666Y-80590714D01*
X65166666Y-80781190D02*
X65214285Y-80685952D01*
X65261904Y-80638333D01*
X65357142Y-80590714D01*
X65452380Y-80590714D01*
X65642857Y-80590714D02*
X66023809Y-80590714D01*
X65785714Y-80257380D02*
X65785714Y-81114523D01*
X65833333Y-81209761D01*
X65928571Y-81257380D01*
X66023809Y-81257380D01*
X66357142Y-81257380D02*
X66357142Y-80590714D01*
X66357142Y-80257380D02*
X66309523Y-80305000D01*
X66357142Y-80352619D01*
X66404761Y-80305000D01*
X66357142Y-80257380D01*
X66357142Y-80352619D01*
X66785714Y-81209761D02*
X66880952Y-81257380D01*
X67071428Y-81257380D01*
X67166666Y-81209761D01*
X67214285Y-81114523D01*
X67214285Y-81066904D01*
X67166666Y-80971666D01*
X67071428Y-80924047D01*
X66928571Y-80924047D01*
X66833333Y-80876428D01*
X66785714Y-80781190D01*
X66785714Y-80733571D01*
X66833333Y-80638333D01*
X66928571Y-80590714D01*
X67071428Y-80590714D01*
X67166666Y-80638333D01*
X68357142Y-81209761D02*
X68499999Y-81257380D01*
X68738095Y-81257380D01*
X68833333Y-81209761D01*
X68880952Y-81162142D01*
X68928571Y-81066904D01*
X68928571Y-80971666D01*
X68880952Y-80876428D01*
X68833333Y-80828809D01*
X68738095Y-80781190D01*
X68547619Y-80733571D01*
X68452380Y-80685952D01*
X68404761Y-80638333D01*
X68357142Y-80543095D01*
X68357142Y-80447857D01*
X68404761Y-80352619D01*
X68452380Y-80305000D01*
X68547619Y-80257380D01*
X68785714Y-80257380D01*
X68928571Y-80305000D01*
X69738095Y-81209761D02*
X69642857Y-81257380D01*
X69452380Y-81257380D01*
X69357142Y-81209761D01*
X69309523Y-81114523D01*
X69309523Y-80733571D01*
X69357142Y-80638333D01*
X69452380Y-80590714D01*
X69642857Y-80590714D01*
X69738095Y-80638333D01*
X69785714Y-80733571D01*
X69785714Y-80828809D01*
X69309523Y-80924047D01*
X70214285Y-81257380D02*
X70214285Y-80590714D01*
X70214285Y-80257380D02*
X70166666Y-80305000D01*
X70214285Y-80352619D01*
X70261904Y-80305000D01*
X70214285Y-80257380D01*
X70214285Y-80352619D01*
X70595238Y-80590714D02*
X71119047Y-80590714D01*
X70595238Y-81257380D01*
X71119047Y-81257380D01*
X71880952Y-81209761D02*
X71785714Y-81257380D01*
X71595238Y-81257380D01*
X71500000Y-81209761D01*
X71452380Y-81114523D01*
X71452380Y-80733571D01*
X71500000Y-80638333D01*
X71595238Y-80590714D01*
X71785714Y-80590714D01*
X71880952Y-80638333D01*
X71928571Y-80733571D01*
X71928571Y-80828809D01*
X71452380Y-80924047D01*
X72357142Y-81257380D02*
X72357142Y-80590714D01*
X72357142Y-80781190D02*
X72404761Y-80685952D01*
X72452380Y-80638333D01*
X72547619Y-80590714D01*
X72642857Y-80590714D01*
X72833333Y-80590714D02*
X73214285Y-80590714D01*
X72976190Y-80257380D02*
X72976190Y-81114523D01*
X73023809Y-81209761D01*
X73119047Y-81257380D01*
X73214285Y-81257380D01*
%TO.C,C6*%
X108370833Y-76282142D02*
X108323214Y-76329761D01*
X108180357Y-76377380D01*
X108085119Y-76377380D01*
X107942261Y-76329761D01*
X107847023Y-76234523D01*
X107799404Y-76139285D01*
X107751785Y-75948809D01*
X107751785Y-75805952D01*
X107799404Y-75615476D01*
X107847023Y-75520238D01*
X107942261Y-75425000D01*
X108085119Y-75377380D01*
X108180357Y-75377380D01*
X108323214Y-75425000D01*
X108370833Y-75472619D01*
X109227976Y-75377380D02*
X109037500Y-75377380D01*
X108942261Y-75425000D01*
X108894642Y-75472619D01*
X108799404Y-75615476D01*
X108751785Y-75805952D01*
X108751785Y-76186904D01*
X108799404Y-76282142D01*
X108847023Y-76329761D01*
X108942261Y-76377380D01*
X109132738Y-76377380D01*
X109227976Y-76329761D01*
X109275595Y-76282142D01*
X109323214Y-76186904D01*
X109323214Y-75948809D01*
X109275595Y-75853571D01*
X109227976Y-75805952D01*
X109132738Y-75758333D01*
X108942261Y-75758333D01*
X108847023Y-75805952D01*
X108799404Y-75853571D01*
X108751785Y-75948809D01*
%TO.C,R11*%
X107894642Y-77877380D02*
X107561309Y-77401190D01*
X107323214Y-77877380D02*
X107323214Y-76877380D01*
X107704166Y-76877380D01*
X107799404Y-76925000D01*
X107847023Y-76972619D01*
X107894642Y-77067857D01*
X107894642Y-77210714D01*
X107847023Y-77305952D01*
X107799404Y-77353571D01*
X107704166Y-77401190D01*
X107323214Y-77401190D01*
X108847023Y-77877380D02*
X108275595Y-77877380D01*
X108561309Y-77877380D02*
X108561309Y-76877380D01*
X108466071Y-77020238D01*
X108370833Y-77115476D01*
X108275595Y-77163095D01*
X109799404Y-77877380D02*
X109227976Y-77877380D01*
X109513690Y-77877380D02*
X109513690Y-76877380D01*
X109418452Y-77020238D01*
X109323214Y-77115476D01*
X109227976Y-77163095D01*
%TO.C,R20*%
X122294642Y-69697380D02*
X121961309Y-69221190D01*
X121723214Y-69697380D02*
X121723214Y-68697380D01*
X122104166Y-68697380D01*
X122199404Y-68745000D01*
X122247023Y-68792619D01*
X122294642Y-68887857D01*
X122294642Y-69030714D01*
X122247023Y-69125952D01*
X122199404Y-69173571D01*
X122104166Y-69221190D01*
X121723214Y-69221190D01*
X122675595Y-68792619D02*
X122723214Y-68745000D01*
X122818452Y-68697380D01*
X123056547Y-68697380D01*
X123151785Y-68745000D01*
X123199404Y-68792619D01*
X123247023Y-68887857D01*
X123247023Y-68983095D01*
X123199404Y-69125952D01*
X122627976Y-69697380D01*
X123247023Y-69697380D01*
X123866071Y-68697380D02*
X123961309Y-68697380D01*
X124056547Y-68745000D01*
X124104166Y-68792619D01*
X124151785Y-68887857D01*
X124199404Y-69078333D01*
X124199404Y-69316428D01*
X124151785Y-69506904D01*
X124104166Y-69602142D01*
X124056547Y-69649761D01*
X123961309Y-69697380D01*
X123866071Y-69697380D01*
X123770833Y-69649761D01*
X123723214Y-69602142D01*
X123675595Y-69506904D01*
X123627976Y-69316428D01*
X123627976Y-69078333D01*
X123675595Y-68887857D01*
X123723214Y-68792619D01*
X123770833Y-68745000D01*
X123866071Y-68697380D01*
%TO.C,R23*%
X129352380Y-79242857D02*
X128876190Y-79576190D01*
X129352380Y-79814285D02*
X128352380Y-79814285D01*
X128352380Y-79433333D01*
X128400000Y-79338095D01*
X128447619Y-79290476D01*
X128542857Y-79242857D01*
X128685714Y-79242857D01*
X128780952Y-79290476D01*
X128828571Y-79338095D01*
X128876190Y-79433333D01*
X128876190Y-79814285D01*
X128447619Y-78861904D02*
X128400000Y-78814285D01*
X128352380Y-78719047D01*
X128352380Y-78480952D01*
X128400000Y-78385714D01*
X128447619Y-78338095D01*
X128542857Y-78290476D01*
X128638095Y-78290476D01*
X128780952Y-78338095D01*
X129352380Y-78909523D01*
X129352380Y-78290476D01*
X128352380Y-77957142D02*
X128352380Y-77338095D01*
X128733333Y-77671428D01*
X128733333Y-77528571D01*
X128780952Y-77433333D01*
X128828571Y-77385714D01*
X128923809Y-77338095D01*
X129161904Y-77338095D01*
X129257142Y-77385714D01*
X129304761Y-77433333D01*
X129352380Y-77528571D01*
X129352380Y-77814285D01*
X129304761Y-77909523D01*
X129257142Y-77957142D01*
%TO.C,Q5*%
X118904761Y-93147619D02*
X118809523Y-93100000D01*
X118714285Y-93004761D01*
X118571428Y-92861904D01*
X118476190Y-92814285D01*
X118380952Y-92814285D01*
X118428571Y-93052380D02*
X118333333Y-93004761D01*
X118238095Y-92909523D01*
X118190476Y-92719047D01*
X118190476Y-92385714D01*
X118238095Y-92195238D01*
X118333333Y-92100000D01*
X118428571Y-92052380D01*
X118619047Y-92052380D01*
X118714285Y-92100000D01*
X118809523Y-92195238D01*
X118857142Y-92385714D01*
X118857142Y-92719047D01*
X118809523Y-92909523D01*
X118714285Y-93004761D01*
X118619047Y-93052380D01*
X118428571Y-93052380D01*
X119761904Y-92052380D02*
X119285714Y-92052380D01*
X119238095Y-92528571D01*
X119285714Y-92480952D01*
X119380952Y-92433333D01*
X119619047Y-92433333D01*
X119714285Y-92480952D01*
X119761904Y-92528571D01*
X119809523Y-92623809D01*
X119809523Y-92861904D01*
X119761904Y-92957142D01*
X119714285Y-93004761D01*
X119619047Y-93052380D01*
X119380952Y-93052380D01*
X119285714Y-93004761D01*
X119238095Y-92957142D01*
%TO.C,Q3*%
X112129761Y-83347619D02*
X112034523Y-83300000D01*
X111939285Y-83204761D01*
X111796428Y-83061904D01*
X111701190Y-83014285D01*
X111605952Y-83014285D01*
X111653571Y-83252380D02*
X111558333Y-83204761D01*
X111463095Y-83109523D01*
X111415476Y-82919047D01*
X111415476Y-82585714D01*
X111463095Y-82395238D01*
X111558333Y-82300000D01*
X111653571Y-82252380D01*
X111844047Y-82252380D01*
X111939285Y-82300000D01*
X112034523Y-82395238D01*
X112082142Y-82585714D01*
X112082142Y-82919047D01*
X112034523Y-83109523D01*
X111939285Y-83204761D01*
X111844047Y-83252380D01*
X111653571Y-83252380D01*
X112415476Y-82252380D02*
X113034523Y-82252380D01*
X112701190Y-82633333D01*
X112844047Y-82633333D01*
X112939285Y-82680952D01*
X112986904Y-82728571D01*
X113034523Y-82823809D01*
X113034523Y-83061904D01*
X112986904Y-83157142D01*
X112939285Y-83204761D01*
X112844047Y-83252380D01*
X112558333Y-83252380D01*
X112463095Y-83204761D01*
X112415476Y-83157142D01*
%TO.C,R16*%
X122294642Y-72677380D02*
X121961309Y-72201190D01*
X121723214Y-72677380D02*
X121723214Y-71677380D01*
X122104166Y-71677380D01*
X122199404Y-71725000D01*
X122247023Y-71772619D01*
X122294642Y-71867857D01*
X122294642Y-72010714D01*
X122247023Y-72105952D01*
X122199404Y-72153571D01*
X122104166Y-72201190D01*
X121723214Y-72201190D01*
X123247023Y-72677380D02*
X122675595Y-72677380D01*
X122961309Y-72677380D02*
X122961309Y-71677380D01*
X122866071Y-71820238D01*
X122770833Y-71915476D01*
X122675595Y-71963095D01*
X124104166Y-71677380D02*
X123913690Y-71677380D01*
X123818452Y-71725000D01*
X123770833Y-71772619D01*
X123675595Y-71915476D01*
X123627976Y-72105952D01*
X123627976Y-72486904D01*
X123675595Y-72582142D01*
X123723214Y-72629761D01*
X123818452Y-72677380D01*
X124008928Y-72677380D01*
X124104166Y-72629761D01*
X124151785Y-72582142D01*
X124199404Y-72486904D01*
X124199404Y-72248809D01*
X124151785Y-72153571D01*
X124104166Y-72105952D01*
X124008928Y-72058333D01*
X123818452Y-72058333D01*
X123723214Y-72105952D01*
X123675595Y-72153571D01*
X123627976Y-72248809D01*
%TO.C,R4*%
X99970833Y-70352380D02*
X99637500Y-69876190D01*
X99399404Y-70352380D02*
X99399404Y-69352380D01*
X99780357Y-69352380D01*
X99875595Y-69400000D01*
X99923214Y-69447619D01*
X99970833Y-69542857D01*
X99970833Y-69685714D01*
X99923214Y-69780952D01*
X99875595Y-69828571D01*
X99780357Y-69876190D01*
X99399404Y-69876190D01*
X100827976Y-69685714D02*
X100827976Y-70352380D01*
X100589880Y-69304761D02*
X100351785Y-70019047D01*
X100970833Y-70019047D01*
%TO.C,R13*%
X122294642Y-71177380D02*
X121961309Y-70701190D01*
X121723214Y-71177380D02*
X121723214Y-70177380D01*
X122104166Y-70177380D01*
X122199404Y-70225000D01*
X122247023Y-70272619D01*
X122294642Y-70367857D01*
X122294642Y-70510714D01*
X122247023Y-70605952D01*
X122199404Y-70653571D01*
X122104166Y-70701190D01*
X121723214Y-70701190D01*
X123247023Y-71177380D02*
X122675595Y-71177380D01*
X122961309Y-71177380D02*
X122961309Y-70177380D01*
X122866071Y-70320238D01*
X122770833Y-70415476D01*
X122675595Y-70463095D01*
X123580357Y-70177380D02*
X124199404Y-70177380D01*
X123866071Y-70558333D01*
X124008928Y-70558333D01*
X124104166Y-70605952D01*
X124151785Y-70653571D01*
X124199404Y-70748809D01*
X124199404Y-70986904D01*
X124151785Y-71082142D01*
X124104166Y-71129761D01*
X124008928Y-71177380D01*
X123723214Y-71177380D01*
X123627976Y-71129761D01*
X123580357Y-71082142D01*
%TO.C,R7*%
X102658333Y-81952380D02*
X102325000Y-81476190D01*
X102086904Y-81952380D02*
X102086904Y-80952380D01*
X102467857Y-80952380D01*
X102563095Y-81000000D01*
X102610714Y-81047619D01*
X102658333Y-81142857D01*
X102658333Y-81285714D01*
X102610714Y-81380952D01*
X102563095Y-81428571D01*
X102467857Y-81476190D01*
X102086904Y-81476190D01*
X102991666Y-80952380D02*
X103658333Y-80952380D01*
X103229761Y-81952380D01*
%TO.C,R5*%
X99970833Y-68852380D02*
X99637500Y-68376190D01*
X99399404Y-68852380D02*
X99399404Y-67852380D01*
X99780357Y-67852380D01*
X99875595Y-67900000D01*
X99923214Y-67947619D01*
X99970833Y-68042857D01*
X99970833Y-68185714D01*
X99923214Y-68280952D01*
X99875595Y-68328571D01*
X99780357Y-68376190D01*
X99399404Y-68376190D01*
X100875595Y-67852380D02*
X100399404Y-67852380D01*
X100351785Y-68328571D01*
X100399404Y-68280952D01*
X100494642Y-68233333D01*
X100732738Y-68233333D01*
X100827976Y-68280952D01*
X100875595Y-68328571D01*
X100923214Y-68423809D01*
X100923214Y-68661904D01*
X100875595Y-68757142D01*
X100827976Y-68804761D01*
X100732738Y-68852380D01*
X100494642Y-68852380D01*
X100399404Y-68804761D01*
X100351785Y-68757142D01*
%TO.C,C2*%
X108270833Y-71782142D02*
X108223214Y-71829761D01*
X108080357Y-71877380D01*
X107985119Y-71877380D01*
X107842261Y-71829761D01*
X107747023Y-71734523D01*
X107699404Y-71639285D01*
X107651785Y-71448809D01*
X107651785Y-71305952D01*
X107699404Y-71115476D01*
X107747023Y-71020238D01*
X107842261Y-70925000D01*
X107985119Y-70877380D01*
X108080357Y-70877380D01*
X108223214Y-70925000D01*
X108270833Y-70972619D01*
X108651785Y-70972619D02*
X108699404Y-70925000D01*
X108794642Y-70877380D01*
X109032738Y-70877380D01*
X109127976Y-70925000D01*
X109175595Y-70972619D01*
X109223214Y-71067857D01*
X109223214Y-71163095D01*
X109175595Y-71305952D01*
X108604166Y-71877380D01*
X109223214Y-71877380D01*
%TO.C,Q2*%
X107129761Y-83647619D02*
X107034523Y-83600000D01*
X106939285Y-83504761D01*
X106796428Y-83361904D01*
X106701190Y-83314285D01*
X106605952Y-83314285D01*
X106653571Y-83552380D02*
X106558333Y-83504761D01*
X106463095Y-83409523D01*
X106415476Y-83219047D01*
X106415476Y-82885714D01*
X106463095Y-82695238D01*
X106558333Y-82600000D01*
X106653571Y-82552380D01*
X106844047Y-82552380D01*
X106939285Y-82600000D01*
X107034523Y-82695238D01*
X107082142Y-82885714D01*
X107082142Y-83219047D01*
X107034523Y-83409523D01*
X106939285Y-83504761D01*
X106844047Y-83552380D01*
X106653571Y-83552380D01*
X107463095Y-82647619D02*
X107510714Y-82600000D01*
X107605952Y-82552380D01*
X107844047Y-82552380D01*
X107939285Y-82600000D01*
X107986904Y-82647619D01*
X108034523Y-82742857D01*
X108034523Y-82838095D01*
X107986904Y-82980952D01*
X107415476Y-83552380D01*
X108034523Y-83552380D01*
%TO.C,D1*%
X122399404Y-82177380D02*
X122399404Y-81177380D01*
X122637500Y-81177380D01*
X122780357Y-81225000D01*
X122875595Y-81320238D01*
X122923214Y-81415476D01*
X122970833Y-81605952D01*
X122970833Y-81748809D01*
X122923214Y-81939285D01*
X122875595Y-82034523D01*
X122780357Y-82129761D01*
X122637500Y-82177380D01*
X122399404Y-82177380D01*
X123923214Y-82177380D02*
X123351785Y-82177380D01*
X123637500Y-82177380D02*
X123637500Y-81177380D01*
X123542261Y-81320238D01*
X123447023Y-81415476D01*
X123351785Y-81463095D01*
%TO.C,Q4*%
X105904761Y-93147619D02*
X105809523Y-93100000D01*
X105714285Y-93004761D01*
X105571428Y-92861904D01*
X105476190Y-92814285D01*
X105380952Y-92814285D01*
X105428571Y-93052380D02*
X105333333Y-93004761D01*
X105238095Y-92909523D01*
X105190476Y-92719047D01*
X105190476Y-92385714D01*
X105238095Y-92195238D01*
X105333333Y-92100000D01*
X105428571Y-92052380D01*
X105619047Y-92052380D01*
X105714285Y-92100000D01*
X105809523Y-92195238D01*
X105857142Y-92385714D01*
X105857142Y-92719047D01*
X105809523Y-92909523D01*
X105714285Y-93004761D01*
X105619047Y-93052380D01*
X105428571Y-93052380D01*
X106714285Y-92385714D02*
X106714285Y-93052380D01*
X106476190Y-92004761D02*
X106238095Y-92719047D01*
X106857142Y-92719047D01*
%TO.C,R2*%
X99970833Y-73352380D02*
X99637500Y-72876190D01*
X99399404Y-73352380D02*
X99399404Y-72352380D01*
X99780357Y-72352380D01*
X99875595Y-72400000D01*
X99923214Y-72447619D01*
X99970833Y-72542857D01*
X99970833Y-72685714D01*
X99923214Y-72780952D01*
X99875595Y-72828571D01*
X99780357Y-72876190D01*
X99399404Y-72876190D01*
X100351785Y-72447619D02*
X100399404Y-72400000D01*
X100494642Y-72352380D01*
X100732738Y-72352380D01*
X100827976Y-72400000D01*
X100875595Y-72447619D01*
X100923214Y-72542857D01*
X100923214Y-72638095D01*
X100875595Y-72780952D01*
X100304166Y-73352380D01*
X100923214Y-73352380D01*
%TO.C,R24*%
X110752380Y-85642857D02*
X110276190Y-85976190D01*
X110752380Y-86214285D02*
X109752380Y-86214285D01*
X109752380Y-85833333D01*
X109800000Y-85738095D01*
X109847619Y-85690476D01*
X109942857Y-85642857D01*
X110085714Y-85642857D01*
X110180952Y-85690476D01*
X110228571Y-85738095D01*
X110276190Y-85833333D01*
X110276190Y-86214285D01*
X109847619Y-85261904D02*
X109800000Y-85214285D01*
X109752380Y-85119047D01*
X109752380Y-84880952D01*
X109800000Y-84785714D01*
X109847619Y-84738095D01*
X109942857Y-84690476D01*
X110038095Y-84690476D01*
X110180952Y-84738095D01*
X110752380Y-85309523D01*
X110752380Y-84690476D01*
X110085714Y-83833333D02*
X110752380Y-83833333D01*
X109704761Y-84071428D02*
X110419047Y-84309523D01*
X110419047Y-83690476D01*
%TO.C,C8*%
X108370833Y-67282142D02*
X108323214Y-67329761D01*
X108180357Y-67377380D01*
X108085119Y-67377380D01*
X107942261Y-67329761D01*
X107847023Y-67234523D01*
X107799404Y-67139285D01*
X107751785Y-66948809D01*
X107751785Y-66805952D01*
X107799404Y-66615476D01*
X107847023Y-66520238D01*
X107942261Y-66425000D01*
X108085119Y-66377380D01*
X108180357Y-66377380D01*
X108323214Y-66425000D01*
X108370833Y-66472619D01*
X108942261Y-66805952D02*
X108847023Y-66758333D01*
X108799404Y-66710714D01*
X108751785Y-66615476D01*
X108751785Y-66567857D01*
X108799404Y-66472619D01*
X108847023Y-66425000D01*
X108942261Y-66377380D01*
X109132738Y-66377380D01*
X109227976Y-66425000D01*
X109275595Y-66472619D01*
X109323214Y-66567857D01*
X109323214Y-66615476D01*
X109275595Y-66710714D01*
X109227976Y-66758333D01*
X109132738Y-66805952D01*
X108942261Y-66805952D01*
X108847023Y-66853571D01*
X108799404Y-66901190D01*
X108751785Y-66996428D01*
X108751785Y-67186904D01*
X108799404Y-67282142D01*
X108847023Y-67329761D01*
X108942261Y-67377380D01*
X109132738Y-67377380D01*
X109227976Y-67329761D01*
X109275595Y-67282142D01*
X109323214Y-67186904D01*
X109323214Y-66996428D01*
X109275595Y-66901190D01*
X109227976Y-66853571D01*
X109132738Y-66805952D01*
%TO.C,R12*%
X122294642Y-78677380D02*
X121961309Y-78201190D01*
X121723214Y-78677380D02*
X121723214Y-77677380D01*
X122104166Y-77677380D01*
X122199404Y-77725000D01*
X122247023Y-77772619D01*
X122294642Y-77867857D01*
X122294642Y-78010714D01*
X122247023Y-78105952D01*
X122199404Y-78153571D01*
X122104166Y-78201190D01*
X121723214Y-78201190D01*
X123247023Y-78677380D02*
X122675595Y-78677380D01*
X122961309Y-78677380D02*
X122961309Y-77677380D01*
X122866071Y-77820238D01*
X122770833Y-77915476D01*
X122675595Y-77963095D01*
X123627976Y-77772619D02*
X123675595Y-77725000D01*
X123770833Y-77677380D01*
X124008928Y-77677380D01*
X124104166Y-77725000D01*
X124151785Y-77772619D01*
X124199404Y-77867857D01*
X124199404Y-77963095D01*
X124151785Y-78105952D01*
X123580357Y-78677380D01*
X124199404Y-78677380D01*
%TO.C,Q9*%
X132204761Y-88747619D02*
X132109523Y-88700000D01*
X132014285Y-88604761D01*
X131871428Y-88461904D01*
X131776190Y-88414285D01*
X131680952Y-88414285D01*
X131728571Y-88652380D02*
X131633333Y-88604761D01*
X131538095Y-88509523D01*
X131490476Y-88319047D01*
X131490476Y-87985714D01*
X131538095Y-87795238D01*
X131633333Y-87700000D01*
X131728571Y-87652380D01*
X131919047Y-87652380D01*
X132014285Y-87700000D01*
X132109523Y-87795238D01*
X132157142Y-87985714D01*
X132157142Y-88319047D01*
X132109523Y-88509523D01*
X132014285Y-88604761D01*
X131919047Y-88652380D01*
X131728571Y-88652380D01*
X132633333Y-88652380D02*
X132823809Y-88652380D01*
X132919047Y-88604761D01*
X132966666Y-88557142D01*
X133061904Y-88414285D01*
X133109523Y-88223809D01*
X133109523Y-87842857D01*
X133061904Y-87747619D01*
X133014285Y-87700000D01*
X132919047Y-87652380D01*
X132728571Y-87652380D01*
X132633333Y-87700000D01*
X132585714Y-87747619D01*
X132538095Y-87842857D01*
X132538095Y-88080952D01*
X132585714Y-88176190D01*
X132633333Y-88223809D01*
X132728571Y-88271428D01*
X132919047Y-88271428D01*
X133014285Y-88223809D01*
X133061904Y-88176190D01*
X133109523Y-88080952D01*
%TO.C,R1*%
X132833333Y-99952380D02*
X132500000Y-99476190D01*
X132261904Y-99952380D02*
X132261904Y-98952380D01*
X132642857Y-98952380D01*
X132738095Y-99000000D01*
X132785714Y-99047619D01*
X132833333Y-99142857D01*
X132833333Y-99285714D01*
X132785714Y-99380952D01*
X132738095Y-99428571D01*
X132642857Y-99476190D01*
X132261904Y-99476190D01*
X133785714Y-99952380D02*
X133214285Y-99952380D01*
X133500000Y-99952380D02*
X133500000Y-98952380D01*
X133404761Y-99095238D01*
X133309523Y-99190476D01*
X133214285Y-99238095D01*
%TO.C,D2*%
X101852380Y-93438095D02*
X100852380Y-93438095D01*
X100852380Y-93200000D01*
X100900000Y-93057142D01*
X100995238Y-92961904D01*
X101090476Y-92914285D01*
X101280952Y-92866666D01*
X101423809Y-92866666D01*
X101614285Y-92914285D01*
X101709523Y-92961904D01*
X101804761Y-93057142D01*
X101852380Y-93200000D01*
X101852380Y-93438095D01*
X100947619Y-92485714D02*
X100900000Y-92438095D01*
X100852380Y-92342857D01*
X100852380Y-92104761D01*
X100900000Y-92009523D01*
X100947619Y-91961904D01*
X101042857Y-91914285D01*
X101138095Y-91914285D01*
X101280952Y-91961904D01*
X101852380Y-92533333D01*
X101852380Y-91914285D01*
%TO.C,Q6*%
X112904761Y-86147619D02*
X112809523Y-86100000D01*
X112714285Y-86004761D01*
X112571428Y-85861904D01*
X112476190Y-85814285D01*
X112380952Y-85814285D01*
X112428571Y-86052380D02*
X112333333Y-86004761D01*
X112238095Y-85909523D01*
X112190476Y-85719047D01*
X112190476Y-85385714D01*
X112238095Y-85195238D01*
X112333333Y-85100000D01*
X112428571Y-85052380D01*
X112619047Y-85052380D01*
X112714285Y-85100000D01*
X112809523Y-85195238D01*
X112857142Y-85385714D01*
X112857142Y-85719047D01*
X112809523Y-85909523D01*
X112714285Y-86004761D01*
X112619047Y-86052380D01*
X112428571Y-86052380D01*
X113714285Y-85052380D02*
X113523809Y-85052380D01*
X113428571Y-85100000D01*
X113380952Y-85147619D01*
X113285714Y-85290476D01*
X113238095Y-85480952D01*
X113238095Y-85861904D01*
X113285714Y-85957142D01*
X113333333Y-86004761D01*
X113428571Y-86052380D01*
X113619047Y-86052380D01*
X113714285Y-86004761D01*
X113761904Y-85957142D01*
X113809523Y-85861904D01*
X113809523Y-85623809D01*
X113761904Y-85528571D01*
X113714285Y-85480952D01*
X113619047Y-85433333D01*
X113428571Y-85433333D01*
X113333333Y-85480952D01*
X113285714Y-85528571D01*
X113238095Y-85623809D01*
%TO.C,D4*%
X109252380Y-86438095D02*
X108252380Y-86438095D01*
X108252380Y-86200000D01*
X108300000Y-86057142D01*
X108395238Y-85961904D01*
X108490476Y-85914285D01*
X108680952Y-85866666D01*
X108823809Y-85866666D01*
X109014285Y-85914285D01*
X109109523Y-85961904D01*
X109204761Y-86057142D01*
X109252380Y-86200000D01*
X109252380Y-86438095D01*
X108585714Y-85009523D02*
X109252380Y-85009523D01*
X108204761Y-85247619D02*
X108919047Y-85485714D01*
X108919047Y-84866666D01*
%TO.C,C3*%
X108270833Y-70282142D02*
X108223214Y-70329761D01*
X108080357Y-70377380D01*
X107985119Y-70377380D01*
X107842261Y-70329761D01*
X107747023Y-70234523D01*
X107699404Y-70139285D01*
X107651785Y-69948809D01*
X107651785Y-69805952D01*
X107699404Y-69615476D01*
X107747023Y-69520238D01*
X107842261Y-69425000D01*
X107985119Y-69377380D01*
X108080357Y-69377380D01*
X108223214Y-69425000D01*
X108270833Y-69472619D01*
X108604166Y-69377380D02*
X109223214Y-69377380D01*
X108889880Y-69758333D01*
X109032738Y-69758333D01*
X109127976Y-69805952D01*
X109175595Y-69853571D01*
X109223214Y-69948809D01*
X109223214Y-70186904D01*
X109175595Y-70282142D01*
X109127976Y-70329761D01*
X109032738Y-70377380D01*
X108747023Y-70377380D01*
X108651785Y-70329761D01*
X108604166Y-70282142D01*
%TO.C,C5*%
X108370833Y-65782142D02*
X108323214Y-65829761D01*
X108180357Y-65877380D01*
X108085119Y-65877380D01*
X107942261Y-65829761D01*
X107847023Y-65734523D01*
X107799404Y-65639285D01*
X107751785Y-65448809D01*
X107751785Y-65305952D01*
X107799404Y-65115476D01*
X107847023Y-65020238D01*
X107942261Y-64925000D01*
X108085119Y-64877380D01*
X108180357Y-64877380D01*
X108323214Y-64925000D01*
X108370833Y-64972619D01*
X109275595Y-64877380D02*
X108799404Y-64877380D01*
X108751785Y-65353571D01*
X108799404Y-65305952D01*
X108894642Y-65258333D01*
X109132738Y-65258333D01*
X109227976Y-65305952D01*
X109275595Y-65353571D01*
X109323214Y-65448809D01*
X109323214Y-65686904D01*
X109275595Y-65782142D01*
X109227976Y-65829761D01*
X109132738Y-65877380D01*
X108894642Y-65877380D01*
X108799404Y-65829761D01*
X108751785Y-65782142D01*
%TO.C,R21*%
X115757142Y-86052380D02*
X115423809Y-85576190D01*
X115185714Y-86052380D02*
X115185714Y-85052380D01*
X115566666Y-85052380D01*
X115661904Y-85100000D01*
X115709523Y-85147619D01*
X115757142Y-85242857D01*
X115757142Y-85385714D01*
X115709523Y-85480952D01*
X115661904Y-85528571D01*
X115566666Y-85576190D01*
X115185714Y-85576190D01*
X116138095Y-85147619D02*
X116185714Y-85100000D01*
X116280952Y-85052380D01*
X116519047Y-85052380D01*
X116614285Y-85100000D01*
X116661904Y-85147619D01*
X116709523Y-85242857D01*
X116709523Y-85338095D01*
X116661904Y-85480952D01*
X116090476Y-86052380D01*
X116709523Y-86052380D01*
X117661904Y-86052380D02*
X117090476Y-86052380D01*
X117376190Y-86052380D02*
X117376190Y-85052380D01*
X117280952Y-85195238D01*
X117185714Y-85290476D01*
X117090476Y-85338095D01*
%TO.C,R22*%
X131857142Y-102952380D02*
X131523809Y-102476190D01*
X131285714Y-102952380D02*
X131285714Y-101952380D01*
X131666666Y-101952380D01*
X131761904Y-102000000D01*
X131809523Y-102047619D01*
X131857142Y-102142857D01*
X131857142Y-102285714D01*
X131809523Y-102380952D01*
X131761904Y-102428571D01*
X131666666Y-102476190D01*
X131285714Y-102476190D01*
X132238095Y-102047619D02*
X132285714Y-102000000D01*
X132380952Y-101952380D01*
X132619047Y-101952380D01*
X132714285Y-102000000D01*
X132761904Y-102047619D01*
X132809523Y-102142857D01*
X132809523Y-102238095D01*
X132761904Y-102380952D01*
X132190476Y-102952380D01*
X132809523Y-102952380D01*
X133190476Y-102047619D02*
X133238095Y-102000000D01*
X133333333Y-101952380D01*
X133571428Y-101952380D01*
X133666666Y-102000000D01*
X133714285Y-102047619D01*
X133761904Y-102142857D01*
X133761904Y-102238095D01*
X133714285Y-102380952D01*
X133142857Y-102952380D01*
X133761904Y-102952380D01*
%TO.C,Q1*%
X112904761Y-93147619D02*
X112809523Y-93100000D01*
X112714285Y-93004761D01*
X112571428Y-92861904D01*
X112476190Y-92814285D01*
X112380952Y-92814285D01*
X112428571Y-93052380D02*
X112333333Y-93004761D01*
X112238095Y-92909523D01*
X112190476Y-92719047D01*
X112190476Y-92385714D01*
X112238095Y-92195238D01*
X112333333Y-92100000D01*
X112428571Y-92052380D01*
X112619047Y-92052380D01*
X112714285Y-92100000D01*
X112809523Y-92195238D01*
X112857142Y-92385714D01*
X112857142Y-92719047D01*
X112809523Y-92909523D01*
X112714285Y-93004761D01*
X112619047Y-93052380D01*
X112428571Y-93052380D01*
X113809523Y-93052380D02*
X113238095Y-93052380D01*
X113523809Y-93052380D02*
X113523809Y-92052380D01*
X113428571Y-92195238D01*
X113333333Y-92290476D01*
X113238095Y-92338095D01*
%TO.C,R10*%
X99582142Y-77877380D02*
X99248809Y-77401190D01*
X99010714Y-77877380D02*
X99010714Y-76877380D01*
X99391666Y-76877380D01*
X99486904Y-76925000D01*
X99534523Y-76972619D01*
X99582142Y-77067857D01*
X99582142Y-77210714D01*
X99534523Y-77305952D01*
X99486904Y-77353571D01*
X99391666Y-77401190D01*
X99010714Y-77401190D01*
X100534523Y-77877380D02*
X99963095Y-77877380D01*
X100248809Y-77877380D02*
X100248809Y-76877380D01*
X100153571Y-77020238D01*
X100058333Y-77115476D01*
X99963095Y-77163095D01*
X101153571Y-76877380D02*
X101248809Y-76877380D01*
X101344047Y-76925000D01*
X101391666Y-76972619D01*
X101439285Y-77067857D01*
X101486904Y-77258333D01*
X101486904Y-77496428D01*
X101439285Y-77686904D01*
X101391666Y-77782142D01*
X101344047Y-77829761D01*
X101248809Y-77877380D01*
X101153571Y-77877380D01*
X101058333Y-77829761D01*
X101010714Y-77782142D01*
X100963095Y-77686904D01*
X100915476Y-77496428D01*
X100915476Y-77258333D01*
X100963095Y-77067857D01*
X101010714Y-76972619D01*
X101058333Y-76925000D01*
X101153571Y-76877380D01*
%TO.C,C7*%
X108370833Y-74782142D02*
X108323214Y-74829761D01*
X108180357Y-74877380D01*
X108085119Y-74877380D01*
X107942261Y-74829761D01*
X107847023Y-74734523D01*
X107799404Y-74639285D01*
X107751785Y-74448809D01*
X107751785Y-74305952D01*
X107799404Y-74115476D01*
X107847023Y-74020238D01*
X107942261Y-73925000D01*
X108085119Y-73877380D01*
X108180357Y-73877380D01*
X108323214Y-73925000D01*
X108370833Y-73972619D01*
X108704166Y-73877380D02*
X109370833Y-73877380D01*
X108942261Y-74877380D01*
%TO.C,R18*%
X116752380Y-92942857D02*
X116276190Y-93276190D01*
X116752380Y-93514285D02*
X115752380Y-93514285D01*
X115752380Y-93133333D01*
X115800000Y-93038095D01*
X115847619Y-92990476D01*
X115942857Y-92942857D01*
X116085714Y-92942857D01*
X116180952Y-92990476D01*
X116228571Y-93038095D01*
X116276190Y-93133333D01*
X116276190Y-93514285D01*
X116752380Y-91990476D02*
X116752380Y-92561904D01*
X116752380Y-92276190D02*
X115752380Y-92276190D01*
X115895238Y-92371428D01*
X115990476Y-92466666D01*
X116038095Y-92561904D01*
X116180952Y-91419047D02*
X116133333Y-91514285D01*
X116085714Y-91561904D01*
X115990476Y-91609523D01*
X115942857Y-91609523D01*
X115847619Y-91561904D01*
X115800000Y-91514285D01*
X115752380Y-91419047D01*
X115752380Y-91228571D01*
X115800000Y-91133333D01*
X115847619Y-91085714D01*
X115942857Y-91038095D01*
X115990476Y-91038095D01*
X116085714Y-91085714D01*
X116133333Y-91133333D01*
X116180952Y-91228571D01*
X116180952Y-91419047D01*
X116228571Y-91514285D01*
X116276190Y-91561904D01*
X116371428Y-91609523D01*
X116561904Y-91609523D01*
X116657142Y-91561904D01*
X116704761Y-91514285D01*
X116752380Y-91419047D01*
X116752380Y-91228571D01*
X116704761Y-91133333D01*
X116657142Y-91085714D01*
X116561904Y-91038095D01*
X116371428Y-91038095D01*
X116276190Y-91085714D01*
X116228571Y-91133333D01*
X116180952Y-91228571D01*
%TO.C,Q7*%
X105904761Y-86147619D02*
X105809523Y-86100000D01*
X105714285Y-86004761D01*
X105571428Y-85861904D01*
X105476190Y-85814285D01*
X105380952Y-85814285D01*
X105428571Y-86052380D02*
X105333333Y-86004761D01*
X105238095Y-85909523D01*
X105190476Y-85719047D01*
X105190476Y-85385714D01*
X105238095Y-85195238D01*
X105333333Y-85100000D01*
X105428571Y-85052380D01*
X105619047Y-85052380D01*
X105714285Y-85100000D01*
X105809523Y-85195238D01*
X105857142Y-85385714D01*
X105857142Y-85719047D01*
X105809523Y-85909523D01*
X105714285Y-86004761D01*
X105619047Y-86052380D01*
X105428571Y-86052380D01*
X106190476Y-85052380D02*
X106857142Y-85052380D01*
X106428571Y-86052380D01*
%TO.C,C4*%
X108270833Y-68682142D02*
X108223214Y-68729761D01*
X108080357Y-68777380D01*
X107985119Y-68777380D01*
X107842261Y-68729761D01*
X107747023Y-68634523D01*
X107699404Y-68539285D01*
X107651785Y-68348809D01*
X107651785Y-68205952D01*
X107699404Y-68015476D01*
X107747023Y-67920238D01*
X107842261Y-67825000D01*
X107985119Y-67777380D01*
X108080357Y-67777380D01*
X108223214Y-67825000D01*
X108270833Y-67872619D01*
X109127976Y-68110714D02*
X109127976Y-68777380D01*
X108889880Y-67729761D02*
X108651785Y-68444047D01*
X109270833Y-68444047D01*
%TO.C,Q8*%
X132204761Y-78747619D02*
X132109523Y-78700000D01*
X132014285Y-78604761D01*
X131871428Y-78461904D01*
X131776190Y-78414285D01*
X131680952Y-78414285D01*
X131728571Y-78652380D02*
X131633333Y-78604761D01*
X131538095Y-78509523D01*
X131490476Y-78319047D01*
X131490476Y-77985714D01*
X131538095Y-77795238D01*
X131633333Y-77700000D01*
X131728571Y-77652380D01*
X131919047Y-77652380D01*
X132014285Y-77700000D01*
X132109523Y-77795238D01*
X132157142Y-77985714D01*
X132157142Y-78319047D01*
X132109523Y-78509523D01*
X132014285Y-78604761D01*
X131919047Y-78652380D01*
X131728571Y-78652380D01*
X132728571Y-78080952D02*
X132633333Y-78033333D01*
X132585714Y-77985714D01*
X132538095Y-77890476D01*
X132538095Y-77842857D01*
X132585714Y-77747619D01*
X132633333Y-77700000D01*
X132728571Y-77652380D01*
X132919047Y-77652380D01*
X133014285Y-77700000D01*
X133061904Y-77747619D01*
X133109523Y-77842857D01*
X133109523Y-77890476D01*
X133061904Y-77985714D01*
X133014285Y-78033333D01*
X132919047Y-78080952D01*
X132728571Y-78080952D01*
X132633333Y-78128571D01*
X132585714Y-78176190D01*
X132538095Y-78271428D01*
X132538095Y-78461904D01*
X132585714Y-78557142D01*
X132633333Y-78604761D01*
X132728571Y-78652380D01*
X132919047Y-78652380D01*
X133014285Y-78604761D01*
X133061904Y-78557142D01*
X133109523Y-78461904D01*
X133109523Y-78271428D01*
X133061904Y-78176190D01*
X133014285Y-78128571D01*
X132919047Y-78080952D01*
%TO.C,R15*%
X103452380Y-92942857D02*
X102976190Y-93276190D01*
X103452380Y-93514285D02*
X102452380Y-93514285D01*
X102452380Y-93133333D01*
X102500000Y-93038095D01*
X102547619Y-92990476D01*
X102642857Y-92942857D01*
X102785714Y-92942857D01*
X102880952Y-92990476D01*
X102928571Y-93038095D01*
X102976190Y-93133333D01*
X102976190Y-93514285D01*
X103452380Y-91990476D02*
X103452380Y-92561904D01*
X103452380Y-92276190D02*
X102452380Y-92276190D01*
X102595238Y-92371428D01*
X102690476Y-92466666D01*
X102738095Y-92561904D01*
X102452380Y-91085714D02*
X102452380Y-91561904D01*
X102928571Y-91609523D01*
X102880952Y-91561904D01*
X102833333Y-91466666D01*
X102833333Y-91228571D01*
X102880952Y-91133333D01*
X102928571Y-91085714D01*
X103023809Y-91038095D01*
X103261904Y-91038095D01*
X103357142Y-91085714D01*
X103404761Y-91133333D01*
X103452380Y-91228571D01*
X103452380Y-91466666D01*
X103404761Y-91561904D01*
X103357142Y-91609523D01*
%TO.C,R14*%
X122257142Y-77177380D02*
X121923809Y-76701190D01*
X121685714Y-77177380D02*
X121685714Y-76177380D01*
X122066666Y-76177380D01*
X122161904Y-76225000D01*
X122209523Y-76272619D01*
X122257142Y-76367857D01*
X122257142Y-76510714D01*
X122209523Y-76605952D01*
X122161904Y-76653571D01*
X122066666Y-76701190D01*
X121685714Y-76701190D01*
X123209523Y-77177380D02*
X122638095Y-77177380D01*
X122923809Y-77177380D02*
X122923809Y-76177380D01*
X122828571Y-76320238D01*
X122733333Y-76415476D01*
X122638095Y-76463095D01*
X124066666Y-76510714D02*
X124066666Y-77177380D01*
X123828571Y-76129761D02*
X123590476Y-76844047D01*
X124209523Y-76844047D01*
%TO.C,C1*%
X108270833Y-73282142D02*
X108223214Y-73329761D01*
X108080357Y-73377380D01*
X107985119Y-73377380D01*
X107842261Y-73329761D01*
X107747023Y-73234523D01*
X107699404Y-73139285D01*
X107651785Y-72948809D01*
X107651785Y-72805952D01*
X107699404Y-72615476D01*
X107747023Y-72520238D01*
X107842261Y-72425000D01*
X107985119Y-72377380D01*
X108080357Y-72377380D01*
X108223214Y-72425000D01*
X108270833Y-72472619D01*
X109223214Y-73377380D02*
X108651785Y-73377380D01*
X108937500Y-73377380D02*
X108937500Y-72377380D01*
X108842261Y-72520238D01*
X108747023Y-72615476D01*
X108651785Y-72663095D01*
%TO.C,R17*%
X109657142Y-98352380D02*
X109323809Y-97876190D01*
X109085714Y-98352380D02*
X109085714Y-97352380D01*
X109466666Y-97352380D01*
X109561904Y-97400000D01*
X109609523Y-97447619D01*
X109657142Y-97542857D01*
X109657142Y-97685714D01*
X109609523Y-97780952D01*
X109561904Y-97828571D01*
X109466666Y-97876190D01*
X109085714Y-97876190D01*
X110609523Y-98352380D02*
X110038095Y-98352380D01*
X110323809Y-98352380D02*
X110323809Y-97352380D01*
X110228571Y-97495238D01*
X110133333Y-97590476D01*
X110038095Y-97638095D01*
X110942857Y-97352380D02*
X111609523Y-97352380D01*
X111180952Y-98352380D01*
%TO.C,R8*%
X100058333Y-74877380D02*
X99725000Y-74401190D01*
X99486904Y-74877380D02*
X99486904Y-73877380D01*
X99867857Y-73877380D01*
X99963095Y-73925000D01*
X100010714Y-73972619D01*
X100058333Y-74067857D01*
X100058333Y-74210714D01*
X100010714Y-74305952D01*
X99963095Y-74353571D01*
X99867857Y-74401190D01*
X99486904Y-74401190D01*
X100629761Y-74305952D02*
X100534523Y-74258333D01*
X100486904Y-74210714D01*
X100439285Y-74115476D01*
X100439285Y-74067857D01*
X100486904Y-73972619D01*
X100534523Y-73925000D01*
X100629761Y-73877380D01*
X100820238Y-73877380D01*
X100915476Y-73925000D01*
X100963095Y-73972619D01*
X101010714Y-74067857D01*
X101010714Y-74115476D01*
X100963095Y-74210714D01*
X100915476Y-74258333D01*
X100820238Y-74305952D01*
X100629761Y-74305952D01*
X100534523Y-74353571D01*
X100486904Y-74401190D01*
X100439285Y-74496428D01*
X100439285Y-74686904D01*
X100486904Y-74782142D01*
X100534523Y-74829761D01*
X100629761Y-74877380D01*
X100820238Y-74877380D01*
X100915476Y-74829761D01*
X100963095Y-74782142D01*
X101010714Y-74686904D01*
X101010714Y-74496428D01*
X100963095Y-74401190D01*
X100915476Y-74353571D01*
X100820238Y-74305952D01*
%TO.C,D3*%
X121699404Y-80277380D02*
X121699404Y-79277380D01*
X121937500Y-79277380D01*
X122080357Y-79325000D01*
X122175595Y-79420238D01*
X122223214Y-79515476D01*
X122270833Y-79705952D01*
X122270833Y-79848809D01*
X122223214Y-80039285D01*
X122175595Y-80134523D01*
X122080357Y-80229761D01*
X121937500Y-80277380D01*
X121699404Y-80277380D01*
X122604166Y-79277380D02*
X123223214Y-79277380D01*
X122889880Y-79658333D01*
X123032738Y-79658333D01*
X123127976Y-79705952D01*
X123175595Y-79753571D01*
X123223214Y-79848809D01*
X123223214Y-80086904D01*
X123175595Y-80182142D01*
X123127976Y-80229761D01*
X123032738Y-80277380D01*
X122747023Y-80277380D01*
X122651785Y-80229761D01*
X122604166Y-80182142D01*
%TO.C,U1*%
X111238095Y-65952380D02*
X111238095Y-66761904D01*
X111285714Y-66857142D01*
X111333333Y-66904761D01*
X111428571Y-66952380D01*
X111619047Y-66952380D01*
X111714285Y-66904761D01*
X111761904Y-66857142D01*
X111809523Y-66761904D01*
X111809523Y-65952380D01*
X112809523Y-66952380D02*
X112238095Y-66952380D01*
X112523809Y-66952380D02*
X112523809Y-65952380D01*
X112428571Y-66095238D01*
X112333333Y-66190476D01*
X112238095Y-66238095D01*
%TO.C,R6*%
X99970833Y-67377380D02*
X99637500Y-66901190D01*
X99399404Y-67377380D02*
X99399404Y-66377380D01*
X99780357Y-66377380D01*
X99875595Y-66425000D01*
X99923214Y-66472619D01*
X99970833Y-66567857D01*
X99970833Y-66710714D01*
X99923214Y-66805952D01*
X99875595Y-66853571D01*
X99780357Y-66901190D01*
X99399404Y-66901190D01*
X100827976Y-66377380D02*
X100637500Y-66377380D01*
X100542261Y-66425000D01*
X100494642Y-66472619D01*
X100399404Y-66615476D01*
X100351785Y-66805952D01*
X100351785Y-67186904D01*
X100399404Y-67282142D01*
X100447023Y-67329761D01*
X100542261Y-67377380D01*
X100732738Y-67377380D01*
X100827976Y-67329761D01*
X100875595Y-67282142D01*
X100923214Y-67186904D01*
X100923214Y-66948809D01*
X100875595Y-66853571D01*
X100827976Y-66805952D01*
X100732738Y-66758333D01*
X100542261Y-66758333D01*
X100447023Y-66805952D01*
X100399404Y-66853571D01*
X100351785Y-66948809D01*
%TO.C,R19*%
X122257142Y-75652380D02*
X121923809Y-75176190D01*
X121685714Y-75652380D02*
X121685714Y-74652380D01*
X122066666Y-74652380D01*
X122161904Y-74700000D01*
X122209523Y-74747619D01*
X122257142Y-74842857D01*
X122257142Y-74985714D01*
X122209523Y-75080952D01*
X122161904Y-75128571D01*
X122066666Y-75176190D01*
X121685714Y-75176190D01*
X123209523Y-75652380D02*
X122638095Y-75652380D01*
X122923809Y-75652380D02*
X122923809Y-74652380D01*
X122828571Y-74795238D01*
X122733333Y-74890476D01*
X122638095Y-74938095D01*
X123685714Y-75652380D02*
X123876190Y-75652380D01*
X123971428Y-75604761D01*
X124019047Y-75557142D01*
X124114285Y-75414285D01*
X124161904Y-75223809D01*
X124161904Y-74842857D01*
X124114285Y-74747619D01*
X124066666Y-74700000D01*
X123971428Y-74652380D01*
X123780952Y-74652380D01*
X123685714Y-74700000D01*
X123638095Y-74747619D01*
X123590476Y-74842857D01*
X123590476Y-75080952D01*
X123638095Y-75176190D01*
X123685714Y-75223809D01*
X123780952Y-75271428D01*
X123971428Y-75271428D01*
X124066666Y-75223809D01*
X124114285Y-75176190D01*
X124161904Y-75080952D01*
%TO.C,R3*%
X99970833Y-71852380D02*
X99637500Y-71376190D01*
X99399404Y-71852380D02*
X99399404Y-70852380D01*
X99780357Y-70852380D01*
X99875595Y-70900000D01*
X99923214Y-70947619D01*
X99970833Y-71042857D01*
X99970833Y-71185714D01*
X99923214Y-71280952D01*
X99875595Y-71328571D01*
X99780357Y-71376190D01*
X99399404Y-71376190D01*
X100304166Y-70852380D02*
X100923214Y-70852380D01*
X100589880Y-71233333D01*
X100732738Y-71233333D01*
X100827976Y-71280952D01*
X100875595Y-71328571D01*
X100923214Y-71423809D01*
X100923214Y-71661904D01*
X100875595Y-71757142D01*
X100827976Y-71804761D01*
X100732738Y-71852380D01*
X100447023Y-71852380D01*
X100351785Y-71804761D01*
X100304166Y-71757142D01*
%TO.C,R9*%
X100058333Y-76377380D02*
X99725000Y-75901190D01*
X99486904Y-76377380D02*
X99486904Y-75377380D01*
X99867857Y-75377380D01*
X99963095Y-75425000D01*
X100010714Y-75472619D01*
X100058333Y-75567857D01*
X100058333Y-75710714D01*
X100010714Y-75805952D01*
X99963095Y-75853571D01*
X99867857Y-75901190D01*
X99486904Y-75901190D01*
X100534523Y-76377380D02*
X100725000Y-76377380D01*
X100820238Y-76329761D01*
X100867857Y-76282142D01*
X100963095Y-76139285D01*
X101010714Y-75948809D01*
X101010714Y-75567857D01*
X100963095Y-75472619D01*
X100915476Y-75425000D01*
X100820238Y-75377380D01*
X100629761Y-75377380D01*
X100534523Y-75425000D01*
X100486904Y-75472619D01*
X100439285Y-75567857D01*
X100439285Y-75805952D01*
X100486904Y-75901190D01*
X100534523Y-75948809D01*
X100629761Y-75996428D01*
X100820238Y-75996428D01*
X100915476Y-75948809D01*
X100963095Y-75901190D01*
X101010714Y-75805952D01*
D11*
%TO.C,C6*%
X104637500Y-75375000D02*
X104637500Y-76480000D01*
X107037500Y-75375000D02*
X107037500Y-76470000D01*
X104637500Y-75375000D02*
X107037500Y-75375000D01*
X104637500Y-76480000D02*
X107037500Y-76470000D01*
%TO.C,R11*%
X106887500Y-77975000D02*
X104787500Y-77975000D01*
X104787500Y-77975000D02*
X104787500Y-76875000D01*
X104787500Y-76875000D02*
X106887500Y-76875000D01*
X106887500Y-76875000D02*
X106887500Y-77975000D01*
%TO.C,R20*%
X118987500Y-68695000D02*
X121087500Y-68695000D01*
X121087500Y-68695000D02*
X121087500Y-69795000D01*
X121087500Y-69795000D02*
X118987500Y-69795000D01*
X118987500Y-69795000D02*
X118987500Y-68695000D01*
%TO.C,R23*%
X129450000Y-80250000D02*
X128350000Y-80250000D01*
X128350000Y-80250000D02*
X128350000Y-82350000D01*
X128350000Y-82350000D02*
X129450000Y-82350000D01*
X129450000Y-82350000D02*
X129450000Y-80250000D01*
%TO.C,Q5*%
X119000000Y-93440000D02*
X117325000Y-93440000D01*
X119000000Y-93440000D02*
X119650000Y-93440000D01*
X119000000Y-96560000D02*
X118350000Y-96560000D01*
X119000000Y-96560000D02*
X119650000Y-96560000D01*
%TO.C,Q3*%
X110590000Y-78800000D02*
X110590000Y-78465000D01*
X113860000Y-78800000D02*
X113860000Y-78465000D01*
X110590000Y-81735000D02*
X110590000Y-81400000D01*
X114095000Y-81735000D02*
X110590000Y-81735000D01*
X113860000Y-78465000D02*
X110590000Y-78465000D01*
%TO.C,R16*%
X121087500Y-72775000D02*
X118987500Y-72775000D01*
X118987500Y-72775000D02*
X118987500Y-71675000D01*
X118987500Y-71675000D02*
X121087500Y-71675000D01*
X121087500Y-71675000D02*
X121087500Y-72775000D01*
%TO.C,R4*%
X102187500Y-69375000D02*
X104287500Y-69375000D01*
X104287500Y-69375000D02*
X104287500Y-70475000D01*
X104287500Y-70475000D02*
X102187500Y-70475000D01*
X102187500Y-70475000D02*
X102187500Y-69375000D01*
%TO.C,R13*%
X121087500Y-71275000D02*
X118987500Y-71275000D01*
X118987500Y-71275000D02*
X118987500Y-70175000D01*
X118987500Y-70175000D02*
X121087500Y-70175000D01*
X121087500Y-70175000D02*
X121087500Y-71275000D01*
%TO.C,R7*%
X101825000Y-80650000D02*
X103825000Y-80650000D01*
X101825000Y-78950000D02*
X103825000Y-78950000D01*
%TO.C,R5*%
X102187500Y-67875000D02*
X104287500Y-67875000D01*
X104287500Y-67875000D02*
X104287500Y-68975000D01*
X104287500Y-68975000D02*
X102187500Y-68975000D01*
X102187500Y-68975000D02*
X102187500Y-67875000D01*
%TO.C,C2*%
X107037500Y-71975000D02*
X107037500Y-70870000D01*
X107037500Y-70870000D02*
X104637500Y-70880000D01*
X104637500Y-71975000D02*
X104637500Y-70880000D01*
X107037500Y-71975000D02*
X104637500Y-71975000D01*
%TO.C,Q2*%
X105590000Y-81735000D02*
X108860000Y-81735000D01*
X105355000Y-78465000D02*
X108860000Y-78465000D01*
X105590000Y-81400000D02*
X105590000Y-81735000D01*
X108860000Y-78465000D02*
X108860000Y-78800000D01*
X108860000Y-81400000D02*
X108860000Y-81735000D01*
%TO.C,D1*%
X118937500Y-80875000D02*
X121487500Y-80875000D01*
X118937500Y-80875000D02*
X118937500Y-82575000D01*
X118937500Y-82575000D02*
X121487500Y-82575000D01*
%TO.C,Q4*%
X106000000Y-93440000D02*
X104325000Y-93440000D01*
X106000000Y-96560000D02*
X106650000Y-96560000D01*
X106000000Y-93440000D02*
X106650000Y-93440000D01*
X106000000Y-96560000D02*
X105350000Y-96560000D01*
%TO.C,R2*%
X102187500Y-72375000D02*
X104287500Y-72375000D01*
X104287500Y-72375000D02*
X104287500Y-73475000D01*
X104287500Y-73475000D02*
X102187500Y-73475000D01*
X102187500Y-73475000D02*
X102187500Y-72375000D01*
%TO.C,R24*%
X110850000Y-86950000D02*
X109750000Y-86950000D01*
X109750000Y-86950000D02*
X109750000Y-89050000D01*
X109750000Y-89050000D02*
X110850000Y-89050000D01*
X110850000Y-89050000D02*
X110850000Y-86950000D01*
%TO.C,C8*%
X104637500Y-67475000D02*
X104637500Y-66380000D01*
X107037500Y-67475000D02*
X104637500Y-67475000D01*
X107037500Y-67475000D02*
X107037500Y-66370000D01*
X107037500Y-66370000D02*
X104637500Y-66380000D01*
%TO.C,R12*%
X118987500Y-77675000D02*
X121087500Y-77675000D01*
X121087500Y-77675000D02*
X121087500Y-78775000D01*
X121087500Y-78775000D02*
X118987500Y-78775000D01*
X118987500Y-78775000D02*
X118987500Y-77675000D01*
%TO.C,Q9*%
X130665000Y-87135000D02*
X133935000Y-87135000D01*
X133935000Y-83865000D02*
X133935000Y-84200000D01*
X133935000Y-86800000D02*
X133935000Y-87135000D01*
X130665000Y-86800000D02*
X130665000Y-87135000D01*
X130430000Y-83865000D02*
X133935000Y-83865000D01*
%TO.C,R1*%
X134450000Y-98950000D02*
X136550000Y-98950000D01*
X136550000Y-98950000D02*
X136550000Y-100050000D01*
X136550000Y-100050000D02*
X134450000Y-100050000D01*
X134450000Y-100050000D02*
X134450000Y-98950000D01*
%TO.C,D2*%
X102000000Y-95800000D02*
X102000000Y-93950000D01*
X100800000Y-95800000D02*
X100800000Y-93950000D01*
X102000000Y-93950000D02*
X100800000Y-93950000D01*
%TO.C,Q6*%
X113000000Y-86440000D02*
X111325000Y-86440000D01*
X113000000Y-89560000D02*
X113650000Y-89560000D01*
X113000000Y-89560000D02*
X112350000Y-89560000D01*
X113000000Y-86440000D02*
X113650000Y-86440000D01*
%TO.C,D4*%
X108200000Y-88700000D02*
X108200000Y-86850000D01*
X109400000Y-86850000D02*
X108200000Y-86850000D01*
X109400000Y-88700000D02*
X109400000Y-86850000D01*
%TO.C,C3*%
X107037500Y-69370000D02*
X104637500Y-69380000D01*
X104637500Y-70475000D02*
X104637500Y-69380000D01*
X107037500Y-70475000D02*
X107037500Y-69370000D01*
X107037500Y-70475000D02*
X104637500Y-70475000D01*
%TO.C,C5*%
X104637500Y-65975000D02*
X104637500Y-64880000D01*
X107037500Y-65975000D02*
X107037500Y-64870000D01*
X107037500Y-64870000D02*
X104637500Y-64880000D01*
X107037500Y-65975000D02*
X104637500Y-65975000D01*
%TO.C,R21*%
X117400000Y-87550000D02*
X115300000Y-87550000D01*
X115300000Y-87550000D02*
X115300000Y-86450000D01*
X115300000Y-86450000D02*
X117400000Y-86450000D01*
X117400000Y-86450000D02*
X117400000Y-87550000D01*
%TO.C,R22*%
X134450000Y-101950000D02*
X136550000Y-101950000D01*
X136550000Y-101950000D02*
X136550000Y-103050000D01*
X136550000Y-103050000D02*
X134450000Y-103050000D01*
X134450000Y-103050000D02*
X134450000Y-101950000D01*
%TO.C,Q1*%
X113000000Y-93440000D02*
X113650000Y-93440000D01*
X113000000Y-96560000D02*
X113650000Y-96560000D01*
X113000000Y-93440000D02*
X111325000Y-93440000D01*
X113000000Y-96560000D02*
X112350000Y-96560000D01*
%TO.C,R10*%
X104287500Y-77975000D02*
X102187500Y-77975000D01*
X102187500Y-77975000D02*
X102187500Y-76875000D01*
X102187500Y-76875000D02*
X104287500Y-76875000D01*
X104287500Y-76875000D02*
X104287500Y-77975000D01*
%TO.C,C7*%
X107037500Y-73875000D02*
X107037500Y-74970000D01*
X104637500Y-73875000D02*
X104637500Y-74980000D01*
X104637500Y-73875000D02*
X107037500Y-73875000D01*
X104637500Y-74980000D02*
X107037500Y-74970000D01*
%TO.C,R18*%
X115750000Y-96050000D02*
X116850000Y-96050000D01*
X116850000Y-96050000D02*
X116850000Y-93950000D01*
X116850000Y-93950000D02*
X115750000Y-93950000D01*
X115750000Y-93950000D02*
X115750000Y-96050000D01*
%TO.C,Q7*%
X106000000Y-89560000D02*
X106650000Y-89560000D01*
X106000000Y-86440000D02*
X106650000Y-86440000D01*
X106000000Y-89560000D02*
X105350000Y-89560000D01*
X106000000Y-86440000D02*
X104325000Y-86440000D01*
%TO.C,C4*%
X107037500Y-68975000D02*
X104637500Y-68975000D01*
X104637500Y-68975000D02*
X104637500Y-67880000D01*
X107037500Y-67870000D02*
X104637500Y-67880000D01*
X107037500Y-68975000D02*
X107037500Y-67870000D01*
%TO.C,Q8*%
X133935000Y-82200000D02*
X133935000Y-82535000D01*
X133935000Y-79265000D02*
X133935000Y-79600000D01*
X130665000Y-82535000D02*
X133935000Y-82535000D01*
X130665000Y-82200000D02*
X130665000Y-82535000D01*
X130430000Y-79265000D02*
X133935000Y-79265000D01*
%TO.C,R15*%
X103550000Y-93950000D02*
X102450000Y-93950000D01*
X102450000Y-93950000D02*
X102450000Y-96050000D01*
X102450000Y-96050000D02*
X103550000Y-96050000D01*
X103550000Y-96050000D02*
X103550000Y-93950000D01*
%TO.C,R14*%
X121087500Y-77275000D02*
X118987500Y-77275000D01*
X118987500Y-77275000D02*
X118987500Y-76175000D01*
X118987500Y-76175000D02*
X121087500Y-76175000D01*
X121087500Y-76175000D02*
X121087500Y-77275000D01*
%TO.C,C1*%
X104637500Y-73475000D02*
X104637500Y-72380000D01*
X107037500Y-72370000D02*
X104637500Y-72380000D01*
X107037500Y-73475000D02*
X107037500Y-72370000D01*
X107037500Y-73475000D02*
X104637500Y-73475000D01*
%TO.C,R17*%
X114050000Y-98350000D02*
X111950000Y-98350000D01*
X111950000Y-98350000D02*
X111950000Y-97250000D01*
X111950000Y-97250000D02*
X114050000Y-97250000D01*
X114050000Y-97250000D02*
X114050000Y-98350000D01*
%TO.C,R8*%
X102187500Y-73875000D02*
X104287500Y-73875000D01*
X104287500Y-73875000D02*
X104287500Y-74975000D01*
X104287500Y-74975000D02*
X102187500Y-74975000D01*
X102187500Y-74975000D02*
X102187500Y-73875000D01*
%TO.C,D3*%
X120837500Y-80425000D02*
X118987500Y-80425000D01*
X118987500Y-79225000D02*
X118987500Y-80425000D01*
X120837500Y-79225000D02*
X118987500Y-79225000D01*
%TO.C,U1*%
X113737500Y-75460000D02*
X115937500Y-75460000D01*
X113737500Y-67390000D02*
X115937500Y-67390000D01*
X113737500Y-75460000D02*
X111537500Y-75460000D01*
X113737500Y-67390000D02*
X110137500Y-67390000D01*
D12*
X112319700Y-68021400D02*
G75*
G03*
X112319700Y-68021400I-157000J0D01*
G01*
D11*
%TO.C,R6*%
X102187500Y-66375000D02*
X104287500Y-66375000D01*
X104287500Y-66375000D02*
X104287500Y-67475000D01*
X104287500Y-67475000D02*
X102187500Y-67475000D01*
X102187500Y-67475000D02*
X102187500Y-66375000D01*
%TO.C,R19*%
X118987500Y-74675000D02*
X121087500Y-74675000D01*
X121087500Y-74675000D02*
X121087500Y-75775000D01*
X121087500Y-75775000D02*
X118987500Y-75775000D01*
X118987500Y-75775000D02*
X118987500Y-74675000D01*
%TO.C,R3*%
X102187500Y-70875000D02*
X104287500Y-70875000D01*
X104287500Y-70875000D02*
X104287500Y-71975000D01*
X104287500Y-71975000D02*
X102187500Y-71975000D01*
X102187500Y-71975000D02*
X102187500Y-70875000D01*
%TO.C,R9*%
X104287500Y-76475000D02*
X102187500Y-76475000D01*
X102187500Y-76475000D02*
X102187500Y-75375000D01*
X102187500Y-75375000D02*
X104287500Y-75375000D01*
X104287500Y-75375000D02*
X104287500Y-76475000D01*
%TD*%
%LPC*%
D13*
%TO.C,J2*%
X146350000Y-77150000D03*
X146350000Y-66850000D03*
%TD*%
D14*
%TO.C,C6*%
X105062500Y-75925000D03*
X106612500Y-75925000D03*
%TD*%
D15*
%TO.C,R11*%
X106487500Y-77425000D03*
X105187500Y-77425000D03*
%TD*%
D16*
%TO.C,R20*%
X119387500Y-69245000D03*
X120687500Y-69245000D03*
%TD*%
D17*
%TO.C,R23*%
X128900000Y-80650000D03*
X128900000Y-81950000D03*
%TD*%
D18*
%TO.C,Q5*%
X118000000Y-94050000D03*
X118000000Y-95950000D03*
X120000000Y-95000000D03*
%TD*%
D19*
%TO.C,Q3*%
X113660000Y-81090000D03*
X113660000Y-80430000D03*
X113660000Y-79770000D03*
X113660000Y-79110000D03*
D20*
X111667500Y-80100000D03*
%TD*%
D15*
%TO.C,R16*%
X120687500Y-72225000D03*
X119387500Y-72225000D03*
%TD*%
D16*
%TO.C,R4*%
X102587500Y-69925000D03*
X103887500Y-69925000D03*
%TD*%
D15*
%TO.C,R13*%
X120687500Y-70725000D03*
X119387500Y-70725000D03*
%TD*%
D21*
%TO.C,R7*%
X101375000Y-79800000D03*
X104275000Y-79800000D03*
%TD*%
D16*
%TO.C,R5*%
X102587500Y-68425000D03*
X103887500Y-68425000D03*
%TD*%
D22*
%TO.C,C2*%
X106612500Y-71425000D03*
X105062500Y-71425000D03*
%TD*%
D19*
%TO.C,Q2*%
X105790000Y-79110000D03*
X105790000Y-79770000D03*
X105790000Y-80430000D03*
X105790000Y-81090000D03*
D23*
X107782500Y-80100000D03*
%TD*%
D24*
%TO.C,D1*%
X119387500Y-81725000D03*
X121487500Y-81725000D03*
%TD*%
D18*
%TO.C,Q4*%
X105000000Y-94050000D03*
X105000000Y-95950000D03*
X107000000Y-95000000D03*
%TD*%
D16*
%TO.C,R2*%
X102587500Y-72925000D03*
X103887500Y-72925000D03*
%TD*%
D17*
%TO.C,R24*%
X110300000Y-87350000D03*
X110300000Y-88650000D03*
%TD*%
D22*
%TO.C,C8*%
X106612500Y-66925000D03*
X105062500Y-66925000D03*
%TD*%
D16*
%TO.C,R12*%
X119387500Y-78225000D03*
X120687500Y-78225000D03*
%TD*%
D19*
%TO.C,Q9*%
X130865000Y-84510000D03*
X130865000Y-85170000D03*
X130865000Y-85830000D03*
X130865000Y-86490000D03*
D23*
X132857500Y-85500000D03*
%TD*%
D16*
%TO.C,R1*%
X134850000Y-99500000D03*
X136150000Y-99500000D03*
%TD*%
D25*
%TO.C,D2*%
X101400000Y-94400000D03*
X101400000Y-95800000D03*
%TD*%
D18*
%TO.C,Q6*%
X112000000Y-87050000D03*
X112000000Y-88950000D03*
X114000000Y-88000000D03*
%TD*%
D25*
%TO.C,D4*%
X108800000Y-87300000D03*
X108800000Y-88700000D03*
%TD*%
D22*
%TO.C,C3*%
X106612500Y-69925000D03*
X105062500Y-69925000D03*
%TD*%
%TO.C,C5*%
X106612500Y-65425000D03*
X105062500Y-65425000D03*
%TD*%
D26*
%TO.C,H2*%
X142000000Y-117600000D03*
X142000000Y-122400000D03*
X140302944Y-121697056D03*
X143697056Y-118302944D03*
X144400000Y-120000000D03*
X139600000Y-120000000D03*
X143697056Y-121697056D03*
D27*
X142000000Y-120000000D03*
D26*
X140302944Y-118302944D03*
%TD*%
D15*
%TO.C,R21*%
X117000000Y-87000000D03*
X115700000Y-87000000D03*
%TD*%
D16*
%TO.C,R22*%
X134850000Y-102500000D03*
X136150000Y-102500000D03*
%TD*%
D18*
%TO.C,Q1*%
X112000000Y-94050000D03*
X112000000Y-95950000D03*
X114000000Y-95000000D03*
%TD*%
D27*
%TO.C,H1*%
X142000000Y-40000000D03*
D26*
X139600000Y-40000000D03*
X140302944Y-38302944D03*
X142000000Y-42400000D03*
X140302944Y-41697056D03*
X143697056Y-41697056D03*
X144400000Y-40000000D03*
X143697056Y-38302944D03*
X142000000Y-37600000D03*
%TD*%
D15*
%TO.C,R10*%
X103887500Y-77425000D03*
X102587500Y-77425000D03*
%TD*%
D14*
%TO.C,C7*%
X105062500Y-74425000D03*
X106612500Y-74425000D03*
%TD*%
D28*
%TO.C,R18*%
X116300000Y-95650000D03*
X116300000Y-94350000D03*
%TD*%
D18*
%TO.C,Q7*%
X105000000Y-87050000D03*
X105000000Y-88950000D03*
X107000000Y-88000000D03*
%TD*%
D22*
%TO.C,C4*%
X106612500Y-68425000D03*
X105062500Y-68425000D03*
%TD*%
D19*
%TO.C,Q8*%
X130865000Y-79910000D03*
X130865000Y-80570000D03*
X130865000Y-81230000D03*
X130865000Y-81890000D03*
D23*
X132857500Y-80900000D03*
%TD*%
D17*
%TO.C,R15*%
X103000000Y-94350000D03*
X103000000Y-95650000D03*
%TD*%
D15*
%TO.C,R14*%
X120687500Y-76725000D03*
X119387500Y-76725000D03*
%TD*%
D22*
%TO.C,C1*%
X106612500Y-72925000D03*
X105062500Y-72925000D03*
%TD*%
D15*
%TO.C,R17*%
X113650000Y-97800000D03*
X112350000Y-97800000D03*
%TD*%
D16*
%TO.C,R8*%
X102587500Y-74425000D03*
X103887500Y-74425000D03*
%TD*%
D29*
%TO.C,D3*%
X119437500Y-79825000D03*
X120837500Y-79825000D03*
%TD*%
D30*
%TO.C,U1*%
X110837500Y-67850000D03*
X110837500Y-68500000D03*
X110837500Y-69150000D03*
X110837500Y-69800000D03*
X110837500Y-70450000D03*
X110837500Y-71100000D03*
X110837500Y-71750000D03*
X110837500Y-72400000D03*
X110837500Y-73050000D03*
X110837500Y-73700000D03*
X110837500Y-74350000D03*
X110837500Y-75000000D03*
X116637500Y-75000000D03*
X116637500Y-74350000D03*
X116637500Y-73700000D03*
X116637500Y-73050000D03*
X116637500Y-72400000D03*
X116637500Y-71750000D03*
X116637500Y-71100000D03*
X116637500Y-70450000D03*
X116637500Y-69800000D03*
X116637500Y-69150000D03*
X116637500Y-68500000D03*
X116637500Y-67850000D03*
%TD*%
D16*
%TO.C,R6*%
X102587500Y-66925000D03*
X103887500Y-66925000D03*
%TD*%
%TO.C,R19*%
X119387500Y-75225000D03*
X120687500Y-75225000D03*
%TD*%
%TO.C,R3*%
X102587500Y-71425000D03*
X103887500Y-71425000D03*
%TD*%
D15*
%TO.C,R9*%
X103887500Y-75925000D03*
X102587500Y-75925000D03*
%TD*%
D31*
%TO.C,BT4*%
X125000000Y-41000000D03*
X125000000Y-61000000D03*
X125000000Y-99000000D03*
X125000000Y-119000000D03*
%TD*%
%TO.C,BT2*%
X75000000Y-41000000D03*
X75000000Y-61000000D03*
X75000000Y-99000000D03*
X75000000Y-119000000D03*
%TD*%
%TO.C,BT3*%
X100000000Y-119000000D03*
X100000000Y-99000000D03*
X100000000Y-41000000D03*
X100000000Y-61000000D03*
%TD*%
%TO.C,BT1*%
X50000000Y-99000000D03*
X50000000Y-119000000D03*
X50000000Y-61000000D03*
X50000000Y-41000000D03*
%TD*%
M02*
