%TF.GenerationSoftware,KiCad,Pcbnew,(6.0.11)*%
%TF.CreationDate,2023-07-04T18:20:15-04:00*%
%TF.ProjectId,Batt_Rev20,42617474-5f52-4657-9632-302e6b696361,rev?*%
%TF.SameCoordinates,Original*%
%TF.FileFunction,Paste,Bot*%
%TF.FilePolarity,Positive*%
%FSLAX46Y46*%
G04 Gerber Fmt 4.6, Leading zero omitted, Abs format (unit mm)*
G04 Created by KiCad (PCBNEW (6.0.11)) date 2023-07-04 18:20:15*
%MOMM*%
%LPD*%
G01*
G04 APERTURE LIST*
G04 Aperture macros list*
%AMRoundRect*
0 Rectangle with rounded corners*
0 $1 Rounding radius*
0 $2 $3 $4 $5 $6 $7 $8 $9 X,Y pos of 4 corners*
0 Add a 4 corners polygon primitive as box body*
4,1,4,$2,$3,$4,$5,$6,$7,$8,$9,$2,$3,0*
0 Add four circle primitives for the rounded corners*
1,1,$1+$1,$2,$3*
1,1,$1+$1,$4,$5*
1,1,$1+$1,$6,$7*
1,1,$1+$1,$8,$9*
0 Add four rect primitives between the rounded corners*
20,1,$1+$1,$2,$3,$4,$5,0*
20,1,$1+$1,$4,$5,$6,$7,0*
20,1,$1+$1,$6,$7,$8,$9,0*
20,1,$1+$1,$8,$9,$2,$3,0*%
G04 Aperture macros list end*
%ADD10R,2.920000X1.270000*%
%ADD11R,1.650000X3.430000*%
%ADD12RoundRect,0.450000X-2.050000X0.450000X-2.050000X-0.450000X2.050000X-0.450000X2.050000X0.450000X0*%
%ADD13RoundRect,0.400000X-1.250000X0.600000X-1.250000X-0.600000X1.250000X-0.600000X1.250000X0.600000X0*%
%ADD14RoundRect,0.200000X-0.400000X0.200000X-0.400000X-0.200000X0.400000X-0.200000X0.400000X0.200000X0*%
%ADD15RoundRect,0.400000X1.250000X-0.600000X1.250000X0.600000X-1.250000X0.600000X-1.250000X-0.600000X0*%
%ADD16RoundRect,0.450000X2.050000X-0.450000X2.050000X0.450000X-2.050000X0.450000X-2.050000X-0.450000X0*%
%ADD17RoundRect,0.200000X0.400000X-0.200000X0.400000X0.200000X-0.400000X0.200000X-0.400000X-0.200000X0*%
%ADD18RoundRect,0.200000X0.275000X-0.200000X0.275000X0.200000X-0.275000X0.200000X-0.275000X-0.200000X0*%
G04 APERTURE END LIST*
D10*
%TO.C,J1*%
X142715000Y-102700000D03*
X142715000Y-99700000D03*
X142715000Y-96700000D03*
X138085000Y-102700000D03*
X138085000Y-99700000D03*
X138085000Y-96700000D03*
D11*
X148185000Y-106585000D03*
X148185000Y-92815000D03*
%TD*%
D10*
%TO.C,J2*%
X140880000Y-75000000D03*
X140880000Y-72000000D03*
X140880000Y-69000000D03*
%TD*%
D12*
%TO.C,BT4*%
X125000000Y-62600000D03*
D13*
X125000000Y-42600000D03*
D14*
X126800000Y-61000000D03*
D12*
X125000000Y-59380000D03*
D13*
X125000000Y-39400000D03*
D14*
X123200000Y-61000000D03*
D13*
X125000000Y-120600000D03*
D12*
X125000000Y-100620000D03*
D13*
X125000000Y-117400000D03*
D12*
X125000000Y-97400000D03*
D14*
X126800000Y-99020000D03*
X123200000Y-99020000D03*
%TD*%
D12*
%TO.C,BT2*%
X75000000Y-62600000D03*
D14*
X73200000Y-61000000D03*
D13*
X75000000Y-39400000D03*
X75000000Y-42600000D03*
D12*
X75000000Y-59380000D03*
D14*
X76800000Y-61000000D03*
D12*
X75000000Y-100620000D03*
D14*
X76800000Y-99020000D03*
D13*
X75000000Y-117400000D03*
X75000000Y-120600000D03*
D12*
X75000000Y-97400000D03*
D14*
X73200000Y-99020000D03*
%TD*%
D15*
%TO.C,BT3*%
X100000000Y-120600000D03*
D16*
X100000000Y-100620000D03*
D17*
X98200000Y-99000000D03*
X101800000Y-99000000D03*
D16*
X100000000Y-97400000D03*
D15*
X100000000Y-117400000D03*
D16*
X100000000Y-59380000D03*
X100000000Y-62600000D03*
D17*
X101800000Y-60980000D03*
D15*
X100000000Y-39400000D03*
D17*
X98200000Y-60980000D03*
D15*
X100000000Y-42600000D03*
%TD*%
D16*
%TO.C,BT1*%
X50000000Y-100620000D03*
D15*
X50000000Y-120600000D03*
D17*
X48200000Y-99000000D03*
D16*
X50000000Y-97400000D03*
D15*
X50000000Y-117400000D03*
D17*
X51800000Y-99000000D03*
D15*
X50000000Y-39400000D03*
D16*
X50000000Y-59380000D03*
D15*
X50000000Y-42600000D03*
D17*
X51800000Y-60980000D03*
X48200000Y-60980000D03*
D16*
X50000000Y-62600000D03*
%TD*%
D18*
%TO.C,TH1*%
X112500000Y-71150000D03*
X112500000Y-69500000D03*
%TD*%
M02*
