%TF.GenerationSoftware,KiCad,Pcbnew,(6.0.11)*%
%TF.CreationDate,2023-08-12T14:35:41-04:00*%
%TF.ProjectId,FP_Rev_21,46505f52-6576-45f3-9231-2e6b69636164,rev?*%
%TF.SameCoordinates,Original*%
%TF.FileFunction,Other,ECO1*%
%FSLAX46Y46*%
G04 Gerber Fmt 4.6, Leading zero omitted, Abs format (unit mm)*
G04 Created by KiCad (PCBNEW (6.0.11)) date 2023-08-12 14:35:41*
%MOMM*%
%LPD*%
G01*
G04 APERTURE LIST*
%ADD10C,0.250000*%
G04 APERTURE END LIST*
D10*
X168357142Y-45107142D02*
X168571428Y-45178571D01*
X168928571Y-45178571D01*
X169071428Y-45107142D01*
X169142857Y-45035714D01*
X169214285Y-44892857D01*
X169214285Y-44750000D01*
X169142857Y-44607142D01*
X169071428Y-44535714D01*
X168928571Y-44464285D01*
X168642857Y-44392857D01*
X168500000Y-44321428D01*
X168428571Y-44250000D01*
X168357142Y-44107142D01*
X168357142Y-43964285D01*
X168428571Y-43821428D01*
X168500000Y-43750000D01*
X168642857Y-43678571D01*
X169000000Y-43678571D01*
X169214285Y-43750000D01*
X169785714Y-44750000D02*
X170500000Y-44750000D01*
X169642857Y-45178571D02*
X170142857Y-43678571D01*
X170642857Y-45178571D01*
X170928571Y-43678571D02*
X171785714Y-43678571D01*
X171357142Y-45178571D02*
X171357142Y-43678571D01*
X111464285Y-65607142D02*
X111678571Y-65678571D01*
X112035714Y-65678571D01*
X112178571Y-65607142D01*
X112250000Y-65535714D01*
X112321428Y-65392857D01*
X112321428Y-65250000D01*
X112250000Y-65107142D01*
X112178571Y-65035714D01*
X112035714Y-64964285D01*
X111750000Y-64892857D01*
X111607142Y-64821428D01*
X111535714Y-64750000D01*
X111464285Y-64607142D01*
X111464285Y-64464285D01*
X111535714Y-64321428D01*
X111607142Y-64250000D01*
X111750000Y-64178571D01*
X112107142Y-64178571D01*
X112321428Y-64250000D01*
X112964285Y-64892857D02*
X113464285Y-64892857D01*
X113678571Y-65678571D02*
X112964285Y-65678571D01*
X112964285Y-64178571D01*
X113678571Y-64178571D01*
X114107142Y-64178571D02*
X114964285Y-64178571D01*
X114535714Y-65678571D02*
X114535714Y-64178571D01*
X115250000Y-64178571D02*
X116107142Y-64178571D01*
X115678571Y-65678571D02*
X115678571Y-64178571D01*
X117321428Y-65678571D02*
X116607142Y-65678571D01*
X116607142Y-64178571D01*
X117821428Y-64892857D02*
X118321428Y-64892857D01*
X118535714Y-65678571D02*
X117821428Y-65678571D01*
X117821428Y-64178571D01*
X118535714Y-64178571D01*
X142214285Y-65535714D02*
X142142857Y-65607142D01*
X141928571Y-65678571D01*
X141785714Y-65678571D01*
X141571428Y-65607142D01*
X141428571Y-65464285D01*
X141357142Y-65321428D01*
X141285714Y-65035714D01*
X141285714Y-64821428D01*
X141357142Y-64535714D01*
X141428571Y-64392857D01*
X141571428Y-64250000D01*
X141785714Y-64178571D01*
X141928571Y-64178571D01*
X142142857Y-64250000D01*
X142214285Y-64321428D01*
X142785714Y-65250000D02*
X143500000Y-65250000D01*
X142642857Y-65678571D02*
X143142857Y-64178571D01*
X143642857Y-65678571D01*
X144857142Y-65678571D02*
X144142857Y-65678571D01*
X144142857Y-64178571D01*
X153071428Y-65678571D02*
X153071428Y-64178571D01*
X153071428Y-64892857D02*
X153928571Y-64892857D01*
X153928571Y-65678571D02*
X153928571Y-64178571D01*
X154642857Y-65678571D02*
X154642857Y-64178571D01*
X155214285Y-64178571D01*
X155357142Y-64250000D01*
X155428571Y-64321428D01*
X155500000Y-64464285D01*
X155500000Y-64678571D01*
X155428571Y-64821428D01*
X155357142Y-64892857D01*
X155214285Y-64964285D01*
X154642857Y-64964285D01*
X157785714Y-64892857D02*
X157285714Y-64892857D01*
X157285714Y-65678571D02*
X157285714Y-64178571D01*
X158000000Y-64178571D01*
X158571428Y-65678571D02*
X158571428Y-64178571D01*
X160000000Y-65678571D02*
X159285714Y-65678571D01*
X159285714Y-64178571D01*
X160285714Y-64178571D02*
X161142857Y-64178571D01*
X160714285Y-65678571D02*
X160714285Y-64178571D01*
X126285714Y-65678571D02*
X126285714Y-64178571D01*
X126785714Y-65250000D01*
X127285714Y-64178571D01*
X127285714Y-65678571D01*
X128285714Y-64178571D02*
X128571428Y-64178571D01*
X128714285Y-64250000D01*
X128857142Y-64392857D01*
X128928571Y-64678571D01*
X128928571Y-65178571D01*
X128857142Y-65464285D01*
X128714285Y-65607142D01*
X128571428Y-65678571D01*
X128285714Y-65678571D01*
X128142857Y-65607142D01*
X128000000Y-65464285D01*
X127928571Y-65178571D01*
X127928571Y-64678571D01*
X128000000Y-64392857D01*
X128142857Y-64250000D01*
X128285714Y-64178571D01*
X129571428Y-65678571D02*
X129571428Y-64178571D01*
X129928571Y-64178571D01*
X130142857Y-64250000D01*
X130285714Y-64392857D01*
X130357142Y-64535714D01*
X130428571Y-64821428D01*
X130428571Y-65035714D01*
X130357142Y-65321428D01*
X130285714Y-65464285D01*
X130142857Y-65607142D01*
X129928571Y-65678571D01*
X129571428Y-65678571D01*
X131071428Y-64892857D02*
X131571428Y-64892857D01*
X131785714Y-65678571D02*
X131071428Y-65678571D01*
X131071428Y-64178571D01*
X131785714Y-64178571D01*
X167964285Y-65678571D02*
X167250000Y-65678571D01*
X167250000Y-64178571D01*
X168464285Y-65678571D02*
X168464285Y-64178571D01*
X169035714Y-64178571D01*
X169178571Y-64250000D01*
X169250000Y-64321428D01*
X169321428Y-64464285D01*
X169321428Y-64678571D01*
X169250000Y-64821428D01*
X169178571Y-64892857D01*
X169035714Y-64964285D01*
X168464285Y-64964285D01*
X171607142Y-64892857D02*
X171107142Y-64892857D01*
X171107142Y-65678571D02*
X171107142Y-64178571D01*
X171821428Y-64178571D01*
X172392857Y-65678571D02*
X172392857Y-64178571D01*
X173821428Y-65678571D02*
X173107142Y-65678571D01*
X173107142Y-64178571D01*
X174107142Y-64178571D02*
X174964285Y-64178571D01*
X174535714Y-65678571D02*
X174535714Y-64178571D01*
X183607142Y-64250000D02*
X183464285Y-64178571D01*
X183250000Y-64178571D01*
X183035714Y-64250000D01*
X182892857Y-64392857D01*
X182821428Y-64535714D01*
X182750000Y-64821428D01*
X182750000Y-65035714D01*
X182821428Y-65321428D01*
X182892857Y-65464285D01*
X183035714Y-65607142D01*
X183250000Y-65678571D01*
X183392857Y-65678571D01*
X183607142Y-65607142D01*
X183678571Y-65535714D01*
X183678571Y-65035714D01*
X183392857Y-65035714D01*
X184250000Y-65250000D02*
X184964285Y-65250000D01*
X184107142Y-65678571D02*
X184607142Y-64178571D01*
X185107142Y-65678571D01*
X185607142Y-65678571D02*
X185607142Y-64178571D01*
X186321428Y-65678571D02*
X186321428Y-64178571D01*
X187178571Y-65678571D01*
X187178571Y-64178571D01*
M02*
