%TF.GenerationSoftware,KiCad,Pcbnew,(6.0.11)*%
%TF.CreationDate,2023-08-12T14:35:41-04:00*%
%TF.ProjectId,FP_Rev_21,46505f52-6576-45f3-9231-2e6b69636164,rev?*%
%TF.SameCoordinates,Original*%
%TF.FileFunction,Soldermask,Bot*%
%TF.FilePolarity,Negative*%
%FSLAX46Y46*%
G04 Gerber Fmt 4.6, Leading zero omitted, Abs format (unit mm)*
G04 Created by KiCad (PCBNEW (6.0.11)) date 2023-08-12 14:35:41*
%MOMM*%
%LPD*%
G01*
G04 APERTURE LIST*
%ADD10C,0.150000*%
%ADD11C,3.000000*%
%ADD12C,7.500000*%
%ADD13C,5.000000*%
%ADD14C,8.000000*%
G04 APERTURE END LIST*
D10*
X105250000Y-83800000D02*
G75*
G03*
X105950000Y-84500000I699999J-1D01*
G01*
X105300000Y-84450000D02*
X105450000Y-84450000D01*
X105450000Y-84450000D02*
X105450000Y-84300000D01*
X105450000Y-84300000D02*
X105300000Y-84300000D01*
X105300000Y-84300000D02*
X105300000Y-84450000D01*
X194050000Y-84500000D02*
G75*
G03*
X194750000Y-83800000I1J699999D01*
G01*
X194700000Y-84450000D02*
X194550000Y-84450000D01*
X194550000Y-84450000D02*
X194550000Y-84300000D01*
X194550000Y-84300000D02*
X194700000Y-84300000D01*
X194700000Y-84300000D02*
X194700000Y-84450000D01*
X194750000Y-36200000D02*
G75*
G03*
X194050000Y-35500000I-699999J1D01*
G01*
X194700000Y-35550000D02*
X194550000Y-35550000D01*
X194550000Y-35550000D02*
X194550000Y-35700000D01*
X194550000Y-35700000D02*
X194700000Y-35700000D01*
X194700000Y-35700000D02*
X194700000Y-35550000D01*
X105300000Y-35550000D02*
X105450000Y-35550000D01*
X105450000Y-35550000D02*
X105450000Y-35700000D01*
X105450000Y-35700000D02*
X105300000Y-35700000D01*
X105300000Y-35700000D02*
X105300000Y-35550000D01*
X105950000Y-35500000D02*
G75*
G03*
X105250000Y-36200000I0J-700000D01*
G01*
X201880000Y-35500000D02*
X194750000Y-35500000D01*
X194750000Y-35500000D02*
X194750000Y-84500000D01*
X194750000Y-84500000D02*
X201880000Y-84500000D01*
X201880000Y-84500000D02*
X201880000Y-35500000D01*
G36*
X201880000Y-35500000D02*
G01*
X194750000Y-35500000D01*
X194750000Y-84500000D01*
X201880000Y-84500000D01*
X201880000Y-35500000D01*
G37*
X98500000Y-84500000D02*
X201500000Y-84500000D01*
X201500000Y-84500000D02*
X201500000Y-86500000D01*
X201500000Y-86500000D02*
X98500000Y-86500000D01*
X98500000Y-86500000D02*
X98500000Y-84500000D01*
G36*
X98500000Y-84500000D02*
G01*
X201500000Y-84500000D01*
X201500000Y-86500000D01*
X98500000Y-86500000D01*
X98500000Y-84500000D01*
G37*
X98500000Y-33500000D02*
X201500000Y-33500000D01*
X201500000Y-33500000D02*
X201500000Y-35500000D01*
X201500000Y-35500000D02*
X98500000Y-35500000D01*
X98500000Y-35500000D02*
X98500000Y-33500000D01*
G36*
X98500000Y-33500000D02*
G01*
X201500000Y-33500000D01*
X201500000Y-35500000D01*
X98500000Y-35500000D01*
X98500000Y-33500000D01*
G37*
X98120000Y-84500000D02*
X105250000Y-84500000D01*
X105250000Y-84500000D02*
X105250000Y-35500000D01*
X105250000Y-35500000D02*
X98120000Y-35500000D01*
X98120000Y-35500000D02*
X98120000Y-84500000D01*
G36*
X98120000Y-84500000D02*
G01*
X105250000Y-84500000D01*
X105250000Y-35500000D01*
X98120000Y-35500000D01*
X98120000Y-84500000D01*
G37*
D11*
%TO.C,H9*%
X170000000Y-56970000D03*
%TD*%
D12*
%TO.C,H14*%
X171000000Y-76500000D03*
%TD*%
D13*
%TO.C,H2*%
X101990000Y-82570000D03*
%TD*%
D14*
%TO.C,H7*%
X160000000Y-52200000D03*
%TD*%
D12*
%TO.C,H12*%
X143000000Y-76500000D03*
%TD*%
D11*
%TO.C,H8*%
X170000000Y-49030000D03*
%TD*%
D14*
%TO.C,H5*%
X120000000Y-52200000D03*
%TD*%
%TO.C,H6*%
X180000000Y-52200000D03*
%TD*%
D13*
%TO.C,H4*%
X198010000Y-37430000D03*
%TD*%
D12*
%TO.C,H15*%
X185000000Y-76500000D03*
%TD*%
%TO.C,H11*%
X129000000Y-76500000D03*
%TD*%
%TO.C,H13*%
X157000000Y-76500000D03*
%TD*%
%TO.C,H10*%
X115000000Y-76500000D03*
%TD*%
D13*
%TO.C,H3*%
X198010000Y-82570000D03*
%TD*%
%TO.C,H1*%
X101990000Y-37430000D03*
%TD*%
M02*
