%TF.GenerationSoftware,KiCad,Pcbnew,(6.0.11)*%
%TF.CreationDate,2023-08-12T14:35:41-04:00*%
%TF.ProjectId,FP_Rev_21,46505f52-6576-45f3-9231-2e6b69636164,rev?*%
%TF.SameCoordinates,Original*%
%TF.FileFunction,Copper,L1,Top*%
%TF.FilePolarity,Positive*%
%FSLAX46Y46*%
G04 Gerber Fmt 4.6, Leading zero omitted, Abs format (unit mm)*
G04 Created by KiCad (PCBNEW (6.0.11)) date 2023-08-12 14:35:41*
%MOMM*%
%LPD*%
G01*
G04 APERTURE LIST*
%TA.AperFunction,ComponentPad*%
%ADD10C,7.500000*%
%TD*%
%TA.AperFunction,ComponentPad*%
%ADD11C,5.000000*%
%TD*%
%TA.AperFunction,ComponentPad*%
%ADD12C,8.000000*%
%TD*%
G04 APERTURE END LIST*
D10*
%TO.P,H14,1,1*%
%TO.N,GND*%
X171000000Y-76500000D03*
%TD*%
D11*
%TO.P,H2,*%
%TO.N,GND*%
X101990000Y-82570000D03*
%TD*%
D12*
%TO.P,H7,1,1*%
%TO.N,GND*%
X160000000Y-52200000D03*
%TD*%
D10*
%TO.P,H12,1,1*%
%TO.N,GND*%
X143000000Y-76500000D03*
%TD*%
D12*
%TO.P,H5,1,1*%
%TO.N,unconnected-(H5-Pad1)*%
X120000000Y-52200000D03*
%TD*%
%TO.P,H6,1,1*%
%TO.N,GND*%
X180000000Y-52200000D03*
%TD*%
D11*
%TO.P,H4,*%
%TO.N,GND*%
X198010000Y-37430000D03*
%TD*%
D10*
%TO.P,H15,1,1*%
%TO.N,GND*%
X185000000Y-76500000D03*
%TD*%
%TO.P,H11,1,1*%
%TO.N,GND*%
X129000000Y-76500000D03*
%TD*%
%TO.P,H13,1,1*%
%TO.N,GND*%
X157000000Y-76500000D03*
%TD*%
%TO.P,H10,1,1*%
%TO.N,GND*%
X115000000Y-76500000D03*
%TD*%
D11*
%TO.P,H3,*%
%TO.N,GND*%
X198010000Y-82570000D03*
%TD*%
%TO.P,H1,*%
%TO.N,GND*%
X101990000Y-37430000D03*
%TD*%
%TA.AperFunction,Conductor*%
%TO.N,GND*%
G36*
X198100018Y-34010000D02*
G01*
X198114851Y-34012310D01*
X198114855Y-34012310D01*
X198123724Y-34013691D01*
X198142436Y-34011244D01*
X198165366Y-34010353D01*
X198462229Y-34025911D01*
X198475345Y-34027289D01*
X198797424Y-34078302D01*
X198810324Y-34081044D01*
X199125305Y-34165442D01*
X199137842Y-34169516D01*
X199407343Y-34272967D01*
X199442268Y-34286374D01*
X199454316Y-34291738D01*
X199744867Y-34439782D01*
X199756288Y-34446376D01*
X200029773Y-34623978D01*
X200040443Y-34631731D01*
X200293856Y-34836941D01*
X200303657Y-34845766D01*
X200534234Y-35076343D01*
X200543059Y-35086144D01*
X200748269Y-35339557D01*
X200756022Y-35350227D01*
X200933624Y-35623712D01*
X200940218Y-35635133D01*
X201088262Y-35925684D01*
X201093626Y-35937732D01*
X201210482Y-36242151D01*
X201214558Y-36254695D01*
X201298956Y-36569676D01*
X201301698Y-36582576D01*
X201352711Y-36904655D01*
X201354089Y-36917772D01*
X201369262Y-37207298D01*
X201367935Y-37233273D01*
X201367691Y-37234843D01*
X201367691Y-37234849D01*
X201366309Y-37243724D01*
X201367473Y-37252626D01*
X201367473Y-37252628D01*
X201370436Y-37275283D01*
X201371500Y-37291621D01*
X201371500Y-82700633D01*
X201370000Y-82720018D01*
X201367690Y-82734851D01*
X201367690Y-82734855D01*
X201366309Y-82743724D01*
X201368136Y-82757693D01*
X201368756Y-82762433D01*
X201369647Y-82785367D01*
X201354089Y-83082228D01*
X201352711Y-83095345D01*
X201301698Y-83417424D01*
X201298956Y-83430324D01*
X201214558Y-83745305D01*
X201210482Y-83757849D01*
X201093626Y-84062268D01*
X201088262Y-84074316D01*
X200940218Y-84364867D01*
X200933624Y-84376288D01*
X200756022Y-84649773D01*
X200748269Y-84660443D01*
X200543059Y-84913856D01*
X200534234Y-84923657D01*
X200303657Y-85154234D01*
X200293856Y-85163059D01*
X200040443Y-85368269D01*
X200029773Y-85376022D01*
X199756288Y-85553624D01*
X199744867Y-85560218D01*
X199454316Y-85708262D01*
X199442267Y-85713626D01*
X199137842Y-85830484D01*
X199125305Y-85834558D01*
X198810324Y-85918956D01*
X198797424Y-85921698D01*
X198475345Y-85972711D01*
X198462229Y-85974089D01*
X198426646Y-85975954D01*
X198172702Y-85989262D01*
X198146727Y-85987935D01*
X198145157Y-85987691D01*
X198145151Y-85987691D01*
X198136276Y-85986309D01*
X198127374Y-85987473D01*
X198127372Y-85987473D01*
X198112323Y-85989441D01*
X198104714Y-85990436D01*
X198088379Y-85991500D01*
X101919367Y-85991500D01*
X101899982Y-85990000D01*
X101885149Y-85987690D01*
X101885145Y-85987690D01*
X101876276Y-85986309D01*
X101857564Y-85988756D01*
X101834634Y-85989647D01*
X101537771Y-85974089D01*
X101524655Y-85972711D01*
X101202576Y-85921698D01*
X101189676Y-85918956D01*
X100874695Y-85834558D01*
X100862158Y-85830484D01*
X100557733Y-85713626D01*
X100545684Y-85708262D01*
X100255133Y-85560218D01*
X100243712Y-85553624D01*
X99970227Y-85376022D01*
X99959557Y-85368269D01*
X99706144Y-85163059D01*
X99696343Y-85154234D01*
X99465766Y-84923657D01*
X99456941Y-84913856D01*
X99251731Y-84660443D01*
X99243978Y-84649773D01*
X99066376Y-84376288D01*
X99059782Y-84364867D01*
X98911738Y-84074316D01*
X98906374Y-84062268D01*
X98789518Y-83757849D01*
X98785442Y-83745305D01*
X98701044Y-83430324D01*
X98698302Y-83417424D01*
X98647289Y-83095345D01*
X98645911Y-83082228D01*
X98630932Y-82796415D01*
X98632506Y-82768910D01*
X98632770Y-82767341D01*
X98633576Y-82762552D01*
X98633729Y-82750000D01*
X98629773Y-82722376D01*
X98628500Y-82704514D01*
X98628500Y-56899733D01*
X167987822Y-56899733D01*
X167997625Y-57180458D01*
X167998387Y-57184781D01*
X167998388Y-57184788D01*
X168022164Y-57319624D01*
X168046402Y-57457087D01*
X168133203Y-57724235D01*
X168256340Y-57976702D01*
X168258795Y-57980341D01*
X168258798Y-57980347D01*
X168331890Y-58088710D01*
X168413415Y-58209576D01*
X168601371Y-58418322D01*
X168816550Y-58598879D01*
X169054764Y-58747731D01*
X169311375Y-58861982D01*
X169581390Y-58939407D01*
X169585740Y-58940018D01*
X169585743Y-58940019D01*
X169688690Y-58954487D01*
X169859552Y-58978500D01*
X170070146Y-58978500D01*
X170072332Y-58978347D01*
X170072336Y-58978347D01*
X170275827Y-58964118D01*
X170275832Y-58964117D01*
X170280212Y-58963811D01*
X170554970Y-58905409D01*
X170559099Y-58903906D01*
X170559103Y-58903905D01*
X170814781Y-58810846D01*
X170814785Y-58810844D01*
X170818926Y-58809337D01*
X171066942Y-58677464D01*
X171171896Y-58601211D01*
X171290629Y-58514947D01*
X171290632Y-58514944D01*
X171294192Y-58512358D01*
X171496252Y-58317231D01*
X171669188Y-58095882D01*
X171671384Y-58092078D01*
X171671389Y-58092071D01*
X171807435Y-57856431D01*
X171809636Y-57852619D01*
X171914862Y-57592176D01*
X171948544Y-57457087D01*
X171981753Y-57323893D01*
X171981754Y-57323888D01*
X171982817Y-57319624D01*
X172012178Y-57040267D01*
X172002375Y-56759542D01*
X171994186Y-56713096D01*
X171963512Y-56539139D01*
X171953598Y-56482913D01*
X171866797Y-56215765D01*
X171743660Y-55963298D01*
X171741205Y-55959659D01*
X171741202Y-55959653D01*
X171644020Y-55815575D01*
X171586585Y-55730424D01*
X171398629Y-55521678D01*
X171183450Y-55341121D01*
X170945236Y-55192269D01*
X170688625Y-55078018D01*
X170418610Y-55000593D01*
X170414260Y-54999982D01*
X170414257Y-54999981D01*
X170311310Y-54985513D01*
X170140448Y-54961500D01*
X169929854Y-54961500D01*
X169927668Y-54961653D01*
X169927664Y-54961653D01*
X169724173Y-54975882D01*
X169724168Y-54975883D01*
X169719788Y-54976189D01*
X169445030Y-55034591D01*
X169440901Y-55036094D01*
X169440897Y-55036095D01*
X169185219Y-55129154D01*
X169185215Y-55129156D01*
X169181074Y-55130663D01*
X168933058Y-55262536D01*
X168929499Y-55265122D01*
X168929497Y-55265123D01*
X168824895Y-55341121D01*
X168705808Y-55427642D01*
X168503748Y-55622769D01*
X168330812Y-55844118D01*
X168328616Y-55847922D01*
X168328611Y-55847929D01*
X168216275Y-56042501D01*
X168190364Y-56087381D01*
X168085138Y-56347824D01*
X168084073Y-56352097D01*
X168084072Y-56352099D01*
X168033222Y-56556049D01*
X168017183Y-56620376D01*
X168016724Y-56624744D01*
X168016723Y-56624749D01*
X168009663Y-56691926D01*
X167987822Y-56899733D01*
X98628500Y-56899733D01*
X98628500Y-52357512D01*
X115489433Y-52357512D01*
X115489662Y-52360357D01*
X115489662Y-52360360D01*
X115517465Y-52705910D01*
X115522273Y-52765668D01*
X115591969Y-53169168D01*
X115697949Y-53564691D01*
X115839340Y-53948980D01*
X116014979Y-54318874D01*
X116132260Y-54517186D01*
X116193473Y-54620691D01*
X116223418Y-54671326D01*
X116225080Y-54673630D01*
X116225081Y-54673632D01*
X116460894Y-55000593D01*
X116462944Y-55003436D01*
X116731584Y-55312471D01*
X117027126Y-55595886D01*
X117029344Y-55597656D01*
X117029349Y-55597661D01*
X117187132Y-55723617D01*
X117347139Y-55851349D01*
X117349520Y-55852919D01*
X117639482Y-56044113D01*
X117688989Y-56076757D01*
X117691519Y-56078113D01*
X117691518Y-56078113D01*
X117998340Y-56242630D01*
X118049860Y-56270255D01*
X118426784Y-56430250D01*
X118429522Y-56431129D01*
X118813931Y-56554549D01*
X118813935Y-56554550D01*
X118816657Y-56555424D01*
X118819447Y-56556048D01*
X118819452Y-56556049D01*
X119213477Y-56644125D01*
X119213488Y-56644127D01*
X119216271Y-56644749D01*
X119622335Y-56697487D01*
X120031509Y-56713206D01*
X120034371Y-56713056D01*
X120034372Y-56713056D01*
X120437566Y-56691926D01*
X120437573Y-56691925D01*
X120440422Y-56691776D01*
X120443245Y-56691369D01*
X120443247Y-56691369D01*
X120842889Y-56633780D01*
X120842896Y-56633779D01*
X120845711Y-56633373D01*
X121244038Y-56538478D01*
X121246736Y-56537570D01*
X121246743Y-56537568D01*
X121629414Y-56408785D01*
X121629420Y-56408783D01*
X121632126Y-56407872D01*
X122006779Y-56242630D01*
X122364914Y-56044113D01*
X122703583Y-55813954D01*
X123019998Y-55554047D01*
X123022036Y-55552038D01*
X123022043Y-55552031D01*
X123267161Y-55310311D01*
X123311555Y-55266533D01*
X123426374Y-55130663D01*
X123574008Y-54955963D01*
X123574013Y-54955957D01*
X123575854Y-54953778D01*
X123810719Y-54618356D01*
X124014217Y-54263027D01*
X124156815Y-53951567D01*
X124183485Y-53893316D01*
X124183488Y-53893307D01*
X124184674Y-53890718D01*
X124320685Y-53504492D01*
X124421133Y-53107528D01*
X124485189Y-52703095D01*
X124512326Y-52294520D01*
X124513316Y-52200000D01*
X124494741Y-51790947D01*
X124439169Y-51385260D01*
X124347057Y-50986280D01*
X124340195Y-50965409D01*
X124220057Y-50600005D01*
X124220054Y-50599998D01*
X124219164Y-50597290D01*
X124056542Y-50221492D01*
X123890217Y-49916431D01*
X123861899Y-49864492D01*
X123861895Y-49864485D01*
X123860529Y-49861980D01*
X123722811Y-49656259D01*
X123634332Y-49524090D01*
X123634324Y-49524079D01*
X123632740Y-49521713D01*
X123375049Y-49203491D01*
X123196382Y-49019763D01*
X123138005Y-48959733D01*
X167987822Y-48959733D01*
X167997625Y-49240458D01*
X167998387Y-49244781D01*
X167998388Y-49244788D01*
X168022164Y-49379624D01*
X168046402Y-49517087D01*
X168133203Y-49784235D01*
X168135131Y-49788188D01*
X168135133Y-49788193D01*
X168171122Y-49861980D01*
X168256340Y-50036702D01*
X168258795Y-50040341D01*
X168258798Y-50040347D01*
X168331890Y-50148710D01*
X168413415Y-50269576D01*
X168601371Y-50478322D01*
X168816550Y-50658879D01*
X169054764Y-50807731D01*
X169311375Y-50921982D01*
X169581390Y-50999407D01*
X169585740Y-51000018D01*
X169585743Y-51000019D01*
X169688690Y-51014487D01*
X169859552Y-51038500D01*
X170070146Y-51038500D01*
X170072332Y-51038347D01*
X170072336Y-51038347D01*
X170275827Y-51024118D01*
X170275832Y-51024117D01*
X170280212Y-51023811D01*
X170554970Y-50965409D01*
X170559099Y-50963906D01*
X170559103Y-50963905D01*
X170814781Y-50870846D01*
X170814785Y-50870844D01*
X170818926Y-50869337D01*
X171066942Y-50737464D01*
X171171896Y-50661211D01*
X171290629Y-50574947D01*
X171290632Y-50574944D01*
X171294192Y-50572358D01*
X171496252Y-50377231D01*
X171669188Y-50155882D01*
X171671384Y-50152078D01*
X171671389Y-50152071D01*
X171807435Y-49916431D01*
X171809636Y-49912619D01*
X171914862Y-49652176D01*
X171915944Y-49647837D01*
X171981753Y-49383893D01*
X171981754Y-49383888D01*
X171982817Y-49379624D01*
X171988758Y-49323104D01*
X172011719Y-49104636D01*
X172011719Y-49104633D01*
X172012178Y-49100267D01*
X172002375Y-48819542D01*
X171988501Y-48740855D01*
X171954360Y-48547236D01*
X171953598Y-48542913D01*
X171866797Y-48275765D01*
X171743660Y-48023298D01*
X171741205Y-48019659D01*
X171741202Y-48019653D01*
X171652270Y-47887806D01*
X171586585Y-47790424D01*
X171582631Y-47786032D01*
X171401566Y-47584940D01*
X171398629Y-47581678D01*
X171183450Y-47401121D01*
X170945236Y-47252269D01*
X170688625Y-47138018D01*
X170418610Y-47060593D01*
X170414260Y-47059982D01*
X170414257Y-47059981D01*
X170311310Y-47045513D01*
X170140448Y-47021500D01*
X169929854Y-47021500D01*
X169927668Y-47021653D01*
X169927664Y-47021653D01*
X169724173Y-47035882D01*
X169724168Y-47035883D01*
X169719788Y-47036189D01*
X169445030Y-47094591D01*
X169440901Y-47096094D01*
X169440897Y-47096095D01*
X169185219Y-47189154D01*
X169185215Y-47189156D01*
X169181074Y-47190663D01*
X168933058Y-47322536D01*
X168929499Y-47325122D01*
X168929497Y-47325123D01*
X168824895Y-47401121D01*
X168705808Y-47487642D01*
X168503748Y-47682769D01*
X168330812Y-47904118D01*
X168328616Y-47907922D01*
X168328611Y-47907929D01*
X168259033Y-48028442D01*
X168190364Y-48147381D01*
X168085138Y-48407824D01*
X168084073Y-48412097D01*
X168084072Y-48412099D01*
X168026388Y-48643458D01*
X168017183Y-48680376D01*
X168016724Y-48684744D01*
X168016723Y-48684749D01*
X168010643Y-48742599D01*
X167987822Y-48959733D01*
X123138005Y-48959733D01*
X123091567Y-48911980D01*
X123091563Y-48911976D01*
X123089577Y-48909934D01*
X123087419Y-48908084D01*
X123087409Y-48908075D01*
X122780849Y-48645321D01*
X122780844Y-48645317D01*
X122778675Y-48643458D01*
X122776344Y-48641801D01*
X122776337Y-48641796D01*
X122570663Y-48495632D01*
X122444900Y-48406257D01*
X122213892Y-48271807D01*
X122093474Y-48201722D01*
X122093469Y-48201719D01*
X122091001Y-48200283D01*
X121856846Y-48091095D01*
X121722487Y-48028442D01*
X121722477Y-48028438D01*
X121719891Y-48027232D01*
X121698840Y-48019653D01*
X121337314Y-47889495D01*
X121337305Y-47889492D01*
X121334624Y-47888527D01*
X120972017Y-47794075D01*
X120941140Y-47786032D01*
X120941134Y-47786031D01*
X120938371Y-47785311D01*
X120534395Y-47718433D01*
X120531552Y-47718224D01*
X120531550Y-47718224D01*
X120128865Y-47688653D01*
X120126019Y-47688444D01*
X119956043Y-47691411D01*
X119719458Y-47695540D01*
X119719453Y-47695540D01*
X119716607Y-47695590D01*
X119713774Y-47695898D01*
X119713770Y-47695898D01*
X119384896Y-47731625D01*
X119309527Y-47739813D01*
X118908130Y-47820749D01*
X118905402Y-47821562D01*
X118905391Y-47821565D01*
X118640097Y-47900653D01*
X118515721Y-47937731D01*
X118513060Y-47938795D01*
X118513058Y-47938796D01*
X118288927Y-48028442D01*
X118135529Y-48089797D01*
X118132982Y-48091095D01*
X117773227Y-48274399D01*
X117773222Y-48274402D01*
X117770684Y-48275695D01*
X117768265Y-48277218D01*
X117768262Y-48277220D01*
X117597437Y-48384794D01*
X117424189Y-48493894D01*
X117098896Y-48742599D01*
X116797483Y-49019763D01*
X116522430Y-49323104D01*
X116276002Y-49650125D01*
X116060227Y-49998135D01*
X116058947Y-50000691D01*
X116058942Y-50000700D01*
X115981233Y-50155882D01*
X115876881Y-50364269D01*
X115875840Y-50366925D01*
X115875837Y-50366932D01*
X115731641Y-50734877D01*
X115727473Y-50745513D01*
X115726681Y-50748240D01*
X115726677Y-50748251D01*
X115642352Y-51038500D01*
X115613233Y-51138729D01*
X115535101Y-51540681D01*
X115493721Y-51948060D01*
X115489433Y-52357512D01*
X98628500Y-52357512D01*
X98628500Y-37303250D01*
X98630246Y-37282345D01*
X98632770Y-37267344D01*
X98632770Y-37267341D01*
X98633576Y-37262552D01*
X98633729Y-37250000D01*
X98633039Y-37245180D01*
X98631644Y-37235437D01*
X98630545Y-37210983D01*
X98645911Y-36917772D01*
X98647289Y-36904655D01*
X98698302Y-36582576D01*
X98701044Y-36569676D01*
X98785442Y-36254695D01*
X98789518Y-36242151D01*
X98906374Y-35937732D01*
X98911738Y-35925684D01*
X99059782Y-35635133D01*
X99066376Y-35623712D01*
X99243978Y-35350227D01*
X99251731Y-35339557D01*
X99456941Y-35086144D01*
X99465766Y-35076343D01*
X99696343Y-34845766D01*
X99706144Y-34836941D01*
X99959557Y-34631731D01*
X99970227Y-34623978D01*
X100243712Y-34446376D01*
X100255133Y-34439782D01*
X100545684Y-34291738D01*
X100557732Y-34286374D01*
X100592657Y-34272967D01*
X100862158Y-34169516D01*
X100874695Y-34165442D01*
X101189676Y-34081044D01*
X101202576Y-34078302D01*
X101524655Y-34027289D01*
X101537771Y-34025911D01*
X101573354Y-34024046D01*
X101827298Y-34010738D01*
X101853273Y-34012065D01*
X101854843Y-34012309D01*
X101854849Y-34012309D01*
X101863724Y-34013691D01*
X101872626Y-34012527D01*
X101872628Y-34012527D01*
X101887677Y-34010559D01*
X101895286Y-34009564D01*
X101911621Y-34008500D01*
X198080633Y-34008500D01*
X198100018Y-34010000D01*
G37*
%TD.AperFunction*%
%TD*%
M02*
