%TF.GenerationSoftware,KiCad,Pcbnew,(6.0.11)*%
%TF.CreationDate,2023-07-06T01:04:48-04:00*%
%TF.ProjectId,RP_CHG_r01,52505f43-4847-45f7-9230-312e6b696361,rev?*%
%TF.SameCoordinates,Original*%
%TF.FileFunction,Copper,L3,Inr*%
%TF.FilePolarity,Positive*%
%FSLAX46Y46*%
G04 Gerber Fmt 4.6, Leading zero omitted, Abs format (unit mm)*
G04 Created by KiCad (PCBNEW (6.0.11)) date 2023-07-06 01:04:48*
%MOMM*%
%LPD*%
G01*
G04 APERTURE LIST*
%TA.AperFunction,ComponentPad*%
%ADD10C,14.000000*%
%TD*%
%TA.AperFunction,ComponentPad*%
%ADD11C,7.500000*%
%TD*%
%TA.AperFunction,ComponentPad*%
%ADD12C,7.000000*%
%TD*%
%TA.AperFunction,ViaPad*%
%ADD13C,0.450000*%
%TD*%
%TA.AperFunction,Conductor*%
%ADD14C,0.150000*%
%TD*%
%TA.AperFunction,Conductor*%
%ADD15C,0.200000*%
%TD*%
G04 APERTURE END LIST*
D10*
%TO.N,EP*%
%TO.C,J1*%
X60070000Y-76975000D03*
%TD*%
D11*
%TO.N,CASE*%
%TO.C,H5*%
X60070000Y-52975000D03*
%TD*%
D12*
%TO.N,CASE*%
%TO.C,H4*%
X128070000Y-42375000D03*
%TD*%
%TO.N,CASE*%
%TO.C,H1*%
X32070000Y-42375000D03*
%TD*%
%TO.N,CASE*%
%TO.C,H3*%
X128070000Y-87575000D03*
%TD*%
%TO.N,CASE*%
%TO.C,H2*%
X32070000Y-87575000D03*
%TD*%
D13*
%TO.N,PH*%
X85670000Y-53125000D03*
%TO.N,/BTST*%
X81220000Y-58675000D03*
%TO.N,CE*%
X77470000Y-63375000D03*
%TO.N,STAT1*%
X70270000Y-64375000D03*
%TO.N,STAT2*%
X68470000Y-64975000D03*
X81170000Y-64075000D03*
%TO.N,PACK+*%
X83395000Y-63020000D03*
X91990000Y-57155000D03*
%TO.N,CE*%
X78995000Y-61545000D03*
%TO.N,CHG_VCC*%
X79270000Y-58975000D03*
X72270000Y-61475000D03*
%TO.N,PH*%
X88270000Y-60975000D03*
%TO.N,/BTST*%
X87170000Y-60075000D03*
%TO.N,SRP*%
X84107500Y-63132500D03*
X92770000Y-57175000D03*
%TO.N,VFB*%
X90465000Y-62170000D03*
X83407500Y-63732500D03*
%TO.N,STAT1*%
X78982500Y-63562500D03*
%TD*%
D14*
%TO.N,/BTST*%
X86170000Y-60075000D02*
X87170000Y-60075000D01*
X85370000Y-59275000D02*
X86170000Y-60075000D01*
X85370000Y-58575000D02*
X85370000Y-59275000D01*
X84795000Y-58000000D02*
X85370000Y-58575000D01*
X84170000Y-57975000D02*
X84195000Y-58000000D01*
X82416752Y-57975000D02*
X84170000Y-57975000D01*
X81220000Y-58675000D02*
X81716752Y-58675000D01*
X81716752Y-58675000D02*
X82416752Y-57975000D01*
X84195000Y-58000000D02*
X84795000Y-58000000D01*
D15*
%TO.N,PH*%
X88270000Y-60325000D02*
X88270000Y-60975000D01*
X87520000Y-59575000D02*
X88270000Y-60325000D01*
X86670000Y-59575000D02*
X87520000Y-59575000D01*
X86220000Y-59125000D02*
X86670000Y-59575000D01*
X86220000Y-53675000D02*
X86220000Y-59125000D01*
X85670000Y-53125000D02*
X86220000Y-53675000D01*
D14*
%TO.N,VFB*%
X84125000Y-64450000D02*
X83407500Y-63732500D01*
X87995000Y-64450000D02*
X84125000Y-64450000D01*
X90465000Y-62170000D02*
X90275000Y-62170000D01*
X90275000Y-62170000D02*
X87995000Y-64450000D01*
%TO.N,CE*%
X78995000Y-61850000D02*
X78995000Y-61545000D01*
X77470000Y-63375000D02*
X78995000Y-61850000D01*
%TO.N,STAT2*%
X80970000Y-64275000D02*
X81170000Y-64075000D01*
X78868248Y-64275000D02*
X80970000Y-64275000D01*
X68470000Y-64975000D02*
X78168248Y-64975000D01*
X78168248Y-64975000D02*
X78868248Y-64275000D01*
%TO.N,STAT1*%
X70270000Y-64375000D02*
X78170000Y-64375000D01*
X78170000Y-64375000D02*
X78982500Y-63562500D01*
%TO.N,PACK+*%
X88870000Y-61375000D02*
X88070000Y-62175000D01*
X83670000Y-62175000D02*
X83395000Y-62450000D01*
X91990000Y-57155000D02*
X88870000Y-60275000D01*
X88070000Y-62175000D02*
X83670000Y-62175000D01*
X88870000Y-60275000D02*
X88870000Y-61375000D01*
X83395000Y-62450000D02*
X83395000Y-63020000D01*
%TO.N,CHG_VCC*%
X78770000Y-59475000D02*
X74270000Y-59475000D01*
X74270000Y-59475000D02*
X72270000Y-61475000D01*
X79270000Y-58975000D02*
X78770000Y-59475000D01*
%TO.N,SRP*%
X84107500Y-62637500D02*
X84107500Y-63132500D01*
X84270000Y-62475000D02*
X84107500Y-62637500D01*
X89270000Y-61399264D02*
X88194264Y-62475000D01*
X89270000Y-60675000D02*
X89270000Y-61399264D01*
X92770000Y-57175000D02*
X89270000Y-60675000D01*
X88194264Y-62475000D02*
X84270000Y-62475000D01*
%TD*%
%TA.AperFunction,Conductor*%
%TO.N,CASE*%
G36*
X128050242Y-37877466D02*
G01*
X128055811Y-37877476D01*
X128069641Y-37880656D01*
X128083482Y-37877524D01*
X128097669Y-37877549D01*
X128097669Y-37877772D01*
X128105651Y-37877057D01*
X128403240Y-37890050D01*
X128456662Y-37892382D01*
X128467610Y-37893340D01*
X128845887Y-37943141D01*
X128856696Y-37945048D01*
X129229184Y-38027626D01*
X129239801Y-38030471D01*
X129603677Y-38145200D01*
X129613991Y-38148953D01*
X129966504Y-38294969D01*
X129976439Y-38299602D01*
X130314878Y-38475783D01*
X130324387Y-38481273D01*
X130646162Y-38686266D01*
X130655166Y-38692570D01*
X130957864Y-38924838D01*
X130966284Y-38931904D01*
X131247571Y-39189656D01*
X131255340Y-39197425D01*
X131513096Y-39478716D01*
X131520162Y-39487136D01*
X131752430Y-39789834D01*
X131758734Y-39798838D01*
X131963727Y-40120613D01*
X131969217Y-40130122D01*
X132145398Y-40468561D01*
X132150031Y-40478496D01*
X132296044Y-40831002D01*
X132299803Y-40841331D01*
X132414529Y-41205198D01*
X132417374Y-41215816D01*
X132499951Y-41588296D01*
X132501860Y-41599121D01*
X132551660Y-41977389D01*
X132552618Y-41988339D01*
X132567919Y-42338780D01*
X132567201Y-42346624D01*
X132567549Y-42346625D01*
X132567524Y-42360811D01*
X132564344Y-42374641D01*
X132567475Y-42388480D01*
X132567467Y-42393311D01*
X132569500Y-42411504D01*
X132569500Y-87537920D01*
X132567534Y-87555242D01*
X132567524Y-87560811D01*
X132564344Y-87574641D01*
X132567476Y-87588482D01*
X132567451Y-87602669D01*
X132567228Y-87602669D01*
X132567943Y-87610651D01*
X132552618Y-87961661D01*
X132551660Y-87972611D01*
X132501860Y-88350879D01*
X132499951Y-88361704D01*
X132417374Y-88734184D01*
X132414529Y-88744802D01*
X132299803Y-89108669D01*
X132296047Y-89118991D01*
X132240677Y-89252667D01*
X132150035Y-89471495D01*
X132145398Y-89481439D01*
X131969217Y-89819878D01*
X131963727Y-89829387D01*
X131758734Y-90151162D01*
X131752430Y-90160166D01*
X131520162Y-90462864D01*
X131513098Y-90471281D01*
X131277876Y-90727982D01*
X131255344Y-90752571D01*
X131247571Y-90760344D01*
X130966284Y-91018096D01*
X130957864Y-91025162D01*
X130655166Y-91257430D01*
X130646162Y-91263734D01*
X130324387Y-91468727D01*
X130314878Y-91474217D01*
X129976439Y-91650398D01*
X129966504Y-91655031D01*
X129613991Y-91801047D01*
X129603677Y-91804800D01*
X129239802Y-91919529D01*
X129229185Y-91922374D01*
X128856696Y-92004952D01*
X128845887Y-92006859D01*
X128467611Y-92056660D01*
X128456662Y-92057618D01*
X128106217Y-92072919D01*
X128098376Y-92072201D01*
X128098375Y-92072549D01*
X128084189Y-92072524D01*
X128070359Y-92069344D01*
X128056520Y-92072475D01*
X128051689Y-92072467D01*
X128033496Y-92074500D01*
X32107080Y-92074500D01*
X32089758Y-92072534D01*
X32084189Y-92072524D01*
X32070359Y-92069344D01*
X32056518Y-92072476D01*
X32042331Y-92072451D01*
X32042331Y-92072228D01*
X32034349Y-92072943D01*
X31736760Y-92059950D01*
X31683338Y-92057618D01*
X31672389Y-92056660D01*
X31294113Y-92006859D01*
X31283304Y-92004952D01*
X30910815Y-91922374D01*
X30900198Y-91919529D01*
X30536323Y-91804800D01*
X30526009Y-91801047D01*
X30173496Y-91655031D01*
X30163561Y-91650398D01*
X29825122Y-91474217D01*
X29815613Y-91468727D01*
X29493838Y-91263734D01*
X29484834Y-91257430D01*
X29182136Y-91025162D01*
X29173716Y-91018096D01*
X28892429Y-90760344D01*
X28884656Y-90752571D01*
X28862125Y-90727982D01*
X28626902Y-90471281D01*
X28619838Y-90462864D01*
X28387570Y-90160166D01*
X28381266Y-90151162D01*
X28176273Y-89829387D01*
X28170783Y-89819878D01*
X27994602Y-89481439D01*
X27989965Y-89471495D01*
X27899324Y-89252667D01*
X27843953Y-89118991D01*
X27840197Y-89108669D01*
X27725471Y-88744802D01*
X27722626Y-88734184D01*
X27640049Y-88361704D01*
X27638140Y-88350879D01*
X27588340Y-87972611D01*
X27587382Y-87961661D01*
X27572094Y-87611508D01*
X27574090Y-87589863D01*
X27573226Y-87589764D01*
X27574042Y-87582678D01*
X27575655Y-87575718D01*
X27575656Y-87575000D01*
X27573654Y-87566225D01*
X27570500Y-87538210D01*
X27570500Y-76975000D01*
X38764532Y-76975000D01*
X38784365Y-77201692D01*
X38785789Y-77207005D01*
X38785789Y-77207007D01*
X38824138Y-77350126D01*
X38843261Y-77421496D01*
X38845583Y-77426476D01*
X38845584Y-77426478D01*
X38917291Y-77580252D01*
X38939432Y-77627734D01*
X39069953Y-77814139D01*
X39230861Y-77975047D01*
X39417266Y-78105568D01*
X39422244Y-78107889D01*
X39422247Y-78107891D01*
X39618522Y-78199416D01*
X39623504Y-78201739D01*
X39628812Y-78203161D01*
X39628814Y-78203162D01*
X39837993Y-78259211D01*
X39837995Y-78259211D01*
X39843308Y-78260635D01*
X39942302Y-78269296D01*
X40010492Y-78275262D01*
X40010499Y-78275262D01*
X40013216Y-78275500D01*
X40126784Y-78275500D01*
X40129501Y-78275262D01*
X40129508Y-78275262D01*
X40197698Y-78269296D01*
X40296692Y-78260635D01*
X40302005Y-78259211D01*
X40302007Y-78259211D01*
X40511186Y-78203162D01*
X40511188Y-78203161D01*
X40516496Y-78201739D01*
X40521478Y-78199416D01*
X40717753Y-78107891D01*
X40717756Y-78107889D01*
X40722734Y-78105568D01*
X40909139Y-77975047D01*
X41070047Y-77814139D01*
X41200568Y-77627734D01*
X41222710Y-77580252D01*
X41294416Y-77426478D01*
X41294417Y-77426476D01*
X41296739Y-77421496D01*
X41315863Y-77350126D01*
X41354211Y-77207007D01*
X41354211Y-77207005D01*
X41355635Y-77201692D01*
X41368867Y-77050455D01*
X52864856Y-77050455D01*
X52889732Y-77577944D01*
X52890010Y-77580244D01*
X52890011Y-77580252D01*
X52918786Y-77818034D01*
X52953173Y-78102195D01*
X53054839Y-78620391D01*
X53194184Y-79129750D01*
X53370459Y-79627536D01*
X53371388Y-79629652D01*
X53493500Y-79907830D01*
X53582718Y-80111075D01*
X53829820Y-80577769D01*
X54110439Y-81025114D01*
X54423066Y-81450705D01*
X54766024Y-81852256D01*
X55137469Y-82227612D01*
X55139200Y-82229122D01*
X55139201Y-82229123D01*
X55533674Y-82573245D01*
X55533687Y-82573255D01*
X55535407Y-82574756D01*
X55537242Y-82576134D01*
X55537246Y-82576137D01*
X55955845Y-82890430D01*
X55955854Y-82890436D01*
X55957701Y-82891823D01*
X56402082Y-83177110D01*
X56404112Y-83178212D01*
X56864141Y-83427988D01*
X56864150Y-83427992D01*
X56866164Y-83429086D01*
X56868257Y-83430031D01*
X56868259Y-83430032D01*
X57345341Y-83645444D01*
X57345355Y-83645450D01*
X57347453Y-83646397D01*
X57843366Y-83827875D01*
X57845593Y-83828509D01*
X57845598Y-83828511D01*
X58349015Y-83971913D01*
X58349021Y-83971914D01*
X58351238Y-83972546D01*
X58353499Y-83973014D01*
X58353498Y-83973014D01*
X58866089Y-84079167D01*
X58866099Y-84079169D01*
X58868341Y-84079633D01*
X59391899Y-84148561D01*
X59649544Y-84163417D01*
X59916802Y-84178827D01*
X59916814Y-84178827D01*
X59919099Y-84178959D01*
X59921399Y-84178923D01*
X59921405Y-84178923D01*
X60444777Y-84170701D01*
X60444787Y-84170700D01*
X60447109Y-84170664D01*
X60485504Y-84167237D01*
X60970791Y-84123927D01*
X60970803Y-84123925D01*
X60973094Y-84123721D01*
X61494228Y-84038382D01*
X62007712Y-83915105D01*
X62009910Y-83914403D01*
X62009919Y-83914401D01*
X62508584Y-83755257D01*
X62508591Y-83755254D01*
X62510789Y-83754553D01*
X62777853Y-83647194D01*
X62998616Y-83558448D01*
X62998623Y-83558445D01*
X63000757Y-83557587D01*
X63474983Y-83325266D01*
X63577326Y-83265461D01*
X63928926Y-83060004D01*
X63928930Y-83060001D01*
X63930921Y-83058838D01*
X64366122Y-82759733D01*
X64778248Y-82429557D01*
X65165085Y-82070085D01*
X65524557Y-81683248D01*
X65854733Y-81271122D01*
X66153838Y-80835921D01*
X66304690Y-80577769D01*
X66419106Y-80381968D01*
X66420266Y-80379983D01*
X66652587Y-79905757D01*
X66849553Y-79415789D01*
X66940148Y-79131918D01*
X67009401Y-78914919D01*
X67009403Y-78914910D01*
X67010105Y-78912712D01*
X67133382Y-78399228D01*
X67218721Y-77878094D01*
X67224082Y-77818034D01*
X67265487Y-77354090D01*
X67265664Y-77352109D01*
X67275539Y-76975000D01*
X67256188Y-76447279D01*
X67198240Y-75922393D01*
X67152296Y-75674500D01*
X67102426Y-75405425D01*
X67102425Y-75405420D01*
X67102006Y-75403160D01*
X67092289Y-75366121D01*
X66968587Y-74894595D01*
X66968585Y-74894588D01*
X66968003Y-74892370D01*
X66796950Y-74392766D01*
X66589767Y-73907031D01*
X66347565Y-73437774D01*
X66142055Y-73102413D01*
X66072840Y-72989464D01*
X66072837Y-72989459D01*
X66071646Y-72987516D01*
X66062687Y-72975047D01*
X65943290Y-72808889D01*
X65763493Y-72558674D01*
X65424759Y-72153553D01*
X65057265Y-71774329D01*
X65034211Y-71753788D01*
X64664714Y-71424579D01*
X64664710Y-71424576D01*
X64662983Y-71423037D01*
X64303261Y-71147012D01*
X64245875Y-71102978D01*
X64245868Y-71102973D01*
X64244033Y-71101565D01*
X63864633Y-70852345D01*
X63804592Y-70812905D01*
X63804583Y-70812900D01*
X63802664Y-70811639D01*
X63800641Y-70810513D01*
X63343268Y-70555943D01*
X63343259Y-70555938D01*
X63341246Y-70554818D01*
X63339162Y-70553851D01*
X63339149Y-70553844D01*
X62926035Y-70362083D01*
X62862259Y-70332479D01*
X62860125Y-70331673D01*
X62860114Y-70331668D01*
X62370423Y-70146630D01*
X62370422Y-70146630D01*
X62368274Y-70145818D01*
X62366073Y-70145166D01*
X62366067Y-70145164D01*
X61864171Y-69996495D01*
X61864162Y-69996493D01*
X61861945Y-69995836D01*
X61345991Y-69883340D01*
X60823184Y-69808934D01*
X60296331Y-69773016D01*
X60294014Y-69773028D01*
X60294010Y-69773028D01*
X60002331Y-69774555D01*
X59768263Y-69775781D01*
X59651383Y-69784980D01*
X59244113Y-69817033D01*
X59244107Y-69817034D01*
X59241816Y-69817214D01*
X58719817Y-69897091D01*
X58717577Y-69897604D01*
X58717572Y-69897605D01*
X58583414Y-69928332D01*
X58205069Y-70014984D01*
X57994418Y-70079789D01*
X57702542Y-70169581D01*
X57702535Y-70169583D01*
X57700339Y-70170259D01*
X57698194Y-70171095D01*
X57698192Y-70171096D01*
X57210470Y-70361250D01*
X57210456Y-70361256D01*
X57208335Y-70362083D01*
X57206282Y-70363062D01*
X57206271Y-70363067D01*
X56958133Y-70481424D01*
X56731702Y-70589426D01*
X56729724Y-70590555D01*
X56729713Y-70590560D01*
X56553993Y-70690789D01*
X56272999Y-70851065D01*
X55834690Y-71145596D01*
X55419129Y-71471438D01*
X55028549Y-71826839D01*
X55026967Y-71828506D01*
X55026962Y-71828511D01*
X54667783Y-72207007D01*
X54665045Y-72209892D01*
X54330573Y-72618537D01*
X54026927Y-73050582D01*
X54025736Y-73052572D01*
X53892459Y-73275262D01*
X53755738Y-73503705D01*
X53518464Y-73975473D01*
X53316378Y-74463351D01*
X53150566Y-74964719D01*
X53021919Y-75476884D01*
X52931128Y-75997096D01*
X52878679Y-76522560D01*
X52873702Y-76712616D01*
X52866884Y-76973022D01*
X52864856Y-77050455D01*
X41368867Y-77050455D01*
X41375468Y-76975000D01*
X41355635Y-76748308D01*
X41296739Y-76528504D01*
X41200568Y-76322266D01*
X41070047Y-76135861D01*
X40909139Y-75974953D01*
X40722734Y-75844432D01*
X40717756Y-75842111D01*
X40717753Y-75842109D01*
X40521478Y-75750584D01*
X40521476Y-75750583D01*
X40516496Y-75748261D01*
X40511188Y-75746839D01*
X40511186Y-75746838D01*
X40302007Y-75690789D01*
X40302005Y-75690789D01*
X40296692Y-75689365D01*
X40197698Y-75680704D01*
X40129508Y-75674738D01*
X40129501Y-75674738D01*
X40126784Y-75674500D01*
X40013216Y-75674500D01*
X40010499Y-75674738D01*
X40010492Y-75674738D01*
X39942302Y-75680704D01*
X39843308Y-75689365D01*
X39837995Y-75690789D01*
X39837993Y-75690789D01*
X39628814Y-75746838D01*
X39628812Y-75746839D01*
X39623504Y-75748261D01*
X39618524Y-75750583D01*
X39618522Y-75750584D01*
X39422247Y-75842109D01*
X39422244Y-75842111D01*
X39417266Y-75844432D01*
X39230861Y-75974953D01*
X39069953Y-76135861D01*
X38939432Y-76322266D01*
X38843261Y-76528504D01*
X38784365Y-76748308D01*
X38764532Y-76975000D01*
X27570500Y-76975000D01*
X27570500Y-71975000D01*
X38764532Y-71975000D01*
X38784365Y-72201692D01*
X38843261Y-72421496D01*
X38845583Y-72426476D01*
X38845584Y-72426478D01*
X38936023Y-72620423D01*
X38939432Y-72627734D01*
X39069953Y-72814139D01*
X39230861Y-72975047D01*
X39417266Y-73105568D01*
X39422244Y-73107889D01*
X39422247Y-73107891D01*
X39618522Y-73199416D01*
X39623504Y-73201739D01*
X39628812Y-73203161D01*
X39628814Y-73203162D01*
X39837993Y-73259211D01*
X39837995Y-73259211D01*
X39843308Y-73260635D01*
X39942302Y-73269296D01*
X40010492Y-73275262D01*
X40010499Y-73275262D01*
X40013216Y-73275500D01*
X40126784Y-73275500D01*
X40129501Y-73275262D01*
X40129508Y-73275262D01*
X40197698Y-73269296D01*
X40296692Y-73260635D01*
X40302005Y-73259211D01*
X40302007Y-73259211D01*
X40511186Y-73203162D01*
X40511188Y-73203161D01*
X40516496Y-73201739D01*
X40521478Y-73199416D01*
X40717753Y-73107891D01*
X40717756Y-73107889D01*
X40722734Y-73105568D01*
X40909139Y-72975047D01*
X41070047Y-72814139D01*
X41200568Y-72627734D01*
X41203978Y-72620423D01*
X41294416Y-72426478D01*
X41294417Y-72426476D01*
X41296739Y-72421496D01*
X41355635Y-72201692D01*
X41375468Y-71975000D01*
X41355635Y-71748308D01*
X41296739Y-71528504D01*
X41270129Y-71471438D01*
X41202891Y-71327247D01*
X41202889Y-71327244D01*
X41200568Y-71322266D01*
X41070047Y-71135861D01*
X40909139Y-70974953D01*
X40722734Y-70844432D01*
X40717756Y-70842111D01*
X40717753Y-70842109D01*
X40521478Y-70750584D01*
X40521476Y-70750583D01*
X40516496Y-70748261D01*
X40511188Y-70746839D01*
X40511186Y-70746838D01*
X40302007Y-70690789D01*
X40302005Y-70690789D01*
X40296692Y-70689365D01*
X40197698Y-70680704D01*
X40129508Y-70674738D01*
X40129501Y-70674738D01*
X40126784Y-70674500D01*
X40013216Y-70674500D01*
X40010499Y-70674738D01*
X40010492Y-70674738D01*
X39942302Y-70680704D01*
X39843308Y-70689365D01*
X39837995Y-70690789D01*
X39837993Y-70690789D01*
X39628814Y-70746838D01*
X39628812Y-70746839D01*
X39623504Y-70748261D01*
X39618524Y-70750583D01*
X39618522Y-70750584D01*
X39422247Y-70842109D01*
X39422244Y-70842111D01*
X39417266Y-70844432D01*
X39230861Y-70974953D01*
X39069953Y-71135861D01*
X38939432Y-71322266D01*
X38937111Y-71327244D01*
X38937109Y-71327247D01*
X38869871Y-71471438D01*
X38843261Y-71528504D01*
X38784365Y-71748308D01*
X38764532Y-71975000D01*
X27570500Y-71975000D01*
X27570500Y-69575000D01*
X80780417Y-69575000D01*
X80800263Y-69700304D01*
X80857859Y-69813342D01*
X80947567Y-69903050D01*
X81060605Y-69960646D01*
X81070394Y-69962196D01*
X81070396Y-69962197D01*
X81176116Y-69978941D01*
X81185909Y-69980492D01*
X81195702Y-69978941D01*
X81301422Y-69962197D01*
X81301424Y-69962196D01*
X81311213Y-69960646D01*
X81424251Y-69903050D01*
X81513959Y-69813342D01*
X81571555Y-69700304D01*
X81591401Y-69575000D01*
X81571555Y-69449696D01*
X81513959Y-69336658D01*
X81424251Y-69246950D01*
X81311213Y-69189354D01*
X81301424Y-69187804D01*
X81301422Y-69187803D01*
X81195702Y-69171059D01*
X81185909Y-69169508D01*
X81176116Y-69171059D01*
X81070396Y-69187803D01*
X81070394Y-69187804D01*
X81060605Y-69189354D01*
X80947567Y-69246950D01*
X80857859Y-69336658D01*
X80800263Y-69449696D01*
X80780417Y-69575000D01*
X27570500Y-69575000D01*
X27570500Y-68969440D01*
X89614901Y-68969440D01*
X89616065Y-68978342D01*
X89616065Y-68978345D01*
X89630468Y-69088489D01*
X89630469Y-69088493D01*
X89631633Y-69097394D01*
X89683605Y-69215510D01*
X89766639Y-69314291D01*
X89874060Y-69385796D01*
X89997233Y-69424278D01*
X90006203Y-69424442D01*
X90006207Y-69424443D01*
X90064942Y-69425519D01*
X90126255Y-69426643D01*
X90188505Y-69409671D01*
X90242092Y-69395062D01*
X90242093Y-69395062D01*
X90250755Y-69392700D01*
X90258405Y-69388003D01*
X90258407Y-69388002D01*
X90353072Y-69329878D01*
X90353075Y-69329875D01*
X90360724Y-69325179D01*
X90366750Y-69318522D01*
X90441300Y-69236161D01*
X90441303Y-69236157D01*
X90447322Y-69229507D01*
X90503588Y-69113375D01*
X90524997Y-68986120D01*
X90525133Y-68975000D01*
X90524337Y-68969440D01*
X91614901Y-68969440D01*
X91616065Y-68978342D01*
X91616065Y-68978345D01*
X91630468Y-69088489D01*
X91630469Y-69088493D01*
X91631633Y-69097394D01*
X91683605Y-69215510D01*
X91766639Y-69314291D01*
X91874060Y-69385796D01*
X91997233Y-69424278D01*
X92006203Y-69424442D01*
X92006207Y-69424443D01*
X92064942Y-69425519D01*
X92126255Y-69426643D01*
X92188505Y-69409671D01*
X92242092Y-69395062D01*
X92242093Y-69395062D01*
X92250755Y-69392700D01*
X92258405Y-69388003D01*
X92258407Y-69388002D01*
X92353072Y-69329878D01*
X92353075Y-69329875D01*
X92360724Y-69325179D01*
X92366750Y-69318522D01*
X92441300Y-69236161D01*
X92441303Y-69236157D01*
X92447322Y-69229507D01*
X92503588Y-69113375D01*
X92524997Y-68986120D01*
X92525133Y-68975000D01*
X92524337Y-68969440D01*
X94614901Y-68969440D01*
X94616065Y-68978342D01*
X94616065Y-68978345D01*
X94630468Y-69088489D01*
X94630469Y-69088493D01*
X94631633Y-69097394D01*
X94683605Y-69215510D01*
X94766639Y-69314291D01*
X94874060Y-69385796D01*
X94997233Y-69424278D01*
X95006203Y-69424442D01*
X95006207Y-69424443D01*
X95064942Y-69425519D01*
X95126255Y-69426643D01*
X95188505Y-69409671D01*
X95242092Y-69395062D01*
X95242093Y-69395062D01*
X95250755Y-69392700D01*
X95258405Y-69388003D01*
X95258407Y-69388002D01*
X95353072Y-69329878D01*
X95353075Y-69329875D01*
X95360724Y-69325179D01*
X95366750Y-69318522D01*
X95441300Y-69236161D01*
X95441303Y-69236157D01*
X95447322Y-69229507D01*
X95503588Y-69113375D01*
X95524997Y-68986120D01*
X95525133Y-68975000D01*
X95524337Y-68969440D01*
X96614901Y-68969440D01*
X96616065Y-68978342D01*
X96616065Y-68978345D01*
X96630468Y-69088489D01*
X96630469Y-69088493D01*
X96631633Y-69097394D01*
X96683605Y-69215510D01*
X96766639Y-69314291D01*
X96874060Y-69385796D01*
X96997233Y-69424278D01*
X97006203Y-69424442D01*
X97006207Y-69424443D01*
X97064942Y-69425519D01*
X97126255Y-69426643D01*
X97188505Y-69409671D01*
X97242092Y-69395062D01*
X97242093Y-69395062D01*
X97250755Y-69392700D01*
X97258405Y-69388003D01*
X97258407Y-69388002D01*
X97353072Y-69329878D01*
X97353075Y-69329875D01*
X97360724Y-69325179D01*
X97366750Y-69318522D01*
X97441300Y-69236161D01*
X97441303Y-69236157D01*
X97447322Y-69229507D01*
X97503588Y-69113375D01*
X97524997Y-68986120D01*
X97525133Y-68975000D01*
X97524337Y-68969440D01*
X102614901Y-68969440D01*
X102616065Y-68978342D01*
X102616065Y-68978345D01*
X102630468Y-69088489D01*
X102630469Y-69088493D01*
X102631633Y-69097394D01*
X102683605Y-69215510D01*
X102766639Y-69314291D01*
X102874060Y-69385796D01*
X102997233Y-69424278D01*
X103006203Y-69424442D01*
X103006207Y-69424443D01*
X103064942Y-69425519D01*
X103126255Y-69426643D01*
X103188505Y-69409671D01*
X103242092Y-69395062D01*
X103242093Y-69395062D01*
X103250755Y-69392700D01*
X103258405Y-69388003D01*
X103258407Y-69388002D01*
X103353072Y-69329878D01*
X103353075Y-69329875D01*
X103360724Y-69325179D01*
X103366750Y-69318522D01*
X103441300Y-69236161D01*
X103441303Y-69236157D01*
X103447322Y-69229507D01*
X103503588Y-69113375D01*
X103524997Y-68986120D01*
X103525133Y-68975000D01*
X103524337Y-68969440D01*
X104614901Y-68969440D01*
X104616065Y-68978342D01*
X104616065Y-68978345D01*
X104630468Y-69088489D01*
X104630469Y-69088493D01*
X104631633Y-69097394D01*
X104683605Y-69215510D01*
X104766639Y-69314291D01*
X104874060Y-69385796D01*
X104997233Y-69424278D01*
X105006203Y-69424442D01*
X105006207Y-69424443D01*
X105064942Y-69425519D01*
X105126255Y-69426643D01*
X105188505Y-69409671D01*
X105242092Y-69395062D01*
X105242093Y-69395062D01*
X105250755Y-69392700D01*
X105258405Y-69388003D01*
X105258407Y-69388002D01*
X105353072Y-69329878D01*
X105353075Y-69329875D01*
X105360724Y-69325179D01*
X105366750Y-69318522D01*
X105441300Y-69236161D01*
X105441303Y-69236157D01*
X105447322Y-69229507D01*
X105503588Y-69113375D01*
X105524997Y-68986120D01*
X105525133Y-68975000D01*
X105524337Y-68969440D01*
X107614901Y-68969440D01*
X107616065Y-68978342D01*
X107616065Y-68978345D01*
X107630468Y-69088489D01*
X107630469Y-69088493D01*
X107631633Y-69097394D01*
X107683605Y-69215510D01*
X107766639Y-69314291D01*
X107874060Y-69385796D01*
X107997233Y-69424278D01*
X108006203Y-69424442D01*
X108006207Y-69424443D01*
X108064942Y-69425519D01*
X108126255Y-69426643D01*
X108188505Y-69409671D01*
X108242092Y-69395062D01*
X108242093Y-69395062D01*
X108250755Y-69392700D01*
X108258405Y-69388003D01*
X108258407Y-69388002D01*
X108353072Y-69329878D01*
X108353075Y-69329875D01*
X108360724Y-69325179D01*
X108366750Y-69318522D01*
X108441300Y-69236161D01*
X108441303Y-69236157D01*
X108447322Y-69229507D01*
X108503588Y-69113375D01*
X108524997Y-68986120D01*
X108525133Y-68975000D01*
X108524337Y-68969440D01*
X109614901Y-68969440D01*
X109616065Y-68978342D01*
X109616065Y-68978345D01*
X109630468Y-69088489D01*
X109630469Y-69088493D01*
X109631633Y-69097394D01*
X109683605Y-69215510D01*
X109766639Y-69314291D01*
X109874060Y-69385796D01*
X109997233Y-69424278D01*
X110006203Y-69424442D01*
X110006207Y-69424443D01*
X110064942Y-69425519D01*
X110126255Y-69426643D01*
X110188505Y-69409671D01*
X110242092Y-69395062D01*
X110242093Y-69395062D01*
X110250755Y-69392700D01*
X110258405Y-69388003D01*
X110258407Y-69388002D01*
X110353072Y-69329878D01*
X110353075Y-69329875D01*
X110360724Y-69325179D01*
X110366750Y-69318522D01*
X110441300Y-69236161D01*
X110441303Y-69236157D01*
X110447322Y-69229507D01*
X110503588Y-69113375D01*
X110524997Y-68986120D01*
X110525133Y-68975000D01*
X110506839Y-68847259D01*
X110453428Y-68729788D01*
X110369193Y-68632028D01*
X110260906Y-68561841D01*
X110252311Y-68559271D01*
X110252310Y-68559270D01*
X110145874Y-68527438D01*
X110145872Y-68527438D01*
X110137273Y-68524866D01*
X110128298Y-68524811D01*
X110128297Y-68524811D01*
X110073641Y-68524477D01*
X110008231Y-68524078D01*
X109996475Y-68527438D01*
X109892786Y-68557072D01*
X109892784Y-68557073D01*
X109884155Y-68559539D01*
X109775019Y-68628399D01*
X109689596Y-68725122D01*
X109685782Y-68733245D01*
X109685781Y-68733247D01*
X109659794Y-68788598D01*
X109634754Y-68841932D01*
X109633374Y-68850798D01*
X109616282Y-68960567D01*
X109616282Y-68960571D01*
X109614901Y-68969440D01*
X108524337Y-68969440D01*
X108506839Y-68847259D01*
X108453428Y-68729788D01*
X108369193Y-68632028D01*
X108260906Y-68561841D01*
X108252311Y-68559271D01*
X108252310Y-68559270D01*
X108145874Y-68527438D01*
X108145872Y-68527438D01*
X108137273Y-68524866D01*
X108128298Y-68524811D01*
X108128297Y-68524811D01*
X108073641Y-68524477D01*
X108008231Y-68524078D01*
X107996475Y-68527438D01*
X107892786Y-68557072D01*
X107892784Y-68557073D01*
X107884155Y-68559539D01*
X107775019Y-68628399D01*
X107689596Y-68725122D01*
X107685782Y-68733245D01*
X107685781Y-68733247D01*
X107659794Y-68788598D01*
X107634754Y-68841932D01*
X107633374Y-68850798D01*
X107616282Y-68960567D01*
X107616282Y-68960571D01*
X107614901Y-68969440D01*
X105524337Y-68969440D01*
X105506839Y-68847259D01*
X105453428Y-68729788D01*
X105369193Y-68632028D01*
X105260906Y-68561841D01*
X105252311Y-68559271D01*
X105252310Y-68559270D01*
X105145874Y-68527438D01*
X105145872Y-68527438D01*
X105137273Y-68524866D01*
X105128298Y-68524811D01*
X105128297Y-68524811D01*
X105073641Y-68524477D01*
X105008231Y-68524078D01*
X104996475Y-68527438D01*
X104892786Y-68557072D01*
X104892784Y-68557073D01*
X104884155Y-68559539D01*
X104775019Y-68628399D01*
X104689596Y-68725122D01*
X104685782Y-68733245D01*
X104685781Y-68733247D01*
X104659794Y-68788598D01*
X104634754Y-68841932D01*
X104633374Y-68850798D01*
X104616282Y-68960567D01*
X104616282Y-68960571D01*
X104614901Y-68969440D01*
X103524337Y-68969440D01*
X103506839Y-68847259D01*
X103453428Y-68729788D01*
X103369193Y-68632028D01*
X103260906Y-68561841D01*
X103252311Y-68559271D01*
X103252310Y-68559270D01*
X103145874Y-68527438D01*
X103145872Y-68527438D01*
X103137273Y-68524866D01*
X103128298Y-68524811D01*
X103128297Y-68524811D01*
X103073641Y-68524477D01*
X103008231Y-68524078D01*
X102996475Y-68527438D01*
X102892786Y-68557072D01*
X102892784Y-68557073D01*
X102884155Y-68559539D01*
X102775019Y-68628399D01*
X102689596Y-68725122D01*
X102685782Y-68733245D01*
X102685781Y-68733247D01*
X102659794Y-68788598D01*
X102634754Y-68841932D01*
X102633374Y-68850798D01*
X102616282Y-68960567D01*
X102616282Y-68960571D01*
X102614901Y-68969440D01*
X97524337Y-68969440D01*
X97506839Y-68847259D01*
X97453428Y-68729788D01*
X97369193Y-68632028D01*
X97260906Y-68561841D01*
X97252311Y-68559271D01*
X97252310Y-68559270D01*
X97145874Y-68527438D01*
X97145872Y-68527438D01*
X97137273Y-68524866D01*
X97128298Y-68524811D01*
X97128297Y-68524811D01*
X97073641Y-68524477D01*
X97008231Y-68524078D01*
X96996475Y-68527438D01*
X96892786Y-68557072D01*
X96892784Y-68557073D01*
X96884155Y-68559539D01*
X96775019Y-68628399D01*
X96689596Y-68725122D01*
X96685782Y-68733245D01*
X96685781Y-68733247D01*
X96659794Y-68788598D01*
X96634754Y-68841932D01*
X96633374Y-68850798D01*
X96616282Y-68960567D01*
X96616282Y-68960571D01*
X96614901Y-68969440D01*
X95524337Y-68969440D01*
X95506839Y-68847259D01*
X95453428Y-68729788D01*
X95369193Y-68632028D01*
X95260906Y-68561841D01*
X95252311Y-68559271D01*
X95252310Y-68559270D01*
X95145874Y-68527438D01*
X95145872Y-68527438D01*
X95137273Y-68524866D01*
X95128298Y-68524811D01*
X95128297Y-68524811D01*
X95073641Y-68524477D01*
X95008231Y-68524078D01*
X94996475Y-68527438D01*
X94892786Y-68557072D01*
X94892784Y-68557073D01*
X94884155Y-68559539D01*
X94775019Y-68628399D01*
X94689596Y-68725122D01*
X94685782Y-68733245D01*
X94685781Y-68733247D01*
X94659794Y-68788598D01*
X94634754Y-68841932D01*
X94633374Y-68850798D01*
X94616282Y-68960567D01*
X94616282Y-68960571D01*
X94614901Y-68969440D01*
X92524337Y-68969440D01*
X92506839Y-68847259D01*
X92453428Y-68729788D01*
X92369193Y-68632028D01*
X92260906Y-68561841D01*
X92252311Y-68559271D01*
X92252310Y-68559270D01*
X92145874Y-68527438D01*
X92145872Y-68527438D01*
X92137273Y-68524866D01*
X92128298Y-68524811D01*
X92128297Y-68524811D01*
X92073641Y-68524477D01*
X92008231Y-68524078D01*
X91996475Y-68527438D01*
X91892786Y-68557072D01*
X91892784Y-68557073D01*
X91884155Y-68559539D01*
X91775019Y-68628399D01*
X91689596Y-68725122D01*
X91685782Y-68733245D01*
X91685781Y-68733247D01*
X91659794Y-68788598D01*
X91634754Y-68841932D01*
X91633374Y-68850798D01*
X91616282Y-68960567D01*
X91616282Y-68960571D01*
X91614901Y-68969440D01*
X90524337Y-68969440D01*
X90506839Y-68847259D01*
X90453428Y-68729788D01*
X90369193Y-68632028D01*
X90260906Y-68561841D01*
X90252311Y-68559271D01*
X90252310Y-68559270D01*
X90145874Y-68527438D01*
X90145872Y-68527438D01*
X90137273Y-68524866D01*
X90128298Y-68524811D01*
X90128297Y-68524811D01*
X90073641Y-68524477D01*
X90008231Y-68524078D01*
X89996475Y-68527438D01*
X89892786Y-68557072D01*
X89892784Y-68557073D01*
X89884155Y-68559539D01*
X89775019Y-68628399D01*
X89689596Y-68725122D01*
X89685782Y-68733245D01*
X89685781Y-68733247D01*
X89659794Y-68788598D01*
X89634754Y-68841932D01*
X89633374Y-68850798D01*
X89616282Y-68960567D01*
X89616282Y-68960571D01*
X89614901Y-68969440D01*
X27570500Y-68969440D01*
X27570500Y-66969440D01*
X89614901Y-66969440D01*
X89616065Y-66978342D01*
X89616065Y-66978345D01*
X89630468Y-67088489D01*
X89630469Y-67088493D01*
X89631633Y-67097394D01*
X89683605Y-67215510D01*
X89766639Y-67314291D01*
X89874060Y-67385796D01*
X89997233Y-67424278D01*
X90006203Y-67424442D01*
X90006207Y-67424443D01*
X90064942Y-67425519D01*
X90126255Y-67426643D01*
X90188505Y-67409672D01*
X90242092Y-67395062D01*
X90242093Y-67395062D01*
X90250755Y-67392700D01*
X90258405Y-67388003D01*
X90258407Y-67388002D01*
X90353072Y-67329878D01*
X90353075Y-67329875D01*
X90360724Y-67325179D01*
X90366750Y-67318522D01*
X90441300Y-67236161D01*
X90441303Y-67236157D01*
X90447322Y-67229507D01*
X90503588Y-67113375D01*
X90524997Y-66986120D01*
X90525133Y-66975000D01*
X90524337Y-66969440D01*
X96614901Y-66969440D01*
X96616065Y-66978342D01*
X96616065Y-66978345D01*
X96630468Y-67088489D01*
X96630469Y-67088493D01*
X96631633Y-67097394D01*
X96683605Y-67215510D01*
X96766639Y-67314291D01*
X96874060Y-67385796D01*
X96997233Y-67424278D01*
X97006203Y-67424442D01*
X97006207Y-67424443D01*
X97064942Y-67425519D01*
X97126255Y-67426643D01*
X97188505Y-67409672D01*
X97242092Y-67395062D01*
X97242093Y-67395062D01*
X97250755Y-67392700D01*
X97258405Y-67388003D01*
X97258407Y-67388002D01*
X97353072Y-67329878D01*
X97353075Y-67329875D01*
X97360724Y-67325179D01*
X97366750Y-67318522D01*
X97441300Y-67236161D01*
X97441303Y-67236157D01*
X97447322Y-67229507D01*
X97503588Y-67113375D01*
X97524997Y-66986120D01*
X97525133Y-66975000D01*
X97524337Y-66969440D01*
X102614901Y-66969440D01*
X102616065Y-66978342D01*
X102616065Y-66978345D01*
X102630468Y-67088489D01*
X102630469Y-67088493D01*
X102631633Y-67097394D01*
X102683605Y-67215510D01*
X102766639Y-67314291D01*
X102874060Y-67385796D01*
X102997233Y-67424278D01*
X103006203Y-67424442D01*
X103006207Y-67424443D01*
X103064942Y-67425519D01*
X103126255Y-67426643D01*
X103188505Y-67409672D01*
X103242092Y-67395062D01*
X103242093Y-67395062D01*
X103250755Y-67392700D01*
X103258405Y-67388003D01*
X103258407Y-67388002D01*
X103353072Y-67329878D01*
X103353075Y-67329875D01*
X103360724Y-67325179D01*
X103366750Y-67318522D01*
X103441300Y-67236161D01*
X103441303Y-67236157D01*
X103447322Y-67229507D01*
X103503588Y-67113375D01*
X103524997Y-66986120D01*
X103525133Y-66975000D01*
X103524337Y-66969440D01*
X109614901Y-66969440D01*
X109616065Y-66978342D01*
X109616065Y-66978345D01*
X109630468Y-67088489D01*
X109630469Y-67088493D01*
X109631633Y-67097394D01*
X109683605Y-67215510D01*
X109766639Y-67314291D01*
X109874060Y-67385796D01*
X109997233Y-67424278D01*
X110006203Y-67424442D01*
X110006207Y-67424443D01*
X110064942Y-67425519D01*
X110126255Y-67426643D01*
X110188505Y-67409672D01*
X110242092Y-67395062D01*
X110242093Y-67395062D01*
X110250755Y-67392700D01*
X110258405Y-67388003D01*
X110258407Y-67388002D01*
X110353072Y-67329878D01*
X110353075Y-67329875D01*
X110360724Y-67325179D01*
X110366750Y-67318522D01*
X110441300Y-67236161D01*
X110441303Y-67236157D01*
X110447322Y-67229507D01*
X110503588Y-67113375D01*
X110524997Y-66986120D01*
X110525133Y-66975000D01*
X110509387Y-66865050D01*
X110508112Y-66856145D01*
X110508111Y-66856142D01*
X110506839Y-66847259D01*
X110475282Y-66777853D01*
X110457145Y-66737962D01*
X110457143Y-66737959D01*
X110453428Y-66729788D01*
X110391403Y-66657804D01*
X110375051Y-66638826D01*
X110375049Y-66638824D01*
X110369193Y-66632028D01*
X110260906Y-66561841D01*
X110252311Y-66559271D01*
X110252310Y-66559270D01*
X110145874Y-66527438D01*
X110145872Y-66527438D01*
X110137273Y-66524866D01*
X110128298Y-66524811D01*
X110128297Y-66524811D01*
X110073641Y-66524477D01*
X110008231Y-66524078D01*
X109996475Y-66527438D01*
X109892786Y-66557072D01*
X109892784Y-66557073D01*
X109884155Y-66559539D01*
X109876565Y-66564328D01*
X109798403Y-66613645D01*
X109775019Y-66628399D01*
X109769076Y-66635128D01*
X109769075Y-66635129D01*
X109765810Y-66638826D01*
X109689596Y-66725122D01*
X109685782Y-66733245D01*
X109685781Y-66733247D01*
X109664839Y-66777853D01*
X109634754Y-66841932D01*
X109631155Y-66865050D01*
X109616282Y-66960567D01*
X109616282Y-66960571D01*
X109614901Y-66969440D01*
X103524337Y-66969440D01*
X103509387Y-66865050D01*
X103508112Y-66856145D01*
X103508111Y-66856142D01*
X103506839Y-66847259D01*
X103475282Y-66777853D01*
X103457145Y-66737962D01*
X103457143Y-66737959D01*
X103453428Y-66729788D01*
X103391403Y-66657804D01*
X103375051Y-66638826D01*
X103375049Y-66638824D01*
X103369193Y-66632028D01*
X103260906Y-66561841D01*
X103252311Y-66559271D01*
X103252310Y-66559270D01*
X103145874Y-66527438D01*
X103145872Y-66527438D01*
X103137273Y-66524866D01*
X103128298Y-66524811D01*
X103128297Y-66524811D01*
X103073641Y-66524477D01*
X103008231Y-66524078D01*
X102996475Y-66527438D01*
X102892786Y-66557072D01*
X102892784Y-66557073D01*
X102884155Y-66559539D01*
X102876565Y-66564328D01*
X102798403Y-66613645D01*
X102775019Y-66628399D01*
X102769076Y-66635128D01*
X102769075Y-66635129D01*
X102765810Y-66638826D01*
X102689596Y-66725122D01*
X102685782Y-66733245D01*
X102685781Y-66733247D01*
X102664839Y-66777853D01*
X102634754Y-66841932D01*
X102631155Y-66865050D01*
X102616282Y-66960567D01*
X102616282Y-66960571D01*
X102614901Y-66969440D01*
X97524337Y-66969440D01*
X97509387Y-66865050D01*
X97508112Y-66856145D01*
X97508111Y-66856142D01*
X97506839Y-66847259D01*
X97475282Y-66777853D01*
X97457145Y-66737962D01*
X97457143Y-66737959D01*
X97453428Y-66729788D01*
X97391403Y-66657804D01*
X97375051Y-66638826D01*
X97375049Y-66638824D01*
X97369193Y-66632028D01*
X97260906Y-66561841D01*
X97252311Y-66559271D01*
X97252310Y-66559270D01*
X97145874Y-66527438D01*
X97145872Y-66527438D01*
X97137273Y-66524866D01*
X97128298Y-66524811D01*
X97128297Y-66524811D01*
X97073641Y-66524477D01*
X97008231Y-66524078D01*
X96996475Y-66527438D01*
X96892786Y-66557072D01*
X96892784Y-66557073D01*
X96884155Y-66559539D01*
X96876565Y-66564328D01*
X96798403Y-66613645D01*
X96775019Y-66628399D01*
X96769076Y-66635128D01*
X96769075Y-66635129D01*
X96765810Y-66638826D01*
X96689596Y-66725122D01*
X96685782Y-66733245D01*
X96685781Y-66733247D01*
X96664839Y-66777853D01*
X96634754Y-66841932D01*
X96631155Y-66865050D01*
X96616282Y-66960567D01*
X96616282Y-66960571D01*
X96614901Y-66969440D01*
X90524337Y-66969440D01*
X90509387Y-66865050D01*
X90508112Y-66856145D01*
X90508111Y-66856142D01*
X90506839Y-66847259D01*
X90475282Y-66777853D01*
X90457145Y-66737962D01*
X90457143Y-66737959D01*
X90453428Y-66729788D01*
X90391403Y-66657804D01*
X90375051Y-66638826D01*
X90375049Y-66638824D01*
X90369193Y-66632028D01*
X90260906Y-66561841D01*
X90252311Y-66559271D01*
X90252310Y-66559270D01*
X90145874Y-66527438D01*
X90145872Y-66527438D01*
X90137273Y-66524866D01*
X90128298Y-66524811D01*
X90128297Y-66524811D01*
X90073641Y-66524477D01*
X90008231Y-66524078D01*
X89996475Y-66527438D01*
X89892786Y-66557072D01*
X89892784Y-66557073D01*
X89884155Y-66559539D01*
X89876565Y-66564328D01*
X89798403Y-66613645D01*
X89775019Y-66628399D01*
X89769076Y-66635128D01*
X89769075Y-66635129D01*
X89765810Y-66638826D01*
X89689596Y-66725122D01*
X89685782Y-66733245D01*
X89685781Y-66733247D01*
X89664839Y-66777853D01*
X89634754Y-66841932D01*
X89631155Y-66865050D01*
X89616282Y-66960567D01*
X89616282Y-66960571D01*
X89614901Y-66969440D01*
X27570500Y-66969440D01*
X27570500Y-66532500D01*
X80202008Y-66532500D01*
X80203559Y-66542293D01*
X80218263Y-66635129D01*
X80221854Y-66657804D01*
X80279450Y-66770842D01*
X80369158Y-66860550D01*
X80482196Y-66918146D01*
X80491985Y-66919696D01*
X80491987Y-66919697D01*
X80597707Y-66936441D01*
X80607500Y-66937992D01*
X80617293Y-66936441D01*
X80723013Y-66919697D01*
X80723015Y-66919696D01*
X80732804Y-66918146D01*
X80845842Y-66860550D01*
X80935550Y-66770842D01*
X80993146Y-66657804D01*
X80996738Y-66635129D01*
X81011441Y-66542293D01*
X81012992Y-66532500D01*
X81004337Y-66477853D01*
X80994697Y-66416987D01*
X80994696Y-66416985D01*
X80993146Y-66407196D01*
X80935550Y-66294158D01*
X80873892Y-66232500D01*
X81802008Y-66232500D01*
X81803559Y-66242293D01*
X81813173Y-66302991D01*
X81821854Y-66357804D01*
X81879450Y-66470842D01*
X81969158Y-66560550D01*
X82082196Y-66618146D01*
X82091985Y-66619696D01*
X82091987Y-66619697D01*
X82197707Y-66636441D01*
X82207500Y-66637992D01*
X82217293Y-66636441D01*
X82323013Y-66619697D01*
X82323015Y-66619696D01*
X82332804Y-66618146D01*
X82445842Y-66560550D01*
X82535550Y-66470842D01*
X82593146Y-66357804D01*
X82601828Y-66302991D01*
X82611441Y-66242293D01*
X82612992Y-66232500D01*
X82599427Y-66146854D01*
X82594697Y-66116987D01*
X82594696Y-66116985D01*
X82593146Y-66107196D01*
X82535550Y-65994158D01*
X82445842Y-65904450D01*
X82332804Y-65846854D01*
X82323015Y-65845304D01*
X82323013Y-65845303D01*
X82217293Y-65828559D01*
X82207500Y-65827008D01*
X82197707Y-65828559D01*
X82091987Y-65845303D01*
X82091985Y-65845304D01*
X82082196Y-65846854D01*
X81969158Y-65904450D01*
X81879450Y-65994158D01*
X81821854Y-66107196D01*
X81820304Y-66116985D01*
X81820303Y-66116987D01*
X81815573Y-66146854D01*
X81802008Y-66232500D01*
X80873892Y-66232500D01*
X80845842Y-66204450D01*
X80732804Y-66146854D01*
X80723015Y-66145304D01*
X80723013Y-66145303D01*
X80617293Y-66128559D01*
X80607500Y-66127008D01*
X80597707Y-66128559D01*
X80491987Y-66145303D01*
X80491985Y-66145304D01*
X80482196Y-66146854D01*
X80369158Y-66204450D01*
X80279450Y-66294158D01*
X80221854Y-66407196D01*
X80220304Y-66416985D01*
X80220303Y-66416987D01*
X80210663Y-66477853D01*
X80202008Y-66532500D01*
X27570500Y-66532500D01*
X27570500Y-64975000D01*
X68039196Y-64975000D01*
X68040747Y-64984793D01*
X68047681Y-65028570D01*
X68060281Y-65108126D01*
X68121472Y-65228220D01*
X68216780Y-65323528D01*
X68336874Y-65384719D01*
X68346663Y-65386269D01*
X68346665Y-65386270D01*
X68460207Y-65404253D01*
X68470000Y-65405804D01*
X68479793Y-65404253D01*
X68593335Y-65386270D01*
X68593337Y-65386269D01*
X68603126Y-65384719D01*
X68723220Y-65323528D01*
X68759343Y-65287405D01*
X68821655Y-65253379D01*
X68848438Y-65250500D01*
X78128705Y-65250500D01*
X78153287Y-65252921D01*
X78168248Y-65255897D01*
X78195380Y-65250500D01*
X78195381Y-65250500D01*
X78275743Y-65234515D01*
X78300241Y-65218146D01*
X78317713Y-65206471D01*
X78317713Y-65206472D01*
X78317716Y-65206469D01*
X78343870Y-65188994D01*
X78346437Y-65192835D01*
X78346438Y-65192834D01*
X78343871Y-65188993D01*
X78356559Y-65180515D01*
X78366872Y-65173624D01*
X78375350Y-65160936D01*
X78391020Y-65141844D01*
X78470268Y-65062596D01*
X78532580Y-65028570D01*
X78603395Y-65033635D01*
X78653551Y-65071741D01*
X78654450Y-65070842D01*
X78744158Y-65160550D01*
X78857196Y-65218146D01*
X78866985Y-65219696D01*
X78866987Y-65219697D01*
X78972707Y-65236441D01*
X78982500Y-65237992D01*
X78992293Y-65236441D01*
X79098013Y-65219697D01*
X79098015Y-65219696D01*
X79107804Y-65218146D01*
X79220842Y-65160550D01*
X79310550Y-65070842D01*
X79362217Y-64969440D01*
X89614901Y-64969440D01*
X89616065Y-64978342D01*
X89616065Y-64978345D01*
X89630468Y-65088489D01*
X89630469Y-65088493D01*
X89631633Y-65097394D01*
X89683605Y-65215510D01*
X89689382Y-65222383D01*
X89689383Y-65222384D01*
X89702503Y-65237992D01*
X89766639Y-65314291D01*
X89874060Y-65385796D01*
X89997233Y-65424278D01*
X90006203Y-65424442D01*
X90006207Y-65424443D01*
X90064942Y-65425519D01*
X90126255Y-65426643D01*
X90208380Y-65404253D01*
X90242092Y-65395062D01*
X90242093Y-65395062D01*
X90250755Y-65392700D01*
X90258405Y-65388003D01*
X90258407Y-65388002D01*
X90353072Y-65329878D01*
X90353075Y-65329875D01*
X90360724Y-65325179D01*
X90366750Y-65318522D01*
X90441300Y-65236161D01*
X90441303Y-65236157D01*
X90447322Y-65229507D01*
X90503588Y-65113375D01*
X90506119Y-65098335D01*
X90524190Y-64990917D01*
X90524997Y-64986120D01*
X90525133Y-64975000D01*
X90524337Y-64969440D01*
X91614901Y-64969440D01*
X91616065Y-64978342D01*
X91616065Y-64978345D01*
X91630468Y-65088489D01*
X91630469Y-65088493D01*
X91631633Y-65097394D01*
X91683605Y-65215510D01*
X91689382Y-65222383D01*
X91689383Y-65222384D01*
X91702503Y-65237992D01*
X91766639Y-65314291D01*
X91874060Y-65385796D01*
X91997233Y-65424278D01*
X92006203Y-65424442D01*
X92006207Y-65424443D01*
X92064942Y-65425519D01*
X92126255Y-65426643D01*
X92208380Y-65404253D01*
X92242092Y-65395062D01*
X92242093Y-65395062D01*
X92250755Y-65392700D01*
X92258405Y-65388003D01*
X92258407Y-65388002D01*
X92353072Y-65329878D01*
X92353075Y-65329875D01*
X92360724Y-65325179D01*
X92366750Y-65318522D01*
X92441300Y-65236161D01*
X92441303Y-65236157D01*
X92447322Y-65229507D01*
X92503588Y-65113375D01*
X92506119Y-65098335D01*
X92524190Y-64990917D01*
X92524997Y-64986120D01*
X92525133Y-64975000D01*
X92524337Y-64969440D01*
X94614901Y-64969440D01*
X94616065Y-64978342D01*
X94616065Y-64978345D01*
X94630468Y-65088489D01*
X94630469Y-65088493D01*
X94631633Y-65097394D01*
X94683605Y-65215510D01*
X94689382Y-65222383D01*
X94689383Y-65222384D01*
X94702503Y-65237992D01*
X94766639Y-65314291D01*
X94874060Y-65385796D01*
X94997233Y-65424278D01*
X95006203Y-65424442D01*
X95006207Y-65424443D01*
X95064942Y-65425519D01*
X95126255Y-65426643D01*
X95208380Y-65404253D01*
X95242092Y-65395062D01*
X95242093Y-65395062D01*
X95250755Y-65392700D01*
X95258405Y-65388003D01*
X95258407Y-65388002D01*
X95353072Y-65329878D01*
X95353075Y-65329875D01*
X95360724Y-65325179D01*
X95366750Y-65318522D01*
X95441300Y-65236161D01*
X95441303Y-65236157D01*
X95447322Y-65229507D01*
X95503588Y-65113375D01*
X95506119Y-65098335D01*
X95524190Y-64990917D01*
X95524997Y-64986120D01*
X95525133Y-64975000D01*
X95524337Y-64969440D01*
X96614901Y-64969440D01*
X96616065Y-64978342D01*
X96616065Y-64978345D01*
X96630468Y-65088489D01*
X96630469Y-65088493D01*
X96631633Y-65097394D01*
X96683605Y-65215510D01*
X96689382Y-65222383D01*
X96689383Y-65222384D01*
X96702503Y-65237992D01*
X96766639Y-65314291D01*
X96874060Y-65385796D01*
X96997233Y-65424278D01*
X97006203Y-65424442D01*
X97006207Y-65424443D01*
X97064942Y-65425519D01*
X97126255Y-65426643D01*
X97208380Y-65404253D01*
X97242092Y-65395062D01*
X97242093Y-65395062D01*
X97250755Y-65392700D01*
X97258405Y-65388003D01*
X97258407Y-65388002D01*
X97353072Y-65329878D01*
X97353075Y-65329875D01*
X97360724Y-65325179D01*
X97366750Y-65318522D01*
X97441300Y-65236161D01*
X97441303Y-65236157D01*
X97447322Y-65229507D01*
X97503588Y-65113375D01*
X97506119Y-65098335D01*
X97524190Y-64990917D01*
X97524997Y-64986120D01*
X97525133Y-64975000D01*
X97524337Y-64969440D01*
X102614901Y-64969440D01*
X102616065Y-64978342D01*
X102616065Y-64978345D01*
X102630468Y-65088489D01*
X102630469Y-65088493D01*
X102631633Y-65097394D01*
X102683605Y-65215510D01*
X102689382Y-65222383D01*
X102689383Y-65222384D01*
X102702503Y-65237992D01*
X102766639Y-65314291D01*
X102874060Y-65385796D01*
X102997233Y-65424278D01*
X103006203Y-65424442D01*
X103006207Y-65424443D01*
X103064942Y-65425519D01*
X103126255Y-65426643D01*
X103208380Y-65404253D01*
X103242092Y-65395062D01*
X103242093Y-65395062D01*
X103250755Y-65392700D01*
X103258405Y-65388003D01*
X103258407Y-65388002D01*
X103353072Y-65329878D01*
X103353075Y-65329875D01*
X103360724Y-65325179D01*
X103366750Y-65318522D01*
X103441300Y-65236161D01*
X103441303Y-65236157D01*
X103447322Y-65229507D01*
X103503588Y-65113375D01*
X103506119Y-65098335D01*
X103524190Y-64990917D01*
X103524997Y-64986120D01*
X103525133Y-64975000D01*
X103524337Y-64969440D01*
X104614901Y-64969440D01*
X104616065Y-64978342D01*
X104616065Y-64978345D01*
X104630468Y-65088489D01*
X104630469Y-65088493D01*
X104631633Y-65097394D01*
X104683605Y-65215510D01*
X104689382Y-65222383D01*
X104689383Y-65222384D01*
X104702503Y-65237992D01*
X104766639Y-65314291D01*
X104874060Y-65385796D01*
X104997233Y-65424278D01*
X105006203Y-65424442D01*
X105006207Y-65424443D01*
X105064942Y-65425519D01*
X105126255Y-65426643D01*
X105208380Y-65404253D01*
X105242092Y-65395062D01*
X105242093Y-65395062D01*
X105250755Y-65392700D01*
X105258405Y-65388003D01*
X105258407Y-65388002D01*
X105353072Y-65329878D01*
X105353075Y-65329875D01*
X105360724Y-65325179D01*
X105366750Y-65318522D01*
X105441300Y-65236161D01*
X105441303Y-65236157D01*
X105447322Y-65229507D01*
X105503588Y-65113375D01*
X105506119Y-65098335D01*
X105524190Y-64990917D01*
X105524997Y-64986120D01*
X105525133Y-64975000D01*
X105524337Y-64969440D01*
X107614901Y-64969440D01*
X107616065Y-64978342D01*
X107616065Y-64978345D01*
X107630468Y-65088489D01*
X107630469Y-65088493D01*
X107631633Y-65097394D01*
X107683605Y-65215510D01*
X107689382Y-65222383D01*
X107689383Y-65222384D01*
X107702503Y-65237992D01*
X107766639Y-65314291D01*
X107874060Y-65385796D01*
X107997233Y-65424278D01*
X108006203Y-65424442D01*
X108006207Y-65424443D01*
X108064942Y-65425519D01*
X108126255Y-65426643D01*
X108208380Y-65404253D01*
X108242092Y-65395062D01*
X108242093Y-65395062D01*
X108250755Y-65392700D01*
X108258405Y-65388003D01*
X108258407Y-65388002D01*
X108353072Y-65329878D01*
X108353075Y-65329875D01*
X108360724Y-65325179D01*
X108366750Y-65318522D01*
X108441300Y-65236161D01*
X108441303Y-65236157D01*
X108447322Y-65229507D01*
X108503588Y-65113375D01*
X108506119Y-65098335D01*
X108524190Y-64990917D01*
X108524997Y-64986120D01*
X108525133Y-64975000D01*
X108524337Y-64969440D01*
X109614901Y-64969440D01*
X109616065Y-64978342D01*
X109616065Y-64978345D01*
X109630468Y-65088489D01*
X109630469Y-65088493D01*
X109631633Y-65097394D01*
X109683605Y-65215510D01*
X109689382Y-65222383D01*
X109689383Y-65222384D01*
X109702503Y-65237992D01*
X109766639Y-65314291D01*
X109874060Y-65385796D01*
X109997233Y-65424278D01*
X110006203Y-65424442D01*
X110006207Y-65424443D01*
X110064942Y-65425519D01*
X110126255Y-65426643D01*
X110208380Y-65404253D01*
X110242092Y-65395062D01*
X110242093Y-65395062D01*
X110250755Y-65392700D01*
X110258405Y-65388003D01*
X110258407Y-65388002D01*
X110353072Y-65329878D01*
X110353075Y-65329875D01*
X110360724Y-65325179D01*
X110366750Y-65318522D01*
X110441300Y-65236161D01*
X110441303Y-65236157D01*
X110447322Y-65229507D01*
X110503588Y-65113375D01*
X110506119Y-65098335D01*
X110524190Y-64990917D01*
X110524997Y-64986120D01*
X110525133Y-64975000D01*
X110506839Y-64847259D01*
X110500724Y-64833809D01*
X110457145Y-64737962D01*
X110457143Y-64737959D01*
X110453428Y-64729788D01*
X110421528Y-64692766D01*
X110375051Y-64638826D01*
X110375049Y-64638824D01*
X110369193Y-64632028D01*
X110260906Y-64561841D01*
X110252311Y-64559271D01*
X110252310Y-64559270D01*
X110145874Y-64527438D01*
X110145872Y-64527438D01*
X110137273Y-64524866D01*
X110128298Y-64524811D01*
X110128297Y-64524811D01*
X110073641Y-64524477D01*
X110008231Y-64524078D01*
X109971713Y-64534515D01*
X109892786Y-64557072D01*
X109892784Y-64557073D01*
X109884155Y-64559539D01*
X109775019Y-64628399D01*
X109769076Y-64635128D01*
X109769075Y-64635129D01*
X109740191Y-64667834D01*
X109689596Y-64725122D01*
X109685782Y-64733245D01*
X109685781Y-64733247D01*
X109659794Y-64788598D01*
X109634754Y-64841932D01*
X109633374Y-64850798D01*
X109616282Y-64960567D01*
X109616282Y-64960571D01*
X109614901Y-64969440D01*
X108524337Y-64969440D01*
X108506839Y-64847259D01*
X108500724Y-64833809D01*
X108457145Y-64737962D01*
X108457143Y-64737959D01*
X108453428Y-64729788D01*
X108421528Y-64692766D01*
X108375051Y-64638826D01*
X108375049Y-64638824D01*
X108369193Y-64632028D01*
X108260906Y-64561841D01*
X108252311Y-64559271D01*
X108252310Y-64559270D01*
X108145874Y-64527438D01*
X108145872Y-64527438D01*
X108137273Y-64524866D01*
X108128298Y-64524811D01*
X108128297Y-64524811D01*
X108073641Y-64524477D01*
X108008231Y-64524078D01*
X107971713Y-64534515D01*
X107892786Y-64557072D01*
X107892784Y-64557073D01*
X107884155Y-64559539D01*
X107775019Y-64628399D01*
X107769076Y-64635128D01*
X107769075Y-64635129D01*
X107740191Y-64667834D01*
X107689596Y-64725122D01*
X107685782Y-64733245D01*
X107685781Y-64733247D01*
X107659794Y-64788598D01*
X107634754Y-64841932D01*
X107633374Y-64850798D01*
X107616282Y-64960567D01*
X107616282Y-64960571D01*
X107614901Y-64969440D01*
X105524337Y-64969440D01*
X105506839Y-64847259D01*
X105500724Y-64833809D01*
X105457145Y-64737962D01*
X105457143Y-64737959D01*
X105453428Y-64729788D01*
X105421528Y-64692766D01*
X105375051Y-64638826D01*
X105375049Y-64638824D01*
X105369193Y-64632028D01*
X105260906Y-64561841D01*
X105252311Y-64559271D01*
X105252310Y-64559270D01*
X105145874Y-64527438D01*
X105145872Y-64527438D01*
X105137273Y-64524866D01*
X105128298Y-64524811D01*
X105128297Y-64524811D01*
X105073641Y-64524477D01*
X105008231Y-64524078D01*
X104971713Y-64534515D01*
X104892786Y-64557072D01*
X104892784Y-64557073D01*
X104884155Y-64559539D01*
X104775019Y-64628399D01*
X104769076Y-64635128D01*
X104769075Y-64635129D01*
X104740191Y-64667834D01*
X104689596Y-64725122D01*
X104685782Y-64733245D01*
X104685781Y-64733247D01*
X104659794Y-64788598D01*
X104634754Y-64841932D01*
X104633374Y-64850798D01*
X104616282Y-64960567D01*
X104616282Y-64960571D01*
X104614901Y-64969440D01*
X103524337Y-64969440D01*
X103506839Y-64847259D01*
X103500724Y-64833809D01*
X103457145Y-64737962D01*
X103457143Y-64737959D01*
X103453428Y-64729788D01*
X103421528Y-64692766D01*
X103375051Y-64638826D01*
X103375049Y-64638824D01*
X103369193Y-64632028D01*
X103260906Y-64561841D01*
X103252311Y-64559271D01*
X103252310Y-64559270D01*
X103145874Y-64527438D01*
X103145872Y-64527438D01*
X103137273Y-64524866D01*
X103128298Y-64524811D01*
X103128297Y-64524811D01*
X103073641Y-64524477D01*
X103008231Y-64524078D01*
X102971713Y-64534515D01*
X102892786Y-64557072D01*
X102892784Y-64557073D01*
X102884155Y-64559539D01*
X102775019Y-64628399D01*
X102769076Y-64635128D01*
X102769075Y-64635129D01*
X102740191Y-64667834D01*
X102689596Y-64725122D01*
X102685782Y-64733245D01*
X102685781Y-64733247D01*
X102659794Y-64788598D01*
X102634754Y-64841932D01*
X102633374Y-64850798D01*
X102616282Y-64960567D01*
X102616282Y-64960571D01*
X102614901Y-64969440D01*
X97524337Y-64969440D01*
X97506839Y-64847259D01*
X97500724Y-64833809D01*
X97457145Y-64737962D01*
X97457143Y-64737959D01*
X97453428Y-64729788D01*
X97421528Y-64692766D01*
X97375051Y-64638826D01*
X97375049Y-64638824D01*
X97369193Y-64632028D01*
X97260906Y-64561841D01*
X97252311Y-64559271D01*
X97252310Y-64559270D01*
X97145874Y-64527438D01*
X97145872Y-64527438D01*
X97137273Y-64524866D01*
X97128298Y-64524811D01*
X97128297Y-64524811D01*
X97073641Y-64524477D01*
X97008231Y-64524078D01*
X96971713Y-64534515D01*
X96892786Y-64557072D01*
X96892784Y-64557073D01*
X96884155Y-64559539D01*
X96775019Y-64628399D01*
X96769076Y-64635128D01*
X96769075Y-64635129D01*
X96740191Y-64667834D01*
X96689596Y-64725122D01*
X96685782Y-64733245D01*
X96685781Y-64733247D01*
X96659794Y-64788598D01*
X96634754Y-64841932D01*
X96633374Y-64850798D01*
X96616282Y-64960567D01*
X96616282Y-64960571D01*
X96614901Y-64969440D01*
X95524337Y-64969440D01*
X95506839Y-64847259D01*
X95500724Y-64833809D01*
X95457145Y-64737962D01*
X95457143Y-64737959D01*
X95453428Y-64729788D01*
X95421528Y-64692766D01*
X95375051Y-64638826D01*
X95375049Y-64638824D01*
X95369193Y-64632028D01*
X95260906Y-64561841D01*
X95252311Y-64559271D01*
X95252310Y-64559270D01*
X95145874Y-64527438D01*
X95145872Y-64527438D01*
X95137273Y-64524866D01*
X95128298Y-64524811D01*
X95128297Y-64524811D01*
X95073641Y-64524477D01*
X95008231Y-64524078D01*
X94971713Y-64534515D01*
X94892786Y-64557072D01*
X94892784Y-64557073D01*
X94884155Y-64559539D01*
X94775019Y-64628399D01*
X94769076Y-64635128D01*
X94769075Y-64635129D01*
X94740191Y-64667834D01*
X94689596Y-64725122D01*
X94685782Y-64733245D01*
X94685781Y-64733247D01*
X94659794Y-64788598D01*
X94634754Y-64841932D01*
X94633374Y-64850798D01*
X94616282Y-64960567D01*
X94616282Y-64960571D01*
X94614901Y-64969440D01*
X92524337Y-64969440D01*
X92506839Y-64847259D01*
X92500724Y-64833809D01*
X92457145Y-64737962D01*
X92457143Y-64737959D01*
X92453428Y-64729788D01*
X92421528Y-64692766D01*
X92375051Y-64638826D01*
X92375049Y-64638824D01*
X92369193Y-64632028D01*
X92260906Y-64561841D01*
X92252311Y-64559271D01*
X92252310Y-64559270D01*
X92145874Y-64527438D01*
X92145872Y-64527438D01*
X92137273Y-64524866D01*
X92128298Y-64524811D01*
X92128297Y-64524811D01*
X92073641Y-64524477D01*
X92008231Y-64524078D01*
X91971713Y-64534515D01*
X91892786Y-64557072D01*
X91892784Y-64557073D01*
X91884155Y-64559539D01*
X91775019Y-64628399D01*
X91769076Y-64635128D01*
X91769075Y-64635129D01*
X91740191Y-64667834D01*
X91689596Y-64725122D01*
X91685782Y-64733245D01*
X91685781Y-64733247D01*
X91659794Y-64788598D01*
X91634754Y-64841932D01*
X91633374Y-64850798D01*
X91616282Y-64960567D01*
X91616282Y-64960571D01*
X91614901Y-64969440D01*
X90524337Y-64969440D01*
X90506839Y-64847259D01*
X90500724Y-64833809D01*
X90457145Y-64737962D01*
X90457143Y-64737959D01*
X90453428Y-64729788D01*
X90421528Y-64692766D01*
X90375051Y-64638826D01*
X90375049Y-64638824D01*
X90369193Y-64632028D01*
X90260906Y-64561841D01*
X90252311Y-64559271D01*
X90252310Y-64559270D01*
X90145874Y-64527438D01*
X90145872Y-64527438D01*
X90137273Y-64524866D01*
X90128298Y-64524811D01*
X90128297Y-64524811D01*
X90073641Y-64524477D01*
X90008231Y-64524078D01*
X89971713Y-64534515D01*
X89892786Y-64557072D01*
X89892784Y-64557073D01*
X89884155Y-64559539D01*
X89775019Y-64628399D01*
X89769076Y-64635128D01*
X89769075Y-64635129D01*
X89740191Y-64667834D01*
X89689596Y-64725122D01*
X89685782Y-64733245D01*
X89685781Y-64733247D01*
X89659794Y-64788598D01*
X89634754Y-64841932D01*
X89633374Y-64850798D01*
X89616282Y-64960567D01*
X89616282Y-64960571D01*
X89614901Y-64969440D01*
X79362217Y-64969440D01*
X79368146Y-64957804D01*
X79387992Y-64832500D01*
X79371516Y-64728476D01*
X79369697Y-64716988D01*
X79369697Y-64716987D01*
X79368146Y-64707196D01*
X79368953Y-64707068D01*
X79367166Y-64644466D01*
X79403830Y-64583669D01*
X79467543Y-64552345D01*
X79489026Y-64550500D01*
X80930457Y-64550500D01*
X80955039Y-64552921D01*
X80970000Y-64555897D01*
X80997132Y-64550500D01*
X80997133Y-64550500D01*
X81077495Y-64534515D01*
X81091006Y-64525487D01*
X81098319Y-64523269D01*
X81099279Y-64522871D01*
X81099318Y-64522966D01*
X81160733Y-64504336D01*
X81170000Y-64505804D01*
X81179793Y-64504253D01*
X81293335Y-64486270D01*
X81293337Y-64486269D01*
X81303126Y-64484719D01*
X81423220Y-64423528D01*
X81518528Y-64328220D01*
X81579719Y-64208126D01*
X81590871Y-64137718D01*
X81599253Y-64084793D01*
X81600804Y-64075000D01*
X81586973Y-63987672D01*
X81581270Y-63951665D01*
X81581269Y-63951663D01*
X81579719Y-63941874D01*
X81518528Y-63821780D01*
X81423220Y-63726472D01*
X81303126Y-63665281D01*
X81293337Y-63663731D01*
X81293335Y-63663730D01*
X81179793Y-63645747D01*
X81170000Y-63644196D01*
X81160207Y-63645747D01*
X81046665Y-63663730D01*
X81046663Y-63663731D01*
X81036874Y-63665281D01*
X80916780Y-63726472D01*
X80821472Y-63821780D01*
X80775998Y-63911028D01*
X80765973Y-63930703D01*
X80717225Y-63982318D01*
X80653706Y-63999500D01*
X79442876Y-63999500D01*
X79374755Y-63979498D01*
X79328262Y-63925842D01*
X79318158Y-63855568D01*
X79333761Y-63817113D01*
X79331028Y-63815720D01*
X79343872Y-63790513D01*
X79392219Y-63695626D01*
X79396313Y-63669782D01*
X79411753Y-63572293D01*
X79413304Y-63562500D01*
X79401522Y-63488112D01*
X79393770Y-63439165D01*
X79393769Y-63439163D01*
X79392219Y-63429374D01*
X79331028Y-63309280D01*
X79235720Y-63213972D01*
X79115626Y-63152781D01*
X79105837Y-63151231D01*
X79105835Y-63151230D01*
X78992293Y-63133247D01*
X78982500Y-63131696D01*
X78972707Y-63133247D01*
X78859165Y-63151230D01*
X78859163Y-63151231D01*
X78849374Y-63152781D01*
X78729280Y-63213972D01*
X78633972Y-63309280D01*
X78572781Y-63429374D01*
X78571231Y-63439163D01*
X78571230Y-63439165D01*
X78563478Y-63488112D01*
X78551696Y-63562500D01*
X78549656Y-63562177D01*
X78533245Y-63618068D01*
X78516342Y-63639042D01*
X78092789Y-64062595D01*
X78030477Y-64096621D01*
X78003694Y-64099500D01*
X70648438Y-64099500D01*
X70580317Y-64079498D01*
X70559343Y-64062595D01*
X70523220Y-64026472D01*
X70403126Y-63965281D01*
X70393337Y-63963731D01*
X70393335Y-63963730D01*
X70279793Y-63945747D01*
X70270000Y-63944196D01*
X70260207Y-63945747D01*
X70146665Y-63963730D01*
X70146663Y-63963731D01*
X70136874Y-63965281D01*
X70016780Y-64026472D01*
X69921472Y-64121780D01*
X69860281Y-64241874D01*
X69839196Y-64375000D01*
X69840747Y-64384793D01*
X69856574Y-64484719D01*
X69860281Y-64508126D01*
X69864781Y-64516959D01*
X69867847Y-64526393D01*
X69866428Y-64526854D01*
X69877548Y-64586078D01*
X69850845Y-64651862D01*
X69792816Y-64692766D01*
X69752177Y-64699500D01*
X68848438Y-64699500D01*
X68780317Y-64679498D01*
X68759343Y-64662595D01*
X68723220Y-64626472D01*
X68603126Y-64565281D01*
X68593337Y-64563731D01*
X68593335Y-64563730D01*
X68479793Y-64545747D01*
X68470000Y-64544196D01*
X68460207Y-64545747D01*
X68346665Y-64563730D01*
X68346663Y-64563731D01*
X68336874Y-64565281D01*
X68216780Y-64626472D01*
X68121472Y-64721780D01*
X68060281Y-64841874D01*
X68058731Y-64851663D01*
X68058730Y-64851665D01*
X68044899Y-64938990D01*
X68039196Y-64975000D01*
X27570500Y-64975000D01*
X27570500Y-63675000D01*
X68764508Y-63675000D01*
X68766059Y-63684793D01*
X68781886Y-63784719D01*
X68784354Y-63800304D01*
X68841950Y-63913342D01*
X68931658Y-64003050D01*
X69044696Y-64060646D01*
X69054485Y-64062196D01*
X69054487Y-64062197D01*
X69160207Y-64078941D01*
X69170000Y-64080492D01*
X69179793Y-64078941D01*
X69285513Y-64062197D01*
X69285515Y-64062196D01*
X69295304Y-64060646D01*
X69408342Y-64003050D01*
X69498050Y-63913342D01*
X69555646Y-63800304D01*
X69558115Y-63784719D01*
X69573941Y-63684793D01*
X69575492Y-63675000D01*
X69570859Y-63645747D01*
X69557197Y-63559487D01*
X69557196Y-63559485D01*
X69555646Y-63549696D01*
X69498050Y-63436658D01*
X69436392Y-63375000D01*
X77039196Y-63375000D01*
X77040747Y-63384793D01*
X77056473Y-63484081D01*
X77060281Y-63508126D01*
X77121472Y-63628220D01*
X77216780Y-63723528D01*
X77336874Y-63784719D01*
X77346663Y-63786269D01*
X77346665Y-63786270D01*
X77460207Y-63804253D01*
X77470000Y-63805804D01*
X77479793Y-63804253D01*
X77593335Y-63786270D01*
X77593337Y-63786269D01*
X77603126Y-63784719D01*
X77723220Y-63723528D01*
X77818528Y-63628220D01*
X77879719Y-63508126D01*
X77883528Y-63484081D01*
X77900804Y-63375000D01*
X77902844Y-63375323D01*
X77919255Y-63319432D01*
X77936158Y-63298458D01*
X79059616Y-62175000D01*
X80164508Y-62175000D01*
X80166059Y-62184793D01*
X80180248Y-62274377D01*
X80184354Y-62300304D01*
X80241950Y-62413342D01*
X80331658Y-62503050D01*
X80444696Y-62560646D01*
X80454485Y-62562196D01*
X80454487Y-62562197D01*
X80560207Y-62578941D01*
X80570000Y-62580492D01*
X80579793Y-62578941D01*
X80685513Y-62562197D01*
X80685515Y-62562196D01*
X80695304Y-62560646D01*
X80808342Y-62503050D01*
X80898050Y-62413342D01*
X80955646Y-62300304D01*
X80959753Y-62274377D01*
X80973941Y-62184793D01*
X80975492Y-62175000D01*
X81964508Y-62175000D01*
X81966059Y-62184793D01*
X81980248Y-62274377D01*
X81984354Y-62300304D01*
X82041950Y-62413342D01*
X82131658Y-62503050D01*
X82244696Y-62560646D01*
X82254485Y-62562196D01*
X82254487Y-62562197D01*
X82360207Y-62578941D01*
X82370000Y-62580492D01*
X82379793Y-62578941D01*
X82485513Y-62562197D01*
X82485515Y-62562196D01*
X82495304Y-62560646D01*
X82608342Y-62503050D01*
X82698050Y-62413342D01*
X82755646Y-62300304D01*
X82759753Y-62274377D01*
X82773941Y-62184793D01*
X82775492Y-62175000D01*
X82759301Y-62072772D01*
X82757197Y-62059487D01*
X82757196Y-62059485D01*
X82755646Y-62049696D01*
X82698050Y-61936658D01*
X82608342Y-61846950D01*
X82495304Y-61789354D01*
X82485515Y-61787804D01*
X82485513Y-61787803D01*
X82379793Y-61771059D01*
X82370000Y-61769508D01*
X82360207Y-61771059D01*
X82254487Y-61787803D01*
X82254485Y-61787804D01*
X82244696Y-61789354D01*
X82131658Y-61846950D01*
X82041950Y-61936658D01*
X81984354Y-62049696D01*
X81982804Y-62059485D01*
X81982803Y-62059487D01*
X81980699Y-62072772D01*
X81964508Y-62175000D01*
X80975492Y-62175000D01*
X80959301Y-62072772D01*
X80957197Y-62059487D01*
X80957196Y-62059485D01*
X80955646Y-62049696D01*
X80898050Y-61936658D01*
X80808342Y-61846950D01*
X80695304Y-61789354D01*
X80685515Y-61787804D01*
X80685513Y-61787803D01*
X80579793Y-61771059D01*
X80570000Y-61769508D01*
X80560207Y-61771059D01*
X80454487Y-61787803D01*
X80454485Y-61787804D01*
X80444696Y-61789354D01*
X80331658Y-61846950D01*
X80241950Y-61936658D01*
X80184354Y-62049696D01*
X80182804Y-62059485D01*
X80182803Y-62059487D01*
X80180699Y-62072772D01*
X80164508Y-62175000D01*
X79059616Y-62175000D01*
X79161844Y-62072772D01*
X79180936Y-62057102D01*
X79183307Y-62055518D01*
X79183308Y-62055517D01*
X79193624Y-62048624D01*
X79254515Y-61957495D01*
X79264505Y-61907272D01*
X79298989Y-61842759D01*
X79343528Y-61798220D01*
X79404719Y-61678126D01*
X79408201Y-61656145D01*
X79424253Y-61554793D01*
X79425804Y-61545000D01*
X79421900Y-61520353D01*
X79406270Y-61421665D01*
X79406269Y-61421663D01*
X79404719Y-61411874D01*
X79343528Y-61291780D01*
X79326748Y-61275000D01*
X81064508Y-61275000D01*
X81066059Y-61284793D01*
X81082483Y-61388489D01*
X81084354Y-61400304D01*
X81141950Y-61513342D01*
X81231658Y-61603050D01*
X81344696Y-61660646D01*
X81354485Y-61662196D01*
X81354487Y-61662197D01*
X81460207Y-61678941D01*
X81470000Y-61680492D01*
X81479793Y-61678941D01*
X81585513Y-61662197D01*
X81585515Y-61662196D01*
X81595304Y-61660646D01*
X81708342Y-61603050D01*
X81798050Y-61513342D01*
X81855646Y-61400304D01*
X81857518Y-61388489D01*
X81873941Y-61284793D01*
X81875492Y-61275000D01*
X81872211Y-61254286D01*
X81857197Y-61159487D01*
X81857196Y-61159485D01*
X81855646Y-61149696D01*
X81798050Y-61036658D01*
X81708342Y-60946950D01*
X81595304Y-60889354D01*
X81585515Y-60887804D01*
X81585513Y-60887803D01*
X81479793Y-60871059D01*
X81470000Y-60869508D01*
X81460207Y-60871059D01*
X81354487Y-60887803D01*
X81354485Y-60887804D01*
X81344696Y-60889354D01*
X81231658Y-60946950D01*
X81141950Y-61036658D01*
X81084354Y-61149696D01*
X81082804Y-61159485D01*
X81082803Y-61159487D01*
X81067789Y-61254286D01*
X81064508Y-61275000D01*
X79326748Y-61275000D01*
X79248220Y-61196472D01*
X79128126Y-61135281D01*
X79118337Y-61133731D01*
X79118335Y-61133730D01*
X79004793Y-61115747D01*
X78995000Y-61114196D01*
X78985207Y-61115747D01*
X78871665Y-61133730D01*
X78871663Y-61133731D01*
X78861874Y-61135281D01*
X78741780Y-61196472D01*
X78646472Y-61291780D01*
X78585281Y-61411874D01*
X78583731Y-61421663D01*
X78583730Y-61421665D01*
X78568100Y-61520353D01*
X78564196Y-61545000D01*
X78565747Y-61554793D01*
X78581800Y-61656145D01*
X78585281Y-61678126D01*
X78606305Y-61719388D01*
X78608521Y-61723737D01*
X78621625Y-61793514D01*
X78594925Y-61859299D01*
X78585349Y-61870035D01*
X77546542Y-62908842D01*
X77484230Y-62942868D01*
X77470760Y-62944316D01*
X77470000Y-62944196D01*
X77388864Y-62957047D01*
X77346665Y-62963730D01*
X77346663Y-62963731D01*
X77336874Y-62965281D01*
X77216780Y-63026472D01*
X77121472Y-63121780D01*
X77060281Y-63241874D01*
X77058731Y-63251663D01*
X77058730Y-63251665D01*
X77052761Y-63289354D01*
X77039196Y-63375000D01*
X69436392Y-63375000D01*
X69408342Y-63346950D01*
X69295304Y-63289354D01*
X69285515Y-63287804D01*
X69285513Y-63287803D01*
X69179793Y-63271059D01*
X69170000Y-63269508D01*
X69160207Y-63271059D01*
X69054487Y-63287803D01*
X69054485Y-63287804D01*
X69044696Y-63289354D01*
X68931658Y-63346950D01*
X68841950Y-63436658D01*
X68784354Y-63549696D01*
X68782804Y-63559485D01*
X68782803Y-63559487D01*
X68769141Y-63645747D01*
X68764508Y-63675000D01*
X27570500Y-63675000D01*
X27570500Y-61475000D01*
X71839196Y-61475000D01*
X71840747Y-61484793D01*
X71858367Y-61596039D01*
X71860281Y-61608126D01*
X71921472Y-61728220D01*
X72016780Y-61823528D01*
X72136874Y-61884719D01*
X72146663Y-61886269D01*
X72146665Y-61886270D01*
X72260207Y-61904253D01*
X72270000Y-61905804D01*
X72279793Y-61904253D01*
X72393335Y-61886270D01*
X72393337Y-61886269D01*
X72403126Y-61884719D01*
X72523220Y-61823528D01*
X72618528Y-61728220D01*
X72679719Y-61608126D01*
X72681634Y-61596039D01*
X72700804Y-61475000D01*
X72702844Y-61475323D01*
X72719255Y-61419432D01*
X72736158Y-61398458D01*
X72865176Y-61269440D01*
X76814901Y-61269440D01*
X76816065Y-61278342D01*
X76816065Y-61278345D01*
X76830468Y-61388489D01*
X76830469Y-61388493D01*
X76831633Y-61397394D01*
X76883605Y-61515510D01*
X76889382Y-61522383D01*
X76889383Y-61522384D01*
X76957190Y-61603050D01*
X76966639Y-61614291D01*
X76974116Y-61619268D01*
X77047829Y-61668335D01*
X77074060Y-61685796D01*
X77197233Y-61724278D01*
X77206203Y-61724442D01*
X77206207Y-61724443D01*
X77264942Y-61725519D01*
X77326255Y-61726643D01*
X77388505Y-61709672D01*
X77442092Y-61695062D01*
X77442093Y-61695062D01*
X77450755Y-61692700D01*
X77458405Y-61688003D01*
X77458407Y-61688002D01*
X77553072Y-61629878D01*
X77553075Y-61629875D01*
X77560724Y-61625179D01*
X77566750Y-61618522D01*
X77641300Y-61536161D01*
X77641303Y-61536157D01*
X77647322Y-61529507D01*
X77703588Y-61413375D01*
X77708479Y-61384307D01*
X77724190Y-61290917D01*
X77724997Y-61286120D01*
X77725133Y-61275000D01*
X77713460Y-61193488D01*
X77708112Y-61156145D01*
X77708111Y-61156142D01*
X77706839Y-61147259D01*
X77700688Y-61133730D01*
X77657145Y-61037962D01*
X77657143Y-61037959D01*
X77653428Y-61029788D01*
X77585103Y-60950492D01*
X77575051Y-60938826D01*
X77575049Y-60938824D01*
X77569193Y-60932028D01*
X77560117Y-60926145D01*
X77510298Y-60893855D01*
X77460906Y-60861841D01*
X77452311Y-60859271D01*
X77452310Y-60859270D01*
X77345874Y-60827438D01*
X77345872Y-60827438D01*
X77337273Y-60824866D01*
X77328298Y-60824811D01*
X77328297Y-60824811D01*
X77273641Y-60824477D01*
X77208231Y-60824078D01*
X77196475Y-60827438D01*
X77092786Y-60857072D01*
X77092784Y-60857073D01*
X77084155Y-60859539D01*
X76975019Y-60928399D01*
X76969076Y-60935128D01*
X76969075Y-60935129D01*
X76958635Y-60946950D01*
X76889596Y-61025122D01*
X76885782Y-61033245D01*
X76885781Y-61033247D01*
X76870741Y-61065281D01*
X76834754Y-61141932D01*
X76833374Y-61150798D01*
X76816282Y-61260567D01*
X76816282Y-61260571D01*
X76814901Y-61269440D01*
X72865176Y-61269440D01*
X73759616Y-60375000D01*
X80164508Y-60375000D01*
X80166059Y-60384793D01*
X80181886Y-60484719D01*
X80184354Y-60500304D01*
X80241950Y-60613342D01*
X80331658Y-60703050D01*
X80444696Y-60760646D01*
X80454485Y-60762196D01*
X80454487Y-60762197D01*
X80560207Y-60778941D01*
X80570000Y-60780492D01*
X80579793Y-60778941D01*
X80685513Y-60762197D01*
X80685515Y-60762196D01*
X80695304Y-60760646D01*
X80808342Y-60703050D01*
X80898050Y-60613342D01*
X80955646Y-60500304D01*
X80958115Y-60484719D01*
X80973941Y-60384793D01*
X80975492Y-60375000D01*
X81964508Y-60375000D01*
X81966059Y-60384793D01*
X81981886Y-60484719D01*
X81984354Y-60500304D01*
X82041950Y-60613342D01*
X82131658Y-60703050D01*
X82244696Y-60760646D01*
X82254485Y-60762196D01*
X82254487Y-60762197D01*
X82360207Y-60778941D01*
X82370000Y-60780492D01*
X82379793Y-60778941D01*
X82485513Y-60762197D01*
X82485515Y-60762196D01*
X82495304Y-60760646D01*
X82608342Y-60703050D01*
X82698050Y-60613342D01*
X82732872Y-60545000D01*
X83794508Y-60545000D01*
X83796059Y-60554793D01*
X83806443Y-60620353D01*
X83814354Y-60670304D01*
X83871950Y-60783342D01*
X83961658Y-60873050D01*
X84074696Y-60930646D01*
X84084485Y-60932196D01*
X84084487Y-60932197D01*
X84190207Y-60948941D01*
X84200000Y-60950492D01*
X84209793Y-60948941D01*
X84315513Y-60932197D01*
X84315515Y-60932196D01*
X84325304Y-60930646D01*
X84438342Y-60873050D01*
X84528050Y-60783342D01*
X84585646Y-60670304D01*
X84593558Y-60620353D01*
X84603941Y-60554793D01*
X84605492Y-60545000D01*
X84585646Y-60419696D01*
X84528050Y-60306658D01*
X84438342Y-60216950D01*
X84325304Y-60159354D01*
X84315515Y-60157804D01*
X84315513Y-60157803D01*
X84209793Y-60141059D01*
X84200000Y-60139508D01*
X84190207Y-60141059D01*
X84084487Y-60157803D01*
X84084485Y-60157804D01*
X84074696Y-60159354D01*
X83961658Y-60216950D01*
X83871950Y-60306658D01*
X83814354Y-60419696D01*
X83794508Y-60545000D01*
X82732872Y-60545000D01*
X82755646Y-60500304D01*
X82758115Y-60484719D01*
X82773941Y-60384793D01*
X82775492Y-60375000D01*
X82766684Y-60319385D01*
X82757197Y-60259487D01*
X82757196Y-60259485D01*
X82755646Y-60249696D01*
X82698050Y-60136658D01*
X82608342Y-60046950D01*
X82495304Y-59989354D01*
X82485515Y-59987804D01*
X82485513Y-59987803D01*
X82379793Y-59971059D01*
X82370000Y-59969508D01*
X82360207Y-59971059D01*
X82254487Y-59987803D01*
X82254485Y-59987804D01*
X82244696Y-59989354D01*
X82131658Y-60046950D01*
X82041950Y-60136658D01*
X81984354Y-60249696D01*
X81982804Y-60259485D01*
X81982803Y-60259487D01*
X81973316Y-60319385D01*
X81964508Y-60375000D01*
X80975492Y-60375000D01*
X80966684Y-60319385D01*
X80957197Y-60259487D01*
X80957196Y-60259485D01*
X80955646Y-60249696D01*
X80898050Y-60136658D01*
X80808342Y-60046950D01*
X80695304Y-59989354D01*
X80685515Y-59987804D01*
X80685513Y-59987803D01*
X80579793Y-59971059D01*
X80570000Y-59969508D01*
X80560207Y-59971059D01*
X80454487Y-59987803D01*
X80454485Y-59987804D01*
X80444696Y-59989354D01*
X80331658Y-60046950D01*
X80241950Y-60136658D01*
X80184354Y-60249696D01*
X80182804Y-60259485D01*
X80182803Y-60259487D01*
X80173316Y-60319385D01*
X80164508Y-60375000D01*
X73759616Y-60375000D01*
X74347211Y-59787405D01*
X74409523Y-59753379D01*
X74436306Y-59750500D01*
X78730457Y-59750500D01*
X78755039Y-59752921D01*
X78770000Y-59755897D01*
X78797132Y-59750500D01*
X78797133Y-59750500D01*
X78877495Y-59734515D01*
X78945083Y-59689354D01*
X78945572Y-59689027D01*
X78947417Y-59691786D01*
X78947473Y-59691761D01*
X78945623Y-59688993D01*
X78958311Y-59680515D01*
X78968624Y-59673624D01*
X78977104Y-59660934D01*
X78992771Y-59641845D01*
X79193458Y-59441158D01*
X79255770Y-59407132D01*
X79269240Y-59405684D01*
X79270000Y-59405804D01*
X79352540Y-59392731D01*
X79393335Y-59386270D01*
X79393337Y-59386269D01*
X79403126Y-59384719D01*
X79523220Y-59323528D01*
X79618528Y-59228220D01*
X79679719Y-59108126D01*
X79683427Y-59084719D01*
X79699253Y-58984793D01*
X79700804Y-58975000D01*
X79690121Y-58907550D01*
X79681270Y-58851665D01*
X79681269Y-58851663D01*
X79679719Y-58841874D01*
X79618528Y-58721780D01*
X79571748Y-58675000D01*
X80789196Y-58675000D01*
X80790747Y-58684793D01*
X80805295Y-58776643D01*
X80810281Y-58808126D01*
X80871472Y-58928220D01*
X80966780Y-59023528D01*
X81086874Y-59084719D01*
X81096663Y-59086269D01*
X81096665Y-59086270D01*
X81210207Y-59104253D01*
X81220000Y-59105804D01*
X81229793Y-59104253D01*
X81343335Y-59086270D01*
X81343337Y-59086269D01*
X81353126Y-59084719D01*
X81473220Y-59023528D01*
X81509343Y-58987405D01*
X81571655Y-58953379D01*
X81598438Y-58950500D01*
X81677209Y-58950500D01*
X81701791Y-58952921D01*
X81716752Y-58955897D01*
X81743884Y-58950500D01*
X81743885Y-58950500D01*
X81824247Y-58934515D01*
X81871337Y-58903050D01*
X81871337Y-58903051D01*
X81871340Y-58903048D01*
X81892374Y-58888994D01*
X81894941Y-58892835D01*
X81894942Y-58892834D01*
X81892375Y-58888993D01*
X81905063Y-58880515D01*
X81915376Y-58873624D01*
X81923852Y-58860939D01*
X81939521Y-58841847D01*
X82216161Y-58565207D01*
X82493962Y-58287405D01*
X82556275Y-58253380D01*
X82583058Y-58250500D01*
X83289300Y-58250500D01*
X83357421Y-58270502D01*
X83403914Y-58324158D01*
X83414018Y-58394432D01*
X83384524Y-58459012D01*
X83343197Y-58486412D01*
X83344696Y-58489354D01*
X83231658Y-58546950D01*
X83141950Y-58636658D01*
X83084354Y-58749696D01*
X83082804Y-58759485D01*
X83082803Y-58759487D01*
X83068369Y-58850623D01*
X83064508Y-58875000D01*
X83066059Y-58884793D01*
X83080366Y-58975122D01*
X83084354Y-59000304D01*
X83125136Y-59080342D01*
X83141950Y-59113342D01*
X83139691Y-59114493D01*
X83158714Y-59167802D01*
X83142933Y-59235675D01*
X83141950Y-59236658D01*
X83084354Y-59349696D01*
X83064508Y-59475000D01*
X83084354Y-59600304D01*
X83141950Y-59713342D01*
X83231658Y-59803050D01*
X83344696Y-59860646D01*
X83354485Y-59862196D01*
X83354487Y-59862197D01*
X83460207Y-59878941D01*
X83470000Y-59880492D01*
X83479793Y-59878941D01*
X83585513Y-59862197D01*
X83585515Y-59862196D01*
X83595304Y-59860646D01*
X83708342Y-59803050D01*
X83798050Y-59713342D01*
X83855646Y-59600304D01*
X83875492Y-59475000D01*
X83861439Y-59386270D01*
X83857198Y-59359493D01*
X83857197Y-59359491D01*
X83855646Y-59349696D01*
X83855517Y-59349443D01*
X83853640Y-59283824D01*
X83890300Y-59223025D01*
X83954012Y-59191697D01*
X84024546Y-59199788D01*
X84032705Y-59203584D01*
X84082232Y-59228819D01*
X84144696Y-59260646D01*
X84154485Y-59262196D01*
X84154487Y-59262197D01*
X84260207Y-59278941D01*
X84270000Y-59280492D01*
X84279793Y-59278941D01*
X84385513Y-59262197D01*
X84385515Y-59262196D01*
X84395304Y-59260646D01*
X84508342Y-59203050D01*
X84598050Y-59113342D01*
X84655646Y-59000304D01*
X84659635Y-58975122D01*
X84673941Y-58884793D01*
X84675492Y-58875000D01*
X84671631Y-58850623D01*
X84657197Y-58759487D01*
X84657196Y-58759485D01*
X84655646Y-58749696D01*
X84598050Y-58636658D01*
X84508342Y-58546950D01*
X84443217Y-58513767D01*
X84391602Y-58465018D01*
X84374536Y-58396104D01*
X84397437Y-58328902D01*
X84453034Y-58284750D01*
X84500420Y-58275500D01*
X84628694Y-58275500D01*
X84696815Y-58295502D01*
X84717789Y-58312405D01*
X85057595Y-58652211D01*
X85091621Y-58714523D01*
X85094500Y-58741306D01*
X85094500Y-59235457D01*
X85092079Y-59260039D01*
X85089103Y-59275000D01*
X85094500Y-59302132D01*
X85094500Y-59302133D01*
X85110485Y-59382495D01*
X85171376Y-59473624D01*
X85181692Y-59480517D01*
X85181693Y-59480518D01*
X85184064Y-59482102D01*
X85203156Y-59497772D01*
X85947228Y-60241844D01*
X85962898Y-60260936D01*
X85971376Y-60273624D01*
X85981689Y-60280515D01*
X85994377Y-60288993D01*
X85992788Y-60291370D01*
X85992791Y-60291372D01*
X85994380Y-60288995D01*
X86006438Y-60297052D01*
X86062505Y-60334515D01*
X86142867Y-60350500D01*
X86157828Y-60353476D01*
X86157829Y-60353476D01*
X86170000Y-60355897D01*
X86184961Y-60352921D01*
X86209543Y-60350500D01*
X86791562Y-60350500D01*
X86859683Y-60370502D01*
X86880657Y-60387405D01*
X86916780Y-60423528D01*
X87036874Y-60484719D01*
X87046663Y-60486269D01*
X87046665Y-60486270D01*
X87160207Y-60504253D01*
X87170000Y-60505804D01*
X87179793Y-60504253D01*
X87293335Y-60486270D01*
X87293337Y-60486269D01*
X87303126Y-60484719D01*
X87423220Y-60423528D01*
X87518528Y-60328220D01*
X87525014Y-60315491D01*
X87551091Y-60264314D01*
X87599839Y-60212699D01*
X87668754Y-60195634D01*
X87735956Y-60218535D01*
X87752452Y-60232423D01*
X87932595Y-60412566D01*
X87966621Y-60474878D01*
X87969500Y-60501661D01*
X87969500Y-60621562D01*
X87949498Y-60689683D01*
X87932595Y-60710657D01*
X87921472Y-60721780D01*
X87860281Y-60841874D01*
X87858731Y-60851663D01*
X87858730Y-60851665D01*
X87852761Y-60889354D01*
X87839196Y-60975000D01*
X87840747Y-60984793D01*
X87847851Y-61029647D01*
X87860281Y-61108126D01*
X87864783Y-61116961D01*
X87866589Y-61122520D01*
X87868617Y-61193488D01*
X87831955Y-61254286D01*
X87766466Y-61285906D01*
X87754488Y-61287803D01*
X87754487Y-61287803D01*
X87744696Y-61289354D01*
X87631658Y-61346950D01*
X87541950Y-61436658D01*
X87484354Y-61549696D01*
X87482804Y-61559485D01*
X87482803Y-61559487D01*
X87467494Y-61656145D01*
X87464508Y-61675000D01*
X87466059Y-61684793D01*
X87476987Y-61753789D01*
X87467887Y-61824200D01*
X87422165Y-61878514D01*
X87352538Y-61899500D01*
X83709543Y-61899500D01*
X83684963Y-61897079D01*
X83682173Y-61896524D01*
X83682171Y-61896524D01*
X83670000Y-61894103D01*
X83657829Y-61896524D01*
X83642868Y-61899500D01*
X83642867Y-61899500D01*
X83562505Y-61915485D01*
X83538301Y-61931658D01*
X83494378Y-61961006D01*
X83494377Y-61961007D01*
X83471376Y-61976376D01*
X83464485Y-61986689D01*
X83462898Y-61989064D01*
X83447228Y-62008156D01*
X83228156Y-62227228D01*
X83209064Y-62242898D01*
X83196376Y-62251376D01*
X83181007Y-62274377D01*
X83181006Y-62274378D01*
X83167024Y-62295304D01*
X83135485Y-62342505D01*
X83132682Y-62356600D01*
X83132680Y-62356603D01*
X83132681Y-62356603D01*
X83114103Y-62450000D01*
X83116524Y-62462171D01*
X83117079Y-62464961D01*
X83119500Y-62489543D01*
X83119500Y-62641562D01*
X83099498Y-62709683D01*
X83082595Y-62730657D01*
X83046472Y-62766780D01*
X82985281Y-62886874D01*
X82983731Y-62896663D01*
X82983730Y-62896665D01*
X82972150Y-62969782D01*
X82964196Y-63020000D01*
X82965747Y-63029793D01*
X82975181Y-63089354D01*
X82985281Y-63153126D01*
X83046472Y-63273220D01*
X83066657Y-63293405D01*
X83100683Y-63355717D01*
X83095618Y-63426532D01*
X83071516Y-63464034D01*
X83071811Y-63464248D01*
X83068068Y-63469400D01*
X83066657Y-63471595D01*
X83058972Y-63479280D01*
X82997781Y-63599374D01*
X82996231Y-63609163D01*
X82996230Y-63609165D01*
X82985803Y-63675000D01*
X82976696Y-63732500D01*
X82978247Y-63742293D01*
X82990837Y-63821780D01*
X82997781Y-63865626D01*
X83058972Y-63985720D01*
X83154280Y-64081028D01*
X83274374Y-64142219D01*
X83284163Y-64143769D01*
X83284165Y-64143770D01*
X83407500Y-64163304D01*
X83407177Y-64165344D01*
X83463068Y-64181755D01*
X83484042Y-64198658D01*
X83902228Y-64616844D01*
X83917898Y-64635936D01*
X83926376Y-64648624D01*
X83949377Y-64663993D01*
X83949378Y-64663994D01*
X84014034Y-64707196D01*
X84017505Y-64709515D01*
X84079166Y-64721780D01*
X84125000Y-64730897D01*
X84139961Y-64727921D01*
X84164543Y-64725500D01*
X87955457Y-64725500D01*
X87980039Y-64727921D01*
X87995000Y-64730897D01*
X88022132Y-64725500D01*
X88022133Y-64725500D01*
X88102495Y-64709515D01*
X88144465Y-64681471D01*
X88144465Y-64681472D01*
X88144468Y-64681469D01*
X88170622Y-64663994D01*
X88173189Y-64667835D01*
X88173190Y-64667834D01*
X88170623Y-64663993D01*
X88183311Y-64655515D01*
X88193624Y-64648624D01*
X88202102Y-64635936D01*
X88217772Y-64616844D01*
X89359616Y-63475000D01*
X90364508Y-63475000D01*
X90366059Y-63484793D01*
X90382620Y-63589354D01*
X90384354Y-63600304D01*
X90441950Y-63713342D01*
X90531658Y-63803050D01*
X90644696Y-63860646D01*
X90654485Y-63862196D01*
X90654487Y-63862197D01*
X90760207Y-63878941D01*
X90770000Y-63880492D01*
X90779793Y-63878941D01*
X90885513Y-63862197D01*
X90885515Y-63862196D01*
X90895304Y-63860646D01*
X91008342Y-63803050D01*
X91098050Y-63713342D01*
X91155646Y-63600304D01*
X91157381Y-63589354D01*
X91173941Y-63484793D01*
X91175492Y-63475000D01*
X91155646Y-63349696D01*
X91098050Y-63236658D01*
X91008342Y-63146950D01*
X90895304Y-63089354D01*
X90885515Y-63087804D01*
X90885513Y-63087803D01*
X90779793Y-63071059D01*
X90770000Y-63069508D01*
X90760207Y-63071059D01*
X90654487Y-63087803D01*
X90654485Y-63087804D01*
X90644696Y-63089354D01*
X90531658Y-63146950D01*
X90441950Y-63236658D01*
X90384354Y-63349696D01*
X90364508Y-63475000D01*
X89359616Y-63475000D01*
X90220407Y-62614209D01*
X90282719Y-62580183D01*
X90331415Y-62582614D01*
X90331874Y-62579719D01*
X90465000Y-62600804D01*
X90474793Y-62599253D01*
X90588335Y-62581270D01*
X90588337Y-62581269D01*
X90598126Y-62579719D01*
X90718220Y-62518528D01*
X90813528Y-62423220D01*
X90874719Y-62303126D01*
X90879273Y-62274377D01*
X90894253Y-62179793D01*
X90895804Y-62170000D01*
X90874719Y-62036874D01*
X90813528Y-61916780D01*
X90718220Y-61821472D01*
X90598126Y-61760281D01*
X90588337Y-61758731D01*
X90588335Y-61758730D01*
X90474793Y-61740747D01*
X90465000Y-61739196D01*
X90455207Y-61740747D01*
X90341665Y-61758730D01*
X90341663Y-61758731D01*
X90331874Y-61760281D01*
X90211780Y-61821472D01*
X90116472Y-61916780D01*
X90111973Y-61925610D01*
X90111970Y-61925614D01*
X90106913Y-61935540D01*
X90085122Y-61965532D01*
X90076376Y-61971376D01*
X90069485Y-61981689D01*
X90067898Y-61984064D01*
X90052228Y-62003156D01*
X87917789Y-64137595D01*
X87855477Y-64171621D01*
X87828694Y-64174500D01*
X85491422Y-64174500D01*
X85423301Y-64154498D01*
X85376808Y-64100842D01*
X85366973Y-64028790D01*
X85373941Y-63984794D01*
X85373941Y-63984793D01*
X85375492Y-63975000D01*
X85370613Y-63944196D01*
X85357197Y-63859487D01*
X85357196Y-63859485D01*
X85355646Y-63849696D01*
X85298050Y-63736658D01*
X85208342Y-63646950D01*
X85095304Y-63589354D01*
X85085515Y-63587804D01*
X85085513Y-63587803D01*
X84979793Y-63571059D01*
X84970000Y-63569508D01*
X84960207Y-63571059D01*
X84854487Y-63587803D01*
X84854485Y-63587804D01*
X84844696Y-63589354D01*
X84731658Y-63646950D01*
X84729811Y-63643326D01*
X84681598Y-63660554D01*
X84612439Y-63644507D01*
X84585250Y-63623858D01*
X84508342Y-63546950D01*
X84499506Y-63542448D01*
X84496554Y-63540303D01*
X84453201Y-63484081D01*
X84447126Y-63413344D01*
X84458349Y-63381165D01*
X84500490Y-63298458D01*
X84517219Y-63265626D01*
X84522918Y-63229647D01*
X84536753Y-63142293D01*
X84538304Y-63132500D01*
X84528327Y-63069508D01*
X84518770Y-63009165D01*
X84518769Y-63009163D01*
X84517219Y-62999374D01*
X84483758Y-62933703D01*
X84470654Y-62863926D01*
X84497354Y-62798141D01*
X84555382Y-62757235D01*
X84596025Y-62750500D01*
X88154721Y-62750500D01*
X88179303Y-62752921D01*
X88194264Y-62755897D01*
X88221396Y-62750500D01*
X88221397Y-62750500D01*
X88301759Y-62734515D01*
X88350876Y-62701696D01*
X88369886Y-62688994D01*
X88369887Y-62688993D01*
X88392888Y-62673624D01*
X88401368Y-62660934D01*
X88417035Y-62641845D01*
X89436844Y-61622036D01*
X89455936Y-61606366D01*
X89458307Y-61604782D01*
X89458308Y-61604781D01*
X89468624Y-61597888D01*
X89500207Y-61550622D01*
X89506728Y-61540863D01*
X89522621Y-61517077D01*
X89522621Y-61517076D01*
X89529515Y-61506759D01*
X89534341Y-61482497D01*
X89534342Y-61482495D01*
X89534341Y-61482495D01*
X89545500Y-61426397D01*
X89545500Y-61426393D01*
X89550896Y-61399264D01*
X89547921Y-61384307D01*
X89545500Y-61359727D01*
X89545500Y-60841306D01*
X89565502Y-60773185D01*
X89582405Y-60752211D01*
X92365176Y-57969440D01*
X110614901Y-57969440D01*
X110616065Y-57978342D01*
X110616065Y-57978345D01*
X110630468Y-58088489D01*
X110630469Y-58088493D01*
X110631633Y-58097394D01*
X110635250Y-58105614D01*
X110677132Y-58200798D01*
X110683605Y-58215510D01*
X110689382Y-58222383D01*
X110689383Y-58222384D01*
X110734032Y-58275500D01*
X110766639Y-58314291D01*
X110874060Y-58385796D01*
X110962938Y-58413564D01*
X110979456Y-58418724D01*
X110997233Y-58424278D01*
X111006203Y-58424442D01*
X111006207Y-58424443D01*
X111064942Y-58425519D01*
X111126255Y-58426643D01*
X111188505Y-58409672D01*
X111242092Y-58395062D01*
X111242093Y-58395062D01*
X111250755Y-58392700D01*
X111258405Y-58388003D01*
X111258407Y-58388002D01*
X111353072Y-58329878D01*
X111353075Y-58329875D01*
X111360724Y-58325179D01*
X111366750Y-58318522D01*
X111441300Y-58236161D01*
X111441303Y-58236157D01*
X111447322Y-58229507D01*
X111503588Y-58113375D01*
X111507864Y-58087962D01*
X111524190Y-57990917D01*
X111524997Y-57986120D01*
X111525133Y-57975000D01*
X111515405Y-57907072D01*
X111508112Y-57856145D01*
X111508111Y-57856142D01*
X111506839Y-57847259D01*
X111503125Y-57839090D01*
X111457145Y-57737962D01*
X111457143Y-57737959D01*
X111453428Y-57729788D01*
X111395906Y-57663030D01*
X111375051Y-57638826D01*
X111375049Y-57638824D01*
X111369193Y-57632028D01*
X111260906Y-57561841D01*
X111252311Y-57559271D01*
X111252310Y-57559270D01*
X111145874Y-57527438D01*
X111145872Y-57527438D01*
X111137273Y-57524866D01*
X111128298Y-57524811D01*
X111128297Y-57524811D01*
X111073641Y-57524477D01*
X111008231Y-57524078D01*
X110984414Y-57530885D01*
X110892786Y-57557072D01*
X110892784Y-57557073D01*
X110884155Y-57559539D01*
X110775019Y-57628399D01*
X110769076Y-57635128D01*
X110769075Y-57635129D01*
X110712225Y-57699500D01*
X110689596Y-57725122D01*
X110685782Y-57733245D01*
X110685781Y-57733247D01*
X110672748Y-57761007D01*
X110634754Y-57841932D01*
X110629635Y-57874811D01*
X110616282Y-57960567D01*
X110616282Y-57960571D01*
X110614901Y-57969440D01*
X92365176Y-57969440D01*
X92693458Y-57641158D01*
X92755770Y-57607132D01*
X92769240Y-57605684D01*
X92770000Y-57605804D01*
X92851136Y-57592953D01*
X92893335Y-57586270D01*
X92893337Y-57586269D01*
X92903126Y-57584719D01*
X93023220Y-57523528D01*
X93118528Y-57428220D01*
X93179719Y-57308126D01*
X93189360Y-57247259D01*
X93199253Y-57184793D01*
X93200804Y-57175000D01*
X93194191Y-57133247D01*
X93181270Y-57051665D01*
X93181269Y-57051663D01*
X93179719Y-57041874D01*
X93118528Y-56921780D01*
X93023220Y-56826472D01*
X92911288Y-56769440D01*
X94914901Y-56769440D01*
X94916065Y-56778342D01*
X94916065Y-56778345D01*
X94930468Y-56888489D01*
X94930469Y-56888493D01*
X94931633Y-56897394D01*
X94935250Y-56905614D01*
X94973777Y-56993173D01*
X94983605Y-57015510D01*
X94989382Y-57022383D01*
X94989383Y-57022384D01*
X94997490Y-57032028D01*
X95066639Y-57114291D01*
X95174060Y-57185796D01*
X95253350Y-57210568D01*
X95279456Y-57218724D01*
X95297233Y-57224278D01*
X95306203Y-57224442D01*
X95306207Y-57224443D01*
X95364942Y-57225519D01*
X95426255Y-57226643D01*
X95488505Y-57209672D01*
X95542092Y-57195062D01*
X95542093Y-57195062D01*
X95550755Y-57192700D01*
X95558405Y-57188003D01*
X95558407Y-57188002D01*
X95653072Y-57129878D01*
X95653075Y-57129875D01*
X95660724Y-57125179D01*
X95666750Y-57118522D01*
X95741300Y-57036161D01*
X95741303Y-57036157D01*
X95747322Y-57029507D01*
X95803588Y-56913375D01*
X95806300Y-56897259D01*
X95824190Y-56790917D01*
X95824997Y-56786120D01*
X95825133Y-56775000D01*
X95812792Y-56688826D01*
X95808112Y-56656145D01*
X95808111Y-56656142D01*
X95806839Y-56647259D01*
X95800724Y-56633809D01*
X95757145Y-56537962D01*
X95757143Y-56537959D01*
X95753428Y-56529788D01*
X95669193Y-56432028D01*
X95560906Y-56361841D01*
X95552311Y-56359271D01*
X95552310Y-56359270D01*
X95445874Y-56327438D01*
X95445872Y-56327438D01*
X95437273Y-56324866D01*
X95428298Y-56324811D01*
X95428297Y-56324811D01*
X95373641Y-56324477D01*
X95308231Y-56324078D01*
X95296475Y-56327438D01*
X95192786Y-56357072D01*
X95192784Y-56357073D01*
X95184155Y-56359539D01*
X95176565Y-56364328D01*
X95108475Y-56407290D01*
X95075019Y-56428399D01*
X94989596Y-56525122D01*
X94985782Y-56533245D01*
X94985781Y-56533247D01*
X94966611Y-56574078D01*
X94934754Y-56641932D01*
X94933374Y-56650798D01*
X94916282Y-56760567D01*
X94916282Y-56760571D01*
X94914901Y-56769440D01*
X92911288Y-56769440D01*
X92903126Y-56765281D01*
X92893337Y-56763731D01*
X92893335Y-56763730D01*
X92779793Y-56745747D01*
X92770000Y-56744196D01*
X92760207Y-56745747D01*
X92646665Y-56763730D01*
X92646663Y-56763731D01*
X92636874Y-56765281D01*
X92516780Y-56826472D01*
X92479095Y-56864157D01*
X92416783Y-56898183D01*
X92345968Y-56893118D01*
X92300905Y-56864157D01*
X92243220Y-56806472D01*
X92123126Y-56745281D01*
X92113337Y-56743731D01*
X92113335Y-56743730D01*
X91999793Y-56725747D01*
X91990000Y-56724196D01*
X91980207Y-56725747D01*
X91866665Y-56743730D01*
X91866663Y-56743731D01*
X91856874Y-56745281D01*
X91736780Y-56806472D01*
X91641472Y-56901780D01*
X91580281Y-57021874D01*
X91578731Y-57031663D01*
X91578730Y-57031665D01*
X91564855Y-57119268D01*
X91559196Y-57155000D01*
X91557156Y-57154677D01*
X91540745Y-57210568D01*
X91523842Y-57231542D01*
X88703156Y-60052228D01*
X88684064Y-60067898D01*
X88671376Y-60076376D01*
X88664482Y-60086694D01*
X88655708Y-60095468D01*
X88653769Y-60093529D01*
X88613201Y-60127428D01*
X88542757Y-60136270D01*
X88486656Y-60112191D01*
X88474690Y-60103092D01*
X88461861Y-60091890D01*
X87769519Y-59399548D01*
X87767763Y-59397514D01*
X87765425Y-59392731D01*
X87754391Y-59382495D01*
X87729523Y-59359427D01*
X87726118Y-59356147D01*
X87712723Y-59342752D01*
X87708753Y-59340028D01*
X87706105Y-59337703D01*
X87691881Y-59324508D01*
X87691878Y-59324506D01*
X87683354Y-59316599D01*
X87672550Y-59312289D01*
X87668561Y-59309767D01*
X87657773Y-59304006D01*
X87653448Y-59302089D01*
X87643854Y-59295508D01*
X87632535Y-59292822D01*
X87632533Y-59292821D01*
X87619873Y-59289817D01*
X87602276Y-59284252D01*
X87587638Y-59278412D01*
X87587635Y-59278411D01*
X87579378Y-59275117D01*
X87573085Y-59274500D01*
X87570006Y-59274500D01*
X87566933Y-59274350D01*
X87566944Y-59274134D01*
X87555569Y-59272802D01*
X87546254Y-59272346D01*
X87534934Y-59269660D01*
X87523405Y-59271229D01*
X87523404Y-59271229D01*
X87507827Y-59273349D01*
X87490836Y-59274500D01*
X86846661Y-59274500D01*
X86778540Y-59254498D01*
X86757566Y-59237595D01*
X86557405Y-59037434D01*
X86523379Y-58975122D01*
X86520500Y-58948339D01*
X86520500Y-58319440D01*
X87214901Y-58319440D01*
X87216065Y-58328342D01*
X87216065Y-58328345D01*
X87230468Y-58438489D01*
X87230469Y-58438493D01*
X87231633Y-58447394D01*
X87283605Y-58565510D01*
X87289382Y-58572383D01*
X87289383Y-58572384D01*
X87304160Y-58589963D01*
X87366639Y-58664291D01*
X87474060Y-58735796D01*
X87597233Y-58774278D01*
X87606203Y-58774442D01*
X87606207Y-58774443D01*
X87664942Y-58775519D01*
X87726255Y-58776643D01*
X87789182Y-58759487D01*
X87842092Y-58745062D01*
X87842093Y-58745062D01*
X87850755Y-58742700D01*
X87858405Y-58738003D01*
X87858407Y-58738002D01*
X87953072Y-58679878D01*
X87953075Y-58679875D01*
X87960724Y-58675179D01*
X87966750Y-58668522D01*
X88041300Y-58586161D01*
X88041303Y-58586157D01*
X88047322Y-58579507D01*
X88103588Y-58463375D01*
X88105890Y-58449696D01*
X88124190Y-58340917D01*
X88124997Y-58336120D01*
X88125065Y-58330530D01*
X88125074Y-58329859D01*
X88125074Y-58329853D01*
X88125133Y-58325000D01*
X88116358Y-58263730D01*
X88108112Y-58206145D01*
X88108111Y-58206142D01*
X88106839Y-58197259D01*
X88094927Y-58171059D01*
X88057145Y-58087962D01*
X88057143Y-58087959D01*
X88053428Y-58079788D01*
X88018660Y-58039438D01*
X87975051Y-57988826D01*
X87975049Y-57988824D01*
X87969193Y-57982028D01*
X87860906Y-57911841D01*
X87852311Y-57909271D01*
X87852310Y-57909270D01*
X87745874Y-57877438D01*
X87745872Y-57877438D01*
X87737273Y-57874866D01*
X87728298Y-57874811D01*
X87728297Y-57874811D01*
X87673641Y-57874477D01*
X87608231Y-57874078D01*
X87596475Y-57877438D01*
X87492786Y-57907072D01*
X87492784Y-57907073D01*
X87484155Y-57909539D01*
X87375019Y-57978399D01*
X87289596Y-58075122D01*
X87285782Y-58083245D01*
X87285781Y-58083247D01*
X87283320Y-58088489D01*
X87234754Y-58191932D01*
X87226375Y-58245747D01*
X87216282Y-58310567D01*
X87216282Y-58310571D01*
X87214901Y-58319440D01*
X86520500Y-58319440D01*
X86520500Y-57019440D01*
X87214901Y-57019440D01*
X87216065Y-57028342D01*
X87216065Y-57028345D01*
X87230468Y-57138489D01*
X87230469Y-57138493D01*
X87231633Y-57147394D01*
X87235250Y-57155614D01*
X87277132Y-57250798D01*
X87283605Y-57265510D01*
X87366639Y-57364291D01*
X87474060Y-57435796D01*
X87597233Y-57474278D01*
X87606203Y-57474442D01*
X87606207Y-57474443D01*
X87664942Y-57475519D01*
X87726255Y-57476643D01*
X87788505Y-57459672D01*
X87842092Y-57445062D01*
X87842093Y-57445062D01*
X87850755Y-57442700D01*
X87858405Y-57438003D01*
X87858407Y-57438002D01*
X87953072Y-57379878D01*
X87953075Y-57379875D01*
X87960724Y-57375179D01*
X87966750Y-57368522D01*
X88041300Y-57286161D01*
X88041303Y-57286157D01*
X88047322Y-57279507D01*
X88103588Y-57163375D01*
X88107864Y-57137962D01*
X88124190Y-57040917D01*
X88124997Y-57036120D01*
X88125133Y-57025000D01*
X88110351Y-56921780D01*
X88108112Y-56906145D01*
X88108111Y-56906142D01*
X88106839Y-56897259D01*
X88100724Y-56883809D01*
X88057145Y-56787962D01*
X88057143Y-56787959D01*
X88053428Y-56779788D01*
X87969193Y-56682028D01*
X87860906Y-56611841D01*
X87852311Y-56609271D01*
X87852310Y-56609270D01*
X87745874Y-56577438D01*
X87745872Y-56577438D01*
X87737273Y-56574866D01*
X87728298Y-56574811D01*
X87728297Y-56574811D01*
X87673641Y-56574477D01*
X87608231Y-56574078D01*
X87559512Y-56588002D01*
X87492786Y-56607072D01*
X87492784Y-56607073D01*
X87484155Y-56609539D01*
X87375019Y-56678399D01*
X87369076Y-56685128D01*
X87369075Y-56685129D01*
X87316909Y-56744196D01*
X87289596Y-56775122D01*
X87285782Y-56783245D01*
X87285781Y-56783247D01*
X87267600Y-56821972D01*
X87234754Y-56891932D01*
X87229635Y-56924811D01*
X87216282Y-57010567D01*
X87216282Y-57010571D01*
X87214901Y-57019440D01*
X86520500Y-57019440D01*
X86520500Y-55569440D01*
X87214901Y-55569440D01*
X87216065Y-55578342D01*
X87216065Y-55578345D01*
X87230468Y-55688489D01*
X87230469Y-55688493D01*
X87231633Y-55697394D01*
X87241258Y-55719268D01*
X87271709Y-55788473D01*
X87283605Y-55815510D01*
X87289382Y-55822383D01*
X87289383Y-55822384D01*
X87342686Y-55885796D01*
X87366639Y-55914291D01*
X87474060Y-55985796D01*
X87597233Y-56024278D01*
X87606203Y-56024442D01*
X87606207Y-56024443D01*
X87664942Y-56025519D01*
X87726255Y-56026643D01*
X87788505Y-56009671D01*
X87842092Y-55995062D01*
X87842093Y-55995062D01*
X87850755Y-55992700D01*
X87858405Y-55988003D01*
X87858407Y-55988002D01*
X87953072Y-55929878D01*
X87953075Y-55929875D01*
X87960724Y-55925179D01*
X87966750Y-55918522D01*
X88041300Y-55836161D01*
X88041303Y-55836157D01*
X88047322Y-55829507D01*
X88103588Y-55713375D01*
X88124997Y-55586120D01*
X88125133Y-55575000D01*
X88106839Y-55447259D01*
X88071457Y-55369440D01*
X94914901Y-55369440D01*
X94916065Y-55378342D01*
X94916065Y-55378345D01*
X94930468Y-55488489D01*
X94930469Y-55488493D01*
X94931633Y-55497394D01*
X94935250Y-55505614D01*
X94971716Y-55588489D01*
X94983605Y-55615510D01*
X94989382Y-55622383D01*
X94989383Y-55622384D01*
X95058431Y-55704526D01*
X95066639Y-55714291D01*
X95174060Y-55785796D01*
X95242858Y-55807290D01*
X95288124Y-55821432D01*
X95297233Y-55824278D01*
X95306203Y-55824442D01*
X95306207Y-55824443D01*
X95364942Y-55825519D01*
X95426255Y-55826643D01*
X95497240Y-55807290D01*
X95542092Y-55795062D01*
X95542093Y-55795062D01*
X95550755Y-55792700D01*
X95558405Y-55788003D01*
X95558407Y-55788002D01*
X95653072Y-55729878D01*
X95653075Y-55729875D01*
X95660724Y-55725179D01*
X95669476Y-55715510D01*
X95741300Y-55636161D01*
X95741303Y-55636157D01*
X95747322Y-55629507D01*
X95803588Y-55513375D01*
X95809482Y-55478345D01*
X95824190Y-55390917D01*
X95824997Y-55386120D01*
X95825133Y-55375000D01*
X95806839Y-55247259D01*
X95793715Y-55218394D01*
X95757145Y-55137962D01*
X95757143Y-55137959D01*
X95753428Y-55129788D01*
X95727605Y-55099819D01*
X95675051Y-55038826D01*
X95675049Y-55038824D01*
X95669193Y-55032028D01*
X95560906Y-54961841D01*
X95552311Y-54959271D01*
X95552310Y-54959270D01*
X95445874Y-54927438D01*
X95445872Y-54927438D01*
X95437273Y-54924866D01*
X95428298Y-54924811D01*
X95428297Y-54924811D01*
X95373641Y-54924477D01*
X95308231Y-54924078D01*
X95296475Y-54927438D01*
X95192786Y-54957072D01*
X95192784Y-54957073D01*
X95184155Y-54959539D01*
X95075019Y-55028399D01*
X95069076Y-55035128D01*
X95069075Y-55035129D01*
X95011943Y-55099819D01*
X94989596Y-55125122D01*
X94985782Y-55133245D01*
X94985781Y-55133247D01*
X94971189Y-55164328D01*
X94934754Y-55241932D01*
X94933374Y-55250798D01*
X94916282Y-55360567D01*
X94916282Y-55360571D01*
X94914901Y-55369440D01*
X88071457Y-55369440D01*
X88057145Y-55337962D01*
X88057143Y-55337959D01*
X88053428Y-55329788D01*
X88027625Y-55299842D01*
X87975051Y-55238826D01*
X87975049Y-55238824D01*
X87969193Y-55232028D01*
X87860906Y-55161841D01*
X87852311Y-55159271D01*
X87852310Y-55159270D01*
X87745874Y-55127438D01*
X87745872Y-55127438D01*
X87737273Y-55124866D01*
X87728298Y-55124811D01*
X87728297Y-55124811D01*
X87673641Y-55124477D01*
X87608231Y-55124078D01*
X87559652Y-55137962D01*
X87492786Y-55157072D01*
X87492784Y-55157073D01*
X87484155Y-55159539D01*
X87375019Y-55228399D01*
X87369076Y-55235128D01*
X87369075Y-55235129D01*
X87301351Y-55311812D01*
X87289596Y-55325122D01*
X87285782Y-55333245D01*
X87285781Y-55333247D01*
X87266178Y-55375000D01*
X87234754Y-55441932D01*
X87227505Y-55488489D01*
X87216282Y-55560567D01*
X87216282Y-55560571D01*
X87214901Y-55569440D01*
X86520500Y-55569440D01*
X86520500Y-54169440D01*
X87214901Y-54169440D01*
X87216065Y-54178342D01*
X87216065Y-54178345D01*
X87230468Y-54288489D01*
X87230469Y-54288493D01*
X87231633Y-54297394D01*
X87241258Y-54319268D01*
X87271709Y-54388473D01*
X87283605Y-54415510D01*
X87289382Y-54422383D01*
X87289383Y-54422384D01*
X87292963Y-54426643D01*
X87366639Y-54514291D01*
X87474060Y-54585796D01*
X87597233Y-54624278D01*
X87606203Y-54624442D01*
X87606207Y-54624443D01*
X87664942Y-54625519D01*
X87726255Y-54626643D01*
X87788505Y-54609672D01*
X87842092Y-54595062D01*
X87842093Y-54595062D01*
X87850755Y-54592700D01*
X87858405Y-54588003D01*
X87858407Y-54588002D01*
X87953072Y-54529878D01*
X87953075Y-54529875D01*
X87960724Y-54525179D01*
X87966750Y-54518522D01*
X88041300Y-54436161D01*
X88041303Y-54436157D01*
X88047322Y-54429507D01*
X88103588Y-54313375D01*
X88124997Y-54186120D01*
X88125133Y-54175000D01*
X88106839Y-54047259D01*
X88071457Y-53969440D01*
X96614901Y-53969440D01*
X96616065Y-53978342D01*
X96616065Y-53978345D01*
X96630468Y-54088489D01*
X96630469Y-54088493D01*
X96631633Y-54097394D01*
X96683605Y-54215510D01*
X96689382Y-54222383D01*
X96689383Y-54222384D01*
X96758431Y-54304526D01*
X96766639Y-54314291D01*
X96874060Y-54385796D01*
X96942858Y-54407290D01*
X96988124Y-54421432D01*
X96997233Y-54424278D01*
X97006203Y-54424442D01*
X97006207Y-54424443D01*
X97064942Y-54425519D01*
X97126255Y-54426643D01*
X97197240Y-54407290D01*
X97242092Y-54395062D01*
X97242093Y-54395062D01*
X97250755Y-54392700D01*
X97258405Y-54388003D01*
X97258407Y-54388002D01*
X97353072Y-54329878D01*
X97353075Y-54329875D01*
X97360724Y-54325179D01*
X97366750Y-54318522D01*
X97441300Y-54236161D01*
X97441303Y-54236157D01*
X97447322Y-54229507D01*
X97503588Y-54113375D01*
X97516086Y-54039090D01*
X97524190Y-53990917D01*
X97524997Y-53986120D01*
X97525133Y-53975000D01*
X97506839Y-53847259D01*
X97485111Y-53799471D01*
X97457145Y-53737962D01*
X97457143Y-53737959D01*
X97453428Y-53729788D01*
X97398490Y-53666029D01*
X97375051Y-53638826D01*
X97375049Y-53638824D01*
X97369193Y-53632028D01*
X97260906Y-53561841D01*
X97252311Y-53559271D01*
X97252310Y-53559270D01*
X97145874Y-53527438D01*
X97145872Y-53527438D01*
X97137273Y-53524866D01*
X97128298Y-53524811D01*
X97128297Y-53524811D01*
X97073641Y-53524477D01*
X97008231Y-53524078D01*
X96965572Y-53536270D01*
X96892786Y-53557072D01*
X96892784Y-53557073D01*
X96884155Y-53559539D01*
X96876565Y-53564328D01*
X96789255Y-53619417D01*
X96775019Y-53628399D01*
X96769076Y-53635128D01*
X96769075Y-53635129D01*
X96704690Y-53708031D01*
X96689596Y-53725122D01*
X96685782Y-53733245D01*
X96685781Y-53733247D01*
X96672016Y-53762566D01*
X96634754Y-53841932D01*
X96632541Y-53856145D01*
X96616282Y-53960567D01*
X96616282Y-53960571D01*
X96614901Y-53969440D01*
X88071457Y-53969440D01*
X88057145Y-53937962D01*
X88057143Y-53937959D01*
X88053428Y-53929788D01*
X88027625Y-53899842D01*
X87975051Y-53838826D01*
X87975049Y-53838824D01*
X87969193Y-53832028D01*
X87860906Y-53761841D01*
X87852311Y-53759271D01*
X87852310Y-53759270D01*
X87745874Y-53727438D01*
X87745872Y-53727438D01*
X87737273Y-53724866D01*
X87728298Y-53724811D01*
X87728297Y-53724811D01*
X87673641Y-53724477D01*
X87608231Y-53724078D01*
X87559652Y-53737962D01*
X87492786Y-53757072D01*
X87492784Y-53757073D01*
X87484155Y-53759539D01*
X87375019Y-53828399D01*
X87369076Y-53835128D01*
X87369075Y-53835129D01*
X87301351Y-53911812D01*
X87289596Y-53925122D01*
X87285782Y-53933245D01*
X87285781Y-53933247D01*
X87266178Y-53975000D01*
X87234754Y-54041932D01*
X87233374Y-54050798D01*
X87216282Y-54160567D01*
X87216282Y-54160571D01*
X87214901Y-54169440D01*
X86520500Y-54169440D01*
X86520500Y-53727366D01*
X86520696Y-53724694D01*
X86522425Y-53719658D01*
X86520589Y-53670756D01*
X86520500Y-53666029D01*
X86520500Y-53647052D01*
X86519618Y-53642313D01*
X86519388Y-53638773D01*
X86518225Y-53607791D01*
X86513632Y-53597100D01*
X86512593Y-53592491D01*
X86509035Y-53580780D01*
X86507339Y-53576384D01*
X86505209Y-53564947D01*
X86499082Y-53555006D01*
X86492273Y-53543961D01*
X86483762Y-53527576D01*
X86477549Y-53513113D01*
X86477548Y-53513111D01*
X86474036Y-53504937D01*
X86470022Y-53500051D01*
X86467842Y-53497871D01*
X86465785Y-53495603D01*
X86465945Y-53495458D01*
X86458825Y-53486451D01*
X86452573Y-53479556D01*
X86446468Y-53469652D01*
X86424680Y-53453084D01*
X86411861Y-53441890D01*
X86139411Y-53169440D01*
X89014901Y-53169440D01*
X89016065Y-53178342D01*
X89016065Y-53178345D01*
X89030468Y-53288489D01*
X89030469Y-53288493D01*
X89031633Y-53297394D01*
X89083605Y-53415510D01*
X89166639Y-53514291D01*
X89174116Y-53519268D01*
X89266525Y-53580780D01*
X89274060Y-53585796D01*
X89397233Y-53624278D01*
X89406203Y-53624442D01*
X89406207Y-53624443D01*
X89464942Y-53625519D01*
X89526255Y-53626643D01*
X89595403Y-53607791D01*
X89642092Y-53595062D01*
X89642093Y-53595062D01*
X89650755Y-53592700D01*
X89658405Y-53588003D01*
X89658407Y-53588002D01*
X89753072Y-53529878D01*
X89753075Y-53529875D01*
X89760724Y-53525179D01*
X89766750Y-53518522D01*
X89841300Y-53436161D01*
X89841303Y-53436157D01*
X89847322Y-53429507D01*
X89903588Y-53313375D01*
X89924997Y-53186120D01*
X89925133Y-53175000D01*
X89924337Y-53169440D01*
X90714901Y-53169440D01*
X90716065Y-53178342D01*
X90716065Y-53178345D01*
X90730468Y-53288489D01*
X90730469Y-53288493D01*
X90731633Y-53297394D01*
X90783605Y-53415510D01*
X90866639Y-53514291D01*
X90874116Y-53519268D01*
X90966525Y-53580780D01*
X90974060Y-53585796D01*
X91097233Y-53624278D01*
X91106203Y-53624442D01*
X91106207Y-53624443D01*
X91164942Y-53625519D01*
X91226255Y-53626643D01*
X91295403Y-53607791D01*
X91342092Y-53595062D01*
X91342093Y-53595062D01*
X91350755Y-53592700D01*
X91358405Y-53588003D01*
X91358407Y-53588002D01*
X91453072Y-53529878D01*
X91453075Y-53529875D01*
X91460724Y-53525179D01*
X91466750Y-53518522D01*
X91541300Y-53436161D01*
X91541303Y-53436157D01*
X91547322Y-53429507D01*
X91603588Y-53313375D01*
X91624997Y-53186120D01*
X91625133Y-53175000D01*
X91616570Y-53115207D01*
X91608112Y-53056145D01*
X91608111Y-53056142D01*
X91606839Y-53047259D01*
X91553428Y-52929788D01*
X91527625Y-52899842D01*
X91475051Y-52838826D01*
X91475049Y-52838824D01*
X91469193Y-52832028D01*
X91360906Y-52761841D01*
X91352311Y-52759271D01*
X91352310Y-52759270D01*
X91245874Y-52727438D01*
X91245872Y-52727438D01*
X91237273Y-52724866D01*
X91228298Y-52724811D01*
X91228297Y-52724811D01*
X91173641Y-52724477D01*
X91108231Y-52724078D01*
X91096475Y-52727438D01*
X90992786Y-52757072D01*
X90992784Y-52757073D01*
X90984155Y-52759539D01*
X90875019Y-52828399D01*
X90789596Y-52925122D01*
X90785782Y-52933245D01*
X90785781Y-52933247D01*
X90762403Y-52983041D01*
X90734754Y-53041932D01*
X90733374Y-53050798D01*
X90716282Y-53160567D01*
X90716282Y-53160571D01*
X90714901Y-53169440D01*
X89924337Y-53169440D01*
X89916570Y-53115207D01*
X89908112Y-53056145D01*
X89908111Y-53056142D01*
X89906839Y-53047259D01*
X89853428Y-52929788D01*
X89827625Y-52899842D01*
X89775051Y-52838826D01*
X89775049Y-52838824D01*
X89769193Y-52832028D01*
X89660906Y-52761841D01*
X89652311Y-52759271D01*
X89652310Y-52759270D01*
X89545874Y-52727438D01*
X89545872Y-52727438D01*
X89537273Y-52724866D01*
X89528298Y-52724811D01*
X89528297Y-52724811D01*
X89473641Y-52724477D01*
X89408231Y-52724078D01*
X89396475Y-52727438D01*
X89292786Y-52757072D01*
X89292784Y-52757073D01*
X89284155Y-52759539D01*
X89175019Y-52828399D01*
X89089596Y-52925122D01*
X89085782Y-52933245D01*
X89085781Y-52933247D01*
X89062403Y-52983041D01*
X89034754Y-53041932D01*
X89033374Y-53050798D01*
X89016282Y-53160567D01*
X89016282Y-53160571D01*
X89014901Y-53169440D01*
X86139411Y-53169440D01*
X86130852Y-53160881D01*
X86095498Y-53091497D01*
X86081270Y-53001666D01*
X86081270Y-53001665D01*
X86079719Y-52991874D01*
X86018528Y-52871780D01*
X85923220Y-52776472D01*
X85803126Y-52715281D01*
X85793337Y-52713731D01*
X85793335Y-52713730D01*
X85679793Y-52695747D01*
X85670000Y-52694196D01*
X85660207Y-52695747D01*
X85546665Y-52713730D01*
X85546663Y-52713731D01*
X85536874Y-52715281D01*
X85416780Y-52776472D01*
X85321472Y-52871780D01*
X85260281Y-52991874D01*
X85258731Y-53001663D01*
X85258730Y-53001665D01*
X85244502Y-53091497D01*
X85239196Y-53125000D01*
X85240747Y-53134793D01*
X85246235Y-53169440D01*
X85260281Y-53258126D01*
X85321472Y-53378220D01*
X85416780Y-53473528D01*
X85536874Y-53534719D01*
X85546665Y-53536270D01*
X85546666Y-53536270D01*
X85636497Y-53550498D01*
X85705881Y-53585852D01*
X85882595Y-53762566D01*
X85916621Y-53824878D01*
X85919500Y-53851661D01*
X85919500Y-54910167D01*
X85899498Y-54978288D01*
X85845842Y-55024781D01*
X85775568Y-55034885D01*
X85757400Y-55030885D01*
X85745874Y-55027438D01*
X85745872Y-55027438D01*
X85737273Y-55024866D01*
X85728298Y-55024811D01*
X85728297Y-55024811D01*
X85673641Y-55024477D01*
X85608231Y-55024078D01*
X85556629Y-55038826D01*
X85492786Y-55057072D01*
X85492784Y-55057073D01*
X85484155Y-55059539D01*
X85476565Y-55064328D01*
X85383600Y-55122985D01*
X85375019Y-55128399D01*
X85369076Y-55135128D01*
X85369075Y-55135129D01*
X85341174Y-55166721D01*
X85289596Y-55225122D01*
X85285782Y-55233245D01*
X85285781Y-55233247D01*
X85277541Y-55250798D01*
X85234754Y-55341932D01*
X85228849Y-55379859D01*
X85216282Y-55460567D01*
X85216282Y-55460571D01*
X85214901Y-55469440D01*
X85216065Y-55478342D01*
X85216065Y-55478345D01*
X85230468Y-55588489D01*
X85230469Y-55588493D01*
X85231633Y-55597394D01*
X85235250Y-55605614D01*
X85271716Y-55688489D01*
X85283605Y-55715510D01*
X85289382Y-55722383D01*
X85289383Y-55722384D01*
X85342686Y-55785796D01*
X85366639Y-55814291D01*
X85474060Y-55885796D01*
X85543258Y-55907415D01*
X85579456Y-55918724D01*
X85597233Y-55924278D01*
X85606203Y-55924442D01*
X85606207Y-55924443D01*
X85664942Y-55925519D01*
X85726255Y-55926643D01*
X85760359Y-55917345D01*
X85831340Y-55918724D01*
X85890309Y-55958261D01*
X85918542Y-56023402D01*
X85919500Y-56038908D01*
X85919500Y-56210167D01*
X85899498Y-56278288D01*
X85845842Y-56324781D01*
X85775568Y-56334885D01*
X85757400Y-56330885D01*
X85745874Y-56327438D01*
X85745872Y-56327438D01*
X85737273Y-56324866D01*
X85728298Y-56324811D01*
X85728297Y-56324811D01*
X85673641Y-56324477D01*
X85608231Y-56324078D01*
X85596475Y-56327438D01*
X85492786Y-56357072D01*
X85492784Y-56357073D01*
X85484155Y-56359539D01*
X85476565Y-56364328D01*
X85408475Y-56407290D01*
X85375019Y-56428399D01*
X85289596Y-56525122D01*
X85285782Y-56533245D01*
X85285781Y-56533247D01*
X85266611Y-56574078D01*
X85234754Y-56641932D01*
X85233374Y-56650798D01*
X85216282Y-56760567D01*
X85216282Y-56760571D01*
X85214901Y-56769440D01*
X85216065Y-56778342D01*
X85216065Y-56778345D01*
X85230468Y-56888489D01*
X85230469Y-56888493D01*
X85231633Y-56897394D01*
X85235250Y-56905614D01*
X85273777Y-56993173D01*
X85283605Y-57015510D01*
X85289382Y-57022383D01*
X85289383Y-57022384D01*
X85297490Y-57032028D01*
X85366639Y-57114291D01*
X85474060Y-57185796D01*
X85553350Y-57210568D01*
X85579456Y-57218724D01*
X85597233Y-57224278D01*
X85606203Y-57224442D01*
X85606207Y-57224443D01*
X85664942Y-57225519D01*
X85726255Y-57226643D01*
X85760359Y-57217345D01*
X85831340Y-57218724D01*
X85890309Y-57258261D01*
X85918542Y-57323402D01*
X85919500Y-57338908D01*
X85919500Y-57410167D01*
X85899498Y-57478288D01*
X85845842Y-57524781D01*
X85775568Y-57534885D01*
X85757400Y-57530885D01*
X85745874Y-57527438D01*
X85745872Y-57527438D01*
X85737273Y-57524866D01*
X85728298Y-57524811D01*
X85728297Y-57524811D01*
X85673641Y-57524477D01*
X85608231Y-57524078D01*
X85584414Y-57530885D01*
X85492786Y-57557072D01*
X85492784Y-57557073D01*
X85484155Y-57559539D01*
X85375019Y-57628399D01*
X85369076Y-57635128D01*
X85369075Y-57635129D01*
X85312225Y-57699500D01*
X85289596Y-57725122D01*
X85285782Y-57733245D01*
X85285781Y-57733247D01*
X85244495Y-57821183D01*
X85197438Y-57874345D01*
X85129110Y-57893627D01*
X85061204Y-57872907D01*
X85041345Y-57856729D01*
X85021297Y-57836681D01*
X84987271Y-57774369D01*
X84992336Y-57703554D01*
X85016978Y-57663030D01*
X85041300Y-57636160D01*
X85047322Y-57629507D01*
X85103588Y-57513375D01*
X85109796Y-57476478D01*
X85124190Y-57390917D01*
X85124997Y-57386120D01*
X85125065Y-57380530D01*
X85125074Y-57379859D01*
X85125074Y-57379853D01*
X85125133Y-57375000D01*
X85112410Y-57286161D01*
X85108112Y-57256145D01*
X85108111Y-57256142D01*
X85106839Y-57247259D01*
X85099693Y-57231542D01*
X85057145Y-57137962D01*
X85057143Y-57137959D01*
X85053428Y-57129788D01*
X85027625Y-57099842D01*
X84975051Y-57038826D01*
X84975049Y-57038824D01*
X84969193Y-57032028D01*
X84860906Y-56961841D01*
X84852311Y-56959271D01*
X84852310Y-56959270D01*
X84745874Y-56927438D01*
X84745872Y-56927438D01*
X84737273Y-56924866D01*
X84728298Y-56924811D01*
X84728297Y-56924811D01*
X84673641Y-56924477D01*
X84608231Y-56924078D01*
X84546193Y-56941808D01*
X84492786Y-56957072D01*
X84492784Y-56957073D01*
X84484155Y-56959539D01*
X84476565Y-56964328D01*
X84408475Y-57007290D01*
X84375019Y-57028399D01*
X84289596Y-57125122D01*
X84285782Y-57133245D01*
X84285781Y-57133247D01*
X84283320Y-57138489D01*
X84234754Y-57241932D01*
X84233374Y-57250798D01*
X84216282Y-57360567D01*
X84216282Y-57360571D01*
X84214901Y-57369440D01*
X84216065Y-57378342D01*
X84216065Y-57378345D01*
X84230468Y-57488489D01*
X84230469Y-57488493D01*
X84231633Y-57497394D01*
X84242792Y-57522756D01*
X84251920Y-57593160D01*
X84221534Y-57657325D01*
X84161281Y-57694877D01*
X84127463Y-57699500D01*
X82456289Y-57699500D01*
X82431709Y-57697079D01*
X82428924Y-57696525D01*
X82416752Y-57694104D01*
X82404580Y-57696525D01*
X82389628Y-57699499D01*
X82389620Y-57699500D01*
X82389617Y-57699500D01*
X82389612Y-57699501D01*
X82354096Y-57706566D01*
X82309257Y-57715485D01*
X82218128Y-57776376D01*
X82211235Y-57786692D01*
X82211234Y-57786693D01*
X82209650Y-57789064D01*
X82193980Y-57808156D01*
X81663537Y-58338599D01*
X81601225Y-58372625D01*
X81530410Y-58367560D01*
X81485347Y-58338599D01*
X81473220Y-58326472D01*
X81353126Y-58265281D01*
X81343337Y-58263731D01*
X81343335Y-58263730D01*
X81229793Y-58245747D01*
X81220000Y-58244196D01*
X81210207Y-58245747D01*
X81096665Y-58263730D01*
X81096663Y-58263731D01*
X81086874Y-58265281D01*
X80966780Y-58326472D01*
X80871472Y-58421780D01*
X80810281Y-58541874D01*
X80808731Y-58551663D01*
X80808730Y-58551665D01*
X80803106Y-58587173D01*
X80789196Y-58675000D01*
X79571748Y-58675000D01*
X79523220Y-58626472D01*
X79403126Y-58565281D01*
X79393337Y-58563731D01*
X79393335Y-58563730D01*
X79279793Y-58545747D01*
X79270000Y-58544196D01*
X79260207Y-58545747D01*
X79146665Y-58563730D01*
X79146663Y-58563731D01*
X79136874Y-58565281D01*
X79016780Y-58626472D01*
X78921472Y-58721780D01*
X78860281Y-58841874D01*
X78858731Y-58851663D01*
X78858730Y-58851665D01*
X78849879Y-58907550D01*
X78839196Y-58975000D01*
X78837156Y-58974677D01*
X78820745Y-59030568D01*
X78803842Y-59051542D01*
X78692789Y-59162595D01*
X78630477Y-59196621D01*
X78603694Y-59199500D01*
X78250700Y-59199500D01*
X78182579Y-59179498D01*
X78136086Y-59125842D01*
X78125982Y-59055568D01*
X78155476Y-58990988D01*
X78196803Y-58963588D01*
X78195304Y-58960646D01*
X78210465Y-58952921D01*
X78308342Y-58903050D01*
X78398050Y-58813342D01*
X78455646Y-58700304D01*
X78459626Y-58675179D01*
X78473941Y-58584793D01*
X78475492Y-58575000D01*
X78470336Y-58542446D01*
X78457197Y-58459487D01*
X78457196Y-58459485D01*
X78455646Y-58449696D01*
X78398050Y-58336658D01*
X78308342Y-58246950D01*
X78195304Y-58189354D01*
X78185515Y-58187804D01*
X78185513Y-58187803D01*
X78079793Y-58171059D01*
X78070000Y-58169508D01*
X78060207Y-58171059D01*
X77954487Y-58187803D01*
X77954485Y-58187804D01*
X77944696Y-58189354D01*
X77831658Y-58246950D01*
X77741950Y-58336658D01*
X77684354Y-58449696D01*
X77682804Y-58459485D01*
X77682803Y-58459487D01*
X77669664Y-58542446D01*
X77664508Y-58575000D01*
X77666059Y-58584793D01*
X77680375Y-58675179D01*
X77684354Y-58700304D01*
X77741950Y-58813342D01*
X77831658Y-58903050D01*
X77929535Y-58952921D01*
X77944696Y-58960646D01*
X77943080Y-58963818D01*
X77986837Y-58993734D01*
X78014478Y-59059129D01*
X78002376Y-59129087D01*
X77954373Y-59181396D01*
X77889300Y-59199500D01*
X74309543Y-59199500D01*
X74284961Y-59197079D01*
X74282171Y-59196524D01*
X74270000Y-59194103D01*
X74257829Y-59196524D01*
X74242868Y-59199500D01*
X74242867Y-59199500D01*
X74162505Y-59215485D01*
X74143446Y-59228220D01*
X74094378Y-59261006D01*
X74094377Y-59261007D01*
X74071376Y-59276376D01*
X74064485Y-59286689D01*
X74062898Y-59289064D01*
X74047228Y-59308156D01*
X72346542Y-61008842D01*
X72284230Y-61042868D01*
X72270760Y-61044316D01*
X72270000Y-61044196D01*
X72188864Y-61057047D01*
X72146665Y-61063730D01*
X72146663Y-61063731D01*
X72136874Y-61065281D01*
X72016780Y-61126472D01*
X71921472Y-61221780D01*
X71860281Y-61341874D01*
X71858731Y-61351663D01*
X71858730Y-61351665D01*
X71846379Y-61429647D01*
X71839196Y-61475000D01*
X27570500Y-61475000D01*
X27570500Y-56169440D01*
X84214901Y-56169440D01*
X84216065Y-56178342D01*
X84216065Y-56178345D01*
X84230468Y-56288489D01*
X84230469Y-56288493D01*
X84231633Y-56297394D01*
X84235250Y-56305614D01*
X84261085Y-56364328D01*
X84283605Y-56415510D01*
X84366639Y-56514291D01*
X84474060Y-56585796D01*
X84557425Y-56611841D01*
X84573045Y-56616721D01*
X84597233Y-56624278D01*
X84606203Y-56624442D01*
X84606207Y-56624443D01*
X84664942Y-56625519D01*
X84726255Y-56626643D01*
X84798040Y-56607072D01*
X84842092Y-56595062D01*
X84842093Y-56595062D01*
X84850755Y-56592700D01*
X84858405Y-56588003D01*
X84858407Y-56588002D01*
X84953072Y-56529878D01*
X84953075Y-56529875D01*
X84960724Y-56525179D01*
X84966750Y-56518522D01*
X85041300Y-56436161D01*
X85041303Y-56436157D01*
X85047322Y-56429507D01*
X85103588Y-56313375D01*
X85124997Y-56186120D01*
X85125133Y-56175000D01*
X85106839Y-56047259D01*
X85100724Y-56033809D01*
X85057145Y-55937962D01*
X85057143Y-55937959D01*
X85053428Y-55929788D01*
X84969193Y-55832028D01*
X84860906Y-55761841D01*
X84852311Y-55759271D01*
X84852310Y-55759270D01*
X84745874Y-55727438D01*
X84745872Y-55727438D01*
X84737273Y-55724866D01*
X84728298Y-55724811D01*
X84728297Y-55724811D01*
X84673641Y-55724477D01*
X84608231Y-55724078D01*
X84546193Y-55741808D01*
X84492786Y-55757072D01*
X84492784Y-55757073D01*
X84484155Y-55759539D01*
X84476565Y-55764328D01*
X84389491Y-55819268D01*
X84375019Y-55828399D01*
X84289596Y-55925122D01*
X84285782Y-55933245D01*
X84285781Y-55933247D01*
X84274037Y-55958261D01*
X84234754Y-56041932D01*
X84233374Y-56050798D01*
X84216282Y-56160567D01*
X84216282Y-56160571D01*
X84214901Y-56169440D01*
X27570500Y-56169440D01*
X27570500Y-51669440D01*
X89014901Y-51669440D01*
X89016065Y-51678342D01*
X89016065Y-51678345D01*
X89030468Y-51788489D01*
X89030469Y-51788493D01*
X89031633Y-51797394D01*
X89083605Y-51915510D01*
X89166639Y-52014291D01*
X89274060Y-52085796D01*
X89397233Y-52124278D01*
X89406203Y-52124442D01*
X89406207Y-52124443D01*
X89464942Y-52125519D01*
X89526255Y-52126643D01*
X89588505Y-52109671D01*
X89642092Y-52095062D01*
X89642093Y-52095062D01*
X89650755Y-52092700D01*
X89658405Y-52088003D01*
X89658407Y-52088002D01*
X89753072Y-52029878D01*
X89753075Y-52029875D01*
X89760724Y-52025179D01*
X89766750Y-52018522D01*
X89841300Y-51936161D01*
X89841303Y-51936157D01*
X89847322Y-51929507D01*
X89903588Y-51813375D01*
X89924997Y-51686120D01*
X89925133Y-51675000D01*
X89924337Y-51669440D01*
X90714901Y-51669440D01*
X90716065Y-51678342D01*
X90716065Y-51678345D01*
X90730468Y-51788489D01*
X90730469Y-51788493D01*
X90731633Y-51797394D01*
X90783605Y-51915510D01*
X90866639Y-52014291D01*
X90974060Y-52085796D01*
X91097233Y-52124278D01*
X91106203Y-52124442D01*
X91106207Y-52124443D01*
X91164942Y-52125519D01*
X91226255Y-52126643D01*
X91288505Y-52109671D01*
X91342092Y-52095062D01*
X91342093Y-52095062D01*
X91350755Y-52092700D01*
X91358405Y-52088003D01*
X91358407Y-52088002D01*
X91453072Y-52029878D01*
X91453075Y-52029875D01*
X91460724Y-52025179D01*
X91466750Y-52018522D01*
X91541300Y-51936161D01*
X91541303Y-51936157D01*
X91547322Y-51929507D01*
X91603588Y-51813375D01*
X91624997Y-51686120D01*
X91625133Y-51675000D01*
X91606839Y-51547259D01*
X91553428Y-51429788D01*
X91469193Y-51332028D01*
X91360906Y-51261841D01*
X91352311Y-51259271D01*
X91352310Y-51259270D01*
X91245874Y-51227438D01*
X91245872Y-51227438D01*
X91237273Y-51224866D01*
X91228298Y-51224811D01*
X91228297Y-51224811D01*
X91173641Y-51224477D01*
X91108231Y-51224078D01*
X91096475Y-51227438D01*
X90992786Y-51257072D01*
X90992784Y-51257073D01*
X90984155Y-51259539D01*
X90875019Y-51328399D01*
X90789596Y-51425122D01*
X90785782Y-51433245D01*
X90785781Y-51433247D01*
X90759794Y-51488598D01*
X90734754Y-51541932D01*
X90733374Y-51550798D01*
X90716282Y-51660567D01*
X90716282Y-51660571D01*
X90714901Y-51669440D01*
X89924337Y-51669440D01*
X89906839Y-51547259D01*
X89853428Y-51429788D01*
X89769193Y-51332028D01*
X89660906Y-51261841D01*
X89652311Y-51259271D01*
X89652310Y-51259270D01*
X89545874Y-51227438D01*
X89545872Y-51227438D01*
X89537273Y-51224866D01*
X89528298Y-51224811D01*
X89528297Y-51224811D01*
X89473641Y-51224477D01*
X89408231Y-51224078D01*
X89396475Y-51227438D01*
X89292786Y-51257072D01*
X89292784Y-51257073D01*
X89284155Y-51259539D01*
X89175019Y-51328399D01*
X89089596Y-51425122D01*
X89085782Y-51433245D01*
X89085781Y-51433247D01*
X89059794Y-51488598D01*
X89034754Y-51541932D01*
X89033374Y-51550798D01*
X89016282Y-51660567D01*
X89016282Y-51660571D01*
X89014901Y-51669440D01*
X27570500Y-51669440D01*
X27570500Y-50069440D01*
X89014901Y-50069440D01*
X89016065Y-50078342D01*
X89016065Y-50078345D01*
X89030468Y-50188489D01*
X89030469Y-50188493D01*
X89031633Y-50197394D01*
X89083605Y-50315510D01*
X89166639Y-50414291D01*
X89274060Y-50485796D01*
X89397233Y-50524278D01*
X89406203Y-50524442D01*
X89406207Y-50524443D01*
X89464942Y-50525519D01*
X89526255Y-50526643D01*
X89588505Y-50509671D01*
X89642092Y-50495062D01*
X89642093Y-50495062D01*
X89650755Y-50492700D01*
X89658405Y-50488003D01*
X89658407Y-50488002D01*
X89753072Y-50429878D01*
X89753075Y-50429875D01*
X89760724Y-50425179D01*
X89766750Y-50418522D01*
X89841300Y-50336161D01*
X89841303Y-50336157D01*
X89847322Y-50329507D01*
X89903588Y-50213375D01*
X89924997Y-50086120D01*
X89925133Y-50075000D01*
X89924337Y-50069440D01*
X90714901Y-50069440D01*
X90716065Y-50078342D01*
X90716065Y-50078345D01*
X90730468Y-50188489D01*
X90730469Y-50188493D01*
X90731633Y-50197394D01*
X90783605Y-50315510D01*
X90866639Y-50414291D01*
X90974060Y-50485796D01*
X91097233Y-50524278D01*
X91106203Y-50524442D01*
X91106207Y-50524443D01*
X91164942Y-50525519D01*
X91226255Y-50526643D01*
X91288505Y-50509671D01*
X91342092Y-50495062D01*
X91342093Y-50495062D01*
X91350755Y-50492700D01*
X91358405Y-50488003D01*
X91358407Y-50488002D01*
X91453072Y-50429878D01*
X91453075Y-50429875D01*
X91460724Y-50425179D01*
X91466750Y-50418522D01*
X91541300Y-50336161D01*
X91541303Y-50336157D01*
X91547322Y-50329507D01*
X91603588Y-50213375D01*
X91624997Y-50086120D01*
X91625133Y-50075000D01*
X91606839Y-49947259D01*
X91553428Y-49829788D01*
X91469193Y-49732028D01*
X91360906Y-49661841D01*
X91352311Y-49659271D01*
X91352310Y-49659270D01*
X91245874Y-49627438D01*
X91245872Y-49627438D01*
X91237273Y-49624866D01*
X91228298Y-49624811D01*
X91228297Y-49624811D01*
X91173641Y-49624477D01*
X91108231Y-49624078D01*
X91096475Y-49627438D01*
X90992786Y-49657072D01*
X90992784Y-49657073D01*
X90984155Y-49659539D01*
X90875019Y-49728399D01*
X90789596Y-49825122D01*
X90785782Y-49833245D01*
X90785781Y-49833247D01*
X90759794Y-49888598D01*
X90734754Y-49941932D01*
X90733374Y-49950798D01*
X90716282Y-50060567D01*
X90716282Y-50060571D01*
X90714901Y-50069440D01*
X89924337Y-50069440D01*
X89906839Y-49947259D01*
X89853428Y-49829788D01*
X89769193Y-49732028D01*
X89660906Y-49661841D01*
X89652311Y-49659271D01*
X89652310Y-49659270D01*
X89545874Y-49627438D01*
X89545872Y-49627438D01*
X89537273Y-49624866D01*
X89528298Y-49624811D01*
X89528297Y-49624811D01*
X89473641Y-49624477D01*
X89408231Y-49624078D01*
X89396475Y-49627438D01*
X89292786Y-49657072D01*
X89292784Y-49657073D01*
X89284155Y-49659539D01*
X89175019Y-49728399D01*
X89089596Y-49825122D01*
X89085782Y-49833245D01*
X89085781Y-49833247D01*
X89059794Y-49888598D01*
X89034754Y-49941932D01*
X89033374Y-49950798D01*
X89016282Y-50060567D01*
X89016282Y-50060571D01*
X89014901Y-50069440D01*
X27570500Y-50069440D01*
X27570500Y-48569440D01*
X86414901Y-48569440D01*
X86416065Y-48578342D01*
X86416065Y-48578345D01*
X86430468Y-48688489D01*
X86430469Y-48688493D01*
X86431633Y-48697394D01*
X86483605Y-48815510D01*
X86566639Y-48914291D01*
X86674060Y-48985796D01*
X86797233Y-49024278D01*
X86806203Y-49024442D01*
X86806207Y-49024443D01*
X86864942Y-49025519D01*
X86926255Y-49026643D01*
X86988505Y-49009671D01*
X87042092Y-48995062D01*
X87042093Y-48995062D01*
X87050755Y-48992700D01*
X87058405Y-48988003D01*
X87058407Y-48988002D01*
X87153072Y-48929878D01*
X87153075Y-48929875D01*
X87160724Y-48925179D01*
X87166750Y-48918522D01*
X87241300Y-48836161D01*
X87241303Y-48836157D01*
X87247322Y-48829507D01*
X87303588Y-48713375D01*
X87324997Y-48586120D01*
X87325133Y-48575000D01*
X87324337Y-48569440D01*
X89014901Y-48569440D01*
X89016065Y-48578342D01*
X89016065Y-48578345D01*
X89030468Y-48688489D01*
X89030469Y-48688493D01*
X89031633Y-48697394D01*
X89083605Y-48815510D01*
X89166639Y-48914291D01*
X89274060Y-48985796D01*
X89397233Y-49024278D01*
X89406203Y-49024442D01*
X89406207Y-49024443D01*
X89464942Y-49025519D01*
X89526255Y-49026643D01*
X89588505Y-49009671D01*
X89642092Y-48995062D01*
X89642093Y-48995062D01*
X89650755Y-48992700D01*
X89658405Y-48988003D01*
X89658407Y-48988002D01*
X89753072Y-48929878D01*
X89753075Y-48929875D01*
X89760724Y-48925179D01*
X89766750Y-48918522D01*
X89841300Y-48836161D01*
X89841303Y-48836157D01*
X89847322Y-48829507D01*
X89903588Y-48713375D01*
X89924997Y-48586120D01*
X89925133Y-48575000D01*
X89924337Y-48569440D01*
X90714901Y-48569440D01*
X90716065Y-48578342D01*
X90716065Y-48578345D01*
X90730468Y-48688489D01*
X90730469Y-48688493D01*
X90731633Y-48697394D01*
X90783605Y-48815510D01*
X90866639Y-48914291D01*
X90974060Y-48985796D01*
X91097233Y-49024278D01*
X91106203Y-49024442D01*
X91106207Y-49024443D01*
X91164942Y-49025519D01*
X91226255Y-49026643D01*
X91288505Y-49009671D01*
X91342092Y-48995062D01*
X91342093Y-48995062D01*
X91350755Y-48992700D01*
X91358405Y-48988003D01*
X91358407Y-48988002D01*
X91453072Y-48929878D01*
X91453075Y-48929875D01*
X91460724Y-48925179D01*
X91466750Y-48918522D01*
X91541300Y-48836161D01*
X91541303Y-48836157D01*
X91547322Y-48829507D01*
X91603588Y-48713375D01*
X91624997Y-48586120D01*
X91625133Y-48575000D01*
X91624337Y-48569440D01*
X93514901Y-48569440D01*
X93516065Y-48578342D01*
X93516065Y-48578345D01*
X93530468Y-48688489D01*
X93530469Y-48688493D01*
X93531633Y-48697394D01*
X93583605Y-48815510D01*
X93666639Y-48914291D01*
X93774060Y-48985796D01*
X93897233Y-49024278D01*
X93906203Y-49024442D01*
X93906207Y-49024443D01*
X93964942Y-49025519D01*
X94026255Y-49026643D01*
X94088505Y-49009671D01*
X94142092Y-48995062D01*
X94142093Y-48995062D01*
X94150755Y-48992700D01*
X94158405Y-48988003D01*
X94158407Y-48988002D01*
X94253072Y-48929878D01*
X94253075Y-48929875D01*
X94260724Y-48925179D01*
X94266750Y-48918522D01*
X94341300Y-48836161D01*
X94341303Y-48836157D01*
X94347322Y-48829507D01*
X94403588Y-48713375D01*
X94424997Y-48586120D01*
X94425133Y-48575000D01*
X94406839Y-48447259D01*
X94353428Y-48329788D01*
X94269193Y-48232028D01*
X94160906Y-48161841D01*
X94152311Y-48159271D01*
X94152310Y-48159270D01*
X94045874Y-48127438D01*
X94045872Y-48127438D01*
X94037273Y-48124866D01*
X94028298Y-48124811D01*
X94028297Y-48124811D01*
X93973641Y-48124477D01*
X93908231Y-48124078D01*
X93896475Y-48127438D01*
X93792786Y-48157072D01*
X93792784Y-48157073D01*
X93784155Y-48159539D01*
X93675019Y-48228399D01*
X93589596Y-48325122D01*
X93585782Y-48333245D01*
X93585781Y-48333247D01*
X93559794Y-48388598D01*
X93534754Y-48441932D01*
X93533374Y-48450798D01*
X93516282Y-48560567D01*
X93516282Y-48560571D01*
X93514901Y-48569440D01*
X91624337Y-48569440D01*
X91606839Y-48447259D01*
X91553428Y-48329788D01*
X91469193Y-48232028D01*
X91360906Y-48161841D01*
X91352311Y-48159271D01*
X91352310Y-48159270D01*
X91245874Y-48127438D01*
X91245872Y-48127438D01*
X91237273Y-48124866D01*
X91228298Y-48124811D01*
X91228297Y-48124811D01*
X91173641Y-48124477D01*
X91108231Y-48124078D01*
X91096475Y-48127438D01*
X90992786Y-48157072D01*
X90992784Y-48157073D01*
X90984155Y-48159539D01*
X90875019Y-48228399D01*
X90789596Y-48325122D01*
X90785782Y-48333245D01*
X90785781Y-48333247D01*
X90759794Y-48388598D01*
X90734754Y-48441932D01*
X90733374Y-48450798D01*
X90716282Y-48560567D01*
X90716282Y-48560571D01*
X90714901Y-48569440D01*
X89924337Y-48569440D01*
X89906839Y-48447259D01*
X89853428Y-48329788D01*
X89769193Y-48232028D01*
X89660906Y-48161841D01*
X89652311Y-48159271D01*
X89652310Y-48159270D01*
X89545874Y-48127438D01*
X89545872Y-48127438D01*
X89537273Y-48124866D01*
X89528298Y-48124811D01*
X89528297Y-48124811D01*
X89473641Y-48124477D01*
X89408231Y-48124078D01*
X89396475Y-48127438D01*
X89292786Y-48157072D01*
X89292784Y-48157073D01*
X89284155Y-48159539D01*
X89175019Y-48228399D01*
X89089596Y-48325122D01*
X89085782Y-48333245D01*
X89085781Y-48333247D01*
X89059794Y-48388598D01*
X89034754Y-48441932D01*
X89033374Y-48450798D01*
X89016282Y-48560567D01*
X89016282Y-48560571D01*
X89014901Y-48569440D01*
X87324337Y-48569440D01*
X87306839Y-48447259D01*
X87253428Y-48329788D01*
X87169193Y-48232028D01*
X87060906Y-48161841D01*
X87052311Y-48159271D01*
X87052310Y-48159270D01*
X86945874Y-48127438D01*
X86945872Y-48127438D01*
X86937273Y-48124866D01*
X86928298Y-48124811D01*
X86928297Y-48124811D01*
X86873641Y-48124477D01*
X86808231Y-48124078D01*
X86796475Y-48127438D01*
X86692786Y-48157072D01*
X86692784Y-48157073D01*
X86684155Y-48159539D01*
X86575019Y-48228399D01*
X86489596Y-48325122D01*
X86485782Y-48333245D01*
X86485781Y-48333247D01*
X86459794Y-48388598D01*
X86434754Y-48441932D01*
X86433374Y-48450798D01*
X86416282Y-48560567D01*
X86416282Y-48560571D01*
X86414901Y-48569440D01*
X27570500Y-48569440D01*
X27570500Y-42412371D01*
X27573755Y-42383918D01*
X27574043Y-42382676D01*
X27574044Y-42382669D01*
X27575655Y-42375718D01*
X27575656Y-42375000D01*
X27574074Y-42368066D01*
X27573282Y-42360990D01*
X27574046Y-42360905D01*
X27572069Y-42339063D01*
X27587382Y-41988339D01*
X27588340Y-41977389D01*
X27638140Y-41599121D01*
X27640049Y-41588296D01*
X27722626Y-41215816D01*
X27725471Y-41205198D01*
X27840197Y-40841331D01*
X27843956Y-40831002D01*
X27989969Y-40478496D01*
X27994602Y-40468561D01*
X28170783Y-40130122D01*
X28176273Y-40120613D01*
X28381266Y-39798838D01*
X28387570Y-39789834D01*
X28619838Y-39487136D01*
X28626904Y-39478716D01*
X28884660Y-39197425D01*
X28892429Y-39189656D01*
X29173716Y-38931904D01*
X29182136Y-38924838D01*
X29484834Y-38692570D01*
X29493838Y-38686266D01*
X29815613Y-38481273D01*
X29825122Y-38475783D01*
X30163561Y-38299602D01*
X30173496Y-38294969D01*
X30526009Y-38148953D01*
X30536323Y-38145200D01*
X30900199Y-38030471D01*
X30910816Y-38027626D01*
X31283304Y-37945048D01*
X31294113Y-37943141D01*
X31672390Y-37893340D01*
X31683338Y-37892382D01*
X32033783Y-37877081D01*
X32041624Y-37877799D01*
X32041625Y-37877451D01*
X32055811Y-37877476D01*
X32069641Y-37880656D01*
X32083480Y-37877525D01*
X32088311Y-37877533D01*
X32106504Y-37875500D01*
X128032920Y-37875500D01*
X128050242Y-37877466D01*
G37*
%TD.AperFunction*%
%TD*%
M02*
