%TF.GenerationSoftware,KiCad,Pcbnew,(6.0.11)*%
%TF.CreationDate,2023-07-06T01:04:48-04:00*%
%TF.ProjectId,RP_CHG_r01,52505f43-4847-45f7-9230-312e6b696361,rev?*%
%TF.SameCoordinates,Original*%
%TF.FileFunction,Copper,L1,Top*%
%TF.FilePolarity,Positive*%
%FSLAX46Y46*%
G04 Gerber Fmt 4.6, Leading zero omitted, Abs format (unit mm)*
G04 Created by KiCad (PCBNEW (6.0.11)) date 2023-07-06 01:04:48*
%MOMM*%
%LPD*%
G01*
G04 APERTURE LIST*
G04 Aperture macros list*
%AMRoundRect*
0 Rectangle with rounded corners*
0 $1 Rounding radius*
0 $2 $3 $4 $5 $6 $7 $8 $9 X,Y pos of 4 corners*
0 Add a 4 corners polygon primitive as box body*
4,1,4,$2,$3,$4,$5,$6,$7,$8,$9,$2,$3,0*
0 Add four circle primitives for the rounded corners*
1,1,$1+$1,$2,$3*
1,1,$1+$1,$4,$5*
1,1,$1+$1,$6,$7*
1,1,$1+$1,$8,$9*
0 Add four rect primitives between the rounded corners*
20,1,$1+$1,$2,$3,$4,$5,0*
20,1,$1+$1,$4,$5,$6,$7,0*
20,1,$1+$1,$6,$7,$8,$9,0*
20,1,$1+$1,$8,$9,$2,$3,0*%
%AMFreePoly0*
4,1,21,1.372500,0.787500,0.862500,0.787500,0.862500,0.532500,1.372500,0.532500,1.372500,0.127500,0.862500,0.127500,0.862500,-0.127500,1.372500,-0.127500,1.372500,-0.532500,0.862500,-0.532500,0.862500,-0.787500,1.372500,-0.787500,1.372500,-1.195000,0.612500,-1.195000,0.612500,-1.117500,-0.862500,-1.117500,-0.862500,1.117500,0.612500,1.117500,0.612500,1.195000,1.372500,1.195000,
1.372500,0.787500,1.372500,0.787500,$1*%
G04 Aperture macros list end*
%TA.AperFunction,SMDPad,CuDef*%
%ADD10RoundRect,0.062500X-0.375000X-0.062500X0.375000X-0.062500X0.375000X0.062500X-0.375000X0.062500X0*%
%TD*%
%TA.AperFunction,SMDPad,CuDef*%
%ADD11RoundRect,0.062500X-0.062500X-0.375000X0.062500X-0.375000X0.062500X0.375000X-0.062500X0.375000X0*%
%TD*%
%TA.AperFunction,SMDPad,CuDef*%
%ADD12R,2.500000X2.500000*%
%TD*%
%TA.AperFunction,SMDPad,CuDef*%
%ADD13RoundRect,0.750000X-1.250000X-0.750000X1.250000X-0.750000X1.250000X0.750000X-1.250000X0.750000X0*%
%TD*%
%TA.AperFunction,SMDPad,CuDef*%
%ADD14RoundRect,0.750000X-2.250000X-0.750000X2.250000X-0.750000X2.250000X0.750000X-2.250000X0.750000X0*%
%TD*%
%TA.AperFunction,ComponentPad*%
%ADD15C,14.000000*%
%TD*%
%TA.AperFunction,SMDPad,CuDef*%
%ADD16RoundRect,0.500000X1.500000X0.500000X-1.500000X0.500000X-1.500000X-0.500000X1.500000X-0.500000X0*%
%TD*%
%TA.AperFunction,SMDPad,CuDef*%
%ADD17RoundRect,0.135000X0.185000X-0.135000X0.185000X0.135000X-0.185000X0.135000X-0.185000X-0.135000X0*%
%TD*%
%TA.AperFunction,SMDPad,CuDef*%
%ADD18RoundRect,0.150000X0.150000X0.300000X-0.150000X0.300000X-0.150000X-0.300000X0.150000X-0.300000X0*%
%TD*%
%TA.AperFunction,SMDPad,CuDef*%
%ADD19RoundRect,0.135000X0.135000X0.185000X-0.135000X0.185000X-0.135000X-0.185000X0.135000X-0.185000X0*%
%TD*%
%TA.AperFunction,SMDPad,CuDef*%
%ADD20R,1.800000X0.800000*%
%TD*%
%TA.AperFunction,ComponentPad*%
%ADD21C,7.500000*%
%TD*%
%TA.AperFunction,SMDPad,CuDef*%
%ADD22R,0.600000X0.700000*%
%TD*%
%TA.AperFunction,SMDPad,CuDef*%
%ADD23R,2.000000X2.500000*%
%TD*%
%TA.AperFunction,SMDPad,CuDef*%
%ADD24R,1.270000X2.920000*%
%TD*%
%TA.AperFunction,SMDPad,CuDef*%
%ADD25R,3.430000X1.650000*%
%TD*%
%TA.AperFunction,SMDPad,CuDef*%
%ADD26FreePoly0,90.000000*%
%TD*%
%TA.AperFunction,SMDPad,CuDef*%
%ADD27R,0.405000X0.990000*%
%TD*%
%TA.AperFunction,SMDPad,CuDef*%
%ADD28RoundRect,0.250000X0.312500X0.625000X-0.312500X0.625000X-0.312500X-0.625000X0.312500X-0.625000X0*%
%TD*%
%TA.AperFunction,SMDPad,CuDef*%
%ADD29RoundRect,0.217391X-0.282609X-0.657609X0.282609X-0.657609X0.282609X0.657609X-0.282609X0.657609X0*%
%TD*%
%TA.AperFunction,ComponentPad*%
%ADD30C,7.000000*%
%TD*%
%TA.AperFunction,SMDPad,CuDef*%
%ADD31RoundRect,0.140000X-0.170000X0.140000X-0.170000X-0.140000X0.170000X-0.140000X0.170000X0.140000X0*%
%TD*%
%TA.AperFunction,SMDPad,CuDef*%
%ADD32RoundRect,0.140000X0.140000X0.170000X-0.140000X0.170000X-0.140000X-0.170000X0.140000X-0.170000X0*%
%TD*%
%TA.AperFunction,SMDPad,CuDef*%
%ADD33RoundRect,0.200000X-0.475000X0.200000X-0.475000X-0.200000X0.475000X-0.200000X0.475000X0.200000X0*%
%TD*%
%TA.AperFunction,SMDPad,CuDef*%
%ADD34RoundRect,0.217391X0.282609X0.657609X-0.282609X0.657609X-0.282609X-0.657609X0.282609X-0.657609X0*%
%TD*%
%TA.AperFunction,SMDPad,CuDef*%
%ADD35RoundRect,0.140000X0.170000X-0.140000X0.170000X0.140000X-0.170000X0.140000X-0.170000X-0.140000X0*%
%TD*%
%TA.AperFunction,SMDPad,CuDef*%
%ADD36RoundRect,0.175000X-0.275000X0.175000X-0.275000X-0.175000X0.275000X-0.175000X0.275000X0.175000X0*%
%TD*%
%TA.AperFunction,SMDPad,CuDef*%
%ADD37RoundRect,0.250000X-0.325000X-1.100000X0.325000X-1.100000X0.325000X1.100000X-0.325000X1.100000X0*%
%TD*%
%TA.AperFunction,SMDPad,CuDef*%
%ADD38RoundRect,0.135000X-0.135000X-0.185000X0.135000X-0.185000X0.135000X0.185000X-0.135000X0.185000X0*%
%TD*%
%TA.AperFunction,SMDPad,CuDef*%
%ADD39R,2.413000X3.429000*%
%TD*%
%TA.AperFunction,SMDPad,CuDef*%
%ADD40RoundRect,0.150000X-0.300000X0.150000X-0.300000X-0.150000X0.300000X-0.150000X0.300000X0.150000X0*%
%TD*%
%TA.AperFunction,SMDPad,CuDef*%
%ADD41RoundRect,0.140000X-0.140000X-0.170000X0.140000X-0.170000X0.140000X0.170000X-0.140000X0.170000X0*%
%TD*%
%TA.AperFunction,SMDPad,CuDef*%
%ADD42RoundRect,0.135000X-0.185000X0.135000X-0.185000X-0.135000X0.185000X-0.135000X0.185000X0.135000X0*%
%TD*%
%TA.AperFunction,SMDPad,CuDef*%
%ADD43FreePoly0,270.000000*%
%TD*%
%TA.AperFunction,SMDPad,CuDef*%
%ADD44RoundRect,0.250000X-0.312500X-0.625000X0.312500X-0.625000X0.312500X0.625000X-0.312500X0.625000X0*%
%TD*%
%TA.AperFunction,SMDPad,CuDef*%
%ADD45C,1.000000*%
%TD*%
%TA.AperFunction,SMDPad,CuDef*%
%ADD46RoundRect,0.150000X0.300000X-0.150000X0.300000X0.150000X-0.300000X0.150000X-0.300000X-0.150000X0*%
%TD*%
%TA.AperFunction,ViaPad*%
%ADD47C,0.450000*%
%TD*%
%TA.AperFunction,ViaPad*%
%ADD48C,0.800000*%
%TD*%
%TA.AperFunction,ViaPad*%
%ADD49C,0.600000*%
%TD*%
%TA.AperFunction,Conductor*%
%ADD50C,0.200000*%
%TD*%
%TA.AperFunction,Conductor*%
%ADD51C,0.150000*%
%TD*%
%TA.AperFunction,Conductor*%
%ADD52C,0.300000*%
%TD*%
%TA.AperFunction,Conductor*%
%ADD53C,0.250000*%
%TD*%
%TA.AperFunction,Conductor*%
%ADD54C,1.000000*%
%TD*%
%TA.AperFunction,Conductor*%
%ADD55C,0.500000*%
%TD*%
G04 APERTURE END LIST*
D10*
%TO.P,U1,1,ACN*%
%TO.N,ACN*%
X79520000Y-60045000D03*
%TO.P,U1,2,ACP*%
%TO.N,ACP*%
X79520000Y-60545000D03*
%TO.P,U1,3,~{ACDRV}*%
%TO.N,~{ACDRV}*%
X79520000Y-61045000D03*
%TO.P,U1,4,CE*%
%TO.N,CE*%
X79520000Y-61545000D03*
%TO.P,U1,5,STAT1*%
%TO.N,STAT1*%
X79520000Y-62045000D03*
%TO.P,U1,6,TS*%
%TO.N,TS*%
X79520000Y-62545000D03*
D11*
%TO.P,U1,7,TTC*%
%TO.N,Net-(C4-Pad1)*%
X80207500Y-63232500D03*
%TO.P,U1,8,~{PG}*%
%TO.N,~{PG}*%
X80707500Y-63232500D03*
%TO.P,U1,9,STAT2*%
%TO.N,STAT2*%
X81207500Y-63232500D03*
%TO.P,U1,10,VREF*%
%TO.N,VREF*%
X81707500Y-63232500D03*
%TO.P,U1,11,ISET1*%
%TO.N,ISET1*%
X82207500Y-63232500D03*
%TO.P,U1,12,VFB*%
%TO.N,VFB*%
X82707500Y-63232500D03*
D10*
%TO.P,U1,13,SRN*%
%TO.N,PACK+*%
X83395000Y-62545000D03*
%TO.P,U1,14,SRP*%
%TO.N,SRP*%
X83395000Y-62045000D03*
%TO.P,U1,15,ISET2*%
%TO.N,ISET2*%
X83395000Y-61545000D03*
%TO.P,U1,16,ACSET*%
%TO.N,ACSET*%
X83395000Y-61045000D03*
%TO.P,U1,17,GND*%
%TO.N,EP*%
X83395000Y-60545000D03*
%TO.P,U1,18,REGN*%
%TO.N,/REGN*%
X83395000Y-60045000D03*
D11*
%TO.P,U1,19,LODRV*%
%TO.N,LODRV*%
X82707500Y-59357500D03*
%TO.P,U1,20,PH*%
%TO.N,PH*%
X82207500Y-59357500D03*
%TO.P,U1,21,HIDRV*%
%TO.N,HIDRV*%
X81707500Y-59357500D03*
%TO.P,U1,22,BTST*%
%TO.N,/BTST*%
X81207500Y-59357500D03*
%TO.P,U1,23,~{BATDRV}*%
%TO.N,unconnected-(U1-Pad23)*%
X80707500Y-59357500D03*
%TO.P,U1,24,VCC*%
%TO.N,CHG_VCC*%
X80207500Y-59357500D03*
D12*
%TO.P,U1,25,EP*%
%TO.N,EP*%
X81457500Y-61295000D03*
%TD*%
D13*
%TO.P,J1,1*%
%TO.N,CHG_IN+*%
X72070000Y-76975000D03*
D14*
%TO.P,J1,2*%
%TO.N,EP*%
X51070000Y-76975000D03*
D15*
X60070000Y-76975000D03*
%TD*%
D16*
%TO.P,SW1,1,A*%
%TO.N,2P*%
X50070000Y-56975000D03*
%TO.P,SW1,2,B*%
%TO.N,PWR_SW*%
X50070000Y-52975000D03*
%TO.P,SW1,3,C*%
%TO.N,PWR_SW_GND*%
X50070000Y-48975000D03*
%TD*%
D17*
%TO.P,R12,1*%
%TO.N,CHG_IN+*%
X77470000Y-65585000D03*
%TO.P,R12,2*%
%TO.N,CE*%
X77470000Y-64565000D03*
%TD*%
D18*
%TO.P,R3,1*%
%TO.N,Net-(D3-Pad1)*%
X118520000Y-61275000D03*
%TO.P,R3,2*%
%TO.N,CHG_IN+*%
X117220000Y-61275000D03*
%TD*%
D19*
%TO.P,R2,1*%
%TO.N,CHG_IN+*%
X38780000Y-79375000D03*
%TO.P,R2,2*%
%TO.N,Net-(D2-Pad2)*%
X37760000Y-79375000D03*
%TD*%
%TO.P,R1,1*%
%TO.N,CHG_IN+*%
X38780000Y-74175000D03*
%TO.P,R1,2*%
%TO.N,Net-(D1-Pad2)*%
X37760000Y-74175000D03*
%TD*%
D20*
%TO.P,K1,1*%
%TO.N,Net-(D3-Pad1)*%
X118570000Y-56775000D03*
%TO.P,K1,2*%
%TO.N,unconnected-(K1-Pad2)*%
X118570000Y-53575000D03*
%TO.P,K1,3*%
%TO.N,unconnected-(K1-Pad3)*%
X118570000Y-51375000D03*
%TO.P,K1,4*%
%TO.N,unconnected-(K1-Pad4)*%
X118570000Y-49175000D03*
%TO.P,K1,5*%
%TO.N,2P*%
X111570000Y-49175000D03*
%TO.P,K1,6*%
%TO.N,CHG*%
X111570000Y-51375000D03*
%TO.P,K1,7*%
%TO.N,PWR_SW_GND*%
X111570000Y-53575000D03*
%TO.P,K1,8*%
%TO.N,EP*%
X111570000Y-56775000D03*
%TD*%
D21*
%TO.P,H5,1,1*%
%TO.N,CASE*%
X60070000Y-52975000D03*
%TD*%
D22*
%TO.P,D3,1,K*%
%TO.N,Net-(D3-Pad1)*%
X118570000Y-59575000D03*
%TO.P,D3,2,A*%
%TO.N,EP*%
X117170000Y-59575000D03*
%TD*%
D23*
%TO.P,D2,1,K*%
%TO.N,STAT1*%
X42370000Y-76975000D03*
%TO.P,D2,2,A*%
%TO.N,Net-(D2-Pad2)*%
X37770000Y-76975000D03*
%TD*%
%TO.P,D1,1,K*%
%TO.N,STAT2*%
X42370000Y-71975000D03*
%TO.P,D1,2,A*%
%TO.N,Net-(D1-Pad2)*%
X37770000Y-71975000D03*
%TD*%
D24*
%TO.P,J2,1,Pin_1*%
%TO.N,PWR_SW_GND*%
X103070000Y-61190000D03*
%TO.P,J2,2,Pin_2*%
%TO.N,2P*%
X100070000Y-61190000D03*
%TO.P,J2,3,Pin_3*%
%TO.N,PACK+*%
X97070000Y-61190000D03*
%TO.P,J2,4,Pin_4*%
%TO.N,PWR_SW*%
X103070000Y-56560000D03*
%TO.P,J2,5,Pin_5*%
%TO.N,CHG*%
X100070000Y-56560000D03*
%TO.P,J2,6,Pin_6*%
%TO.N,EP*%
X97070000Y-56560000D03*
D25*
%TO.P,J2,MP,MountPin*%
X106955000Y-66660000D03*
X93185000Y-66660000D03*
%TD*%
D26*
%TO.P,Q4,5,D*%
%TO.N,PH*%
X83893752Y-52410000D03*
D27*
%TO.P,Q4,4,G*%
%TO.N,LODRV*%
X84883752Y-54402500D03*
%TO.P,Q4,3,S*%
%TO.N,EP*%
X84223752Y-54402500D03*
%TO.P,Q4,2,S*%
X83563752Y-54402500D03*
%TO.P,Q4,1,S*%
X82903752Y-54402500D03*
%TD*%
D28*
%TO.P,R17,2*%
%TO.N,ACP*%
X75826250Y-56518750D03*
%TO.P,R17,1*%
%TO.N,ACN*%
X78751250Y-56518750D03*
%TD*%
D19*
%TO.P,R8,2*%
%TO.N,ISET2*%
X86060000Y-62475000D03*
%TO.P,R8,1*%
%TO.N,VREF*%
X87080000Y-62475000D03*
%TD*%
D29*
%TO.P,C2,2*%
%TO.N,EP*%
X81985909Y-69575000D03*
%TO.P,C2,1*%
%TO.N,Net-(C2-Pad1)*%
X79185909Y-69575000D03*
%TD*%
D17*
%TO.P,R4,2*%
%TO.N,TS*%
X78982500Y-66952500D03*
%TO.P,R4,1*%
%TO.N,VREF*%
X78982500Y-67972500D03*
%TD*%
%TO.P,R20,2*%
%TO.N,VFB*%
X90770000Y-61865000D03*
%TO.P,R20,1*%
%TO.N,EP*%
X90770000Y-62885000D03*
%TD*%
D30*
%TO.P,H4,1,1*%
%TO.N,CASE*%
X128070000Y-42375000D03*
%TD*%
D26*
%TO.P,Q2,5,D*%
%TO.N,ACP*%
X74870000Y-61740000D03*
D27*
%TO.P,Q2,4,G*%
%TO.N,Net-(C3-Pad2)*%
X75860000Y-63732500D03*
%TO.P,Q2,3,S*%
%TO.N,Net-(C3-Pad1)*%
X75200000Y-63732500D03*
%TO.P,Q2,2,S*%
X74540000Y-63732500D03*
%TO.P,Q2,1,S*%
X73880000Y-63732500D03*
%TD*%
D19*
%TO.P,R10,2*%
%TO.N,ISET1*%
X86060000Y-63575000D03*
%TO.P,R10,1*%
%TO.N,VREF*%
X87080000Y-63575000D03*
%TD*%
D31*
%TO.P,C8,2*%
%TO.N,ACP*%
X78270000Y-60455000D03*
%TO.P,C8,1*%
%TO.N,ACN*%
X78270000Y-59495000D03*
%TD*%
D32*
%TO.P,C6,2*%
%TO.N,/BTST*%
X88790000Y-60075000D03*
%TO.P,C6,1*%
%TO.N,PH*%
X89750000Y-60075000D03*
%TD*%
D17*
%TO.P,R15,2*%
%TO.N,~{ACDRV}*%
X78270000Y-61865000D03*
%TO.P,R15,1*%
%TO.N,Net-(C3-Pad2)*%
X78270000Y-62885000D03*
%TD*%
D33*
%TO.P,C4,2*%
%TO.N,EP*%
X80607500Y-67082500D03*
%TO.P,C4,1*%
%TO.N,Net-(C4-Pad1)*%
X80607500Y-65182500D03*
%TD*%
D30*
%TO.P,H1,1,1*%
%TO.N,CASE*%
X32070000Y-42375000D03*
%TD*%
D34*
%TO.P,C13,2*%
%TO.N,EP*%
X86570000Y-58175000D03*
%TO.P,C13,1*%
%TO.N,PACK+*%
X89370000Y-58175000D03*
%TD*%
D17*
%TO.P,R5,2*%
%TO.N,EP*%
X78982500Y-64552500D03*
%TO.P,R5,1*%
%TO.N,TS*%
X78982500Y-65572500D03*
%TD*%
D35*
%TO.P,C7,2*%
%TO.N,EP*%
X84970000Y-58495000D03*
%TO.P,C7,1*%
%TO.N,/REGN*%
X84970000Y-59455000D03*
%TD*%
D32*
%TO.P,C3,2*%
%TO.N,Net-(C3-Pad2)*%
X71577500Y-63775000D03*
%TO.P,C3,1*%
%TO.N,Net-(C3-Pad1)*%
X72537500Y-63775000D03*
%TD*%
D36*
%TO.P,C15,2*%
%TO.N,VFB*%
X89470000Y-62750000D03*
%TO.P,C15,1*%
%TO.N,PACK+*%
X89470000Y-61200000D03*
%TD*%
D35*
%TO.P,C5,2*%
%TO.N,ACP*%
X77270000Y-59495000D03*
%TO.P,C5,1*%
%TO.N,EP*%
X77270000Y-60455000D03*
%TD*%
D37*
%TO.P,C10,2*%
%TO.N,EP*%
X83568752Y-56932500D03*
%TO.P,C10,1*%
%TO.N,ACN*%
X80618752Y-56932500D03*
%TD*%
D38*
%TO.P,R11,2*%
%TO.N,EP*%
X84980000Y-64575000D03*
%TO.P,R11,1*%
%TO.N,ISET1*%
X83960000Y-64575000D03*
%TD*%
D34*
%TO.P,C14,2*%
%TO.N,EP*%
X86570000Y-55975000D03*
%TO.P,C14,1*%
%TO.N,PACK+*%
X89370000Y-55975000D03*
%TD*%
D39*
%TO.P,L1,2,2*%
%TO.N,PH*%
X87449000Y-51375000D03*
%TO.P,L1,1,1*%
%TO.N,SRP*%
X93291000Y-51375000D03*
%TD*%
D40*
%TO.P,R13,2*%
%TO.N,Net-(C2-Pad1)*%
X77370000Y-68325000D03*
%TO.P,R13,1*%
%TO.N,CHG_IN+*%
X77370000Y-67025000D03*
%TD*%
D17*
%TO.P,R19,2*%
%TO.N,PACK+*%
X90770000Y-59965000D03*
%TO.P,R19,1*%
%TO.N,VFB*%
X90770000Y-60985000D03*
%TD*%
D41*
%TO.P,C11,1*%
%TO.N,SRP*%
X93990000Y-57775000D03*
%TO.P,C11,2*%
%TO.N,EP*%
X94950000Y-57775000D03*
%TD*%
D19*
%TO.P,R14,2*%
%TO.N,Net-(C3-Pad2)*%
X71547500Y-64975000D03*
%TO.P,R14,1*%
%TO.N,Net-(C3-Pad1)*%
X72567500Y-64975000D03*
%TD*%
D42*
%TO.P,R9,2*%
%TO.N,EP*%
X84970000Y-63385000D03*
%TO.P,R9,1*%
%TO.N,ISET2*%
X84970000Y-62365000D03*
%TD*%
D36*
%TO.P,C1,2*%
%TO.N,EP*%
X82207500Y-66707500D03*
%TO.P,C1,1*%
%TO.N,VREF*%
X82207500Y-65157500D03*
%TD*%
D30*
%TO.P,H3,1,1*%
%TO.N,CASE*%
X128070000Y-87575000D03*
%TD*%
D43*
%TO.P,Q3,5,D*%
%TO.N,ACN*%
X80193752Y-53567500D03*
D27*
%TO.P,Q3,4,G*%
%TO.N,HIDRV*%
X79203752Y-51575000D03*
%TO.P,Q3,3,S*%
%TO.N,PH*%
X79863752Y-51575000D03*
%TO.P,Q3,2,S*%
X80523752Y-51575000D03*
%TO.P,Q3,1,S*%
X81183752Y-51575000D03*
%TD*%
D44*
%TO.P,R18,2*%
%TO.N,SRP*%
X93932500Y-56075000D03*
%TO.P,R18,1*%
%TO.N,PACK+*%
X91007500Y-56075000D03*
%TD*%
D41*
%TO.P,C12,2*%
%TO.N,SRP*%
X92950000Y-57775000D03*
%TO.P,C12,1*%
%TO.N,PACK+*%
X91990000Y-57775000D03*
%TD*%
D43*
%TO.P,Q1,5,D*%
%TO.N,CHG_IN+*%
X74870000Y-67465000D03*
D27*
%TO.P,Q1,4,G*%
%TO.N,Net-(C3-Pad2)*%
X73880000Y-65472500D03*
%TO.P,Q1,3,S*%
%TO.N,Net-(C3-Pad1)*%
X74540000Y-65472500D03*
%TO.P,Q1,2,S*%
X75200000Y-65472500D03*
%TO.P,Q1,1,S*%
X75860000Y-65472500D03*
%TD*%
D19*
%TO.P,R6,2*%
%TO.N,ACSET*%
X86060000Y-61375000D03*
%TO.P,R6,1*%
%TO.N,VREF*%
X87080000Y-61375000D03*
%TD*%
D17*
%TO.P,R7,2*%
%TO.N,EP*%
X84970000Y-60365000D03*
%TO.P,R7,1*%
%TO.N,ACSET*%
X84970000Y-61385000D03*
%TD*%
D32*
%TO.P,C9,2*%
%TO.N,EP*%
X78190000Y-58175000D03*
%TO.P,C9,1*%
%TO.N,CHG_VCC*%
X79150000Y-58175000D03*
%TD*%
D45*
%TO.P,TP1,1,1*%
%TO.N,CHG_IN+*%
X74870000Y-70175000D03*
%TD*%
D46*
%TO.P,R16,2*%
%TO.N,CHG_VCC*%
X72270000Y-61425000D03*
%TO.P,R16,1*%
%TO.N,Net-(C3-Pad1)*%
X72270000Y-62725000D03*
%TD*%
D30*
%TO.P,H2,1,1*%
%TO.N,CASE*%
X32070000Y-87575000D03*
%TD*%
D22*
%TO.P,D4,2,A*%
%TO.N,/REGN*%
X86270000Y-60032500D03*
%TO.P,D4,1,K*%
%TO.N,/BTST*%
X87670000Y-60032500D03*
%TD*%
D47*
%TO.N,PH*%
X85670000Y-53125000D03*
%TO.N,/BTST*%
X81220000Y-58675000D03*
%TO.N,EP*%
X81470000Y-61275000D03*
X80570000Y-62175000D03*
X82370000Y-62175000D03*
X82370000Y-60375000D03*
X80570000Y-60375000D03*
D48*
X97070000Y-53975000D03*
X111070000Y-57975000D03*
X108070000Y-64975000D03*
X110070000Y-64975000D03*
X110070000Y-66975000D03*
X110070000Y-68975000D03*
X108070000Y-68975000D03*
X105070000Y-68975000D03*
X103070000Y-68975000D03*
X103070000Y-66975000D03*
X103070000Y-64975000D03*
X105070000Y-64975000D03*
X95070000Y-68975000D03*
X97070000Y-68975000D03*
X97070000Y-66975000D03*
X97070000Y-64975000D03*
X95070000Y-64975000D03*
X92070000Y-64975000D03*
X92070000Y-68975000D03*
X90070000Y-68975000D03*
X90070000Y-66975000D03*
X90070000Y-64975000D03*
D47*
%TO.N,CE*%
X77470000Y-63375000D03*
%TO.N,EP*%
X69170000Y-63675000D03*
%TO.N,STAT1*%
X70270000Y-64375000D03*
%TO.N,STAT2*%
X68470000Y-64975000D03*
%TO.N,EP*%
X90770000Y-63475000D03*
X87870000Y-61675000D03*
%TO.N,STAT2*%
X81170000Y-64075000D03*
D48*
%TO.N,EP*%
X95370000Y-55375000D03*
X95370000Y-56775000D03*
D47*
X80607500Y-66532500D03*
X78982500Y-64832500D03*
D48*
X85670000Y-57975000D03*
X87670000Y-58325000D03*
D47*
X78070000Y-58575000D03*
X84200000Y-60545000D03*
D48*
X86870000Y-48575000D03*
D47*
X82207500Y-66232500D03*
D48*
X89470000Y-48575000D03*
X84670000Y-56175000D03*
X91170000Y-48575000D03*
X89470000Y-51675000D03*
D47*
X84270000Y-58875000D03*
X84970000Y-63975000D03*
D48*
X87670000Y-57025000D03*
X89470000Y-53175000D03*
D47*
X83470000Y-59475000D03*
D48*
X84670000Y-57375000D03*
D47*
X83470000Y-58875000D03*
X84270000Y-63875000D03*
D48*
X91170000Y-50075000D03*
X85670000Y-56775000D03*
X87670000Y-54175000D03*
X85670000Y-55475000D03*
X91170000Y-53175000D03*
X91170000Y-51675000D03*
X87670000Y-55575000D03*
X77270000Y-61275000D03*
X93970000Y-48575000D03*
X89470000Y-50075000D03*
D49*
X81185909Y-69575000D03*
D47*
%TO.N,PACK+*%
X83395000Y-63020000D03*
X91990000Y-57155000D03*
%TO.N,CE*%
X78995000Y-61545000D03*
%TO.N,CHG_VCC*%
X79270000Y-58975000D03*
X72270000Y-61475000D03*
%TO.N,PH*%
X88270000Y-60975000D03*
%TO.N,/BTST*%
X87170000Y-60075000D03*
%TO.N,SRP*%
X84107500Y-63132500D03*
X92770000Y-57175000D03*
%TO.N,VFB*%
X90465000Y-62170000D03*
X83407500Y-63732500D03*
%TO.N,STAT1*%
X78982500Y-63562500D03*
%TD*%
D50*
%TO.N,STAT2*%
X68670000Y-65175000D02*
X68470000Y-64975000D01*
X44170000Y-77975000D02*
X51670000Y-85475000D01*
X65670000Y-85475000D02*
X68670000Y-82475000D01*
X44170000Y-73775000D02*
X44170000Y-77975000D01*
X51670000Y-85475000D02*
X65670000Y-85475000D01*
X68670000Y-82475000D02*
X68670000Y-65175000D01*
X42370000Y-71975000D02*
X44170000Y-73775000D01*
%TO.N,STAT1*%
X69370000Y-83375000D02*
X69370000Y-65275000D01*
X69370000Y-65275000D02*
X70270000Y-64375000D01*
X50170000Y-86075000D02*
X66670000Y-86075000D01*
X66670000Y-86075000D02*
X69370000Y-83375000D01*
X42370000Y-78275000D02*
X50170000Y-86075000D01*
X42370000Y-76975000D02*
X42370000Y-78275000D01*
%TO.N,CHG_IN+*%
X35670000Y-80175000D02*
X35670000Y-76325000D01*
X35760000Y-80265000D02*
X35670000Y-80175000D01*
X37480000Y-75475000D02*
X38780000Y-74175000D01*
X38780000Y-80265000D02*
X35760000Y-80265000D01*
X35670000Y-76325000D02*
X36520000Y-75475000D01*
X36520000Y-75475000D02*
X37480000Y-75475000D01*
D51*
%TO.N,/BTST*%
X81207500Y-58687500D02*
X81207500Y-59357500D01*
X81220000Y-58675000D02*
X81207500Y-58687500D01*
%TO.N,PH*%
X82570000Y-52410000D02*
X83893752Y-52410000D01*
X82070000Y-58225000D02*
X82070000Y-52910000D01*
X82207500Y-58362500D02*
X82070000Y-58225000D01*
X82070000Y-52910000D02*
X82570000Y-52410000D01*
X82207500Y-58437500D02*
X82207500Y-58362500D01*
%TO.N,LODRV*%
X82470000Y-57950000D02*
X82707500Y-58187500D01*
X82470000Y-53610000D02*
X82470000Y-57950000D01*
X84682500Y-53597500D02*
X82482500Y-53597500D01*
X82482500Y-53597500D02*
X82470000Y-53610000D01*
X84883752Y-53798752D02*
X84682500Y-53597500D01*
X84883752Y-54402500D02*
X84883752Y-53798752D01*
X82707500Y-58187500D02*
X82707500Y-59357500D01*
%TO.N,HIDRV*%
X79203752Y-52062500D02*
X79203752Y-51575000D01*
X79438752Y-52297500D02*
X79203752Y-52062500D01*
X81353752Y-52297500D02*
X79438752Y-52297500D01*
X81707500Y-58460748D02*
X81670000Y-58423248D01*
X81670000Y-58423248D02*
X81670000Y-52613748D01*
X81707500Y-59357500D02*
X81707500Y-58460748D01*
X81670000Y-52613748D02*
X81353752Y-52297500D01*
%TO.N,VFB*%
X90770000Y-61865000D02*
X90465000Y-62170000D01*
X90465000Y-62170000D02*
X89885000Y-62750000D01*
X89885000Y-62750000D02*
X89470000Y-62750000D01*
D50*
%TO.N,EP*%
X82400000Y-60545000D02*
X82207500Y-60545000D01*
D51*
%TO.N,CHG_IN+*%
X77370000Y-65685000D02*
X77470000Y-65585000D01*
X77370000Y-67025000D02*
X77370000Y-65685000D01*
%TO.N,CE*%
X77470000Y-63375000D02*
X77470000Y-64565000D01*
%TO.N,Net-(C3-Pad2)*%
X77060000Y-62885000D02*
X76212500Y-63732500D01*
X78270000Y-62885000D02*
X77060000Y-62885000D01*
X76212500Y-63732500D02*
X75860000Y-63732500D01*
%TO.N,STAT2*%
X81207500Y-64037500D02*
X81170000Y-64075000D01*
X81207500Y-63232500D02*
X81207500Y-64037500D01*
D50*
%TO.N,PWR_SW*%
X99070000Y-41375000D02*
X103070000Y-45375000D01*
X56970000Y-41375000D02*
X99070000Y-41375000D01*
X53170000Y-45175000D02*
X56970000Y-41375000D01*
X103070000Y-45375000D02*
X103070000Y-56560000D01*
X53170000Y-50775000D02*
X53170000Y-45175000D01*
X50970000Y-52975000D02*
X53170000Y-50775000D01*
X50070000Y-52975000D02*
X50970000Y-52975000D01*
%TO.N,2P*%
X47270000Y-56975000D02*
X50070000Y-56975000D01*
X46770000Y-56475000D02*
X47270000Y-56975000D01*
X46770000Y-43975000D02*
X46770000Y-56475000D01*
X51370000Y-39375000D02*
X46770000Y-43975000D01*
X100670000Y-39375000D02*
X51370000Y-39375000D01*
X110470000Y-49175000D02*
X100670000Y-39375000D01*
X111570000Y-49175000D02*
X110470000Y-49175000D01*
%TO.N,PWR_SW_GND*%
X112170000Y-53575000D02*
X111570000Y-53575000D01*
X112970000Y-50475000D02*
X112970000Y-52775000D01*
X112670000Y-50175000D02*
X112970000Y-50475000D01*
X109770000Y-50175000D02*
X112670000Y-50175000D01*
X100070000Y-40475000D02*
X109770000Y-50175000D01*
X54770000Y-40475000D02*
X100070000Y-40475000D01*
X50070000Y-45175000D02*
X54770000Y-40475000D01*
X112970000Y-52775000D02*
X112170000Y-53575000D01*
X50070000Y-48975000D02*
X50070000Y-45175000D01*
%TO.N,Net-(D1-Pad2)*%
X37770000Y-74165000D02*
X37770000Y-71975000D01*
%TO.N,CHG_IN+*%
X38780000Y-80265000D02*
X38780000Y-79375000D01*
X38780000Y-82885000D02*
X38780000Y-80265000D01*
%TO.N,Net-(D2-Pad2)*%
X37770000Y-79365000D02*
X37770000Y-76975000D01*
X37760000Y-79375000D02*
X37770000Y-79365000D01*
%TO.N,CHG_IN+*%
X69370000Y-87075000D02*
X42970000Y-87075000D01*
X72070000Y-84375000D02*
X69370000Y-87075000D01*
X42970000Y-87075000D02*
X38780000Y-82885000D01*
X72070000Y-76975000D02*
X72070000Y-84375000D01*
X113570000Y-76975000D02*
X72070000Y-76975000D01*
X117220000Y-73325000D02*
X113570000Y-76975000D01*
X117220000Y-61275000D02*
X117220000Y-73325000D01*
%TO.N,EP*%
X114370000Y-59575000D02*
X111570000Y-56775000D01*
X117170000Y-59575000D02*
X114370000Y-59575000D01*
%TO.N,Net-(D3-Pad1)*%
X118570000Y-56775000D02*
X118570000Y-61225000D01*
X118570000Y-61225000D02*
X118520000Y-61275000D01*
%TO.N,2P*%
X113070000Y-49175000D02*
X111570000Y-49175000D01*
X113670000Y-49775000D02*
X113070000Y-49175000D01*
X113670000Y-54075000D02*
X113670000Y-49775000D01*
X112870000Y-54875000D02*
X113670000Y-54075000D01*
X111070000Y-54875000D02*
X112870000Y-54875000D01*
X108670000Y-57275000D02*
X111070000Y-54875000D01*
X108670000Y-60775000D02*
X108670000Y-57275000D01*
X106170000Y-63275000D02*
X108670000Y-60775000D01*
X102155000Y-63275000D02*
X106170000Y-63275000D01*
X100070000Y-61190000D02*
X102155000Y-63275000D01*
%TO.N,CHG*%
X101885000Y-58375000D02*
X104570000Y-58375000D01*
X100070000Y-56560000D02*
X101885000Y-58375000D01*
X104570000Y-58375000D02*
X111570000Y-51375000D01*
%TO.N,PWR_SW_GND*%
X103255000Y-61190000D02*
X110870000Y-53575000D01*
X110870000Y-53575000D02*
X111570000Y-53575000D01*
X103070000Y-61190000D02*
X103255000Y-61190000D01*
D51*
%TO.N,VREF*%
X82625000Y-65575000D02*
X86151252Y-65575000D01*
X87080000Y-64646252D02*
X87080000Y-61375000D01*
X82207500Y-65157500D02*
X82625000Y-65575000D01*
X86151252Y-65575000D02*
X87080000Y-64646252D01*
D52*
%TO.N,EP*%
X84980000Y-64575000D02*
X84980000Y-63985000D01*
X84970000Y-63385000D02*
X84970000Y-63975000D01*
X84270000Y-63875000D02*
X84870000Y-63875000D01*
D53*
X78190000Y-58455000D02*
X78190000Y-58175000D01*
X84835000Y-60545000D02*
X85007500Y-60372500D01*
X78070000Y-58575000D02*
X78190000Y-58455000D01*
D50*
X83395000Y-60545000D02*
X82400000Y-60545000D01*
D54*
X81985909Y-69575000D02*
X81185909Y-69575000D01*
D52*
X84980000Y-63985000D02*
X84970000Y-63975000D01*
D53*
X84200000Y-60545000D02*
X83395000Y-60545000D01*
X84200000Y-60545000D02*
X84835000Y-60545000D01*
D52*
X84870000Y-63875000D02*
X84970000Y-63975000D01*
D55*
%TO.N,Net-(C2-Pad1)*%
X77370000Y-68325000D02*
X78620000Y-69575000D01*
X78620000Y-69575000D02*
X79185909Y-69575000D01*
%TO.N,CHG_IN+*%
X77370000Y-67025000D02*
X75310000Y-67025000D01*
X75310000Y-67025000D02*
X74870000Y-67465000D01*
D51*
%TO.N,Net-(C3-Pad1)*%
X72635000Y-63732500D02*
X72435000Y-63932500D01*
X72567500Y-64975000D02*
X72510000Y-64917500D01*
X73880000Y-63732500D02*
X72635000Y-63732500D01*
X72510000Y-64917500D02*
X72510000Y-62532500D01*
%TO.N,Net-(C3-Pad2)*%
X76287500Y-63780000D02*
X76240000Y-63732500D01*
X72705000Y-66132500D02*
X71547500Y-64975000D01*
X73880000Y-65960000D02*
X74112500Y-66192500D01*
X76287500Y-66192500D02*
X76287500Y-63780000D01*
X76240000Y-63732500D02*
X75860000Y-63732500D01*
X71547500Y-64975000D02*
X71547500Y-63805000D01*
X74112500Y-66192500D02*
X76287500Y-66192500D01*
X71547500Y-63805000D02*
X71577500Y-63775000D01*
X73880000Y-65472500D02*
X73880000Y-65712500D01*
X73460000Y-66132500D02*
X72705000Y-66132500D01*
X73880000Y-65712500D02*
X73460000Y-66132500D01*
X73880000Y-65472500D02*
X73880000Y-65960000D01*
%TO.N,Net-(C4-Pad1)*%
X80607500Y-64532500D02*
X80207500Y-64132500D01*
X80207500Y-64132500D02*
X80207500Y-63232500D01*
X80607500Y-65182500D02*
X80607500Y-64532500D01*
%TO.N,PACK+*%
X83395000Y-63020000D02*
X83395000Y-62545000D01*
X91990000Y-56695000D02*
X91990000Y-57155000D01*
X89535000Y-61200000D02*
X89470000Y-61200000D01*
X91007500Y-56075000D02*
X91370000Y-56075000D01*
X91370000Y-56075000D02*
X91990000Y-56695000D01*
X90770000Y-59965000D02*
X89535000Y-61200000D01*
X91990000Y-57155000D02*
X91990000Y-57775000D01*
%TO.N,CE*%
X78995000Y-61545000D02*
X79520000Y-61545000D01*
%TO.N,ACP*%
X78260000Y-60545000D02*
X79520000Y-60545000D01*
X75826250Y-56518750D02*
X76413750Y-56518750D01*
X77070000Y-59295000D02*
X77270000Y-59495000D01*
X76413750Y-56518750D02*
X77070000Y-57175000D01*
X77070000Y-57175000D02*
X77070000Y-59295000D01*
X77270000Y-59495000D02*
X77270000Y-59555000D01*
X77270000Y-59555000D02*
X78260000Y-60545000D01*
%TO.N,VREF*%
X79707500Y-67387500D02*
X79707500Y-66706459D01*
X79707500Y-66706459D02*
X80481459Y-65932500D01*
X81432500Y-65932500D02*
X82207500Y-65157500D01*
X78982500Y-68112500D02*
X79707500Y-67387500D01*
X80481459Y-65932500D02*
X81432500Y-65932500D01*
X81707500Y-64657500D02*
X82207500Y-65157500D01*
X81707500Y-63232500D02*
X81707500Y-64657500D01*
%TO.N,ACN*%
X78740000Y-60045000D02*
X77370000Y-58675000D01*
X79520000Y-60045000D02*
X78740000Y-60045000D01*
X77370000Y-57275000D02*
X78126250Y-56518750D01*
X77370000Y-58675000D02*
X77370000Y-57275000D01*
X78751250Y-56836250D02*
X78751250Y-56518750D01*
X78126250Y-56518750D02*
X78751250Y-56518750D01*
D53*
%TO.N,CHG_VCC*%
X79270000Y-58975000D02*
X79150000Y-58855000D01*
X80207500Y-59357500D02*
X79652500Y-59357500D01*
X79150000Y-58855000D02*
X79150000Y-58175000D01*
X79652500Y-59357500D02*
X79270000Y-58975000D01*
D51*
%TO.N,/REGN*%
X84075000Y-60045000D02*
X84665000Y-59455000D01*
X84665000Y-59455000D02*
X85692500Y-59455000D01*
X85692500Y-59455000D02*
X86270000Y-60032500D01*
X83395000Y-60045000D02*
X84075000Y-60045000D01*
%TO.N,PH*%
X89200000Y-60625000D02*
X88620000Y-60625000D01*
X82207500Y-59357500D02*
X82207500Y-58437500D01*
X88620000Y-60625000D02*
X88270000Y-60975000D01*
X89750000Y-60075000D02*
X89200000Y-60625000D01*
%TO.N,/BTST*%
X87170000Y-60075000D02*
X87212500Y-60032500D01*
X88790000Y-60075000D02*
X87170000Y-60075000D01*
X87212500Y-60032500D02*
X87670000Y-60032500D01*
%TO.N,SRP*%
X92770000Y-57595000D02*
X92950000Y-57775000D01*
X92950000Y-57775000D02*
X93990000Y-57775000D01*
X83907500Y-62032500D02*
X83407500Y-62032500D01*
X92770000Y-57175000D02*
X92770000Y-57595000D01*
D54*
X93932500Y-52016500D02*
X93291000Y-51375000D01*
D51*
X84107500Y-62232500D02*
X83907500Y-62032500D01*
X93932500Y-56075000D02*
X93370000Y-56075000D01*
X92770000Y-56675000D02*
X92770000Y-57175000D01*
X84107500Y-63132500D02*
X84107500Y-62232500D01*
D54*
X93932500Y-56075000D02*
X93932500Y-52016500D01*
D51*
X93370000Y-56075000D02*
X92770000Y-56675000D01*
X83407500Y-62032500D02*
X83395000Y-62045000D01*
%TO.N,VFB*%
X83207500Y-63732500D02*
X82707500Y-63232500D01*
X90770000Y-60985000D02*
X90770000Y-61865000D01*
X83407500Y-63732500D02*
X83207500Y-63732500D01*
%TO.N,STAT1*%
X78956180Y-63536180D02*
X78956180Y-62825266D01*
X78956180Y-62825266D02*
X78857500Y-62726586D01*
X79035457Y-62045000D02*
X79520000Y-62045000D01*
X78857500Y-62726586D02*
X78857500Y-62222957D01*
X78857500Y-62222957D02*
X79035457Y-62045000D01*
X78982500Y-63562500D02*
X78956180Y-63536180D01*
%TO.N,TS*%
X78982500Y-66812500D02*
X78982500Y-65712500D01*
X78982500Y-65712500D02*
X79657500Y-65037500D01*
X79657500Y-62682500D02*
X79520000Y-62545000D01*
X79657500Y-65037500D02*
X79657500Y-62682500D01*
%TO.N,ACSET*%
X84980000Y-61375000D02*
X84970000Y-61385000D01*
X84970000Y-61385000D02*
X84630000Y-61045000D01*
X86060000Y-61375000D02*
X84980000Y-61375000D01*
X84630000Y-61045000D02*
X83395000Y-61045000D01*
%TO.N,ISET2*%
X83395000Y-61545000D02*
X84040000Y-61545000D01*
X84040000Y-61545000D02*
X84860000Y-62365000D01*
X84860000Y-62365000D02*
X84970000Y-62365000D01*
X84970000Y-62365000D02*
X85950000Y-62365000D01*
X85950000Y-62365000D02*
X86060000Y-62475000D01*
%TO.N,~{ACDRV}*%
X78270000Y-61598248D02*
X78270000Y-61865000D01*
X79520000Y-61045000D02*
X78823248Y-61045000D01*
X78823248Y-61045000D02*
X78270000Y-61598248D01*
%TO.N,ISET1*%
X83070000Y-64575000D02*
X83960000Y-64575000D01*
X82207500Y-63232500D02*
X82207500Y-63712500D01*
X86060000Y-63575000D02*
X86060000Y-64324117D01*
X84505000Y-65120000D02*
X83960000Y-64575000D01*
X86060000Y-64324117D02*
X85264117Y-65120000D01*
X85264117Y-65120000D02*
X84505000Y-65120000D01*
X82207500Y-63712500D02*
X83070000Y-64575000D01*
%TD*%
%TA.AperFunction,Conductor*%
%TO.N,Net-(C3-Pad1)*%
G36*
X75272171Y-63234921D02*
G01*
X75311953Y-63242834D01*
X75357374Y-63261648D01*
X75380582Y-63277155D01*
X75415345Y-63311918D01*
X75430852Y-63335126D01*
X75449666Y-63380547D01*
X75454579Y-63405247D01*
X75457000Y-63429828D01*
X75457000Y-64247248D01*
X75458207Y-64253316D01*
X75458814Y-64259479D01*
X75458500Y-64259510D01*
X75460000Y-64274740D01*
X75460000Y-64432500D01*
X75975095Y-64947595D01*
X76009121Y-65009907D01*
X76012000Y-65036690D01*
X76012000Y-65791000D01*
X75991998Y-65859121D01*
X75938342Y-65905614D01*
X75886000Y-65917000D01*
X74521273Y-65917000D01*
X74451271Y-65895765D01*
X74439418Y-65887845D01*
X74404655Y-65853082D01*
X74389148Y-65829874D01*
X74370334Y-65784453D01*
X74362421Y-65744671D01*
X74360000Y-65720090D01*
X74360000Y-65032500D01*
X74300730Y-64973230D01*
X74275446Y-64919775D01*
X74273788Y-64911440D01*
X74271367Y-64899269D01*
X74227052Y-64832948D01*
X74160731Y-64788633D01*
X74148562Y-64786212D01*
X74148556Y-64786210D01*
X74142542Y-64785014D01*
X74078031Y-64750531D01*
X73727356Y-64399856D01*
X73711690Y-64380769D01*
X73689147Y-64347030D01*
X73670334Y-64301611D01*
X73662421Y-64261827D01*
X73660000Y-64237247D01*
X73660000Y-63444910D01*
X73662421Y-63420329D01*
X73670334Y-63380547D01*
X73689148Y-63335126D01*
X73704655Y-63311918D01*
X73739418Y-63277155D01*
X73762626Y-63261648D01*
X73808047Y-63242834D01*
X73847829Y-63234921D01*
X73872410Y-63232500D01*
X75247590Y-63232500D01*
X75272171Y-63234921D01*
G37*
%TD.AperFunction*%
%TD*%
%TA.AperFunction,Conductor*%
%TO.N,ACP*%
G36*
X76412121Y-55595002D02*
G01*
X76458614Y-55648658D01*
X76470000Y-55701000D01*
X76470000Y-62649000D01*
X76449998Y-62717121D01*
X76396342Y-62763614D01*
X76344000Y-62775000D01*
X73396000Y-62775000D01*
X73327879Y-62754998D01*
X73281386Y-62701342D01*
X73270000Y-62649000D01*
X73270000Y-55701000D01*
X73290002Y-55632879D01*
X73343658Y-55586386D01*
X73396000Y-55575000D01*
X76344000Y-55575000D01*
X76412121Y-55595002D01*
G37*
%TD.AperFunction*%
%TD*%
%TA.AperFunction,Conductor*%
%TO.N,EP*%
G36*
X128050242Y-37877466D02*
G01*
X128055811Y-37877476D01*
X128069641Y-37880656D01*
X128083482Y-37877524D01*
X128097669Y-37877549D01*
X128097669Y-37877772D01*
X128105651Y-37877057D01*
X128403240Y-37890050D01*
X128456662Y-37892382D01*
X128467610Y-37893340D01*
X128845887Y-37943141D01*
X128856696Y-37945048D01*
X129229184Y-38027626D01*
X129239801Y-38030471D01*
X129603677Y-38145200D01*
X129613991Y-38148953D01*
X129966504Y-38294969D01*
X129976439Y-38299602D01*
X130314878Y-38475783D01*
X130324387Y-38481273D01*
X130646162Y-38686266D01*
X130655166Y-38692570D01*
X130957864Y-38924838D01*
X130966281Y-38931902D01*
X131243122Y-39185579D01*
X131247571Y-39189656D01*
X131255340Y-39197425D01*
X131420004Y-39377124D01*
X131513096Y-39478716D01*
X131520162Y-39487136D01*
X131752430Y-39789834D01*
X131758734Y-39798838D01*
X131963727Y-40120613D01*
X131969217Y-40130122D01*
X132145398Y-40468561D01*
X132150031Y-40478496D01*
X132296044Y-40831002D01*
X132299800Y-40841323D01*
X132403529Y-41170311D01*
X132414529Y-41205198D01*
X132417374Y-41215816D01*
X132499951Y-41588296D01*
X132501859Y-41599113D01*
X132514549Y-41695502D01*
X132551660Y-41977389D01*
X132552618Y-41988339D01*
X132567919Y-42338780D01*
X132567201Y-42346624D01*
X132567549Y-42346625D01*
X132567524Y-42360811D01*
X132564344Y-42374641D01*
X132567475Y-42388480D01*
X132567467Y-42393311D01*
X132569500Y-42411504D01*
X132569500Y-87537920D01*
X132567534Y-87555242D01*
X132567524Y-87560811D01*
X132564344Y-87574641D01*
X132567476Y-87588482D01*
X132567451Y-87602669D01*
X132567228Y-87602669D01*
X132567943Y-87610651D01*
X132552618Y-87961661D01*
X132551660Y-87972611D01*
X132501860Y-88350879D01*
X132499951Y-88361704D01*
X132417374Y-88734184D01*
X132414529Y-88744801D01*
X132307224Y-89085134D01*
X132299803Y-89108669D01*
X132296047Y-89118991D01*
X132168139Y-89427789D01*
X132150035Y-89471495D01*
X132145398Y-89481439D01*
X131969217Y-89819878D01*
X131963727Y-89829387D01*
X131758734Y-90151162D01*
X131752430Y-90160166D01*
X131520162Y-90462864D01*
X131513098Y-90471281D01*
X131277876Y-90727982D01*
X131255344Y-90752571D01*
X131247575Y-90760340D01*
X131219985Y-90785622D01*
X130966284Y-91018096D01*
X130957864Y-91025162D01*
X130655166Y-91257430D01*
X130646162Y-91263734D01*
X130324387Y-91468727D01*
X130314878Y-91474217D01*
X129976439Y-91650398D01*
X129966504Y-91655031D01*
X129613991Y-91801047D01*
X129603677Y-91804800D01*
X129239802Y-91919529D01*
X129229185Y-91922374D01*
X128856696Y-92004952D01*
X128845887Y-92006859D01*
X128467611Y-92056660D01*
X128456662Y-92057618D01*
X128106217Y-92072919D01*
X128098376Y-92072201D01*
X128098375Y-92072549D01*
X128084189Y-92072524D01*
X128070359Y-92069344D01*
X128056520Y-92072475D01*
X128051689Y-92072467D01*
X128033496Y-92074500D01*
X32107080Y-92074500D01*
X32089758Y-92072534D01*
X32084189Y-92072524D01*
X32070359Y-92069344D01*
X32056518Y-92072476D01*
X32042331Y-92072451D01*
X32042331Y-92072228D01*
X32034349Y-92072943D01*
X31736760Y-92059950D01*
X31683338Y-92057618D01*
X31672389Y-92056660D01*
X31294113Y-92006859D01*
X31283304Y-92004952D01*
X30910815Y-91922374D01*
X30900198Y-91919529D01*
X30536323Y-91804800D01*
X30526009Y-91801047D01*
X30173496Y-91655031D01*
X30163561Y-91650398D01*
X29825122Y-91474217D01*
X29815613Y-91468727D01*
X29493838Y-91263734D01*
X29484834Y-91257430D01*
X29182136Y-91025162D01*
X29173716Y-91018096D01*
X28920015Y-90785622D01*
X28892425Y-90760340D01*
X28884656Y-90752571D01*
X28862125Y-90727982D01*
X28626902Y-90471281D01*
X28619838Y-90462864D01*
X28387570Y-90160166D01*
X28381266Y-90151162D01*
X28176273Y-89829387D01*
X28170783Y-89819878D01*
X27994602Y-89481439D01*
X27989965Y-89471495D01*
X27971862Y-89427789D01*
X27843953Y-89118991D01*
X27840197Y-89108669D01*
X27832777Y-89085134D01*
X27725471Y-88744801D01*
X27722626Y-88734184D01*
X27640049Y-88361704D01*
X27638140Y-88350879D01*
X27588340Y-87972611D01*
X27587382Y-87961661D01*
X27572094Y-87611508D01*
X27574090Y-87589863D01*
X27573226Y-87589764D01*
X27574042Y-87582678D01*
X27575655Y-87575718D01*
X27575656Y-87575000D01*
X28364422Y-87575000D01*
X28384722Y-87962338D01*
X28445398Y-88345433D01*
X28545786Y-88720087D01*
X28684786Y-89082194D01*
X28860875Y-89427789D01*
X29072124Y-89753084D01*
X29316219Y-90054516D01*
X29590484Y-90328781D01*
X29891916Y-90572876D01*
X30217211Y-90784125D01*
X30562806Y-90960214D01*
X30924913Y-91099214D01*
X31299567Y-91199602D01*
X31503201Y-91231854D01*
X31679414Y-91259764D01*
X31679422Y-91259765D01*
X31682662Y-91260278D01*
X32070000Y-91280578D01*
X32457338Y-91260278D01*
X32460578Y-91259765D01*
X32460586Y-91259764D01*
X32636799Y-91231854D01*
X32840433Y-91199602D01*
X33215087Y-91099214D01*
X33577194Y-90960214D01*
X33922789Y-90784125D01*
X34248084Y-90572876D01*
X34549516Y-90328781D01*
X34823781Y-90054516D01*
X35067876Y-89753084D01*
X35279125Y-89427789D01*
X35455214Y-89082194D01*
X35594214Y-88720087D01*
X35694602Y-88345433D01*
X35755278Y-87962338D01*
X35775578Y-87575000D01*
X124364422Y-87575000D01*
X124384722Y-87962338D01*
X124445398Y-88345433D01*
X124545786Y-88720087D01*
X124684786Y-89082194D01*
X124860875Y-89427789D01*
X125072124Y-89753084D01*
X125316219Y-90054516D01*
X125590484Y-90328781D01*
X125891916Y-90572876D01*
X126217211Y-90784125D01*
X126562806Y-90960214D01*
X126924913Y-91099214D01*
X127299567Y-91199602D01*
X127503201Y-91231854D01*
X127679414Y-91259764D01*
X127679422Y-91259765D01*
X127682662Y-91260278D01*
X128070000Y-91280578D01*
X128457338Y-91260278D01*
X128460578Y-91259765D01*
X128460586Y-91259764D01*
X128636799Y-91231854D01*
X128840433Y-91199602D01*
X129215087Y-91099214D01*
X129577194Y-90960214D01*
X129922789Y-90784125D01*
X130248084Y-90572876D01*
X130549516Y-90328781D01*
X130823781Y-90054516D01*
X131067876Y-89753084D01*
X131279125Y-89427789D01*
X131455214Y-89082194D01*
X131594214Y-88720087D01*
X131694602Y-88345433D01*
X131755278Y-87962338D01*
X131775578Y-87575000D01*
X131755278Y-87187662D01*
X131694602Y-86804567D01*
X131594214Y-86429913D01*
X131569585Y-86365751D01*
X131530980Y-86265182D01*
X131455214Y-86067806D01*
X131279125Y-85722211D01*
X131067876Y-85396916D01*
X130823781Y-85095484D01*
X130549516Y-84821219D01*
X130248084Y-84577124D01*
X129922789Y-84365875D01*
X129577194Y-84189786D01*
X129215087Y-84050786D01*
X128840433Y-83950398D01*
X128636799Y-83918146D01*
X128460586Y-83890236D01*
X128460578Y-83890235D01*
X128457338Y-83889722D01*
X128070000Y-83869422D01*
X127682662Y-83889722D01*
X127679422Y-83890235D01*
X127679414Y-83890236D01*
X127503201Y-83918146D01*
X127299567Y-83950398D01*
X126924913Y-84050786D01*
X126562806Y-84189786D01*
X126217211Y-84365875D01*
X125891916Y-84577124D01*
X125590484Y-84821219D01*
X125316219Y-85095484D01*
X125072124Y-85396916D01*
X124860875Y-85722211D01*
X124684786Y-86067806D01*
X124609020Y-86265182D01*
X124570416Y-86365751D01*
X124545786Y-86429913D01*
X124445398Y-86804567D01*
X124384722Y-87187662D01*
X124364422Y-87575000D01*
X35775578Y-87575000D01*
X35755278Y-87187662D01*
X35694602Y-86804567D01*
X35594214Y-86429913D01*
X35569585Y-86365751D01*
X35530980Y-86265182D01*
X35455214Y-86067806D01*
X35279125Y-85722211D01*
X35067876Y-85396916D01*
X34823781Y-85095484D01*
X34549516Y-84821219D01*
X34248084Y-84577124D01*
X33922789Y-84365875D01*
X33577194Y-84189786D01*
X33215087Y-84050786D01*
X32840433Y-83950398D01*
X32636799Y-83918146D01*
X32460586Y-83890236D01*
X32460578Y-83890235D01*
X32457338Y-83889722D01*
X32070000Y-83869422D01*
X31682662Y-83889722D01*
X31679422Y-83890235D01*
X31679414Y-83890236D01*
X31503201Y-83918146D01*
X31299567Y-83950398D01*
X30924913Y-84050786D01*
X30562806Y-84189786D01*
X30217211Y-84365875D01*
X29891916Y-84577124D01*
X29590484Y-84821219D01*
X29316219Y-85095484D01*
X29072124Y-85396916D01*
X28860875Y-85722211D01*
X28684786Y-86067806D01*
X28609020Y-86265182D01*
X28570416Y-86365751D01*
X28545786Y-86429913D01*
X28445398Y-86804567D01*
X28384722Y-87187662D01*
X28364422Y-87575000D01*
X27575656Y-87575000D01*
X27573654Y-87566225D01*
X27570500Y-87538210D01*
X27570500Y-76310066D01*
X35364660Y-76310066D01*
X35366229Y-76321595D01*
X35366229Y-76321596D01*
X35368349Y-76337173D01*
X35369500Y-76354164D01*
X35369500Y-80122634D01*
X35369304Y-80125307D01*
X35367575Y-80130342D01*
X35368011Y-80141964D01*
X35368011Y-80141966D01*
X35369411Y-80179255D01*
X35369500Y-80183981D01*
X35369500Y-80202948D01*
X35370382Y-80207683D01*
X35370610Y-80211209D01*
X35371774Y-80242208D01*
X35376364Y-80252893D01*
X35377401Y-80257493D01*
X35380962Y-80269214D01*
X35382661Y-80273617D01*
X35384791Y-80285053D01*
X35390895Y-80294955D01*
X35397727Y-80306039D01*
X35406231Y-80322411D01*
X35412451Y-80336888D01*
X35412453Y-80336892D01*
X35415964Y-80345063D01*
X35419978Y-80349949D01*
X35422148Y-80352119D01*
X35424218Y-80354402D01*
X35424058Y-80354547D01*
X35431170Y-80363544D01*
X35437426Y-80370444D01*
X35443532Y-80380348D01*
X35452794Y-80387391D01*
X35465310Y-80396908D01*
X35478139Y-80408110D01*
X35510481Y-80440452D01*
X35512238Y-80442488D01*
X35514575Y-80447269D01*
X35523103Y-80455180D01*
X35550478Y-80480574D01*
X35553882Y-80483854D01*
X35567276Y-80497248D01*
X35571255Y-80499978D01*
X35573884Y-80502286D01*
X35596646Y-80523401D01*
X35607453Y-80527712D01*
X35611448Y-80530238D01*
X35622242Y-80536001D01*
X35626554Y-80537912D01*
X35636146Y-80544492D01*
X35647463Y-80547178D01*
X35647464Y-80547178D01*
X35660127Y-80550183D01*
X35677724Y-80555748D01*
X35692362Y-80561588D01*
X35692365Y-80561589D01*
X35700622Y-80564883D01*
X35706915Y-80565500D01*
X35709994Y-80565500D01*
X35713067Y-80565650D01*
X35713056Y-80565866D01*
X35724431Y-80567198D01*
X35733746Y-80567654D01*
X35745066Y-80570340D01*
X35756595Y-80568771D01*
X35756596Y-80568771D01*
X35772173Y-80566651D01*
X35789164Y-80565500D01*
X38353500Y-80565500D01*
X38421621Y-80585502D01*
X38468114Y-80639158D01*
X38479500Y-80691500D01*
X38479500Y-82832634D01*
X38479304Y-82835307D01*
X38477575Y-82840342D01*
X38478011Y-82851964D01*
X38478011Y-82851966D01*
X38479411Y-82889255D01*
X38479500Y-82893981D01*
X38479500Y-82912948D01*
X38480382Y-82917683D01*
X38480610Y-82921209D01*
X38481774Y-82952208D01*
X38486364Y-82962893D01*
X38487401Y-82967493D01*
X38490962Y-82979214D01*
X38492661Y-82983617D01*
X38494791Y-82995053D01*
X38500895Y-83004955D01*
X38507727Y-83016039D01*
X38516231Y-83032411D01*
X38522451Y-83046888D01*
X38522453Y-83046892D01*
X38525964Y-83055063D01*
X38529978Y-83059949D01*
X38532163Y-83062134D01*
X38534215Y-83064397D01*
X38534055Y-83064542D01*
X38541175Y-83073549D01*
X38547427Y-83080444D01*
X38553532Y-83090348D01*
X38575320Y-83106916D01*
X38588139Y-83118110D01*
X42720481Y-87250452D01*
X42722237Y-87252486D01*
X42724575Y-87257269D01*
X42733104Y-87265181D01*
X42733105Y-87265182D01*
X42760477Y-87290573D01*
X42763882Y-87293853D01*
X42777277Y-87307248D01*
X42781247Y-87309972D01*
X42783895Y-87312297D01*
X42791428Y-87319285D01*
X42806646Y-87333401D01*
X42817453Y-87337713D01*
X42821438Y-87340232D01*
X42832247Y-87346004D01*
X42836552Y-87347911D01*
X42846146Y-87354493D01*
X42870099Y-87360177D01*
X42870136Y-87360186D01*
X42887732Y-87365751D01*
X42910622Y-87374883D01*
X42916915Y-87375500D01*
X42919997Y-87375500D01*
X42923067Y-87375650D01*
X42923056Y-87375866D01*
X42934431Y-87377198D01*
X42943745Y-87377653D01*
X42955066Y-87380340D01*
X42966595Y-87378771D01*
X42966596Y-87378771D01*
X42982173Y-87376651D01*
X42999164Y-87375500D01*
X69317634Y-87375500D01*
X69320307Y-87375696D01*
X69325342Y-87377425D01*
X69336964Y-87376989D01*
X69336966Y-87376989D01*
X69374255Y-87375589D01*
X69378981Y-87375500D01*
X69397948Y-87375500D01*
X69402683Y-87374618D01*
X69406209Y-87374390D01*
X69409949Y-87374249D01*
X69437208Y-87373226D01*
X69447893Y-87368636D01*
X69452493Y-87367599D01*
X69464214Y-87364038D01*
X69468617Y-87362339D01*
X69480053Y-87360209D01*
X69501041Y-87347272D01*
X69517411Y-87338769D01*
X69531888Y-87332549D01*
X69531892Y-87332547D01*
X69540063Y-87329036D01*
X69544949Y-87325022D01*
X69547134Y-87322837D01*
X69549397Y-87320785D01*
X69549542Y-87320945D01*
X69558549Y-87313825D01*
X69565444Y-87307573D01*
X69575348Y-87301468D01*
X69591916Y-87279680D01*
X69603110Y-87266861D01*
X72245452Y-84624519D01*
X72247486Y-84622763D01*
X72252269Y-84620425D01*
X72285573Y-84584523D01*
X72288853Y-84581118D01*
X72302248Y-84567723D01*
X72304972Y-84563753D01*
X72307297Y-84561105D01*
X72320490Y-84546882D01*
X72328401Y-84538354D01*
X72332713Y-84527547D01*
X72335232Y-84523562D01*
X72341004Y-84512753D01*
X72342911Y-84508448D01*
X72349493Y-84498854D01*
X72355186Y-84474864D01*
X72360751Y-84457268D01*
X72366586Y-84442642D01*
X72369883Y-84434378D01*
X72370500Y-84428085D01*
X72370500Y-84425003D01*
X72370650Y-84421933D01*
X72370866Y-84421944D01*
X72372198Y-84410569D01*
X72372653Y-84401255D01*
X72375340Y-84389934D01*
X72371651Y-84362827D01*
X72370500Y-84345836D01*
X72370500Y-79106500D01*
X72390502Y-79038379D01*
X72444158Y-78991886D01*
X72496500Y-78980500D01*
X75561742Y-78980500D01*
X75562709Y-78980468D01*
X75562730Y-78980468D01*
X75574185Y-78980093D01*
X75574204Y-78980092D01*
X75575183Y-78980060D01*
X75586200Y-78979338D01*
X75590610Y-78979049D01*
X75590623Y-78979048D01*
X75591629Y-78978982D01*
X75592626Y-78978884D01*
X75592648Y-78978882D01*
X75603978Y-78977766D01*
X75603993Y-78977764D01*
X75605011Y-78977664D01*
X75709786Y-78963870D01*
X75711802Y-78963469D01*
X75711814Y-78963467D01*
X75734130Y-78959028D01*
X75734141Y-78959025D01*
X75736149Y-78958626D01*
X75738127Y-78958096D01*
X75738140Y-78958093D01*
X75753188Y-78954061D01*
X75767921Y-78950113D01*
X75793377Y-78941472D01*
X75795286Y-78940681D01*
X75795292Y-78940679D01*
X75881426Y-78905001D01*
X75881429Y-78904999D01*
X75883316Y-78904218D01*
X75907427Y-78892328D01*
X75935913Y-78875881D01*
X75952188Y-78865006D01*
X75956536Y-78862101D01*
X75956543Y-78862096D01*
X75958261Y-78860948D01*
X75959915Y-78859679D01*
X76033853Y-78802945D01*
X76033868Y-78802932D01*
X76035494Y-78801685D01*
X76055703Y-78783961D01*
X76078961Y-78760703D01*
X76096685Y-78740494D01*
X76097932Y-78738868D01*
X76097945Y-78738853D01*
X76154679Y-78664915D01*
X76154681Y-78664912D01*
X76155948Y-78663261D01*
X76170881Y-78640913D01*
X76187328Y-78612427D01*
X76199218Y-78588316D01*
X76214468Y-78551500D01*
X76235679Y-78500292D01*
X76235681Y-78500286D01*
X76236472Y-78498377D01*
X76245113Y-78472921D01*
X76252460Y-78445502D01*
X76253093Y-78443140D01*
X76253096Y-78443127D01*
X76253626Y-78441149D01*
X76258870Y-78414786D01*
X76272664Y-78310011D01*
X76273982Y-78296629D01*
X76275060Y-78280183D01*
X76275093Y-78279185D01*
X76275468Y-78267730D01*
X76275468Y-78267709D01*
X76275500Y-78266742D01*
X76275500Y-77401500D01*
X76295502Y-77333379D01*
X76349158Y-77286886D01*
X76401500Y-77275500D01*
X113517634Y-77275500D01*
X113520307Y-77275696D01*
X113525342Y-77277425D01*
X113536964Y-77276989D01*
X113536966Y-77276989D01*
X113574255Y-77275589D01*
X113578981Y-77275500D01*
X113597948Y-77275500D01*
X113602683Y-77274618D01*
X113606209Y-77274390D01*
X113609949Y-77274249D01*
X113637208Y-77273226D01*
X113647893Y-77268636D01*
X113652493Y-77267599D01*
X113664214Y-77264038D01*
X113668617Y-77262339D01*
X113680053Y-77260209D01*
X113701041Y-77247272D01*
X113717411Y-77238769D01*
X113731888Y-77232549D01*
X113731892Y-77232547D01*
X113740063Y-77229036D01*
X113744949Y-77225022D01*
X113747134Y-77222837D01*
X113749397Y-77220785D01*
X113749542Y-77220945D01*
X113758549Y-77213825D01*
X113765444Y-77207573D01*
X113775348Y-77201468D01*
X113791916Y-77179680D01*
X113803110Y-77166861D01*
X117395452Y-73574519D01*
X117397486Y-73572763D01*
X117402269Y-73570425D01*
X117435573Y-73534523D01*
X117438853Y-73531118D01*
X117452248Y-73517723D01*
X117454972Y-73513753D01*
X117457297Y-73511105D01*
X117470490Y-73496882D01*
X117478401Y-73488354D01*
X117482713Y-73477547D01*
X117485232Y-73473562D01*
X117491004Y-73462753D01*
X117492911Y-73458448D01*
X117499493Y-73448854D01*
X117505186Y-73424864D01*
X117510751Y-73407268D01*
X117516586Y-73392642D01*
X117519883Y-73384378D01*
X117520500Y-73378085D01*
X117520500Y-73375003D01*
X117520650Y-73371933D01*
X117520866Y-73371944D01*
X117522198Y-73360569D01*
X117522653Y-73351255D01*
X117525340Y-73339934D01*
X117521651Y-73312827D01*
X117520500Y-73295836D01*
X117520500Y-61966930D01*
X117540502Y-61898809D01*
X117570888Y-61866862D01*
X117576855Y-61863932D01*
X117635930Y-61804754D01*
X117651935Y-61788721D01*
X117651935Y-61788720D01*
X117659293Y-61781350D01*
X117668166Y-61763199D01*
X117700708Y-61696624D01*
X117710536Y-61676518D01*
X117720500Y-61608218D01*
X117720500Y-60941782D01*
X117718800Y-60930230D01*
X117711784Y-60882574D01*
X117711784Y-60882573D01*
X117710358Y-60872888D01*
X117676145Y-60803204D01*
X117663522Y-60777493D01*
X117663521Y-60777491D01*
X117658932Y-60768145D01*
X117600803Y-60710117D01*
X117583721Y-60693065D01*
X117583720Y-60693065D01*
X117576350Y-60685707D01*
X117471518Y-60634464D01*
X117441027Y-60630016D01*
X117407744Y-60625160D01*
X117407740Y-60625160D01*
X117403218Y-60624500D01*
X117036782Y-60624500D01*
X117032232Y-60625170D01*
X117032229Y-60625170D01*
X116977574Y-60633216D01*
X116977573Y-60633216D01*
X116967888Y-60634642D01*
X116917992Y-60659140D01*
X116872493Y-60681478D01*
X116872491Y-60681479D01*
X116863145Y-60686068D01*
X116780707Y-60768650D01*
X116776134Y-60778006D01*
X116776133Y-60778007D01*
X116768859Y-60792888D01*
X116729464Y-60873482D01*
X116728052Y-60883162D01*
X116720417Y-60935499D01*
X116719500Y-60941782D01*
X116719500Y-61608218D01*
X116720170Y-61612768D01*
X116720170Y-61612771D01*
X116728216Y-61667426D01*
X116729642Y-61677112D01*
X116750912Y-61720434D01*
X116771545Y-61762458D01*
X116781068Y-61781855D01*
X116863650Y-61864293D01*
X116868481Y-61866654D01*
X116910511Y-61920186D01*
X116919500Y-61966924D01*
X116919500Y-73148339D01*
X116899498Y-73216460D01*
X116882595Y-73237434D01*
X113482434Y-76637595D01*
X113420122Y-76671621D01*
X113393339Y-76674500D01*
X76401500Y-76674500D01*
X76333379Y-76654498D01*
X76286886Y-76600842D01*
X76275500Y-76548500D01*
X76275500Y-67601500D01*
X76295502Y-67533379D01*
X76349158Y-67486886D01*
X76401500Y-67475500D01*
X76857430Y-67475500D01*
X76912763Y-67488300D01*
X76968482Y-67515536D01*
X76998973Y-67519984D01*
X77032256Y-67524840D01*
X77032260Y-67524840D01*
X77036782Y-67525500D01*
X77703218Y-67525500D01*
X77707768Y-67524830D01*
X77707771Y-67524830D01*
X77762426Y-67516784D01*
X77762427Y-67516784D01*
X77772112Y-67515358D01*
X77833197Y-67485367D01*
X77867507Y-67468522D01*
X77867509Y-67468521D01*
X77876855Y-67463932D01*
X77959293Y-67381350D01*
X78010536Y-67276518D01*
X78020500Y-67208218D01*
X78020500Y-66841782D01*
X78010358Y-66772888D01*
X77984681Y-66720590D01*
X77963522Y-66677493D01*
X77963521Y-66677491D01*
X77958932Y-66668145D01*
X77876350Y-66585707D01*
X77771518Y-66534464D01*
X77753312Y-66531808D01*
X77688792Y-66502183D01*
X77650531Y-66442378D01*
X77645500Y-66407128D01*
X77645500Y-66170527D01*
X77665502Y-66102406D01*
X77719158Y-66055913D01*
X77734493Y-66050211D01*
X77743173Y-66049068D01*
X77751907Y-66044995D01*
X77751911Y-66044994D01*
X77840411Y-66003725D01*
X77840412Y-66003725D01*
X77850404Y-65999065D01*
X77934065Y-65915404D01*
X77955277Y-65869915D01*
X77979994Y-65816910D01*
X77979994Y-65816909D01*
X77984068Y-65808173D01*
X77990500Y-65759316D01*
X77990500Y-65410684D01*
X77984068Y-65361827D01*
X77979773Y-65352615D01*
X77938725Y-65264589D01*
X77938725Y-65264588D01*
X77934065Y-65254596D01*
X77850404Y-65170935D01*
X77851092Y-65170247D01*
X77813131Y-65122753D01*
X77805823Y-65052133D01*
X77837856Y-64988774D01*
X77847496Y-64980421D01*
X77850404Y-64979065D01*
X77934065Y-64895404D01*
X77945215Y-64871493D01*
X77979994Y-64796910D01*
X77979994Y-64796909D01*
X77984068Y-64788173D01*
X77990500Y-64739316D01*
X77990500Y-64390684D01*
X77984068Y-64341827D01*
X77966173Y-64303450D01*
X77938725Y-64244589D01*
X77938725Y-64244588D01*
X77934065Y-64234596D01*
X77850404Y-64150935D01*
X77840411Y-64146275D01*
X77840408Y-64146273D01*
X77818249Y-64135940D01*
X77764964Y-64089023D01*
X77745500Y-64021746D01*
X77745500Y-63753438D01*
X77765502Y-63685317D01*
X77782405Y-63664343D01*
X77818528Y-63628220D01*
X77879719Y-63508126D01*
X77887587Y-63458447D01*
X77917999Y-63394294D01*
X77978266Y-63356767D01*
X78028481Y-63353235D01*
X78045684Y-63355500D01*
X78436954Y-63355500D01*
X78505075Y-63375502D01*
X78551568Y-63429158D01*
X78561403Y-63501210D01*
X78553247Y-63552706D01*
X78551696Y-63562500D01*
X78553247Y-63572293D01*
X78554522Y-63580340D01*
X78572781Y-63695626D01*
X78633972Y-63815720D01*
X78729280Y-63911028D01*
X78849374Y-63972219D01*
X78859163Y-63973769D01*
X78859165Y-63973770D01*
X78972707Y-63991753D01*
X78982500Y-63993304D01*
X78992293Y-63991753D01*
X79105835Y-63973770D01*
X79105837Y-63973769D01*
X79115626Y-63972219D01*
X79198798Y-63929841D01*
X79268574Y-63916737D01*
X79334358Y-63943437D01*
X79375265Y-64001464D01*
X79382000Y-64042108D01*
X79382000Y-64871194D01*
X79361998Y-64939315D01*
X79345095Y-64960289D01*
X79240289Y-65065095D01*
X79177977Y-65099121D01*
X79151194Y-65102000D01*
X78758184Y-65102000D01*
X78709327Y-65108432D01*
X78700591Y-65112506D01*
X78700590Y-65112506D01*
X78617727Y-65151146D01*
X78602096Y-65158435D01*
X78518435Y-65242096D01*
X78513775Y-65252088D01*
X78513775Y-65252089D01*
X78493472Y-65295630D01*
X78468432Y-65349327D01*
X78462000Y-65398184D01*
X78462000Y-65746816D01*
X78468432Y-65795673D01*
X78472506Y-65804409D01*
X78472506Y-65804410D01*
X78474261Y-65808173D01*
X78518435Y-65902904D01*
X78602096Y-65986565D01*
X78612089Y-65991225D01*
X78612092Y-65991227D01*
X78634251Y-66001560D01*
X78687536Y-66048477D01*
X78707000Y-66115754D01*
X78707000Y-66409246D01*
X78686998Y-66477367D01*
X78634251Y-66523440D01*
X78612092Y-66533773D01*
X78612089Y-66533775D01*
X78602096Y-66538435D01*
X78518435Y-66622096D01*
X78468432Y-66729327D01*
X78462000Y-66778184D01*
X78462000Y-67126816D01*
X78468432Y-67175673D01*
X78472506Y-67184409D01*
X78472506Y-67184410D01*
X78510943Y-67266838D01*
X78518435Y-67282904D01*
X78602096Y-67366565D01*
X78601408Y-67367253D01*
X78639369Y-67414747D01*
X78646677Y-67485367D01*
X78614644Y-67548726D01*
X78605004Y-67557079D01*
X78602096Y-67558435D01*
X78518435Y-67642096D01*
X78468432Y-67749327D01*
X78462000Y-67798184D01*
X78462000Y-68146816D01*
X78468432Y-68195673D01*
X78518435Y-68302904D01*
X78602096Y-68386565D01*
X78612089Y-68391225D01*
X78621119Y-68397548D01*
X78618856Y-68400780D01*
X78656696Y-68434112D01*
X78676143Y-68502393D01*
X78655587Y-68570349D01*
X78639242Y-68590462D01*
X78561005Y-68668699D01*
X78558469Y-68673677D01*
X78504147Y-68715562D01*
X78433410Y-68721634D01*
X78369343Y-68687240D01*
X78057405Y-68375302D01*
X78023379Y-68312990D01*
X78020500Y-68286207D01*
X78020500Y-68141782D01*
X78011871Y-68083162D01*
X78011784Y-68082574D01*
X78011784Y-68082573D01*
X78010358Y-68072888D01*
X77958932Y-67968145D01*
X77876350Y-67885707D01*
X77771518Y-67834464D01*
X77741027Y-67830016D01*
X77707744Y-67825160D01*
X77707740Y-67825160D01*
X77703218Y-67824500D01*
X77036782Y-67824500D01*
X77032232Y-67825170D01*
X77032229Y-67825170D01*
X76977574Y-67833216D01*
X76977573Y-67833216D01*
X76967888Y-67834642D01*
X76917992Y-67859140D01*
X76872493Y-67881478D01*
X76872491Y-67881479D01*
X76863145Y-67886068D01*
X76780707Y-67968650D01*
X76729464Y-68073482D01*
X76719500Y-68141782D01*
X76719500Y-68508218D01*
X76729642Y-68577112D01*
X76754140Y-68627008D01*
X76776333Y-68672210D01*
X76781068Y-68681855D01*
X76863650Y-68764293D01*
X76968482Y-68815536D01*
X76998973Y-68819984D01*
X77032256Y-68824840D01*
X77032260Y-68824840D01*
X77036782Y-68825500D01*
X77181207Y-68825500D01*
X77249328Y-68845502D01*
X77270302Y-68862405D01*
X78277247Y-69869350D01*
X78287101Y-69880439D01*
X78302294Y-69899710D01*
X78308128Y-69907110D01*
X78315876Y-69912465D01*
X78315878Y-69912467D01*
X78356400Y-69940474D01*
X78359619Y-69942774D01*
X78406817Y-69977634D01*
X78413631Y-69980027D01*
X78419569Y-69984131D01*
X78420786Y-69984516D01*
X78469220Y-70031734D01*
X78485410Y-70093521D01*
X78485410Y-70265496D01*
X78500908Y-70363354D01*
X78561005Y-70481301D01*
X78654608Y-70574904D01*
X78772555Y-70635001D01*
X78782344Y-70636551D01*
X78782346Y-70636552D01*
X78810789Y-70641057D01*
X78870412Y-70650500D01*
X79185845Y-70650500D01*
X79501405Y-70650499D01*
X79526182Y-70646575D01*
X79589465Y-70636553D01*
X79589467Y-70636552D01*
X79599263Y-70635001D01*
X79717210Y-70574904D01*
X79810813Y-70481301D01*
X79870910Y-70363354D01*
X79886409Y-70265497D01*
X79886408Y-68884504D01*
X79880231Y-68845502D01*
X79872462Y-68796444D01*
X79872461Y-68796442D01*
X79870910Y-68786646D01*
X79855772Y-68756935D01*
X79815313Y-68677531D01*
X79810813Y-68668699D01*
X79717210Y-68575096D01*
X79599263Y-68514999D01*
X79589472Y-68513448D01*
X79589471Y-68513448D01*
X79525180Y-68503265D01*
X79461027Y-68472852D01*
X79423500Y-68412584D01*
X79424514Y-68341594D01*
X79440484Y-68308985D01*
X79446565Y-68302904D01*
X79496568Y-68195673D01*
X79503000Y-68146816D01*
X79503000Y-68033806D01*
X79523002Y-67965685D01*
X79539905Y-67944711D01*
X79874344Y-67610272D01*
X79893436Y-67594602D01*
X79895811Y-67593015D01*
X79906124Y-67586124D01*
X79924626Y-67558435D01*
X79946632Y-67525500D01*
X79967015Y-67494995D01*
X79983000Y-67414633D01*
X79983000Y-67414632D01*
X79988397Y-67387500D01*
X79985421Y-67372539D01*
X79983000Y-67347957D01*
X79983000Y-66872765D01*
X80003002Y-66804644D01*
X80019905Y-66783670D01*
X80558670Y-66244905D01*
X80620982Y-66210879D01*
X80647765Y-66208000D01*
X81392957Y-66208000D01*
X81417539Y-66210421D01*
X81432500Y-66213397D01*
X81459632Y-66208000D01*
X81459633Y-66208000D01*
X81539995Y-66192015D01*
X81593346Y-66156367D01*
X81608122Y-66146494D01*
X81608123Y-66146493D01*
X81631124Y-66131124D01*
X81639604Y-66118434D01*
X81655271Y-66099345D01*
X82009711Y-65744905D01*
X82072023Y-65710879D01*
X82098806Y-65708000D01*
X82315178Y-65708000D01*
X82383299Y-65728002D01*
X82410508Y-65754730D01*
X82410706Y-65754532D01*
X82419485Y-65763311D01*
X82426376Y-65773624D01*
X82449377Y-65788993D01*
X82449378Y-65788994D01*
X82459374Y-65795673D01*
X82517505Y-65834515D01*
X82597867Y-65850500D01*
X82612828Y-65853476D01*
X82612829Y-65853476D01*
X82625000Y-65855897D01*
X82639961Y-65852921D01*
X82664543Y-65850500D01*
X86111709Y-65850500D01*
X86136291Y-65852921D01*
X86151252Y-65855897D01*
X86178384Y-65850500D01*
X86178385Y-65850500D01*
X86258747Y-65834515D01*
X86269065Y-65827621D01*
X86269067Y-65827620D01*
X86316877Y-65795674D01*
X86326873Y-65788995D01*
X86326875Y-65788993D01*
X86339563Y-65780515D01*
X86349876Y-65773624D01*
X86358354Y-65760936D01*
X86374024Y-65741844D01*
X87246844Y-64869024D01*
X87265936Y-64853354D01*
X87268311Y-64851767D01*
X87278624Y-64844876D01*
X87292904Y-64823506D01*
X87299659Y-64813396D01*
X87321642Y-64780495D01*
X87321644Y-64780492D01*
X87332621Y-64764065D01*
X87332622Y-64764063D01*
X87339515Y-64753747D01*
X87355500Y-64673385D01*
X87355500Y-64673384D01*
X87358476Y-64658424D01*
X87358476Y-64658423D01*
X87360897Y-64646252D01*
X87357921Y-64631291D01*
X87355500Y-64606709D01*
X87355500Y-64140764D01*
X87375502Y-64072643D01*
X87405636Y-64041288D01*
X87410404Y-64039065D01*
X87494065Y-63955404D01*
X87498725Y-63945411D01*
X87539994Y-63856910D01*
X87539994Y-63856909D01*
X87544068Y-63848173D01*
X87550500Y-63799316D01*
X87550500Y-63350684D01*
X87544068Y-63301827D01*
X87536470Y-63285532D01*
X87498725Y-63204589D01*
X87498725Y-63204588D01*
X87494065Y-63194596D01*
X87413564Y-63114095D01*
X87379538Y-63051783D01*
X87384603Y-62980968D01*
X87413564Y-62935905D01*
X87494065Y-62855404D01*
X87499916Y-62842856D01*
X87539994Y-62756910D01*
X87539994Y-62756909D01*
X87544068Y-62748173D01*
X87550500Y-62699316D01*
X87550500Y-62250684D01*
X87544068Y-62201827D01*
X87494065Y-62094596D01*
X87413564Y-62014095D01*
X87379538Y-61951783D01*
X87384603Y-61880968D01*
X87413564Y-61835905D01*
X87494065Y-61755404D01*
X87510372Y-61720434D01*
X87539994Y-61656910D01*
X87539994Y-61656909D01*
X87544068Y-61648173D01*
X87550500Y-61599316D01*
X87550500Y-61150684D01*
X87544068Y-61101827D01*
X87532961Y-61078007D01*
X87498725Y-61004589D01*
X87498725Y-61004588D01*
X87494065Y-60994596D01*
X87410404Y-60910935D01*
X87400411Y-60906275D01*
X87311910Y-60865006D01*
X87311909Y-60865006D01*
X87303173Y-60860932D01*
X87254316Y-60854500D01*
X86905684Y-60854500D01*
X86856827Y-60860932D01*
X86848091Y-60865006D01*
X86848090Y-60865006D01*
X86759589Y-60906275D01*
X86749596Y-60910935D01*
X86665935Y-60994596D01*
X86665247Y-60993908D01*
X86617753Y-61031869D01*
X86547133Y-61039177D01*
X86483774Y-61007144D01*
X86475421Y-60997504D01*
X86474065Y-60994596D01*
X86390404Y-60910935D01*
X86380411Y-60906275D01*
X86291910Y-60865006D01*
X86291909Y-60865006D01*
X86283173Y-60860932D01*
X86234316Y-60854500D01*
X85885684Y-60854500D01*
X85836827Y-60860932D01*
X85828091Y-60865006D01*
X85828090Y-60865006D01*
X85739589Y-60906275D01*
X85729596Y-60910935D01*
X85645935Y-60994596D01*
X85641276Y-61004587D01*
X85641274Y-61004590D01*
X85635525Y-61016920D01*
X85588609Y-61070205D01*
X85520332Y-61089667D01*
X85452372Y-61069126D01*
X85432235Y-61052766D01*
X85350404Y-60970935D01*
X85340411Y-60966275D01*
X85251910Y-60925006D01*
X85251909Y-60925006D01*
X85243173Y-60920932D01*
X85194316Y-60914500D01*
X84941492Y-60914500D01*
X84873371Y-60894498D01*
X84836727Y-60858502D01*
X84835517Y-60856691D01*
X84835515Y-60856689D01*
X84828624Y-60846376D01*
X84805623Y-60831007D01*
X84805622Y-60831006D01*
X84763630Y-60802948D01*
X84737495Y-60785485D01*
X84657133Y-60769500D01*
X84642172Y-60766524D01*
X84642171Y-60766524D01*
X84630000Y-60764103D01*
X84617829Y-60766524D01*
X84615039Y-60767079D01*
X84590457Y-60769500D01*
X83962831Y-60769500D01*
X83892830Y-60748266D01*
X83882935Y-60741654D01*
X83872617Y-60734760D01*
X83860450Y-60732340D01*
X83860448Y-60732339D01*
X83807363Y-60721780D01*
X83795901Y-60719500D01*
X83395033Y-60719500D01*
X82994100Y-60719501D01*
X82988033Y-60720708D01*
X82988030Y-60720708D01*
X82929554Y-60732339D01*
X82929553Y-60732339D01*
X82917383Y-60734760D01*
X82907067Y-60741653D01*
X82907065Y-60741654D01*
X82866663Y-60768650D01*
X82830388Y-60792888D01*
X82823495Y-60803204D01*
X82779153Y-60869566D01*
X82779152Y-60869568D01*
X82772260Y-60879883D01*
X82769840Y-60892050D01*
X82769839Y-60892052D01*
X82765722Y-60912753D01*
X82757000Y-60956599D01*
X82757001Y-61133400D01*
X82758208Y-61139467D01*
X82758208Y-61139470D01*
X82769839Y-61197946D01*
X82772260Y-61210117D01*
X82779154Y-61220434D01*
X82782204Y-61224999D01*
X82803418Y-61292752D01*
X82782204Y-61365001D01*
X82772260Y-61379883D01*
X82769840Y-61392050D01*
X82769839Y-61392052D01*
X82767104Y-61405804D01*
X82757000Y-61456599D01*
X82757001Y-61633400D01*
X82758208Y-61639467D01*
X82758208Y-61639470D01*
X82769576Y-61696624D01*
X82772260Y-61710117D01*
X82779154Y-61720434D01*
X82782204Y-61724999D01*
X82803418Y-61792752D01*
X82782204Y-61865001D01*
X82772260Y-61879883D01*
X82769840Y-61892050D01*
X82769839Y-61892052D01*
X82765203Y-61915358D01*
X82757000Y-61956599D01*
X82757001Y-62133400D01*
X82758208Y-62139467D01*
X82758208Y-62139470D01*
X82769839Y-62197946D01*
X82772260Y-62210117D01*
X82782204Y-62224999D01*
X82803418Y-62292752D01*
X82782204Y-62365001D01*
X82772260Y-62379883D01*
X82769840Y-62392050D01*
X82769839Y-62392052D01*
X82767404Y-62404296D01*
X82757000Y-62456599D01*
X82757000Y-62468501D01*
X82736998Y-62536622D01*
X82683342Y-62583115D01*
X82631000Y-62594501D01*
X82619100Y-62594501D01*
X82613033Y-62595708D01*
X82613030Y-62595708D01*
X82554554Y-62607339D01*
X82554553Y-62607339D01*
X82542383Y-62609760D01*
X82527501Y-62619704D01*
X82459748Y-62640918D01*
X82387499Y-62619704D01*
X82382935Y-62616654D01*
X82372617Y-62609760D01*
X82360450Y-62607340D01*
X82360448Y-62607339D01*
X82327593Y-62600804D01*
X82295901Y-62594500D01*
X82207515Y-62594500D01*
X82119100Y-62594501D01*
X82113033Y-62595708D01*
X82113030Y-62595708D01*
X82054554Y-62607339D01*
X82054553Y-62607339D01*
X82042383Y-62609760D01*
X82027501Y-62619704D01*
X81959748Y-62640918D01*
X81887499Y-62619704D01*
X81882935Y-62616654D01*
X81872617Y-62609760D01*
X81860450Y-62607340D01*
X81860448Y-62607339D01*
X81827593Y-62600804D01*
X81795901Y-62594500D01*
X81707515Y-62594500D01*
X81619100Y-62594501D01*
X81613033Y-62595708D01*
X81613030Y-62595708D01*
X81554554Y-62607339D01*
X81554553Y-62607339D01*
X81542383Y-62609760D01*
X81527501Y-62619704D01*
X81459748Y-62640918D01*
X81387499Y-62619704D01*
X81382935Y-62616654D01*
X81372617Y-62609760D01*
X81360450Y-62607340D01*
X81360448Y-62607339D01*
X81327593Y-62600804D01*
X81295901Y-62594500D01*
X81207515Y-62594500D01*
X81119100Y-62594501D01*
X81113033Y-62595708D01*
X81113030Y-62595708D01*
X81054554Y-62607339D01*
X81054553Y-62607339D01*
X81042383Y-62609760D01*
X81027501Y-62619704D01*
X80959748Y-62640918D01*
X80887499Y-62619704D01*
X80882935Y-62616654D01*
X80872617Y-62609760D01*
X80860450Y-62607340D01*
X80860448Y-62607339D01*
X80827593Y-62600804D01*
X80795901Y-62594500D01*
X80707515Y-62594500D01*
X80619100Y-62594501D01*
X80613033Y-62595708D01*
X80613030Y-62595708D01*
X80554554Y-62607339D01*
X80554553Y-62607339D01*
X80542383Y-62609760D01*
X80527501Y-62619704D01*
X80459748Y-62640918D01*
X80387499Y-62619704D01*
X80382935Y-62616654D01*
X80372617Y-62609760D01*
X80360450Y-62607340D01*
X80360448Y-62607339D01*
X80327593Y-62600804D01*
X80295901Y-62594500D01*
X80283999Y-62594500D01*
X80215878Y-62574498D01*
X80169385Y-62520842D01*
X80157999Y-62468500D01*
X80157999Y-62456600D01*
X80152164Y-62427261D01*
X80145161Y-62392054D01*
X80145160Y-62392052D01*
X80142740Y-62379883D01*
X80132796Y-62365001D01*
X80111582Y-62297248D01*
X80132796Y-62224999D01*
X80133130Y-62224500D01*
X80142740Y-62210117D01*
X80147655Y-62185411D01*
X80151118Y-62167998D01*
X80158000Y-62133401D01*
X80157999Y-61956600D01*
X80151836Y-61925612D01*
X80145161Y-61892054D01*
X80145160Y-61892052D01*
X80142740Y-61879883D01*
X80132796Y-61865001D01*
X80111582Y-61797248D01*
X80132796Y-61724999D01*
X80135847Y-61720433D01*
X80142740Y-61710117D01*
X80146842Y-61689499D01*
X80153324Y-61656910D01*
X80158000Y-61633401D01*
X80157999Y-61456600D01*
X80155946Y-61446275D01*
X80145161Y-61392054D01*
X80145160Y-61392052D01*
X80142740Y-61379883D01*
X80132796Y-61365001D01*
X80111582Y-61297248D01*
X80132796Y-61224999D01*
X80135847Y-61220433D01*
X80142740Y-61210117D01*
X80158000Y-61133401D01*
X80157999Y-60956600D01*
X80155962Y-60946355D01*
X80145161Y-60892054D01*
X80145160Y-60892052D01*
X80142740Y-60879883D01*
X80132796Y-60865001D01*
X80111582Y-60797248D01*
X80132796Y-60724999D01*
X80135847Y-60720433D01*
X80142740Y-60710117D01*
X80148165Y-60682847D01*
X80154593Y-60650529D01*
X80158000Y-60633401D01*
X80157999Y-60456600D01*
X80148396Y-60408316D01*
X80145161Y-60392054D01*
X80145161Y-60392053D01*
X80142740Y-60379883D01*
X80132796Y-60365001D01*
X80111582Y-60297248D01*
X80132796Y-60224999D01*
X80135847Y-60220433D01*
X80142740Y-60210117D01*
X80158000Y-60133401D01*
X80158000Y-60121499D01*
X80178002Y-60053378D01*
X80231658Y-60006885D01*
X80284000Y-59995499D01*
X80295900Y-59995499D01*
X80301967Y-59994292D01*
X80301970Y-59994292D01*
X80360446Y-59982661D01*
X80360447Y-59982661D01*
X80372617Y-59980240D01*
X80387499Y-59970296D01*
X80455252Y-59949082D01*
X80527501Y-59970296D01*
X80542383Y-59980240D01*
X80554550Y-59982660D01*
X80554552Y-59982661D01*
X80584502Y-59988618D01*
X80619099Y-59995500D01*
X80707485Y-59995500D01*
X80795900Y-59995499D01*
X80801967Y-59994292D01*
X80801970Y-59994292D01*
X80860446Y-59982661D01*
X80860447Y-59982661D01*
X80872617Y-59980240D01*
X80887499Y-59970296D01*
X80955252Y-59949082D01*
X81027501Y-59970296D01*
X81042383Y-59980240D01*
X81054550Y-59982660D01*
X81054552Y-59982661D01*
X81084502Y-59988618D01*
X81119099Y-59995500D01*
X81207485Y-59995500D01*
X81295900Y-59995499D01*
X81301967Y-59994292D01*
X81301970Y-59994292D01*
X81360446Y-59982661D01*
X81360447Y-59982661D01*
X81372617Y-59980240D01*
X81387499Y-59970296D01*
X81455252Y-59949082D01*
X81527501Y-59970296D01*
X81542383Y-59980240D01*
X81554550Y-59982660D01*
X81554552Y-59982661D01*
X81584502Y-59988618D01*
X81619099Y-59995500D01*
X81707485Y-59995500D01*
X81795900Y-59995499D01*
X81801967Y-59994292D01*
X81801970Y-59994292D01*
X81860446Y-59982661D01*
X81860447Y-59982661D01*
X81872617Y-59980240D01*
X81887499Y-59970296D01*
X81955252Y-59949082D01*
X82027501Y-59970296D01*
X82042383Y-59980240D01*
X82054550Y-59982660D01*
X82054552Y-59982661D01*
X82084502Y-59988618D01*
X82119099Y-59995500D01*
X82207485Y-59995500D01*
X82295900Y-59995499D01*
X82301967Y-59994292D01*
X82301970Y-59994292D01*
X82360446Y-59982661D01*
X82360447Y-59982661D01*
X82372617Y-59980240D01*
X82387499Y-59970296D01*
X82455252Y-59949082D01*
X82527501Y-59970296D01*
X82542383Y-59980240D01*
X82554550Y-59982660D01*
X82554552Y-59982661D01*
X82584502Y-59988618D01*
X82619099Y-59995500D01*
X82631001Y-59995500D01*
X82699122Y-60015502D01*
X82745615Y-60069158D01*
X82757001Y-60121499D01*
X82757001Y-60133400D01*
X82758208Y-60139467D01*
X82758208Y-60139470D01*
X82762195Y-60159513D01*
X82772260Y-60210117D01*
X82779153Y-60220433D01*
X82779154Y-60220435D01*
X82799253Y-60250515D01*
X82830388Y-60297112D01*
X82840704Y-60304005D01*
X82907066Y-60348347D01*
X82907068Y-60348348D01*
X82917383Y-60355240D01*
X82929550Y-60357660D01*
X82929552Y-60357661D01*
X82966454Y-60365001D01*
X82994099Y-60370500D01*
X83394967Y-60370500D01*
X83795900Y-60370499D01*
X83801967Y-60369292D01*
X83801970Y-60369292D01*
X83860446Y-60357661D01*
X83860447Y-60357661D01*
X83872617Y-60355240D01*
X83892830Y-60341734D01*
X83962831Y-60320500D01*
X84035457Y-60320500D01*
X84060039Y-60322921D01*
X84075000Y-60325897D01*
X84102132Y-60320500D01*
X84102133Y-60320500D01*
X84182495Y-60304515D01*
X84192812Y-60297621D01*
X84192815Y-60297620D01*
X84234896Y-60269502D01*
X84234898Y-60269500D01*
X84250622Y-60258994D01*
X84250623Y-60258993D01*
X84263311Y-60250515D01*
X84273624Y-60243624D01*
X84282102Y-60230936D01*
X84297772Y-60211844D01*
X84559559Y-59950057D01*
X84621871Y-59916031D01*
X84692686Y-59921096D01*
X84701731Y-59924885D01*
X84701777Y-59924898D01*
X84710513Y-59928972D01*
X84720067Y-59930230D01*
X84720068Y-59930230D01*
X84744603Y-59933460D01*
X84760099Y-59935500D01*
X84969923Y-59935500D01*
X85179900Y-59935499D01*
X85229487Y-59928972D01*
X85241173Y-59923523D01*
X85328323Y-59882884D01*
X85328324Y-59882883D01*
X85338316Y-59878224D01*
X85423224Y-59793316D01*
X85426766Y-59785720D01*
X85480953Y-59742410D01*
X85551572Y-59735103D01*
X85617800Y-59769916D01*
X85732595Y-59884711D01*
X85766621Y-59947023D01*
X85769500Y-59973806D01*
X85769500Y-60402248D01*
X85781133Y-60460731D01*
X85825448Y-60527052D01*
X85891769Y-60571367D01*
X85903938Y-60573788D01*
X85903939Y-60573788D01*
X85944184Y-60581793D01*
X85950252Y-60583000D01*
X86589748Y-60583000D01*
X86595816Y-60581793D01*
X86636061Y-60573788D01*
X86636062Y-60573788D01*
X86648231Y-60571367D01*
X86714552Y-60527052D01*
X86721443Y-60516739D01*
X86721445Y-60516737D01*
X86755314Y-60466049D01*
X86809791Y-60420521D01*
X86880235Y-60411674D01*
X86917283Y-60423784D01*
X87036874Y-60484719D01*
X87046663Y-60486269D01*
X87046665Y-60486270D01*
X87170000Y-60505804D01*
X87169518Y-60508845D01*
X87222002Y-60524255D01*
X87225419Y-60527009D01*
X87225448Y-60527052D01*
X87291769Y-60571367D01*
X87303938Y-60573788D01*
X87303939Y-60573788D01*
X87344184Y-60581793D01*
X87350252Y-60583000D01*
X87786570Y-60583000D01*
X87854691Y-60603002D01*
X87901184Y-60656658D01*
X87911288Y-60726932D01*
X87898837Y-60766202D01*
X87865818Y-60831007D01*
X87860281Y-60841874D01*
X87858731Y-60851663D01*
X87858730Y-60851665D01*
X87840864Y-60964471D01*
X87839196Y-60975000D01*
X87840747Y-60984793D01*
X87857900Y-61093090D01*
X87860281Y-61108126D01*
X87921472Y-61228220D01*
X88016780Y-61323528D01*
X88136874Y-61384719D01*
X88146663Y-61386269D01*
X88146665Y-61386270D01*
X88260207Y-61404253D01*
X88270000Y-61405804D01*
X88279793Y-61404253D01*
X88393335Y-61386270D01*
X88393337Y-61386269D01*
X88403126Y-61384719D01*
X88523220Y-61323528D01*
X88604405Y-61242343D01*
X88666717Y-61208317D01*
X88737532Y-61213382D01*
X88794368Y-61255929D01*
X88819179Y-61322449D01*
X88819500Y-61331438D01*
X88819500Y-61410590D01*
X88820170Y-61415140D01*
X88820170Y-61415143D01*
X88827184Y-61462788D01*
X88830365Y-61484396D01*
X88851183Y-61526798D01*
X88867149Y-61559316D01*
X88885459Y-61596610D01*
X88973931Y-61684927D01*
X89086241Y-61739826D01*
X89095916Y-61741237D01*
X89095918Y-61741238D01*
X89154883Y-61749840D01*
X89154889Y-61749840D01*
X89159410Y-61750500D01*
X89780590Y-61750500D01*
X89785140Y-61749830D01*
X89785143Y-61749830D01*
X89844710Y-61741061D01*
X89844711Y-61741061D01*
X89854396Y-61739635D01*
X89913080Y-61710823D01*
X89957262Y-61689131D01*
X89957264Y-61689130D01*
X89966610Y-61684541D01*
X89973965Y-61677173D01*
X89973968Y-61677171D01*
X90034326Y-61616706D01*
X90096609Y-61582626D01*
X90167429Y-61587629D01*
X90224302Y-61630125D01*
X90249171Y-61696624D01*
X90249500Y-61705723D01*
X90249500Y-61731785D01*
X90229498Y-61799906D01*
X90210416Y-61820108D01*
X90211780Y-61821472D01*
X90116472Y-61916780D01*
X90055281Y-62036874D01*
X90053730Y-62046665D01*
X90053730Y-62046666D01*
X90041986Y-62120813D01*
X90011573Y-62184966D01*
X89951305Y-62222493D01*
X89880315Y-62221479D01*
X89862911Y-62214582D01*
X89862546Y-62214469D01*
X89853759Y-62210174D01*
X89844084Y-62208763D01*
X89844082Y-62208762D01*
X89785117Y-62200160D01*
X89785111Y-62200160D01*
X89780590Y-62199500D01*
X89159410Y-62199500D01*
X89154860Y-62200170D01*
X89154857Y-62200170D01*
X89095290Y-62208939D01*
X89095289Y-62208939D01*
X89085604Y-62210365D01*
X89055798Y-62224999D01*
X88982738Y-62260869D01*
X88982736Y-62260870D01*
X88973390Y-62265459D01*
X88885073Y-62353931D01*
X88830174Y-62466241D01*
X88828763Y-62475916D01*
X88828762Y-62475918D01*
X88821890Y-62523028D01*
X88819500Y-62539410D01*
X88819500Y-62960590D01*
X88820170Y-62965140D01*
X88820170Y-62965143D01*
X88821845Y-62976518D01*
X88830365Y-63034396D01*
X88847370Y-63069032D01*
X88867944Y-63110935D01*
X88885459Y-63146610D01*
X88973931Y-63234927D01*
X89086241Y-63289826D01*
X89095916Y-63291237D01*
X89095918Y-63291238D01*
X89154883Y-63299840D01*
X89154889Y-63299840D01*
X89159410Y-63300500D01*
X89780590Y-63300500D01*
X89785140Y-63299830D01*
X89785143Y-63299830D01*
X89844710Y-63291061D01*
X89844711Y-63291061D01*
X89854396Y-63289635D01*
X89923239Y-63255835D01*
X89957262Y-63239131D01*
X89957264Y-63239130D01*
X89966610Y-63234541D01*
X90054927Y-63146069D01*
X90061704Y-63132206D01*
X90086563Y-63081350D01*
X90109826Y-63033759D01*
X90115011Y-62998217D01*
X90119840Y-62965117D01*
X90119840Y-62965111D01*
X90120500Y-62960590D01*
X90120500Y-62956019D01*
X90120830Y-62951470D01*
X90121897Y-62951547D01*
X90140502Y-62888185D01*
X90157405Y-62867211D01*
X90388458Y-62636158D01*
X90450770Y-62602132D01*
X90464240Y-62600684D01*
X90465000Y-62600804D01*
X90555041Y-62586543D01*
X90588335Y-62581270D01*
X90588337Y-62581269D01*
X90598126Y-62579719D01*
X90718220Y-62518528D01*
X90813528Y-62423220D01*
X90820854Y-62408843D01*
X90823171Y-62404296D01*
X90871919Y-62352681D01*
X90935437Y-62335500D01*
X90994316Y-62335500D01*
X91043173Y-62329068D01*
X91119582Y-62293438D01*
X91140411Y-62283725D01*
X91140412Y-62283725D01*
X91150404Y-62279065D01*
X91234065Y-62195404D01*
X91238725Y-62185411D01*
X91279994Y-62096910D01*
X91279994Y-62096909D01*
X91284068Y-62088173D01*
X91290500Y-62039316D01*
X91290500Y-61690684D01*
X91284068Y-61641827D01*
X91266151Y-61603403D01*
X91238725Y-61544589D01*
X91238725Y-61544588D01*
X91234065Y-61534596D01*
X91213564Y-61514095D01*
X91179538Y-61451783D01*
X91184603Y-61380968D01*
X91213564Y-61335905D01*
X91234065Y-61315404D01*
X91284068Y-61208173D01*
X91290500Y-61159316D01*
X91290500Y-60890310D01*
X91310502Y-60822189D01*
X91364158Y-60775696D01*
X91434432Y-60765592D01*
X91499012Y-60795086D01*
X91505595Y-60801215D01*
X93357334Y-62652954D01*
X93358475Y-62653988D01*
X93358481Y-62653994D01*
X93365987Y-62660798D01*
X93372268Y-62666491D01*
X93391355Y-62682157D01*
X93407564Y-62694179D01*
X93408861Y-62695046D01*
X93408863Y-62695047D01*
X93438725Y-62715000D01*
X93438732Y-62715004D01*
X93441303Y-62716722D01*
X93476828Y-62735710D01*
X93479672Y-62736888D01*
X93479674Y-62736889D01*
X93487071Y-62739953D01*
X93522246Y-62754523D01*
X93560800Y-62766218D01*
X93586185Y-62771267D01*
X93599056Y-62773827D01*
X93599060Y-62773828D01*
X93600585Y-62774131D01*
X93613794Y-62776090D01*
X93618998Y-62776862D01*
X93619006Y-62776863D01*
X93620530Y-62777089D01*
X93622072Y-62777241D01*
X93622081Y-62777242D01*
X93640592Y-62779065D01*
X93645110Y-62779510D01*
X93646629Y-62779585D01*
X93646647Y-62779586D01*
X93663703Y-62780424D01*
X93663710Y-62780424D01*
X93665253Y-62780500D01*
X96231195Y-62780500D01*
X96301198Y-62801735D01*
X96356769Y-62838867D01*
X96368938Y-62841288D01*
X96368939Y-62841288D01*
X96409184Y-62849293D01*
X96415252Y-62850500D01*
X97724748Y-62850500D01*
X97730816Y-62849293D01*
X97771061Y-62841288D01*
X97771062Y-62841288D01*
X97783231Y-62838867D01*
X97849552Y-62794552D01*
X97884251Y-62742622D01*
X97886974Y-62738547D01*
X97893867Y-62728231D01*
X97896612Y-62714434D01*
X97904293Y-62675816D01*
X97905500Y-62669748D01*
X97905500Y-62629739D01*
X97920378Y-62570343D01*
X97929248Y-62553749D01*
X97929251Y-62553743D01*
X97930709Y-62551015D01*
X97949523Y-62505594D01*
X97961218Y-62467043D01*
X97966789Y-62439037D01*
X97968828Y-62428786D01*
X97968830Y-62428773D01*
X97969131Y-62427261D01*
X97972089Y-62407313D01*
X97974510Y-62382732D01*
X97975382Y-62365001D01*
X97975424Y-62364138D01*
X97975424Y-62364135D01*
X97975500Y-62362590D01*
X97975500Y-58670253D01*
X97975110Y-58662322D01*
X97974586Y-58651647D01*
X97974585Y-58651629D01*
X97974510Y-58650110D01*
X97974106Y-58646004D01*
X97972242Y-58627081D01*
X97972241Y-58627072D01*
X97972089Y-58625530D01*
X97969131Y-58605585D01*
X97967581Y-58597789D01*
X97962875Y-58574131D01*
X97961218Y-58565801D01*
X97949523Y-58527248D01*
X97930710Y-58481829D01*
X97911722Y-58446303D01*
X97909664Y-58443222D01*
X97890047Y-58413863D01*
X97890046Y-58413861D01*
X97889179Y-58412564D01*
X97877157Y-58396355D01*
X97861491Y-58377268D01*
X97847954Y-58362334D01*
X97782666Y-58297046D01*
X97767732Y-58283509D01*
X97748645Y-58267843D01*
X97732436Y-58255821D01*
X97731137Y-58254953D01*
X97701275Y-58235000D01*
X97701268Y-58234996D01*
X97698697Y-58233278D01*
X97663172Y-58214290D01*
X97634620Y-58202463D01*
X97620598Y-58196655D01*
X97620597Y-58196655D01*
X97617754Y-58195477D01*
X97579200Y-58183782D01*
X97551940Y-58178360D01*
X97540944Y-58176173D01*
X97540940Y-58176172D01*
X97539415Y-58175869D01*
X97526206Y-58173910D01*
X97521002Y-58173138D01*
X97520994Y-58173137D01*
X97519470Y-58172911D01*
X97517928Y-58172759D01*
X97517919Y-58172758D01*
X97496423Y-58170641D01*
X97494890Y-58170490D01*
X97493371Y-58170415D01*
X97493353Y-58170414D01*
X97476297Y-58169576D01*
X97476290Y-58169576D01*
X97474747Y-58169500D01*
X94589873Y-58169500D01*
X94521752Y-58149498D01*
X94475259Y-58095842D01*
X94464951Y-58027055D01*
X94469962Y-57988991D01*
X94469962Y-57988984D01*
X94470500Y-57984901D01*
X94470499Y-57565100D01*
X94463972Y-57515513D01*
X94413224Y-57406684D01*
X94341501Y-57334961D01*
X94307475Y-57272649D01*
X94312540Y-57201834D01*
X94355087Y-57144998D01*
X94388848Y-57126983D01*
X94432521Y-57111646D01*
X94458184Y-57102634D01*
X94465754Y-57097042D01*
X94465757Y-57097041D01*
X94559579Y-57027742D01*
X94567150Y-57022150D01*
X94596362Y-56982601D01*
X94642041Y-56920757D01*
X94642042Y-56920754D01*
X94647634Y-56913184D01*
X94692519Y-56785369D01*
X94695500Y-56753834D01*
X94695500Y-55396166D01*
X94692519Y-55364631D01*
X94647634Y-55236816D01*
X94646524Y-55235313D01*
X94633000Y-55180871D01*
X94633000Y-53285822D01*
X94654235Y-53215819D01*
X94679474Y-53178047D01*
X94686367Y-53167731D01*
X94698000Y-53109248D01*
X94698000Y-49640752D01*
X94692878Y-49615002D01*
X94688788Y-49594439D01*
X94688788Y-49594438D01*
X94686367Y-49582269D01*
X94642052Y-49515948D01*
X94575731Y-49471633D01*
X94563562Y-49469212D01*
X94563561Y-49469212D01*
X94523316Y-49461207D01*
X94517248Y-49460000D01*
X92064752Y-49460000D01*
X92058684Y-49461207D01*
X92018439Y-49469212D01*
X92018438Y-49469212D01*
X92006269Y-49471633D01*
X91939948Y-49515948D01*
X91895633Y-49582269D01*
X91893212Y-49594438D01*
X91893212Y-49594439D01*
X91889122Y-49615002D01*
X91884000Y-49640752D01*
X91884000Y-53109248D01*
X91895633Y-53167731D01*
X91902526Y-53178047D01*
X91906688Y-53184276D01*
X91939948Y-53234052D01*
X92006269Y-53278367D01*
X92018438Y-53280788D01*
X92018439Y-53280788D01*
X92058684Y-53288793D01*
X92064752Y-53290000D01*
X93106000Y-53290000D01*
X93174121Y-53310002D01*
X93220614Y-53363658D01*
X93232000Y-53416000D01*
X93232000Y-55180871D01*
X93218476Y-55235313D01*
X93217366Y-55236816D01*
X93172481Y-55364631D01*
X93169500Y-55396166D01*
X93169500Y-55833694D01*
X93149498Y-55901815D01*
X93132595Y-55922789D01*
X92603156Y-56452228D01*
X92584064Y-56467898D01*
X92571376Y-56476376D01*
X92564485Y-56486689D01*
X92556007Y-56499377D01*
X92556006Y-56499378D01*
X92543525Y-56518057D01*
X92530518Y-56537524D01*
X92510485Y-56567505D01*
X92508064Y-56579675D01*
X92508064Y-56579676D01*
X92506507Y-56587505D01*
X92501590Y-56612224D01*
X92468683Y-56675134D01*
X92406988Y-56710266D01*
X92336093Y-56706466D01*
X92278507Y-56664941D01*
X92254432Y-56612225D01*
X92251936Y-56599677D01*
X92249515Y-56587505D01*
X92222563Y-56547169D01*
X92222562Y-56547167D01*
X92203994Y-56519377D01*
X92203993Y-56519377D01*
X92188624Y-56496376D01*
X92175936Y-56487898D01*
X92156844Y-56472228D01*
X91812405Y-56127789D01*
X91778379Y-56065477D01*
X91775500Y-56038694D01*
X91775500Y-54287410D01*
X91774510Y-54267268D01*
X91772089Y-54242687D01*
X91769131Y-54222739D01*
X91767076Y-54212405D01*
X91761821Y-54185990D01*
X91761218Y-54182957D01*
X91757118Y-54169441D01*
X91750419Y-54147358D01*
X91750416Y-54147349D01*
X91749523Y-54144406D01*
X91730709Y-54098985D01*
X91729248Y-54096251D01*
X91713180Y-54066189D01*
X91713173Y-54066178D01*
X91711719Y-54063457D01*
X91696212Y-54040249D01*
X91670655Y-54009108D01*
X91635892Y-53974345D01*
X91633502Y-53972384D01*
X91633497Y-53972379D01*
X91607152Y-53950758D01*
X91607146Y-53950754D01*
X91604751Y-53948788D01*
X91581543Y-53933281D01*
X91578822Y-53931827D01*
X91578811Y-53931820D01*
X91548749Y-53915752D01*
X91548743Y-53915749D01*
X91546015Y-53914291D01*
X91500594Y-53895477D01*
X91497651Y-53894584D01*
X91497642Y-53894581D01*
X91465000Y-53884679D01*
X91464999Y-53884679D01*
X91462043Y-53883782D01*
X91442665Y-53879928D01*
X91423786Y-53876172D01*
X91423773Y-53876170D01*
X91422261Y-53875869D01*
X91402313Y-53872911D01*
X91400776Y-53872760D01*
X91400771Y-53872759D01*
X91379276Y-53870642D01*
X91379273Y-53870642D01*
X91377732Y-53870490D01*
X91376192Y-53870414D01*
X91376188Y-53870414D01*
X91359138Y-53869576D01*
X91359135Y-53869576D01*
X91357590Y-53869500D01*
X88482410Y-53869500D01*
X88480865Y-53869576D01*
X88480862Y-53869576D01*
X88463812Y-53870414D01*
X88463808Y-53870414D01*
X88462268Y-53870490D01*
X88460727Y-53870642D01*
X88460724Y-53870642D01*
X88439229Y-53872759D01*
X88439224Y-53872760D01*
X88437687Y-53872911D01*
X88417739Y-53875869D01*
X88416227Y-53876170D01*
X88416214Y-53876172D01*
X88397335Y-53879928D01*
X88377957Y-53883782D01*
X88375001Y-53884679D01*
X88375000Y-53884679D01*
X88342358Y-53894581D01*
X88342349Y-53894584D01*
X88339406Y-53895477D01*
X88293985Y-53914291D01*
X88291257Y-53915749D01*
X88291251Y-53915752D01*
X88261189Y-53931820D01*
X88261178Y-53931827D01*
X88258457Y-53933281D01*
X88235249Y-53948788D01*
X88232854Y-53950754D01*
X88232848Y-53950758D01*
X88206503Y-53972379D01*
X88206498Y-53972384D01*
X88204108Y-53974345D01*
X88169345Y-54009108D01*
X88143788Y-54040249D01*
X88128281Y-54063457D01*
X88126827Y-54066178D01*
X88126820Y-54066189D01*
X88110752Y-54096251D01*
X88109291Y-54098985D01*
X88090477Y-54144406D01*
X88089584Y-54147349D01*
X88089581Y-54147358D01*
X88082882Y-54169441D01*
X88078782Y-54182957D01*
X88078179Y-54185990D01*
X88072925Y-54212405D01*
X88070869Y-54222739D01*
X88067911Y-54242687D01*
X88065490Y-54267268D01*
X88064500Y-54287410D01*
X88064500Y-55523583D01*
X88064532Y-55524550D01*
X88064532Y-55524571D01*
X88064907Y-55536026D01*
X88064940Y-55537024D01*
X88066018Y-55553470D01*
X88066116Y-55554463D01*
X88066119Y-55554502D01*
X88066922Y-55562652D01*
X88066922Y-55587348D01*
X88066119Y-55595498D01*
X88066116Y-55595537D01*
X88066018Y-55596530D01*
X88064940Y-55612976D01*
X88064500Y-55626417D01*
X88064500Y-56973583D01*
X88064940Y-56987024D01*
X88066018Y-57003470D01*
X88066116Y-57004463D01*
X88066119Y-57004502D01*
X88066922Y-57012652D01*
X88066922Y-57037348D01*
X88066119Y-57045498D01*
X88066116Y-57045537D01*
X88066018Y-57046530D01*
X88064940Y-57062976D01*
X88064908Y-57063955D01*
X88064907Y-57063974D01*
X88064747Y-57068882D01*
X88064500Y-57076417D01*
X88064500Y-58273583D01*
X88064532Y-58274550D01*
X88064532Y-58274571D01*
X88064825Y-58283509D01*
X88064940Y-58287024D01*
X88066018Y-58303470D01*
X88066116Y-58304463D01*
X88066119Y-58304502D01*
X88066922Y-58312652D01*
X88066922Y-58337348D01*
X88066119Y-58345498D01*
X88066116Y-58345537D01*
X88066018Y-58346530D01*
X88064940Y-58362976D01*
X88064500Y-58376417D01*
X88064500Y-59262590D01*
X88065490Y-59282732D01*
X88067911Y-59307313D01*
X88070869Y-59327261D01*
X88071171Y-59328782D01*
X88071175Y-59328802D01*
X88071696Y-59331421D01*
X88065367Y-59402135D01*
X88021812Y-59458201D01*
X87948117Y-59482000D01*
X87350252Y-59482000D01*
X87344184Y-59483207D01*
X87303939Y-59491212D01*
X87303938Y-59491212D01*
X87291769Y-59493633D01*
X87225448Y-59537948D01*
X87218557Y-59548261D01*
X87218555Y-59548263D01*
X87183234Y-59601124D01*
X87128757Y-59646652D01*
X87098180Y-59655571D01*
X87046665Y-59663730D01*
X87046663Y-59663731D01*
X87036874Y-59665281D01*
X87028044Y-59669780D01*
X87028038Y-59669782D01*
X86943780Y-59712715D01*
X86874003Y-59725820D01*
X86808218Y-59699120D01*
X86767311Y-59641093D01*
X86762997Y-59625033D01*
X86761287Y-59616437D01*
X86758867Y-59604269D01*
X86714552Y-59537948D01*
X86648231Y-59493633D01*
X86636062Y-59491212D01*
X86636061Y-59491212D01*
X86595816Y-59483207D01*
X86589748Y-59482000D01*
X86161306Y-59482000D01*
X86093185Y-59461998D01*
X86072211Y-59445095D01*
X85915272Y-59288156D01*
X85899602Y-59269064D01*
X85898015Y-59266689D01*
X85891124Y-59256376D01*
X85868123Y-59241007D01*
X85868122Y-59241006D01*
X85833415Y-59217816D01*
X85799995Y-59195485D01*
X85719633Y-59179500D01*
X85704672Y-59176524D01*
X85704671Y-59176524D01*
X85692500Y-59174103D01*
X85680329Y-59176524D01*
X85677539Y-59177079D01*
X85652957Y-59179500D01*
X85530463Y-59179500D01*
X85462342Y-59159498D01*
X85427633Y-59126139D01*
X85423224Y-59116684D01*
X85338316Y-59031776D01*
X85312570Y-59019770D01*
X85238224Y-58985102D01*
X85238223Y-58985102D01*
X85229487Y-58981028D01*
X85179901Y-58974500D01*
X84970077Y-58974500D01*
X84760100Y-58974501D01*
X84710513Y-58981028D01*
X84701779Y-58985101D01*
X84701778Y-58985101D01*
X84625466Y-59020686D01*
X84601684Y-59031776D01*
X84516776Y-59116684D01*
X84512117Y-59126676D01*
X84512116Y-59126677D01*
X84502747Y-59146769D01*
X84466028Y-59225513D01*
X84464770Y-59235072D01*
X84462073Y-59244324D01*
X84458844Y-59243383D01*
X84437007Y-59292758D01*
X84429895Y-59300489D01*
X84017275Y-59713109D01*
X83954963Y-59747135D01*
X83881266Y-59740539D01*
X83872617Y-59734760D01*
X83860450Y-59732340D01*
X83860448Y-59732339D01*
X83820180Y-59724329D01*
X83795901Y-59719500D01*
X83760193Y-59719500D01*
X83158999Y-59719501D01*
X83090879Y-59699499D01*
X83044386Y-59645843D01*
X83033000Y-59593501D01*
X83032999Y-58962788D01*
X83032999Y-58956600D01*
X83031712Y-58950126D01*
X83020161Y-58892054D01*
X83020161Y-58892053D01*
X83017740Y-58879883D01*
X83004234Y-58859670D01*
X82983000Y-58789669D01*
X82983000Y-58227043D01*
X82985421Y-58202463D01*
X82985976Y-58199673D01*
X82985976Y-58199671D01*
X82988397Y-58187500D01*
X82974598Y-58118127D01*
X82967015Y-58080005D01*
X82906124Y-57988876D01*
X82893436Y-57980398D01*
X82874344Y-57964728D01*
X82782405Y-57872789D01*
X82748379Y-57810477D01*
X82745500Y-57783694D01*
X82745500Y-53999000D01*
X82765502Y-53930879D01*
X82819158Y-53884386D01*
X82871500Y-53873000D01*
X84354752Y-53873000D01*
X84422873Y-53893002D01*
X84469366Y-53946658D01*
X84480752Y-53999000D01*
X84480752Y-54917248D01*
X84492385Y-54975731D01*
X84536700Y-55042052D01*
X84603021Y-55086367D01*
X84615190Y-55088788D01*
X84615191Y-55088788D01*
X84655436Y-55096793D01*
X84661504Y-55098000D01*
X85106000Y-55098000D01*
X85112068Y-55096793D01*
X85152313Y-55088788D01*
X85152314Y-55088788D01*
X85164483Y-55086367D01*
X85230804Y-55042052D01*
X85275119Y-54975731D01*
X85286752Y-54917248D01*
X85286752Y-53887752D01*
X85283137Y-53869576D01*
X85277540Y-53841439D01*
X85277540Y-53841438D01*
X85275119Y-53829269D01*
X85268225Y-53818952D01*
X85268224Y-53818949D01*
X85239862Y-53776503D01*
X85218646Y-53708750D01*
X85237428Y-53640283D01*
X85290245Y-53592840D01*
X85344626Y-53580500D01*
X88457590Y-53580500D01*
X88459135Y-53580424D01*
X88459138Y-53580424D01*
X88476188Y-53579586D01*
X88476192Y-53579586D01*
X88477732Y-53579510D01*
X88479273Y-53579358D01*
X88479276Y-53579358D01*
X88500771Y-53577241D01*
X88500776Y-53577240D01*
X88502313Y-53577089D01*
X88522261Y-53574131D01*
X88523773Y-53573830D01*
X88523786Y-53573828D01*
X88542665Y-53570072D01*
X88562043Y-53566218D01*
X88565000Y-53565321D01*
X88597642Y-53555419D01*
X88597651Y-53555416D01*
X88600594Y-53554523D01*
X88646015Y-53535709D01*
X88648743Y-53534251D01*
X88648749Y-53534248D01*
X88678811Y-53518180D01*
X88678822Y-53518173D01*
X88681543Y-53516719D01*
X88704751Y-53501212D01*
X88707146Y-53499246D01*
X88707152Y-53499242D01*
X88733497Y-53477621D01*
X88733502Y-53477616D01*
X88735892Y-53475655D01*
X88770655Y-53440892D01*
X88796212Y-53409751D01*
X88811719Y-53386543D01*
X88813173Y-53383822D01*
X88813180Y-53383811D01*
X88829248Y-53353749D01*
X88829251Y-53353743D01*
X88830709Y-53351015D01*
X88849523Y-53305594D01*
X88861218Y-53267043D01*
X88869131Y-53227261D01*
X88872089Y-53207313D01*
X88874510Y-53182732D01*
X88875500Y-53162590D01*
X88875500Y-49887410D01*
X88874896Y-49875117D01*
X88874586Y-49868812D01*
X88874586Y-49868808D01*
X88874510Y-49867268D01*
X88872089Y-49842687D01*
X88869131Y-49822739D01*
X88861218Y-49782957D01*
X88860321Y-49780000D01*
X88859775Y-49777819D01*
X88856000Y-49747208D01*
X88856000Y-49640752D01*
X88850878Y-49615002D01*
X88846788Y-49594439D01*
X88846788Y-49594438D01*
X88844367Y-49582269D01*
X88800052Y-49515948D01*
X88733731Y-49471633D01*
X88721562Y-49469212D01*
X88721561Y-49469212D01*
X88681316Y-49461207D01*
X88675248Y-49460000D01*
X86222752Y-49460000D01*
X86216684Y-49461207D01*
X86187163Y-49467079D01*
X86162582Y-49469500D01*
X79782410Y-49469500D01*
X79780865Y-49469576D01*
X79780862Y-49469576D01*
X79763812Y-49470414D01*
X79763808Y-49470414D01*
X79762268Y-49470490D01*
X79760727Y-49470642D01*
X79760724Y-49470642D01*
X79739229Y-49472759D01*
X79739224Y-49472760D01*
X79737687Y-49472911D01*
X79717739Y-49475869D01*
X79716227Y-49476170D01*
X79716214Y-49476172D01*
X79705135Y-49478376D01*
X79677957Y-49483782D01*
X79675001Y-49484679D01*
X79675000Y-49484679D01*
X79642358Y-49494581D01*
X79642349Y-49494584D01*
X79639406Y-49495477D01*
X79593985Y-49514291D01*
X79591257Y-49515749D01*
X79591251Y-49515752D01*
X79561189Y-49531820D01*
X79561178Y-49531827D01*
X79558457Y-49533281D01*
X79535249Y-49548788D01*
X79532854Y-49550754D01*
X79532848Y-49550758D01*
X79506503Y-49572379D01*
X79506498Y-49572384D01*
X79504108Y-49574345D01*
X79469345Y-49609108D01*
X79467384Y-49611498D01*
X79467379Y-49611503D01*
X79447205Y-49636086D01*
X79443788Y-49640249D01*
X79428281Y-49663457D01*
X79426827Y-49666178D01*
X79426820Y-49666189D01*
X79410752Y-49696251D01*
X79409291Y-49698985D01*
X79390477Y-49744406D01*
X79378782Y-49782957D01*
X79370869Y-49822739D01*
X79367911Y-49842687D01*
X79365490Y-49867268D01*
X79365414Y-49868808D01*
X79365414Y-49868812D01*
X79365104Y-49875117D01*
X79364500Y-49887410D01*
X79364500Y-50753500D01*
X79344498Y-50821621D01*
X79290842Y-50868114D01*
X79238500Y-50879500D01*
X78981504Y-50879500D01*
X78975436Y-50880707D01*
X78935191Y-50888712D01*
X78935190Y-50888712D01*
X78923021Y-50891133D01*
X78856700Y-50935448D01*
X78812385Y-51001769D01*
X78800752Y-51060252D01*
X78800752Y-52089748D01*
X78801959Y-52095816D01*
X78804684Y-52109513D01*
X78812385Y-52148231D01*
X78819278Y-52158547D01*
X78823792Y-52165303D01*
X78856700Y-52214552D01*
X78867013Y-52221443D01*
X78898447Y-52242447D01*
X78943974Y-52296925D01*
X78952821Y-52367368D01*
X78922180Y-52431412D01*
X78861778Y-52468723D01*
X78840794Y-52472605D01*
X78839229Y-52472759D01*
X78839224Y-52472760D01*
X78837687Y-52472911D01*
X78817739Y-52475869D01*
X78816227Y-52476170D01*
X78816214Y-52476172D01*
X78797335Y-52479928D01*
X78777957Y-52483782D01*
X78775001Y-52484679D01*
X78775000Y-52484679D01*
X78742358Y-52494581D01*
X78742349Y-52494584D01*
X78739406Y-52495477D01*
X78693985Y-52514291D01*
X78691257Y-52515749D01*
X78691251Y-52515752D01*
X78661189Y-52531820D01*
X78661178Y-52531827D01*
X78658457Y-52533281D01*
X78635249Y-52548788D01*
X78632854Y-52550754D01*
X78632848Y-52550758D01*
X78606503Y-52572379D01*
X78606498Y-52572384D01*
X78604108Y-52574345D01*
X78569345Y-52609108D01*
X78543788Y-52640249D01*
X78528281Y-52663457D01*
X78526827Y-52666178D01*
X78526820Y-52666189D01*
X78515465Y-52687434D01*
X78509291Y-52698985D01*
X78490477Y-52744406D01*
X78478782Y-52782957D01*
X78470869Y-52822739D01*
X78467911Y-52842687D01*
X78465490Y-52867268D01*
X78464500Y-52887410D01*
X78464500Y-54837690D01*
X78444498Y-54905811D01*
X78427595Y-54926785D01*
X77992046Y-55362334D01*
X77978509Y-55377268D01*
X77962843Y-55396355D01*
X77950821Y-55412564D01*
X77949954Y-55413861D01*
X77949953Y-55413863D01*
X77933776Y-55438075D01*
X77928278Y-55446303D01*
X77926818Y-55449035D01*
X77926816Y-55449038D01*
X77912242Y-55476306D01*
X77909290Y-55481829D01*
X77890477Y-55527248D01*
X77878782Y-55565801D01*
X77876956Y-55574983D01*
X77871493Y-55602449D01*
X77870869Y-55605585D01*
X77867911Y-55625530D01*
X77865490Y-55650110D01*
X77865415Y-55651629D01*
X77865414Y-55651647D01*
X77864970Y-55660683D01*
X77864500Y-55670253D01*
X77864500Y-56338694D01*
X77844498Y-56406815D01*
X77827595Y-56427789D01*
X77359095Y-56896289D01*
X77296783Y-56930315D01*
X77225968Y-56925250D01*
X77180905Y-56896289D01*
X76712405Y-56427789D01*
X76678379Y-56365477D01*
X76675500Y-56338694D01*
X76675500Y-55701000D01*
X76672361Y-55671803D01*
X76671166Y-55660683D01*
X76671165Y-55660677D01*
X76670804Y-55657319D01*
X76659418Y-55604977D01*
X76659192Y-55604050D01*
X76658800Y-55602449D01*
X76656930Y-55594797D01*
X76613921Y-55514084D01*
X76583607Y-55479099D01*
X76568694Y-55461889D01*
X76568693Y-55461888D01*
X76567428Y-55460428D01*
X76549835Y-55442473D01*
X76470017Y-55397826D01*
X76428910Y-55385756D01*
X76406219Y-55379093D01*
X76406215Y-55379092D01*
X76401896Y-55377824D01*
X76397448Y-55377184D01*
X76397441Y-55377183D01*
X76348448Y-55370139D01*
X76348441Y-55370138D01*
X76344000Y-55369500D01*
X73396000Y-55369500D01*
X73392654Y-55369860D01*
X73392649Y-55369860D01*
X73355683Y-55373834D01*
X73355677Y-55373835D01*
X73352319Y-55374196D01*
X73299977Y-55385582D01*
X73299283Y-55385752D01*
X73299264Y-55385756D01*
X73298130Y-55386033D01*
X73289797Y-55388070D01*
X73209084Y-55431079D01*
X73203738Y-55435711D01*
X73203737Y-55435712D01*
X73194487Y-55443727D01*
X73155428Y-55477572D01*
X73154051Y-55478921D01*
X73154048Y-55478924D01*
X73151083Y-55481829D01*
X73137473Y-55495165D01*
X73092826Y-55574983D01*
X73089050Y-55587843D01*
X73077430Y-55627419D01*
X73072824Y-55643104D01*
X73072184Y-55647552D01*
X73072183Y-55647559D01*
X73065139Y-55696552D01*
X73065138Y-55696559D01*
X73064500Y-55701000D01*
X73064500Y-60969538D01*
X73044498Y-61037659D01*
X72990842Y-61084152D01*
X72920568Y-61094256D01*
X72855988Y-61064762D01*
X72849483Y-61058711D01*
X72783724Y-60993067D01*
X72783720Y-60993064D01*
X72776350Y-60985707D01*
X72671518Y-60934464D01*
X72641027Y-60930016D01*
X72607744Y-60925160D01*
X72607740Y-60925160D01*
X72603218Y-60924500D01*
X71936782Y-60924500D01*
X71932232Y-60925170D01*
X71932229Y-60925170D01*
X71877574Y-60933216D01*
X71877573Y-60933216D01*
X71867888Y-60934642D01*
X71842958Y-60946882D01*
X71772493Y-60981478D01*
X71772491Y-60981479D01*
X71763145Y-60986068D01*
X71680707Y-61068650D01*
X71676134Y-61078006D01*
X71676133Y-61078007D01*
X71666197Y-61098335D01*
X71629464Y-61173482D01*
X71628052Y-61183162D01*
X71620456Y-61235231D01*
X71619500Y-61241782D01*
X71619500Y-61608218D01*
X71620170Y-61612768D01*
X71620170Y-61612771D01*
X71628216Y-61667426D01*
X71629642Y-61677112D01*
X71650912Y-61720434D01*
X71671545Y-61762458D01*
X71681068Y-61781855D01*
X71688438Y-61789212D01*
X71754842Y-61855500D01*
X71763650Y-61864293D01*
X71773006Y-61868866D01*
X71773007Y-61868867D01*
X71795544Y-61879883D01*
X71868482Y-61915536D01*
X71898973Y-61919984D01*
X71932256Y-61924840D01*
X71932260Y-61924840D01*
X71936782Y-61925500D01*
X72603218Y-61925500D01*
X72607768Y-61924830D01*
X72607771Y-61924830D01*
X72662426Y-61916784D01*
X72662427Y-61916784D01*
X72672112Y-61915358D01*
X72742157Y-61880968D01*
X72767507Y-61868522D01*
X72767509Y-61868521D01*
X72776855Y-61863932D01*
X72784212Y-61856562D01*
X72784215Y-61856560D01*
X72849327Y-61791334D01*
X72911609Y-61757254D01*
X72982429Y-61762257D01*
X73039302Y-61804754D01*
X73064171Y-61871252D01*
X73064500Y-61880351D01*
X73064500Y-62269538D01*
X73044498Y-62337659D01*
X72990842Y-62384152D01*
X72920568Y-62394256D01*
X72855988Y-62364762D01*
X72849483Y-62358711D01*
X72783724Y-62293067D01*
X72783720Y-62293064D01*
X72776350Y-62285707D01*
X72764170Y-62279753D01*
X72713133Y-62254806D01*
X72671518Y-62234464D01*
X72641027Y-62230016D01*
X72607744Y-62225160D01*
X72607740Y-62225160D01*
X72603218Y-62224500D01*
X71936782Y-62224500D01*
X71932232Y-62225170D01*
X71932229Y-62225170D01*
X71877574Y-62233216D01*
X71877573Y-62233216D01*
X71867888Y-62234642D01*
X71835214Y-62250684D01*
X71772493Y-62281478D01*
X71772491Y-62281479D01*
X71763145Y-62286068D01*
X71680707Y-62368650D01*
X71676134Y-62378006D01*
X71676133Y-62378007D01*
X71666425Y-62397867D01*
X71629464Y-62473482D01*
X71628052Y-62483162D01*
X71620253Y-62536622D01*
X71619500Y-62541782D01*
X71619500Y-62908218D01*
X71620170Y-62912768D01*
X71620170Y-62912771D01*
X71628216Y-62967426D01*
X71629642Y-62977112D01*
X71670795Y-63060932D01*
X71681068Y-63081855D01*
X71677633Y-63083542D01*
X71694606Y-63132206D01*
X71678032Y-63201241D01*
X71626766Y-63250356D01*
X71568765Y-63264501D01*
X71397600Y-63264501D01*
X71348013Y-63271028D01*
X71339279Y-63275101D01*
X71339278Y-63275101D01*
X71249177Y-63317116D01*
X71239184Y-63321776D01*
X71154276Y-63406684D01*
X71149617Y-63416676D01*
X71149616Y-63416677D01*
X71107602Y-63506776D01*
X71103528Y-63515513D01*
X71097000Y-63565099D01*
X71097001Y-63984900D01*
X71103528Y-64034487D01*
X71107601Y-64043221D01*
X71107601Y-64043222D01*
X71148352Y-64130612D01*
X71154276Y-64143316D01*
X71235095Y-64224135D01*
X71269121Y-64286447D01*
X71272000Y-64313230D01*
X71272000Y-64409236D01*
X71251998Y-64477357D01*
X71221864Y-64508712D01*
X71217096Y-64510935D01*
X71133435Y-64594596D01*
X71128775Y-64604588D01*
X71128775Y-64604589D01*
X71087647Y-64692789D01*
X71083432Y-64701827D01*
X71077000Y-64750684D01*
X71077000Y-65199316D01*
X71083432Y-65248173D01*
X71087506Y-65256909D01*
X71087506Y-65256910D01*
X71118571Y-65323528D01*
X71133435Y-65355404D01*
X71217096Y-65439065D01*
X71324327Y-65489068D01*
X71373184Y-65495500D01*
X71626194Y-65495500D01*
X71694315Y-65515502D01*
X71715289Y-65532405D01*
X72337289Y-66154405D01*
X72371315Y-66216717D01*
X72366250Y-66287532D01*
X72323703Y-66344368D01*
X72257183Y-66369179D01*
X72248194Y-66369500D01*
X70378258Y-66369500D01*
X70377291Y-66369532D01*
X70377270Y-66369532D01*
X70365815Y-66369907D01*
X70365796Y-66369908D01*
X70364817Y-66369940D01*
X70353800Y-66370662D01*
X70349390Y-66370951D01*
X70349377Y-66370952D01*
X70348371Y-66371018D01*
X70347374Y-66371116D01*
X70347352Y-66371118D01*
X70336022Y-66372234D01*
X70336007Y-66372236D01*
X70334989Y-66372336D01*
X70230214Y-66386130D01*
X70228198Y-66386531D01*
X70228186Y-66386533D01*
X70205870Y-66390972D01*
X70205859Y-66390975D01*
X70203851Y-66391374D01*
X70201873Y-66391904D01*
X70201860Y-66391907D01*
X70186812Y-66395939D01*
X70172079Y-66399887D01*
X70146623Y-66408528D01*
X70144714Y-66409319D01*
X70144708Y-66409321D01*
X70064902Y-66442378D01*
X70056684Y-66445782D01*
X70032573Y-66457672D01*
X70004087Y-66474119D01*
X69992451Y-66481894D01*
X69983464Y-66487899D01*
X69983457Y-66487904D01*
X69981739Y-66489052D01*
X69980088Y-66490319D01*
X69980085Y-66490321D01*
X69906147Y-66547055D01*
X69906132Y-66547068D01*
X69904506Y-66548315D01*
X69884297Y-66566039D01*
X69882832Y-66567504D01*
X69882643Y-66567681D01*
X69819254Y-66599656D01*
X69748641Y-66592285D01*
X69693223Y-66547908D01*
X69670500Y-66475728D01*
X69670500Y-65451662D01*
X69690502Y-65383541D01*
X69707405Y-65362566D01*
X69967972Y-65102000D01*
X70234122Y-64835850D01*
X70296434Y-64801825D01*
X70303507Y-64800497D01*
X70393334Y-64786270D01*
X70393335Y-64786270D01*
X70403126Y-64784719D01*
X70523220Y-64723528D01*
X70618528Y-64628220D01*
X70679719Y-64508126D01*
X70683427Y-64484719D01*
X70699253Y-64384793D01*
X70700804Y-64375000D01*
X70696941Y-64350610D01*
X70681270Y-64251665D01*
X70681269Y-64251663D01*
X70679719Y-64241874D01*
X70618528Y-64121780D01*
X70523220Y-64026472D01*
X70403126Y-63965281D01*
X70393337Y-63963731D01*
X70393335Y-63963730D01*
X70279793Y-63945747D01*
X70270000Y-63944196D01*
X70260207Y-63945747D01*
X70146665Y-63963730D01*
X70146663Y-63963731D01*
X70136874Y-63965281D01*
X70016780Y-64026472D01*
X69921472Y-64121780D01*
X69860281Y-64241874D01*
X69858730Y-64251665D01*
X69858730Y-64251666D01*
X69844502Y-64341497D01*
X69809148Y-64410881D01*
X69194548Y-65025481D01*
X69192514Y-65027237D01*
X69187731Y-65029575D01*
X69179819Y-65038104D01*
X69179818Y-65038105D01*
X69154427Y-65065477D01*
X69151147Y-65068882D01*
X69144142Y-65075887D01*
X69081830Y-65109913D01*
X69011015Y-65104848D01*
X68954179Y-65062301D01*
X68947791Y-65052913D01*
X68942269Y-65043954D01*
X68933769Y-65027589D01*
X68927548Y-65013109D01*
X68927545Y-65013104D01*
X68924036Y-65004937D01*
X68920023Y-65000051D01*
X68918944Y-64998972D01*
X68913770Y-64990471D01*
X68916307Y-64988927D01*
X68895773Y-64943237D01*
X68881270Y-64851666D01*
X68881270Y-64851665D01*
X68879719Y-64841874D01*
X68818528Y-64721780D01*
X68723220Y-64626472D01*
X68603126Y-64565281D01*
X68593337Y-64563731D01*
X68593335Y-64563730D01*
X68479793Y-64545747D01*
X68470000Y-64544196D01*
X68460207Y-64545747D01*
X68346665Y-64563730D01*
X68346663Y-64563731D01*
X68336874Y-64565281D01*
X68216780Y-64626472D01*
X68121472Y-64721780D01*
X68060281Y-64841874D01*
X68058731Y-64851663D01*
X68058730Y-64851665D01*
X68047371Y-64923384D01*
X68039196Y-64975000D01*
X68040747Y-64984793D01*
X68057567Y-65090988D01*
X68060281Y-65108126D01*
X68121472Y-65228220D01*
X68216780Y-65323528D01*
X68225613Y-65328028D01*
X68225612Y-65328028D01*
X68300703Y-65366289D01*
X68352318Y-65415037D01*
X68369500Y-65478556D01*
X68369500Y-82298338D01*
X68349498Y-82366459D01*
X68332595Y-82387433D01*
X65582434Y-85137595D01*
X65520122Y-85171621D01*
X65493339Y-85174500D01*
X51846662Y-85174500D01*
X51778541Y-85154498D01*
X51757567Y-85137595D01*
X44507405Y-77887434D01*
X44473379Y-77825122D01*
X44470500Y-77798339D01*
X44470500Y-73827366D01*
X44470696Y-73824693D01*
X44472425Y-73819658D01*
X44471956Y-73807144D01*
X44470589Y-73770744D01*
X44470500Y-73766018D01*
X44470500Y-73747052D01*
X44469619Y-73742317D01*
X44469390Y-73738790D01*
X44468662Y-73719415D01*
X44468226Y-73707791D01*
X44463634Y-73697104D01*
X44462595Y-73692492D01*
X44459043Y-73680800D01*
X44457339Y-73676383D01*
X44455209Y-73664947D01*
X44442272Y-73643959D01*
X44433769Y-73627589D01*
X44427549Y-73613112D01*
X44427547Y-73613108D01*
X44424036Y-73604937D01*
X44420022Y-73600051D01*
X44417837Y-73597866D01*
X44415785Y-73595603D01*
X44415945Y-73595458D01*
X44408825Y-73586451D01*
X44402573Y-73579556D01*
X44396468Y-73569652D01*
X44374680Y-73553084D01*
X44361861Y-73541890D01*
X43607405Y-72787434D01*
X43573379Y-72725122D01*
X43570500Y-72698339D01*
X43570500Y-70705252D01*
X43567245Y-70688886D01*
X43561288Y-70658939D01*
X43561288Y-70658938D01*
X43558867Y-70646769D01*
X43514552Y-70580448D01*
X43448231Y-70536133D01*
X43436062Y-70533712D01*
X43436061Y-70533712D01*
X43395816Y-70525707D01*
X43389748Y-70524500D01*
X41350252Y-70524500D01*
X41344184Y-70525707D01*
X41303939Y-70533712D01*
X41303938Y-70533712D01*
X41291769Y-70536133D01*
X41225448Y-70580448D01*
X41181133Y-70646769D01*
X41178712Y-70658938D01*
X41178712Y-70658939D01*
X41172755Y-70688886D01*
X41169500Y-70705252D01*
X41169500Y-70931124D01*
X41149498Y-70999245D01*
X41095842Y-71045738D01*
X41025568Y-71055842D01*
X40960988Y-71026348D01*
X40954405Y-71020219D01*
X40909139Y-70974953D01*
X40722734Y-70844432D01*
X40717756Y-70842111D01*
X40717753Y-70842109D01*
X40521478Y-70750584D01*
X40521476Y-70750583D01*
X40516496Y-70748261D01*
X40511188Y-70746839D01*
X40511186Y-70746838D01*
X40302007Y-70690789D01*
X40302005Y-70690789D01*
X40296692Y-70689365D01*
X40197698Y-70680704D01*
X40129508Y-70674738D01*
X40129501Y-70674738D01*
X40126784Y-70674500D01*
X40013216Y-70674500D01*
X40010499Y-70674738D01*
X40010492Y-70674738D01*
X39942302Y-70680704D01*
X39843308Y-70689365D01*
X39837995Y-70690789D01*
X39837993Y-70690789D01*
X39628814Y-70746838D01*
X39628812Y-70746839D01*
X39623504Y-70748261D01*
X39618524Y-70750583D01*
X39618522Y-70750584D01*
X39422247Y-70842109D01*
X39422244Y-70842111D01*
X39417266Y-70844432D01*
X39230861Y-70974953D01*
X39185595Y-71020219D01*
X39123283Y-71054245D01*
X39052468Y-71049180D01*
X38995632Y-71006633D01*
X38970821Y-70940113D01*
X38970500Y-70931124D01*
X38970500Y-70705252D01*
X38967245Y-70688886D01*
X38961288Y-70658939D01*
X38961288Y-70658938D01*
X38958867Y-70646769D01*
X38914552Y-70580448D01*
X38848231Y-70536133D01*
X38836062Y-70533712D01*
X38836061Y-70533712D01*
X38795816Y-70525707D01*
X38789748Y-70524500D01*
X36750252Y-70524500D01*
X36744184Y-70525707D01*
X36703939Y-70533712D01*
X36703938Y-70533712D01*
X36691769Y-70536133D01*
X36625448Y-70580448D01*
X36581133Y-70646769D01*
X36578712Y-70658938D01*
X36578712Y-70658939D01*
X36572755Y-70688886D01*
X36569500Y-70705252D01*
X36569500Y-73244748D01*
X36570707Y-73250816D01*
X36575570Y-73275262D01*
X36581133Y-73303231D01*
X36625448Y-73369552D01*
X36691769Y-73413867D01*
X36703938Y-73416288D01*
X36703939Y-73416288D01*
X36744184Y-73424293D01*
X36750252Y-73425500D01*
X37343500Y-73425500D01*
X37411621Y-73445502D01*
X37458114Y-73499158D01*
X37469500Y-73551500D01*
X37469500Y-73619740D01*
X37449498Y-73687861D01*
X37428436Y-73709775D01*
X37429596Y-73710935D01*
X37345935Y-73794596D01*
X37295932Y-73901827D01*
X37289500Y-73950684D01*
X37289500Y-74399316D01*
X37295932Y-74448173D01*
X37345935Y-74555404D01*
X37429596Y-74639065D01*
X37536827Y-74689068D01*
X37546384Y-74690326D01*
X37546387Y-74690327D01*
X37552262Y-74691100D01*
X37617189Y-74719821D01*
X37656282Y-74779086D01*
X37657127Y-74850078D01*
X37624912Y-74905117D01*
X37392434Y-75137595D01*
X37330122Y-75171621D01*
X37303339Y-75174500D01*
X36572372Y-75174500D01*
X36569695Y-75174303D01*
X36564658Y-75172574D01*
X36553037Y-75173010D01*
X36553035Y-75173010D01*
X36515730Y-75174411D01*
X36511003Y-75174500D01*
X36492052Y-75174500D01*
X36487319Y-75175382D01*
X36483792Y-75175610D01*
X36464420Y-75176337D01*
X36464418Y-75176338D01*
X36452792Y-75176774D01*
X36442100Y-75181368D01*
X36437497Y-75182405D01*
X36425787Y-75185962D01*
X36421384Y-75187661D01*
X36409947Y-75189791D01*
X36400046Y-75195894D01*
X36400043Y-75195895D01*
X36388956Y-75202729D01*
X36372585Y-75211233D01*
X36358109Y-75217453D01*
X36358107Y-75217454D01*
X36349938Y-75220964D01*
X36345052Y-75224977D01*
X36342869Y-75227160D01*
X36340593Y-75229224D01*
X36340447Y-75229063D01*
X36331451Y-75236175D01*
X36324556Y-75242427D01*
X36314652Y-75248532D01*
X36298084Y-75270320D01*
X36286890Y-75283139D01*
X35494548Y-76075481D01*
X35492514Y-76077237D01*
X35487731Y-76079575D01*
X35479819Y-76088104D01*
X35479818Y-76088105D01*
X35454427Y-76115477D01*
X35451147Y-76118882D01*
X35437752Y-76132277D01*
X35435028Y-76136247D01*
X35432703Y-76138895D01*
X35419508Y-76153119D01*
X35419506Y-76153122D01*
X35411599Y-76161646D01*
X35407289Y-76172450D01*
X35404767Y-76176439D01*
X35399006Y-76187227D01*
X35397089Y-76191552D01*
X35390508Y-76201146D01*
X35387822Y-76212465D01*
X35387821Y-76212467D01*
X35384817Y-76225127D01*
X35379252Y-76242724D01*
X35370117Y-76265622D01*
X35369500Y-76271915D01*
X35369500Y-76274994D01*
X35369350Y-76278067D01*
X35369134Y-76278056D01*
X35367802Y-76289431D01*
X35367346Y-76298746D01*
X35364660Y-76310066D01*
X27570500Y-76310066D01*
X27570500Y-42412371D01*
X27573755Y-42383918D01*
X27574043Y-42382676D01*
X27574044Y-42382669D01*
X27575655Y-42375718D01*
X27575656Y-42375000D01*
X28364422Y-42375000D01*
X28384722Y-42762338D01*
X28445398Y-43145433D01*
X28545786Y-43520087D01*
X28684786Y-43882194D01*
X28860875Y-44227789D01*
X29072124Y-44553084D01*
X29316219Y-44854516D01*
X29590484Y-45128781D01*
X29891916Y-45372876D01*
X30217211Y-45584125D01*
X30562806Y-45760214D01*
X30924913Y-45899214D01*
X31299567Y-45999602D01*
X31503201Y-46031854D01*
X31679414Y-46059764D01*
X31679422Y-46059765D01*
X31682662Y-46060278D01*
X32070000Y-46080578D01*
X32457338Y-46060278D01*
X32460578Y-46059765D01*
X32460586Y-46059764D01*
X32636799Y-46031854D01*
X32840433Y-45999602D01*
X33215087Y-45899214D01*
X33577194Y-45760214D01*
X33922789Y-45584125D01*
X34248084Y-45372876D01*
X34549516Y-45128781D01*
X34823781Y-44854516D01*
X35067876Y-44553084D01*
X35279125Y-44227789D01*
X35415536Y-43960066D01*
X46464660Y-43960066D01*
X46466229Y-43971595D01*
X46466229Y-43971596D01*
X46468349Y-43987173D01*
X46469500Y-44004164D01*
X46469500Y-56422634D01*
X46469304Y-56425307D01*
X46467575Y-56430342D01*
X46468011Y-56441964D01*
X46468011Y-56441966D01*
X46469411Y-56479255D01*
X46469500Y-56483981D01*
X46469500Y-56502948D01*
X46470382Y-56507683D01*
X46470610Y-56511209D01*
X46471774Y-56542208D01*
X46476364Y-56552893D01*
X46477401Y-56557493D01*
X46480962Y-56569214D01*
X46482661Y-56573617D01*
X46484791Y-56585053D01*
X46497727Y-56606039D01*
X46506231Y-56622411D01*
X46512451Y-56636888D01*
X46512453Y-56636892D01*
X46515964Y-56645063D01*
X46519978Y-56649949D01*
X46522163Y-56652134D01*
X46524215Y-56654397D01*
X46524055Y-56654542D01*
X46531175Y-56663549D01*
X46537427Y-56670444D01*
X46543532Y-56680348D01*
X46565320Y-56696916D01*
X46578139Y-56708110D01*
X47020481Y-57150452D01*
X47022237Y-57152486D01*
X47024575Y-57157269D01*
X47033104Y-57165181D01*
X47033105Y-57165182D01*
X47060477Y-57190573D01*
X47063882Y-57193853D01*
X47077277Y-57207248D01*
X47081247Y-57209972D01*
X47083895Y-57212297D01*
X47106646Y-57233401D01*
X47117453Y-57237713D01*
X47121438Y-57240232D01*
X47132247Y-57246004D01*
X47136552Y-57247911D01*
X47146146Y-57254493D01*
X47169630Y-57260066D01*
X47170136Y-57260186D01*
X47187732Y-57265751D01*
X47210622Y-57274883D01*
X47216915Y-57275500D01*
X47219997Y-57275500D01*
X47223067Y-57275650D01*
X47223056Y-57275866D01*
X47234431Y-57277198D01*
X47243745Y-57277653D01*
X47255066Y-57280340D01*
X47266595Y-57278771D01*
X47266596Y-57278771D01*
X47282173Y-57276651D01*
X47299164Y-57275500D01*
X47743501Y-57275500D01*
X47811622Y-57295502D01*
X47858115Y-57349158D01*
X47869501Y-57401500D01*
X47869501Y-57530992D01*
X47869764Y-57533850D01*
X47869764Y-57533859D01*
X47872813Y-57567043D01*
X47876171Y-57603594D01*
X47926873Y-57765383D01*
X48014703Y-57910408D01*
X48134592Y-58030297D01*
X48279617Y-58118127D01*
X48286864Y-58120398D01*
X48286866Y-58120399D01*
X48352106Y-58140844D01*
X48441406Y-58168829D01*
X48514007Y-58175500D01*
X48516905Y-58175500D01*
X50074037Y-58175499D01*
X51625992Y-58175499D01*
X51628850Y-58175236D01*
X51628859Y-58175236D01*
X51664243Y-58171985D01*
X51698594Y-58168829D01*
X51712242Y-58164552D01*
X51853134Y-58120399D01*
X51853136Y-58120398D01*
X51860383Y-58118127D01*
X52005408Y-58030297D01*
X52125297Y-57910408D01*
X52213127Y-57765383D01*
X52263829Y-57603594D01*
X52270500Y-57530993D01*
X52270499Y-56419008D01*
X52270234Y-56416116D01*
X52265210Y-56361439D01*
X52263829Y-56346406D01*
X52256238Y-56322182D01*
X52215399Y-56191866D01*
X52215398Y-56191864D01*
X52213127Y-56184617D01*
X52125297Y-56039592D01*
X52005408Y-55919703D01*
X51860383Y-55831873D01*
X51853136Y-55829602D01*
X51853134Y-55829601D01*
X51787894Y-55809156D01*
X51698594Y-55781171D01*
X51625993Y-55774500D01*
X51623095Y-55774500D01*
X50065963Y-55774501D01*
X48514008Y-55774501D01*
X48511150Y-55774764D01*
X48511141Y-55774764D01*
X48475757Y-55778015D01*
X48441406Y-55781171D01*
X48435028Y-55783170D01*
X48435027Y-55783170D01*
X48286866Y-55829601D01*
X48286864Y-55829602D01*
X48279617Y-55831873D01*
X48134592Y-55919703D01*
X48014703Y-56039592D01*
X47926873Y-56184617D01*
X47924602Y-56191864D01*
X47924601Y-56191866D01*
X47914670Y-56223557D01*
X47876171Y-56346406D01*
X47869500Y-56419007D01*
X47869500Y-56548500D01*
X47849498Y-56616621D01*
X47795842Y-56663114D01*
X47743500Y-56674500D01*
X47446663Y-56674500D01*
X47378542Y-56654498D01*
X47357568Y-56637596D01*
X47107405Y-56387434D01*
X47073380Y-56325121D01*
X47070500Y-56298338D01*
X47070500Y-44151661D01*
X47090502Y-44083540D01*
X47107405Y-44062566D01*
X51457567Y-39712405D01*
X51519879Y-39678379D01*
X51546662Y-39675500D01*
X100493339Y-39675500D01*
X100561460Y-39695502D01*
X100582434Y-39712405D01*
X110220481Y-49350452D01*
X110222237Y-49352486D01*
X110224575Y-49357269D01*
X110233104Y-49365181D01*
X110233105Y-49365182D01*
X110260477Y-49390573D01*
X110263882Y-49393853D01*
X110277277Y-49407248D01*
X110281247Y-49409972D01*
X110283895Y-49412297D01*
X110306646Y-49433401D01*
X110317453Y-49437713D01*
X110321438Y-49440232D01*
X110332247Y-49446004D01*
X110336552Y-49447911D01*
X110346146Y-49454493D01*
X110369352Y-49460000D01*
X110370136Y-49460186D01*
X110387718Y-49465745D01*
X110390182Y-49466728D01*
X110446043Y-49510543D01*
X110469500Y-49583761D01*
X110469500Y-49594748D01*
X110470707Y-49600816D01*
X110478551Y-49640249D01*
X110481133Y-49653231D01*
X110488026Y-49663547D01*
X110488027Y-49663549D01*
X110498016Y-49678499D01*
X110519230Y-49746252D01*
X110500447Y-49814719D01*
X110447629Y-49862161D01*
X110393250Y-49874500D01*
X109946662Y-49874500D01*
X109878541Y-49854498D01*
X109857567Y-49837595D01*
X100319519Y-40299548D01*
X100317763Y-40297514D01*
X100315425Y-40292731D01*
X100305081Y-40283135D01*
X100279523Y-40259427D01*
X100276118Y-40256147D01*
X100262723Y-40242752D01*
X100258753Y-40240028D01*
X100256105Y-40237703D01*
X100241881Y-40224508D01*
X100241878Y-40224506D01*
X100233354Y-40216599D01*
X100222550Y-40212289D01*
X100218561Y-40209767D01*
X100207773Y-40204006D01*
X100203448Y-40202089D01*
X100193854Y-40195508D01*
X100182535Y-40192822D01*
X100182533Y-40192821D01*
X100169873Y-40189817D01*
X100152276Y-40184252D01*
X100137638Y-40178412D01*
X100137635Y-40178411D01*
X100129378Y-40175117D01*
X100123085Y-40174500D01*
X100120006Y-40174500D01*
X100116933Y-40174350D01*
X100116944Y-40174134D01*
X100105569Y-40172802D01*
X100096254Y-40172346D01*
X100084934Y-40169660D01*
X100073405Y-40171229D01*
X100073404Y-40171229D01*
X100057827Y-40173349D01*
X100040836Y-40174500D01*
X54822370Y-40174500D01*
X54819695Y-40174304D01*
X54814658Y-40172574D01*
X54765730Y-40174411D01*
X54761003Y-40174500D01*
X54742052Y-40174500D01*
X54737319Y-40175382D01*
X54733792Y-40175610D01*
X54714420Y-40176337D01*
X54714418Y-40176338D01*
X54702792Y-40176774D01*
X54692100Y-40181368D01*
X54687497Y-40182405D01*
X54675786Y-40185962D01*
X54671383Y-40187661D01*
X54659947Y-40189791D01*
X54643891Y-40199688D01*
X54638961Y-40202727D01*
X54622589Y-40211231D01*
X54608109Y-40217452D01*
X54608104Y-40217455D01*
X54599937Y-40220964D01*
X54595051Y-40224977D01*
X54592868Y-40227160D01*
X54590592Y-40229224D01*
X54590446Y-40229063D01*
X54581461Y-40236165D01*
X54574554Y-40242428D01*
X54564652Y-40248532D01*
X54548094Y-40270307D01*
X54536893Y-40283135D01*
X49894548Y-44925481D01*
X49892514Y-44927237D01*
X49887731Y-44929575D01*
X49879819Y-44938104D01*
X49879818Y-44938105D01*
X49854427Y-44965477D01*
X49851147Y-44968882D01*
X49837752Y-44982277D01*
X49835028Y-44986247D01*
X49832703Y-44988895D01*
X49819508Y-45003119D01*
X49819506Y-45003122D01*
X49811599Y-45011646D01*
X49807289Y-45022450D01*
X49804767Y-45026439D01*
X49799006Y-45037227D01*
X49797089Y-45041552D01*
X49790508Y-45051146D01*
X49787822Y-45062465D01*
X49787821Y-45062467D01*
X49784817Y-45075127D01*
X49779252Y-45092724D01*
X49770117Y-45115622D01*
X49769500Y-45121915D01*
X49769500Y-45124994D01*
X49769350Y-45128067D01*
X49769134Y-45128056D01*
X49767802Y-45139431D01*
X49767346Y-45148746D01*
X49764660Y-45160066D01*
X49766229Y-45171595D01*
X49766229Y-45171596D01*
X49768349Y-45187173D01*
X49769500Y-45204164D01*
X49769500Y-47648501D01*
X49749498Y-47716622D01*
X49695842Y-47763115D01*
X49643500Y-47774501D01*
X48514008Y-47774501D01*
X48511150Y-47774764D01*
X48511141Y-47774764D01*
X48475757Y-47778015D01*
X48441406Y-47781171D01*
X48435028Y-47783170D01*
X48435027Y-47783170D01*
X48286866Y-47829601D01*
X48286864Y-47829602D01*
X48279617Y-47831873D01*
X48134592Y-47919703D01*
X48014703Y-48039592D01*
X47926873Y-48184617D01*
X47876171Y-48346406D01*
X47869500Y-48419007D01*
X47869501Y-49530992D01*
X47869764Y-49533850D01*
X47869764Y-49533859D01*
X47869869Y-49535003D01*
X47876171Y-49603594D01*
X47878170Y-49609972D01*
X47878170Y-49609973D01*
X47924238Y-49756974D01*
X47926873Y-49765383D01*
X48014703Y-49910408D01*
X48134592Y-50030297D01*
X48279617Y-50118127D01*
X48286864Y-50120398D01*
X48286866Y-50120399D01*
X48352106Y-50140844D01*
X48441406Y-50168829D01*
X48514007Y-50175500D01*
X48516905Y-50175500D01*
X50074037Y-50175499D01*
X51625992Y-50175499D01*
X51628850Y-50175236D01*
X51628859Y-50175236D01*
X51664243Y-50171985D01*
X51698594Y-50168829D01*
X51704979Y-50166828D01*
X51853134Y-50120399D01*
X51853136Y-50120398D01*
X51860383Y-50118127D01*
X52005408Y-50030297D01*
X52125297Y-49910408D01*
X52213127Y-49765383D01*
X52215763Y-49756974D01*
X52247705Y-49655045D01*
X52263829Y-49603594D01*
X52270500Y-49530993D01*
X52270499Y-48419008D01*
X52270234Y-48416116D01*
X52264440Y-48353060D01*
X52263829Y-48346406D01*
X52213127Y-48184617D01*
X52125297Y-48039592D01*
X52005408Y-47919703D01*
X51860383Y-47831873D01*
X51853136Y-47829602D01*
X51853134Y-47829601D01*
X51787894Y-47809156D01*
X51698594Y-47781171D01*
X51625993Y-47774500D01*
X50496500Y-47774500D01*
X50428379Y-47754498D01*
X50381886Y-47700842D01*
X50370500Y-47648500D01*
X50370500Y-45351661D01*
X50390502Y-45283540D01*
X50407405Y-45262566D01*
X54857566Y-40812405D01*
X54919878Y-40778379D01*
X54946661Y-40775500D01*
X99893339Y-40775500D01*
X99961460Y-40795502D01*
X99982434Y-40812405D01*
X109520481Y-50350452D01*
X109522237Y-50352486D01*
X109524575Y-50357269D01*
X109533104Y-50365181D01*
X109533105Y-50365182D01*
X109560477Y-50390573D01*
X109563882Y-50393853D01*
X109577277Y-50407248D01*
X109581247Y-50409972D01*
X109583895Y-50412297D01*
X109606646Y-50433401D01*
X109617453Y-50437713D01*
X109621438Y-50440232D01*
X109632247Y-50446004D01*
X109636552Y-50447911D01*
X109646146Y-50454493D01*
X109670099Y-50460177D01*
X109670136Y-50460186D01*
X109687732Y-50465751D01*
X109710622Y-50474883D01*
X109716915Y-50475500D01*
X109719997Y-50475500D01*
X109723067Y-50475650D01*
X109723056Y-50475866D01*
X109734431Y-50477198D01*
X109743745Y-50477653D01*
X109755066Y-50480340D01*
X109766595Y-50478771D01*
X109766596Y-50478771D01*
X109782173Y-50476651D01*
X109799164Y-50475500D01*
X112493339Y-50475500D01*
X112561460Y-50495502D01*
X112582434Y-50512405D01*
X112632595Y-50562566D01*
X112666621Y-50624878D01*
X112669500Y-50651661D01*
X112669500Y-50656723D01*
X112649498Y-50724844D01*
X112595842Y-50771337D01*
X112518921Y-50780302D01*
X112495821Y-50775707D01*
X112495811Y-50775706D01*
X112489748Y-50774500D01*
X110650252Y-50774500D01*
X110644184Y-50775707D01*
X110603939Y-50783712D01*
X110603938Y-50783712D01*
X110591769Y-50786133D01*
X110525448Y-50830448D01*
X110481133Y-50896769D01*
X110478712Y-50908938D01*
X110478712Y-50908939D01*
X110474810Y-50928557D01*
X110469500Y-50955252D01*
X110469500Y-51794748D01*
X110470707Y-51800816D01*
X110476885Y-51831873D01*
X110481133Y-51853231D01*
X110488026Y-51863547D01*
X110488028Y-51863551D01*
X110498050Y-51878550D01*
X110519266Y-51946303D01*
X110500484Y-52014770D01*
X110482381Y-52037648D01*
X104482434Y-58037595D01*
X104420122Y-58071621D01*
X104393339Y-58074500D01*
X104031500Y-58074500D01*
X103963379Y-58054498D01*
X103916886Y-58000842D01*
X103905500Y-57948500D01*
X103905500Y-55080252D01*
X103893867Y-55021769D01*
X103849552Y-54955448D01*
X103817658Y-54934137D01*
X103793547Y-54918026D01*
X103783231Y-54911133D01*
X103771062Y-54908712D01*
X103771061Y-54908712D01*
X103730816Y-54900707D01*
X103724748Y-54899500D01*
X103496500Y-54899500D01*
X103428379Y-54879498D01*
X103381886Y-54825842D01*
X103370500Y-54773500D01*
X103370500Y-45427366D01*
X103370696Y-45424693D01*
X103372425Y-45419658D01*
X103370589Y-45370744D01*
X103370500Y-45366018D01*
X103370500Y-45347052D01*
X103369619Y-45342317D01*
X103369390Y-45338790D01*
X103368662Y-45319415D01*
X103368226Y-45307791D01*
X103363634Y-45297104D01*
X103362595Y-45292492D01*
X103359043Y-45280800D01*
X103357339Y-45276383D01*
X103355209Y-45264947D01*
X103342272Y-45243959D01*
X103333769Y-45227589D01*
X103327549Y-45213112D01*
X103327547Y-45213108D01*
X103324036Y-45204937D01*
X103320022Y-45200051D01*
X103317837Y-45197866D01*
X103315785Y-45195603D01*
X103315945Y-45195458D01*
X103308825Y-45186451D01*
X103302573Y-45179556D01*
X103296468Y-45169652D01*
X103274680Y-45153084D01*
X103261861Y-45141890D01*
X99319519Y-41199548D01*
X99317763Y-41197514D01*
X99315425Y-41192731D01*
X99279523Y-41159427D01*
X99276118Y-41156147D01*
X99262723Y-41142752D01*
X99258753Y-41140028D01*
X99256105Y-41137703D01*
X99241881Y-41124508D01*
X99241878Y-41124506D01*
X99233354Y-41116599D01*
X99222550Y-41112289D01*
X99218561Y-41109767D01*
X99207773Y-41104006D01*
X99203448Y-41102089D01*
X99193854Y-41095508D01*
X99182535Y-41092822D01*
X99182533Y-41092821D01*
X99169873Y-41089817D01*
X99152276Y-41084252D01*
X99137638Y-41078412D01*
X99137635Y-41078411D01*
X99129378Y-41075117D01*
X99123085Y-41074500D01*
X99120006Y-41074500D01*
X99116933Y-41074350D01*
X99116944Y-41074134D01*
X99105569Y-41072802D01*
X99096254Y-41072346D01*
X99084934Y-41069660D01*
X99073405Y-41071229D01*
X99073404Y-41071229D01*
X99057827Y-41073349D01*
X99040836Y-41074500D01*
X57022372Y-41074500D01*
X57019695Y-41074303D01*
X57014658Y-41072574D01*
X57003037Y-41073010D01*
X57003035Y-41073010D01*
X56965730Y-41074411D01*
X56961003Y-41074500D01*
X56942052Y-41074500D01*
X56937319Y-41075382D01*
X56933792Y-41075610D01*
X56914420Y-41076337D01*
X56914418Y-41076338D01*
X56902792Y-41076774D01*
X56892100Y-41081368D01*
X56887497Y-41082405D01*
X56875787Y-41085962D01*
X56871384Y-41087661D01*
X56859947Y-41089791D01*
X56850046Y-41095894D01*
X56850043Y-41095895D01*
X56838956Y-41102729D01*
X56822585Y-41111233D01*
X56808109Y-41117453D01*
X56808107Y-41117454D01*
X56799938Y-41120964D01*
X56795052Y-41124977D01*
X56792869Y-41127160D01*
X56790593Y-41129224D01*
X56790447Y-41129063D01*
X56781451Y-41136175D01*
X56774556Y-41142427D01*
X56764652Y-41148532D01*
X56748084Y-41170320D01*
X56736890Y-41183139D01*
X52994548Y-44925481D01*
X52992514Y-44927237D01*
X52987731Y-44929575D01*
X52979819Y-44938104D01*
X52979818Y-44938105D01*
X52954427Y-44965477D01*
X52951147Y-44968882D01*
X52937752Y-44982277D01*
X52935028Y-44986247D01*
X52932703Y-44988895D01*
X52919508Y-45003119D01*
X52919506Y-45003122D01*
X52911599Y-45011646D01*
X52907289Y-45022450D01*
X52904767Y-45026439D01*
X52899006Y-45037227D01*
X52897089Y-45041552D01*
X52890508Y-45051146D01*
X52887822Y-45062465D01*
X52887821Y-45062467D01*
X52884817Y-45075127D01*
X52879252Y-45092724D01*
X52870117Y-45115622D01*
X52869500Y-45121915D01*
X52869500Y-45124994D01*
X52869350Y-45128067D01*
X52869134Y-45128056D01*
X52867802Y-45139431D01*
X52867346Y-45148746D01*
X52864660Y-45160066D01*
X52866229Y-45171595D01*
X52866229Y-45171596D01*
X52868349Y-45187173D01*
X52869500Y-45204164D01*
X52869500Y-50598339D01*
X52849498Y-50666460D01*
X52832595Y-50687434D01*
X51777252Y-51742777D01*
X51714940Y-51776803D01*
X51676630Y-51779153D01*
X51625993Y-51774500D01*
X51623095Y-51774500D01*
X50065963Y-51774501D01*
X48514008Y-51774501D01*
X48511150Y-51774764D01*
X48511141Y-51774764D01*
X48475757Y-51778015D01*
X48441406Y-51781171D01*
X48435028Y-51783170D01*
X48435027Y-51783170D01*
X48286866Y-51829601D01*
X48286864Y-51829602D01*
X48279617Y-51831873D01*
X48134592Y-51919703D01*
X48014703Y-52039592D01*
X47926873Y-52184617D01*
X47876171Y-52346406D01*
X47869500Y-52419007D01*
X47869500Y-52421905D01*
X47869501Y-52975707D01*
X47869501Y-53530992D01*
X47869764Y-53533850D01*
X47869764Y-53533859D01*
X47869800Y-53534248D01*
X47876171Y-53603594D01*
X47878170Y-53609972D01*
X47878170Y-53609973D01*
X47924199Y-53756849D01*
X47926873Y-53765383D01*
X48014703Y-53910408D01*
X48134592Y-54030297D01*
X48279617Y-54118127D01*
X48286864Y-54120398D01*
X48286866Y-54120399D01*
X48352106Y-54140844D01*
X48441406Y-54168829D01*
X48514007Y-54175500D01*
X48516905Y-54175500D01*
X50074037Y-54175499D01*
X51625992Y-54175499D01*
X51628850Y-54175236D01*
X51628859Y-54175236D01*
X51664243Y-54171985D01*
X51698594Y-54168829D01*
X51704979Y-54166828D01*
X51853134Y-54120399D01*
X51853136Y-54120398D01*
X51860383Y-54118127D01*
X52005408Y-54030297D01*
X52125297Y-53910408D01*
X52213127Y-53765383D01*
X52215802Y-53756849D01*
X52252331Y-53640283D01*
X52263829Y-53603594D01*
X52270500Y-53530993D01*
X52270500Y-52975000D01*
X52270500Y-52961192D01*
X56114447Y-52961192D01*
X56114597Y-52964373D01*
X56130823Y-53308444D01*
X56133301Y-53360997D01*
X56192462Y-53756849D01*
X56193248Y-53759931D01*
X56193248Y-53759933D01*
X56290523Y-54141556D01*
X56291323Y-54144696D01*
X56428872Y-54520567D01*
X56603701Y-54880614D01*
X56605373Y-54883321D01*
X56605374Y-54883323D01*
X56622550Y-54911133D01*
X56814021Y-55221150D01*
X56815964Y-55223683D01*
X56815966Y-55223685D01*
X57051169Y-55530206D01*
X57057677Y-55538688D01*
X57164124Y-55651647D01*
X57288065Y-55783170D01*
X57332174Y-55829978D01*
X57334579Y-55832062D01*
X57334585Y-55832067D01*
X57567953Y-56034216D01*
X57634704Y-56092037D01*
X57962167Y-56322182D01*
X58005334Y-56346406D01*
X58293878Y-56508330D01*
X58311211Y-56518057D01*
X58314126Y-56519324D01*
X58314129Y-56519326D01*
X58401907Y-56557493D01*
X58678263Y-56677656D01*
X59059565Y-56799344D01*
X59199116Y-56828752D01*
X59448092Y-56881220D01*
X59448097Y-56881221D01*
X59451211Y-56881877D01*
X59849194Y-56924409D01*
X59852382Y-56924426D01*
X59852387Y-56924426D01*
X60033973Y-56925377D01*
X60249437Y-56926505D01*
X60400994Y-56911912D01*
X60644678Y-56888448D01*
X60644683Y-56888447D01*
X60647843Y-56888143D01*
X60650962Y-56887520D01*
X60650967Y-56887519D01*
X60844976Y-56848752D01*
X61040332Y-56809716D01*
X61407021Y-56696908D01*
X61419845Y-56692963D01*
X61419848Y-56692962D01*
X61422887Y-56692027D01*
X61425815Y-56690790D01*
X61425821Y-56690788D01*
X61670324Y-56587505D01*
X61791590Y-56536280D01*
X61794393Y-56534746D01*
X61794398Y-56534743D01*
X61995331Y-56424735D01*
X62142667Y-56344071D01*
X62472522Y-56117368D01*
X62474961Y-56115300D01*
X62474967Y-56115295D01*
X62775338Y-55860562D01*
X62777779Y-55858492D01*
X62779985Y-55856200D01*
X62779991Y-55856194D01*
X62942528Y-55687292D01*
X63055312Y-55570092D01*
X63057853Y-55566852D01*
X63124519Y-55481829D01*
X63302280Y-55255122D01*
X63349220Y-55180871D01*
X63514444Y-54919511D01*
X63516153Y-54916808D01*
X63517573Y-54913960D01*
X63517578Y-54913951D01*
X63693323Y-54561459D01*
X63694743Y-54558611D01*
X63796636Y-54288959D01*
X63835097Y-54187176D01*
X63835098Y-54187173D01*
X63836221Y-54184201D01*
X63838537Y-54175499D01*
X63938317Y-53800496D01*
X63939138Y-53797411D01*
X63943228Y-53771880D01*
X63981812Y-53530992D01*
X64002441Y-53402200D01*
X64003196Y-53389119D01*
X64015095Y-53182732D01*
X64025481Y-53002615D01*
X64025577Y-52975000D01*
X64025209Y-52967723D01*
X64005488Y-52578437D01*
X64005487Y-52578432D01*
X64005327Y-52575264D01*
X63959609Y-52276493D01*
X63945269Y-52182781D01*
X63945267Y-52182772D01*
X63944785Y-52179621D01*
X63901540Y-52012405D01*
X63845368Y-51795201D01*
X63845365Y-51795193D01*
X63844571Y-51792121D01*
X63840837Y-51782026D01*
X63706820Y-51419729D01*
X63706817Y-51419723D01*
X63705711Y-51416732D01*
X63529626Y-51057298D01*
X63446382Y-50923562D01*
X63319806Y-50720208D01*
X63319798Y-50720197D01*
X63318119Y-50717499D01*
X63226022Y-50598339D01*
X63075308Y-50403337D01*
X63075303Y-50403332D01*
X63073356Y-50400812D01*
X62939686Y-50259953D01*
X62800042Y-50112799D01*
X62800039Y-50112797D01*
X62797843Y-50110482D01*
X62786794Y-50100978D01*
X62496816Y-49851558D01*
X62496813Y-49851556D01*
X62494401Y-49849481D01*
X62166136Y-49620480D01*
X61895015Y-49469576D01*
X61819195Y-49427375D01*
X61819193Y-49427374D01*
X61816410Y-49425825D01*
X61813490Y-49424567D01*
X61813485Y-49424565D01*
X61451738Y-49268772D01*
X61451728Y-49268768D01*
X61448804Y-49267509D01*
X61067080Y-49147152D01*
X60785854Y-49088913D01*
X60678272Y-49066634D01*
X60678269Y-49066634D01*
X60675147Y-49065987D01*
X60369738Y-49034426D01*
X60280175Y-49025170D01*
X60280172Y-49025170D01*
X60277019Y-49024844D01*
X60273852Y-49024838D01*
X60273843Y-49024838D01*
X60076515Y-49024494D01*
X59876771Y-49024145D01*
X59576479Y-49054118D01*
X59481686Y-49063580D01*
X59481684Y-49063580D01*
X59478501Y-49063898D01*
X59475361Y-49064537D01*
X59475360Y-49064537D01*
X59089422Y-49143057D01*
X59089415Y-49143059D01*
X59086288Y-49143695D01*
X58704146Y-49262719D01*
X58701218Y-49263968D01*
X58338919Y-49418501D01*
X58338915Y-49418503D01*
X58335989Y-49419751D01*
X58333210Y-49421285D01*
X58333204Y-49421288D01*
X58114735Y-49541890D01*
X57985586Y-49613184D01*
X57982965Y-49614999D01*
X57982960Y-49615002D01*
X57744673Y-49780000D01*
X57656524Y-49841037D01*
X57352172Y-50100978D01*
X57349972Y-50103280D01*
X57349969Y-50103283D01*
X57280958Y-50175499D01*
X57075648Y-50390344D01*
X57073691Y-50392858D01*
X57073690Y-50392859D01*
X56844370Y-50687434D01*
X56829781Y-50706174D01*
X56828085Y-50708878D01*
X56828082Y-50708882D01*
X56709433Y-50898026D01*
X56617090Y-51045234D01*
X56439751Y-51404051D01*
X56299581Y-51778953D01*
X56198015Y-52166100D01*
X56183488Y-52258867D01*
X56137779Y-52550758D01*
X56136092Y-52561530D01*
X56135921Y-52564692D01*
X56135920Y-52564699D01*
X56119617Y-52865724D01*
X56114447Y-52961192D01*
X52270500Y-52961192D01*
X52270499Y-52421891D01*
X52270499Y-52419008D01*
X52270234Y-52416116D01*
X52264440Y-52353060D01*
X52263829Y-52346406D01*
X52229319Y-52236285D01*
X52228034Y-52165303D01*
X52260458Y-52109513D01*
X53345452Y-51024519D01*
X53347486Y-51022763D01*
X53352269Y-51020425D01*
X53379145Y-50991453D01*
X53385573Y-50984523D01*
X53388853Y-50981118D01*
X53402248Y-50967723D01*
X53404972Y-50963753D01*
X53407297Y-50961105D01*
X53420490Y-50946882D01*
X53428401Y-50938354D01*
X53432713Y-50927547D01*
X53435232Y-50923562D01*
X53441004Y-50912753D01*
X53442911Y-50908448D01*
X53449493Y-50898854D01*
X53455186Y-50874864D01*
X53460751Y-50857268D01*
X53466586Y-50842642D01*
X53469883Y-50834378D01*
X53470500Y-50828085D01*
X53470500Y-50825003D01*
X53470650Y-50821933D01*
X53470866Y-50821944D01*
X53472198Y-50810569D01*
X53472653Y-50801255D01*
X53475340Y-50789934D01*
X53471651Y-50762827D01*
X53470500Y-50745836D01*
X53470500Y-45351661D01*
X53490502Y-45283540D01*
X53507405Y-45262566D01*
X57057566Y-41712405D01*
X57119878Y-41678379D01*
X57146661Y-41675500D01*
X98893339Y-41675500D01*
X98961460Y-41695502D01*
X98982434Y-41712405D01*
X102732595Y-45462567D01*
X102766621Y-45524879D01*
X102769500Y-45551662D01*
X102769500Y-54773500D01*
X102749498Y-54841621D01*
X102695842Y-54888114D01*
X102643500Y-54899500D01*
X102415252Y-54899500D01*
X102409184Y-54900707D01*
X102368939Y-54908712D01*
X102368938Y-54908712D01*
X102356769Y-54911133D01*
X102346453Y-54918026D01*
X102322342Y-54934137D01*
X102290448Y-54955448D01*
X102246133Y-55021769D01*
X102234500Y-55080252D01*
X102234500Y-57948500D01*
X102214498Y-58016621D01*
X102160842Y-58063114D01*
X102108500Y-58074500D01*
X102061662Y-58074500D01*
X101993541Y-58054498D01*
X101972567Y-58037595D01*
X100942405Y-57007434D01*
X100908380Y-56945122D01*
X100905500Y-56918339D01*
X100905500Y-55080252D01*
X100893867Y-55021769D01*
X100849552Y-54955448D01*
X100817658Y-54934137D01*
X100793547Y-54918026D01*
X100783231Y-54911133D01*
X100771062Y-54908712D01*
X100771061Y-54908712D01*
X100730816Y-54900707D01*
X100724748Y-54899500D01*
X99415252Y-54899500D01*
X99409184Y-54900707D01*
X99368939Y-54908712D01*
X99368938Y-54908712D01*
X99356769Y-54911133D01*
X99346453Y-54918026D01*
X99322342Y-54934137D01*
X99290448Y-54955448D01*
X99246133Y-55021769D01*
X99234500Y-55080252D01*
X99234500Y-58039748D01*
X99235707Y-58045816D01*
X99242508Y-58080005D01*
X99246133Y-58098231D01*
X99290448Y-58164552D01*
X99356769Y-58208867D01*
X99368938Y-58211288D01*
X99368939Y-58211288D01*
X99409184Y-58219293D01*
X99415252Y-58220500D01*
X100724748Y-58220500D01*
X100730816Y-58219293D01*
X100771061Y-58211288D01*
X100771062Y-58211288D01*
X100783231Y-58208867D01*
X100849552Y-58164552D01*
X100893867Y-58098231D01*
X100896288Y-58086061D01*
X100901037Y-58074595D01*
X100902593Y-58075240D01*
X100928800Y-58025140D01*
X100990495Y-57990009D01*
X101061390Y-57993809D01*
X101108566Y-58023537D01*
X101635481Y-58550452D01*
X101637237Y-58552486D01*
X101639575Y-58557269D01*
X101648104Y-58565181D01*
X101648105Y-58565182D01*
X101675477Y-58590573D01*
X101678882Y-58593853D01*
X101692277Y-58607248D01*
X101696247Y-58609972D01*
X101698895Y-58612297D01*
X101702113Y-58615282D01*
X101721646Y-58633401D01*
X101732453Y-58637713D01*
X101736438Y-58640232D01*
X101747247Y-58646004D01*
X101751552Y-58647911D01*
X101761146Y-58654493D01*
X101785099Y-58660177D01*
X101785136Y-58660186D01*
X101802732Y-58665751D01*
X101825622Y-58674883D01*
X101831915Y-58675500D01*
X101834997Y-58675500D01*
X101838067Y-58675650D01*
X101838056Y-58675866D01*
X101849431Y-58677198D01*
X101858745Y-58677653D01*
X101870066Y-58680340D01*
X101881595Y-58678771D01*
X101881596Y-58678771D01*
X101897173Y-58676651D01*
X101914164Y-58675500D01*
X104517634Y-58675500D01*
X104520307Y-58675696D01*
X104525342Y-58677425D01*
X104536964Y-58676989D01*
X104536966Y-58676989D01*
X104574255Y-58675589D01*
X104578981Y-58675500D01*
X104597948Y-58675500D01*
X104602683Y-58674618D01*
X104606209Y-58674390D01*
X104609949Y-58674249D01*
X104637208Y-58673226D01*
X104647893Y-58668636D01*
X104652493Y-58667599D01*
X104664214Y-58664038D01*
X104668617Y-58662339D01*
X104680053Y-58660209D01*
X104701041Y-58647272D01*
X104717411Y-58638769D01*
X104731888Y-58632549D01*
X104731892Y-58632547D01*
X104740063Y-58629036D01*
X104744949Y-58625022D01*
X104747134Y-58622837D01*
X104749397Y-58620785D01*
X104749542Y-58620945D01*
X104758549Y-58613825D01*
X104765444Y-58607573D01*
X104775348Y-58601468D01*
X104791916Y-58579680D01*
X104803110Y-58566861D01*
X110254405Y-53115566D01*
X110316717Y-53081540D01*
X110387532Y-53086605D01*
X110444368Y-53129152D01*
X110469179Y-53195672D01*
X110469500Y-53204661D01*
X110469500Y-53498339D01*
X110449498Y-53566460D01*
X110432595Y-53587434D01*
X104120595Y-59899434D01*
X104058283Y-59933460D01*
X103987468Y-59928395D01*
X103930632Y-59885848D01*
X103905821Y-59819328D01*
X103905500Y-59810339D01*
X103905500Y-59710252D01*
X103902341Y-59694369D01*
X103896288Y-59663939D01*
X103896288Y-59663938D01*
X103893867Y-59651769D01*
X103849552Y-59585448D01*
X103783231Y-59541133D01*
X103771062Y-59538712D01*
X103771061Y-59538712D01*
X103730816Y-59530707D01*
X103724748Y-59529500D01*
X102415252Y-59529500D01*
X102409184Y-59530707D01*
X102368939Y-59538712D01*
X102368938Y-59538712D01*
X102356769Y-59541133D01*
X102290448Y-59585448D01*
X102246133Y-59651769D01*
X102243712Y-59663938D01*
X102243712Y-59663939D01*
X102237659Y-59694369D01*
X102234500Y-59710252D01*
X102234500Y-62625339D01*
X102214498Y-62693460D01*
X102160842Y-62739953D01*
X102090568Y-62750057D01*
X102025988Y-62720563D01*
X102019405Y-62714434D01*
X100942405Y-61637434D01*
X100908379Y-61575122D01*
X100905500Y-61548339D01*
X100905500Y-59710252D01*
X100902341Y-59694369D01*
X100896288Y-59663939D01*
X100896288Y-59663938D01*
X100893867Y-59651769D01*
X100849552Y-59585448D01*
X100783231Y-59541133D01*
X100771062Y-59538712D01*
X100771061Y-59538712D01*
X100730816Y-59530707D01*
X100724748Y-59529500D01*
X99415252Y-59529500D01*
X99409184Y-59530707D01*
X99368939Y-59538712D01*
X99368938Y-59538712D01*
X99356769Y-59541133D01*
X99290448Y-59585448D01*
X99246133Y-59651769D01*
X99243712Y-59663938D01*
X99243712Y-59663939D01*
X99237659Y-59694369D01*
X99234500Y-59710252D01*
X99234500Y-62669748D01*
X99235707Y-62675816D01*
X99243389Y-62714434D01*
X99246133Y-62728231D01*
X99253026Y-62738547D01*
X99255749Y-62742622D01*
X99290448Y-62794552D01*
X99356769Y-62838867D01*
X99368938Y-62841288D01*
X99368939Y-62841288D01*
X99409184Y-62849293D01*
X99415252Y-62850500D01*
X100724748Y-62850500D01*
X100730816Y-62849293D01*
X100771061Y-62841288D01*
X100771062Y-62841288D01*
X100783231Y-62838867D01*
X100849552Y-62794552D01*
X100884251Y-62742622D01*
X100886974Y-62738547D01*
X100893867Y-62728231D01*
X100896288Y-62716061D01*
X100901037Y-62704595D01*
X100902593Y-62705240D01*
X100928802Y-62655140D01*
X100990498Y-62620009D01*
X101061392Y-62623811D01*
X101108566Y-62653538D01*
X101905484Y-63450456D01*
X101907238Y-63452487D01*
X101909575Y-63457269D01*
X101918104Y-63465181D01*
X101918105Y-63465182D01*
X101945463Y-63490560D01*
X101948868Y-63493840D01*
X101962276Y-63507248D01*
X101966255Y-63509978D01*
X101968884Y-63512286D01*
X101991646Y-63533401D01*
X102002453Y-63537712D01*
X102006448Y-63540238D01*
X102017242Y-63546001D01*
X102021554Y-63547912D01*
X102031146Y-63554492D01*
X102042463Y-63557178D01*
X102042464Y-63557178D01*
X102055127Y-63560183D01*
X102072724Y-63565748D01*
X102087362Y-63571588D01*
X102087365Y-63571589D01*
X102095622Y-63574883D01*
X102101915Y-63575500D01*
X102104994Y-63575500D01*
X102108067Y-63575650D01*
X102108056Y-63575866D01*
X102119431Y-63577198D01*
X102128746Y-63577654D01*
X102140066Y-63580340D01*
X102151595Y-63578771D01*
X102151596Y-63578771D01*
X102167173Y-63576651D01*
X102184164Y-63575500D01*
X106117634Y-63575500D01*
X106120307Y-63575696D01*
X106125342Y-63577425D01*
X106136964Y-63576989D01*
X106136966Y-63576989D01*
X106174255Y-63575589D01*
X106178981Y-63575500D01*
X106197948Y-63575500D01*
X106202683Y-63574618D01*
X106206209Y-63574390D01*
X106209949Y-63574249D01*
X106237208Y-63573226D01*
X106247893Y-63568636D01*
X106252493Y-63567599D01*
X106264214Y-63564038D01*
X106268617Y-63562339D01*
X106280053Y-63560209D01*
X106301041Y-63547272D01*
X106317411Y-63538769D01*
X106331888Y-63532549D01*
X106331892Y-63532547D01*
X106340063Y-63529036D01*
X106344949Y-63525022D01*
X106347134Y-63522837D01*
X106349397Y-63520785D01*
X106349542Y-63520945D01*
X106358549Y-63513825D01*
X106365444Y-63507573D01*
X106375348Y-63501468D01*
X106391916Y-63479680D01*
X106403110Y-63466861D01*
X108845452Y-61024519D01*
X108847486Y-61022763D01*
X108852269Y-61020425D01*
X108885573Y-60984523D01*
X108888853Y-60981118D01*
X108902248Y-60967723D01*
X108904972Y-60963753D01*
X108907297Y-60961105D01*
X108914285Y-60953572D01*
X108928401Y-60938354D01*
X108932713Y-60927547D01*
X108935232Y-60923562D01*
X108941004Y-60912753D01*
X108942911Y-60908448D01*
X108949493Y-60898854D01*
X108955186Y-60874864D01*
X108960751Y-60857268D01*
X108966586Y-60842642D01*
X108969883Y-60834378D01*
X108970500Y-60828085D01*
X108970500Y-60825003D01*
X108970650Y-60821933D01*
X108970866Y-60821944D01*
X108972198Y-60810569D01*
X108972653Y-60801255D01*
X108975340Y-60789934D01*
X108971651Y-60762827D01*
X108970500Y-60745836D01*
X108970500Y-57451661D01*
X108990502Y-57383540D01*
X109007405Y-57362566D01*
X109175223Y-57194748D01*
X117469500Y-57194748D01*
X117470707Y-57200816D01*
X117477189Y-57233401D01*
X117481133Y-57253231D01*
X117525448Y-57319552D01*
X117591769Y-57363867D01*
X117603938Y-57366288D01*
X117603939Y-57366288D01*
X117644184Y-57374293D01*
X117650252Y-57375500D01*
X118143500Y-57375500D01*
X118211621Y-57395502D01*
X118258114Y-57449158D01*
X118269500Y-57501500D01*
X118269500Y-58922366D01*
X118249498Y-58990487D01*
X118195850Y-59035321D01*
X118191769Y-59036133D01*
X118125448Y-59080448D01*
X118081133Y-59146769D01*
X118069500Y-59205252D01*
X118069500Y-59944748D01*
X118081133Y-60003231D01*
X118125448Y-60069552D01*
X118191769Y-60113867D01*
X118196054Y-60114719D01*
X118246998Y-60155771D01*
X118269500Y-60227634D01*
X118269500Y-60555346D01*
X118249498Y-60623467D01*
X118199031Y-60668449D01*
X118172493Y-60681478D01*
X118172491Y-60681479D01*
X118163145Y-60686068D01*
X118080707Y-60768650D01*
X118076134Y-60778006D01*
X118076133Y-60778007D01*
X118068859Y-60792888D01*
X118029464Y-60873482D01*
X118028052Y-60883162D01*
X118020417Y-60935499D01*
X118019500Y-60941782D01*
X118019500Y-61608218D01*
X118020170Y-61612768D01*
X118020170Y-61612771D01*
X118028216Y-61667426D01*
X118029642Y-61677112D01*
X118050912Y-61720434D01*
X118071545Y-61762458D01*
X118081068Y-61781855D01*
X118088438Y-61789212D01*
X118154842Y-61855500D01*
X118163650Y-61864293D01*
X118173006Y-61868866D01*
X118173007Y-61868867D01*
X118195544Y-61879883D01*
X118268482Y-61915536D01*
X118298973Y-61919984D01*
X118332256Y-61924840D01*
X118332260Y-61924840D01*
X118336782Y-61925500D01*
X118703218Y-61925500D01*
X118707768Y-61924830D01*
X118707771Y-61924830D01*
X118762426Y-61916784D01*
X118762427Y-61916784D01*
X118772112Y-61915358D01*
X118842157Y-61880968D01*
X118867507Y-61868522D01*
X118867509Y-61868521D01*
X118876855Y-61863932D01*
X118935930Y-61804754D01*
X118951935Y-61788721D01*
X118951935Y-61788720D01*
X118959293Y-61781350D01*
X118968166Y-61763199D01*
X119000708Y-61696624D01*
X119010536Y-61676518D01*
X119020500Y-61608218D01*
X119020500Y-60941782D01*
X119018800Y-60930230D01*
X119011784Y-60882574D01*
X119011784Y-60882573D01*
X119010358Y-60872888D01*
X118976145Y-60803204D01*
X118963522Y-60777493D01*
X118963521Y-60777491D01*
X118958932Y-60768145D01*
X118951562Y-60760788D01*
X118951560Y-60760785D01*
X118907483Y-60716785D01*
X118873403Y-60654503D01*
X118870500Y-60627612D01*
X118870500Y-60227634D01*
X118890502Y-60159513D01*
X118944150Y-60114679D01*
X118948231Y-60113867D01*
X119014552Y-60069552D01*
X119058867Y-60003231D01*
X119070500Y-59944748D01*
X119070500Y-59205252D01*
X119058867Y-59146769D01*
X119014552Y-59080448D01*
X118948231Y-59036133D01*
X118943946Y-59035281D01*
X118893002Y-58994229D01*
X118870500Y-58922366D01*
X118870500Y-57501500D01*
X118890502Y-57433379D01*
X118944158Y-57386886D01*
X118996500Y-57375500D01*
X119489748Y-57375500D01*
X119495816Y-57374293D01*
X119536061Y-57366288D01*
X119536062Y-57366288D01*
X119548231Y-57363867D01*
X119614552Y-57319552D01*
X119658867Y-57253231D01*
X119662812Y-57233401D01*
X119669293Y-57200816D01*
X119670500Y-57194748D01*
X119670500Y-56355252D01*
X119658867Y-56296769D01*
X119614552Y-56230448D01*
X119548231Y-56186133D01*
X119536062Y-56183712D01*
X119536061Y-56183712D01*
X119495816Y-56175707D01*
X119489748Y-56174500D01*
X117650252Y-56174500D01*
X117644184Y-56175707D01*
X117603939Y-56183712D01*
X117603938Y-56183712D01*
X117591769Y-56186133D01*
X117525448Y-56230448D01*
X117481133Y-56296769D01*
X117469500Y-56355252D01*
X117469500Y-57194748D01*
X109175223Y-57194748D01*
X111157566Y-55212405D01*
X111219878Y-55178379D01*
X111246661Y-55175500D01*
X112817634Y-55175500D01*
X112820307Y-55175696D01*
X112825342Y-55177425D01*
X112836964Y-55176989D01*
X112836966Y-55176989D01*
X112874255Y-55175589D01*
X112878981Y-55175500D01*
X112897948Y-55175500D01*
X112902683Y-55174618D01*
X112906209Y-55174390D01*
X112909949Y-55174249D01*
X112937208Y-55173226D01*
X112947893Y-55168636D01*
X112952493Y-55167599D01*
X112964214Y-55164038D01*
X112968617Y-55162339D01*
X112980053Y-55160209D01*
X113001041Y-55147272D01*
X113017411Y-55138769D01*
X113031888Y-55132549D01*
X113031892Y-55132547D01*
X113040063Y-55129036D01*
X113044949Y-55125022D01*
X113047134Y-55122837D01*
X113049397Y-55120785D01*
X113049542Y-55120945D01*
X113058549Y-55113825D01*
X113065444Y-55107573D01*
X113075348Y-55101468D01*
X113091916Y-55079680D01*
X113103110Y-55066861D01*
X113845452Y-54324519D01*
X113847486Y-54322763D01*
X113852269Y-54320425D01*
X113885573Y-54284523D01*
X113888853Y-54281118D01*
X113902248Y-54267723D01*
X113904972Y-54263753D01*
X113907297Y-54261105D01*
X113920490Y-54246882D01*
X113928401Y-54238354D01*
X113932713Y-54227547D01*
X113935232Y-54223562D01*
X113941004Y-54212753D01*
X113942911Y-54208448D01*
X113949493Y-54198854D01*
X113955186Y-54174864D01*
X113960751Y-54157268D01*
X113966586Y-54142642D01*
X113969883Y-54134378D01*
X113970500Y-54128085D01*
X113970500Y-54125003D01*
X113970650Y-54121933D01*
X113970866Y-54121944D01*
X113972198Y-54110569D01*
X113972653Y-54101255D01*
X113975340Y-54089934D01*
X113972109Y-54066189D01*
X113971651Y-54062827D01*
X113970500Y-54045836D01*
X113970500Y-53994748D01*
X117469500Y-53994748D01*
X117470707Y-54000816D01*
X117478551Y-54040249D01*
X117481133Y-54053231D01*
X117525448Y-54119552D01*
X117591769Y-54163867D01*
X117603938Y-54166288D01*
X117603939Y-54166288D01*
X117619786Y-54169440D01*
X117650252Y-54175500D01*
X119489748Y-54175500D01*
X119520214Y-54169440D01*
X119536061Y-54166288D01*
X119536062Y-54166288D01*
X119548231Y-54163867D01*
X119614552Y-54119552D01*
X119658867Y-54053231D01*
X119661450Y-54040249D01*
X119669293Y-54000816D01*
X119670500Y-53994748D01*
X119670500Y-53155252D01*
X119669293Y-53149184D01*
X119661288Y-53108939D01*
X119661288Y-53108938D01*
X119658867Y-53096769D01*
X119614552Y-53030448D01*
X119548231Y-52986133D01*
X119536062Y-52983712D01*
X119536061Y-52983712D01*
X119495816Y-52975707D01*
X119489748Y-52974500D01*
X117650252Y-52974500D01*
X117644184Y-52975707D01*
X117603939Y-52983712D01*
X117603938Y-52983712D01*
X117591769Y-52986133D01*
X117525448Y-53030448D01*
X117481133Y-53096769D01*
X117478712Y-53108938D01*
X117478712Y-53108939D01*
X117470707Y-53149184D01*
X117469500Y-53155252D01*
X117469500Y-53994748D01*
X113970500Y-53994748D01*
X113970500Y-51794748D01*
X117469500Y-51794748D01*
X117470707Y-51800816D01*
X117476885Y-51831873D01*
X117481133Y-51853231D01*
X117525448Y-51919552D01*
X117591769Y-51963867D01*
X117603938Y-51966288D01*
X117603939Y-51966288D01*
X117621083Y-51969698D01*
X117650252Y-51975500D01*
X119489748Y-51975500D01*
X119518917Y-51969698D01*
X119536061Y-51966288D01*
X119536062Y-51966288D01*
X119548231Y-51963867D01*
X119614552Y-51919552D01*
X119658867Y-51853231D01*
X119663116Y-51831873D01*
X119669293Y-51800816D01*
X119670500Y-51794748D01*
X119670500Y-50955252D01*
X119665190Y-50928557D01*
X119661288Y-50908939D01*
X119661288Y-50908938D01*
X119658867Y-50896769D01*
X119614552Y-50830448D01*
X119548231Y-50786133D01*
X119536062Y-50783712D01*
X119536061Y-50783712D01*
X119495816Y-50775707D01*
X119489748Y-50774500D01*
X117650252Y-50774500D01*
X117644184Y-50775707D01*
X117603939Y-50783712D01*
X117603938Y-50783712D01*
X117591769Y-50786133D01*
X117525448Y-50830448D01*
X117481133Y-50896769D01*
X117478712Y-50908938D01*
X117478712Y-50908939D01*
X117474810Y-50928557D01*
X117469500Y-50955252D01*
X117469500Y-51794748D01*
X113970500Y-51794748D01*
X113970500Y-49827366D01*
X113970696Y-49824693D01*
X113972425Y-49819658D01*
X113970768Y-49775500D01*
X113970589Y-49770745D01*
X113970500Y-49766019D01*
X113970500Y-49747052D01*
X113969618Y-49742317D01*
X113969390Y-49738791D01*
X113968926Y-49726443D01*
X113968226Y-49707792D01*
X113963636Y-49697107D01*
X113962599Y-49692507D01*
X113959038Y-49680786D01*
X113957339Y-49676383D01*
X113955209Y-49664947D01*
X113942272Y-49643959D01*
X113933769Y-49627589D01*
X113927549Y-49613112D01*
X113927547Y-49613108D01*
X113924036Y-49604937D01*
X113920022Y-49600051D01*
X113917837Y-49597866D01*
X113915785Y-49595603D01*
X113915945Y-49595458D01*
X113915384Y-49594748D01*
X117469500Y-49594748D01*
X117470707Y-49600816D01*
X117478551Y-49640249D01*
X117481133Y-49653231D01*
X117488026Y-49663547D01*
X117489791Y-49666189D01*
X117525448Y-49719552D01*
X117591769Y-49763867D01*
X117603938Y-49766288D01*
X117603939Y-49766288D01*
X117632053Y-49771880D01*
X117650252Y-49775500D01*
X119489748Y-49775500D01*
X119507947Y-49771880D01*
X119536061Y-49766288D01*
X119536062Y-49766288D01*
X119548231Y-49763867D01*
X119614552Y-49719552D01*
X119650209Y-49666189D01*
X119651974Y-49663547D01*
X119658867Y-49653231D01*
X119661450Y-49640249D01*
X119669293Y-49600816D01*
X119670500Y-49594748D01*
X119670500Y-48755252D01*
X119658867Y-48696769D01*
X119614552Y-48630448D01*
X119548231Y-48586133D01*
X119536062Y-48583712D01*
X119536061Y-48583712D01*
X119495816Y-48575707D01*
X119489748Y-48574500D01*
X117650252Y-48574500D01*
X117644184Y-48575707D01*
X117603939Y-48583712D01*
X117603938Y-48583712D01*
X117591769Y-48586133D01*
X117525448Y-48630448D01*
X117481133Y-48696769D01*
X117469500Y-48755252D01*
X117469500Y-49594748D01*
X113915384Y-49594748D01*
X113908825Y-49586451D01*
X113902573Y-49579556D01*
X113896468Y-49569652D01*
X113874680Y-49553084D01*
X113861861Y-49541890D01*
X113319519Y-48999548D01*
X113317763Y-48997514D01*
X113315425Y-48992731D01*
X113279523Y-48959427D01*
X113276118Y-48956147D01*
X113262723Y-48942752D01*
X113258753Y-48940028D01*
X113256105Y-48937703D01*
X113241881Y-48924508D01*
X113241878Y-48924506D01*
X113233354Y-48916599D01*
X113222550Y-48912289D01*
X113218561Y-48909767D01*
X113207773Y-48904006D01*
X113203448Y-48902089D01*
X113193854Y-48895508D01*
X113182535Y-48892822D01*
X113182533Y-48892821D01*
X113169873Y-48889817D01*
X113152276Y-48884252D01*
X113137638Y-48878412D01*
X113137635Y-48878411D01*
X113129378Y-48875117D01*
X113123085Y-48874500D01*
X113120006Y-48874500D01*
X113116933Y-48874350D01*
X113116944Y-48874134D01*
X113105569Y-48872802D01*
X113096254Y-48872346D01*
X113084934Y-48869660D01*
X113073405Y-48871229D01*
X113073404Y-48871229D01*
X113057827Y-48873349D01*
X113040836Y-48874500D01*
X112795835Y-48874500D01*
X112727714Y-48854498D01*
X112681221Y-48800842D01*
X112670500Y-48761065D01*
X112670500Y-48755252D01*
X112658867Y-48696769D01*
X112614552Y-48630448D01*
X112548231Y-48586133D01*
X112536062Y-48583712D01*
X112536061Y-48583712D01*
X112495816Y-48575707D01*
X112489748Y-48574500D01*
X110650252Y-48574500D01*
X110644184Y-48575707D01*
X110603939Y-48583712D01*
X110603938Y-48583712D01*
X110591769Y-48586133D01*
X110525448Y-48630448D01*
X110523419Y-48633484D01*
X110466432Y-48664604D01*
X110395616Y-48659541D01*
X110350550Y-48630579D01*
X104094971Y-42375000D01*
X124364422Y-42375000D01*
X124384722Y-42762338D01*
X124445398Y-43145433D01*
X124545786Y-43520087D01*
X124684786Y-43882194D01*
X124860875Y-44227789D01*
X125072124Y-44553084D01*
X125316219Y-44854516D01*
X125590484Y-45128781D01*
X125891916Y-45372876D01*
X126217211Y-45584125D01*
X126562806Y-45760214D01*
X126924913Y-45899214D01*
X127299567Y-45999602D01*
X127503201Y-46031854D01*
X127679414Y-46059764D01*
X127679422Y-46059765D01*
X127682662Y-46060278D01*
X128070000Y-46080578D01*
X128457338Y-46060278D01*
X128460578Y-46059765D01*
X128460586Y-46059764D01*
X128636799Y-46031854D01*
X128840433Y-45999602D01*
X129215087Y-45899214D01*
X129577194Y-45760214D01*
X129922789Y-45584125D01*
X130248084Y-45372876D01*
X130549516Y-45128781D01*
X130823781Y-44854516D01*
X131067876Y-44553084D01*
X131279125Y-44227789D01*
X131455214Y-43882194D01*
X131594214Y-43520087D01*
X131694602Y-43145433D01*
X131755278Y-42762338D01*
X131775578Y-42375000D01*
X131755278Y-41987662D01*
X131694602Y-41604567D01*
X131594214Y-41229913D01*
X131455214Y-40867806D01*
X131279125Y-40522211D01*
X131067876Y-40196916D01*
X130823781Y-39895484D01*
X130549516Y-39621219D01*
X130248084Y-39377124D01*
X129922789Y-39165875D01*
X129577194Y-38989786D01*
X129215087Y-38850786D01*
X128840433Y-38750398D01*
X128636799Y-38718146D01*
X128460586Y-38690236D01*
X128460578Y-38690235D01*
X128457338Y-38689722D01*
X128070000Y-38669422D01*
X127682662Y-38689722D01*
X127679422Y-38690235D01*
X127679414Y-38690236D01*
X127503201Y-38718146D01*
X127299567Y-38750398D01*
X126924913Y-38850786D01*
X126562806Y-38989786D01*
X126217211Y-39165875D01*
X125891916Y-39377124D01*
X125590484Y-39621219D01*
X125316219Y-39895484D01*
X125072124Y-40196916D01*
X124860875Y-40522211D01*
X124684786Y-40867806D01*
X124545786Y-41229913D01*
X124445398Y-41604567D01*
X124384722Y-41987662D01*
X124364422Y-42375000D01*
X104094971Y-42375000D01*
X100919519Y-39199548D01*
X100917763Y-39197514D01*
X100915425Y-39192731D01*
X100879523Y-39159427D01*
X100876118Y-39156147D01*
X100862723Y-39142752D01*
X100858753Y-39140028D01*
X100856105Y-39137703D01*
X100841881Y-39124508D01*
X100841878Y-39124506D01*
X100833354Y-39116599D01*
X100822550Y-39112289D01*
X100818561Y-39109767D01*
X100807773Y-39104006D01*
X100803448Y-39102089D01*
X100793854Y-39095508D01*
X100782535Y-39092822D01*
X100782533Y-39092821D01*
X100769873Y-39089817D01*
X100752276Y-39084252D01*
X100737638Y-39078412D01*
X100737635Y-39078411D01*
X100729378Y-39075117D01*
X100723085Y-39074500D01*
X100720006Y-39074500D01*
X100716933Y-39074350D01*
X100716944Y-39074134D01*
X100705569Y-39072802D01*
X100696254Y-39072346D01*
X100684934Y-39069660D01*
X100673405Y-39071229D01*
X100673404Y-39071229D01*
X100657827Y-39073349D01*
X100640836Y-39074500D01*
X51422366Y-39074500D01*
X51419693Y-39074304D01*
X51414658Y-39072575D01*
X51403036Y-39073011D01*
X51403034Y-39073011D01*
X51365744Y-39074411D01*
X51361018Y-39074500D01*
X51342052Y-39074500D01*
X51337317Y-39075381D01*
X51333790Y-39075610D01*
X51329254Y-39075780D01*
X51302791Y-39076774D01*
X51292104Y-39081366D01*
X51287492Y-39082405D01*
X51275800Y-39085957D01*
X51271383Y-39087661D01*
X51259947Y-39089791D01*
X51238961Y-39102727D01*
X51222589Y-39111231D01*
X51208112Y-39117451D01*
X51208108Y-39117453D01*
X51199937Y-39120964D01*
X51195051Y-39124978D01*
X51192866Y-39127163D01*
X51190603Y-39129215D01*
X51190458Y-39129055D01*
X51181451Y-39136175D01*
X51174556Y-39142427D01*
X51164652Y-39148532D01*
X51148084Y-39170320D01*
X51136890Y-39183139D01*
X46594548Y-43725481D01*
X46592514Y-43727237D01*
X46587731Y-43729575D01*
X46579819Y-43738104D01*
X46579818Y-43738105D01*
X46554427Y-43765477D01*
X46551147Y-43768882D01*
X46537752Y-43782277D01*
X46535028Y-43786247D01*
X46532703Y-43788895D01*
X46519508Y-43803119D01*
X46519506Y-43803122D01*
X46511599Y-43811646D01*
X46507289Y-43822450D01*
X46504767Y-43826439D01*
X46499006Y-43837227D01*
X46497089Y-43841552D01*
X46490508Y-43851146D01*
X46487822Y-43862465D01*
X46487821Y-43862467D01*
X46484817Y-43875127D01*
X46479252Y-43892724D01*
X46470117Y-43915622D01*
X46469500Y-43921915D01*
X46469500Y-43924994D01*
X46469350Y-43928067D01*
X46469134Y-43928056D01*
X46467802Y-43939431D01*
X46467346Y-43948746D01*
X46464660Y-43960066D01*
X35415536Y-43960066D01*
X35455214Y-43882194D01*
X35594214Y-43520087D01*
X35694602Y-43145433D01*
X35755278Y-42762338D01*
X35775578Y-42375000D01*
X35755278Y-41987662D01*
X35694602Y-41604567D01*
X35594214Y-41229913D01*
X35455214Y-40867806D01*
X35279125Y-40522211D01*
X35067876Y-40196916D01*
X34823781Y-39895484D01*
X34549516Y-39621219D01*
X34248084Y-39377124D01*
X33922789Y-39165875D01*
X33577194Y-38989786D01*
X33215087Y-38850786D01*
X32840433Y-38750398D01*
X32636799Y-38718146D01*
X32460586Y-38690236D01*
X32460578Y-38690235D01*
X32457338Y-38689722D01*
X32070000Y-38669422D01*
X31682662Y-38689722D01*
X31679422Y-38690235D01*
X31679414Y-38690236D01*
X31503201Y-38718146D01*
X31299567Y-38750398D01*
X30924913Y-38850786D01*
X30562806Y-38989786D01*
X30217211Y-39165875D01*
X29891916Y-39377124D01*
X29590484Y-39621219D01*
X29316219Y-39895484D01*
X29072124Y-40196916D01*
X28860875Y-40522211D01*
X28684786Y-40867806D01*
X28545786Y-41229913D01*
X28445398Y-41604567D01*
X28384722Y-41987662D01*
X28364422Y-42375000D01*
X27575656Y-42375000D01*
X27574074Y-42368066D01*
X27573282Y-42360990D01*
X27574046Y-42360905D01*
X27572069Y-42339063D01*
X27587382Y-41988339D01*
X27588340Y-41977389D01*
X27625451Y-41695502D01*
X27638141Y-41599113D01*
X27640049Y-41588296D01*
X27722626Y-41215816D01*
X27725471Y-41205198D01*
X27736471Y-41170311D01*
X27840200Y-40841323D01*
X27843956Y-40831002D01*
X27989969Y-40478496D01*
X27994602Y-40468561D01*
X28170783Y-40130122D01*
X28176273Y-40120613D01*
X28381266Y-39798838D01*
X28387570Y-39789834D01*
X28619838Y-39487136D01*
X28626904Y-39478716D01*
X28719996Y-39377124D01*
X28884660Y-39197425D01*
X28892429Y-39189656D01*
X28896879Y-39185579D01*
X29173719Y-38931902D01*
X29182136Y-38924838D01*
X29484834Y-38692570D01*
X29493838Y-38686266D01*
X29815613Y-38481273D01*
X29825122Y-38475783D01*
X30163561Y-38299602D01*
X30173496Y-38294969D01*
X30526009Y-38148953D01*
X30536323Y-38145200D01*
X30900199Y-38030471D01*
X30910816Y-38027626D01*
X31283304Y-37945048D01*
X31294113Y-37943141D01*
X31672390Y-37893340D01*
X31683338Y-37892382D01*
X32033783Y-37877081D01*
X32041624Y-37877799D01*
X32041625Y-37877451D01*
X32055811Y-37877476D01*
X32069641Y-37880656D01*
X32083480Y-37877525D01*
X32088311Y-37877533D01*
X32106504Y-37875500D01*
X128032920Y-37875500D01*
X128050242Y-37877466D01*
G37*
%TD.AperFunction*%
%TA.AperFunction,Conductor*%
G36*
X85533560Y-62700075D02*
G01*
X85590396Y-62742622D01*
X85603723Y-62764881D01*
X85639353Y-62841288D01*
X85645935Y-62855404D01*
X85726436Y-62935905D01*
X85760462Y-62998217D01*
X85755397Y-63069032D01*
X85726436Y-63114095D01*
X85645935Y-63194596D01*
X85641275Y-63204588D01*
X85641275Y-63204589D01*
X85603531Y-63285532D01*
X85595932Y-63301827D01*
X85589500Y-63350684D01*
X85589500Y-63799316D01*
X85595932Y-63848173D01*
X85600006Y-63856909D01*
X85600006Y-63856910D01*
X85641275Y-63945411D01*
X85645935Y-63955404D01*
X85729596Y-64039065D01*
X85733400Y-64040839D01*
X85775101Y-64093012D01*
X85784500Y-64140764D01*
X85784500Y-64157811D01*
X85764498Y-64225932D01*
X85747595Y-64246906D01*
X85186906Y-64807595D01*
X85124594Y-64841621D01*
X85097811Y-64844500D01*
X84671306Y-64844500D01*
X84603185Y-64824498D01*
X84582211Y-64807595D01*
X84467405Y-64692789D01*
X84433379Y-64630477D01*
X84430500Y-64603694D01*
X84430500Y-64350684D01*
X84424068Y-64301827D01*
X84415051Y-64282489D01*
X84378725Y-64204589D01*
X84378725Y-64204588D01*
X84374065Y-64194596D01*
X84290404Y-64110935D01*
X84280411Y-64106275D01*
X84191910Y-64065006D01*
X84191909Y-64065006D01*
X84183173Y-64060932D01*
X84134316Y-64054500D01*
X83926596Y-64054500D01*
X83858475Y-64034498D01*
X83811982Y-63980842D01*
X83801878Y-63910568D01*
X83810273Y-63884094D01*
X83809653Y-63883893D01*
X83812719Y-63874459D01*
X83817219Y-63865626D01*
X83819984Y-63848173D01*
X83836753Y-63742293D01*
X83838304Y-63732500D01*
X83831019Y-63686506D01*
X83840118Y-63616097D01*
X83885840Y-63561782D01*
X83953668Y-63540809D01*
X83975178Y-63542347D01*
X84097706Y-63561753D01*
X84097707Y-63561753D01*
X84107500Y-63563304D01*
X84117293Y-63561753D01*
X84230835Y-63543770D01*
X84230837Y-63543769D01*
X84240626Y-63542219D01*
X84360720Y-63481028D01*
X84456028Y-63385720D01*
X84517219Y-63265626D01*
X84521416Y-63239131D01*
X84536753Y-63142293D01*
X84538304Y-63132500D01*
X84535202Y-63112916D01*
X84518770Y-63009165D01*
X84518769Y-63009163D01*
X84517219Y-62999374D01*
X84512719Y-62990541D01*
X84509653Y-62981107D01*
X84511373Y-62980548D01*
X84500452Y-62922419D01*
X84527148Y-62856632D01*
X84585173Y-62815723D01*
X84656105Y-62812678D01*
X84679072Y-62820789D01*
X84683448Y-62822829D01*
X84696827Y-62829068D01*
X84745684Y-62835500D01*
X85194316Y-62835500D01*
X85243173Y-62829068D01*
X85260928Y-62820789D01*
X85340411Y-62783725D01*
X85340412Y-62783725D01*
X85350404Y-62779065D01*
X85400433Y-62729036D01*
X85462745Y-62695010D01*
X85533560Y-62700075D01*
G37*
%TD.AperFunction*%
%TA.AperFunction,Conductor*%
G36*
X76884012Y-59901006D02*
G01*
X76890595Y-59907135D01*
X76901684Y-59918224D01*
X76911676Y-59922883D01*
X76911677Y-59922884D01*
X76971577Y-59950816D01*
X77010513Y-59968972D01*
X77043745Y-59973347D01*
X77056011Y-59974962D01*
X77056014Y-59974962D01*
X77060099Y-59975500D01*
X77077724Y-59975500D01*
X77248693Y-59975499D01*
X77316813Y-59995501D01*
X77337788Y-60012404D01*
X77722595Y-60397211D01*
X77756621Y-60459523D01*
X77759500Y-60486305D01*
X77759501Y-60564474D01*
X77759501Y-60634900D01*
X77766028Y-60684487D01*
X77770101Y-60693221D01*
X77770101Y-60693222D01*
X77809637Y-60778007D01*
X77816776Y-60793316D01*
X77901684Y-60878224D01*
X77911676Y-60882883D01*
X77911677Y-60882884D01*
X78001776Y-60924898D01*
X78010513Y-60928972D01*
X78060099Y-60935500D01*
X78238942Y-60935500D01*
X78307063Y-60955502D01*
X78353556Y-61009158D01*
X78363660Y-61079432D01*
X78334166Y-61144012D01*
X78328037Y-61150595D01*
X78120073Y-61358559D01*
X78057761Y-61392585D01*
X78045656Y-61394288D01*
X78045684Y-61394500D01*
X77996827Y-61400932D01*
X77988091Y-61405006D01*
X77988090Y-61405006D01*
X77945213Y-61425000D01*
X77889596Y-61450935D01*
X77805935Y-61534596D01*
X77801275Y-61544588D01*
X77801275Y-61544589D01*
X77773850Y-61603403D01*
X77755932Y-61641827D01*
X77749500Y-61690684D01*
X77749500Y-62039316D01*
X77755932Y-62088173D01*
X77760006Y-62096909D01*
X77760006Y-62096910D01*
X77801275Y-62185411D01*
X77805935Y-62195404D01*
X77889596Y-62279065D01*
X77888908Y-62279753D01*
X77926869Y-62327247D01*
X77934177Y-62397867D01*
X77902144Y-62461226D01*
X77892504Y-62469579D01*
X77889596Y-62470935D01*
X77805935Y-62554596D01*
X77804161Y-62558400D01*
X77751988Y-62600101D01*
X77704236Y-62609500D01*
X77099543Y-62609500D01*
X77074961Y-62607079D01*
X77072171Y-62606524D01*
X77060000Y-62604103D01*
X77047829Y-62606524D01*
X77032868Y-62609500D01*
X77032867Y-62609500D01*
X76952505Y-62625485D01*
X76942189Y-62632378D01*
X76942187Y-62632379D01*
X76939232Y-62634354D01*
X76884379Y-62671006D01*
X76881812Y-62667164D01*
X76881808Y-62667167D01*
X76884375Y-62671008D01*
X76871501Y-62679610D01*
X76842246Y-62688770D01*
X76841158Y-62689364D01*
X76840499Y-62689317D01*
X76803748Y-62700824D01*
X76735281Y-62682040D01*
X76687839Y-62629223D01*
X76675500Y-62574844D01*
X76675500Y-59996230D01*
X76695502Y-59928109D01*
X76749158Y-59881616D01*
X76819432Y-59871512D01*
X76884012Y-59901006D01*
G37*
%TD.AperFunction*%
%TA.AperFunction,Conductor*%
G36*
X77854012Y-57551411D02*
G01*
X77889983Y-57603965D01*
X77890477Y-57605594D01*
X77909291Y-57651015D01*
X77910749Y-57653743D01*
X77910752Y-57653749D01*
X77926820Y-57683811D01*
X77926827Y-57683822D01*
X77928281Y-57686543D01*
X77943788Y-57709751D01*
X77969345Y-57740892D01*
X78004108Y-57775655D01*
X78035248Y-57801212D01*
X78037815Y-57802927D01*
X78037816Y-57802928D01*
X78050719Y-57811550D01*
X78050724Y-57811553D01*
X78054584Y-57814132D01*
X78109100Y-57839916D01*
X78179102Y-57861151D01*
X78198092Y-57863968D01*
X78234169Y-57869320D01*
X78234175Y-57869320D01*
X78238756Y-57870000D01*
X78348173Y-57870000D01*
X78364617Y-57871078D01*
X78387483Y-57874088D01*
X78390698Y-57874650D01*
X78391076Y-57874762D01*
X78406398Y-57876950D01*
X78414598Y-57878121D01*
X78414606Y-57878122D01*
X78416813Y-57878437D01*
X78445862Y-57880500D01*
X78543500Y-57880500D01*
X78611621Y-57900502D01*
X78658114Y-57954158D01*
X78669500Y-58006500D01*
X78669501Y-58194583D01*
X78669501Y-58384900D01*
X78676028Y-58434487D01*
X78680101Y-58443221D01*
X78680101Y-58443222D01*
X78717954Y-58524397D01*
X78726776Y-58543316D01*
X78787595Y-58604135D01*
X78821621Y-58666447D01*
X78824500Y-58693230D01*
X78824500Y-58835290D01*
X78824020Y-58846272D01*
X78820736Y-58883807D01*
X78823590Y-58894456D01*
X78830491Y-58920210D01*
X78832870Y-58930940D01*
X78834454Y-58939922D01*
X78836253Y-58950126D01*
X78828384Y-59020686D01*
X78783617Y-59075790D01*
X78716166Y-59097944D01*
X78647445Y-59080113D01*
X78645194Y-59078654D01*
X78638316Y-59071776D01*
X78628327Y-59067118D01*
X78628324Y-59067116D01*
X78538224Y-59025102D01*
X78538223Y-59025102D01*
X78529487Y-59021028D01*
X78479901Y-59014500D01*
X78452028Y-59014500D01*
X78151307Y-59014501D01*
X78083187Y-58994499D01*
X78062212Y-58977596D01*
X77682405Y-58597789D01*
X77648379Y-58535477D01*
X77645500Y-58508694D01*
X77645500Y-57646635D01*
X77665502Y-57578514D01*
X77719158Y-57532021D01*
X77789432Y-57521917D01*
X77854012Y-57551411D01*
G37*
%TD.AperFunction*%
%TD*%
%TA.AperFunction,Conductor*%
%TO.N,PH*%
G36*
X88482171Y-49677421D02*
G01*
X88521953Y-49685334D01*
X88567374Y-49704148D01*
X88590582Y-49719655D01*
X88625345Y-49754418D01*
X88640852Y-49777626D01*
X88659666Y-49823047D01*
X88667579Y-49862829D01*
X88670000Y-49887410D01*
X88670000Y-53162590D01*
X88667579Y-53187171D01*
X88659666Y-53226953D01*
X88640852Y-53272374D01*
X88625345Y-53295582D01*
X88590582Y-53330345D01*
X88567374Y-53345852D01*
X88521953Y-53364666D01*
X88482171Y-53372579D01*
X88457590Y-53375000D01*
X84883613Y-53375000D01*
X84813608Y-53353763D01*
X84808698Y-53350482D01*
X84800312Y-53344879D01*
X84800313Y-53344879D01*
X84789995Y-53337985D01*
X84709633Y-53322000D01*
X84694672Y-53319024D01*
X84694671Y-53319024D01*
X84682500Y-53316603D01*
X84670329Y-53319024D01*
X84667539Y-53319579D01*
X84642957Y-53322000D01*
X82522043Y-53322000D01*
X82497463Y-53319579D01*
X82494673Y-53319024D01*
X82494671Y-53319024D01*
X82482500Y-53316603D01*
X82470329Y-53319024D01*
X82455368Y-53322000D01*
X82455367Y-53322000D01*
X82375005Y-53337985D01*
X82364687Y-53344879D01*
X82364688Y-53344879D01*
X82356298Y-53350485D01*
X82351392Y-53353763D01*
X82281387Y-53375000D01*
X82071500Y-53375000D01*
X82003379Y-53354998D01*
X81956886Y-53301342D01*
X81945500Y-53249000D01*
X81945500Y-52653291D01*
X81947921Y-52628709D01*
X81948476Y-52625919D01*
X81950897Y-52613748D01*
X81929515Y-52506253D01*
X81883994Y-52438126D01*
X81883993Y-52438125D01*
X81868624Y-52415124D01*
X81855936Y-52406646D01*
X81836844Y-52390976D01*
X81576524Y-52130656D01*
X81560854Y-52111564D01*
X81559267Y-52109189D01*
X81552376Y-52098876D01*
X81529375Y-52083507D01*
X81530964Y-52081130D01*
X81530961Y-52081128D01*
X81529372Y-52083505D01*
X81497936Y-52062500D01*
X81461247Y-52037985D01*
X81380885Y-52022000D01*
X81365924Y-52019024D01*
X81365923Y-52019024D01*
X81353752Y-52016603D01*
X81341581Y-52019024D01*
X81338791Y-52019579D01*
X81314209Y-52022000D01*
X79732752Y-52022000D01*
X79664631Y-52001998D01*
X79618138Y-51948342D01*
X79606752Y-51896000D01*
X79606752Y-51060252D01*
X79595119Y-51001769D01*
X79588224Y-50991449D01*
X79583475Y-50979985D01*
X79586065Y-50978912D01*
X79570000Y-50925954D01*
X79570000Y-49887410D01*
X79572421Y-49862829D01*
X79580334Y-49823047D01*
X79599148Y-49777626D01*
X79614655Y-49754418D01*
X79649418Y-49719655D01*
X79672626Y-49704148D01*
X79718047Y-49685334D01*
X79757829Y-49677421D01*
X79782410Y-49675000D01*
X88457590Y-49675000D01*
X88482171Y-49677421D01*
G37*
%TD.AperFunction*%
%TD*%
%TA.AperFunction,Conductor*%
%TO.N,ACN*%
G36*
X81182171Y-52677421D02*
G01*
X81221953Y-52685334D01*
X81267374Y-52704148D01*
X81290582Y-52719655D01*
X81325345Y-52754418D01*
X81340852Y-52777626D01*
X81359666Y-52823047D01*
X81367579Y-52862829D01*
X81370000Y-52887410D01*
X81370000Y-58120426D01*
X81349998Y-58188547D01*
X81296342Y-58235040D01*
X81239711Y-58242772D01*
X81239711Y-58245747D01*
X81229793Y-58245747D01*
X81220000Y-58244196D01*
X81210207Y-58245747D01*
X81096665Y-58263730D01*
X81096663Y-58263731D01*
X81086874Y-58265281D01*
X80966780Y-58326472D01*
X80955157Y-58338095D01*
X80892845Y-58372121D01*
X80866062Y-58375000D01*
X79882410Y-58375000D01*
X79857829Y-58372579D01*
X79818047Y-58364666D01*
X79772626Y-58345852D01*
X79749418Y-58330345D01*
X79714655Y-58295582D01*
X79699148Y-58272374D01*
X79680334Y-58226953D01*
X79672421Y-58187171D01*
X79670000Y-58162590D01*
X79670000Y-57675000D01*
X79405862Y-57675000D01*
X79380125Y-57671325D01*
X79379487Y-57671028D01*
X79369933Y-57669770D01*
X79369932Y-57669770D01*
X79333988Y-57665038D01*
X79333987Y-57665038D01*
X79329901Y-57664500D01*
X79150066Y-57664500D01*
X78970100Y-57664501D01*
X78920513Y-57671028D01*
X78919873Y-57671326D01*
X78894140Y-57675000D01*
X78445862Y-57675000D01*
X78420125Y-57671325D01*
X78419487Y-57671028D01*
X78409933Y-57669770D01*
X78409932Y-57669770D01*
X78373988Y-57665038D01*
X78373987Y-57665038D01*
X78369901Y-57664500D01*
X78238756Y-57664500D01*
X78168754Y-57643265D01*
X78149418Y-57630345D01*
X78114655Y-57595582D01*
X78099148Y-57572374D01*
X78080334Y-57526953D01*
X78072421Y-57487171D01*
X78070000Y-57462590D01*
X78070000Y-55670253D01*
X78072421Y-55645673D01*
X78080334Y-55605889D01*
X78099147Y-55560470D01*
X78121690Y-55526731D01*
X78137356Y-55507644D01*
X78670000Y-54975000D01*
X78670000Y-52887410D01*
X78672421Y-52862829D01*
X78680334Y-52823047D01*
X78699148Y-52777626D01*
X78714655Y-52754418D01*
X78749418Y-52719655D01*
X78772626Y-52704148D01*
X78818047Y-52685334D01*
X78857829Y-52677421D01*
X78882410Y-52675000D01*
X81157590Y-52675000D01*
X81182171Y-52677421D01*
G37*
%TD.AperFunction*%
%TD*%
%TA.AperFunction,Conductor*%
%TO.N,PACK+*%
G36*
X91382171Y-54077421D02*
G01*
X91421953Y-54085334D01*
X91467374Y-54104148D01*
X91490582Y-54119655D01*
X91525345Y-54154418D01*
X91540852Y-54177626D01*
X91559666Y-54223047D01*
X91567579Y-54262829D01*
X91570000Y-54287410D01*
X91570000Y-56791878D01*
X91567579Y-56816459D01*
X91561895Y-56845035D01*
X91543082Y-56890454D01*
X91520000Y-56925000D01*
X91470000Y-56975000D01*
X91470000Y-58175000D01*
X91670000Y-58375000D01*
X97474747Y-58375000D01*
X97499327Y-58377421D01*
X97522498Y-58382030D01*
X97539112Y-58385334D01*
X97584530Y-58404147D01*
X97618269Y-58426690D01*
X97637356Y-58442356D01*
X97702644Y-58507644D01*
X97718310Y-58526731D01*
X97740853Y-58560470D01*
X97759666Y-58605889D01*
X97767579Y-58645673D01*
X97770000Y-58670253D01*
X97770000Y-62362590D01*
X97767579Y-62387171D01*
X97759666Y-62426953D01*
X97740852Y-62472374D01*
X97725345Y-62495582D01*
X97690582Y-62530345D01*
X97667374Y-62545852D01*
X97621953Y-62564666D01*
X97582171Y-62572579D01*
X97557590Y-62575000D01*
X93665253Y-62575000D01*
X93640673Y-62572579D01*
X93617502Y-62567970D01*
X93600888Y-62564666D01*
X93555470Y-62545853D01*
X93521731Y-62523310D01*
X93502644Y-62507644D01*
X91470000Y-60475000D01*
X90382410Y-60475000D01*
X90357830Y-60472579D01*
X90325417Y-60466132D01*
X90262507Y-60433225D01*
X90227374Y-60371531D01*
X90225075Y-60326106D01*
X90229962Y-60288986D01*
X90230500Y-60284901D01*
X90230499Y-59865100D01*
X90223972Y-59815513D01*
X90181410Y-59724239D01*
X90170212Y-59683339D01*
X90170000Y-59681187D01*
X90170000Y-59475000D01*
X88482410Y-59475000D01*
X88457829Y-59472579D01*
X88418047Y-59464666D01*
X88372626Y-59445852D01*
X88349418Y-59430345D01*
X88314655Y-59395582D01*
X88299148Y-59372374D01*
X88280334Y-59326953D01*
X88272421Y-59287171D01*
X88270000Y-59262590D01*
X88270000Y-58376417D01*
X88271078Y-58359971D01*
X88274604Y-58333188D01*
X88275682Y-58325000D01*
X88271078Y-58290029D01*
X88270000Y-58273583D01*
X88270000Y-57076417D01*
X88271078Y-57059971D01*
X88275682Y-57025000D01*
X88271078Y-56990029D01*
X88270000Y-56973583D01*
X88270000Y-55626417D01*
X88271078Y-55609971D01*
X88274604Y-55583188D01*
X88275682Y-55575000D01*
X88271078Y-55540029D01*
X88270000Y-55523583D01*
X88270000Y-54287410D01*
X88272421Y-54262829D01*
X88280334Y-54223047D01*
X88299148Y-54177626D01*
X88314655Y-54154418D01*
X88349418Y-54119655D01*
X88372626Y-54104148D01*
X88418047Y-54085334D01*
X88457829Y-54077421D01*
X88482410Y-54075000D01*
X91357590Y-54075000D01*
X91382171Y-54077421D01*
G37*
%TD.AperFunction*%
%TD*%
%TA.AperFunction,Conductor*%
%TO.N,CHG_IN+*%
G36*
X75578188Y-66576078D02*
G01*
X75682963Y-66589872D01*
X75714735Y-66598385D01*
X75804674Y-66635639D01*
X75833160Y-66652086D01*
X75910393Y-66711349D01*
X75933651Y-66734607D01*
X75992914Y-66811840D01*
X76009361Y-66840326D01*
X76046615Y-66930265D01*
X76055128Y-66962037D01*
X76068922Y-67066812D01*
X76070000Y-67083258D01*
X76070000Y-78266742D01*
X76068922Y-78283188D01*
X76055128Y-78387963D01*
X76046615Y-78419735D01*
X76009361Y-78509674D01*
X75992914Y-78538160D01*
X75933651Y-78615393D01*
X75910393Y-78638651D01*
X75833160Y-78697914D01*
X75804674Y-78714361D01*
X75714735Y-78751615D01*
X75682963Y-78760128D01*
X75578188Y-78773922D01*
X75561742Y-78775000D01*
X70378258Y-78775000D01*
X70361812Y-78773922D01*
X70257037Y-78760128D01*
X70225265Y-78751615D01*
X70135326Y-78714361D01*
X70106840Y-78697914D01*
X70029607Y-78638651D01*
X70006349Y-78615393D01*
X69947086Y-78538160D01*
X69930639Y-78509674D01*
X69893385Y-78419735D01*
X69884872Y-78387963D01*
X69871078Y-78283188D01*
X69870000Y-78266742D01*
X69870000Y-67083258D01*
X69871078Y-67066812D01*
X69884872Y-66962037D01*
X69893385Y-66930265D01*
X69930639Y-66840326D01*
X69947086Y-66811840D01*
X70006349Y-66734607D01*
X70029607Y-66711349D01*
X70106840Y-66652086D01*
X70135326Y-66635639D01*
X70225265Y-66598385D01*
X70257037Y-66589872D01*
X70361812Y-66576078D01*
X70378258Y-66575000D01*
X75561742Y-66575000D01*
X75578188Y-66576078D01*
G37*
%TD.AperFunction*%
%TD*%
M02*
