%TF.GenerationSoftware,KiCad,Pcbnew,(6.0.11)*%
%TF.CreationDate,2023-07-06T01:04:48-04:00*%
%TF.ProjectId,RP_CHG_r01,52505f43-4847-45f7-9230-312e6b696361,rev?*%
%TF.SameCoordinates,Original*%
%TF.FileFunction,Legend,Top*%
%TF.FilePolarity,Positive*%
%FSLAX46Y46*%
G04 Gerber Fmt 4.6, Leading zero omitted, Abs format (unit mm)*
G04 Created by KiCad (PCBNEW (6.0.11)) date 2023-07-06 01:04:48*
%MOMM*%
%LPD*%
G01*
G04 APERTURE LIST*
G04 Aperture macros list*
%AMRoundRect*
0 Rectangle with rounded corners*
0 $1 Rounding radius*
0 $2 $3 $4 $5 $6 $7 $8 $9 X,Y pos of 4 corners*
0 Add a 4 corners polygon primitive as box body*
4,1,4,$2,$3,$4,$5,$6,$7,$8,$9,$2,$3,0*
0 Add four circle primitives for the rounded corners*
1,1,$1+$1,$2,$3*
1,1,$1+$1,$4,$5*
1,1,$1+$1,$6,$7*
1,1,$1+$1,$8,$9*
0 Add four rect primitives between the rounded corners*
20,1,$1+$1,$2,$3,$4,$5,0*
20,1,$1+$1,$4,$5,$6,$7,0*
20,1,$1+$1,$6,$7,$8,$9,0*
20,1,$1+$1,$8,$9,$2,$3,0*%
%AMFreePoly0*
4,1,21,1.372500,0.787500,0.862500,0.787500,0.862500,0.532500,1.372500,0.532500,1.372500,0.127500,0.862500,0.127500,0.862500,-0.127500,1.372500,-0.127500,1.372500,-0.532500,0.862500,-0.532500,0.862500,-0.787500,1.372500,-0.787500,1.372500,-1.195000,0.612500,-1.195000,0.612500,-1.117500,-0.862500,-1.117500,-0.862500,1.117500,0.612500,1.117500,0.612500,1.195000,1.372500,1.195000,
1.372500,0.787500,1.372500,0.787500,$1*%
G04 Aperture macros list end*
%ADD10C,0.150000*%
%ADD11C,0.225000*%
%ADD12C,0.120000*%
%ADD13RoundRect,0.062500X-0.375000X-0.062500X0.375000X-0.062500X0.375000X0.062500X-0.375000X0.062500X0*%
%ADD14RoundRect,0.062500X-0.062500X-0.375000X0.062500X-0.375000X0.062500X0.375000X-0.062500X0.375000X0*%
%ADD15R,2.500000X2.500000*%
%ADD16RoundRect,0.750000X-1.250000X-0.750000X1.250000X-0.750000X1.250000X0.750000X-1.250000X0.750000X0*%
%ADD17RoundRect,0.750000X-2.250000X-0.750000X2.250000X-0.750000X2.250000X0.750000X-2.250000X0.750000X0*%
%ADD18C,14.000000*%
%ADD19RoundRect,0.500000X1.500000X0.500000X-1.500000X0.500000X-1.500000X-0.500000X1.500000X-0.500000X0*%
%ADD20RoundRect,0.135000X0.185000X-0.135000X0.185000X0.135000X-0.185000X0.135000X-0.185000X-0.135000X0*%
%ADD21RoundRect,0.150000X0.150000X0.300000X-0.150000X0.300000X-0.150000X-0.300000X0.150000X-0.300000X0*%
%ADD22RoundRect,0.135000X0.135000X0.185000X-0.135000X0.185000X-0.135000X-0.185000X0.135000X-0.185000X0*%
%ADD23R,1.800000X0.800000*%
%ADD24C,7.500000*%
%ADD25R,0.600000X0.700000*%
%ADD26C,2.100000*%
%ADD27R,0.500000X0.700000*%
%ADD28R,1.270000X2.920000*%
%ADD29R,3.430000X1.650000*%
%ADD30FreePoly0,90.000000*%
%ADD31R,0.405000X0.990000*%
%ADD32RoundRect,0.250000X0.312500X0.625000X-0.312500X0.625000X-0.312500X-0.625000X0.312500X-0.625000X0*%
%ADD33RoundRect,0.217391X-0.282609X-0.657609X0.282609X-0.657609X0.282609X0.657609X-0.282609X0.657609X0*%
%ADD34C,7.000000*%
%ADD35RoundRect,0.140000X-0.170000X0.140000X-0.170000X-0.140000X0.170000X-0.140000X0.170000X0.140000X0*%
%ADD36RoundRect,0.140000X0.140000X0.170000X-0.140000X0.170000X-0.140000X-0.170000X0.140000X-0.170000X0*%
%ADD37RoundRect,0.200000X-0.475000X0.200000X-0.475000X-0.200000X0.475000X-0.200000X0.475000X0.200000X0*%
%ADD38RoundRect,0.217391X0.282609X0.657609X-0.282609X0.657609X-0.282609X-0.657609X0.282609X-0.657609X0*%
%ADD39RoundRect,0.140000X0.170000X-0.140000X0.170000X0.140000X-0.170000X0.140000X-0.170000X-0.140000X0*%
%ADD40RoundRect,0.175000X-0.275000X0.175000X-0.275000X-0.175000X0.275000X-0.175000X0.275000X0.175000X0*%
%ADD41RoundRect,0.250000X-0.325000X-1.100000X0.325000X-1.100000X0.325000X1.100000X-0.325000X1.100000X0*%
%ADD42RoundRect,0.135000X-0.135000X-0.185000X0.135000X-0.185000X0.135000X0.185000X-0.135000X0.185000X0*%
%ADD43R,2.413000X3.429000*%
%ADD44RoundRect,0.150000X-0.300000X0.150000X-0.300000X-0.150000X0.300000X-0.150000X0.300000X0.150000X0*%
%ADD45RoundRect,0.140000X-0.140000X-0.170000X0.140000X-0.170000X0.140000X0.170000X-0.140000X0.170000X0*%
%ADD46RoundRect,0.135000X-0.185000X0.135000X-0.185000X-0.135000X0.185000X-0.135000X0.185000X0.135000X0*%
%ADD47FreePoly0,270.000000*%
%ADD48RoundRect,0.250000X-0.312500X-0.625000X0.312500X-0.625000X0.312500X0.625000X-0.312500X0.625000X0*%
%ADD49C,1.000000*%
%ADD50RoundRect,0.150000X0.300000X-0.150000X0.300000X0.150000X-0.300000X0.150000X-0.300000X-0.150000X0*%
G04 APERTURE END LIST*
D10*
X96284285Y-73627380D02*
X96284285Y-72627380D01*
X96665238Y-72627380D01*
X96760476Y-72675000D01*
X96808095Y-72722619D01*
X96855714Y-72817857D01*
X96855714Y-72960714D01*
X96808095Y-73055952D01*
X96760476Y-73103571D01*
X96665238Y-73151190D01*
X96284285Y-73151190D01*
X97189047Y-72627380D02*
X97427142Y-73627380D01*
X97617619Y-72913095D01*
X97808095Y-73627380D01*
X98046190Y-72627380D01*
X98998571Y-73627380D02*
X98665238Y-73151190D01*
X98427142Y-73627380D02*
X98427142Y-72627380D01*
X98808095Y-72627380D01*
X98903333Y-72675000D01*
X98950952Y-72722619D01*
X98998571Y-72817857D01*
X98998571Y-72960714D01*
X98950952Y-73055952D01*
X98903333Y-73103571D01*
X98808095Y-73151190D01*
X98427142Y-73151190D01*
X100760476Y-73532142D02*
X100712857Y-73579761D01*
X100570000Y-73627380D01*
X100474761Y-73627380D01*
X100331904Y-73579761D01*
X100236666Y-73484523D01*
X100189047Y-73389285D01*
X100141428Y-73198809D01*
X100141428Y-73055952D01*
X100189047Y-72865476D01*
X100236666Y-72770238D01*
X100331904Y-72675000D01*
X100474761Y-72627380D01*
X100570000Y-72627380D01*
X100712857Y-72675000D01*
X100760476Y-72722619D01*
X101379523Y-72627380D02*
X101570000Y-72627380D01*
X101665238Y-72675000D01*
X101760476Y-72770238D01*
X101808095Y-72960714D01*
X101808095Y-73294047D01*
X101760476Y-73484523D01*
X101665238Y-73579761D01*
X101570000Y-73627380D01*
X101379523Y-73627380D01*
X101284285Y-73579761D01*
X101189047Y-73484523D01*
X101141428Y-73294047D01*
X101141428Y-72960714D01*
X101189047Y-72770238D01*
X101284285Y-72675000D01*
X101379523Y-72627380D01*
X102236666Y-73627380D02*
X102236666Y-72627380D01*
X102808095Y-73627380D01*
X102808095Y-72627380D01*
X103284285Y-73627380D02*
X103284285Y-72627380D01*
X103855714Y-73627380D01*
X103855714Y-72627380D01*
X91950952Y-82522380D02*
X91617619Y-82046190D01*
X91379523Y-82522380D02*
X91379523Y-81522380D01*
X91760476Y-81522380D01*
X91855714Y-81570000D01*
X91903333Y-81617619D01*
X91950952Y-81712857D01*
X91950952Y-81855714D01*
X91903333Y-81950952D01*
X91855714Y-81998571D01*
X91760476Y-82046190D01*
X91379523Y-82046190D01*
X92379523Y-81998571D02*
X92712857Y-81998571D01*
X92855714Y-82522380D02*
X92379523Y-82522380D01*
X92379523Y-81522380D01*
X92855714Y-81522380D01*
X93236666Y-82236666D02*
X93712857Y-82236666D01*
X93141428Y-82522380D02*
X93474761Y-81522380D01*
X93808095Y-82522380D01*
X94712857Y-82522380D02*
X94379523Y-82046190D01*
X94141428Y-82522380D02*
X94141428Y-81522380D01*
X94522380Y-81522380D01*
X94617619Y-81570000D01*
X94665238Y-81617619D01*
X94712857Y-81712857D01*
X94712857Y-81855714D01*
X94665238Y-81950952D01*
X94617619Y-81998571D01*
X94522380Y-82046190D01*
X94141428Y-82046190D01*
X95903333Y-82522380D02*
X95903333Y-81522380D01*
X96284285Y-81522380D01*
X96379523Y-81570000D01*
X96427142Y-81617619D01*
X96474761Y-81712857D01*
X96474761Y-81855714D01*
X96427142Y-81950952D01*
X96379523Y-81998571D01*
X96284285Y-82046190D01*
X95903333Y-82046190D01*
X96855714Y-82236666D02*
X97331904Y-82236666D01*
X96760476Y-82522380D02*
X97093809Y-81522380D01*
X97427142Y-82522380D01*
X97760476Y-82522380D02*
X97760476Y-81522380D01*
X98331904Y-82522380D01*
X98331904Y-81522380D01*
X98808095Y-81998571D02*
X99141428Y-81998571D01*
X99284285Y-82522380D02*
X98808095Y-82522380D01*
X98808095Y-81522380D01*
X99284285Y-81522380D01*
X100189047Y-82522380D02*
X99712857Y-82522380D01*
X99712857Y-81522380D01*
X101617619Y-81998571D02*
X101760476Y-82046190D01*
X101808095Y-82093809D01*
X101855714Y-82189047D01*
X101855714Y-82331904D01*
X101808095Y-82427142D01*
X101760476Y-82474761D01*
X101665238Y-82522380D01*
X101284285Y-82522380D01*
X101284285Y-81522380D01*
X101617619Y-81522380D01*
X101712857Y-81570000D01*
X101760476Y-81617619D01*
X101808095Y-81712857D01*
X101808095Y-81808095D01*
X101760476Y-81903333D01*
X101712857Y-81950952D01*
X101617619Y-81998571D01*
X101284285Y-81998571D01*
X102236666Y-82236666D02*
X102712857Y-82236666D01*
X102141428Y-82522380D02*
X102474761Y-81522380D01*
X102808095Y-82522380D01*
X102998571Y-81522380D02*
X103570000Y-81522380D01*
X103284285Y-82522380D02*
X103284285Y-81522380D01*
X103760476Y-81522380D02*
X104331904Y-81522380D01*
X104046190Y-82522380D02*
X104046190Y-81522380D01*
X105998571Y-82427142D02*
X105950952Y-82474761D01*
X105808095Y-82522380D01*
X105712857Y-82522380D01*
X105569999Y-82474761D01*
X105474761Y-82379523D01*
X105427142Y-82284285D01*
X105379523Y-82093809D01*
X105379523Y-81950952D01*
X105427142Y-81760476D01*
X105474761Y-81665238D01*
X105569999Y-81570000D01*
X105712857Y-81522380D01*
X105808095Y-81522380D01*
X105950952Y-81570000D01*
X105998571Y-81617619D01*
X106427142Y-82522380D02*
X106427142Y-81522380D01*
X106427142Y-81998571D02*
X106998571Y-81998571D01*
X106998571Y-82522380D02*
X106998571Y-81522380D01*
X107427142Y-82236666D02*
X107903333Y-82236666D01*
X107331904Y-82522380D02*
X107665238Y-81522380D01*
X107998571Y-82522380D01*
X108903333Y-82522380D02*
X108570000Y-82046190D01*
X108331904Y-82522380D02*
X108331904Y-81522380D01*
X108712857Y-81522380D01*
X108808095Y-81570000D01*
X108855714Y-81617619D01*
X108903333Y-81712857D01*
X108903333Y-81855714D01*
X108855714Y-81950952D01*
X108808095Y-81998571D01*
X108712857Y-82046190D01*
X108331904Y-82046190D01*
X109855714Y-81570000D02*
X109760476Y-81522380D01*
X109617619Y-81522380D01*
X109474761Y-81570000D01*
X109379523Y-81665238D01*
X109331904Y-81760476D01*
X109284285Y-81950952D01*
X109284285Y-82093809D01*
X109331904Y-82284285D01*
X109379523Y-82379523D01*
X109474761Y-82474761D01*
X109617619Y-82522380D01*
X109712857Y-82522380D01*
X109855714Y-82474761D01*
X109903333Y-82427142D01*
X109903333Y-82093809D01*
X109712857Y-82093809D01*
X110331904Y-81998571D02*
X110665238Y-81998571D01*
X110808095Y-82522380D02*
X110331904Y-82522380D01*
X110331904Y-81522380D01*
X110808095Y-81522380D01*
X111808095Y-82522380D02*
X111474761Y-82046190D01*
X111236666Y-82522380D02*
X111236666Y-81522380D01*
X111617619Y-81522380D01*
X111712857Y-81570000D01*
X111760476Y-81617619D01*
X111808095Y-81712857D01*
X111808095Y-81855714D01*
X111760476Y-81950952D01*
X111712857Y-81998571D01*
X111617619Y-82046190D01*
X111236666Y-82046190D01*
X88736666Y-84132380D02*
X88403333Y-83656190D01*
X88165238Y-84132380D02*
X88165238Y-83132380D01*
X88546190Y-83132380D01*
X88641428Y-83180000D01*
X88689047Y-83227619D01*
X88736666Y-83322857D01*
X88736666Y-83465714D01*
X88689047Y-83560952D01*
X88641428Y-83608571D01*
X88546190Y-83656190D01*
X88165238Y-83656190D01*
X89546190Y-84084761D02*
X89450952Y-84132380D01*
X89260476Y-84132380D01*
X89165238Y-84084761D01*
X89117619Y-83989523D01*
X89117619Y-83608571D01*
X89165238Y-83513333D01*
X89260476Y-83465714D01*
X89450952Y-83465714D01*
X89546190Y-83513333D01*
X89593809Y-83608571D01*
X89593809Y-83703809D01*
X89117619Y-83799047D01*
X89927142Y-83465714D02*
X90165238Y-84132380D01*
X90403333Y-83465714D01*
X90974761Y-83132380D02*
X91070000Y-83132380D01*
X91165238Y-83180000D01*
X91212857Y-83227619D01*
X91260476Y-83322857D01*
X91308095Y-83513333D01*
X91308095Y-83751428D01*
X91260476Y-83941904D01*
X91212857Y-84037142D01*
X91165238Y-84084761D01*
X91070000Y-84132380D01*
X90974761Y-84132380D01*
X90879523Y-84084761D01*
X90831904Y-84037142D01*
X90784285Y-83941904D01*
X90736666Y-83751428D01*
X90736666Y-83513333D01*
X90784285Y-83322857D01*
X90831904Y-83227619D01*
X90879523Y-83180000D01*
X90974761Y-83132380D01*
X92260476Y-84132380D02*
X91689047Y-84132380D01*
X91974761Y-84132380D02*
X91974761Y-83132380D01*
X91879523Y-83275238D01*
X91784285Y-83370476D01*
X91689047Y-83418095D01*
X93689047Y-84465714D02*
X93689047Y-83037142D01*
X95450952Y-83132380D02*
X95450952Y-83846666D01*
X95403333Y-83989523D01*
X95308095Y-84084761D01*
X95165238Y-84132380D01*
X95070000Y-84132380D01*
X96355714Y-83465714D02*
X96355714Y-84132380D01*
X95927142Y-83465714D02*
X95927142Y-83989523D01*
X95974761Y-84084761D01*
X96070000Y-84132380D01*
X96212857Y-84132380D01*
X96308095Y-84084761D01*
X96355714Y-84037142D01*
X96974761Y-84132380D02*
X96879523Y-84084761D01*
X96831904Y-83989523D01*
X96831904Y-83132380D01*
X97260476Y-83465714D02*
X97498571Y-84132380D01*
X97736666Y-83465714D02*
X97498571Y-84132380D01*
X97403333Y-84370476D01*
X97355714Y-84418095D01*
X97260476Y-84465714D01*
X98831904Y-83227619D02*
X98879523Y-83180000D01*
X98974761Y-83132380D01*
X99212857Y-83132380D01*
X99308095Y-83180000D01*
X99355714Y-83227619D01*
X99403333Y-83322857D01*
X99403333Y-83418095D01*
X99355714Y-83560952D01*
X98784285Y-84132380D01*
X99403333Y-84132380D01*
X100022380Y-83132380D02*
X100117619Y-83132380D01*
X100212857Y-83180000D01*
X100260476Y-83227619D01*
X100308095Y-83322857D01*
X100355714Y-83513333D01*
X100355714Y-83751428D01*
X100308095Y-83941904D01*
X100260476Y-84037142D01*
X100212857Y-84084761D01*
X100117619Y-84132380D01*
X100022380Y-84132380D01*
X99927142Y-84084761D01*
X99879523Y-84037142D01*
X99831904Y-83941904D01*
X99784285Y-83751428D01*
X99784285Y-83513333D01*
X99831904Y-83322857D01*
X99879523Y-83227619D01*
X99927142Y-83180000D01*
X100022380Y-83132380D01*
X100736666Y-83227619D02*
X100784285Y-83180000D01*
X100879523Y-83132380D01*
X101117619Y-83132380D01*
X101212857Y-83180000D01*
X101260476Y-83227619D01*
X101308095Y-83322857D01*
X101308095Y-83418095D01*
X101260476Y-83560952D01*
X100689047Y-84132380D01*
X101308095Y-84132380D01*
X101641428Y-83132380D02*
X102260476Y-83132380D01*
X101927142Y-83513333D01*
X102069999Y-83513333D01*
X102165238Y-83560952D01*
X102212857Y-83608571D01*
X102260476Y-83703809D01*
X102260476Y-83941904D01*
X102212857Y-84037142D01*
X102165238Y-84084761D01*
X102069999Y-84132380D01*
X101784285Y-84132380D01*
X101689047Y-84084761D01*
X101641428Y-84037142D01*
X103689047Y-84465714D02*
X103689047Y-83037142D01*
X105736666Y-84037142D02*
X105689047Y-84084761D01*
X105546190Y-84132380D01*
X105450952Y-84132380D01*
X105308095Y-84084761D01*
X105212857Y-83989523D01*
X105165238Y-83894285D01*
X105117619Y-83703809D01*
X105117619Y-83560952D01*
X105165238Y-83370476D01*
X105212857Y-83275238D01*
X105308095Y-83180000D01*
X105450952Y-83132380D01*
X105546190Y-83132380D01*
X105689047Y-83180000D01*
X105736666Y-83227619D01*
X106593809Y-83465714D02*
X106593809Y-84132380D01*
X106165238Y-83465714D02*
X106165238Y-83989523D01*
X106212857Y-84084761D01*
X106308095Y-84132380D01*
X106450952Y-84132380D01*
X106546190Y-84084761D01*
X106593809Y-84037142D01*
X107069999Y-84132380D02*
X107069999Y-83465714D01*
X107069999Y-83656190D02*
X107117619Y-83560952D01*
X107165238Y-83513333D01*
X107260476Y-83465714D01*
X107355714Y-83465714D01*
X107546190Y-83465714D02*
X107927142Y-83465714D01*
X107689047Y-83132380D02*
X107689047Y-83989523D01*
X107736666Y-84084761D01*
X107831904Y-84132380D01*
X107927142Y-84132380D01*
X108260476Y-84132380D02*
X108260476Y-83465714D01*
X108260476Y-83132380D02*
X108212857Y-83180000D01*
X108260476Y-83227619D01*
X108308095Y-83180000D01*
X108260476Y-83132380D01*
X108260476Y-83227619D01*
X108689047Y-84084761D02*
X108784285Y-84132380D01*
X108974761Y-84132380D01*
X109069999Y-84084761D01*
X109117619Y-83989523D01*
X109117619Y-83941904D01*
X109069999Y-83846666D01*
X108974761Y-83799047D01*
X108831904Y-83799047D01*
X108736666Y-83751428D01*
X108689047Y-83656190D01*
X108689047Y-83608571D01*
X108736666Y-83513333D01*
X108831904Y-83465714D01*
X108974761Y-83465714D01*
X109069999Y-83513333D01*
X110260476Y-84084761D02*
X110403333Y-84132380D01*
X110641428Y-84132380D01*
X110736666Y-84084761D01*
X110784285Y-84037142D01*
X110831904Y-83941904D01*
X110831904Y-83846666D01*
X110784285Y-83751428D01*
X110736666Y-83703809D01*
X110641428Y-83656190D01*
X110450952Y-83608571D01*
X110355714Y-83560952D01*
X110308095Y-83513333D01*
X110260476Y-83418095D01*
X110260476Y-83322857D01*
X110308095Y-83227619D01*
X110355714Y-83180000D01*
X110450952Y-83132380D01*
X110689047Y-83132380D01*
X110831904Y-83180000D01*
X111641428Y-84084761D02*
X111546190Y-84132380D01*
X111355714Y-84132380D01*
X111260476Y-84084761D01*
X111212857Y-83989523D01*
X111212857Y-83608571D01*
X111260476Y-83513333D01*
X111355714Y-83465714D01*
X111546190Y-83465714D01*
X111641428Y-83513333D01*
X111689047Y-83608571D01*
X111689047Y-83703809D01*
X111212857Y-83799047D01*
X112117619Y-84132380D02*
X112117619Y-83465714D01*
X112117619Y-83132380D02*
X112069999Y-83180000D01*
X112117619Y-83227619D01*
X112165238Y-83180000D01*
X112117619Y-83132380D01*
X112117619Y-83227619D01*
X112498571Y-83465714D02*
X113022380Y-83465714D01*
X112498571Y-84132380D01*
X113022380Y-84132380D01*
X113784285Y-84084761D02*
X113689047Y-84132380D01*
X113498571Y-84132380D01*
X113403333Y-84084761D01*
X113355714Y-83989523D01*
X113355714Y-83608571D01*
X113403333Y-83513333D01*
X113498571Y-83465714D01*
X113689047Y-83465714D01*
X113784285Y-83513333D01*
X113831904Y-83608571D01*
X113831904Y-83703809D01*
X113355714Y-83799047D01*
X114260476Y-84132380D02*
X114260476Y-83465714D01*
X114260476Y-83656190D02*
X114308095Y-83560952D01*
X114355714Y-83513333D01*
X114450952Y-83465714D01*
X114546190Y-83465714D01*
X114736666Y-83465714D02*
X115117619Y-83465714D01*
X114879523Y-83132380D02*
X114879523Y-83989523D01*
X114927142Y-84084761D01*
X115022380Y-84132380D01*
X115117619Y-84132380D01*
D11*
X79182500Y-59575000D02*
G75*
G03*
X79182500Y-59575000I-112500J0D01*
G01*
D10*
%TO.C,U1*%
X82560476Y-67427380D02*
X82560476Y-68236904D01*
X82598571Y-68332142D01*
X82636666Y-68379761D01*
X82712857Y-68427380D01*
X82865238Y-68427380D01*
X82941428Y-68379761D01*
X82979523Y-68332142D01*
X83017619Y-68236904D01*
X83017619Y-67427380D01*
X83817619Y-68427380D02*
X83360476Y-68427380D01*
X83589047Y-68427380D02*
X83589047Y-67427380D01*
X83512857Y-67570238D01*
X83436666Y-67665476D01*
X83360476Y-67713095D01*
%TO.C,SW1*%
X59003333Y-48279761D02*
X59117619Y-48327380D01*
X59308095Y-48327380D01*
X59384285Y-48279761D01*
X59422380Y-48232142D01*
X59460476Y-48136904D01*
X59460476Y-48041666D01*
X59422380Y-47946428D01*
X59384285Y-47898809D01*
X59308095Y-47851190D01*
X59155714Y-47803571D01*
X59079523Y-47755952D01*
X59041428Y-47708333D01*
X59003333Y-47613095D01*
X59003333Y-47517857D01*
X59041428Y-47422619D01*
X59079523Y-47375000D01*
X59155714Y-47327380D01*
X59346190Y-47327380D01*
X59460476Y-47375000D01*
X59727142Y-47327380D02*
X59917619Y-48327380D01*
X60070000Y-47613095D01*
X60222380Y-48327380D01*
X60412857Y-47327380D01*
X61136666Y-48327380D02*
X60679523Y-48327380D01*
X60908095Y-48327380D02*
X60908095Y-47327380D01*
X60831904Y-47470238D01*
X60755714Y-47565476D01*
X60679523Y-47613095D01*
%TO.C,R12*%
X77909880Y-72301785D02*
X77433690Y-72568452D01*
X77909880Y-72758928D02*
X76909880Y-72758928D01*
X76909880Y-72454166D01*
X76957500Y-72377976D01*
X77005119Y-72339880D01*
X77100357Y-72301785D01*
X77243214Y-72301785D01*
X77338452Y-72339880D01*
X77386071Y-72377976D01*
X77433690Y-72454166D01*
X77433690Y-72758928D01*
X77909880Y-71539880D02*
X77909880Y-71997023D01*
X77909880Y-71768452D02*
X76909880Y-71768452D01*
X77052738Y-71844642D01*
X77147976Y-71920833D01*
X77195595Y-71997023D01*
X77005119Y-71235119D02*
X76957500Y-71197023D01*
X76909880Y-71120833D01*
X76909880Y-70930357D01*
X76957500Y-70854166D01*
X77005119Y-70816071D01*
X77100357Y-70777976D01*
X77195595Y-70777976D01*
X77338452Y-70816071D01*
X77909880Y-71273214D01*
X77909880Y-70777976D01*
%TO.C,R3*%
X120036666Y-61827380D02*
X119770000Y-61351190D01*
X119579523Y-61827380D02*
X119579523Y-60827380D01*
X119884285Y-60827380D01*
X119960476Y-60875000D01*
X119998571Y-60922619D01*
X120036666Y-61017857D01*
X120036666Y-61160714D01*
X119998571Y-61255952D01*
X119960476Y-61303571D01*
X119884285Y-61351190D01*
X119579523Y-61351190D01*
X120303333Y-60827380D02*
X120798571Y-60827380D01*
X120531904Y-61208333D01*
X120646190Y-61208333D01*
X120722380Y-61255952D01*
X120760476Y-61303571D01*
X120798571Y-61398809D01*
X120798571Y-61636904D01*
X120760476Y-61732142D01*
X120722380Y-61779761D01*
X120646190Y-61827380D01*
X120417619Y-61827380D01*
X120341428Y-61779761D01*
X120303333Y-61732142D01*
%TO.C,R2*%
X36136666Y-79827380D02*
X35870000Y-79351190D01*
X35679523Y-79827380D02*
X35679523Y-78827380D01*
X35984285Y-78827380D01*
X36060476Y-78875000D01*
X36098571Y-78922619D01*
X36136666Y-79017857D01*
X36136666Y-79160714D01*
X36098571Y-79255952D01*
X36060476Y-79303571D01*
X35984285Y-79351190D01*
X35679523Y-79351190D01*
X36441428Y-78922619D02*
X36479523Y-78875000D01*
X36555714Y-78827380D01*
X36746190Y-78827380D01*
X36822380Y-78875000D01*
X36860476Y-78922619D01*
X36898571Y-79017857D01*
X36898571Y-79113095D01*
X36860476Y-79255952D01*
X36403333Y-79827380D01*
X36898571Y-79827380D01*
%TO.C,R1*%
X36136666Y-74627380D02*
X35870000Y-74151190D01*
X35679523Y-74627380D02*
X35679523Y-73627380D01*
X35984285Y-73627380D01*
X36060476Y-73675000D01*
X36098571Y-73722619D01*
X36136666Y-73817857D01*
X36136666Y-73960714D01*
X36098571Y-74055952D01*
X36060476Y-74103571D01*
X35984285Y-74151190D01*
X35679523Y-74151190D01*
X36898571Y-74627380D02*
X36441428Y-74627380D01*
X36670000Y-74627380D02*
X36670000Y-73627380D01*
X36593809Y-73770238D01*
X36517619Y-73865476D01*
X36441428Y-73913095D01*
%TO.C,K1*%
X114479523Y-59427380D02*
X114479523Y-58427380D01*
X114936666Y-59427380D02*
X114593809Y-58855952D01*
X114936666Y-58427380D02*
X114479523Y-58998809D01*
X115698571Y-59427380D02*
X115241428Y-59427380D01*
X115470000Y-59427380D02*
X115470000Y-58427380D01*
X115393809Y-58570238D01*
X115317619Y-58665476D01*
X115241428Y-58713095D01*
%TO.C,D3*%
X119579523Y-60027380D02*
X119579523Y-59027380D01*
X119770000Y-59027380D01*
X119884285Y-59075000D01*
X119960476Y-59170238D01*
X119998571Y-59265476D01*
X120036666Y-59455952D01*
X120036666Y-59598809D01*
X119998571Y-59789285D01*
X119960476Y-59884523D01*
X119884285Y-59979761D01*
X119770000Y-60027380D01*
X119579523Y-60027380D01*
X120303333Y-59027380D02*
X120798571Y-59027380D01*
X120531904Y-59408333D01*
X120646190Y-59408333D01*
X120722380Y-59455952D01*
X120760476Y-59503571D01*
X120798571Y-59598809D01*
X120798571Y-59836904D01*
X120760476Y-59932142D01*
X120722380Y-59979761D01*
X120646190Y-60027380D01*
X120417619Y-60027380D01*
X120341428Y-59979761D01*
X120303333Y-59932142D01*
%TO.C,D2*%
X34979523Y-77427380D02*
X34979523Y-76427380D01*
X35170000Y-76427380D01*
X35284285Y-76475000D01*
X35360476Y-76570238D01*
X35398571Y-76665476D01*
X35436666Y-76855952D01*
X35436666Y-76998809D01*
X35398571Y-77189285D01*
X35360476Y-77284523D01*
X35284285Y-77379761D01*
X35170000Y-77427380D01*
X34979523Y-77427380D01*
X35741428Y-76522619D02*
X35779523Y-76475000D01*
X35855714Y-76427380D01*
X36046190Y-76427380D01*
X36122380Y-76475000D01*
X36160476Y-76522619D01*
X36198571Y-76617857D01*
X36198571Y-76713095D01*
X36160476Y-76855952D01*
X35703333Y-77427380D01*
X36198571Y-77427380D01*
%TO.C,D1*%
X34879523Y-72427380D02*
X34879523Y-71427380D01*
X35070000Y-71427380D01*
X35184285Y-71475000D01*
X35260476Y-71570238D01*
X35298571Y-71665476D01*
X35336666Y-71855952D01*
X35336666Y-71998809D01*
X35298571Y-72189285D01*
X35260476Y-72284523D01*
X35184285Y-72379761D01*
X35070000Y-72427380D01*
X34879523Y-72427380D01*
X36098571Y-72427380D02*
X35641428Y-72427380D01*
X35870000Y-72427380D02*
X35870000Y-71427380D01*
X35793809Y-71570238D01*
X35717619Y-71665476D01*
X35641428Y-71713095D01*
%TO.C,Q4*%
X83893809Y-50522619D02*
X83817619Y-50475000D01*
X83741428Y-50379761D01*
X83627142Y-50236904D01*
X83550952Y-50189285D01*
X83474761Y-50189285D01*
X83512857Y-50427380D02*
X83436666Y-50379761D01*
X83360476Y-50284523D01*
X83322380Y-50094047D01*
X83322380Y-49760714D01*
X83360476Y-49570238D01*
X83436666Y-49475000D01*
X83512857Y-49427380D01*
X83665238Y-49427380D01*
X83741428Y-49475000D01*
X83817619Y-49570238D01*
X83855714Y-49760714D01*
X83855714Y-50094047D01*
X83817619Y-50284523D01*
X83741428Y-50379761D01*
X83665238Y-50427380D01*
X83512857Y-50427380D01*
X84541428Y-49760714D02*
X84541428Y-50427380D01*
X84350952Y-49379761D02*
X84160476Y-50094047D01*
X84655714Y-50094047D01*
%TO.C,R17*%
X76555714Y-55127380D02*
X76289047Y-54651190D01*
X76098571Y-55127380D02*
X76098571Y-54127380D01*
X76403333Y-54127380D01*
X76479523Y-54175000D01*
X76517619Y-54222619D01*
X76555714Y-54317857D01*
X76555714Y-54460714D01*
X76517619Y-54555952D01*
X76479523Y-54603571D01*
X76403333Y-54651190D01*
X76098571Y-54651190D01*
X77317619Y-55127380D02*
X76860476Y-55127380D01*
X77089047Y-55127380D02*
X77089047Y-54127380D01*
X77012857Y-54270238D01*
X76936666Y-54365476D01*
X76860476Y-54413095D01*
X77584285Y-54127380D02*
X78117619Y-54127380D01*
X77774761Y-55127380D01*
%TO.C,R8*%
X86236666Y-70127380D02*
X85970000Y-69651190D01*
X85779523Y-70127380D02*
X85779523Y-69127380D01*
X86084285Y-69127380D01*
X86160476Y-69175000D01*
X86198571Y-69222619D01*
X86236666Y-69317857D01*
X86236666Y-69460714D01*
X86198571Y-69555952D01*
X86160476Y-69603571D01*
X86084285Y-69651190D01*
X85779523Y-69651190D01*
X86693809Y-69555952D02*
X86617619Y-69508333D01*
X86579523Y-69460714D01*
X86541428Y-69365476D01*
X86541428Y-69317857D01*
X86579523Y-69222619D01*
X86617619Y-69175000D01*
X86693809Y-69127380D01*
X86846190Y-69127380D01*
X86922380Y-69175000D01*
X86960476Y-69222619D01*
X86998571Y-69317857D01*
X86998571Y-69365476D01*
X86960476Y-69460714D01*
X86922380Y-69508333D01*
X86846190Y-69555952D01*
X86693809Y-69555952D01*
X86617619Y-69603571D01*
X86579523Y-69651190D01*
X86541428Y-69746428D01*
X86541428Y-69936904D01*
X86579523Y-70032142D01*
X86617619Y-70079761D01*
X86693809Y-70127380D01*
X86846190Y-70127380D01*
X86922380Y-70079761D01*
X86960476Y-70032142D01*
X86998571Y-69936904D01*
X86998571Y-69746428D01*
X86960476Y-69651190D01*
X86922380Y-69603571D01*
X86846190Y-69555952D01*
%TO.C,C2*%
X80436666Y-76032142D02*
X80398571Y-76079761D01*
X80284285Y-76127380D01*
X80208095Y-76127380D01*
X80093809Y-76079761D01*
X80017619Y-75984523D01*
X79979523Y-75889285D01*
X79941428Y-75698809D01*
X79941428Y-75555952D01*
X79979523Y-75365476D01*
X80017619Y-75270238D01*
X80093809Y-75175000D01*
X80208095Y-75127380D01*
X80284285Y-75127380D01*
X80398571Y-75175000D01*
X80436666Y-75222619D01*
X80741428Y-75222619D02*
X80779523Y-75175000D01*
X80855714Y-75127380D01*
X81046190Y-75127380D01*
X81122380Y-75175000D01*
X81160476Y-75222619D01*
X81198571Y-75317857D01*
X81198571Y-75413095D01*
X81160476Y-75555952D01*
X80703333Y-76127380D01*
X81198571Y-76127380D01*
%TO.C,R4*%
X79422380Y-74308333D02*
X78946190Y-74575000D01*
X79422380Y-74765476D02*
X78422380Y-74765476D01*
X78422380Y-74460714D01*
X78470000Y-74384523D01*
X78517619Y-74346428D01*
X78612857Y-74308333D01*
X78755714Y-74308333D01*
X78850952Y-74346428D01*
X78898571Y-74384523D01*
X78946190Y-74460714D01*
X78946190Y-74765476D01*
X78755714Y-73622619D02*
X79422380Y-73622619D01*
X78374761Y-73813095D02*
X79089047Y-74003571D01*
X79089047Y-73508333D01*
%TO.C,R20*%
X91022380Y-70389285D02*
X90546190Y-70655952D01*
X91022380Y-70846428D02*
X90022380Y-70846428D01*
X90022380Y-70541666D01*
X90070000Y-70465476D01*
X90117619Y-70427380D01*
X90212857Y-70389285D01*
X90355714Y-70389285D01*
X90450952Y-70427380D01*
X90498571Y-70465476D01*
X90546190Y-70541666D01*
X90546190Y-70846428D01*
X90117619Y-70084523D02*
X90070000Y-70046428D01*
X90022380Y-69970238D01*
X90022380Y-69779761D01*
X90070000Y-69703571D01*
X90117619Y-69665476D01*
X90212857Y-69627380D01*
X90308095Y-69627380D01*
X90450952Y-69665476D01*
X91022380Y-70122619D01*
X91022380Y-69627380D01*
X90022380Y-69132142D02*
X90022380Y-69055952D01*
X90070000Y-68979761D01*
X90117619Y-68941666D01*
X90212857Y-68903571D01*
X90403333Y-68865476D01*
X90641428Y-68865476D01*
X90831904Y-68903571D01*
X90927142Y-68941666D01*
X90974761Y-68979761D01*
X91022380Y-69055952D01*
X91022380Y-69132142D01*
X90974761Y-69208333D01*
X90927142Y-69246428D01*
X90831904Y-69284523D01*
X90641428Y-69322619D01*
X90403333Y-69322619D01*
X90212857Y-69284523D01*
X90117619Y-69246428D01*
X90070000Y-69208333D01*
X90022380Y-69132142D01*
%TO.C,Q2*%
X72493809Y-59822619D02*
X72417619Y-59775000D01*
X72341428Y-59679761D01*
X72227142Y-59536904D01*
X72150952Y-59489285D01*
X72074761Y-59489285D01*
X72112857Y-59727380D02*
X72036666Y-59679761D01*
X71960476Y-59584523D01*
X71922380Y-59394047D01*
X71922380Y-59060714D01*
X71960476Y-58870238D01*
X72036666Y-58775000D01*
X72112857Y-58727380D01*
X72265238Y-58727380D01*
X72341428Y-58775000D01*
X72417619Y-58870238D01*
X72455714Y-59060714D01*
X72455714Y-59394047D01*
X72417619Y-59584523D01*
X72341428Y-59679761D01*
X72265238Y-59727380D01*
X72112857Y-59727380D01*
X72760476Y-58822619D02*
X72798571Y-58775000D01*
X72874761Y-58727380D01*
X73065238Y-58727380D01*
X73141428Y-58775000D01*
X73179523Y-58822619D01*
X73217619Y-58917857D01*
X73217619Y-59013095D01*
X73179523Y-59155952D01*
X72722380Y-59727380D01*
X73217619Y-59727380D01*
%TO.C,R10*%
X85955714Y-71427380D02*
X85689047Y-70951190D01*
X85498571Y-71427380D02*
X85498571Y-70427380D01*
X85803333Y-70427380D01*
X85879523Y-70475000D01*
X85917619Y-70522619D01*
X85955714Y-70617857D01*
X85955714Y-70760714D01*
X85917619Y-70855952D01*
X85879523Y-70903571D01*
X85803333Y-70951190D01*
X85498571Y-70951190D01*
X86717619Y-71427380D02*
X86260476Y-71427380D01*
X86489047Y-71427380D02*
X86489047Y-70427380D01*
X86412857Y-70570238D01*
X86336666Y-70665476D01*
X86260476Y-70713095D01*
X87212857Y-70427380D02*
X87289047Y-70427380D01*
X87365238Y-70475000D01*
X87403333Y-70522619D01*
X87441428Y-70617857D01*
X87479523Y-70808333D01*
X87479523Y-71046428D01*
X87441428Y-71236904D01*
X87403333Y-71332142D01*
X87365238Y-71379761D01*
X87289047Y-71427380D01*
X87212857Y-71427380D01*
X87136666Y-71379761D01*
X87098571Y-71332142D01*
X87060476Y-71236904D01*
X87022380Y-71046428D01*
X87022380Y-70808333D01*
X87060476Y-70617857D01*
X87098571Y-70522619D01*
X87136666Y-70475000D01*
X87212857Y-70427380D01*
%TO.C,C8*%
X76527142Y-59508333D02*
X76574761Y-59546428D01*
X76622380Y-59660714D01*
X76622380Y-59736904D01*
X76574761Y-59851190D01*
X76479523Y-59927380D01*
X76384285Y-59965476D01*
X76193809Y-60003571D01*
X76050952Y-60003571D01*
X75860476Y-59965476D01*
X75765238Y-59927380D01*
X75670000Y-59851190D01*
X75622380Y-59736904D01*
X75622380Y-59660714D01*
X75670000Y-59546428D01*
X75717619Y-59508333D01*
X76050952Y-59051190D02*
X76003333Y-59127380D01*
X75955714Y-59165476D01*
X75860476Y-59203571D01*
X75812857Y-59203571D01*
X75717619Y-59165476D01*
X75670000Y-59127380D01*
X75622380Y-59051190D01*
X75622380Y-58898809D01*
X75670000Y-58822619D01*
X75717619Y-58784523D01*
X75812857Y-58746428D01*
X75860476Y-58746428D01*
X75955714Y-58784523D01*
X76003333Y-58822619D01*
X76050952Y-58898809D01*
X76050952Y-59051190D01*
X76098571Y-59127380D01*
X76146190Y-59165476D01*
X76241428Y-59203571D01*
X76431904Y-59203571D01*
X76527142Y-59165476D01*
X76574761Y-59127380D01*
X76622380Y-59051190D01*
X76622380Y-58898809D01*
X76574761Y-58822619D01*
X76527142Y-58784523D01*
X76431904Y-58746428D01*
X76241428Y-58746428D01*
X76146190Y-58784523D01*
X76098571Y-58822619D01*
X76050952Y-58898809D01*
%TO.C,C6*%
X88736666Y-67432142D02*
X88698571Y-67479761D01*
X88584285Y-67527380D01*
X88508095Y-67527380D01*
X88393809Y-67479761D01*
X88317619Y-67384523D01*
X88279523Y-67289285D01*
X88241428Y-67098809D01*
X88241428Y-66955952D01*
X88279523Y-66765476D01*
X88317619Y-66670238D01*
X88393809Y-66575000D01*
X88508095Y-66527380D01*
X88584285Y-66527380D01*
X88698571Y-66575000D01*
X88736666Y-66622619D01*
X89422380Y-66527380D02*
X89270000Y-66527380D01*
X89193809Y-66575000D01*
X89155714Y-66622619D01*
X89079523Y-66765476D01*
X89041428Y-66955952D01*
X89041428Y-67336904D01*
X89079523Y-67432142D01*
X89117619Y-67479761D01*
X89193809Y-67527380D01*
X89346190Y-67527380D01*
X89422380Y-67479761D01*
X89460476Y-67432142D01*
X89498571Y-67336904D01*
X89498571Y-67098809D01*
X89460476Y-67003571D01*
X89422380Y-66955952D01*
X89346190Y-66908333D01*
X89193809Y-66908333D01*
X89117619Y-66955952D01*
X89079523Y-67003571D01*
X89041428Y-67098809D01*
%TO.C,R15*%
X77722380Y-62889285D02*
X77246190Y-63155952D01*
X77722380Y-63346428D02*
X76722380Y-63346428D01*
X76722380Y-63041666D01*
X76770000Y-62965476D01*
X76817619Y-62927380D01*
X76912857Y-62889285D01*
X77055714Y-62889285D01*
X77150952Y-62927380D01*
X77198571Y-62965476D01*
X77246190Y-63041666D01*
X77246190Y-63346428D01*
X77722380Y-62127380D02*
X77722380Y-62584523D01*
X77722380Y-62355952D02*
X76722380Y-62355952D01*
X76865238Y-62432142D01*
X76960476Y-62508333D01*
X77008095Y-62584523D01*
X76722380Y-61403571D02*
X76722380Y-61784523D01*
X77198571Y-61822619D01*
X77150952Y-61784523D01*
X77103333Y-61708333D01*
X77103333Y-61517857D01*
X77150952Y-61441666D01*
X77198571Y-61403571D01*
X77293809Y-61365476D01*
X77531904Y-61365476D01*
X77627142Y-61403571D01*
X77674761Y-61441666D01*
X77722380Y-61517857D01*
X77722380Y-61708333D01*
X77674761Y-61784523D01*
X77627142Y-61822619D01*
%TO.C,C4*%
X81027142Y-72408333D02*
X81074761Y-72446428D01*
X81122380Y-72560714D01*
X81122380Y-72636904D01*
X81074761Y-72751190D01*
X80979523Y-72827380D01*
X80884285Y-72865476D01*
X80693809Y-72903571D01*
X80550952Y-72903571D01*
X80360476Y-72865476D01*
X80265238Y-72827380D01*
X80170000Y-72751190D01*
X80122380Y-72636904D01*
X80122380Y-72560714D01*
X80170000Y-72446428D01*
X80217619Y-72408333D01*
X80455714Y-71722619D02*
X81122380Y-71722619D01*
X80074761Y-71913095D02*
X80789047Y-72103571D01*
X80789047Y-71608333D01*
%TO.C,C13*%
X87455714Y-47032142D02*
X87417619Y-47079761D01*
X87303333Y-47127380D01*
X87227142Y-47127380D01*
X87112857Y-47079761D01*
X87036666Y-46984523D01*
X86998571Y-46889285D01*
X86960476Y-46698809D01*
X86960476Y-46555952D01*
X86998571Y-46365476D01*
X87036666Y-46270238D01*
X87112857Y-46175000D01*
X87227142Y-46127380D01*
X87303333Y-46127380D01*
X87417619Y-46175000D01*
X87455714Y-46222619D01*
X88217619Y-47127380D02*
X87760476Y-47127380D01*
X87989047Y-47127380D02*
X87989047Y-46127380D01*
X87912857Y-46270238D01*
X87836666Y-46365476D01*
X87760476Y-46413095D01*
X88484285Y-46127380D02*
X88979523Y-46127380D01*
X88712857Y-46508333D01*
X88827142Y-46508333D01*
X88903333Y-46555952D01*
X88941428Y-46603571D01*
X88979523Y-46698809D01*
X88979523Y-46936904D01*
X88941428Y-47032142D01*
X88903333Y-47079761D01*
X88827142Y-47127380D01*
X88598571Y-47127380D01*
X88522380Y-47079761D01*
X88484285Y-47032142D01*
%TO.C,R5*%
X79422380Y-71908333D02*
X78946190Y-72175000D01*
X79422380Y-72365476D02*
X78422380Y-72365476D01*
X78422380Y-72060714D01*
X78470000Y-71984523D01*
X78517619Y-71946428D01*
X78612857Y-71908333D01*
X78755714Y-71908333D01*
X78850952Y-71946428D01*
X78898571Y-71984523D01*
X78946190Y-72060714D01*
X78946190Y-72365476D01*
X78422380Y-71184523D02*
X78422380Y-71565476D01*
X78898571Y-71603571D01*
X78850952Y-71565476D01*
X78803333Y-71489285D01*
X78803333Y-71298809D01*
X78850952Y-71222619D01*
X78898571Y-71184523D01*
X78993809Y-71146428D01*
X79231904Y-71146428D01*
X79327142Y-71184523D01*
X79374761Y-71222619D01*
X79422380Y-71298809D01*
X79422380Y-71489285D01*
X79374761Y-71565476D01*
X79327142Y-71603571D01*
%TO.C,C7*%
X85127142Y-66108333D02*
X85174761Y-66146428D01*
X85222380Y-66260714D01*
X85222380Y-66336904D01*
X85174761Y-66451190D01*
X85079523Y-66527380D01*
X84984285Y-66565476D01*
X84793809Y-66603571D01*
X84650952Y-66603571D01*
X84460476Y-66565476D01*
X84365238Y-66527380D01*
X84270000Y-66451190D01*
X84222380Y-66336904D01*
X84222380Y-66260714D01*
X84270000Y-66146428D01*
X84317619Y-66108333D01*
X84222380Y-65841666D02*
X84222380Y-65308333D01*
X85222380Y-65651190D01*
%TO.C,C3*%
X70136666Y-64032142D02*
X70098571Y-64079761D01*
X69984285Y-64127380D01*
X69908095Y-64127380D01*
X69793809Y-64079761D01*
X69717619Y-63984523D01*
X69679523Y-63889285D01*
X69641428Y-63698809D01*
X69641428Y-63555952D01*
X69679523Y-63365476D01*
X69717619Y-63270238D01*
X69793809Y-63175000D01*
X69908095Y-63127380D01*
X69984285Y-63127380D01*
X70098571Y-63175000D01*
X70136666Y-63222619D01*
X70403333Y-63127380D02*
X70898571Y-63127380D01*
X70631904Y-63508333D01*
X70746190Y-63508333D01*
X70822380Y-63555952D01*
X70860476Y-63603571D01*
X70898571Y-63698809D01*
X70898571Y-63936904D01*
X70860476Y-64032142D01*
X70822380Y-64079761D01*
X70746190Y-64127380D01*
X70517619Y-64127380D01*
X70441428Y-64079761D01*
X70403333Y-64032142D01*
%TO.C,C15*%
X89427142Y-69589285D02*
X89474761Y-69627380D01*
X89522380Y-69741666D01*
X89522380Y-69817857D01*
X89474761Y-69932142D01*
X89379523Y-70008333D01*
X89284285Y-70046428D01*
X89093809Y-70084523D01*
X88950952Y-70084523D01*
X88760476Y-70046428D01*
X88665238Y-70008333D01*
X88570000Y-69932142D01*
X88522380Y-69817857D01*
X88522380Y-69741666D01*
X88570000Y-69627380D01*
X88617619Y-69589285D01*
X89522380Y-68827380D02*
X89522380Y-69284523D01*
X89522380Y-69055952D02*
X88522380Y-69055952D01*
X88665238Y-69132142D01*
X88760476Y-69208333D01*
X88808095Y-69284523D01*
X88522380Y-68103571D02*
X88522380Y-68484523D01*
X88998571Y-68522619D01*
X88950952Y-68484523D01*
X88903333Y-68408333D01*
X88903333Y-68217857D01*
X88950952Y-68141666D01*
X88998571Y-68103571D01*
X89093809Y-68065476D01*
X89331904Y-68065476D01*
X89427142Y-68103571D01*
X89474761Y-68141666D01*
X89522380Y-68217857D01*
X89522380Y-68408333D01*
X89474761Y-68484523D01*
X89427142Y-68522619D01*
%TO.C,C5*%
X75227142Y-59508333D02*
X75274761Y-59546428D01*
X75322380Y-59660714D01*
X75322380Y-59736904D01*
X75274761Y-59851190D01*
X75179523Y-59927380D01*
X75084285Y-59965476D01*
X74893809Y-60003571D01*
X74750952Y-60003571D01*
X74560476Y-59965476D01*
X74465238Y-59927380D01*
X74370000Y-59851190D01*
X74322380Y-59736904D01*
X74322380Y-59660714D01*
X74370000Y-59546428D01*
X74417619Y-59508333D01*
X74322380Y-58784523D02*
X74322380Y-59165476D01*
X74798571Y-59203571D01*
X74750952Y-59165476D01*
X74703333Y-59089285D01*
X74703333Y-58898809D01*
X74750952Y-58822619D01*
X74798571Y-58784523D01*
X74893809Y-58746428D01*
X75131904Y-58746428D01*
X75227142Y-58784523D01*
X75274761Y-58822619D01*
X75322380Y-58898809D01*
X75322380Y-59089285D01*
X75274761Y-59165476D01*
X75227142Y-59203571D01*
%TO.C,C10*%
X110927142Y-60789285D02*
X110974761Y-60827380D01*
X111022380Y-60941666D01*
X111022380Y-61017857D01*
X110974761Y-61132142D01*
X110879523Y-61208333D01*
X110784285Y-61246428D01*
X110593809Y-61284523D01*
X110450952Y-61284523D01*
X110260476Y-61246428D01*
X110165238Y-61208333D01*
X110070000Y-61132142D01*
X110022380Y-61017857D01*
X110022380Y-60941666D01*
X110070000Y-60827380D01*
X110117619Y-60789285D01*
X111022380Y-60027380D02*
X111022380Y-60484523D01*
X111022380Y-60255952D02*
X110022380Y-60255952D01*
X110165238Y-60332142D01*
X110260476Y-60408333D01*
X110308095Y-60484523D01*
X110022380Y-59532142D02*
X110022380Y-59455952D01*
X110070000Y-59379761D01*
X110117619Y-59341666D01*
X110212857Y-59303571D01*
X110403333Y-59265476D01*
X110641428Y-59265476D01*
X110831904Y-59303571D01*
X110927142Y-59341666D01*
X110974761Y-59379761D01*
X111022380Y-59455952D01*
X111022380Y-59532142D01*
X110974761Y-59608333D01*
X110927142Y-59646428D01*
X110831904Y-59684523D01*
X110641428Y-59722619D01*
X110403333Y-59722619D01*
X110212857Y-59684523D01*
X110117619Y-59646428D01*
X110070000Y-59608333D01*
X110022380Y-59532142D01*
%TO.C,R11*%
X83855714Y-72027380D02*
X83589047Y-71551190D01*
X83398571Y-72027380D02*
X83398571Y-71027380D01*
X83703333Y-71027380D01*
X83779523Y-71075000D01*
X83817619Y-71122619D01*
X83855714Y-71217857D01*
X83855714Y-71360714D01*
X83817619Y-71455952D01*
X83779523Y-71503571D01*
X83703333Y-71551190D01*
X83398571Y-71551190D01*
X84617619Y-72027380D02*
X84160476Y-72027380D01*
X84389047Y-72027380D02*
X84389047Y-71027380D01*
X84312857Y-71170238D01*
X84236666Y-71265476D01*
X84160476Y-71313095D01*
X85379523Y-72027380D02*
X84922380Y-72027380D01*
X85150952Y-72027380D02*
X85150952Y-71027380D01*
X85074761Y-71170238D01*
X84998571Y-71265476D01*
X84922380Y-71313095D01*
%TO.C,C14*%
X87455714Y-45832142D02*
X87417619Y-45879761D01*
X87303333Y-45927380D01*
X87227142Y-45927380D01*
X87112857Y-45879761D01*
X87036666Y-45784523D01*
X86998571Y-45689285D01*
X86960476Y-45498809D01*
X86960476Y-45355952D01*
X86998571Y-45165476D01*
X87036666Y-45070238D01*
X87112857Y-44975000D01*
X87227142Y-44927380D01*
X87303333Y-44927380D01*
X87417619Y-44975000D01*
X87455714Y-45022619D01*
X88217619Y-45927380D02*
X87760476Y-45927380D01*
X87989047Y-45927380D02*
X87989047Y-44927380D01*
X87912857Y-45070238D01*
X87836666Y-45165476D01*
X87760476Y-45213095D01*
X88903333Y-45260714D02*
X88903333Y-45927380D01*
X88712857Y-44879761D02*
X88522380Y-45594047D01*
X89017619Y-45594047D01*
%TO.C,L1*%
X90136666Y-44427380D02*
X89755714Y-44427380D01*
X89755714Y-43427380D01*
X90822380Y-44427380D02*
X90365238Y-44427380D01*
X90593809Y-44427380D02*
X90593809Y-43427380D01*
X90517619Y-43570238D01*
X90441428Y-43665476D01*
X90365238Y-43713095D01*
%TO.C,R13*%
X77679880Y-74867694D02*
X77203690Y-75134361D01*
X77679880Y-75324837D02*
X76679880Y-75324837D01*
X76679880Y-75020075D01*
X76727500Y-74943885D01*
X76775119Y-74905789D01*
X76870357Y-74867694D01*
X77013214Y-74867694D01*
X77108452Y-74905789D01*
X77156071Y-74943885D01*
X77203690Y-75020075D01*
X77203690Y-75324837D01*
X77679880Y-74105789D02*
X77679880Y-74562932D01*
X77679880Y-74334361D02*
X76679880Y-74334361D01*
X76822738Y-74410551D01*
X76917976Y-74486742D01*
X76965595Y-74562932D01*
X76679880Y-73839123D02*
X76679880Y-73343885D01*
X77060833Y-73610551D01*
X77060833Y-73496266D01*
X77108452Y-73420075D01*
X77156071Y-73381980D01*
X77251309Y-73343885D01*
X77489404Y-73343885D01*
X77584642Y-73381980D01*
X77632261Y-73420075D01*
X77679880Y-73496266D01*
X77679880Y-73724837D01*
X77632261Y-73801028D01*
X77584642Y-73839123D01*
%TO.C,R19*%
X91022380Y-67889285D02*
X90546190Y-68155952D01*
X91022380Y-68346428D02*
X90022380Y-68346428D01*
X90022380Y-68041666D01*
X90070000Y-67965476D01*
X90117619Y-67927380D01*
X90212857Y-67889285D01*
X90355714Y-67889285D01*
X90450952Y-67927380D01*
X90498571Y-67965476D01*
X90546190Y-68041666D01*
X90546190Y-68346428D01*
X91022380Y-67127380D02*
X91022380Y-67584523D01*
X91022380Y-67355952D02*
X90022380Y-67355952D01*
X90165238Y-67432142D01*
X90260476Y-67508333D01*
X90308095Y-67584523D01*
X91022380Y-66746428D02*
X91022380Y-66594047D01*
X90974761Y-66517857D01*
X90927142Y-66479761D01*
X90784285Y-66403571D01*
X90593809Y-66365476D01*
X90212857Y-66365476D01*
X90117619Y-66403571D01*
X90070000Y-66441666D01*
X90022380Y-66517857D01*
X90022380Y-66670238D01*
X90070000Y-66746428D01*
X90117619Y-66784523D01*
X90212857Y-66822619D01*
X90450952Y-66822619D01*
X90546190Y-66784523D01*
X90593809Y-66746428D01*
X90641428Y-66670238D01*
X90641428Y-66517857D01*
X90593809Y-66441666D01*
X90546190Y-66403571D01*
X90450952Y-66365476D01*
%TO.C,C11*%
X93955714Y-59332142D02*
X93917619Y-59379761D01*
X93803333Y-59427380D01*
X93727142Y-59427380D01*
X93612857Y-59379761D01*
X93536666Y-59284523D01*
X93498571Y-59189285D01*
X93460476Y-58998809D01*
X93460476Y-58855952D01*
X93498571Y-58665476D01*
X93536666Y-58570238D01*
X93612857Y-58475000D01*
X93727142Y-58427380D01*
X93803333Y-58427380D01*
X93917619Y-58475000D01*
X93955714Y-58522619D01*
X94717619Y-59427380D02*
X94260476Y-59427380D01*
X94489047Y-59427380D02*
X94489047Y-58427380D01*
X94412857Y-58570238D01*
X94336666Y-58665476D01*
X94260476Y-58713095D01*
X95479523Y-59427380D02*
X95022380Y-59427380D01*
X95250952Y-59427380D02*
X95250952Y-58427380D01*
X95174761Y-58570238D01*
X95098571Y-58665476D01*
X95022380Y-58713095D01*
%TO.C,R14*%
X69355714Y-65427380D02*
X69089047Y-64951190D01*
X68898571Y-65427380D02*
X68898571Y-64427380D01*
X69203333Y-64427380D01*
X69279523Y-64475000D01*
X69317619Y-64522619D01*
X69355714Y-64617857D01*
X69355714Y-64760714D01*
X69317619Y-64855952D01*
X69279523Y-64903571D01*
X69203333Y-64951190D01*
X68898571Y-64951190D01*
X70117619Y-65427380D02*
X69660476Y-65427380D01*
X69889047Y-65427380D02*
X69889047Y-64427380D01*
X69812857Y-64570238D01*
X69736666Y-64665476D01*
X69660476Y-64713095D01*
X70803333Y-64760714D02*
X70803333Y-65427380D01*
X70612857Y-64379761D02*
X70422380Y-65094047D01*
X70917619Y-65094047D01*
%TO.C,R9*%
X85222380Y-70008333D02*
X84746190Y-70275000D01*
X85222380Y-70465476D02*
X84222380Y-70465476D01*
X84222380Y-70160714D01*
X84270000Y-70084523D01*
X84317619Y-70046428D01*
X84412857Y-70008333D01*
X84555714Y-70008333D01*
X84650952Y-70046428D01*
X84698571Y-70084523D01*
X84746190Y-70160714D01*
X84746190Y-70465476D01*
X85222380Y-69627380D02*
X85222380Y-69475000D01*
X85174761Y-69398809D01*
X85127142Y-69360714D01*
X84984285Y-69284523D01*
X84793809Y-69246428D01*
X84412857Y-69246428D01*
X84317619Y-69284523D01*
X84270000Y-69322619D01*
X84222380Y-69398809D01*
X84222380Y-69551190D01*
X84270000Y-69627380D01*
X84317619Y-69665476D01*
X84412857Y-69703571D01*
X84650952Y-69703571D01*
X84746190Y-69665476D01*
X84793809Y-69627380D01*
X84841428Y-69551190D01*
X84841428Y-69398809D01*
X84793809Y-69322619D01*
X84746190Y-69284523D01*
X84650952Y-69246428D01*
%TO.C,C1*%
X82527142Y-72408333D02*
X82574761Y-72446428D01*
X82622380Y-72560714D01*
X82622380Y-72636904D01*
X82574761Y-72751190D01*
X82479523Y-72827380D01*
X82384285Y-72865476D01*
X82193809Y-72903571D01*
X82050952Y-72903571D01*
X81860476Y-72865476D01*
X81765238Y-72827380D01*
X81670000Y-72751190D01*
X81622380Y-72636904D01*
X81622380Y-72560714D01*
X81670000Y-72446428D01*
X81717619Y-72408333D01*
X82622380Y-71646428D02*
X82622380Y-72103571D01*
X82622380Y-71875000D02*
X81622380Y-71875000D01*
X81765238Y-71951190D01*
X81860476Y-72027380D01*
X81908095Y-72103571D01*
%TO.C,Q3*%
X80293809Y-50422619D02*
X80217619Y-50375000D01*
X80141428Y-50279761D01*
X80027142Y-50136904D01*
X79950952Y-50089285D01*
X79874761Y-50089285D01*
X79912857Y-50327380D02*
X79836666Y-50279761D01*
X79760476Y-50184523D01*
X79722380Y-49994047D01*
X79722380Y-49660714D01*
X79760476Y-49470238D01*
X79836666Y-49375000D01*
X79912857Y-49327380D01*
X80065238Y-49327380D01*
X80141428Y-49375000D01*
X80217619Y-49470238D01*
X80255714Y-49660714D01*
X80255714Y-49994047D01*
X80217619Y-50184523D01*
X80141428Y-50279761D01*
X80065238Y-50327380D01*
X79912857Y-50327380D01*
X80522380Y-49327380D02*
X81017619Y-49327380D01*
X80750952Y-49708333D01*
X80865238Y-49708333D01*
X80941428Y-49755952D01*
X80979523Y-49803571D01*
X81017619Y-49898809D01*
X81017619Y-50136904D01*
X80979523Y-50232142D01*
X80941428Y-50279761D01*
X80865238Y-50327380D01*
X80636666Y-50327380D01*
X80560476Y-50279761D01*
X80522380Y-50232142D01*
%TO.C,R18*%
X91455714Y-45927380D02*
X91189047Y-45451190D01*
X90998571Y-45927380D02*
X90998571Y-44927380D01*
X91303333Y-44927380D01*
X91379523Y-44975000D01*
X91417619Y-45022619D01*
X91455714Y-45117857D01*
X91455714Y-45260714D01*
X91417619Y-45355952D01*
X91379523Y-45403571D01*
X91303333Y-45451190D01*
X90998571Y-45451190D01*
X92217619Y-45927380D02*
X91760476Y-45927380D01*
X91989047Y-45927380D02*
X91989047Y-44927380D01*
X91912857Y-45070238D01*
X91836666Y-45165476D01*
X91760476Y-45213095D01*
X92674761Y-45355952D02*
X92598571Y-45308333D01*
X92560476Y-45260714D01*
X92522380Y-45165476D01*
X92522380Y-45117857D01*
X92560476Y-45022619D01*
X92598571Y-44975000D01*
X92674761Y-44927380D01*
X92827142Y-44927380D01*
X92903333Y-44975000D01*
X92941428Y-45022619D01*
X92979523Y-45117857D01*
X92979523Y-45165476D01*
X92941428Y-45260714D01*
X92903333Y-45308333D01*
X92827142Y-45355952D01*
X92674761Y-45355952D01*
X92598571Y-45403571D01*
X92560476Y-45451190D01*
X92522380Y-45546428D01*
X92522380Y-45736904D01*
X92560476Y-45832142D01*
X92598571Y-45879761D01*
X92674761Y-45927380D01*
X92827142Y-45927380D01*
X92903333Y-45879761D01*
X92941428Y-45832142D01*
X92979523Y-45736904D01*
X92979523Y-45546428D01*
X92941428Y-45451190D01*
X92903333Y-45403571D01*
X92827142Y-45355952D01*
%TO.C,C12*%
X91255714Y-59232142D02*
X91217619Y-59279761D01*
X91103333Y-59327380D01*
X91027142Y-59327380D01*
X90912857Y-59279761D01*
X90836666Y-59184523D01*
X90798571Y-59089285D01*
X90760476Y-58898809D01*
X90760476Y-58755952D01*
X90798571Y-58565476D01*
X90836666Y-58470238D01*
X90912857Y-58375000D01*
X91027142Y-58327380D01*
X91103333Y-58327380D01*
X91217619Y-58375000D01*
X91255714Y-58422619D01*
X92017619Y-59327380D02*
X91560476Y-59327380D01*
X91789047Y-59327380D02*
X91789047Y-58327380D01*
X91712857Y-58470238D01*
X91636666Y-58565476D01*
X91560476Y-58613095D01*
X92322380Y-58422619D02*
X92360476Y-58375000D01*
X92436666Y-58327380D01*
X92627142Y-58327380D01*
X92703333Y-58375000D01*
X92741428Y-58422619D01*
X92779523Y-58517857D01*
X92779523Y-58613095D01*
X92741428Y-58755952D01*
X92284285Y-59327380D01*
X92779523Y-59327380D01*
%TO.C,Q1*%
X72817619Y-68308690D02*
X72770000Y-68384880D01*
X72674761Y-68461071D01*
X72531904Y-68575357D01*
X72484285Y-68651547D01*
X72484285Y-68727738D01*
X72722380Y-68689642D02*
X72674761Y-68765833D01*
X72579523Y-68842023D01*
X72389047Y-68880119D01*
X72055714Y-68880119D01*
X71865238Y-68842023D01*
X71770000Y-68765833D01*
X71722380Y-68689642D01*
X71722380Y-68537261D01*
X71770000Y-68461071D01*
X71865238Y-68384880D01*
X72055714Y-68346785D01*
X72389047Y-68346785D01*
X72579523Y-68384880D01*
X72674761Y-68461071D01*
X72722380Y-68537261D01*
X72722380Y-68689642D01*
X72722380Y-67584880D02*
X72722380Y-68042023D01*
X72722380Y-67813452D02*
X71722380Y-67813452D01*
X71865238Y-67889642D01*
X71960476Y-67965833D01*
X72008095Y-68042023D01*
%TO.C,R6*%
X86236666Y-68827380D02*
X85970000Y-68351190D01*
X85779523Y-68827380D02*
X85779523Y-67827380D01*
X86084285Y-67827380D01*
X86160476Y-67875000D01*
X86198571Y-67922619D01*
X86236666Y-68017857D01*
X86236666Y-68160714D01*
X86198571Y-68255952D01*
X86160476Y-68303571D01*
X86084285Y-68351190D01*
X85779523Y-68351190D01*
X86922380Y-67827380D02*
X86770000Y-67827380D01*
X86693809Y-67875000D01*
X86655714Y-67922619D01*
X86579523Y-68065476D01*
X86541428Y-68255952D01*
X86541428Y-68636904D01*
X86579523Y-68732142D01*
X86617619Y-68779761D01*
X86693809Y-68827380D01*
X86846190Y-68827380D01*
X86922380Y-68779761D01*
X86960476Y-68732142D01*
X86998571Y-68636904D01*
X86998571Y-68398809D01*
X86960476Y-68303571D01*
X86922380Y-68255952D01*
X86846190Y-68208333D01*
X86693809Y-68208333D01*
X86617619Y-68255952D01*
X86579523Y-68303571D01*
X86541428Y-68398809D01*
%TO.C,R7*%
X85222380Y-68008333D02*
X84746190Y-68275000D01*
X85222380Y-68465476D02*
X84222380Y-68465476D01*
X84222380Y-68160714D01*
X84270000Y-68084523D01*
X84317619Y-68046428D01*
X84412857Y-68008333D01*
X84555714Y-68008333D01*
X84650952Y-68046428D01*
X84698571Y-68084523D01*
X84746190Y-68160714D01*
X84746190Y-68465476D01*
X84222380Y-67741666D02*
X84222380Y-67208333D01*
X85222380Y-67551190D01*
%TO.C,C9*%
X76836666Y-58532142D02*
X76798571Y-58579761D01*
X76684285Y-58627380D01*
X76608095Y-58627380D01*
X76493809Y-58579761D01*
X76417619Y-58484523D01*
X76379523Y-58389285D01*
X76341428Y-58198809D01*
X76341428Y-58055952D01*
X76379523Y-57865476D01*
X76417619Y-57770238D01*
X76493809Y-57675000D01*
X76608095Y-57627380D01*
X76684285Y-57627380D01*
X76798571Y-57675000D01*
X76836666Y-57722619D01*
X77217619Y-58627380D02*
X77370000Y-58627380D01*
X77446190Y-58579761D01*
X77484285Y-58532142D01*
X77560476Y-58389285D01*
X77598571Y-58198809D01*
X77598571Y-57817857D01*
X77560476Y-57722619D01*
X77522380Y-57675000D01*
X77446190Y-57627380D01*
X77293809Y-57627380D01*
X77217619Y-57675000D01*
X77179523Y-57722619D01*
X77141428Y-57817857D01*
X77141428Y-58055952D01*
X77179523Y-58151190D01*
X77217619Y-58198809D01*
X77293809Y-58246428D01*
X77446190Y-58246428D01*
X77522380Y-58198809D01*
X77560476Y-58151190D01*
X77598571Y-58055952D01*
%TO.C,TP1*%
X71560476Y-69627380D02*
X72017619Y-69627380D01*
X71789047Y-70627380D02*
X71789047Y-69627380D01*
X72284285Y-70627380D02*
X72284285Y-69627380D01*
X72589047Y-69627380D01*
X72665238Y-69675000D01*
X72703333Y-69722619D01*
X72741428Y-69817857D01*
X72741428Y-69960714D01*
X72703333Y-70055952D01*
X72665238Y-70103571D01*
X72589047Y-70151190D01*
X72284285Y-70151190D01*
X73503333Y-70627380D02*
X73046190Y-70627380D01*
X73274761Y-70627380D02*
X73274761Y-69627380D01*
X73198571Y-69770238D01*
X73122380Y-69865476D01*
X73046190Y-69913095D01*
%TO.C,R16*%
X71422380Y-61889285D02*
X70946190Y-62155952D01*
X71422380Y-62346428D02*
X70422380Y-62346428D01*
X70422380Y-62041666D01*
X70470000Y-61965476D01*
X70517619Y-61927380D01*
X70612857Y-61889285D01*
X70755714Y-61889285D01*
X70850952Y-61927380D01*
X70898571Y-61965476D01*
X70946190Y-62041666D01*
X70946190Y-62346428D01*
X71422380Y-61127380D02*
X71422380Y-61584523D01*
X71422380Y-61355952D02*
X70422380Y-61355952D01*
X70565238Y-61432142D01*
X70660476Y-61508333D01*
X70708095Y-61584523D01*
X70422380Y-60441666D02*
X70422380Y-60594047D01*
X70470000Y-60670238D01*
X70517619Y-60708333D01*
X70660476Y-60784523D01*
X70850952Y-60822619D01*
X71231904Y-60822619D01*
X71327142Y-60784523D01*
X71374761Y-60746428D01*
X71422380Y-60670238D01*
X71422380Y-60517857D01*
X71374761Y-60441666D01*
X71327142Y-60403571D01*
X71231904Y-60365476D01*
X70993809Y-60365476D01*
X70898571Y-60403571D01*
X70850952Y-60441666D01*
X70803333Y-60517857D01*
X70803333Y-60670238D01*
X70850952Y-60746428D01*
X70898571Y-60784523D01*
X70993809Y-60822619D01*
%TO.C,D4*%
X86079523Y-67527380D02*
X86079523Y-66527380D01*
X86270000Y-66527380D01*
X86384285Y-66575000D01*
X86460476Y-66670238D01*
X86498571Y-66765476D01*
X86536666Y-66955952D01*
X86536666Y-67098809D01*
X86498571Y-67289285D01*
X86460476Y-67384523D01*
X86384285Y-67479761D01*
X86270000Y-67527380D01*
X86079523Y-67527380D01*
X87222380Y-66860714D02*
X87222380Y-67527380D01*
X87031904Y-66479761D02*
X86841428Y-67194047D01*
X87336666Y-67194047D01*
D12*
%TO.C,U1*%
X83567500Y-59185000D02*
X83567500Y-59660000D01*
X83092500Y-63405000D02*
X83567500Y-63405000D01*
X83567500Y-63405000D02*
X83567500Y-62930000D01*
X79822500Y-63405000D02*
X79347500Y-63405000D01*
X79822500Y-59185000D02*
X79347500Y-59185000D01*
X83092500Y-59185000D02*
X83567500Y-59185000D01*
X79347500Y-63405000D02*
X79347500Y-62930000D01*
%TO.C,SW1*%
X52170000Y-56975000D02*
X52570000Y-57175000D01*
X52570000Y-56775000D02*
X52170000Y-56975000D01*
X52570000Y-57175000D02*
X52570000Y-56775000D01*
%TO.C,R12*%
X77070000Y-65925000D02*
X77870000Y-65925000D01*
X77870000Y-65925000D02*
X77870000Y-64225000D01*
X77870000Y-64225000D02*
X77070000Y-64225000D01*
X77070000Y-64225000D02*
X77070000Y-65925000D01*
%TO.C,R3*%
X118920000Y-61825000D02*
X116820000Y-61825000D01*
X116820000Y-61825000D02*
X116820000Y-60725000D01*
X116820000Y-60725000D02*
X118920000Y-60725000D01*
X118920000Y-60725000D02*
X118920000Y-61825000D01*
%TO.C,R2*%
X39120000Y-79775000D02*
X37420000Y-79775000D01*
X37420000Y-79775000D02*
X37420000Y-78975000D01*
X37420000Y-78975000D02*
X39120000Y-78975000D01*
X39120000Y-78975000D02*
X39120000Y-79775000D01*
%TO.C,R1*%
X39120000Y-74575000D02*
X37420000Y-74575000D01*
X37420000Y-74575000D02*
X37420000Y-73775000D01*
X37420000Y-73775000D02*
X39120000Y-73775000D01*
X39120000Y-73775000D02*
X39120000Y-74575000D01*
%TO.C,K1*%
X118410000Y-49975000D02*
X118410000Y-50575000D01*
X118410000Y-52175000D02*
X118410000Y-52975000D01*
X111710000Y-48375000D02*
X111710000Y-47875000D01*
X118370000Y-54665000D02*
X118370000Y-56065000D01*
X111710000Y-58075000D02*
X111710000Y-57575000D01*
X111710000Y-52975000D02*
X111710000Y-52175000D01*
X118370000Y-57565000D02*
X118970000Y-57565000D01*
X111710000Y-47875000D02*
X118410000Y-47875000D01*
X118370000Y-58065000D02*
X118370000Y-57565000D01*
X111710000Y-55975000D02*
X111710000Y-54575000D01*
X111710000Y-50575000D02*
X111710000Y-49975000D01*
X118410000Y-47875000D02*
X118410000Y-48375000D01*
X118370000Y-58065000D02*
X111710000Y-58075000D01*
X118370000Y-56065000D02*
X118970000Y-56065000D01*
%TO.C,D3*%
X117170000Y-58975000D02*
X119020000Y-58975000D01*
X117170000Y-60175000D02*
X119020000Y-60175000D01*
X119020000Y-60175000D02*
X119020000Y-58975000D01*
%TO.C,D2*%
X42070000Y-76075000D02*
X41120000Y-76075000D01*
X39019999Y-77875001D02*
G75*
G03*
X41138658Y-77852765I1050001J900000D01*
G01*
X41120000Y-76075000D02*
G75*
G03*
X39001342Y-76097235I-1050000J-900000D01*
G01*
%TO.C,D1*%
X42070000Y-71075000D02*
X41120000Y-71075000D01*
X39019999Y-72875001D02*
G75*
G03*
X41138658Y-72852765I1050001J900000D01*
G01*
X41120000Y-71075000D02*
G75*
G03*
X39001342Y-71097235I-1050000J-900000D01*
G01*
%TO.C,J2*%
X93635000Y-69370000D02*
X93635000Y-67855000D01*
X93635000Y-65465000D02*
X93635000Y-61240000D01*
X106505000Y-65465000D02*
X106505000Y-61240000D01*
X100070000Y-71370000D02*
X105505000Y-71370000D01*
X105505000Y-71370000D02*
X106505000Y-69370000D01*
X93635000Y-61240000D02*
X96065000Y-61240000D01*
X94635000Y-71370000D02*
X93635000Y-69370000D01*
X100070000Y-71370000D02*
X94635000Y-71370000D01*
X104075000Y-61240000D02*
X104075000Y-59780000D01*
X106505000Y-69370000D02*
X106505000Y-67855000D01*
X106505000Y-61240000D02*
X104075000Y-61240000D01*
%TO.C,Q4*%
X85193752Y-51332500D02*
X85528752Y-51332500D01*
X82258752Y-51332500D02*
X82593752Y-51332500D01*
X82258752Y-54837500D02*
X82258752Y-51332500D01*
X85528752Y-54602500D02*
X85528752Y-51332500D01*
X85193752Y-54602500D02*
X85528752Y-54602500D01*
%TO.C,R17*%
X78015814Y-57428750D02*
X76561686Y-57428750D01*
X78015814Y-55608750D02*
X76561686Y-55608750D01*
%TO.C,R8*%
X87420000Y-62875000D02*
X85720000Y-62875000D01*
X85720000Y-62875000D02*
X85720000Y-62075000D01*
X85720000Y-62075000D02*
X87420000Y-62075000D01*
X87420000Y-62075000D02*
X87420000Y-62875000D01*
%TO.C,C2*%
X79874657Y-68665000D02*
X81297161Y-68665000D01*
X79874657Y-70475000D02*
X81297161Y-70475000D01*
%TO.C,R4*%
X78582500Y-68312500D02*
X79382500Y-68312500D01*
X79382500Y-68312500D02*
X79382500Y-66612500D01*
X79382500Y-66612500D02*
X78582500Y-66612500D01*
X78582500Y-66612500D02*
X78582500Y-68312500D01*
%TO.C,R20*%
X90370000Y-63225000D02*
X91170000Y-63225000D01*
X91170000Y-63225000D02*
X91170000Y-61525000D01*
X91170000Y-61525000D02*
X90370000Y-61525000D01*
X90370000Y-61525000D02*
X90370000Y-63225000D01*
%TO.C,Q2*%
X73235000Y-64167500D02*
X73235000Y-60662500D01*
X76170000Y-60662500D02*
X76505000Y-60662500D01*
X73235000Y-60662500D02*
X73570000Y-60662500D01*
X76170000Y-63932500D02*
X76505000Y-63932500D01*
X76505000Y-63932500D02*
X76505000Y-60662500D01*
%TO.C,R10*%
X87420000Y-63975000D02*
X85720000Y-63975000D01*
X85720000Y-63975000D02*
X85720000Y-63175000D01*
X85720000Y-63175000D02*
X87420000Y-63175000D01*
X87420000Y-63175000D02*
X87420000Y-63975000D01*
%TO.C,C8*%
X78645000Y-59150000D02*
X77895000Y-59150000D01*
X77895000Y-59150000D02*
X77895000Y-60800000D01*
X77895000Y-60800000D02*
X78645000Y-60800000D01*
X78645000Y-60800000D02*
X78645000Y-59150000D01*
%TO.C,C6*%
X90095000Y-60450000D02*
X88445000Y-60450000D01*
X88445000Y-60450000D02*
X88445000Y-59700000D01*
X88445000Y-59700000D02*
X90095000Y-59700000D01*
X90095000Y-59700000D02*
X90095000Y-60450000D01*
%TO.C,R15*%
X77870000Y-63225000D02*
X78670000Y-63225000D01*
X78670000Y-63225000D02*
X78670000Y-61525000D01*
X78670000Y-61525000D02*
X77870000Y-61525000D01*
X77870000Y-61525000D02*
X77870000Y-63225000D01*
%TO.C,C4*%
X81357500Y-67582500D02*
X79857500Y-67582500D01*
X79857500Y-64682500D02*
X79857500Y-67582500D01*
X81357500Y-64682500D02*
X79857500Y-64682500D01*
X81357500Y-64682500D02*
X81357500Y-67582500D01*
%TO.C,C13*%
X88681252Y-59085000D02*
X87258748Y-59085000D01*
X88681252Y-57275000D02*
X87258748Y-57275000D01*
%TO.C,R5*%
X78582500Y-65912500D02*
X79382500Y-65912500D01*
X79382500Y-65912500D02*
X79382500Y-64212500D01*
X79382500Y-64212500D02*
X78582500Y-64212500D01*
X78582500Y-64212500D02*
X78582500Y-65912500D01*
%TO.C,C7*%
X84595000Y-59800000D02*
X85345000Y-59800000D01*
X85345000Y-59800000D02*
X85345000Y-58150000D01*
X85345000Y-58150000D02*
X84595000Y-58150000D01*
X84595000Y-58150000D02*
X84595000Y-59800000D01*
%TO.C,C3*%
X72882500Y-64150000D02*
X71232500Y-64150000D01*
X71232500Y-64150000D02*
X71232500Y-63400000D01*
X71232500Y-63400000D02*
X72882500Y-63400000D01*
X72882500Y-63400000D02*
X72882500Y-64150000D01*
%TO.C,C15*%
X90020000Y-60775000D02*
X90020000Y-63175000D01*
X90020000Y-63175000D02*
X88925000Y-63175000D01*
X88915000Y-60775000D02*
X88925000Y-63175000D01*
X90020000Y-60775000D02*
X88915000Y-60775000D01*
%TO.C,C5*%
X76895000Y-60800000D02*
X77645000Y-60800000D01*
X77645000Y-60800000D02*
X77645000Y-59150000D01*
X77645000Y-59150000D02*
X76895000Y-59150000D01*
X76895000Y-59150000D02*
X76895000Y-60800000D01*
%TO.C,C10*%
X81382500Y-55572500D02*
X82805004Y-55572500D01*
X81382500Y-58292500D02*
X82805004Y-58292500D01*
%TO.C,R11*%
X83620000Y-64175000D02*
X85320000Y-64175000D01*
X85320000Y-64175000D02*
X85320000Y-64975000D01*
X85320000Y-64975000D02*
X83620000Y-64975000D01*
X83620000Y-64975000D02*
X83620000Y-64175000D01*
%TO.C,C14*%
X88681252Y-55075000D02*
X87258748Y-55075000D01*
X88681252Y-56885000D02*
X87258748Y-56885000D01*
%TO.C,L1*%
X93645000Y-53389500D02*
X93645000Y-54650000D01*
X93645000Y-54650000D02*
X87095000Y-54650000D01*
X87095000Y-48100000D02*
X87095000Y-49360500D01*
X93645000Y-49360500D02*
X93645000Y-48100000D01*
X93645000Y-48100000D02*
X87095000Y-48100000D01*
X87095000Y-54650000D02*
X87095000Y-53389500D01*
%TO.C,R13*%
X77920000Y-66625000D02*
X76820000Y-66625000D01*
X76820000Y-66625000D02*
X76820000Y-68725000D01*
X76820000Y-68725000D02*
X77920000Y-68725000D01*
X77920000Y-68725000D02*
X77920000Y-66625000D01*
%TO.C,R19*%
X90370000Y-61325000D02*
X91170000Y-61325000D01*
X91170000Y-61325000D02*
X91170000Y-59625000D01*
X91170000Y-59625000D02*
X90370000Y-59625000D01*
X90370000Y-59625000D02*
X90370000Y-61325000D01*
%TO.C,C11*%
X93645000Y-57400000D02*
X95295000Y-57400000D01*
X95295000Y-57400000D02*
X95295000Y-58150000D01*
X95295000Y-58150000D02*
X93645000Y-58150000D01*
X93645000Y-58150000D02*
X93645000Y-57400000D01*
%TO.C,R14*%
X72907500Y-65375000D02*
X71207500Y-65375000D01*
X71207500Y-65375000D02*
X71207500Y-64575000D01*
X71207500Y-64575000D02*
X72907500Y-64575000D01*
X72907500Y-64575000D02*
X72907500Y-65375000D01*
%TO.C,R9*%
X85370000Y-62025000D02*
X84570000Y-62025000D01*
X84570000Y-62025000D02*
X84570000Y-63725000D01*
X84570000Y-63725000D02*
X85370000Y-63725000D01*
X85370000Y-63725000D02*
X85370000Y-62025000D01*
%TO.C,C1*%
X82757500Y-64732500D02*
X81652500Y-64732500D01*
X82757500Y-67132500D02*
X81662500Y-67132500D01*
X81652500Y-64732500D02*
X81662500Y-67132500D01*
X82757500Y-64732500D02*
X82757500Y-67132500D01*
%TO.C,Q3*%
X81828752Y-54645000D02*
X81493752Y-54645000D01*
X78558752Y-51375000D02*
X78558752Y-54645000D01*
X78893752Y-51375000D02*
X78558752Y-51375000D01*
X78893752Y-54645000D02*
X78558752Y-54645000D01*
X81828752Y-51140000D02*
X81828752Y-54645000D01*
%TO.C,R18*%
X91742936Y-55165000D02*
X93197064Y-55165000D01*
X91742936Y-56985000D02*
X93197064Y-56985000D01*
%TO.C,C12*%
X91645000Y-57400000D02*
X93295000Y-57400000D01*
X93295000Y-57400000D02*
X93295000Y-58150000D01*
X93295000Y-58150000D02*
X91645000Y-58150000D01*
X91645000Y-58150000D02*
X91645000Y-57400000D01*
%TO.C,Q1*%
X76505000Y-68542500D02*
X76170000Y-68542500D01*
X73235000Y-65272500D02*
X73235000Y-68542500D01*
X73570000Y-68542500D02*
X73235000Y-68542500D01*
X73570000Y-65272500D02*
X73235000Y-65272500D01*
X76505000Y-65037500D02*
X76505000Y-68542500D01*
%TO.C,R6*%
X87420000Y-61775000D02*
X85720000Y-61775000D01*
X85720000Y-61775000D02*
X85720000Y-60975000D01*
X85720000Y-60975000D02*
X87420000Y-60975000D01*
X87420000Y-60975000D02*
X87420000Y-61775000D01*
%TO.C,R7*%
X84570000Y-61725000D02*
X85370000Y-61725000D01*
X85370000Y-61725000D02*
X85370000Y-60025000D01*
X85370000Y-60025000D02*
X84570000Y-60025000D01*
X84570000Y-60025000D02*
X84570000Y-61725000D01*
%TO.C,C9*%
X79495000Y-58550000D02*
X77845000Y-58550000D01*
X77845000Y-58550000D02*
X77845000Y-57800000D01*
X77845000Y-57800000D02*
X79495000Y-57800000D01*
X79495000Y-57800000D02*
X79495000Y-58550000D01*
%TO.C,TP1*%
X75570000Y-70175000D02*
G75*
G03*
X75570000Y-70175000I-700000J0D01*
G01*
%TO.C,R16*%
X71720000Y-63125000D02*
X72820000Y-63125000D01*
X72820000Y-63125000D02*
X72820000Y-61025000D01*
X72820000Y-61025000D02*
X71720000Y-61025000D01*
X71720000Y-61025000D02*
X71720000Y-63125000D01*
%TO.C,D4*%
X86270000Y-59432500D02*
X88120000Y-59432500D01*
X86270000Y-60632500D02*
X88120000Y-60632500D01*
X88120000Y-60632500D02*
X88120000Y-59432500D01*
%TD*%
%LPC*%
D13*
%TO.C,U1*%
X79520000Y-60045000D03*
X79520000Y-60545000D03*
X79520000Y-61045000D03*
X79520000Y-61545000D03*
X79520000Y-62045000D03*
X79520000Y-62545000D03*
D14*
X80207500Y-63232500D03*
X80707500Y-63232500D03*
X81207500Y-63232500D03*
X81707500Y-63232500D03*
X82207500Y-63232500D03*
X82707500Y-63232500D03*
D13*
X83395000Y-62545000D03*
X83395000Y-62045000D03*
X83395000Y-61545000D03*
X83395000Y-61045000D03*
X83395000Y-60545000D03*
X83395000Y-60045000D03*
D14*
X82707500Y-59357500D03*
X82207500Y-59357500D03*
X81707500Y-59357500D03*
X81207500Y-59357500D03*
X80707500Y-59357500D03*
X80207500Y-59357500D03*
D15*
X81457500Y-61295000D03*
%TD*%
D16*
%TO.C,J1*%
X72070000Y-76975000D03*
D17*
X51070000Y-76975000D03*
D18*
X60070000Y-76975000D03*
%TD*%
D19*
%TO.C,SW1*%
X50070000Y-56975000D03*
X50070000Y-52975000D03*
X50070000Y-48975000D03*
%TD*%
D20*
%TO.C,R12*%
X77470000Y-65585000D03*
X77470000Y-64565000D03*
%TD*%
D21*
%TO.C,R3*%
X118520000Y-61275000D03*
X117220000Y-61275000D03*
%TD*%
D22*
%TO.C,R2*%
X38780000Y-79375000D03*
X37760000Y-79375000D03*
%TD*%
%TO.C,R1*%
X38780000Y-74175000D03*
X37760000Y-74175000D03*
%TD*%
D23*
%TO.C,K1*%
X118570000Y-56775000D03*
X118570000Y-53575000D03*
X118570000Y-51375000D03*
X118570000Y-49175000D03*
X111570000Y-49175000D03*
X111570000Y-51375000D03*
X111570000Y-53575000D03*
X111570000Y-56775000D03*
%TD*%
D24*
%TO.C,H5*%
X60070000Y-52975000D03*
%TD*%
D25*
%TO.C,D3*%
X118570000Y-59575000D03*
X117170000Y-59575000D03*
%TD*%
D26*
%TO.C,D2*%
X40070000Y-76975000D03*
D27*
X41620000Y-76600000D03*
X38520000Y-77350000D03*
%TD*%
D26*
%TO.C,D1*%
X40070000Y-71975000D03*
D27*
X41620000Y-71600000D03*
X38520000Y-72350000D03*
%TD*%
D28*
%TO.C,J2*%
X103070000Y-61190000D03*
X100070000Y-61190000D03*
X97070000Y-61190000D03*
X103070000Y-56560000D03*
X100070000Y-56560000D03*
X97070000Y-56560000D03*
D29*
X106955000Y-66660000D03*
X93185000Y-66660000D03*
%TD*%
D30*
%TO.C,Q4*%
X83893752Y-52410000D03*
D31*
X84883752Y-54402500D03*
X84223752Y-54402500D03*
X83563752Y-54402500D03*
X82903752Y-54402500D03*
%TD*%
D32*
%TO.C,R17*%
X75826250Y-56518750D03*
X78751250Y-56518750D03*
%TD*%
D22*
%TO.C,R8*%
X86060000Y-62475000D03*
X87080000Y-62475000D03*
%TD*%
D33*
%TO.C,C2*%
X81985909Y-69575000D03*
X79185909Y-69575000D03*
%TD*%
D20*
%TO.C,R4*%
X78982500Y-66952500D03*
X78982500Y-67972500D03*
%TD*%
%TO.C,R20*%
X90770000Y-61865000D03*
X90770000Y-62885000D03*
%TD*%
D34*
%TO.C,H4*%
X128070000Y-42375000D03*
%TD*%
D30*
%TO.C,Q2*%
X74870000Y-61740000D03*
D31*
X75860000Y-63732500D03*
X75200000Y-63732500D03*
X74540000Y-63732500D03*
X73880000Y-63732500D03*
%TD*%
D22*
%TO.C,R10*%
X86060000Y-63575000D03*
X87080000Y-63575000D03*
%TD*%
D35*
%TO.C,C8*%
X78270000Y-60455000D03*
X78270000Y-59495000D03*
%TD*%
D36*
%TO.C,C6*%
X88790000Y-60075000D03*
X89750000Y-60075000D03*
%TD*%
D20*
%TO.C,R15*%
X78270000Y-61865000D03*
X78270000Y-62885000D03*
%TD*%
D37*
%TO.C,C4*%
X80607500Y-67082500D03*
X80607500Y-65182500D03*
%TD*%
D34*
%TO.C,H1*%
X32070000Y-42375000D03*
%TD*%
D38*
%TO.C,C13*%
X86570000Y-58175000D03*
X89370000Y-58175000D03*
%TD*%
D20*
%TO.C,R5*%
X78982500Y-64552500D03*
X78982500Y-65572500D03*
%TD*%
D39*
%TO.C,C7*%
X84970000Y-58495000D03*
X84970000Y-59455000D03*
%TD*%
D36*
%TO.C,C3*%
X71577500Y-63775000D03*
X72537500Y-63775000D03*
%TD*%
D40*
%TO.C,C15*%
X89470000Y-62750000D03*
X89470000Y-61200000D03*
%TD*%
D39*
%TO.C,C5*%
X77270000Y-59495000D03*
X77270000Y-60455000D03*
%TD*%
D41*
%TO.C,C10*%
X83568752Y-56932500D03*
X80618752Y-56932500D03*
%TD*%
D42*
%TO.C,R11*%
X84980000Y-64575000D03*
X83960000Y-64575000D03*
%TD*%
D38*
%TO.C,C14*%
X86570000Y-55975000D03*
X89370000Y-55975000D03*
%TD*%
D43*
%TO.C,L1*%
X87449000Y-51375000D03*
X93291000Y-51375000D03*
%TD*%
D44*
%TO.C,R13*%
X77370000Y-68325000D03*
X77370000Y-67025000D03*
%TD*%
D20*
%TO.C,R19*%
X90770000Y-59965000D03*
X90770000Y-60985000D03*
%TD*%
D45*
%TO.C,C11*%
X93990000Y-57775000D03*
X94950000Y-57775000D03*
%TD*%
D22*
%TO.C,R14*%
X71547500Y-64975000D03*
X72567500Y-64975000D03*
%TD*%
D46*
%TO.C,R9*%
X84970000Y-63385000D03*
X84970000Y-62365000D03*
%TD*%
D40*
%TO.C,C1*%
X82207500Y-66707500D03*
X82207500Y-65157500D03*
%TD*%
D34*
%TO.C,H3*%
X128070000Y-87575000D03*
%TD*%
D47*
%TO.C,Q3*%
X80193752Y-53567500D03*
D31*
X79203752Y-51575000D03*
X79863752Y-51575000D03*
X80523752Y-51575000D03*
X81183752Y-51575000D03*
%TD*%
D48*
%TO.C,R18*%
X93932500Y-56075000D03*
X91007500Y-56075000D03*
%TD*%
D45*
%TO.C,C12*%
X92950000Y-57775000D03*
X91990000Y-57775000D03*
%TD*%
D47*
%TO.C,Q1*%
X74870000Y-67465000D03*
D31*
X73880000Y-65472500D03*
X74540000Y-65472500D03*
X75200000Y-65472500D03*
X75860000Y-65472500D03*
%TD*%
D22*
%TO.C,R6*%
X86060000Y-61375000D03*
X87080000Y-61375000D03*
%TD*%
D20*
%TO.C,R7*%
X84970000Y-60365000D03*
X84970000Y-61385000D03*
%TD*%
D36*
%TO.C,C9*%
X78190000Y-58175000D03*
X79150000Y-58175000D03*
%TD*%
D49*
%TO.C,TP1*%
X74870000Y-70175000D03*
%TD*%
D50*
%TO.C,R16*%
X72270000Y-61425000D03*
X72270000Y-62725000D03*
%TD*%
D34*
%TO.C,H2*%
X32070000Y-87575000D03*
%TD*%
D25*
%TO.C,D4*%
X86270000Y-60032500D03*
X87670000Y-60032500D03*
%TD*%
M02*
