%TF.GenerationSoftware,KiCad,Pcbnew,(6.0.11)*%
%TF.CreationDate,2023-07-06T01:04:48-04:00*%
%TF.ProjectId,RP_CHG_r01,52505f43-4847-45f7-9230-312e6b696361,rev?*%
%TF.SameCoordinates,Original*%
%TF.FileFunction,Copper,L2,Inr*%
%TF.FilePolarity,Positive*%
%FSLAX46Y46*%
G04 Gerber Fmt 4.6, Leading zero omitted, Abs format (unit mm)*
G04 Created by KiCad (PCBNEW (6.0.11)) date 2023-07-06 01:04:48*
%MOMM*%
%LPD*%
G01*
G04 APERTURE LIST*
%TA.AperFunction,ComponentPad*%
%ADD10C,14.000000*%
%TD*%
%TA.AperFunction,ComponentPad*%
%ADD11C,7.500000*%
%TD*%
%TA.AperFunction,ComponentPad*%
%ADD12C,7.000000*%
%TD*%
%TA.AperFunction,ViaPad*%
%ADD13C,0.450000*%
%TD*%
%TA.AperFunction,ViaPad*%
%ADD14C,0.800000*%
%TD*%
%TA.AperFunction,ViaPad*%
%ADD15C,0.600000*%
%TD*%
G04 APERTURE END LIST*
D10*
%TO.N,EP*%
%TO.C,J1*%
X60070000Y-76975000D03*
%TD*%
D11*
%TO.N,CASE*%
%TO.C,H5*%
X60070000Y-52975000D03*
%TD*%
D12*
%TO.N,CASE*%
%TO.C,H4*%
X128070000Y-42375000D03*
%TD*%
%TO.N,CASE*%
%TO.C,H1*%
X32070000Y-42375000D03*
%TD*%
%TO.N,CASE*%
%TO.C,H3*%
X128070000Y-87575000D03*
%TD*%
%TO.N,CASE*%
%TO.C,H2*%
X32070000Y-87575000D03*
%TD*%
D13*
%TO.N,EP*%
X81470000Y-61275000D03*
X80570000Y-62175000D03*
X82370000Y-62175000D03*
X82370000Y-60375000D03*
X80570000Y-60375000D03*
D14*
X97070000Y-53975000D03*
X111070000Y-57975000D03*
X108070000Y-64975000D03*
X110070000Y-64975000D03*
X110070000Y-66975000D03*
X110070000Y-68975000D03*
X108070000Y-68975000D03*
X105070000Y-68975000D03*
X103070000Y-68975000D03*
X103070000Y-66975000D03*
X103070000Y-64975000D03*
X105070000Y-64975000D03*
X95070000Y-68975000D03*
X97070000Y-68975000D03*
X97070000Y-66975000D03*
X97070000Y-64975000D03*
X95070000Y-64975000D03*
X92070000Y-64975000D03*
X92070000Y-68975000D03*
X90070000Y-68975000D03*
X90070000Y-66975000D03*
X90070000Y-64975000D03*
D13*
X69170000Y-63675000D03*
X90770000Y-63475000D03*
X87870000Y-61675000D03*
D14*
X95370000Y-55375000D03*
X95370000Y-56775000D03*
D13*
X80607500Y-66532500D03*
X78982500Y-64832500D03*
D14*
X85670000Y-57975000D03*
X87670000Y-58325000D03*
D13*
X78070000Y-58575000D03*
X84200000Y-60545000D03*
D14*
X86870000Y-48575000D03*
D13*
X82207500Y-66232500D03*
D14*
X89470000Y-48575000D03*
X84670000Y-56175000D03*
X91170000Y-48575000D03*
X89470000Y-51675000D03*
D13*
X84270000Y-58875000D03*
X84970000Y-63975000D03*
D14*
X87670000Y-57025000D03*
X89470000Y-53175000D03*
D13*
X83470000Y-59475000D03*
D14*
X84670000Y-57375000D03*
D13*
X83470000Y-58875000D03*
X84270000Y-63875000D03*
D14*
X91170000Y-50075000D03*
X85670000Y-56775000D03*
X87670000Y-54175000D03*
X85670000Y-55475000D03*
X91170000Y-53175000D03*
X91170000Y-51675000D03*
X87670000Y-55575000D03*
X77270000Y-61275000D03*
X93970000Y-48575000D03*
X89470000Y-50075000D03*
D15*
X81185909Y-69575000D03*
%TD*%
%TA.AperFunction,Conductor*%
%TO.N,EP*%
G36*
X128050242Y-37877466D02*
G01*
X128055811Y-37877476D01*
X128069641Y-37880656D01*
X128083482Y-37877524D01*
X128097669Y-37877549D01*
X128097669Y-37877772D01*
X128105651Y-37877057D01*
X128403240Y-37890050D01*
X128456662Y-37892382D01*
X128467610Y-37893340D01*
X128845887Y-37943141D01*
X128856696Y-37945048D01*
X129229184Y-38027626D01*
X129239801Y-38030471D01*
X129603677Y-38145200D01*
X129613991Y-38148953D01*
X129966504Y-38294969D01*
X129976439Y-38299602D01*
X130314878Y-38475783D01*
X130324387Y-38481273D01*
X130646162Y-38686266D01*
X130655166Y-38692570D01*
X130957864Y-38924838D01*
X130966281Y-38931902D01*
X131223582Y-39167674D01*
X131247571Y-39189656D01*
X131255340Y-39197425D01*
X131420004Y-39377124D01*
X131513096Y-39478716D01*
X131520162Y-39487136D01*
X131752430Y-39789834D01*
X131758734Y-39798838D01*
X131963727Y-40120613D01*
X131969217Y-40130122D01*
X132145398Y-40468561D01*
X132150031Y-40478496D01*
X132296044Y-40831002D01*
X132299800Y-40841323D01*
X132308150Y-40867806D01*
X132414529Y-41205198D01*
X132417374Y-41215816D01*
X132499951Y-41588296D01*
X132501860Y-41599121D01*
X132551660Y-41977389D01*
X132552618Y-41988339D01*
X132567919Y-42338780D01*
X132567201Y-42346624D01*
X132567549Y-42346625D01*
X132567524Y-42360811D01*
X132564344Y-42374641D01*
X132567475Y-42388480D01*
X132567467Y-42393311D01*
X132569500Y-42411504D01*
X132569500Y-87537920D01*
X132567534Y-87555242D01*
X132567524Y-87560811D01*
X132564344Y-87574641D01*
X132567476Y-87588482D01*
X132567451Y-87602669D01*
X132567228Y-87602669D01*
X132567943Y-87610651D01*
X132552618Y-87961661D01*
X132551660Y-87972611D01*
X132501860Y-88350879D01*
X132499951Y-88361704D01*
X132417374Y-88734184D01*
X132414529Y-88744801D01*
X132307224Y-89085134D01*
X132299803Y-89108669D01*
X132296047Y-89118991D01*
X132168139Y-89427789D01*
X132150035Y-89471495D01*
X132145398Y-89481439D01*
X131969217Y-89819878D01*
X131963727Y-89829387D01*
X131758734Y-90151162D01*
X131752430Y-90160166D01*
X131520162Y-90462864D01*
X131513098Y-90471281D01*
X131277876Y-90727982D01*
X131255344Y-90752571D01*
X131247575Y-90760340D01*
X131219985Y-90785622D01*
X130966284Y-91018096D01*
X130957864Y-91025162D01*
X130655166Y-91257430D01*
X130646162Y-91263734D01*
X130324387Y-91468727D01*
X130314878Y-91474217D01*
X129976439Y-91650398D01*
X129966504Y-91655031D01*
X129613991Y-91801047D01*
X129603677Y-91804800D01*
X129239802Y-91919529D01*
X129229185Y-91922374D01*
X128856696Y-92004952D01*
X128845887Y-92006859D01*
X128467611Y-92056660D01*
X128456662Y-92057618D01*
X128106217Y-92072919D01*
X128098376Y-92072201D01*
X128098375Y-92072549D01*
X128084189Y-92072524D01*
X128070359Y-92069344D01*
X128056520Y-92072475D01*
X128051689Y-92072467D01*
X128033496Y-92074500D01*
X32107080Y-92074500D01*
X32089758Y-92072534D01*
X32084189Y-92072524D01*
X32070359Y-92069344D01*
X32056518Y-92072476D01*
X32042331Y-92072451D01*
X32042331Y-92072228D01*
X32034349Y-92072943D01*
X31736760Y-92059950D01*
X31683338Y-92057618D01*
X31672389Y-92056660D01*
X31294113Y-92006859D01*
X31283304Y-92004952D01*
X30910815Y-91922374D01*
X30900198Y-91919529D01*
X30536323Y-91804800D01*
X30526009Y-91801047D01*
X30173496Y-91655031D01*
X30163561Y-91650398D01*
X29825122Y-91474217D01*
X29815613Y-91468727D01*
X29493838Y-91263734D01*
X29484834Y-91257430D01*
X29182136Y-91025162D01*
X29173716Y-91018096D01*
X28920015Y-90785622D01*
X28892425Y-90760340D01*
X28884656Y-90752571D01*
X28862125Y-90727982D01*
X28626902Y-90471281D01*
X28619838Y-90462864D01*
X28387570Y-90160166D01*
X28381266Y-90151162D01*
X28176273Y-89829387D01*
X28170783Y-89819878D01*
X27994602Y-89481439D01*
X27989965Y-89471495D01*
X27971862Y-89427789D01*
X27843953Y-89118991D01*
X27840197Y-89108669D01*
X27832777Y-89085134D01*
X27725471Y-88744801D01*
X27722626Y-88734184D01*
X27640049Y-88361704D01*
X27638140Y-88350879D01*
X27588340Y-87972611D01*
X27587382Y-87961661D01*
X27572094Y-87611508D01*
X27574090Y-87589863D01*
X27573226Y-87589764D01*
X27574042Y-87582678D01*
X27575655Y-87575718D01*
X27575656Y-87575000D01*
X28364422Y-87575000D01*
X28384722Y-87962338D01*
X28445398Y-88345433D01*
X28545786Y-88720087D01*
X28684786Y-89082194D01*
X28860875Y-89427789D01*
X29072124Y-89753084D01*
X29316219Y-90054516D01*
X29590484Y-90328781D01*
X29891916Y-90572876D01*
X30217211Y-90784125D01*
X30562806Y-90960214D01*
X30924913Y-91099214D01*
X31299567Y-91199602D01*
X31503201Y-91231854D01*
X31679414Y-91259764D01*
X31679422Y-91259765D01*
X31682662Y-91260278D01*
X32070000Y-91280578D01*
X32457338Y-91260278D01*
X32460578Y-91259765D01*
X32460586Y-91259764D01*
X32636799Y-91231854D01*
X32840433Y-91199602D01*
X33215087Y-91099214D01*
X33577194Y-90960214D01*
X33922789Y-90784125D01*
X34248084Y-90572876D01*
X34549516Y-90328781D01*
X34823781Y-90054516D01*
X35067876Y-89753084D01*
X35279125Y-89427789D01*
X35455214Y-89082194D01*
X35594214Y-88720087D01*
X35694602Y-88345433D01*
X35755278Y-87962338D01*
X35775578Y-87575000D01*
X124364422Y-87575000D01*
X124384722Y-87962338D01*
X124445398Y-88345433D01*
X124545786Y-88720087D01*
X124684786Y-89082194D01*
X124860875Y-89427789D01*
X125072124Y-89753084D01*
X125316219Y-90054516D01*
X125590484Y-90328781D01*
X125891916Y-90572876D01*
X126217211Y-90784125D01*
X126562806Y-90960214D01*
X126924913Y-91099214D01*
X127299567Y-91199602D01*
X127503201Y-91231854D01*
X127679414Y-91259764D01*
X127679422Y-91259765D01*
X127682662Y-91260278D01*
X128070000Y-91280578D01*
X128457338Y-91260278D01*
X128460578Y-91259765D01*
X128460586Y-91259764D01*
X128636799Y-91231854D01*
X128840433Y-91199602D01*
X129215087Y-91099214D01*
X129577194Y-90960214D01*
X129922789Y-90784125D01*
X130248084Y-90572876D01*
X130549516Y-90328781D01*
X130823781Y-90054516D01*
X131067876Y-89753084D01*
X131279125Y-89427789D01*
X131455214Y-89082194D01*
X131594214Y-88720087D01*
X131694602Y-88345433D01*
X131755278Y-87962338D01*
X131775578Y-87575000D01*
X131755278Y-87187662D01*
X131694602Y-86804567D01*
X131594214Y-86429913D01*
X131455214Y-86067806D01*
X131279125Y-85722211D01*
X131067876Y-85396916D01*
X130823781Y-85095484D01*
X130549516Y-84821219D01*
X130248084Y-84577124D01*
X129922789Y-84365875D01*
X129577194Y-84189786D01*
X129215087Y-84050786D01*
X128840433Y-83950398D01*
X128636799Y-83918146D01*
X128460586Y-83890236D01*
X128460578Y-83890235D01*
X128457338Y-83889722D01*
X128070000Y-83869422D01*
X127682662Y-83889722D01*
X127679422Y-83890235D01*
X127679414Y-83890236D01*
X127503201Y-83918146D01*
X127299567Y-83950398D01*
X126924913Y-84050786D01*
X126562806Y-84189786D01*
X126217211Y-84365875D01*
X125891916Y-84577124D01*
X125590484Y-84821219D01*
X125316219Y-85095484D01*
X125072124Y-85396916D01*
X124860875Y-85722211D01*
X124684786Y-86067806D01*
X124545786Y-86429913D01*
X124445398Y-86804567D01*
X124384722Y-87187662D01*
X124364422Y-87575000D01*
X35775578Y-87575000D01*
X35755278Y-87187662D01*
X35694602Y-86804567D01*
X35594214Y-86429913D01*
X35455214Y-86067806D01*
X35279125Y-85722211D01*
X35067876Y-85396916D01*
X34823781Y-85095484D01*
X34549516Y-84821219D01*
X34248084Y-84577124D01*
X33922789Y-84365875D01*
X33577194Y-84189786D01*
X33215087Y-84050786D01*
X32840433Y-83950398D01*
X32636799Y-83918146D01*
X32460586Y-83890236D01*
X32460578Y-83890235D01*
X32457338Y-83889722D01*
X32070000Y-83869422D01*
X31682662Y-83889722D01*
X31679422Y-83890235D01*
X31679414Y-83890236D01*
X31503201Y-83918146D01*
X31299567Y-83950398D01*
X30924913Y-84050786D01*
X30562806Y-84189786D01*
X30217211Y-84365875D01*
X29891916Y-84577124D01*
X29590484Y-84821219D01*
X29316219Y-85095484D01*
X29072124Y-85396916D01*
X28860875Y-85722211D01*
X28684786Y-86067806D01*
X28545786Y-86429913D01*
X28445398Y-86804567D01*
X28384722Y-87187662D01*
X28364422Y-87575000D01*
X27575656Y-87575000D01*
X27573654Y-87566225D01*
X27570500Y-87538210D01*
X27570500Y-76975000D01*
X38764532Y-76975000D01*
X38784365Y-77201692D01*
X38843261Y-77421496D01*
X38939432Y-77627734D01*
X39069953Y-77814139D01*
X39230861Y-77975047D01*
X39417266Y-78105568D01*
X39422244Y-78107889D01*
X39422247Y-78107891D01*
X39618522Y-78199416D01*
X39623504Y-78201739D01*
X39628812Y-78203161D01*
X39628814Y-78203162D01*
X39837993Y-78259211D01*
X39837995Y-78259211D01*
X39843308Y-78260635D01*
X39942302Y-78269296D01*
X40010492Y-78275262D01*
X40010499Y-78275262D01*
X40013216Y-78275500D01*
X40126784Y-78275500D01*
X40129501Y-78275262D01*
X40129508Y-78275262D01*
X40197698Y-78269296D01*
X40296692Y-78260635D01*
X40302005Y-78259211D01*
X40302007Y-78259211D01*
X40511186Y-78203162D01*
X40511188Y-78203161D01*
X40516496Y-78201739D01*
X40521478Y-78199416D01*
X40717753Y-78107891D01*
X40717756Y-78107889D01*
X40722734Y-78105568D01*
X40909139Y-77975047D01*
X41070047Y-77814139D01*
X41200568Y-77627734D01*
X41296739Y-77421496D01*
X41355635Y-77201692D01*
X41375468Y-76975000D01*
X41355635Y-76748308D01*
X41296739Y-76528504D01*
X41200568Y-76322266D01*
X41070047Y-76135861D01*
X40909139Y-75974953D01*
X40722734Y-75844432D01*
X40717756Y-75842111D01*
X40717753Y-75842109D01*
X40521478Y-75750584D01*
X40521476Y-75750583D01*
X40516496Y-75748261D01*
X40511188Y-75746839D01*
X40511186Y-75746838D01*
X40302007Y-75690789D01*
X40302005Y-75690789D01*
X40296692Y-75689365D01*
X40197698Y-75680704D01*
X40129508Y-75674738D01*
X40129501Y-75674738D01*
X40126784Y-75674500D01*
X40013216Y-75674500D01*
X40010499Y-75674738D01*
X40010492Y-75674738D01*
X39942302Y-75680704D01*
X39843308Y-75689365D01*
X39837995Y-75690789D01*
X39837993Y-75690789D01*
X39628814Y-75746838D01*
X39628812Y-75746839D01*
X39623504Y-75748261D01*
X39618524Y-75750583D01*
X39618522Y-75750584D01*
X39422247Y-75842109D01*
X39422244Y-75842111D01*
X39417266Y-75844432D01*
X39230861Y-75974953D01*
X39069953Y-76135861D01*
X38939432Y-76322266D01*
X38843261Y-76528504D01*
X38784365Y-76748308D01*
X38764532Y-76975000D01*
X27570500Y-76975000D01*
X27570500Y-71975000D01*
X38764532Y-71975000D01*
X38784365Y-72201692D01*
X38843261Y-72421496D01*
X38939432Y-72627734D01*
X39069953Y-72814139D01*
X39230861Y-72975047D01*
X39417266Y-73105568D01*
X39422244Y-73107889D01*
X39422247Y-73107891D01*
X39618522Y-73199416D01*
X39623504Y-73201739D01*
X39628812Y-73203161D01*
X39628814Y-73203162D01*
X39837993Y-73259211D01*
X39837995Y-73259211D01*
X39843308Y-73260635D01*
X39942302Y-73269296D01*
X40010492Y-73275262D01*
X40010499Y-73275262D01*
X40013216Y-73275500D01*
X40126784Y-73275500D01*
X40129501Y-73275262D01*
X40129508Y-73275262D01*
X40197698Y-73269296D01*
X40296692Y-73260635D01*
X40302005Y-73259211D01*
X40302007Y-73259211D01*
X40511186Y-73203162D01*
X40511188Y-73203161D01*
X40516496Y-73201739D01*
X40521478Y-73199416D01*
X40717753Y-73107891D01*
X40717756Y-73107889D01*
X40722734Y-73105568D01*
X40909139Y-72975047D01*
X41070047Y-72814139D01*
X41200568Y-72627734D01*
X41296739Y-72421496D01*
X41355635Y-72201692D01*
X41375468Y-71975000D01*
X41355635Y-71748308D01*
X41296739Y-71528504D01*
X41200568Y-71322266D01*
X41070047Y-71135861D01*
X40909139Y-70974953D01*
X40722734Y-70844432D01*
X40717756Y-70842111D01*
X40717753Y-70842109D01*
X40521478Y-70750584D01*
X40521476Y-70750583D01*
X40516496Y-70748261D01*
X40511188Y-70746839D01*
X40511186Y-70746838D01*
X40302007Y-70690789D01*
X40302005Y-70690789D01*
X40296692Y-70689365D01*
X40197698Y-70680704D01*
X40129508Y-70674738D01*
X40129501Y-70674738D01*
X40126784Y-70674500D01*
X40013216Y-70674500D01*
X40010499Y-70674738D01*
X40010492Y-70674738D01*
X39942302Y-70680704D01*
X39843308Y-70689365D01*
X39837995Y-70690789D01*
X39837993Y-70690789D01*
X39628814Y-70746838D01*
X39628812Y-70746839D01*
X39623504Y-70748261D01*
X39618524Y-70750583D01*
X39618522Y-70750584D01*
X39422247Y-70842109D01*
X39422244Y-70842111D01*
X39417266Y-70844432D01*
X39230861Y-70974953D01*
X39069953Y-71135861D01*
X38939432Y-71322266D01*
X38843261Y-71528504D01*
X38784365Y-71748308D01*
X38764532Y-71975000D01*
X27570500Y-71975000D01*
X27570500Y-64975000D01*
X68064508Y-64975000D01*
X68084354Y-65100304D01*
X68141950Y-65213342D01*
X68231658Y-65303050D01*
X68344696Y-65360646D01*
X68354485Y-65362196D01*
X68354487Y-65362197D01*
X68460207Y-65378941D01*
X68470000Y-65380492D01*
X68479793Y-65378941D01*
X68585513Y-65362197D01*
X68585515Y-65362196D01*
X68595304Y-65360646D01*
X68708342Y-65303050D01*
X68798050Y-65213342D01*
X68855646Y-65100304D01*
X68875492Y-64975000D01*
X68855646Y-64849696D01*
X68798050Y-64736658D01*
X68708342Y-64646950D01*
X68595304Y-64589354D01*
X68585515Y-64587804D01*
X68585513Y-64587803D01*
X68479793Y-64571059D01*
X68470000Y-64569508D01*
X68460207Y-64571059D01*
X68354487Y-64587803D01*
X68354485Y-64587804D01*
X68344696Y-64589354D01*
X68231658Y-64646950D01*
X68141950Y-64736658D01*
X68084354Y-64849696D01*
X68064508Y-64975000D01*
X27570500Y-64975000D01*
X27570500Y-64375000D01*
X69864508Y-64375000D01*
X69866059Y-64384793D01*
X69878319Y-64462197D01*
X69884354Y-64500304D01*
X69941950Y-64613342D01*
X70031658Y-64703050D01*
X70144696Y-64760646D01*
X70154485Y-64762196D01*
X70154487Y-64762197D01*
X70260207Y-64778941D01*
X70270000Y-64780492D01*
X70279793Y-64778941D01*
X70385513Y-64762197D01*
X70385515Y-64762196D01*
X70395304Y-64760646D01*
X70508342Y-64703050D01*
X70598050Y-64613342D01*
X70655646Y-64500304D01*
X70661682Y-64462197D01*
X70673941Y-64384793D01*
X70675492Y-64375000D01*
X70666837Y-64320353D01*
X70657197Y-64259487D01*
X70657196Y-64259485D01*
X70655646Y-64249696D01*
X70598050Y-64136658D01*
X70536392Y-64075000D01*
X80764508Y-64075000D01*
X80766059Y-64084793D01*
X80775673Y-64145491D01*
X80784354Y-64200304D01*
X80841950Y-64313342D01*
X80931658Y-64403050D01*
X81044696Y-64460646D01*
X81054485Y-64462196D01*
X81054487Y-64462197D01*
X81160207Y-64478941D01*
X81170000Y-64480492D01*
X81179793Y-64478941D01*
X81285513Y-64462197D01*
X81285515Y-64462196D01*
X81295304Y-64460646D01*
X81408342Y-64403050D01*
X81498050Y-64313342D01*
X81555646Y-64200304D01*
X81564328Y-64145491D01*
X81573941Y-64084793D01*
X81575492Y-64075000D01*
X81561927Y-63989354D01*
X81557197Y-63959487D01*
X81557196Y-63959485D01*
X81555646Y-63949696D01*
X81498050Y-63836658D01*
X81408342Y-63746950D01*
X81295304Y-63689354D01*
X81285515Y-63687804D01*
X81285513Y-63687803D01*
X81179793Y-63671059D01*
X81170000Y-63669508D01*
X81160207Y-63671059D01*
X81054487Y-63687803D01*
X81054485Y-63687804D01*
X81044696Y-63689354D01*
X80931658Y-63746950D01*
X80841950Y-63836658D01*
X80784354Y-63949696D01*
X80782804Y-63959485D01*
X80782803Y-63959487D01*
X80778073Y-63989354D01*
X80764508Y-64075000D01*
X70536392Y-64075000D01*
X70508342Y-64046950D01*
X70395304Y-63989354D01*
X70385515Y-63987804D01*
X70385513Y-63987803D01*
X70279793Y-63971059D01*
X70270000Y-63969508D01*
X70260207Y-63971059D01*
X70154487Y-63987803D01*
X70154485Y-63987804D01*
X70144696Y-63989354D01*
X70031658Y-64046950D01*
X69941950Y-64136658D01*
X69884354Y-64249696D01*
X69882804Y-64259485D01*
X69882803Y-64259487D01*
X69873163Y-64320353D01*
X69864508Y-64375000D01*
X27570500Y-64375000D01*
X27570500Y-63375000D01*
X77064508Y-63375000D01*
X77066059Y-63384793D01*
X77078058Y-63460550D01*
X77084354Y-63500304D01*
X77141950Y-63613342D01*
X77231658Y-63703050D01*
X77344696Y-63760646D01*
X77354485Y-63762196D01*
X77354487Y-63762197D01*
X77460207Y-63778941D01*
X77470000Y-63780492D01*
X77479793Y-63778941D01*
X77585513Y-63762197D01*
X77585515Y-63762196D01*
X77595304Y-63760646D01*
X77708342Y-63703050D01*
X77798050Y-63613342D01*
X77823955Y-63562500D01*
X78577008Y-63562500D01*
X78578559Y-63572293D01*
X78590834Y-63649792D01*
X78596854Y-63687804D01*
X78654450Y-63800842D01*
X78744158Y-63890550D01*
X78857196Y-63948146D01*
X78866985Y-63949696D01*
X78866987Y-63949697D01*
X78972707Y-63966441D01*
X78982500Y-63967992D01*
X78992293Y-63966441D01*
X79098013Y-63949697D01*
X79098015Y-63949696D01*
X79107804Y-63948146D01*
X79220842Y-63890550D01*
X79310550Y-63800842D01*
X79368146Y-63687804D01*
X79374167Y-63649792D01*
X79386441Y-63572293D01*
X79387992Y-63562500D01*
X79379540Y-63509137D01*
X79369697Y-63446987D01*
X79369696Y-63446985D01*
X79368146Y-63437196D01*
X79310550Y-63324158D01*
X79220842Y-63234450D01*
X79107804Y-63176854D01*
X79098015Y-63175304D01*
X79098013Y-63175303D01*
X78992293Y-63158559D01*
X78982500Y-63157008D01*
X78972707Y-63158559D01*
X78866987Y-63175303D01*
X78866985Y-63175304D01*
X78857196Y-63176854D01*
X78744158Y-63234450D01*
X78654450Y-63324158D01*
X78596854Y-63437196D01*
X78595304Y-63446985D01*
X78595303Y-63446987D01*
X78585460Y-63509137D01*
X78577008Y-63562500D01*
X77823955Y-63562500D01*
X77855646Y-63500304D01*
X77861943Y-63460550D01*
X77873941Y-63384793D01*
X77875492Y-63375000D01*
X77871224Y-63348050D01*
X77857197Y-63259487D01*
X77857196Y-63259485D01*
X77855646Y-63249696D01*
X77798050Y-63136658D01*
X77708342Y-63046950D01*
X77655450Y-63020000D01*
X82989508Y-63020000D01*
X83009354Y-63145304D01*
X83066950Y-63258342D01*
X83102013Y-63293405D01*
X83136039Y-63355717D01*
X83130974Y-63426532D01*
X83102013Y-63471595D01*
X83079450Y-63494158D01*
X83021854Y-63607196D01*
X83020304Y-63616985D01*
X83020303Y-63616987D01*
X83008129Y-63693855D01*
X83002008Y-63732500D01*
X83003559Y-63742293D01*
X83013943Y-63807853D01*
X83021854Y-63857804D01*
X83079450Y-63970842D01*
X83169158Y-64060550D01*
X83282196Y-64118146D01*
X83291985Y-64119696D01*
X83291987Y-64119697D01*
X83397707Y-64136441D01*
X83407500Y-64137992D01*
X83417293Y-64136441D01*
X83523013Y-64119697D01*
X83523015Y-64119696D01*
X83532804Y-64118146D01*
X83645842Y-64060550D01*
X83735550Y-63970842D01*
X83793146Y-63857804D01*
X83801058Y-63807853D01*
X83811441Y-63742293D01*
X83812992Y-63732500D01*
X83799892Y-63649790D01*
X83808991Y-63579381D01*
X83854713Y-63525067D01*
X83922541Y-63504094D01*
X83962983Y-63513493D01*
X83963929Y-63510580D01*
X83973362Y-63513645D01*
X83982196Y-63518146D01*
X83991985Y-63519696D01*
X83991987Y-63519697D01*
X84097707Y-63536441D01*
X84107500Y-63537992D01*
X84117293Y-63536441D01*
X84223013Y-63519697D01*
X84223015Y-63519696D01*
X84232804Y-63518146D01*
X84345842Y-63460550D01*
X84435550Y-63370842D01*
X84493146Y-63257804D01*
X84495735Y-63241461D01*
X84511441Y-63142293D01*
X84512992Y-63132500D01*
X84500553Y-63053961D01*
X84494697Y-63016987D01*
X84494696Y-63016985D01*
X84493146Y-63007196D01*
X84435550Y-62894158D01*
X84345842Y-62804450D01*
X84232804Y-62746854D01*
X84223015Y-62745304D01*
X84223013Y-62745303D01*
X84117293Y-62728559D01*
X84107500Y-62727008D01*
X84097707Y-62728559D01*
X83991987Y-62745303D01*
X83991985Y-62745304D01*
X83982196Y-62746854D01*
X83869158Y-62804450D01*
X83867311Y-62800826D01*
X83819098Y-62818054D01*
X83749939Y-62802007D01*
X83722750Y-62781358D01*
X83633342Y-62691950D01*
X83520304Y-62634354D01*
X83510515Y-62632804D01*
X83510513Y-62632803D01*
X83404793Y-62616059D01*
X83395000Y-62614508D01*
X83385207Y-62616059D01*
X83279487Y-62632803D01*
X83279485Y-62632804D01*
X83269696Y-62634354D01*
X83156658Y-62691950D01*
X83066950Y-62781658D01*
X83009354Y-62894696D01*
X82989508Y-63020000D01*
X77655450Y-63020000D01*
X77595304Y-62989354D01*
X77585515Y-62987804D01*
X77585513Y-62987803D01*
X77479793Y-62971059D01*
X77470000Y-62969508D01*
X77460207Y-62971059D01*
X77354487Y-62987803D01*
X77354485Y-62987804D01*
X77344696Y-62989354D01*
X77231658Y-63046950D01*
X77141950Y-63136658D01*
X77084354Y-63249696D01*
X77082804Y-63259485D01*
X77082803Y-63259487D01*
X77068776Y-63348050D01*
X77064508Y-63375000D01*
X27570500Y-63375000D01*
X27570500Y-62170000D01*
X90059508Y-62170000D01*
X90079354Y-62295304D01*
X90136950Y-62408342D01*
X90226658Y-62498050D01*
X90339696Y-62555646D01*
X90349485Y-62557196D01*
X90349487Y-62557197D01*
X90455207Y-62573941D01*
X90465000Y-62575492D01*
X90474793Y-62573941D01*
X90580513Y-62557197D01*
X90580515Y-62557196D01*
X90590304Y-62555646D01*
X90703342Y-62498050D01*
X90793050Y-62408342D01*
X90850646Y-62295304D01*
X90870492Y-62170000D01*
X90850646Y-62044696D01*
X90793050Y-61931658D01*
X90703342Y-61841950D01*
X90590304Y-61784354D01*
X90580515Y-61782804D01*
X90580513Y-61782803D01*
X90474793Y-61766059D01*
X90465000Y-61764508D01*
X90455207Y-61766059D01*
X90349487Y-61782803D01*
X90349485Y-61782804D01*
X90339696Y-61784354D01*
X90226658Y-61841950D01*
X90136950Y-61931658D01*
X90079354Y-62044696D01*
X90059508Y-62170000D01*
X27570500Y-62170000D01*
X27570500Y-61475000D01*
X71864508Y-61475000D01*
X71884354Y-61600304D01*
X71941950Y-61713342D01*
X72031658Y-61803050D01*
X72144696Y-61860646D01*
X72154485Y-61862196D01*
X72154487Y-61862197D01*
X72260207Y-61878941D01*
X72270000Y-61880492D01*
X72279793Y-61878941D01*
X72385513Y-61862197D01*
X72385515Y-61862196D01*
X72395304Y-61860646D01*
X72508342Y-61803050D01*
X72598050Y-61713342D01*
X72655646Y-61600304D01*
X72664405Y-61545000D01*
X78589508Y-61545000D01*
X78609354Y-61670304D01*
X78666950Y-61783342D01*
X78756658Y-61873050D01*
X78869696Y-61930646D01*
X78879485Y-61932196D01*
X78879487Y-61932197D01*
X78985207Y-61948941D01*
X78995000Y-61950492D01*
X79004793Y-61948941D01*
X79110513Y-61932197D01*
X79110515Y-61932196D01*
X79120304Y-61930646D01*
X79233342Y-61873050D01*
X79323050Y-61783342D01*
X79380646Y-61670304D01*
X79400492Y-61545000D01*
X79380646Y-61419696D01*
X79323050Y-61306658D01*
X79233342Y-61216950D01*
X79120304Y-61159354D01*
X79110515Y-61157804D01*
X79110513Y-61157803D01*
X79004793Y-61141059D01*
X78995000Y-61139508D01*
X78985207Y-61141059D01*
X78879487Y-61157803D01*
X78879485Y-61157804D01*
X78869696Y-61159354D01*
X78756658Y-61216950D01*
X78666950Y-61306658D01*
X78609354Y-61419696D01*
X78589508Y-61545000D01*
X72664405Y-61545000D01*
X72675492Y-61475000D01*
X72657626Y-61362197D01*
X72657197Y-61359487D01*
X72657196Y-61359485D01*
X72655646Y-61349696D01*
X72598050Y-61236658D01*
X72508342Y-61146950D01*
X72395304Y-61089354D01*
X72385515Y-61087804D01*
X72385513Y-61087803D01*
X72279793Y-61071059D01*
X72270000Y-61069508D01*
X72260207Y-61071059D01*
X72154487Y-61087803D01*
X72154485Y-61087804D01*
X72144696Y-61089354D01*
X72031658Y-61146950D01*
X71941950Y-61236658D01*
X71884354Y-61349696D01*
X71882804Y-61359485D01*
X71882803Y-61359487D01*
X71882374Y-61362197D01*
X71864508Y-61475000D01*
X27570500Y-61475000D01*
X27570500Y-60975000D01*
X87864508Y-60975000D01*
X87866059Y-60984793D01*
X87882620Y-61089354D01*
X87884354Y-61100304D01*
X87941950Y-61213342D01*
X88031658Y-61303050D01*
X88144696Y-61360646D01*
X88154485Y-61362196D01*
X88154487Y-61362197D01*
X88260207Y-61378941D01*
X88270000Y-61380492D01*
X88279793Y-61378941D01*
X88385513Y-61362197D01*
X88385515Y-61362196D01*
X88395304Y-61360646D01*
X88508342Y-61303050D01*
X88598050Y-61213342D01*
X88655646Y-61100304D01*
X88657381Y-61089354D01*
X88673941Y-60984793D01*
X88675492Y-60975000D01*
X88655646Y-60849696D01*
X88598050Y-60736658D01*
X88508342Y-60646950D01*
X88395304Y-60589354D01*
X88385515Y-60587804D01*
X88385513Y-60587803D01*
X88279793Y-60571059D01*
X88270000Y-60569508D01*
X88260207Y-60571059D01*
X88154487Y-60587803D01*
X88154485Y-60587804D01*
X88144696Y-60589354D01*
X88031658Y-60646950D01*
X87941950Y-60736658D01*
X87884354Y-60849696D01*
X87864508Y-60975000D01*
X27570500Y-60975000D01*
X27570500Y-60075000D01*
X86764508Y-60075000D01*
X86784354Y-60200304D01*
X86841950Y-60313342D01*
X86931658Y-60403050D01*
X87044696Y-60460646D01*
X87054485Y-60462196D01*
X87054487Y-60462197D01*
X87160207Y-60478941D01*
X87170000Y-60480492D01*
X87179793Y-60478941D01*
X87285513Y-60462197D01*
X87285515Y-60462196D01*
X87295304Y-60460646D01*
X87408342Y-60403050D01*
X87498050Y-60313342D01*
X87555646Y-60200304D01*
X87575492Y-60075000D01*
X87555646Y-59949696D01*
X87498050Y-59836658D01*
X87408342Y-59746950D01*
X87295304Y-59689354D01*
X87285515Y-59687804D01*
X87285513Y-59687803D01*
X87179793Y-59671059D01*
X87170000Y-59669508D01*
X87160207Y-59671059D01*
X87054487Y-59687803D01*
X87054485Y-59687804D01*
X87044696Y-59689354D01*
X86931658Y-59746950D01*
X86841950Y-59836658D01*
X86784354Y-59949696D01*
X86764508Y-60075000D01*
X27570500Y-60075000D01*
X27570500Y-58975000D01*
X78864508Y-58975000D01*
X78866059Y-58984793D01*
X78878319Y-59062197D01*
X78884354Y-59100304D01*
X78941950Y-59213342D01*
X79031658Y-59303050D01*
X79144696Y-59360646D01*
X79154485Y-59362196D01*
X79154487Y-59362197D01*
X79260207Y-59378941D01*
X79270000Y-59380492D01*
X79279793Y-59378941D01*
X79385513Y-59362197D01*
X79385515Y-59362196D01*
X79395304Y-59360646D01*
X79508342Y-59303050D01*
X79598050Y-59213342D01*
X79655646Y-59100304D01*
X79661682Y-59062197D01*
X79673941Y-58984793D01*
X79675492Y-58975000D01*
X79666837Y-58920353D01*
X79657197Y-58859487D01*
X79657196Y-58859485D01*
X79655646Y-58849696D01*
X79598050Y-58736658D01*
X79536392Y-58675000D01*
X80814508Y-58675000D01*
X80816059Y-58684793D01*
X80825673Y-58745491D01*
X80834354Y-58800304D01*
X80891950Y-58913342D01*
X80981658Y-59003050D01*
X81094696Y-59060646D01*
X81104485Y-59062196D01*
X81104487Y-59062197D01*
X81210207Y-59078941D01*
X81220000Y-59080492D01*
X81229793Y-59078941D01*
X81335513Y-59062197D01*
X81335515Y-59062196D01*
X81345304Y-59060646D01*
X81458342Y-59003050D01*
X81548050Y-58913342D01*
X81605646Y-58800304D01*
X81614328Y-58745491D01*
X81623941Y-58684793D01*
X81625492Y-58675000D01*
X81611927Y-58589354D01*
X81607197Y-58559487D01*
X81607196Y-58559485D01*
X81605646Y-58549696D01*
X81548050Y-58436658D01*
X81458342Y-58346950D01*
X81345304Y-58289354D01*
X81335515Y-58287804D01*
X81335513Y-58287803D01*
X81229793Y-58271059D01*
X81220000Y-58269508D01*
X81210207Y-58271059D01*
X81104487Y-58287803D01*
X81104485Y-58287804D01*
X81094696Y-58289354D01*
X80981658Y-58346950D01*
X80891950Y-58436658D01*
X80834354Y-58549696D01*
X80832804Y-58559485D01*
X80832803Y-58559487D01*
X80828073Y-58589354D01*
X80814508Y-58675000D01*
X79536392Y-58675000D01*
X79508342Y-58646950D01*
X79395304Y-58589354D01*
X79385515Y-58587804D01*
X79385513Y-58587803D01*
X79279793Y-58571059D01*
X79270000Y-58569508D01*
X79260207Y-58571059D01*
X79154487Y-58587803D01*
X79154485Y-58587804D01*
X79144696Y-58589354D01*
X79031658Y-58646950D01*
X78941950Y-58736658D01*
X78884354Y-58849696D01*
X78882804Y-58859485D01*
X78882803Y-58859487D01*
X78873163Y-58920353D01*
X78864508Y-58975000D01*
X27570500Y-58975000D01*
X27570500Y-57155000D01*
X91584508Y-57155000D01*
X91604354Y-57280304D01*
X91661950Y-57393342D01*
X91751658Y-57483050D01*
X91864696Y-57540646D01*
X91874485Y-57542196D01*
X91874487Y-57542197D01*
X91980207Y-57558941D01*
X91990000Y-57560492D01*
X91999793Y-57558941D01*
X92105513Y-57542197D01*
X92105515Y-57542196D01*
X92115304Y-57540646D01*
X92228342Y-57483050D01*
X92280905Y-57430487D01*
X92343217Y-57396461D01*
X92414032Y-57401526D01*
X92459095Y-57430487D01*
X92531658Y-57503050D01*
X92644696Y-57560646D01*
X92654485Y-57562196D01*
X92654487Y-57562197D01*
X92760207Y-57578941D01*
X92770000Y-57580492D01*
X92779793Y-57578941D01*
X92885513Y-57562197D01*
X92885515Y-57562196D01*
X92895304Y-57560646D01*
X93008342Y-57503050D01*
X93098050Y-57413342D01*
X93155646Y-57300304D01*
X93160365Y-57270513D01*
X93173941Y-57184793D01*
X93175492Y-57175000D01*
X93155646Y-57049696D01*
X93098050Y-56936658D01*
X93008342Y-56846950D01*
X92895304Y-56789354D01*
X92885515Y-56787804D01*
X92885513Y-56787803D01*
X92779793Y-56771059D01*
X92770000Y-56769508D01*
X92760207Y-56771059D01*
X92654487Y-56787803D01*
X92654485Y-56787804D01*
X92644696Y-56789354D01*
X92531658Y-56846950D01*
X92479095Y-56899513D01*
X92416783Y-56933539D01*
X92345968Y-56928474D01*
X92300905Y-56899513D01*
X92228342Y-56826950D01*
X92115304Y-56769354D01*
X92105515Y-56767804D01*
X92105513Y-56767803D01*
X91999793Y-56751059D01*
X91990000Y-56749508D01*
X91980207Y-56751059D01*
X91874487Y-56767803D01*
X91874485Y-56767804D01*
X91864696Y-56769354D01*
X91751658Y-56826950D01*
X91661950Y-56916658D01*
X91604354Y-57029696D01*
X91602804Y-57039485D01*
X91602803Y-57039487D01*
X91598416Y-57067186D01*
X91584508Y-57155000D01*
X27570500Y-57155000D01*
X27570500Y-52961192D01*
X56114447Y-52961192D01*
X56114597Y-52964373D01*
X56122634Y-53134793D01*
X56133301Y-53360997D01*
X56192462Y-53756849D01*
X56291323Y-54144696D01*
X56428872Y-54520567D01*
X56603701Y-54880614D01*
X56814021Y-55221150D01*
X56815964Y-55223683D01*
X56815966Y-55223685D01*
X56840089Y-55255122D01*
X57057677Y-55538688D01*
X57332174Y-55829978D01*
X57334579Y-55832062D01*
X57334585Y-55832067D01*
X57367481Y-55860562D01*
X57634704Y-56092037D01*
X57962167Y-56322182D01*
X58311211Y-56518057D01*
X58678263Y-56677656D01*
X59059565Y-56799344D01*
X59223834Y-56833961D01*
X59448092Y-56881220D01*
X59448097Y-56881221D01*
X59451211Y-56881877D01*
X59849194Y-56924409D01*
X59852382Y-56924426D01*
X59852387Y-56924426D01*
X60033973Y-56925377D01*
X60249437Y-56926505D01*
X60424515Y-56909647D01*
X60644678Y-56888448D01*
X60644683Y-56888447D01*
X60647843Y-56888143D01*
X60650962Y-56887520D01*
X60650967Y-56887519D01*
X60876514Y-56842450D01*
X61040332Y-56809716D01*
X61334118Y-56719336D01*
X61419845Y-56692963D01*
X61419848Y-56692962D01*
X61422887Y-56692027D01*
X61425815Y-56690790D01*
X61425821Y-56690788D01*
X61591986Y-56620596D01*
X61791590Y-56536280D01*
X61794393Y-56534746D01*
X61794398Y-56534743D01*
X61945670Y-56451924D01*
X62142667Y-56344071D01*
X62472522Y-56117368D01*
X62474961Y-56115300D01*
X62474967Y-56115295D01*
X62775338Y-55860562D01*
X62777779Y-55858492D01*
X62779985Y-55856200D01*
X62779991Y-55856194D01*
X63053105Y-55572385D01*
X63055312Y-55570092D01*
X63302280Y-55255122D01*
X63516153Y-54916808D01*
X63517573Y-54913960D01*
X63517578Y-54913951D01*
X63693323Y-54561459D01*
X63694743Y-54558611D01*
X63836221Y-54184201D01*
X63846733Y-54144696D01*
X63938317Y-53800496D01*
X63939138Y-53797411D01*
X63946140Y-53753701D01*
X63985071Y-53510646D01*
X64002441Y-53402200D01*
X64004278Y-53370353D01*
X64012558Y-53226737D01*
X64018424Y-53125000D01*
X85264508Y-53125000D01*
X85284354Y-53250304D01*
X85341950Y-53363342D01*
X85431658Y-53453050D01*
X85544696Y-53510646D01*
X85554485Y-53512196D01*
X85554487Y-53512197D01*
X85660207Y-53528941D01*
X85670000Y-53530492D01*
X85679793Y-53528941D01*
X85785513Y-53512197D01*
X85785515Y-53512196D01*
X85795304Y-53510646D01*
X85908342Y-53453050D01*
X85998050Y-53363342D01*
X86055646Y-53250304D01*
X86075492Y-53125000D01*
X86055646Y-52999696D01*
X85998050Y-52886658D01*
X85908342Y-52796950D01*
X85795304Y-52739354D01*
X85785515Y-52737804D01*
X85785513Y-52737803D01*
X85679793Y-52721059D01*
X85670000Y-52719508D01*
X85660207Y-52721059D01*
X85554487Y-52737803D01*
X85554485Y-52737804D01*
X85544696Y-52739354D01*
X85431658Y-52796950D01*
X85341950Y-52886658D01*
X85284354Y-52999696D01*
X85264508Y-53125000D01*
X64018424Y-53125000D01*
X64025481Y-53002615D01*
X64025577Y-52975000D01*
X64016913Y-52803961D01*
X64005488Y-52578437D01*
X64005487Y-52578432D01*
X64005327Y-52575264D01*
X63944785Y-52179621D01*
X63844571Y-51792121D01*
X63705711Y-51416732D01*
X63529626Y-51057298D01*
X63467845Y-50958044D01*
X63319806Y-50720208D01*
X63319798Y-50720197D01*
X63318119Y-50717499D01*
X63073356Y-50400812D01*
X62797843Y-50110482D01*
X62786794Y-50100978D01*
X62496816Y-49851558D01*
X62496813Y-49851556D01*
X62494401Y-49849481D01*
X62166136Y-49620480D01*
X61816410Y-49425825D01*
X61813490Y-49424567D01*
X61813485Y-49424565D01*
X61451738Y-49268772D01*
X61451728Y-49268768D01*
X61448804Y-49267509D01*
X61067080Y-49147152D01*
X60785854Y-49088913D01*
X60678272Y-49066634D01*
X60678269Y-49066634D01*
X60675147Y-49065987D01*
X60369738Y-49034426D01*
X60280175Y-49025170D01*
X60280172Y-49025170D01*
X60277019Y-49024844D01*
X60273852Y-49024838D01*
X60273843Y-49024838D01*
X60076515Y-49024494D01*
X59876771Y-49024145D01*
X59576479Y-49054118D01*
X59481686Y-49063580D01*
X59481684Y-49063580D01*
X59478501Y-49063898D01*
X59475361Y-49064537D01*
X59475360Y-49064537D01*
X59089422Y-49143057D01*
X59089415Y-49143059D01*
X59086288Y-49143695D01*
X58704146Y-49262719D01*
X58701218Y-49263968D01*
X58338919Y-49418501D01*
X58338915Y-49418503D01*
X58335989Y-49419751D01*
X58333210Y-49421285D01*
X58333204Y-49421288D01*
X58032914Y-49587057D01*
X57985586Y-49613184D01*
X57982965Y-49614999D01*
X57982960Y-49615002D01*
X57975049Y-49620480D01*
X57656524Y-49841037D01*
X57352172Y-50100978D01*
X57349972Y-50103280D01*
X57349969Y-50103283D01*
X57231682Y-50227064D01*
X57075648Y-50390344D01*
X56829781Y-50706174D01*
X56828085Y-50708878D01*
X56828082Y-50708882D01*
X56695750Y-50919839D01*
X56617090Y-51045234D01*
X56439751Y-51404051D01*
X56299581Y-51778953D01*
X56198015Y-52166100D01*
X56136092Y-52561530D01*
X56135921Y-52564692D01*
X56135920Y-52564699D01*
X56123586Y-52792450D01*
X56114447Y-52961192D01*
X27570500Y-52961192D01*
X27570500Y-42412371D01*
X27573755Y-42383918D01*
X27574043Y-42382676D01*
X27574044Y-42382669D01*
X27575655Y-42375718D01*
X27575656Y-42375000D01*
X28364422Y-42375000D01*
X28384722Y-42762338D01*
X28445398Y-43145433D01*
X28545786Y-43520087D01*
X28684786Y-43882194D01*
X28860875Y-44227789D01*
X29072124Y-44553084D01*
X29316219Y-44854516D01*
X29590484Y-45128781D01*
X29891916Y-45372876D01*
X30217211Y-45584125D01*
X30562806Y-45760214D01*
X30924913Y-45899214D01*
X31299567Y-45999602D01*
X31503201Y-46031854D01*
X31679414Y-46059764D01*
X31679422Y-46059765D01*
X31682662Y-46060278D01*
X32070000Y-46080578D01*
X32457338Y-46060278D01*
X32460578Y-46059765D01*
X32460586Y-46059764D01*
X32636799Y-46031854D01*
X32840433Y-45999602D01*
X33215087Y-45899214D01*
X33577194Y-45760214D01*
X33922789Y-45584125D01*
X34248084Y-45372876D01*
X34549516Y-45128781D01*
X34823781Y-44854516D01*
X35067876Y-44553084D01*
X35279125Y-44227789D01*
X35455214Y-43882194D01*
X35594214Y-43520087D01*
X35694602Y-43145433D01*
X35755278Y-42762338D01*
X35775578Y-42375000D01*
X124364422Y-42375000D01*
X124384722Y-42762338D01*
X124445398Y-43145433D01*
X124545786Y-43520087D01*
X124684786Y-43882194D01*
X124860875Y-44227789D01*
X125072124Y-44553084D01*
X125316219Y-44854516D01*
X125590484Y-45128781D01*
X125891916Y-45372876D01*
X126217211Y-45584125D01*
X126562806Y-45760214D01*
X126924913Y-45899214D01*
X127299567Y-45999602D01*
X127503201Y-46031854D01*
X127679414Y-46059764D01*
X127679422Y-46059765D01*
X127682662Y-46060278D01*
X128070000Y-46080578D01*
X128457338Y-46060278D01*
X128460578Y-46059765D01*
X128460586Y-46059764D01*
X128636799Y-46031854D01*
X128840433Y-45999602D01*
X129215087Y-45899214D01*
X129577194Y-45760214D01*
X129922789Y-45584125D01*
X130248084Y-45372876D01*
X130549516Y-45128781D01*
X130823781Y-44854516D01*
X131067876Y-44553084D01*
X131279125Y-44227789D01*
X131455214Y-43882194D01*
X131594214Y-43520087D01*
X131694602Y-43145433D01*
X131755278Y-42762338D01*
X131775578Y-42375000D01*
X131755278Y-41987662D01*
X131694602Y-41604567D01*
X131594214Y-41229913D01*
X131455214Y-40867806D01*
X131279125Y-40522211D01*
X131067876Y-40196916D01*
X130823781Y-39895484D01*
X130549516Y-39621219D01*
X130248084Y-39377124D01*
X129922789Y-39165875D01*
X129577194Y-38989786D01*
X129215087Y-38850786D01*
X128840433Y-38750398D01*
X128636799Y-38718146D01*
X128460586Y-38690236D01*
X128460578Y-38690235D01*
X128457338Y-38689722D01*
X128070000Y-38669422D01*
X127682662Y-38689722D01*
X127679422Y-38690235D01*
X127679414Y-38690236D01*
X127503201Y-38718146D01*
X127299567Y-38750398D01*
X126924913Y-38850786D01*
X126562806Y-38989786D01*
X126217211Y-39165875D01*
X125891916Y-39377124D01*
X125590484Y-39621219D01*
X125316219Y-39895484D01*
X125072124Y-40196916D01*
X124860875Y-40522211D01*
X124684786Y-40867806D01*
X124545786Y-41229913D01*
X124445398Y-41604567D01*
X124384722Y-41987662D01*
X124364422Y-42375000D01*
X35775578Y-42375000D01*
X35755278Y-41987662D01*
X35694602Y-41604567D01*
X35594214Y-41229913D01*
X35455214Y-40867806D01*
X35279125Y-40522211D01*
X35067876Y-40196916D01*
X34823781Y-39895484D01*
X34549516Y-39621219D01*
X34248084Y-39377124D01*
X33922789Y-39165875D01*
X33577194Y-38989786D01*
X33215087Y-38850786D01*
X32840433Y-38750398D01*
X32636799Y-38718146D01*
X32460586Y-38690236D01*
X32460578Y-38690235D01*
X32457338Y-38689722D01*
X32070000Y-38669422D01*
X31682662Y-38689722D01*
X31679422Y-38690235D01*
X31679414Y-38690236D01*
X31503201Y-38718146D01*
X31299567Y-38750398D01*
X30924913Y-38850786D01*
X30562806Y-38989786D01*
X30217211Y-39165875D01*
X29891916Y-39377124D01*
X29590484Y-39621219D01*
X29316219Y-39895484D01*
X29072124Y-40196916D01*
X28860875Y-40522211D01*
X28684786Y-40867806D01*
X28545786Y-41229913D01*
X28445398Y-41604567D01*
X28384722Y-41987662D01*
X28364422Y-42375000D01*
X27575656Y-42375000D01*
X27574074Y-42368066D01*
X27573282Y-42360990D01*
X27574046Y-42360905D01*
X27572069Y-42339063D01*
X27587382Y-41988339D01*
X27588340Y-41977389D01*
X27638140Y-41599121D01*
X27640049Y-41588296D01*
X27722626Y-41215816D01*
X27725471Y-41205198D01*
X27831850Y-40867806D01*
X27840200Y-40841323D01*
X27843956Y-40831002D01*
X27989969Y-40478496D01*
X27994602Y-40468561D01*
X28170783Y-40130122D01*
X28176273Y-40120613D01*
X28381266Y-39798838D01*
X28387570Y-39789834D01*
X28619838Y-39487136D01*
X28626904Y-39478716D01*
X28719996Y-39377124D01*
X28884660Y-39197425D01*
X28892429Y-39189656D01*
X28916419Y-39167674D01*
X29173719Y-38931902D01*
X29182136Y-38924838D01*
X29484834Y-38692570D01*
X29493838Y-38686266D01*
X29815613Y-38481273D01*
X29825122Y-38475783D01*
X30163561Y-38299602D01*
X30173496Y-38294969D01*
X30526009Y-38148953D01*
X30536323Y-38145200D01*
X30900199Y-38030471D01*
X30910816Y-38027626D01*
X31283304Y-37945048D01*
X31294113Y-37943141D01*
X31672390Y-37893340D01*
X31683338Y-37892382D01*
X32033783Y-37877081D01*
X32041624Y-37877799D01*
X32041625Y-37877451D01*
X32055811Y-37877476D01*
X32069641Y-37880656D01*
X32083480Y-37877525D01*
X32088311Y-37877533D01*
X32106504Y-37875500D01*
X128032920Y-37875500D01*
X128050242Y-37877466D01*
G37*
%TD.AperFunction*%
%TD*%
M02*
