M48
; DRILL file {KiCad (6.0.11)} date Thu Jul  6 01:04:40 2023
; FORMAT={-:-/ absolute / metric / decimal}
; #@! TF.CreationDate,2023-07-06T01:04:40-04:00
; #@! TF.GenerationSoftware,Kicad,Pcbnew,(6.0.11)
; #@! TF.FileFunction,Plated,1,4,PTH
FMAT,2
METRIC
; #@! TA.AperFunction,Plated,PTH,ViaDrill
T1C0.300
; #@! TA.AperFunction,Plated,PTH,ViaDrill
T2C0.400
; #@! TA.AperFunction,Plated,PTH,ComponentDrill
T3C4.300
; #@! TA.AperFunction,Plated,PTH,ComponentDrill
T4C6.500
; #@! TA.AperFunction,Plated,PTH,ComponentDrill
T5C11.000
%
G90
G05
T1
X68.47Y-64.975
X69.17Y-63.675
X70.27Y-64.375
X72.27Y-61.475
X77.47Y-63.375
X78.07Y-58.575
X78.983Y-63.562
X78.983Y-64.832
X78.995Y-61.545
X79.27Y-58.975
X80.57Y-60.375
X80.57Y-62.175
X80.608Y-66.532
X81.17Y-64.075
X81.186Y-69.575
X81.22Y-58.675
X81.47Y-61.275
X82.207Y-66.233
X82.37Y-60.375
X82.37Y-62.175
X83.395Y-63.02
X83.407Y-63.732
X83.47Y-58.875
X83.47Y-59.475
X84.108Y-63.133
X84.2Y-60.545
X84.27Y-58.875
X84.27Y-63.875
X84.97Y-63.975
X85.67Y-53.125
X87.17Y-60.075
X87.87Y-61.675
X88.27Y-60.975
X90.465Y-62.17
X90.77Y-63.475
X91.99Y-57.155
X92.77Y-57.175
T2
X77.27Y-61.275
X84.67Y-56.175
X84.67Y-57.375
X85.67Y-55.475
X85.67Y-56.775
X85.67Y-57.975
X86.87Y-48.575
X87.67Y-54.175
X87.67Y-55.575
X87.67Y-57.025
X87.67Y-58.325
X89.47Y-48.575
X89.47Y-50.075
X89.47Y-51.675
X89.47Y-53.175
X90.07Y-64.975
X90.07Y-66.975
X90.07Y-68.975
X91.17Y-48.575
X91.17Y-50.075
X91.17Y-51.675
X91.17Y-53.175
X92.07Y-64.975
X92.07Y-68.975
X93.97Y-48.575
X95.07Y-64.975
X95.07Y-68.975
X95.37Y-55.375
X95.37Y-56.775
X97.07Y-53.975
X97.07Y-64.975
X97.07Y-66.975
X97.07Y-68.975
X103.07Y-64.975
X103.07Y-66.975
X103.07Y-68.975
X105.07Y-64.975
X105.07Y-68.975
X108.07Y-64.975
X108.07Y-68.975
X110.07Y-64.975
X110.07Y-66.975
X110.07Y-68.975
X111.07Y-57.975
T3
X32.07Y-42.375
X32.07Y-87.575
X128.07Y-42.375
X128.07Y-87.575
T4
X60.07Y-52.975
T5
X60.07Y-76.975
T0
M30
