%TF.GenerationSoftware,KiCad,Pcbnew,(6.0.11)*%
%TF.CreationDate,2023-07-06T01:04:48-04:00*%
%TF.ProjectId,RP_CHG_r01,52505f43-4847-45f7-9230-312e6b696361,rev?*%
%TF.SameCoordinates,Original*%
%TF.FileFunction,Copper,L4,Bot*%
%TF.FilePolarity,Positive*%
%FSLAX46Y46*%
G04 Gerber Fmt 4.6, Leading zero omitted, Abs format (unit mm)*
G04 Created by KiCad (PCBNEW (6.0.11)) date 2023-07-06 01:04:48*
%MOMM*%
%LPD*%
G01*
G04 APERTURE LIST*
%TA.AperFunction,ComponentPad*%
%ADD10C,14.000000*%
%TD*%
%TA.AperFunction,ComponentPad*%
%ADD11C,7.500000*%
%TD*%
%TA.AperFunction,ComponentPad*%
%ADD12C,7.000000*%
%TD*%
%TA.AperFunction,ViaPad*%
%ADD13C,0.450000*%
%TD*%
%TA.AperFunction,ViaPad*%
%ADD14C,0.800000*%
%TD*%
%TA.AperFunction,ViaPad*%
%ADD15C,0.600000*%
%TD*%
G04 APERTURE END LIST*
D10*
%TO.P,J1,2*%
%TO.N,EP*%
X60070000Y-76975000D03*
%TD*%
D11*
%TO.P,H5,1,1*%
%TO.N,CASE*%
X60070000Y-52975000D03*
%TD*%
D12*
%TO.P,H4,1,1*%
%TO.N,CASE*%
X128070000Y-42375000D03*
%TD*%
%TO.P,H1,1,1*%
%TO.N,CASE*%
X32070000Y-42375000D03*
%TD*%
%TO.P,H3,1,1*%
%TO.N,CASE*%
X128070000Y-87575000D03*
%TD*%
%TO.P,H2,1,1*%
%TO.N,CASE*%
X32070000Y-87575000D03*
%TD*%
D13*
%TO.N,PH*%
X85670000Y-53125000D03*
%TO.N,/BTST*%
X81220000Y-58675000D03*
%TO.N,EP*%
X81470000Y-61275000D03*
X80570000Y-62175000D03*
X82370000Y-62175000D03*
X82370000Y-60375000D03*
X80570000Y-60375000D03*
D14*
X97070000Y-53975000D03*
X111070000Y-57975000D03*
X108070000Y-64975000D03*
X110070000Y-64975000D03*
X110070000Y-66975000D03*
X110070000Y-68975000D03*
X108070000Y-68975000D03*
X105070000Y-68975000D03*
X103070000Y-68975000D03*
X103070000Y-66975000D03*
X103070000Y-64975000D03*
X105070000Y-64975000D03*
X95070000Y-68975000D03*
X97070000Y-68975000D03*
X97070000Y-66975000D03*
X97070000Y-64975000D03*
X95070000Y-64975000D03*
X92070000Y-64975000D03*
X92070000Y-68975000D03*
X90070000Y-68975000D03*
X90070000Y-66975000D03*
X90070000Y-64975000D03*
D13*
%TO.N,CE*%
X77470000Y-63375000D03*
%TO.N,EP*%
X69170000Y-63675000D03*
%TO.N,STAT1*%
X70270000Y-64375000D03*
%TO.N,STAT2*%
X68470000Y-64975000D03*
%TO.N,EP*%
X90770000Y-63475000D03*
X87870000Y-61675000D03*
%TO.N,STAT2*%
X81170000Y-64075000D03*
D14*
%TO.N,EP*%
X95370000Y-55375000D03*
X95370000Y-56775000D03*
D13*
X80607500Y-66532500D03*
X78982500Y-64832500D03*
D14*
X85670000Y-57975000D03*
X87670000Y-58325000D03*
D13*
X78070000Y-58575000D03*
X84200000Y-60545000D03*
D14*
X86870000Y-48575000D03*
D13*
X82207500Y-66232500D03*
D14*
X89470000Y-48575000D03*
X84670000Y-56175000D03*
X91170000Y-48575000D03*
X89470000Y-51675000D03*
D13*
X84270000Y-58875000D03*
X84970000Y-63975000D03*
D14*
X87670000Y-57025000D03*
X89470000Y-53175000D03*
D13*
X83470000Y-59475000D03*
D14*
X84670000Y-57375000D03*
D13*
X83470000Y-58875000D03*
X84270000Y-63875000D03*
D14*
X91170000Y-50075000D03*
X85670000Y-56775000D03*
X87670000Y-54175000D03*
X85670000Y-55475000D03*
X91170000Y-53175000D03*
X91170000Y-51675000D03*
X87670000Y-55575000D03*
X77270000Y-61275000D03*
X93970000Y-48575000D03*
X89470000Y-50075000D03*
D15*
X81185909Y-69575000D03*
D13*
%TO.N,PACK+*%
X83395000Y-63020000D03*
X91990000Y-57155000D03*
%TO.N,CE*%
X78995000Y-61545000D03*
%TO.N,CHG_VCC*%
X79270000Y-58975000D03*
X72270000Y-61475000D03*
%TO.N,PH*%
X88270000Y-60975000D03*
%TO.N,/BTST*%
X87170000Y-60075000D03*
%TO.N,SRP*%
X84107500Y-63132500D03*
X92770000Y-57175000D03*
%TO.N,VFB*%
X90465000Y-62170000D03*
X83407500Y-63732500D03*
%TO.N,STAT1*%
X78982500Y-63562500D03*
%TD*%
%TA.AperFunction,Conductor*%
%TO.N,EP*%
G36*
X128050242Y-37877466D02*
G01*
X128055811Y-37877476D01*
X128069641Y-37880656D01*
X128083482Y-37877524D01*
X128097669Y-37877549D01*
X128097669Y-37877772D01*
X128105651Y-37877057D01*
X128403240Y-37890050D01*
X128456662Y-37892382D01*
X128467610Y-37893340D01*
X128845887Y-37943141D01*
X128856696Y-37945048D01*
X129229184Y-38027626D01*
X129239801Y-38030471D01*
X129603677Y-38145200D01*
X129613991Y-38148953D01*
X129966504Y-38294969D01*
X129976439Y-38299602D01*
X130314878Y-38475783D01*
X130324387Y-38481273D01*
X130646162Y-38686266D01*
X130655166Y-38692570D01*
X130957864Y-38924838D01*
X130966281Y-38931902D01*
X131223582Y-39167674D01*
X131247571Y-39189656D01*
X131255340Y-39197425D01*
X131420004Y-39377124D01*
X131513096Y-39478716D01*
X131520162Y-39487136D01*
X131752430Y-39789834D01*
X131758734Y-39798838D01*
X131963727Y-40120613D01*
X131969217Y-40130122D01*
X132145398Y-40468561D01*
X132150031Y-40478496D01*
X132296044Y-40831002D01*
X132299800Y-40841323D01*
X132308150Y-40867806D01*
X132414529Y-41205198D01*
X132417374Y-41215816D01*
X132499951Y-41588296D01*
X132501860Y-41599121D01*
X132551660Y-41977389D01*
X132552618Y-41988339D01*
X132567919Y-42338780D01*
X132567201Y-42346624D01*
X132567549Y-42346625D01*
X132567524Y-42360811D01*
X132564344Y-42374641D01*
X132567475Y-42388480D01*
X132567467Y-42393311D01*
X132569500Y-42411504D01*
X132569500Y-87537920D01*
X132567534Y-87555242D01*
X132567524Y-87560811D01*
X132564344Y-87574641D01*
X132567476Y-87588482D01*
X132567451Y-87602669D01*
X132567228Y-87602669D01*
X132567943Y-87610651D01*
X132552618Y-87961661D01*
X132551660Y-87972611D01*
X132501860Y-88350879D01*
X132499951Y-88361704D01*
X132417374Y-88734184D01*
X132414529Y-88744801D01*
X132307224Y-89085134D01*
X132299803Y-89108669D01*
X132296047Y-89118991D01*
X132168139Y-89427789D01*
X132150035Y-89471495D01*
X132145398Y-89481439D01*
X131969217Y-89819878D01*
X131963727Y-89829387D01*
X131758734Y-90151162D01*
X131752430Y-90160166D01*
X131520162Y-90462864D01*
X131513098Y-90471281D01*
X131277876Y-90727982D01*
X131255344Y-90752571D01*
X131247575Y-90760340D01*
X131219985Y-90785622D01*
X130966284Y-91018096D01*
X130957864Y-91025162D01*
X130655166Y-91257430D01*
X130646162Y-91263734D01*
X130324387Y-91468727D01*
X130314878Y-91474217D01*
X129976439Y-91650398D01*
X129966504Y-91655031D01*
X129613991Y-91801047D01*
X129603677Y-91804800D01*
X129239802Y-91919529D01*
X129229185Y-91922374D01*
X128856696Y-92004952D01*
X128845887Y-92006859D01*
X128467611Y-92056660D01*
X128456662Y-92057618D01*
X128106217Y-92072919D01*
X128098376Y-92072201D01*
X128098375Y-92072549D01*
X128084189Y-92072524D01*
X128070359Y-92069344D01*
X128056520Y-92072475D01*
X128051689Y-92072467D01*
X128033496Y-92074500D01*
X32107080Y-92074500D01*
X32089758Y-92072534D01*
X32084189Y-92072524D01*
X32070359Y-92069344D01*
X32056518Y-92072476D01*
X32042331Y-92072451D01*
X32042331Y-92072228D01*
X32034349Y-92072943D01*
X31736760Y-92059950D01*
X31683338Y-92057618D01*
X31672389Y-92056660D01*
X31294113Y-92006859D01*
X31283304Y-92004952D01*
X30910815Y-91922374D01*
X30900198Y-91919529D01*
X30536323Y-91804800D01*
X30526009Y-91801047D01*
X30173496Y-91655031D01*
X30163561Y-91650398D01*
X29825122Y-91474217D01*
X29815613Y-91468727D01*
X29493838Y-91263734D01*
X29484834Y-91257430D01*
X29182136Y-91025162D01*
X29173716Y-91018096D01*
X28920015Y-90785622D01*
X28892425Y-90760340D01*
X28884656Y-90752571D01*
X28862125Y-90727982D01*
X28626902Y-90471281D01*
X28619838Y-90462864D01*
X28387570Y-90160166D01*
X28381266Y-90151162D01*
X28176273Y-89829387D01*
X28170783Y-89819878D01*
X27994602Y-89481439D01*
X27989965Y-89471495D01*
X27971862Y-89427789D01*
X27843953Y-89118991D01*
X27840197Y-89108669D01*
X27832777Y-89085134D01*
X27725471Y-88744801D01*
X27722626Y-88734184D01*
X27640049Y-88361704D01*
X27638140Y-88350879D01*
X27588340Y-87972611D01*
X27587382Y-87961661D01*
X27572094Y-87611508D01*
X27574090Y-87589863D01*
X27573226Y-87589764D01*
X27574042Y-87582678D01*
X27575655Y-87575718D01*
X27575656Y-87575000D01*
X28364422Y-87575000D01*
X28384722Y-87962338D01*
X28445398Y-88345433D01*
X28545786Y-88720087D01*
X28684786Y-89082194D01*
X28860875Y-89427789D01*
X29072124Y-89753084D01*
X29316219Y-90054516D01*
X29590484Y-90328781D01*
X29891916Y-90572876D01*
X30217211Y-90784125D01*
X30562806Y-90960214D01*
X30924913Y-91099214D01*
X31299567Y-91199602D01*
X31503201Y-91231854D01*
X31679414Y-91259764D01*
X31679422Y-91259765D01*
X31682662Y-91260278D01*
X32070000Y-91280578D01*
X32457338Y-91260278D01*
X32460578Y-91259765D01*
X32460586Y-91259764D01*
X32636799Y-91231854D01*
X32840433Y-91199602D01*
X33215087Y-91099214D01*
X33577194Y-90960214D01*
X33922789Y-90784125D01*
X34248084Y-90572876D01*
X34549516Y-90328781D01*
X34823781Y-90054516D01*
X35067876Y-89753084D01*
X35279125Y-89427789D01*
X35455214Y-89082194D01*
X35594214Y-88720087D01*
X35694602Y-88345433D01*
X35755278Y-87962338D01*
X35775578Y-87575000D01*
X124364422Y-87575000D01*
X124384722Y-87962338D01*
X124445398Y-88345433D01*
X124545786Y-88720087D01*
X124684786Y-89082194D01*
X124860875Y-89427789D01*
X125072124Y-89753084D01*
X125316219Y-90054516D01*
X125590484Y-90328781D01*
X125891916Y-90572876D01*
X126217211Y-90784125D01*
X126562806Y-90960214D01*
X126924913Y-91099214D01*
X127299567Y-91199602D01*
X127503201Y-91231854D01*
X127679414Y-91259764D01*
X127679422Y-91259765D01*
X127682662Y-91260278D01*
X128070000Y-91280578D01*
X128457338Y-91260278D01*
X128460578Y-91259765D01*
X128460586Y-91259764D01*
X128636799Y-91231854D01*
X128840433Y-91199602D01*
X129215087Y-91099214D01*
X129577194Y-90960214D01*
X129922789Y-90784125D01*
X130248084Y-90572876D01*
X130549516Y-90328781D01*
X130823781Y-90054516D01*
X131067876Y-89753084D01*
X131279125Y-89427789D01*
X131455214Y-89082194D01*
X131594214Y-88720087D01*
X131694602Y-88345433D01*
X131755278Y-87962338D01*
X131775578Y-87575000D01*
X131755278Y-87187662D01*
X131694602Y-86804567D01*
X131594214Y-86429913D01*
X131455214Y-86067806D01*
X131279125Y-85722211D01*
X131067876Y-85396916D01*
X130823781Y-85095484D01*
X130549516Y-84821219D01*
X130248084Y-84577124D01*
X129922789Y-84365875D01*
X129577194Y-84189786D01*
X129215087Y-84050786D01*
X128840433Y-83950398D01*
X128636799Y-83918146D01*
X128460586Y-83890236D01*
X128460578Y-83890235D01*
X128457338Y-83889722D01*
X128070000Y-83869422D01*
X127682662Y-83889722D01*
X127679422Y-83890235D01*
X127679414Y-83890236D01*
X127503201Y-83918146D01*
X127299567Y-83950398D01*
X126924913Y-84050786D01*
X126562806Y-84189786D01*
X126217211Y-84365875D01*
X125891916Y-84577124D01*
X125590484Y-84821219D01*
X125316219Y-85095484D01*
X125072124Y-85396916D01*
X124860875Y-85722211D01*
X124684786Y-86067806D01*
X124545786Y-86429913D01*
X124445398Y-86804567D01*
X124384722Y-87187662D01*
X124364422Y-87575000D01*
X35775578Y-87575000D01*
X35755278Y-87187662D01*
X35694602Y-86804567D01*
X35594214Y-86429913D01*
X35455214Y-86067806D01*
X35279125Y-85722211D01*
X35067876Y-85396916D01*
X34823781Y-85095484D01*
X34549516Y-84821219D01*
X34248084Y-84577124D01*
X33922789Y-84365875D01*
X33577194Y-84189786D01*
X33215087Y-84050786D01*
X32840433Y-83950398D01*
X32636799Y-83918146D01*
X32460586Y-83890236D01*
X32460578Y-83890235D01*
X32457338Y-83889722D01*
X32070000Y-83869422D01*
X31682662Y-83889722D01*
X31679422Y-83890235D01*
X31679414Y-83890236D01*
X31503201Y-83918146D01*
X31299567Y-83950398D01*
X30924913Y-84050786D01*
X30562806Y-84189786D01*
X30217211Y-84365875D01*
X29891916Y-84577124D01*
X29590484Y-84821219D01*
X29316219Y-85095484D01*
X29072124Y-85396916D01*
X28860875Y-85722211D01*
X28684786Y-86067806D01*
X28545786Y-86429913D01*
X28445398Y-86804567D01*
X28384722Y-87187662D01*
X28364422Y-87575000D01*
X27575656Y-87575000D01*
X27573654Y-87566225D01*
X27570500Y-87538210D01*
X27570500Y-76975000D01*
X38764532Y-76975000D01*
X38784365Y-77201692D01*
X38843261Y-77421496D01*
X38939432Y-77627734D01*
X39069953Y-77814139D01*
X39230861Y-77975047D01*
X39417266Y-78105568D01*
X39422244Y-78107889D01*
X39422247Y-78107891D01*
X39618522Y-78199416D01*
X39623504Y-78201739D01*
X39628812Y-78203161D01*
X39628814Y-78203162D01*
X39837993Y-78259211D01*
X39837995Y-78259211D01*
X39843308Y-78260635D01*
X39942302Y-78269296D01*
X40010492Y-78275262D01*
X40010499Y-78275262D01*
X40013216Y-78275500D01*
X40126784Y-78275500D01*
X40129501Y-78275262D01*
X40129508Y-78275262D01*
X40197698Y-78269296D01*
X40296692Y-78260635D01*
X40302005Y-78259211D01*
X40302007Y-78259211D01*
X40511186Y-78203162D01*
X40511188Y-78203161D01*
X40516496Y-78201739D01*
X40521478Y-78199416D01*
X40717753Y-78107891D01*
X40717756Y-78107889D01*
X40722734Y-78105568D01*
X40909139Y-77975047D01*
X41070047Y-77814139D01*
X41200568Y-77627734D01*
X41296739Y-77421496D01*
X41355635Y-77201692D01*
X41375468Y-76975000D01*
X41355635Y-76748308D01*
X41296739Y-76528504D01*
X41200568Y-76322266D01*
X41070047Y-76135861D01*
X40909139Y-75974953D01*
X40722734Y-75844432D01*
X40717756Y-75842111D01*
X40717753Y-75842109D01*
X40521478Y-75750584D01*
X40521476Y-75750583D01*
X40516496Y-75748261D01*
X40511188Y-75746839D01*
X40511186Y-75746838D01*
X40302007Y-75690789D01*
X40302005Y-75690789D01*
X40296692Y-75689365D01*
X40197698Y-75680704D01*
X40129508Y-75674738D01*
X40129501Y-75674738D01*
X40126784Y-75674500D01*
X40013216Y-75674500D01*
X40010499Y-75674738D01*
X40010492Y-75674738D01*
X39942302Y-75680704D01*
X39843308Y-75689365D01*
X39837995Y-75690789D01*
X39837993Y-75690789D01*
X39628814Y-75746838D01*
X39628812Y-75746839D01*
X39623504Y-75748261D01*
X39618524Y-75750583D01*
X39618522Y-75750584D01*
X39422247Y-75842109D01*
X39422244Y-75842111D01*
X39417266Y-75844432D01*
X39230861Y-75974953D01*
X39069953Y-76135861D01*
X38939432Y-76322266D01*
X38843261Y-76528504D01*
X38784365Y-76748308D01*
X38764532Y-76975000D01*
X27570500Y-76975000D01*
X27570500Y-71975000D01*
X38764532Y-71975000D01*
X38784365Y-72201692D01*
X38843261Y-72421496D01*
X38939432Y-72627734D01*
X39069953Y-72814139D01*
X39230861Y-72975047D01*
X39417266Y-73105568D01*
X39422244Y-73107889D01*
X39422247Y-73107891D01*
X39618522Y-73199416D01*
X39623504Y-73201739D01*
X39628812Y-73203161D01*
X39628814Y-73203162D01*
X39837993Y-73259211D01*
X39837995Y-73259211D01*
X39843308Y-73260635D01*
X39942302Y-73269296D01*
X40010492Y-73275262D01*
X40010499Y-73275262D01*
X40013216Y-73275500D01*
X40126784Y-73275500D01*
X40129501Y-73275262D01*
X40129508Y-73275262D01*
X40197698Y-73269296D01*
X40296692Y-73260635D01*
X40302005Y-73259211D01*
X40302007Y-73259211D01*
X40511186Y-73203162D01*
X40511188Y-73203161D01*
X40516496Y-73201739D01*
X40521478Y-73199416D01*
X40717753Y-73107891D01*
X40717756Y-73107889D01*
X40722734Y-73105568D01*
X40909139Y-72975047D01*
X41070047Y-72814139D01*
X41200568Y-72627734D01*
X41296739Y-72421496D01*
X41355635Y-72201692D01*
X41375468Y-71975000D01*
X41355635Y-71748308D01*
X41296739Y-71528504D01*
X41200568Y-71322266D01*
X41070047Y-71135861D01*
X40909139Y-70974953D01*
X40722734Y-70844432D01*
X40717756Y-70842111D01*
X40717753Y-70842109D01*
X40521478Y-70750584D01*
X40521476Y-70750583D01*
X40516496Y-70748261D01*
X40511188Y-70746839D01*
X40511186Y-70746838D01*
X40302007Y-70690789D01*
X40302005Y-70690789D01*
X40296692Y-70689365D01*
X40197698Y-70680704D01*
X40129508Y-70674738D01*
X40129501Y-70674738D01*
X40126784Y-70674500D01*
X40013216Y-70674500D01*
X40010499Y-70674738D01*
X40010492Y-70674738D01*
X39942302Y-70680704D01*
X39843308Y-70689365D01*
X39837995Y-70690789D01*
X39837993Y-70690789D01*
X39628814Y-70746838D01*
X39628812Y-70746839D01*
X39623504Y-70748261D01*
X39618524Y-70750583D01*
X39618522Y-70750584D01*
X39422247Y-70842109D01*
X39422244Y-70842111D01*
X39417266Y-70844432D01*
X39230861Y-70974953D01*
X39069953Y-71135861D01*
X38939432Y-71322266D01*
X38843261Y-71528504D01*
X38784365Y-71748308D01*
X38764532Y-71975000D01*
X27570500Y-71975000D01*
X27570500Y-64975000D01*
X68039196Y-64975000D01*
X68060281Y-65108126D01*
X68121472Y-65228220D01*
X68216780Y-65323528D01*
X68336874Y-65384719D01*
X68346663Y-65386269D01*
X68346665Y-65386270D01*
X68460207Y-65404253D01*
X68470000Y-65405804D01*
X68479793Y-65404253D01*
X68593335Y-65386270D01*
X68593337Y-65386269D01*
X68603126Y-65384719D01*
X68723220Y-65323528D01*
X68818528Y-65228220D01*
X68879719Y-65108126D01*
X68900804Y-64975000D01*
X68879719Y-64841874D01*
X68818528Y-64721780D01*
X68723220Y-64626472D01*
X68603126Y-64565281D01*
X68593337Y-64563731D01*
X68593335Y-64563730D01*
X68479793Y-64545747D01*
X68470000Y-64544196D01*
X68460207Y-64545747D01*
X68346665Y-64563730D01*
X68346663Y-64563731D01*
X68336874Y-64565281D01*
X68216780Y-64626472D01*
X68121472Y-64721780D01*
X68060281Y-64841874D01*
X68039196Y-64975000D01*
X27570500Y-64975000D01*
X27570500Y-64375000D01*
X69839196Y-64375000D01*
X69840747Y-64384793D01*
X69856574Y-64484719D01*
X69860281Y-64508126D01*
X69921472Y-64628220D01*
X70016780Y-64723528D01*
X70136874Y-64784719D01*
X70146663Y-64786269D01*
X70146665Y-64786270D01*
X70260207Y-64804253D01*
X70270000Y-64805804D01*
X70279793Y-64804253D01*
X70393335Y-64786270D01*
X70393337Y-64786269D01*
X70403126Y-64784719D01*
X70523220Y-64723528D01*
X70618528Y-64628220D01*
X70679719Y-64508126D01*
X70683427Y-64484719D01*
X70699253Y-64384793D01*
X70700804Y-64375000D01*
X70679719Y-64241874D01*
X70618528Y-64121780D01*
X70571748Y-64075000D01*
X80739196Y-64075000D01*
X80740747Y-64084793D01*
X80749130Y-64137718D01*
X80760281Y-64208126D01*
X80821472Y-64328220D01*
X80916780Y-64423528D01*
X81036874Y-64484719D01*
X81046663Y-64486269D01*
X81046665Y-64486270D01*
X81160207Y-64504253D01*
X81170000Y-64505804D01*
X81179793Y-64504253D01*
X81293335Y-64486270D01*
X81293337Y-64486269D01*
X81303126Y-64484719D01*
X81423220Y-64423528D01*
X81518528Y-64328220D01*
X81579719Y-64208126D01*
X81590871Y-64137718D01*
X81599253Y-64084793D01*
X81600804Y-64075000D01*
X81587619Y-63991753D01*
X81581270Y-63951665D01*
X81581269Y-63951663D01*
X81579719Y-63941874D01*
X81518528Y-63821780D01*
X81423220Y-63726472D01*
X81303126Y-63665281D01*
X81293337Y-63663731D01*
X81293335Y-63663730D01*
X81179793Y-63645747D01*
X81170000Y-63644196D01*
X81160207Y-63645747D01*
X81046665Y-63663730D01*
X81046663Y-63663731D01*
X81036874Y-63665281D01*
X80916780Y-63726472D01*
X80821472Y-63821780D01*
X80760281Y-63941874D01*
X80758731Y-63951663D01*
X80758730Y-63951665D01*
X80752381Y-63991753D01*
X80739196Y-64075000D01*
X70571748Y-64075000D01*
X70523220Y-64026472D01*
X70403126Y-63965281D01*
X70393337Y-63963731D01*
X70393335Y-63963730D01*
X70279793Y-63945747D01*
X70270000Y-63944196D01*
X70260207Y-63945747D01*
X70146665Y-63963730D01*
X70146663Y-63963731D01*
X70136874Y-63965281D01*
X70016780Y-64026472D01*
X69921472Y-64121780D01*
X69860281Y-64241874D01*
X69839196Y-64375000D01*
X27570500Y-64375000D01*
X27570500Y-63375000D01*
X77039196Y-63375000D01*
X77040747Y-63384793D01*
X77054879Y-63474017D01*
X77060281Y-63508126D01*
X77121472Y-63628220D01*
X77216780Y-63723528D01*
X77336874Y-63784719D01*
X77346663Y-63786269D01*
X77346665Y-63786270D01*
X77460207Y-63804253D01*
X77470000Y-63805804D01*
X77479793Y-63804253D01*
X77593335Y-63786270D01*
X77593337Y-63786269D01*
X77603126Y-63784719D01*
X77723220Y-63723528D01*
X77818528Y-63628220D01*
X77852014Y-63562500D01*
X78551696Y-63562500D01*
X78553247Y-63572293D01*
X78568688Y-63669782D01*
X78572781Y-63695626D01*
X78633972Y-63815720D01*
X78729280Y-63911028D01*
X78849374Y-63972219D01*
X78859163Y-63973769D01*
X78859165Y-63973770D01*
X78972707Y-63991753D01*
X78982500Y-63993304D01*
X78992293Y-63991753D01*
X79105835Y-63973770D01*
X79105837Y-63973769D01*
X79115626Y-63972219D01*
X79235720Y-63911028D01*
X79331028Y-63815720D01*
X79392219Y-63695626D01*
X79396313Y-63669782D01*
X79411753Y-63572293D01*
X79413304Y-63562500D01*
X79411753Y-63552707D01*
X79393770Y-63439165D01*
X79393769Y-63439163D01*
X79392219Y-63429374D01*
X79331028Y-63309280D01*
X79235720Y-63213972D01*
X79115626Y-63152781D01*
X79105837Y-63151231D01*
X79105835Y-63151230D01*
X78992293Y-63133247D01*
X78982500Y-63131696D01*
X78972707Y-63133247D01*
X78859165Y-63151230D01*
X78859163Y-63151231D01*
X78849374Y-63152781D01*
X78729280Y-63213972D01*
X78633972Y-63309280D01*
X78572781Y-63429374D01*
X78571231Y-63439163D01*
X78571230Y-63439165D01*
X78553247Y-63552707D01*
X78551696Y-63562500D01*
X77852014Y-63562500D01*
X77879719Y-63508126D01*
X77885122Y-63474017D01*
X77899253Y-63384793D01*
X77900804Y-63375000D01*
X77879719Y-63241874D01*
X77818528Y-63121780D01*
X77723220Y-63026472D01*
X77710518Y-63020000D01*
X82964196Y-63020000D01*
X82985281Y-63153126D01*
X83046472Y-63273220D01*
X83066657Y-63293405D01*
X83100683Y-63355717D01*
X83095618Y-63426532D01*
X83071516Y-63464034D01*
X83071811Y-63464248D01*
X83068068Y-63469400D01*
X83066657Y-63471595D01*
X83058972Y-63479280D01*
X82997781Y-63599374D01*
X82996231Y-63609163D01*
X82996230Y-63609165D01*
X82984087Y-63685835D01*
X82976696Y-63732500D01*
X82978247Y-63742293D01*
X82990837Y-63821780D01*
X82997781Y-63865626D01*
X83058972Y-63985720D01*
X83154280Y-64081028D01*
X83274374Y-64142219D01*
X83284163Y-64143769D01*
X83284165Y-64143770D01*
X83397707Y-64161753D01*
X83407500Y-64163304D01*
X83417293Y-64161753D01*
X83530835Y-64143770D01*
X83530837Y-64143769D01*
X83540626Y-64142219D01*
X83660720Y-64081028D01*
X83756028Y-63985720D01*
X83817219Y-63865626D01*
X83824164Y-63821780D01*
X83836753Y-63742293D01*
X83838304Y-63732500D01*
X83831019Y-63686506D01*
X83840118Y-63616097D01*
X83885840Y-63561782D01*
X83953668Y-63540809D01*
X83975178Y-63542347D01*
X84097706Y-63561753D01*
X84097707Y-63561753D01*
X84107500Y-63563304D01*
X84117293Y-63561753D01*
X84230835Y-63543770D01*
X84230837Y-63543769D01*
X84240626Y-63542219D01*
X84360720Y-63481028D01*
X84456028Y-63385720D01*
X84517219Y-63265626D01*
X84535338Y-63151230D01*
X84536753Y-63142293D01*
X84538304Y-63132500D01*
X84535496Y-63114769D01*
X84518770Y-63009165D01*
X84518769Y-63009163D01*
X84517219Y-62999374D01*
X84456028Y-62879280D01*
X84360720Y-62783972D01*
X84240626Y-62722781D01*
X84230837Y-62721231D01*
X84230835Y-62721230D01*
X84117293Y-62703247D01*
X84107500Y-62701696D01*
X84097707Y-62703247D01*
X83984165Y-62721230D01*
X83984163Y-62721231D01*
X83974374Y-62722781D01*
X83965539Y-62727283D01*
X83965538Y-62727283D01*
X83873865Y-62773992D01*
X83804089Y-62787096D01*
X83738304Y-62760396D01*
X83727568Y-62750820D01*
X83648220Y-62671472D01*
X83528126Y-62610281D01*
X83518337Y-62608731D01*
X83518335Y-62608730D01*
X83404793Y-62590747D01*
X83395000Y-62589196D01*
X83385207Y-62590747D01*
X83271665Y-62608730D01*
X83271663Y-62608731D01*
X83261874Y-62610281D01*
X83141780Y-62671472D01*
X83046472Y-62766780D01*
X82985281Y-62886874D01*
X82983731Y-62896663D01*
X82983730Y-62896665D01*
X82972150Y-62969782D01*
X82964196Y-63020000D01*
X77710518Y-63020000D01*
X77603126Y-62965281D01*
X77593337Y-62963731D01*
X77593335Y-62963730D01*
X77479793Y-62945747D01*
X77470000Y-62944196D01*
X77460207Y-62945747D01*
X77346665Y-62963730D01*
X77346663Y-62963731D01*
X77336874Y-62965281D01*
X77216780Y-63026472D01*
X77121472Y-63121780D01*
X77060281Y-63241874D01*
X77039196Y-63375000D01*
X27570500Y-63375000D01*
X27570500Y-62170000D01*
X90034196Y-62170000D01*
X90055281Y-62303126D01*
X90116472Y-62423220D01*
X90211780Y-62518528D01*
X90331874Y-62579719D01*
X90341663Y-62581269D01*
X90341665Y-62581270D01*
X90455207Y-62599253D01*
X90465000Y-62600804D01*
X90474793Y-62599253D01*
X90588335Y-62581270D01*
X90588337Y-62581269D01*
X90598126Y-62579719D01*
X90718220Y-62518528D01*
X90813528Y-62423220D01*
X90874719Y-62303126D01*
X90895804Y-62170000D01*
X90874719Y-62036874D01*
X90813528Y-61916780D01*
X90718220Y-61821472D01*
X90598126Y-61760281D01*
X90588337Y-61758731D01*
X90588335Y-61758730D01*
X90474793Y-61740747D01*
X90465000Y-61739196D01*
X90455207Y-61740747D01*
X90341665Y-61758730D01*
X90341663Y-61758731D01*
X90331874Y-61760281D01*
X90211780Y-61821472D01*
X90116472Y-61916780D01*
X90055281Y-62036874D01*
X90034196Y-62170000D01*
X27570500Y-62170000D01*
X27570500Y-61475000D01*
X71839196Y-61475000D01*
X71860281Y-61608126D01*
X71921472Y-61728220D01*
X72016780Y-61823528D01*
X72136874Y-61884719D01*
X72146663Y-61886269D01*
X72146665Y-61886270D01*
X72260207Y-61904253D01*
X72270000Y-61905804D01*
X72279793Y-61904253D01*
X72393335Y-61886270D01*
X72393337Y-61886269D01*
X72403126Y-61884719D01*
X72523220Y-61823528D01*
X72618528Y-61728220D01*
X72679719Y-61608126D01*
X72689717Y-61545000D01*
X78564196Y-61545000D01*
X78585281Y-61678126D01*
X78646472Y-61798220D01*
X78741780Y-61893528D01*
X78861874Y-61954719D01*
X78871663Y-61956269D01*
X78871665Y-61956270D01*
X78985207Y-61974253D01*
X78995000Y-61975804D01*
X79004793Y-61974253D01*
X79118335Y-61956270D01*
X79118337Y-61956269D01*
X79128126Y-61954719D01*
X79248220Y-61893528D01*
X79343528Y-61798220D01*
X79404719Y-61678126D01*
X79425804Y-61545000D01*
X79404719Y-61411874D01*
X79343528Y-61291780D01*
X79248220Y-61196472D01*
X79128126Y-61135281D01*
X79118337Y-61133731D01*
X79118335Y-61133730D01*
X79004793Y-61115747D01*
X78995000Y-61114196D01*
X78985207Y-61115747D01*
X78871665Y-61133730D01*
X78871663Y-61133731D01*
X78861874Y-61135281D01*
X78741780Y-61196472D01*
X78646472Y-61291780D01*
X78585281Y-61411874D01*
X78564196Y-61545000D01*
X72689717Y-61545000D01*
X72700804Y-61475000D01*
X72690806Y-61411874D01*
X72681270Y-61351665D01*
X72681269Y-61351663D01*
X72679719Y-61341874D01*
X72618528Y-61221780D01*
X72523220Y-61126472D01*
X72403126Y-61065281D01*
X72393337Y-61063731D01*
X72393335Y-61063730D01*
X72279793Y-61045747D01*
X72270000Y-61044196D01*
X72260207Y-61045747D01*
X72146665Y-61063730D01*
X72146663Y-61063731D01*
X72136874Y-61065281D01*
X72016780Y-61126472D01*
X71921472Y-61221780D01*
X71860281Y-61341874D01*
X71858731Y-61351663D01*
X71858730Y-61351665D01*
X71849194Y-61411874D01*
X71839196Y-61475000D01*
X27570500Y-61475000D01*
X27570500Y-60975000D01*
X87839196Y-60975000D01*
X87840747Y-60984793D01*
X87850156Y-61044196D01*
X87860281Y-61108126D01*
X87921472Y-61228220D01*
X88016780Y-61323528D01*
X88136874Y-61384719D01*
X88146663Y-61386269D01*
X88146665Y-61386270D01*
X88260207Y-61404253D01*
X88270000Y-61405804D01*
X88279793Y-61404253D01*
X88393335Y-61386270D01*
X88393337Y-61386269D01*
X88403126Y-61384719D01*
X88523220Y-61323528D01*
X88618528Y-61228220D01*
X88679719Y-61108126D01*
X88689845Y-61044196D01*
X88699253Y-60984793D01*
X88700804Y-60975000D01*
X88679719Y-60841874D01*
X88618528Y-60721780D01*
X88523220Y-60626472D01*
X88403126Y-60565281D01*
X88393337Y-60563731D01*
X88393335Y-60563730D01*
X88279793Y-60545747D01*
X88270000Y-60544196D01*
X88260207Y-60545747D01*
X88146665Y-60563730D01*
X88146663Y-60563731D01*
X88136874Y-60565281D01*
X88016780Y-60626472D01*
X87921472Y-60721780D01*
X87860281Y-60841874D01*
X87839196Y-60975000D01*
X27570500Y-60975000D01*
X27570500Y-60075000D01*
X86739196Y-60075000D01*
X86760281Y-60208126D01*
X86821472Y-60328220D01*
X86916780Y-60423528D01*
X87036874Y-60484719D01*
X87046663Y-60486269D01*
X87046665Y-60486270D01*
X87160207Y-60504253D01*
X87170000Y-60505804D01*
X87179793Y-60504253D01*
X87293335Y-60486270D01*
X87293337Y-60486269D01*
X87303126Y-60484719D01*
X87423220Y-60423528D01*
X87518528Y-60328220D01*
X87579719Y-60208126D01*
X87600804Y-60075000D01*
X87579719Y-59941874D01*
X87518528Y-59821780D01*
X87423220Y-59726472D01*
X87303126Y-59665281D01*
X87293337Y-59663731D01*
X87293335Y-59663730D01*
X87179793Y-59645747D01*
X87170000Y-59644196D01*
X87160207Y-59645747D01*
X87046665Y-59663730D01*
X87046663Y-59663731D01*
X87036874Y-59665281D01*
X86916780Y-59726472D01*
X86821472Y-59821780D01*
X86760281Y-59941874D01*
X86739196Y-60075000D01*
X27570500Y-60075000D01*
X27570500Y-58975000D01*
X78839196Y-58975000D01*
X78840747Y-58984793D01*
X78856574Y-59084719D01*
X78860281Y-59108126D01*
X78921472Y-59228220D01*
X79016780Y-59323528D01*
X79136874Y-59384719D01*
X79146663Y-59386269D01*
X79146665Y-59386270D01*
X79260207Y-59404253D01*
X79270000Y-59405804D01*
X79279793Y-59404253D01*
X79393335Y-59386270D01*
X79393337Y-59386269D01*
X79403126Y-59384719D01*
X79523220Y-59323528D01*
X79618528Y-59228220D01*
X79679719Y-59108126D01*
X79683427Y-59084719D01*
X79699253Y-58984793D01*
X79700804Y-58975000D01*
X79679719Y-58841874D01*
X79618528Y-58721780D01*
X79571748Y-58675000D01*
X80789196Y-58675000D01*
X80810281Y-58808126D01*
X80871472Y-58928220D01*
X80966780Y-59023528D01*
X81086874Y-59084719D01*
X81096663Y-59086269D01*
X81096665Y-59086270D01*
X81210207Y-59104253D01*
X81220000Y-59105804D01*
X81229793Y-59104253D01*
X81343335Y-59086270D01*
X81343337Y-59086269D01*
X81353126Y-59084719D01*
X81473220Y-59023528D01*
X81568528Y-58928220D01*
X81629719Y-58808126D01*
X81650804Y-58675000D01*
X81634139Y-58569782D01*
X81631270Y-58551665D01*
X81631269Y-58551663D01*
X81629719Y-58541874D01*
X81568528Y-58421780D01*
X81473220Y-58326472D01*
X81353126Y-58265281D01*
X81343337Y-58263731D01*
X81343335Y-58263730D01*
X81229793Y-58245747D01*
X81220000Y-58244196D01*
X81210207Y-58245747D01*
X81096665Y-58263730D01*
X81096663Y-58263731D01*
X81086874Y-58265281D01*
X80966780Y-58326472D01*
X80871472Y-58421780D01*
X80810281Y-58541874D01*
X80808731Y-58551663D01*
X80808730Y-58551665D01*
X80805861Y-58569782D01*
X80789196Y-58675000D01*
X79571748Y-58675000D01*
X79523220Y-58626472D01*
X79403126Y-58565281D01*
X79393337Y-58563731D01*
X79393335Y-58563730D01*
X79279793Y-58545747D01*
X79270000Y-58544196D01*
X79260207Y-58545747D01*
X79146665Y-58563730D01*
X79146663Y-58563731D01*
X79136874Y-58565281D01*
X79016780Y-58626472D01*
X78921472Y-58721780D01*
X78860281Y-58841874D01*
X78839196Y-58975000D01*
X27570500Y-58975000D01*
X27570500Y-57155000D01*
X91559196Y-57155000D01*
X91580281Y-57288126D01*
X91641472Y-57408220D01*
X91736780Y-57503528D01*
X91856874Y-57564719D01*
X91866663Y-57566269D01*
X91866665Y-57566270D01*
X91980207Y-57584253D01*
X91990000Y-57585804D01*
X91999793Y-57584253D01*
X92113335Y-57566270D01*
X92113337Y-57566269D01*
X92123126Y-57564719D01*
X92243220Y-57503528D01*
X92280905Y-57465843D01*
X92343217Y-57431817D01*
X92414032Y-57436882D01*
X92459095Y-57465843D01*
X92516780Y-57523528D01*
X92636874Y-57584719D01*
X92646663Y-57586269D01*
X92646665Y-57586270D01*
X92760207Y-57604253D01*
X92770000Y-57605804D01*
X92779793Y-57604253D01*
X92893335Y-57586270D01*
X92893337Y-57586269D01*
X92903126Y-57584719D01*
X93023220Y-57523528D01*
X93118528Y-57428220D01*
X93179719Y-57308126D01*
X93184438Y-57278335D01*
X93199253Y-57184793D01*
X93200804Y-57175000D01*
X93179719Y-57041874D01*
X93118528Y-56921780D01*
X93023220Y-56826472D01*
X92903126Y-56765281D01*
X92893337Y-56763731D01*
X92893335Y-56763730D01*
X92779793Y-56745747D01*
X92770000Y-56744196D01*
X92760207Y-56745747D01*
X92646665Y-56763730D01*
X92646663Y-56763731D01*
X92636874Y-56765281D01*
X92516780Y-56826472D01*
X92479095Y-56864157D01*
X92416783Y-56898183D01*
X92345968Y-56893118D01*
X92300905Y-56864157D01*
X92243220Y-56806472D01*
X92123126Y-56745281D01*
X92113337Y-56743731D01*
X92113335Y-56743730D01*
X91999793Y-56725747D01*
X91990000Y-56724196D01*
X91980207Y-56725747D01*
X91866665Y-56743730D01*
X91866663Y-56743731D01*
X91856874Y-56745281D01*
X91736780Y-56806472D01*
X91641472Y-56901780D01*
X91580281Y-57021874D01*
X91578731Y-57031663D01*
X91578730Y-57031665D01*
X91560747Y-57145207D01*
X91559196Y-57155000D01*
X27570500Y-57155000D01*
X27570500Y-52961192D01*
X56114447Y-52961192D01*
X56114597Y-52964373D01*
X56128450Y-53258126D01*
X56133301Y-53360997D01*
X56192462Y-53756849D01*
X56291323Y-54144696D01*
X56428872Y-54520567D01*
X56603701Y-54880614D01*
X56814021Y-55221150D01*
X56815964Y-55223683D01*
X56815966Y-55223685D01*
X56840089Y-55255122D01*
X57057677Y-55538688D01*
X57332174Y-55829978D01*
X57334579Y-55832062D01*
X57334585Y-55832067D01*
X57367481Y-55860562D01*
X57634704Y-56092037D01*
X57962167Y-56322182D01*
X58311211Y-56518057D01*
X58678263Y-56677656D01*
X59059565Y-56799344D01*
X59221566Y-56833483D01*
X59448092Y-56881220D01*
X59448097Y-56881221D01*
X59451211Y-56881877D01*
X59849194Y-56924409D01*
X59852382Y-56924426D01*
X59852387Y-56924426D01*
X60033973Y-56925377D01*
X60249437Y-56926505D01*
X60414493Y-56910612D01*
X60644678Y-56888448D01*
X60644683Y-56888447D01*
X60647843Y-56888143D01*
X60650962Y-56887520D01*
X60650967Y-56887519D01*
X60844454Y-56848856D01*
X61040332Y-56809716D01*
X61334118Y-56719336D01*
X61419845Y-56692963D01*
X61419848Y-56692962D01*
X61422887Y-56692027D01*
X61425815Y-56690790D01*
X61425821Y-56690788D01*
X61591986Y-56620596D01*
X61791590Y-56536280D01*
X61794393Y-56534746D01*
X61794398Y-56534743D01*
X61945670Y-56451924D01*
X62142667Y-56344071D01*
X62472522Y-56117368D01*
X62474961Y-56115300D01*
X62474967Y-56115295D01*
X62775338Y-55860562D01*
X62777779Y-55858492D01*
X62779985Y-55856200D01*
X62779991Y-55856194D01*
X63053105Y-55572385D01*
X63055312Y-55570092D01*
X63302280Y-55255122D01*
X63516153Y-54916808D01*
X63517573Y-54913960D01*
X63517578Y-54913951D01*
X63693323Y-54561459D01*
X63694743Y-54558611D01*
X63836221Y-54184201D01*
X63846733Y-54144696D01*
X63938317Y-53800496D01*
X63939138Y-53797411D01*
X63946140Y-53753701D01*
X64001936Y-53405351D01*
X64002441Y-53402200D01*
X64003420Y-53385231D01*
X64012558Y-53226737D01*
X64018424Y-53125000D01*
X85239196Y-53125000D01*
X85260281Y-53258126D01*
X85321472Y-53378220D01*
X85416780Y-53473528D01*
X85536874Y-53534719D01*
X85546663Y-53536269D01*
X85546665Y-53536270D01*
X85660207Y-53554253D01*
X85670000Y-53555804D01*
X85679793Y-53554253D01*
X85793335Y-53536270D01*
X85793337Y-53536269D01*
X85803126Y-53534719D01*
X85923220Y-53473528D01*
X86018528Y-53378220D01*
X86079719Y-53258126D01*
X86100804Y-53125000D01*
X86099253Y-53115207D01*
X86081270Y-53001665D01*
X86081269Y-53001663D01*
X86079719Y-52991874D01*
X86018528Y-52871780D01*
X85923220Y-52776472D01*
X85803126Y-52715281D01*
X85793337Y-52713731D01*
X85793335Y-52713730D01*
X85679793Y-52695747D01*
X85670000Y-52694196D01*
X85660207Y-52695747D01*
X85546665Y-52713730D01*
X85546663Y-52713731D01*
X85536874Y-52715281D01*
X85416780Y-52776472D01*
X85321472Y-52871780D01*
X85260281Y-52991874D01*
X85258731Y-53001663D01*
X85258730Y-53001665D01*
X85240747Y-53115207D01*
X85239196Y-53125000D01*
X64018424Y-53125000D01*
X64025481Y-53002615D01*
X64025577Y-52975000D01*
X64020796Y-52880612D01*
X64005488Y-52578437D01*
X64005487Y-52578432D01*
X64005327Y-52575264D01*
X63944785Y-52179621D01*
X63844571Y-51792121D01*
X63705711Y-51416732D01*
X63529626Y-51057298D01*
X63467845Y-50958044D01*
X63319806Y-50720208D01*
X63319798Y-50720197D01*
X63318119Y-50717499D01*
X63073356Y-50400812D01*
X62797843Y-50110482D01*
X62786794Y-50100978D01*
X62496816Y-49851558D01*
X62496813Y-49851556D01*
X62494401Y-49849481D01*
X62166136Y-49620480D01*
X61816410Y-49425825D01*
X61813490Y-49424567D01*
X61813485Y-49424565D01*
X61451738Y-49268772D01*
X61451728Y-49268768D01*
X61448804Y-49267509D01*
X61067080Y-49147152D01*
X60785854Y-49088913D01*
X60678272Y-49066634D01*
X60678269Y-49066634D01*
X60675147Y-49065987D01*
X60369738Y-49034426D01*
X60280175Y-49025170D01*
X60280172Y-49025170D01*
X60277019Y-49024844D01*
X60273852Y-49024838D01*
X60273843Y-49024838D01*
X60076515Y-49024494D01*
X59876771Y-49024145D01*
X59576479Y-49054118D01*
X59481686Y-49063580D01*
X59481684Y-49063580D01*
X59478501Y-49063898D01*
X59475361Y-49064537D01*
X59475360Y-49064537D01*
X59089422Y-49143057D01*
X59089415Y-49143059D01*
X59086288Y-49143695D01*
X58704146Y-49262719D01*
X58701218Y-49263968D01*
X58338919Y-49418501D01*
X58338915Y-49418503D01*
X58335989Y-49419751D01*
X58333210Y-49421285D01*
X58333204Y-49421288D01*
X58032914Y-49587057D01*
X57985586Y-49613184D01*
X57982965Y-49614999D01*
X57982960Y-49615002D01*
X57975049Y-49620480D01*
X57656524Y-49841037D01*
X57352172Y-50100978D01*
X57349972Y-50103280D01*
X57349969Y-50103283D01*
X57231682Y-50227064D01*
X57075648Y-50390344D01*
X56829781Y-50706174D01*
X56828085Y-50708878D01*
X56828082Y-50708882D01*
X56695750Y-50919839D01*
X56617090Y-51045234D01*
X56439751Y-51404051D01*
X56299581Y-51778953D01*
X56198015Y-52166100D01*
X56136092Y-52561530D01*
X56135921Y-52564692D01*
X56135920Y-52564699D01*
X56135348Y-52575264D01*
X56114447Y-52961192D01*
X27570500Y-52961192D01*
X27570500Y-42412371D01*
X27573755Y-42383918D01*
X27574043Y-42382676D01*
X27574044Y-42382669D01*
X27575655Y-42375718D01*
X27575656Y-42375000D01*
X28364422Y-42375000D01*
X28384722Y-42762338D01*
X28445398Y-43145433D01*
X28545786Y-43520087D01*
X28684786Y-43882194D01*
X28860875Y-44227789D01*
X29072124Y-44553084D01*
X29316219Y-44854516D01*
X29590484Y-45128781D01*
X29891916Y-45372876D01*
X30217211Y-45584125D01*
X30562806Y-45760214D01*
X30924913Y-45899214D01*
X31299567Y-45999602D01*
X31503201Y-46031854D01*
X31679414Y-46059764D01*
X31679422Y-46059765D01*
X31682662Y-46060278D01*
X32070000Y-46080578D01*
X32457338Y-46060278D01*
X32460578Y-46059765D01*
X32460586Y-46059764D01*
X32636799Y-46031854D01*
X32840433Y-45999602D01*
X33215087Y-45899214D01*
X33577194Y-45760214D01*
X33922789Y-45584125D01*
X34248084Y-45372876D01*
X34549516Y-45128781D01*
X34823781Y-44854516D01*
X35067876Y-44553084D01*
X35279125Y-44227789D01*
X35455214Y-43882194D01*
X35594214Y-43520087D01*
X35694602Y-43145433D01*
X35755278Y-42762338D01*
X35775578Y-42375000D01*
X124364422Y-42375000D01*
X124384722Y-42762338D01*
X124445398Y-43145433D01*
X124545786Y-43520087D01*
X124684786Y-43882194D01*
X124860875Y-44227789D01*
X125072124Y-44553084D01*
X125316219Y-44854516D01*
X125590484Y-45128781D01*
X125891916Y-45372876D01*
X126217211Y-45584125D01*
X126562806Y-45760214D01*
X126924913Y-45899214D01*
X127299567Y-45999602D01*
X127503201Y-46031854D01*
X127679414Y-46059764D01*
X127679422Y-46059765D01*
X127682662Y-46060278D01*
X128070000Y-46080578D01*
X128457338Y-46060278D01*
X128460578Y-46059765D01*
X128460586Y-46059764D01*
X128636799Y-46031854D01*
X128840433Y-45999602D01*
X129215087Y-45899214D01*
X129577194Y-45760214D01*
X129922789Y-45584125D01*
X130248084Y-45372876D01*
X130549516Y-45128781D01*
X130823781Y-44854516D01*
X131067876Y-44553084D01*
X131279125Y-44227789D01*
X131455214Y-43882194D01*
X131594214Y-43520087D01*
X131694602Y-43145433D01*
X131755278Y-42762338D01*
X131775578Y-42375000D01*
X131755278Y-41987662D01*
X131694602Y-41604567D01*
X131594214Y-41229913D01*
X131455214Y-40867806D01*
X131279125Y-40522211D01*
X131067876Y-40196916D01*
X130823781Y-39895484D01*
X130549516Y-39621219D01*
X130248084Y-39377124D01*
X129922789Y-39165875D01*
X129577194Y-38989786D01*
X129215087Y-38850786D01*
X128840433Y-38750398D01*
X128636799Y-38718146D01*
X128460586Y-38690236D01*
X128460578Y-38690235D01*
X128457338Y-38689722D01*
X128070000Y-38669422D01*
X127682662Y-38689722D01*
X127679422Y-38690235D01*
X127679414Y-38690236D01*
X127503201Y-38718146D01*
X127299567Y-38750398D01*
X126924913Y-38850786D01*
X126562806Y-38989786D01*
X126217211Y-39165875D01*
X125891916Y-39377124D01*
X125590484Y-39621219D01*
X125316219Y-39895484D01*
X125072124Y-40196916D01*
X124860875Y-40522211D01*
X124684786Y-40867806D01*
X124545786Y-41229913D01*
X124445398Y-41604567D01*
X124384722Y-41987662D01*
X124364422Y-42375000D01*
X35775578Y-42375000D01*
X35755278Y-41987662D01*
X35694602Y-41604567D01*
X35594214Y-41229913D01*
X35455214Y-40867806D01*
X35279125Y-40522211D01*
X35067876Y-40196916D01*
X34823781Y-39895484D01*
X34549516Y-39621219D01*
X34248084Y-39377124D01*
X33922789Y-39165875D01*
X33577194Y-38989786D01*
X33215087Y-38850786D01*
X32840433Y-38750398D01*
X32636799Y-38718146D01*
X32460586Y-38690236D01*
X32460578Y-38690235D01*
X32457338Y-38689722D01*
X32070000Y-38669422D01*
X31682662Y-38689722D01*
X31679422Y-38690235D01*
X31679414Y-38690236D01*
X31503201Y-38718146D01*
X31299567Y-38750398D01*
X30924913Y-38850786D01*
X30562806Y-38989786D01*
X30217211Y-39165875D01*
X29891916Y-39377124D01*
X29590484Y-39621219D01*
X29316219Y-39895484D01*
X29072124Y-40196916D01*
X28860875Y-40522211D01*
X28684786Y-40867806D01*
X28545786Y-41229913D01*
X28445398Y-41604567D01*
X28384722Y-41987662D01*
X28364422Y-42375000D01*
X27575656Y-42375000D01*
X27574074Y-42368066D01*
X27573282Y-42360990D01*
X27574046Y-42360905D01*
X27572069Y-42339063D01*
X27587382Y-41988339D01*
X27588340Y-41977389D01*
X27638140Y-41599121D01*
X27640049Y-41588296D01*
X27722626Y-41215816D01*
X27725471Y-41205198D01*
X27831850Y-40867806D01*
X27840200Y-40841323D01*
X27843956Y-40831002D01*
X27989969Y-40478496D01*
X27994602Y-40468561D01*
X28170783Y-40130122D01*
X28176273Y-40120613D01*
X28381266Y-39798838D01*
X28387570Y-39789834D01*
X28619838Y-39487136D01*
X28626904Y-39478716D01*
X28719996Y-39377124D01*
X28884660Y-39197425D01*
X28892429Y-39189656D01*
X28916419Y-39167674D01*
X29173719Y-38931902D01*
X29182136Y-38924838D01*
X29484834Y-38692570D01*
X29493838Y-38686266D01*
X29815613Y-38481273D01*
X29825122Y-38475783D01*
X30163561Y-38299602D01*
X30173496Y-38294969D01*
X30526009Y-38148953D01*
X30536323Y-38145200D01*
X30900199Y-38030471D01*
X30910816Y-38027626D01*
X31283304Y-37945048D01*
X31294113Y-37943141D01*
X31672390Y-37893340D01*
X31683338Y-37892382D01*
X32033783Y-37877081D01*
X32041624Y-37877799D01*
X32041625Y-37877451D01*
X32055811Y-37877476D01*
X32069641Y-37880656D01*
X32083480Y-37877525D01*
X32088311Y-37877533D01*
X32106504Y-37875500D01*
X128032920Y-37875500D01*
X128050242Y-37877466D01*
G37*
%TD.AperFunction*%
%TD*%
M02*
