%TF.GenerationSoftware,KiCad,Pcbnew,(6.0.11)*%
%TF.CreationDate,2023-07-06T01:04:48-04:00*%
%TF.ProjectId,RP_CHG_r01,52505f43-4847-45f7-9230-312e6b696361,rev?*%
%TF.SameCoordinates,Original*%
%TF.FileFunction,Legend,Bot*%
%TF.FilePolarity,Positive*%
%FSLAX46Y46*%
G04 Gerber Fmt 4.6, Leading zero omitted, Abs format (unit mm)*
G04 Created by KiCad (PCBNEW (6.0.11)) date 2023-07-06 01:04:48*
%MOMM*%
%LPD*%
G01*
G04 APERTURE LIST*
%ADD10C,0.250000*%
%ADD11C,0.300000*%
%ADD12C,0.150000*%
%ADD13C,0.500000*%
%ADD14C,14.000000*%
%ADD15C,7.500000*%
%ADD16C,2.100000*%
%ADD17C,7.000000*%
G04 APERTURE END LIST*
D10*
X57641428Y-68082142D02*
X56498571Y-68082142D01*
X57070000Y-68653571D02*
X57070000Y-67510714D01*
X63641428Y-68082142D02*
X62498571Y-68082142D01*
X66391428Y-66403571D02*
X67248571Y-66403571D01*
X66820000Y-66403571D02*
X66820000Y-64903571D01*
X66962857Y-65117857D01*
X67105714Y-65260714D01*
X67248571Y-65332142D01*
X65534285Y-65546428D02*
X65677142Y-65475000D01*
X65748571Y-65403571D01*
X65820000Y-65260714D01*
X65820000Y-65189285D01*
X65748571Y-65046428D01*
X65677142Y-64975000D01*
X65534285Y-64903571D01*
X65248571Y-64903571D01*
X65105714Y-64975000D01*
X65034285Y-65046428D01*
X64962857Y-65189285D01*
X64962857Y-65260714D01*
X65034285Y-65403571D01*
X65105714Y-65475000D01*
X65248571Y-65546428D01*
X65534285Y-65546428D01*
X65677142Y-65617857D01*
X65748571Y-65689285D01*
X65820000Y-65832142D01*
X65820000Y-66117857D01*
X65748571Y-66260714D01*
X65677142Y-66332142D01*
X65534285Y-66403571D01*
X65248571Y-66403571D01*
X65105714Y-66332142D01*
X65034285Y-66260714D01*
X64962857Y-66117857D01*
X64962857Y-65832142D01*
X65034285Y-65689285D01*
X65105714Y-65617857D01*
X65248571Y-65546428D01*
X64534285Y-65832142D02*
X64462857Y-65760714D01*
X64320000Y-65689285D01*
X64034285Y-65832142D01*
X63891428Y-65760714D01*
X63820000Y-65689285D01*
X63320000Y-65046428D02*
X63248571Y-64975000D01*
X63105714Y-64903571D01*
X62748571Y-64903571D01*
X62605714Y-64975000D01*
X62534285Y-65046428D01*
X62462857Y-65189285D01*
X62462857Y-65332142D01*
X62534285Y-65546428D01*
X63391428Y-66403571D01*
X62462857Y-66403571D01*
X61177142Y-65403571D02*
X61177142Y-66403571D01*
X61534285Y-64832142D02*
X61891428Y-65903571D01*
X60962857Y-65903571D01*
X60605714Y-64903571D02*
X60105714Y-66403571D01*
X59605714Y-64903571D01*
X59105714Y-66403571D02*
X59105714Y-64903571D01*
X58748571Y-64903571D01*
X58534285Y-64975000D01*
X58391428Y-65117857D01*
X58320000Y-65260714D01*
X58248571Y-65546428D01*
X58248571Y-65760714D01*
X58320000Y-66046428D01*
X58391428Y-66189285D01*
X58534285Y-66332142D01*
X58748571Y-66403571D01*
X59105714Y-66403571D01*
X56748571Y-66260714D02*
X56820000Y-66332142D01*
X57034285Y-66403571D01*
X57177142Y-66403571D01*
X57391428Y-66332142D01*
X57534285Y-66189285D01*
X57605714Y-66046428D01*
X57677142Y-65760714D01*
X57677142Y-65546428D01*
X57605714Y-65260714D01*
X57534285Y-65117857D01*
X57391428Y-64975000D01*
X57177142Y-64903571D01*
X57034285Y-64903571D01*
X56820000Y-64975000D01*
X56748571Y-65046428D01*
X55105714Y-64903571D02*
X54177142Y-64903571D01*
X54677142Y-65475000D01*
X54462857Y-65475000D01*
X54320000Y-65546428D01*
X54248571Y-65617857D01*
X54177142Y-65760714D01*
X54177142Y-66117857D01*
X54248571Y-66260714D01*
X54320000Y-66332142D01*
X54462857Y-66403571D01*
X54891428Y-66403571D01*
X55034285Y-66332142D01*
X55105714Y-66260714D01*
X53605714Y-65975000D02*
X52891428Y-65975000D01*
X53748571Y-66403571D02*
X53248571Y-64903571D01*
X52748571Y-66403571D01*
D11*
X61974761Y-58879761D02*
X61593809Y-58879761D01*
X61403333Y-58975000D01*
X61212857Y-59165476D01*
X61117619Y-59546428D01*
X61117619Y-60213095D01*
X61212857Y-60594047D01*
X61403333Y-60784523D01*
X61593809Y-60879761D01*
X61974761Y-60879761D01*
X62165238Y-60784523D01*
X62355714Y-60594047D01*
X62450952Y-60213095D01*
X62450952Y-59546428D01*
X62355714Y-59165476D01*
X62165238Y-58975000D01*
X61974761Y-58879761D01*
X59593809Y-59832142D02*
X60260476Y-59832142D01*
X60260476Y-60879761D02*
X60260476Y-58879761D01*
X59308095Y-58879761D01*
X57879523Y-59832142D02*
X58546190Y-59832142D01*
X58546190Y-60879761D02*
X58546190Y-58879761D01*
X57593809Y-58879761D01*
X61308095Y-44879761D02*
X60927142Y-44879761D01*
X60736666Y-44975000D01*
X60546190Y-45165476D01*
X60450952Y-45546428D01*
X60450952Y-46213095D01*
X60546190Y-46594047D01*
X60736666Y-46784523D01*
X60927142Y-46879761D01*
X61308095Y-46879761D01*
X61498571Y-46784523D01*
X61689047Y-46594047D01*
X61784285Y-46213095D01*
X61784285Y-45546428D01*
X61689047Y-45165476D01*
X61498571Y-44975000D01*
X61308095Y-44879761D01*
X59593809Y-46879761D02*
X59593809Y-44879761D01*
X58450952Y-46879761D01*
X58450952Y-44879761D01*
D12*
%TO.C,REF\u002A\u002A*%
X62070000Y-68050000D02*
X61170000Y-68050000D01*
X60070000Y-68050000D02*
X58070000Y-68050000D01*
X59320000Y-68725000D02*
G75*
G03*
X59395000Y-67300000I750000J675000D01*
G01*
D13*
X60245000Y-68050000D02*
G75*
G03*
X60245000Y-68050000I-175000J0D01*
G01*
D12*
X63995000Y-68050000D02*
G75*
G03*
X63995000Y-68050000I-925000J0D01*
G01*
X57995000Y-68050000D02*
G75*
G03*
X57995000Y-68050000I-925000J0D01*
G01*
%TD*%
%LPC*%
D14*
%TO.C,J1*%
X60070000Y-76975000D03*
%TD*%
D15*
%TO.C,H5*%
X60070000Y-52975000D03*
%TD*%
D16*
%TO.C,D2*%
X40070000Y-76975000D03*
%TD*%
%TO.C,D1*%
X40070000Y-71975000D03*
%TD*%
D17*
%TO.C,H4*%
X128070000Y-42375000D03*
%TD*%
%TO.C,H1*%
X32070000Y-42375000D03*
%TD*%
%TO.C,H3*%
X128070000Y-87575000D03*
%TD*%
%TO.C,H2*%
X32070000Y-87575000D03*
%TD*%
M02*
